%TF.GenerationSoftware,KiCad,Pcbnew,9.0.1*%
%TF.CreationDate,2025-05-06T19:36:42-04:00*%
%TF.ProjectId,mainBoard,6d61696e-426f-4617-9264-2e6b69636164,01*%
%TF.SameCoordinates,Original*%
%TF.FileFunction,Paste,Bot*%
%TF.FilePolarity,Positive*%
%FSLAX46Y46*%
G04 Gerber Fmt 4.6, Leading zero omitted, Abs format (unit mm)*
G04 Created by KiCad (PCBNEW 9.0.1) date 2025-05-06 19:36:42*
%MOMM*%
%LPD*%
G01*
G04 APERTURE LIST*
G04 Aperture macros list*
%AMRoundRect*
0 Rectangle with rounded corners*
0 $1 Rounding radius*
0 $2 $3 $4 $5 $6 $7 $8 $9 X,Y pos of 4 corners*
0 Add a 4 corners polygon primitive as box body*
4,1,4,$2,$3,$4,$5,$6,$7,$8,$9,$2,$3,0*
0 Add four circle primitives for the rounded corners*
1,1,$1+$1,$2,$3*
1,1,$1+$1,$4,$5*
1,1,$1+$1,$6,$7*
1,1,$1+$1,$8,$9*
0 Add four rect primitives between the rounded corners*
20,1,$1+$1,$2,$3,$4,$5,0*
20,1,$1+$1,$4,$5,$6,$7,0*
20,1,$1+$1,$6,$7,$8,$9,0*
20,1,$1+$1,$8,$9,$2,$3,0*%
%AMFreePoly0*
4,1,13,0.418406,1.980911,0.832233,1.915367,1.035280,1.863702,0.452934,-0.309631,0.304499,-0.273105,0.000000,-0.246465,-0.304499,-0.273105,-0.452934,-0.309631,-1.035280,1.863702,-0.832241,1.915366,-0.418415,1.980910,-0.000004,2.002838,0.418406,1.980911,0.418406,1.980911,$1*%
%AMFreePoly1*
4,1,13,0.418405,1.980815,0.832222,1.915274,1.035280,1.863702,0.452934,-0.309631,0.304498,-0.273105,0.000000,-0.246465,-0.304499,-0.273104,-0.452934,-0.309631,-1.035280,1.863702,-0.832213,1.915275,-0.418397,1.980817,0.000004,2.002744,0.418405,1.980815,0.418405,1.980815,$1*%
G04 Aperture macros list end*
%ADD10FreePoly0,90.000000*%
%ADD11FreePoly0,30.000000*%
%ADD12FreePoly1,150.000000*%
%ADD13FreePoly1,330.000000*%
%ADD14FreePoly0,210.000000*%
%ADD15FreePoly0,270.000000*%
%ADD16RoundRect,0.150000X-0.150000X-0.150000X0.150000X-0.150000X0.150000X0.150000X-0.150000X0.150000X0*%
%ADD17RoundRect,0.150000X-0.150000X0.150000X-0.150000X-0.150000X0.150000X-0.150000X0.150000X0.150000X0*%
%ADD18RoundRect,0.250000X0.625000X0.950000X-0.625000X0.950000X-0.625000X-0.950000X0.625000X-0.950000X0*%
%ADD19RoundRect,0.150000X0.150000X-0.150000X0.150000X0.150000X-0.150000X0.150000X-0.150000X-0.150000X0*%
%ADD20RoundRect,0.100000X0.250000X-0.100000X0.250000X0.100000X-0.250000X0.100000X-0.250000X-0.100000X0*%
%ADD21RoundRect,0.200000X-0.200000X-0.250000X0.200000X-0.250000X0.200000X0.250000X-0.200000X0.250000X0*%
%ADD22RoundRect,0.150000X0.150000X0.200000X-0.150000X0.200000X-0.150000X-0.200000X0.150000X-0.200000X0*%
%ADD23RoundRect,0.150000X0.150000X0.150000X-0.150000X0.150000X-0.150000X-0.150000X0.150000X-0.150000X0*%
%ADD24RoundRect,0.275000X-0.375000X0.275000X-0.375000X-0.275000X0.375000X-0.275000X0.375000X0.275000X0*%
%ADD25RoundRect,0.152250X0.152250X-0.417250X0.152250X0.417250X-0.152250X0.417250X-0.152250X-0.417250X0*%
%ADD26RoundRect,0.300000X-0.300000X-0.550000X0.300000X-0.550000X0.300000X0.550000X-0.300000X0.550000X0*%
%ADD27RoundRect,0.125000X-0.125000X-0.175000X0.125000X-0.175000X0.125000X0.175000X-0.125000X0.175000X0*%
%ADD28RoundRect,0.050000X0.100000X0.200000X-0.100000X0.200000X-0.100000X-0.200000X0.100000X-0.200000X0*%
%ADD29RoundRect,0.030000X0.120000X0.220000X-0.120000X0.220000X-0.120000X-0.220000X0.120000X-0.220000X0*%
%ADD30RoundRect,0.125000X-0.175000X0.125000X-0.175000X-0.125000X0.175000X-0.125000X0.175000X0.125000X0*%
%ADD31RoundRect,0.125000X0.175000X-0.125000X0.175000X0.125000X-0.175000X0.125000X-0.175000X-0.125000X0*%
%ADD32RoundRect,0.250000X0.650000X1.700000X-0.650000X1.700000X-0.650000X-1.700000X0.650000X-1.700000X0*%
%ADD33RoundRect,0.250000X0.400000X2.000000X-0.400000X2.000000X-0.400000X-2.000000X0.400000X-2.000000X0*%
%ADD34RoundRect,0.050000X-0.950000X-0.600000X0.950000X-0.600000X0.950000X0.600000X-0.950000X0.600000X0*%
%ADD35RoundRect,0.050000X-0.150000X-0.450000X0.150000X-0.450000X0.150000X0.450000X-0.150000X0.450000X0*%
%ADD36RoundRect,0.150000X0.450000X0.450000X-0.450000X0.450000X-0.450000X-0.450000X0.450000X-0.450000X0*%
%ADD37RoundRect,0.125000X0.125000X0.175000X-0.125000X0.175000X-0.125000X-0.175000X0.125000X-0.175000X0*%
%ADD38RoundRect,0.150000X-0.150000X-0.200000X0.150000X-0.200000X0.150000X0.200000X-0.150000X0.200000X0*%
%ADD39RoundRect,0.250000X0.500000X1.450000X-0.500000X1.450000X-0.500000X-1.450000X0.500000X-1.450000X0*%
%ADD40RoundRect,0.250000X0.250000X1.500000X-0.250000X1.500000X-0.250000X-1.500000X0.250000X-1.500000X0*%
G04 APERTURE END LIST*
D10*
%TO.C,J1*%
X86500000Y-61500000D03*
D11*
X87500000Y-59768000D03*
D12*
X87500000Y-63232000D03*
D13*
X89500000Y-59768000D03*
D14*
X89500000Y-63232000D03*
D15*
X90500000Y-61500000D03*
%TD*%
D16*
%TO.C,R1*%
X167725000Y-126325000D03*
X168775000Y-126325000D03*
%TD*%
D17*
%TO.C,R8*%
X160175000Y-137725000D03*
X160175000Y-138775000D03*
%TD*%
D18*
%TO.C,C58*%
X83300000Y-143600000D03*
X78050000Y-143600000D03*
%TD*%
D19*
%TO.C,R52*%
X83500000Y-119025000D03*
X83500000Y-117975000D03*
%TD*%
D20*
%TO.C,D4*%
X184325000Y-130350000D03*
X184325000Y-129650000D03*
%TD*%
D17*
%TO.C,R4*%
X166675000Y-137725000D03*
X166675000Y-138775000D03*
%TD*%
D21*
%TO.C,C52*%
X78300000Y-118000000D03*
X79700000Y-118000000D03*
%TD*%
D22*
%TO.C,D10*%
X76700000Y-101300000D03*
X75300000Y-101300000D03*
%TD*%
D16*
%TO.C,R31*%
X82475000Y-110900000D03*
X83525000Y-110900000D03*
%TD*%
D23*
%TO.C,R79*%
X75525000Y-57750000D03*
X74475000Y-57750000D03*
%TD*%
D21*
%TO.C,C56*%
X78300000Y-137550000D03*
X79700000Y-137550000D03*
%TD*%
D24*
%TO.C,C20*%
X153000000Y-128300000D03*
X153000000Y-130200000D03*
%TD*%
D25*
%TO.C,D7*%
X188575000Y-132200000D03*
X187625000Y-132200000D03*
X186675000Y-132200000D03*
X186675000Y-129800000D03*
X188575000Y-129800000D03*
%TD*%
D26*
%TO.C,C54*%
X78300000Y-141150000D03*
X81500000Y-141150000D03*
%TD*%
D19*
%TO.C,R28*%
X82650000Y-100325000D03*
X82650000Y-99275000D03*
%TD*%
D16*
%TO.C,R2*%
X167725000Y-127675000D03*
X168775000Y-127675000D03*
%TD*%
%TO.C,R85*%
X109125000Y-70400000D03*
X110175000Y-70400000D03*
%TD*%
D27*
%TO.C,C107*%
X89250000Y-109817500D03*
X90250000Y-109817500D03*
%TD*%
D23*
%TO.C,R78*%
X75525000Y-70250000D03*
X74475000Y-70250000D03*
%TD*%
D28*
%TO.C,D8*%
X75550000Y-99950000D03*
D29*
X74850000Y-99950000D03*
%TD*%
D23*
%TO.C,R83*%
X110175000Y-71750000D03*
X109125000Y-71750000D03*
%TD*%
%TO.C,R17*%
X146325000Y-135000000D03*
X145275000Y-135000000D03*
%TD*%
D30*
%TO.C,C6*%
X151250000Y-131000000D03*
X151250000Y-132000000D03*
%TD*%
D23*
%TO.C,R12*%
X152275000Y-122500000D03*
X151225000Y-122500000D03*
%TD*%
%TO.C,R16*%
X168775000Y-132250000D03*
X167725000Y-132250000D03*
%TD*%
D31*
%TO.C,C5*%
X151250000Y-127500000D03*
X151250000Y-126500000D03*
%TD*%
D32*
%TO.C,J29*%
X132950000Y-72350000D03*
X121550000Y-72350000D03*
D33*
X129750000Y-65550000D03*
X127250000Y-65550000D03*
X124750000Y-65550000D03*
%TD*%
D30*
%TO.C,C136*%
X107950000Y-66800000D03*
X107950000Y-67800000D03*
%TD*%
D19*
%TO.C,R6*%
X155825000Y-122600000D03*
X155825000Y-121550000D03*
%TD*%
D31*
%TO.C,C133*%
X104550000Y-67800000D03*
X104550000Y-66800000D03*
%TD*%
D19*
%TO.C,R7*%
X157175000Y-122600000D03*
X157175000Y-121550000D03*
%TD*%
D23*
%TO.C,R19*%
X146325000Y-133750000D03*
X145275000Y-133750000D03*
%TD*%
D17*
%TO.C,R9*%
X158825000Y-137725000D03*
X158825000Y-138775000D03*
%TD*%
D20*
%TO.C,D5*%
X182200000Y-130350000D03*
X182200000Y-129650000D03*
%TD*%
D23*
%TO.C,R70*%
X75525000Y-75750000D03*
X74475000Y-75750000D03*
%TD*%
D16*
%TO.C,R32*%
X82475000Y-93100000D03*
X83525000Y-93100000D03*
%TD*%
D20*
%TO.C,D6*%
X180950000Y-130350000D03*
X180950000Y-129650000D03*
%TD*%
D23*
%TO.C,R20*%
X146325000Y-131250000D03*
X145275000Y-131250000D03*
%TD*%
D34*
%TO.C,J24*%
X86200000Y-113937500D03*
X94800000Y-113937500D03*
D35*
X89000000Y-116637500D03*
X90000000Y-116637500D03*
X91000000Y-116637500D03*
X92000000Y-116637500D03*
%TD*%
D17*
%TO.C,R50*%
X84000000Y-139975000D03*
X84000000Y-141025000D03*
%TD*%
D36*
%TO.C,D26*%
X76400000Y-68000000D03*
X73600000Y-68000000D03*
%TD*%
D22*
%TO.C,D19*%
X75700000Y-82000000D03*
X74300000Y-82000000D03*
%TD*%
D23*
%TO.C,R18*%
X146325000Y-132500000D03*
X145275000Y-132500000D03*
%TD*%
D22*
%TO.C,D20*%
X75700000Y-80300000D03*
X74300000Y-80300000D03*
%TD*%
D37*
%TO.C,C33*%
X184825000Y-125750000D03*
X183825000Y-125750000D03*
%TD*%
D23*
%TO.C,R69*%
X75525000Y-88250000D03*
X74475000Y-88250000D03*
%TD*%
D22*
%TO.C,D9*%
X76700000Y-102700000D03*
X75300000Y-102700000D03*
%TD*%
D30*
%TO.C,C21*%
X151250000Y-128750000D03*
X151250000Y-129750000D03*
%TD*%
D17*
%TO.C,R5*%
X165325000Y-137725000D03*
X165325000Y-138775000D03*
%TD*%
D38*
%TO.C,D21*%
X85725000Y-109792500D03*
X87125000Y-109792500D03*
%TD*%
D23*
%TO.C,R43*%
X86075000Y-142900000D03*
X85025000Y-142900000D03*
%TD*%
D26*
%TO.C,C51*%
X77400000Y-116000000D03*
X80600000Y-116000000D03*
%TD*%
D17*
%TO.C,R29*%
X75800000Y-104025000D03*
X75800000Y-105075000D03*
%TD*%
D23*
%TO.C,R10*%
X152275000Y-121250000D03*
X151225000Y-121250000D03*
%TD*%
D21*
%TO.C,C53*%
X78300000Y-119700000D03*
X79700000Y-119700000D03*
%TD*%
D23*
%TO.C,R46*%
X86075000Y-144300000D03*
X85025000Y-144300000D03*
%TD*%
D21*
%TO.C,C55*%
X78300000Y-139200000D03*
X79700000Y-139200000D03*
%TD*%
D19*
%TO.C,R51*%
X82000000Y-119025000D03*
X82000000Y-117975000D03*
%TD*%
D38*
%TO.C,D22*%
X85725000Y-107442500D03*
X87125000Y-107442500D03*
%TD*%
D23*
%TO.C,R21*%
X146325000Y-130000000D03*
X145275000Y-130000000D03*
%TD*%
D39*
%TO.C,J28*%
X119100000Y-72600000D03*
X112400000Y-72600000D03*
D40*
X116750000Y-66850000D03*
X114750000Y-66850000D03*
%TD*%
D16*
%TO.C,R80*%
X109125000Y-69200000D03*
X110175000Y-69200000D03*
%TD*%
M02*
