%TF.GenerationSoftware,KiCad,Pcbnew,9.0.1*%
%TF.CreationDate,2025-05-06T19:36:42-04:00*%
%TF.ProjectId,mainBoard,6d61696e-426f-4617-9264-2e6b69636164,01*%
%TF.SameCoordinates,Original*%
%TF.FileFunction,Profile,NP*%
%FSLAX46Y46*%
G04 Gerber Fmt 4.6, Leading zero omitted, Abs format (unit mm)*
G04 Created by KiCad (PCBNEW 9.0.1) date 2025-05-06 19:36:42*
%MOMM*%
%LPD*%
G01*
G04 APERTURE LIST*
%TA.AperFunction,Profile*%
%ADD10C,0.050000*%
%TD*%
G04 APERTURE END LIST*
D10*
X70000000Y-52000000D02*
G75*
G02*
X72000000Y-50000000I2000000J0D01*
G01*
X72550000Y-113600000D02*
X72550000Y-90400000D01*
X72050000Y-89900000D02*
G75*
G02*
X72550000Y-90400000I0J-500000D01*
G01*
X70000000Y-139850000D02*
G75*
G02*
X70500000Y-139350000I500000J0D01*
G01*
X227150000Y-124000000D02*
G75*
G02*
X227650000Y-123500000I500000J0D01*
G01*
X70000000Y-139850000D02*
X70000000Y-148000000D01*
X70000000Y-114600000D02*
G75*
G02*
X70500000Y-114100000I500000J0D01*
G01*
X72000000Y-150000000D02*
X228000000Y-150000000D01*
X70500000Y-89900000D02*
G75*
G02*
X70000000Y-89400000I0J500000D01*
G01*
X229500000Y-141000000D02*
X227650000Y-141000000D01*
X72000000Y-150000000D02*
G75*
G02*
X70000000Y-148000000I0J2000000D01*
G01*
X72350000Y-118650000D02*
X70500000Y-118650000D01*
X229500000Y-123500000D02*
X227650000Y-123500000D01*
X230000000Y-148000000D02*
G75*
G02*
X228000000Y-150000000I-2000000J0D01*
G01*
X230000000Y-141500000D02*
X230000000Y-148000000D01*
X229500000Y-141000000D02*
G75*
G02*
X230000000Y-141500000I0J-500000D01*
G01*
X72050000Y-89900000D02*
X70500000Y-89900000D01*
X230000000Y-123000000D02*
G75*
G02*
X229500000Y-123500000I-500000J0D01*
G01*
X70000000Y-118150000D02*
X70000000Y-114600000D01*
X72850000Y-138850000D02*
G75*
G02*
X72350000Y-139350000I-500000J0D01*
G01*
X227150000Y-124000000D02*
X227150000Y-140500000D01*
X70500000Y-118650000D02*
G75*
G02*
X70000000Y-118150000I0J500000D01*
G01*
X230000000Y-123000000D02*
X230000000Y-52000000D01*
X72850000Y-138850000D02*
X72850000Y-119150000D01*
X72350000Y-139350000D02*
X70500000Y-139350000D01*
X228000000Y-50000000D02*
X72000000Y-50000000D01*
X72050000Y-114100000D02*
X70500000Y-114100000D01*
X227650000Y-141000000D02*
G75*
G02*
X227150000Y-140500000I0J500000D01*
G01*
X72550000Y-113600000D02*
G75*
G02*
X72050000Y-114100000I-500000J0D01*
G01*
X70000000Y-89400000D02*
X70000000Y-52000000D01*
X72350000Y-118650000D02*
G75*
G02*
X72850000Y-119150000I0J-500000D01*
G01*
X228000000Y-50000000D02*
G75*
G02*
X230000000Y-52000000I0J-2000000D01*
G01*
M02*
