%TF.GenerationSoftware,KiCad,Pcbnew,9.0.1*%
%TF.CreationDate,2025-05-06T19:36:42-04:00*%
%TF.ProjectId,mainBoard,6d61696e-426f-4617-9264-2e6b69636164,01*%
%TF.SameCoordinates,Original*%
%TF.FileFunction,Paste,Top*%
%TF.FilePolarity,Positive*%
%FSLAX46Y46*%
G04 Gerber Fmt 4.6, Leading zero omitted, Abs format (unit mm)*
G04 Created by KiCad (PCBNEW 9.0.1) date 2025-05-06 19:36:42*
%MOMM*%
%LPD*%
G01*
G04 APERTURE LIST*
G04 Aperture macros list*
%AMRoundRect*
0 Rectangle with rounded corners*
0 $1 Rounding radius*
0 $2 $3 $4 $5 $6 $7 $8 $9 X,Y pos of 4 corners*
0 Add a 4 corners polygon primitive as box body*
4,1,4,$2,$3,$4,$5,$6,$7,$8,$9,$2,$3,0*
0 Add four circle primitives for the rounded corners*
1,1,$1+$1,$2,$3*
1,1,$1+$1,$4,$5*
1,1,$1+$1,$6,$7*
1,1,$1+$1,$8,$9*
0 Add four rect primitives between the rounded corners*
20,1,$1+$1,$2,$3,$4,$5,0*
20,1,$1+$1,$4,$5,$6,$7,0*
20,1,$1+$1,$6,$7,$8,$9,0*
20,1,$1+$1,$8,$9,$2,$3,0*%
%AMFreePoly0*
4,1,27,0.419134,0.596194,0.435355,0.585355,0.446194,0.569134,0.450000,0.550000,0.450000,-0.050000,0.446194,-0.069134,0.435355,-0.085355,0.419134,-0.096194,0.400000,-0.100000,-0.400000,-0.100000,-0.419134,-0.096194,-0.435355,-0.085355,-0.446194,-0.069134,-0.450000,-0.050000,-0.450000,0.050000,-0.446194,0.069134,-0.435355,0.085355,-0.419134,0.096194,-0.400000,0.100000,0.250000,0.100000,
0.250000,0.550000,0.253806,0.569134,0.264645,0.585355,0.280866,0.596194,0.300000,0.600000,0.400000,0.600000,0.419134,0.596194,0.419134,0.596194,$1*%
%AMFreePoly1*
4,1,27,0.419134,0.096194,0.435355,0.085355,0.446194,0.069134,0.450000,0.050000,0.450000,-0.550000,0.446194,-0.569134,0.435355,-0.585355,0.419134,-0.596194,0.400000,-0.600000,0.300000,-0.600000,0.280866,-0.596194,0.264645,-0.585355,0.253806,-0.569134,0.250000,-0.550000,0.250000,-0.100000,-0.400000,-0.100000,-0.419134,-0.096194,-0.435355,-0.085355,-0.446194,-0.069134,-0.450000,-0.050000,
-0.450000,0.050000,-0.446194,0.069134,-0.435355,0.085355,-0.419134,0.096194,-0.400000,0.100000,0.400000,0.100000,0.419134,0.096194,0.419134,0.096194,$1*%
%AMFreePoly2*
4,1,27,0.419134,0.096194,0.435355,0.085355,0.446194,0.069134,0.450000,0.050000,0.450000,-0.050000,0.446194,-0.069134,0.435355,-0.085355,0.419134,-0.096194,0.400000,-0.100000,-0.250000,-0.100000,-0.250000,-0.550000,-0.253806,-0.569134,-0.264645,-0.585355,-0.280866,-0.596194,-0.300000,-0.600000,-0.400000,-0.600000,-0.419134,-0.596194,-0.435355,-0.585355,-0.446194,-0.569134,-0.450000,-0.550000,
-0.450000,0.050000,-0.446194,0.069134,-0.435355,0.085355,-0.419134,0.096194,-0.400000,0.100000,0.400000,0.100000,0.419134,0.096194,0.419134,0.096194,$1*%
%AMFreePoly3*
4,1,27,-0.280866,0.596194,-0.264645,0.585355,-0.253806,0.569134,-0.250000,0.550000,-0.250000,0.100000,0.400000,0.100000,0.419134,0.096194,0.435355,0.085355,0.446194,0.069134,0.450000,0.050000,0.450000,-0.050000,0.446194,-0.069134,0.435355,-0.085355,0.419134,-0.096194,0.400000,-0.100000,-0.400000,-0.100000,-0.419134,-0.096194,-0.435355,-0.085355,-0.446194,-0.069134,-0.450000,-0.050000,
-0.450000,0.550000,-0.446194,0.569134,-0.435355,0.585355,-0.419134,0.596194,-0.400000,0.600000,-0.300000,0.600000,-0.280866,0.596194,-0.280866,0.596194,$1*%
%AMFreePoly4*
4,1,27,-0.025000,0.110000,0.392000,0.110000,0.404629,0.107488,0.415335,0.100335,0.422488,0.089629,0.425000,0.077000,0.425000,-0.077000,0.422488,-0.089629,0.415335,-0.100335,0.404629,-0.107488,0.392000,-0.110000,-0.025000,-0.110000,-0.025000,-0.150000,-0.385000,-0.150000,-0.388045,-0.146955,-0.400307,-0.146955,-0.421955,-0.125307,-0.421955,-0.113045,-0.425000,-0.110000,-0.425000,0.110000,
-0.421955,0.113045,-0.421955,0.125307,-0.400307,0.146955,-0.388045,0.146955,-0.385000,0.150000,-0.025000,0.150000,-0.025000,0.110000,-0.025000,0.110000,$1*%
G04 Aperture macros list end*
%ADD10C,0.100000*%
%ADD11RoundRect,0.275000X0.375000X-0.275000X0.375000X0.275000X-0.375000X0.275000X-0.375000X-0.275000X0*%
%ADD12RoundRect,0.150000X0.150000X-0.150000X0.150000X0.150000X-0.150000X0.150000X-0.150000X-0.150000X0*%
%ADD13RoundRect,0.250000X-0.650000X0.350000X-0.650000X-0.350000X0.650000X-0.350000X0.650000X0.350000X0*%
%ADD14RoundRect,0.150000X-0.625000X0.150000X-0.625000X-0.150000X0.625000X-0.150000X0.625000X0.150000X0*%
%ADD15RoundRect,0.050000X0.100000X-0.225000X0.100000X0.225000X-0.100000X0.225000X-0.100000X-0.225000X0*%
%ADD16RoundRect,0.050000X0.225000X0.100000X-0.225000X0.100000X-0.225000X-0.100000X0.225000X-0.100000X0*%
%ADD17RoundRect,0.050000X-0.100000X0.225000X-0.100000X-0.225000X0.100000X-0.225000X0.100000X0.225000X0*%
%ADD18RoundRect,0.050000X-0.225000X-0.100000X0.225000X-0.100000X0.225000X0.100000X-0.225000X0.100000X0*%
%ADD19RoundRect,0.125000X0.125000X0.175000X-0.125000X0.175000X-0.125000X-0.175000X0.125000X-0.175000X0*%
%ADD20C,6.500000*%
%ADD21RoundRect,0.150000X-0.150000X0.150000X-0.150000X-0.150000X0.150000X-0.150000X0.150000X0.150000X0*%
%ADD22RoundRect,0.125000X-0.035355X0.212132X-0.212132X0.035355X0.035355X-0.212132X0.212132X-0.035355X0*%
%ADD23RoundRect,0.150000X-0.150000X-0.150000X0.150000X-0.150000X0.150000X0.150000X-0.150000X0.150000X0*%
%ADD24FreePoly0,0.000000*%
%ADD25RoundRect,0.050000X-0.250000X-0.050000X0.250000X-0.050000X0.250000X0.050000X-0.250000X0.050000X0*%
%ADD26FreePoly1,0.000000*%
%ADD27RoundRect,0.050000X0.050000X-0.250000X0.050000X0.250000X-0.050000X0.250000X-0.050000X-0.250000X0*%
%ADD28FreePoly2,0.000000*%
%ADD29RoundRect,0.050000X0.300000X0.050000X-0.300000X0.050000X-0.300000X-0.050000X0.300000X-0.050000X0*%
%ADD30RoundRect,0.050000X0.275000X0.050000X-0.275000X0.050000X-0.275000X-0.050000X0.275000X-0.050000X0*%
%ADD31RoundRect,0.050000X0.290000X0.050000X-0.290000X0.050000X-0.290000X-0.050000X0.290000X-0.050000X0*%
%ADD32RoundRect,0.050000X0.250000X0.050000X-0.250000X0.050000X-0.250000X-0.050000X0.250000X-0.050000X0*%
%ADD33FreePoly3,0.000000*%
%ADD34RoundRect,0.050000X-0.050000X0.450000X-0.050000X-0.450000X0.050000X-0.450000X0.050000X0.450000X0*%
%ADD35RoundRect,0.050000X-0.050000X0.425000X-0.050000X-0.425000X0.050000X-0.425000X0.050000X0.425000X0*%
%ADD36RoundRect,0.200000X0.200000X0.250000X-0.200000X0.250000X-0.200000X-0.250000X0.200000X-0.250000X0*%
%ADD37RoundRect,0.150000X0.150000X0.150000X-0.150000X0.150000X-0.150000X-0.150000X0.150000X-0.150000X0*%
%ADD38RoundRect,0.214286X1.085714X-0.385714X1.085714X0.385714X-1.085714X0.385714X-1.085714X-0.385714X0*%
%ADD39RoundRect,0.125000X-0.175000X0.125000X-0.175000X-0.125000X0.175000X-0.125000X0.175000X0.125000X0*%
%ADD40RoundRect,0.050000X0.250000X0.075000X-0.250000X0.075000X-0.250000X-0.075000X0.250000X-0.075000X0*%
%ADD41RoundRect,0.050000X-0.075000X0.250000X-0.075000X-0.250000X0.075000X-0.250000X0.075000X0.250000X0*%
%ADD42RoundRect,0.050000X-0.250000X-0.075000X0.250000X-0.075000X0.250000X0.075000X-0.250000X0.075000X0*%
%ADD43RoundRect,0.050000X0.075000X-0.250000X0.075000X0.250000X-0.075000X0.250000X-0.075000X-0.250000X0*%
%ADD44RoundRect,0.125000X0.175000X-0.125000X0.175000X0.125000X-0.175000X0.125000X-0.175000X-0.125000X0*%
%ADD45RoundRect,0.050000X0.450000X0.750000X-0.450000X0.750000X-0.450000X-0.750000X0.450000X-0.750000X0*%
%ADD46RoundRect,0.200000X-0.250000X0.200000X-0.250000X-0.200000X0.250000X-0.200000X0.250000X0.200000X0*%
%ADD47RoundRect,0.125000X-0.125000X-0.175000X0.125000X-0.175000X0.125000X0.175000X-0.125000X0.175000X0*%
%ADD48RoundRect,0.060000X0.415000X0.140000X-0.415000X0.140000X-0.415000X-0.140000X0.415000X-0.140000X0*%
%ADD49RoundRect,0.200000X-0.200000X-0.250000X0.200000X-0.250000X0.200000X0.250000X-0.200000X0.250000X0*%
%ADD50RoundRect,0.250000X-1.150000X0.475000X-1.150000X-0.475000X1.150000X-0.475000X1.150000X0.475000X0*%
%ADD51RoundRect,0.250000X-0.250000X-0.275000X0.250000X-0.275000X0.250000X0.275000X-0.250000X0.275000X0*%
%ADD52RoundRect,0.262500X-0.262500X-0.837500X0.262500X-0.837500X0.262500X0.837500X-0.262500X0.837500X0*%
%ADD53RoundRect,0.275000X-0.275000X-0.375000X0.275000X-0.375000X0.275000X0.375000X-0.275000X0.375000X0*%
%ADD54RoundRect,0.150000X0.150000X0.200000X-0.150000X0.200000X-0.150000X-0.200000X0.150000X-0.200000X0*%
%ADD55RoundRect,0.200000X0.250000X-0.200000X0.250000X0.200000X-0.250000X0.200000X-0.250000X-0.200000X0*%
%ADD56FreePoly4,180.000000*%
%ADD57FreePoly4,0.000000*%
%ADD58RoundRect,0.050000X-0.050000X0.300000X-0.050000X-0.300000X0.050000X-0.300000X0.050000X0.300000X0*%
%ADD59RoundRect,0.050000X-0.300000X-0.050000X0.300000X-0.050000X0.300000X0.050000X-0.300000X0.050000X0*%
%ADD60RoundRect,0.050000X0.050000X-0.300000X0.050000X0.300000X-0.050000X0.300000X-0.050000X-0.300000X0*%
%ADD61RoundRect,0.102500X0.102500X0.227500X-0.102500X0.227500X-0.102500X-0.227500X0.102500X-0.227500X0*%
%ADD62RoundRect,0.050000X-0.725000X-0.250000X0.725000X-0.250000X0.725000X0.250000X-0.725000X0.250000X0*%
%ADD63RoundRect,0.050000X0.250000X-0.725000X0.250000X0.725000X-0.250000X0.725000X-0.250000X-0.725000X0*%
%ADD64RoundRect,0.250000X-0.300000X-1.150000X0.300000X-1.150000X0.300000X1.150000X-0.300000X1.150000X0*%
%ADD65RoundRect,0.275000X-0.275000X-1.125000X0.275000X-1.125000X0.275000X1.125000X-0.275000X1.125000X0*%
%ADD66RoundRect,0.275000X0.275000X0.375000X-0.275000X0.375000X-0.275000X-0.375000X0.275000X-0.375000X0*%
%ADD67RoundRect,0.300000X-0.300000X-0.550000X0.300000X-0.550000X0.300000X0.550000X-0.300000X0.550000X0*%
%ADD68RoundRect,0.200000X0.200000X0.200000X-0.200000X0.200000X-0.200000X-0.200000X0.200000X-0.200000X0*%
%ADD69RoundRect,0.050000X-0.250000X-0.105000X0.250000X-0.105000X0.250000X0.105000X-0.250000X0.105000X0*%
%ADD70RoundRect,0.022435X-0.277565X-0.132565X0.277565X-0.132565X0.277565X0.132565X-0.277565X0.132565X0*%
%ADD71RoundRect,0.214286X-1.085714X0.385714X-1.085714X-0.385714X1.085714X-0.385714X1.085714X0.385714X0*%
%ADD72RoundRect,0.250000X0.350000X-1.650000X0.350000X1.650000X-0.350000X1.650000X-0.350000X-1.650000X0*%
%ADD73RoundRect,0.275000X-0.375000X0.275000X-0.375000X-0.275000X0.375000X-0.275000X0.375000X0.275000X0*%
%ADD74RoundRect,0.050000X-0.287500X0.337500X-0.287500X-0.337500X0.287500X-0.337500X0.287500X0.337500X0*%
%ADD75RoundRect,0.187500X-0.312500X0.187500X-0.312500X-0.187500X0.312500X-0.187500X0.312500X0.187500X0*%
%ADD76RoundRect,0.050000X0.475000X0.275000X-0.475000X0.275000X-0.475000X-0.275000X0.475000X-0.275000X0*%
%ADD77RoundRect,0.050000X-0.475000X-0.275000X0.475000X-0.275000X0.475000X0.275000X-0.475000X0.275000X0*%
%ADD78RoundRect,0.050000X0.225000X0.225000X-0.225000X0.225000X-0.225000X-0.225000X0.225000X-0.225000X0*%
%ADD79C,0.750000*%
%ADD80RoundRect,0.114000X-0.736000X-0.266000X0.736000X-0.266000X0.736000X0.266000X-0.736000X0.266000X0*%
%ADD81RoundRect,0.250000X0.350000X1.125000X-0.350000X1.125000X-0.350000X-1.125000X0.350000X-1.125000X0*%
%ADD82RoundRect,0.075000X0.075000X0.700000X-0.075000X0.700000X-0.075000X-0.700000X0.075000X-0.700000X0*%
%ADD83RoundRect,0.050000X0.100000X-0.300000X0.100000X0.300000X-0.100000X0.300000X-0.100000X-0.300000X0*%
%ADD84RoundRect,0.050000X0.300000X0.100000X-0.300000X0.100000X-0.300000X-0.100000X0.300000X-0.100000X0*%
%ADD85RoundRect,0.050000X-0.100000X0.300000X-0.100000X-0.300000X0.100000X-0.300000X0.100000X0.300000X0*%
%ADD86RoundRect,0.050000X-0.300000X-0.100000X0.300000X-0.100000X0.300000X0.100000X-0.300000X0.100000X0*%
%ADD87RoundRect,0.100000X0.250000X-0.100000X0.250000X0.100000X-0.250000X0.100000X-0.250000X-0.100000X0*%
%ADD88RoundRect,0.050000X0.686600X-0.064300X0.686600X0.064300X-0.686600X0.064300X-0.686600X-0.064300X0*%
%ADD89RoundRect,0.050000X-0.064300X-0.686600X0.064300X-0.686600X0.064300X0.686600X-0.064300X0.686600X0*%
%ADD90FreePoly4,90.000000*%
%ADD91FreePoly4,270.000000*%
%ADD92RoundRect,0.102500X-0.227500X0.102500X-0.227500X-0.102500X0.227500X-0.102500X0.227500X0.102500X0*%
%ADD93RoundRect,0.050000X-0.100000X0.250000X-0.100000X-0.250000X0.100000X-0.250000X0.100000X0.250000X0*%
%ADD94RoundRect,0.050000X-0.337500X-0.287500X0.337500X-0.287500X0.337500X0.287500X-0.337500X0.287500X0*%
%ADD95RoundRect,0.200000X0.200000X-0.200000X0.200000X0.200000X-0.200000X0.200000X-0.200000X-0.200000X0*%
%ADD96RoundRect,0.050000X0.100000X-0.250000X0.100000X0.250000X-0.100000X0.250000X-0.100000X-0.250000X0*%
%ADD97RoundRect,0.200000X-0.200000X-0.200000X0.200000X-0.200000X0.200000X0.200000X-0.200000X0.200000X0*%
%ADD98RoundRect,0.250000X-0.350000X-0.650000X0.350000X-0.650000X0.350000X0.650000X-0.350000X0.650000X0*%
%ADD99RoundRect,0.150000X-0.150000X-0.625000X0.150000X-0.625000X0.150000X0.625000X-0.150000X0.625000X0*%
%ADD100RoundRect,0.050000X0.487500X0.150000X-0.487500X0.150000X-0.487500X-0.150000X0.487500X-0.150000X0*%
%ADD101RoundRect,0.050000X0.362500X0.075000X-0.362500X0.075000X-0.362500X-0.075000X0.362500X-0.075000X0*%
%ADD102RoundRect,0.050000X-0.075000X0.287500X-0.075000X-0.287500X0.075000X-0.287500X0.075000X0.287500X0*%
%ADD103RoundRect,0.050000X-0.075000X0.362500X-0.075000X-0.362500X0.075000X-0.362500X0.075000X0.362500X0*%
%ADD104RoundRect,0.050000X-0.125000X1.437500X-0.125000X-1.437500X0.125000X-1.437500X0.125000X1.437500X0*%
%ADD105RoundRect,0.250000X0.250000X0.275000X-0.250000X0.275000X-0.250000X-0.275000X0.250000X-0.275000X0*%
%ADD106RoundRect,0.262500X0.262500X0.837500X-0.262500X0.837500X-0.262500X-0.837500X0.262500X-0.837500X0*%
%ADD107RoundRect,0.330000X1.510000X-0.495000X1.510000X0.495000X-1.510000X0.495000X-1.510000X-0.495000X0*%
%ADD108RoundRect,0.050000X-0.375000X-0.100000X0.375000X-0.100000X0.375000X0.100000X-0.375000X0.100000X0*%
%ADD109RoundRect,0.050000X-0.075000X-0.075000X0.075000X-0.075000X0.075000X0.075000X-0.075000X0.075000X0*%
%ADD110RoundRect,0.050000X0.350000X-0.700000X0.350000X0.700000X-0.350000X0.700000X-0.350000X-0.700000X0*%
%ADD111RoundRect,0.250000X-3.000000X-0.600000X3.000000X-0.600000X3.000000X0.600000X-3.000000X0.600000X0*%
%ADD112RoundRect,0.250000X-3.425000X-0.550000X3.425000X-0.550000X3.425000X0.550000X-3.425000X0.550000X0*%
%ADD113RoundRect,0.250000X-0.550000X3.425000X-0.550000X-3.425000X0.550000X-3.425000X0.550000X3.425000X0*%
%ADD114RoundRect,0.300000X0.300000X0.550000X-0.300000X0.550000X-0.300000X-0.550000X0.300000X-0.550000X0*%
%ADD115RoundRect,0.150000X0.325000X-0.300000X0.325000X0.300000X-0.325000X0.300000X-0.325000X-0.300000X0*%
%ADD116RoundRect,0.100000X-0.250000X0.100000X-0.250000X-0.100000X0.250000X-0.100000X0.250000X0.100000X0*%
%ADD117RoundRect,0.050000X0.100000X-0.350000X0.100000X0.350000X-0.100000X0.350000X-0.100000X-0.350000X0*%
%ADD118RoundRect,0.050000X0.350000X0.100000X-0.350000X0.100000X-0.350000X-0.100000X0.350000X-0.100000X0*%
%ADD119RoundRect,0.050000X0.650000X0.175000X-0.650000X0.175000X-0.650000X-0.175000X0.650000X-0.175000X0*%
%ADD120RoundRect,0.125000X-0.212132X-0.035355X-0.035355X-0.212132X0.212132X0.035355X0.035355X0.212132X0*%
%ADD121RoundRect,0.050000X0.150000X0.300000X-0.150000X0.300000X-0.150000X-0.300000X0.150000X-0.300000X0*%
%ADD122RoundRect,0.050000X-0.225000X-0.225000X0.225000X-0.225000X0.225000X0.225000X-0.225000X0.225000X0*%
%ADD123RoundRect,0.050000X0.350000X0.300000X-0.350000X0.300000X-0.350000X-0.300000X0.350000X-0.300000X0*%
%ADD124RoundRect,0.050000X-0.070000X0.250000X-0.070000X-0.250000X0.070000X-0.250000X0.070000X0.250000X0*%
%ADD125RoundRect,0.050000X0.250000X0.070000X-0.250000X0.070000X-0.250000X-0.070000X0.250000X-0.070000X0*%
%ADD126RoundRect,0.250000X1.650000X0.350000X-1.650000X0.350000X-1.650000X-0.350000X1.650000X-0.350000X0*%
%ADD127RoundRect,0.150000X-0.200000X0.150000X-0.200000X-0.150000X0.200000X-0.150000X0.200000X0.150000X0*%
%ADD128RoundRect,0.300000X0.550000X-0.300000X0.550000X0.300000X-0.550000X0.300000X-0.550000X-0.300000X0*%
%ADD129RoundRect,0.050000X0.485000X0.255000X-0.485000X0.255000X-0.485000X-0.255000X0.485000X-0.255000X0*%
%ADD130RoundRect,0.150000X0.200000X-0.150000X0.200000X0.150000X-0.200000X0.150000X-0.200000X-0.150000X0*%
%ADD131RoundRect,0.075000X0.075000X-0.260000X0.075000X0.260000X-0.075000X0.260000X-0.075000X-0.260000X0*%
%ADD132RoundRect,0.120000X-0.280000X-0.480000X0.280000X-0.480000X0.280000X0.480000X-0.280000X0.480000X0*%
%ADD133RoundRect,0.250000X-0.500000X-0.750000X0.500000X-0.750000X0.500000X0.750000X-0.500000X0.750000X0*%
%ADD134RoundRect,0.050000X0.105000X-0.250000X0.105000X0.250000X-0.105000X0.250000X-0.105000X-0.250000X0*%
%ADD135RoundRect,0.022435X0.132565X-0.277565X0.132565X0.277565X-0.132565X0.277565X-0.132565X-0.277565X0*%
%ADD136RoundRect,0.050000X-0.250000X-0.100000X0.250000X-0.100000X0.250000X0.100000X-0.250000X0.100000X0*%
G04 APERTURE END LIST*
%TO.C,U21*%
D10*
X105450000Y-98300000D02*
X106950000Y-98300000D01*
X106950000Y-96800000D01*
X105450000Y-96800000D01*
X105450000Y-98300000D01*
G36*
X105450000Y-98300000D02*
G01*
X106950000Y-98300000D01*
X106950000Y-96800000D01*
X105450000Y-96800000D01*
X105450000Y-98300000D01*
G37*
X105450000Y-100200000D02*
X106950000Y-100200000D01*
X106950000Y-98700000D01*
X105450000Y-98700000D01*
X105450000Y-100200000D01*
G36*
X105450000Y-100200000D02*
G01*
X106950000Y-100200000D01*
X106950000Y-98700000D01*
X105450000Y-98700000D01*
X105450000Y-100200000D01*
G37*
X105450000Y-102100000D02*
X106950000Y-102100000D01*
X106950000Y-100600000D01*
X105450000Y-100600000D01*
X105450000Y-102100000D01*
G36*
X105450000Y-102100000D02*
G01*
X106950000Y-102100000D01*
X106950000Y-100600000D01*
X105450000Y-100600000D01*
X105450000Y-102100000D01*
G37*
X107350000Y-98300000D02*
X108850000Y-98300000D01*
X108850000Y-96800000D01*
X107350000Y-96800000D01*
X107350000Y-98300000D01*
G36*
X107350000Y-98300000D02*
G01*
X108850000Y-98300000D01*
X108850000Y-96800000D01*
X107350000Y-96800000D01*
X107350000Y-98300000D01*
G37*
X107350000Y-100200000D02*
X108850000Y-100200000D01*
X108850000Y-98700000D01*
X107350000Y-98700000D01*
X107350000Y-100200000D01*
G36*
X107350000Y-100200000D02*
G01*
X108850000Y-100200000D01*
X108850000Y-98700000D01*
X107350000Y-98700000D01*
X107350000Y-100200000D01*
G37*
X107350000Y-102100000D02*
X108850000Y-102100000D01*
X108850000Y-100600000D01*
X107350000Y-100600000D01*
X107350000Y-102100000D01*
G36*
X107350000Y-102100000D02*
G01*
X108850000Y-102100000D01*
X108850000Y-100600000D01*
X107350000Y-100600000D01*
X107350000Y-102100000D01*
G37*
X109250000Y-98300000D02*
X110750000Y-98300000D01*
X110750000Y-96800000D01*
X109250000Y-96800000D01*
X109250000Y-98300000D01*
G36*
X109250000Y-98300000D02*
G01*
X110750000Y-98300000D01*
X110750000Y-96800000D01*
X109250000Y-96800000D01*
X109250000Y-98300000D01*
G37*
X109250000Y-100200000D02*
X110750000Y-100200000D01*
X110750000Y-98700000D01*
X109250000Y-98700000D01*
X109250000Y-100200000D01*
G36*
X109250000Y-100200000D02*
G01*
X110750000Y-100200000D01*
X110750000Y-98700000D01*
X109250000Y-98700000D01*
X109250000Y-100200000D01*
G37*
X109250000Y-102100000D02*
X110750000Y-102100000D01*
X110750000Y-100600000D01*
X109250000Y-100600000D01*
X109250000Y-102100000D01*
G36*
X109250000Y-102100000D02*
G01*
X110750000Y-102100000D01*
X110750000Y-100600000D01*
X109250000Y-100600000D01*
X109250000Y-102100000D01*
G37*
%TO.C,U13*%
X182945000Y-90325000D02*
X181735000Y-90325000D01*
X181735000Y-91175000D01*
X182945000Y-91175000D01*
X182945000Y-90325000D01*
G36*
X182945000Y-90325000D02*
G01*
X181735000Y-90325000D01*
X181735000Y-91175000D01*
X182945000Y-91175000D01*
X182945000Y-90325000D01*
G37*
X184465000Y-90325000D02*
X183255000Y-90325000D01*
X183255000Y-91175000D01*
X184465000Y-91175000D01*
X184465000Y-90325000D01*
G36*
X184465000Y-90325000D02*
G01*
X183255000Y-90325000D01*
X183255000Y-91175000D01*
X184465000Y-91175000D01*
X184465000Y-90325000D01*
G37*
%TO.C,U8*%
X104795000Y-114890000D02*
X106205000Y-114890000D01*
X106205000Y-115850000D01*
X104795000Y-115850000D01*
X104795000Y-114890000D01*
G36*
X104795000Y-114890000D02*
G01*
X106205000Y-114890000D01*
X106205000Y-115850000D01*
X104795000Y-115850000D01*
X104795000Y-114890000D01*
G37*
X104795000Y-116150000D02*
X106205000Y-116150000D01*
X106205000Y-117110000D01*
X104795000Y-117110000D01*
X104795000Y-116150000D01*
G36*
X104795000Y-116150000D02*
G01*
X106205000Y-116150000D01*
X106205000Y-117110000D01*
X104795000Y-117110000D01*
X104795000Y-116150000D01*
G37*
%TO.C,U4*%
X93800000Y-103475000D02*
X94825000Y-103475000D01*
X94825000Y-102450000D01*
X93800000Y-102450000D01*
X93800000Y-103475000D01*
G36*
X93800000Y-103475000D02*
G01*
X94825000Y-103475000D01*
X94825000Y-102450000D01*
X93800000Y-102450000D01*
X93800000Y-103475000D01*
G37*
X93800000Y-104850000D02*
X94825000Y-104850000D01*
X94825000Y-103825000D01*
X93800000Y-103825000D01*
X93800000Y-104850000D01*
G36*
X93800000Y-104850000D02*
G01*
X94825000Y-104850000D01*
X94825000Y-103825000D01*
X93800000Y-103825000D01*
X93800000Y-104850000D01*
G37*
X95175000Y-103475000D02*
X96200000Y-103475000D01*
X96200000Y-102450000D01*
X95175000Y-102450000D01*
X95175000Y-103475000D01*
G36*
X95175000Y-103475000D02*
G01*
X96200000Y-103475000D01*
X96200000Y-102450000D01*
X95175000Y-102450000D01*
X95175000Y-103475000D01*
G37*
X95175000Y-104850000D02*
X96200000Y-104850000D01*
X96200000Y-103825000D01*
X95175000Y-103825000D01*
X95175000Y-104850000D01*
G36*
X95175000Y-104850000D02*
G01*
X96200000Y-104850000D01*
X96200000Y-103825000D01*
X95175000Y-103825000D01*
X95175000Y-104850000D01*
G37*
%TO.C,Q5*%
X91475000Y-73372500D02*
X91275000Y-73372500D01*
X91275000Y-73872500D01*
X91475000Y-73872500D01*
X91475000Y-73372500D01*
G36*
X91475000Y-73372500D02*
G01*
X91275000Y-73372500D01*
X91275000Y-73872500D01*
X91475000Y-73872500D01*
X91475000Y-73372500D01*
G37*
X92125000Y-73372500D02*
X91925000Y-73372500D01*
X91925000Y-73872500D01*
X92125000Y-73872500D01*
X92125000Y-73372500D01*
G36*
X92125000Y-73372500D02*
G01*
X91925000Y-73372500D01*
X91925000Y-73872500D01*
X92125000Y-73872500D01*
X92125000Y-73372500D01*
G37*
X92200000Y-71562500D02*
X91175000Y-71562500D01*
X91175000Y-72167500D01*
X92200000Y-72167500D01*
X92200000Y-71562500D01*
G36*
X92200000Y-71562500D02*
G01*
X91175000Y-71562500D01*
X91175000Y-72167500D01*
X92200000Y-72167500D01*
X92200000Y-71562500D01*
G37*
X92200000Y-72467500D02*
X91175000Y-72467500D01*
X91175000Y-73072500D01*
X92200000Y-73072500D01*
X92200000Y-72467500D01*
G36*
X92200000Y-72467500D02*
G01*
X91175000Y-72467500D01*
X91175000Y-73072500D01*
X92200000Y-73072500D01*
X92200000Y-72467500D01*
G37*
X92775000Y-73372500D02*
X92575000Y-73372500D01*
X92575000Y-73872500D01*
X92775000Y-73872500D01*
X92775000Y-73372500D01*
G36*
X92775000Y-73372500D02*
G01*
X92575000Y-73372500D01*
X92575000Y-73872500D01*
X92775000Y-73872500D01*
X92775000Y-73372500D01*
G37*
X93425000Y-73372500D02*
X93225000Y-73372500D01*
X93225000Y-73872500D01*
X93425000Y-73872500D01*
X93425000Y-73372500D01*
G36*
X93425000Y-73372500D02*
G01*
X93225000Y-73372500D01*
X93225000Y-73872500D01*
X93425000Y-73872500D01*
X93425000Y-73372500D01*
G37*
X93525000Y-72467500D02*
X92500000Y-72467500D01*
X92500000Y-73072500D01*
X93525000Y-73072500D01*
X93525000Y-72467500D01*
G36*
X93525000Y-72467500D02*
G01*
X92500000Y-72467500D01*
X92500000Y-73072500D01*
X93525000Y-73072500D01*
X93525000Y-72467500D01*
G37*
X93525500Y-71562500D02*
X92500500Y-71562500D01*
X92500500Y-72167500D01*
X93525500Y-72167500D01*
X93525500Y-71562500D01*
G36*
X93525500Y-71562500D02*
G01*
X92500500Y-71562500D01*
X92500500Y-72167500D01*
X93525500Y-72167500D01*
X93525500Y-71562500D01*
G37*
%TO.C,Q4*%
X87474500Y-68837500D02*
X88499500Y-68837500D01*
X88499500Y-68232500D01*
X87474500Y-68232500D01*
X87474500Y-68837500D01*
G36*
X87474500Y-68837500D02*
G01*
X88499500Y-68837500D01*
X88499500Y-68232500D01*
X87474500Y-68232500D01*
X87474500Y-68837500D01*
G37*
X87475000Y-67932500D02*
X88500000Y-67932500D01*
X88500000Y-67327500D01*
X87475000Y-67327500D01*
X87475000Y-67932500D01*
G36*
X87475000Y-67932500D02*
G01*
X88500000Y-67932500D01*
X88500000Y-67327500D01*
X87475000Y-67327500D01*
X87475000Y-67932500D01*
G37*
X87575000Y-67027500D02*
X87775000Y-67027500D01*
X87775000Y-66527500D01*
X87575000Y-66527500D01*
X87575000Y-67027500D01*
G36*
X87575000Y-67027500D02*
G01*
X87775000Y-67027500D01*
X87775000Y-66527500D01*
X87575000Y-66527500D01*
X87575000Y-67027500D01*
G37*
X88225000Y-67027500D02*
X88425000Y-67027500D01*
X88425000Y-66527500D01*
X88225000Y-66527500D01*
X88225000Y-67027500D01*
G36*
X88225000Y-67027500D02*
G01*
X88425000Y-67027500D01*
X88425000Y-66527500D01*
X88225000Y-66527500D01*
X88225000Y-67027500D01*
G37*
X88800000Y-67932500D02*
X89825000Y-67932500D01*
X89825000Y-67327500D01*
X88800000Y-67327500D01*
X88800000Y-67932500D01*
G36*
X88800000Y-67932500D02*
G01*
X89825000Y-67932500D01*
X89825000Y-67327500D01*
X88800000Y-67327500D01*
X88800000Y-67932500D01*
G37*
X88800000Y-68837500D02*
X89825000Y-68837500D01*
X89825000Y-68232500D01*
X88800000Y-68232500D01*
X88800000Y-68837500D01*
G36*
X88800000Y-68837500D02*
G01*
X89825000Y-68837500D01*
X89825000Y-68232500D01*
X88800000Y-68232500D01*
X88800000Y-68837500D01*
G37*
X88875000Y-67027500D02*
X89075000Y-67027500D01*
X89075000Y-66527500D01*
X88875000Y-66527500D01*
X88875000Y-67027500D01*
G36*
X88875000Y-67027500D02*
G01*
X89075000Y-67027500D01*
X89075000Y-66527500D01*
X88875000Y-66527500D01*
X88875000Y-67027500D01*
G37*
X89525000Y-67027500D02*
X89725000Y-67027500D01*
X89725000Y-66527500D01*
X89525000Y-66527500D01*
X89525000Y-67027500D01*
G36*
X89525000Y-67027500D02*
G01*
X89725000Y-67027500D01*
X89725000Y-66527500D01*
X89525000Y-66527500D01*
X89525000Y-67027500D01*
G37*
%TO.C,U25*%
X140100000Y-73050000D02*
X141100000Y-73050000D01*
X141100000Y-72950000D01*
X140100000Y-72950000D01*
X140100000Y-73050000D01*
G36*
X140100000Y-73050000D02*
G01*
X141100000Y-73050000D01*
X141100000Y-72950000D01*
X140100000Y-72950000D01*
X140100000Y-73050000D01*
G37*
X140210000Y-76990000D02*
X141150000Y-76990000D01*
X141150000Y-76400000D01*
X140210000Y-76400000D01*
X140210000Y-76990000D01*
G36*
X140210000Y-76990000D02*
G01*
X141150000Y-76990000D01*
X141150000Y-76400000D01*
X140210000Y-76400000D01*
X140210000Y-76990000D01*
G37*
X140480000Y-73050000D02*
X141100000Y-73050000D01*
X141100000Y-72650000D01*
X140480000Y-72650000D01*
X140480000Y-73050000D01*
G36*
X140480000Y-73050000D02*
G01*
X141100000Y-73050000D01*
X141100000Y-72650000D01*
X140480000Y-72650000D01*
X140480000Y-73050000D01*
G37*
X140510000Y-77340000D02*
X141150000Y-77340000D01*
X141150000Y-76400000D01*
X140510000Y-76400000D01*
X140510000Y-77340000D01*
G36*
X140510000Y-77340000D02*
G01*
X141150000Y-77340000D01*
X141150000Y-76400000D01*
X140510000Y-76400000D01*
X140510000Y-77340000D01*
G37*
X143490000Y-77340000D02*
X142850000Y-77340000D01*
X142850000Y-76400000D01*
X143490000Y-76400000D01*
X143490000Y-77340000D01*
G36*
X143490000Y-77340000D02*
G01*
X142850000Y-77340000D01*
X142850000Y-76400000D01*
X143490000Y-76400000D01*
X143490000Y-77340000D01*
G37*
X143520000Y-73050000D02*
X142900000Y-73050000D01*
X142900000Y-72650000D01*
X143520000Y-72650000D01*
X143520000Y-73050000D01*
G36*
X143520000Y-73050000D02*
G01*
X142900000Y-73050000D01*
X142900000Y-72650000D01*
X143520000Y-72650000D01*
X143520000Y-73050000D01*
G37*
X143790000Y-76990000D02*
X142850000Y-76990000D01*
X142850000Y-76400000D01*
X143790000Y-76400000D01*
X143790000Y-76990000D01*
G36*
X143790000Y-76990000D02*
G01*
X142850000Y-76990000D01*
X142850000Y-76400000D01*
X143790000Y-76400000D01*
X143790000Y-76990000D01*
G37*
X143900000Y-73050000D02*
X142900000Y-73050000D01*
X142900000Y-72950000D01*
X143900000Y-72950000D01*
X143900000Y-73050000D01*
G36*
X143900000Y-73050000D02*
G01*
X142900000Y-73050000D01*
X142900000Y-72950000D01*
X143900000Y-72950000D01*
X143900000Y-73050000D01*
G37*
%TO.C,U3*%
X133025000Y-133575000D02*
X134825000Y-133575000D01*
X134825000Y-132175000D01*
X133025000Y-132175000D01*
X133025000Y-133575000D01*
G36*
X133025000Y-133575000D02*
G01*
X134825000Y-133575000D01*
X134825000Y-132175000D01*
X133025000Y-132175000D01*
X133025000Y-133575000D01*
G37*
X133025000Y-135325000D02*
X134825000Y-135325000D01*
X134825000Y-133925000D01*
X133025000Y-133925000D01*
X133025000Y-135325000D01*
G36*
X133025000Y-135325000D02*
G01*
X134825000Y-135325000D01*
X134825000Y-133925000D01*
X133025000Y-133925000D01*
X133025000Y-135325000D01*
G37*
X135175000Y-133575000D02*
X136975000Y-133575000D01*
X136975000Y-132175000D01*
X135175000Y-132175000D01*
X135175000Y-133575000D01*
G36*
X135175000Y-133575000D02*
G01*
X136975000Y-133575000D01*
X136975000Y-132175000D01*
X135175000Y-132175000D01*
X135175000Y-133575000D01*
G37*
X135175000Y-135325000D02*
X136975000Y-135325000D01*
X136975000Y-133925000D01*
X135175000Y-133925000D01*
X135175000Y-135325000D01*
G36*
X135175000Y-135325000D02*
G01*
X136975000Y-135325000D01*
X136975000Y-133925000D01*
X135175000Y-133925000D01*
X135175000Y-135325000D01*
G37*
%TO.C,U6*%
X113750000Y-128850000D02*
X114850000Y-128850000D01*
X114850000Y-127750000D01*
X113750000Y-127750000D01*
X113750000Y-128850000D01*
G36*
X113750000Y-128850000D02*
G01*
X114850000Y-128850000D01*
X114850000Y-127750000D01*
X113750000Y-127750000D01*
X113750000Y-128850000D01*
G37*
X113750000Y-130250000D02*
X114850000Y-130250000D01*
X114850000Y-129150000D01*
X113750000Y-129150000D01*
X113750000Y-130250000D01*
G36*
X113750000Y-130250000D02*
G01*
X114850000Y-130250000D01*
X114850000Y-129150000D01*
X113750000Y-129150000D01*
X113750000Y-130250000D01*
G37*
X115150000Y-128850000D02*
X116250000Y-128850000D01*
X116250000Y-127750000D01*
X115150000Y-127750000D01*
X115150000Y-128850000D01*
G36*
X115150000Y-128850000D02*
G01*
X116250000Y-128850000D01*
X116250000Y-127750000D01*
X115150000Y-127750000D01*
X115150000Y-128850000D01*
G37*
X115150000Y-130250000D02*
X116250000Y-130250000D01*
X116250000Y-129150000D01*
X115150000Y-129150000D01*
X115150000Y-130250000D01*
G36*
X115150000Y-130250000D02*
G01*
X116250000Y-130250000D01*
X116250000Y-129150000D01*
X115150000Y-129150000D01*
X115150000Y-130250000D01*
G37*
%TO.C,Q8*%
X118460000Y-75435000D02*
X118310000Y-75435000D01*
X118310000Y-75665000D01*
X118460000Y-75665000D01*
X118460000Y-75435000D01*
G36*
X118460000Y-75435000D02*
G01*
X118310000Y-75435000D01*
X118310000Y-75665000D01*
X118460000Y-75665000D01*
X118460000Y-75435000D01*
G37*
X118460000Y-77335000D02*
X118310000Y-77335000D01*
X118310000Y-77565000D01*
X118460000Y-77565000D01*
X118460000Y-77335000D01*
G36*
X118460000Y-77335000D02*
G01*
X118310000Y-77335000D01*
X118310000Y-77565000D01*
X118460000Y-77565000D01*
X118460000Y-77335000D01*
G37*
X119110000Y-75435000D02*
X118960000Y-75435000D01*
X118960000Y-75665000D01*
X119110000Y-75665000D01*
X119110000Y-75435000D01*
G36*
X119110000Y-75435000D02*
G01*
X118960000Y-75435000D01*
X118960000Y-75665000D01*
X119110000Y-75665000D01*
X119110000Y-75435000D01*
G37*
X119110000Y-77335000D02*
X118960000Y-77335000D01*
X118960000Y-77565000D01*
X119110000Y-77565000D01*
X119110000Y-77335000D01*
G36*
X119110000Y-77335000D02*
G01*
X118960000Y-77335000D01*
X118960000Y-77565000D01*
X119110000Y-77565000D01*
X119110000Y-77335000D01*
G37*
X119225000Y-76110000D02*
X118275000Y-76110000D01*
X118275000Y-76910000D01*
X119225000Y-76910000D01*
X119225000Y-76110000D01*
G36*
X119225000Y-76110000D02*
G01*
X118275000Y-76110000D01*
X118275000Y-76910000D01*
X119225000Y-76910000D01*
X119225000Y-76110000D01*
G37*
X119760000Y-75435000D02*
X119610000Y-75435000D01*
X119610000Y-75665000D01*
X119760000Y-75665000D01*
X119760000Y-75435000D01*
G36*
X119760000Y-75435000D02*
G01*
X119610000Y-75435000D01*
X119610000Y-75665000D01*
X119760000Y-75665000D01*
X119760000Y-75435000D01*
G37*
X119760000Y-77335000D02*
X119610000Y-77335000D01*
X119610000Y-77565000D01*
X119760000Y-77565000D01*
X119760000Y-77335000D01*
G36*
X119760000Y-77335000D02*
G01*
X119610000Y-77335000D01*
X119610000Y-77565000D01*
X119760000Y-77565000D01*
X119760000Y-77335000D01*
G37*
X119885000Y-76270000D02*
X119735000Y-76270000D01*
X119735000Y-76730000D01*
X119885000Y-76730000D01*
X119885000Y-76270000D01*
G36*
X119885000Y-76270000D02*
G01*
X119735000Y-76270000D01*
X119735000Y-76730000D01*
X119885000Y-76730000D01*
X119885000Y-76270000D01*
G37*
%TO.C,U27*%
X140250000Y-103610000D02*
X138750000Y-103610000D01*
X138750000Y-101790000D01*
X140250000Y-101790000D01*
X140250000Y-103610000D01*
G36*
X140250000Y-103610000D02*
G01*
X138750000Y-103610000D01*
X138750000Y-101790000D01*
X140250000Y-101790000D01*
X140250000Y-103610000D01*
G37*
%TO.C,Q3*%
X87775000Y-73372500D02*
X87575000Y-73372500D01*
X87575000Y-73872500D01*
X87775000Y-73872500D01*
X87775000Y-73372500D01*
G36*
X87775000Y-73372500D02*
G01*
X87575000Y-73372500D01*
X87575000Y-73872500D01*
X87775000Y-73872500D01*
X87775000Y-73372500D01*
G37*
X88425000Y-73372500D02*
X88225000Y-73372500D01*
X88225000Y-73872500D01*
X88425000Y-73872500D01*
X88425000Y-73372500D01*
G36*
X88425000Y-73372500D02*
G01*
X88225000Y-73372500D01*
X88225000Y-73872500D01*
X88425000Y-73872500D01*
X88425000Y-73372500D01*
G37*
X88500000Y-71562500D02*
X87475000Y-71562500D01*
X87475000Y-72167500D01*
X88500000Y-72167500D01*
X88500000Y-71562500D01*
G36*
X88500000Y-71562500D02*
G01*
X87475000Y-71562500D01*
X87475000Y-72167500D01*
X88500000Y-72167500D01*
X88500000Y-71562500D01*
G37*
X88500000Y-72467500D02*
X87475000Y-72467500D01*
X87475000Y-73072500D01*
X88500000Y-73072500D01*
X88500000Y-72467500D01*
G36*
X88500000Y-72467500D02*
G01*
X87475000Y-72467500D01*
X87475000Y-73072500D01*
X88500000Y-73072500D01*
X88500000Y-72467500D01*
G37*
X89075000Y-73372500D02*
X88875000Y-73372500D01*
X88875000Y-73872500D01*
X89075000Y-73872500D01*
X89075000Y-73372500D01*
G36*
X89075000Y-73372500D02*
G01*
X88875000Y-73372500D01*
X88875000Y-73872500D01*
X89075000Y-73872500D01*
X89075000Y-73372500D01*
G37*
X89725000Y-73372500D02*
X89525000Y-73372500D01*
X89525000Y-73872500D01*
X89725000Y-73872500D01*
X89725000Y-73372500D01*
G36*
X89725000Y-73372500D02*
G01*
X89525000Y-73372500D01*
X89525000Y-73872500D01*
X89725000Y-73872500D01*
X89725000Y-73372500D01*
G37*
X89825000Y-72467500D02*
X88800000Y-72467500D01*
X88800000Y-73072500D01*
X89825000Y-73072500D01*
X89825000Y-72467500D01*
G36*
X89825000Y-72467500D02*
G01*
X88800000Y-72467500D01*
X88800000Y-73072500D01*
X89825000Y-73072500D01*
X89825000Y-72467500D01*
G37*
X89825500Y-71562500D02*
X88800500Y-71562500D01*
X88800500Y-72167500D01*
X89825500Y-72167500D01*
X89825500Y-71562500D01*
G36*
X89825500Y-71562500D02*
G01*
X88800500Y-71562500D01*
X88800500Y-72167500D01*
X89825500Y-72167500D01*
X89825500Y-71562500D01*
G37*
%TO.C,U24*%
X110275000Y-81345000D02*
X111095000Y-81345000D01*
X111095000Y-80525000D01*
X110275000Y-80525000D01*
X110275000Y-81345000D01*
G36*
X110275000Y-81345000D02*
G01*
X111095000Y-81345000D01*
X111095000Y-80525000D01*
X110275000Y-80525000D01*
X110275000Y-81345000D01*
G37*
X110275000Y-82475000D02*
X111095000Y-82475000D01*
X111095000Y-81655000D01*
X110275000Y-81655000D01*
X110275000Y-82475000D01*
G36*
X110275000Y-82475000D02*
G01*
X111095000Y-82475000D01*
X111095000Y-81655000D01*
X110275000Y-81655000D01*
X110275000Y-82475000D01*
G37*
X111405000Y-81345000D02*
X112225000Y-81345000D01*
X112225000Y-80525000D01*
X111405000Y-80525000D01*
X111405000Y-81345000D01*
G36*
X111405000Y-81345000D02*
G01*
X112225000Y-81345000D01*
X112225000Y-80525000D01*
X111405000Y-80525000D01*
X111405000Y-81345000D01*
G37*
X111405000Y-82475000D02*
X112225000Y-82475000D01*
X112225000Y-81655000D01*
X111405000Y-81655000D01*
X111405000Y-82475000D01*
G36*
X111405000Y-82475000D02*
G01*
X112225000Y-82475000D01*
X112225000Y-81655000D01*
X111405000Y-81655000D01*
X111405000Y-82475000D01*
G37*
%TO.C,Q6*%
X91174500Y-68837500D02*
X92199500Y-68837500D01*
X92199500Y-68232500D01*
X91174500Y-68232500D01*
X91174500Y-68837500D01*
G36*
X91174500Y-68837500D02*
G01*
X92199500Y-68837500D01*
X92199500Y-68232500D01*
X91174500Y-68232500D01*
X91174500Y-68837500D01*
G37*
X91175000Y-67932500D02*
X92200000Y-67932500D01*
X92200000Y-67327500D01*
X91175000Y-67327500D01*
X91175000Y-67932500D01*
G36*
X91175000Y-67932500D02*
G01*
X92200000Y-67932500D01*
X92200000Y-67327500D01*
X91175000Y-67327500D01*
X91175000Y-67932500D01*
G37*
X91275000Y-67027500D02*
X91475000Y-67027500D01*
X91475000Y-66527500D01*
X91275000Y-66527500D01*
X91275000Y-67027500D01*
G36*
X91275000Y-67027500D02*
G01*
X91475000Y-67027500D01*
X91475000Y-66527500D01*
X91275000Y-66527500D01*
X91275000Y-67027500D01*
G37*
X91925000Y-67027500D02*
X92125000Y-67027500D01*
X92125000Y-66527500D01*
X91925000Y-66527500D01*
X91925000Y-67027500D01*
G36*
X91925000Y-67027500D02*
G01*
X92125000Y-67027500D01*
X92125000Y-66527500D01*
X91925000Y-66527500D01*
X91925000Y-67027500D01*
G37*
X92500000Y-67932500D02*
X93525000Y-67932500D01*
X93525000Y-67327500D01*
X92500000Y-67327500D01*
X92500000Y-67932500D01*
G36*
X92500000Y-67932500D02*
G01*
X93525000Y-67932500D01*
X93525000Y-67327500D01*
X92500000Y-67327500D01*
X92500000Y-67932500D01*
G37*
X92500000Y-68837500D02*
X93525000Y-68837500D01*
X93525000Y-68232500D01*
X92500000Y-68232500D01*
X92500000Y-68837500D01*
G36*
X92500000Y-68837500D02*
G01*
X93525000Y-68837500D01*
X93525000Y-68232500D01*
X92500000Y-68232500D01*
X92500000Y-68837500D01*
G37*
X92575000Y-67027500D02*
X92775000Y-67027500D01*
X92775000Y-66527500D01*
X92575000Y-66527500D01*
X92575000Y-67027500D01*
G36*
X92575000Y-67027500D02*
G01*
X92775000Y-67027500D01*
X92775000Y-66527500D01*
X92575000Y-66527500D01*
X92575000Y-67027500D01*
G37*
X93225000Y-67027500D02*
X93425000Y-67027500D01*
X93425000Y-66527500D01*
X93225000Y-66527500D01*
X93225000Y-67027500D01*
G36*
X93225000Y-67027500D02*
G01*
X93425000Y-67027500D01*
X93425000Y-66527500D01*
X93225000Y-66527500D01*
X93225000Y-67027500D01*
G37*
%TO.C,U16*%
X152530000Y-90605000D02*
X153740000Y-90605000D01*
X153740000Y-89755000D01*
X152530000Y-89755000D01*
X152530000Y-90605000D01*
G36*
X152530000Y-90605000D02*
G01*
X153740000Y-90605000D01*
X153740000Y-89755000D01*
X152530000Y-89755000D01*
X152530000Y-90605000D01*
G37*
X154050000Y-90605000D02*
X155260000Y-90605000D01*
X155260000Y-89755000D01*
X154050000Y-89755000D01*
X154050000Y-90605000D01*
G36*
X154050000Y-90605000D02*
G01*
X155260000Y-90605000D01*
X155260000Y-89755000D01*
X154050000Y-89755000D01*
X154050000Y-90605000D01*
G37*
%TO.C,U7*%
X167390000Y-113705000D02*
X168350000Y-113705000D01*
X168350000Y-112295000D01*
X167390000Y-112295000D01*
X167390000Y-113705000D01*
G36*
X167390000Y-113705000D02*
G01*
X168350000Y-113705000D01*
X168350000Y-112295000D01*
X167390000Y-112295000D01*
X167390000Y-113705000D01*
G37*
X168650000Y-113705000D02*
X169610000Y-113705000D01*
X169610000Y-112295000D01*
X168650000Y-112295000D01*
X168650000Y-113705000D01*
G36*
X168650000Y-113705000D02*
G01*
X169610000Y-113705000D01*
X169610000Y-112295000D01*
X168650000Y-112295000D01*
X168650000Y-113705000D01*
G37*
%TO.C,Q7*%
X119312500Y-66924500D02*
X119917500Y-66924500D01*
X119917500Y-67949500D01*
X119312500Y-67949500D01*
X119312500Y-66924500D01*
G36*
X119312500Y-66924500D02*
G01*
X119917500Y-66924500D01*
X119917500Y-67949500D01*
X119312500Y-67949500D01*
X119312500Y-66924500D01*
G37*
X119312500Y-68250000D02*
X119917500Y-68250000D01*
X119917500Y-69275000D01*
X119312500Y-69275000D01*
X119312500Y-68250000D01*
G36*
X119312500Y-68250000D02*
G01*
X119917500Y-68250000D01*
X119917500Y-69275000D01*
X119312500Y-69275000D01*
X119312500Y-68250000D01*
G37*
X120217500Y-66925000D02*
X120822500Y-66925000D01*
X120822500Y-67950000D01*
X120217500Y-67950000D01*
X120217500Y-66925000D01*
G36*
X120217500Y-66925000D02*
G01*
X120822500Y-66925000D01*
X120822500Y-67950000D01*
X120217500Y-67950000D01*
X120217500Y-66925000D01*
G37*
X120217500Y-68250000D02*
X120822500Y-68250000D01*
X120822500Y-69275000D01*
X120217500Y-69275000D01*
X120217500Y-68250000D01*
G36*
X120217500Y-68250000D02*
G01*
X120822500Y-68250000D01*
X120822500Y-69275000D01*
X120217500Y-69275000D01*
X120217500Y-68250000D01*
G37*
X121122500Y-67025000D02*
X121622500Y-67025000D01*
X121622500Y-67225000D01*
X121122500Y-67225000D01*
X121122500Y-67025000D01*
G36*
X121122500Y-67025000D02*
G01*
X121622500Y-67025000D01*
X121622500Y-67225000D01*
X121122500Y-67225000D01*
X121122500Y-67025000D01*
G37*
X121122500Y-67675000D02*
X121622500Y-67675000D01*
X121622500Y-67875000D01*
X121122500Y-67875000D01*
X121122500Y-67675000D01*
G36*
X121122500Y-67675000D02*
G01*
X121622500Y-67675000D01*
X121622500Y-67875000D01*
X121122500Y-67875000D01*
X121122500Y-67675000D01*
G37*
X121122500Y-68325000D02*
X121622500Y-68325000D01*
X121622500Y-68525000D01*
X121122500Y-68525000D01*
X121122500Y-68325000D01*
G36*
X121122500Y-68325000D02*
G01*
X121622500Y-68325000D01*
X121622500Y-68525000D01*
X121122500Y-68525000D01*
X121122500Y-68325000D01*
G37*
X121122500Y-68975000D02*
X121622500Y-68975000D01*
X121622500Y-69175000D01*
X121122500Y-69175000D01*
X121122500Y-68975000D01*
G36*
X121122500Y-68975000D02*
G01*
X121622500Y-68975000D01*
X121622500Y-69175000D01*
X121122500Y-69175000D01*
X121122500Y-68975000D01*
G37*
%TO.C,Q9*%
X115535000Y-76730000D02*
X115685000Y-76730000D01*
X115685000Y-76270000D01*
X115535000Y-76270000D01*
X115535000Y-76730000D01*
G36*
X115535000Y-76730000D02*
G01*
X115685000Y-76730000D01*
X115685000Y-76270000D01*
X115535000Y-76270000D01*
X115535000Y-76730000D01*
G37*
X115660000Y-75665000D02*
X115810000Y-75665000D01*
X115810000Y-75435000D01*
X115660000Y-75435000D01*
X115660000Y-75665000D01*
G36*
X115660000Y-75665000D02*
G01*
X115810000Y-75665000D01*
X115810000Y-75435000D01*
X115660000Y-75435000D01*
X115660000Y-75665000D01*
G37*
X115660000Y-77565000D02*
X115810000Y-77565000D01*
X115810000Y-77335000D01*
X115660000Y-77335000D01*
X115660000Y-77565000D01*
G36*
X115660000Y-77565000D02*
G01*
X115810000Y-77565000D01*
X115810000Y-77335000D01*
X115660000Y-77335000D01*
X115660000Y-77565000D01*
G37*
X116195000Y-76890000D02*
X117145000Y-76890000D01*
X117145000Y-76090000D01*
X116195000Y-76090000D01*
X116195000Y-76890000D01*
G36*
X116195000Y-76890000D02*
G01*
X117145000Y-76890000D01*
X117145000Y-76090000D01*
X116195000Y-76090000D01*
X116195000Y-76890000D01*
G37*
X116310000Y-75665000D02*
X116460000Y-75665000D01*
X116460000Y-75435000D01*
X116310000Y-75435000D01*
X116310000Y-75665000D01*
G36*
X116310000Y-75665000D02*
G01*
X116460000Y-75665000D01*
X116460000Y-75435000D01*
X116310000Y-75435000D01*
X116310000Y-75665000D01*
G37*
X116310000Y-77565000D02*
X116460000Y-77565000D01*
X116460000Y-77335000D01*
X116310000Y-77335000D01*
X116310000Y-77565000D01*
G36*
X116310000Y-77565000D02*
G01*
X116460000Y-77565000D01*
X116460000Y-77335000D01*
X116310000Y-77335000D01*
X116310000Y-77565000D01*
G37*
X116960000Y-75665000D02*
X117110000Y-75665000D01*
X117110000Y-75435000D01*
X116960000Y-75435000D01*
X116960000Y-75665000D01*
G36*
X116960000Y-75665000D02*
G01*
X117110000Y-75665000D01*
X117110000Y-75435000D01*
X116960000Y-75435000D01*
X116960000Y-75665000D01*
G37*
X116960000Y-77565000D02*
X117110000Y-77565000D01*
X117110000Y-77335000D01*
X116960000Y-77335000D01*
X116960000Y-77565000D01*
G36*
X116960000Y-77565000D02*
G01*
X117110000Y-77565000D01*
X117110000Y-77335000D01*
X116960000Y-77335000D01*
X116960000Y-77565000D01*
G37*
%TD*%
D11*
%TO.C,C30*%
X154875000Y-116450000D03*
X154875000Y-114550000D03*
%TD*%
D12*
%TO.C,R73*%
X104600000Y-110525000D03*
X104600000Y-109475000D03*
%TD*%
D13*
%TO.C,J25*%
X106950000Y-82950000D03*
X106950000Y-88550000D03*
D14*
X104425000Y-84250000D03*
X104425000Y-85250000D03*
X104425000Y-86250000D03*
X104425000Y-87250000D03*
%TD*%
D15*
%TO.C,U21*%
X105350000Y-102825000D03*
X105850000Y-102825000D03*
X106350000Y-102825000D03*
X106850000Y-102825000D03*
X107350000Y-102825000D03*
X107850000Y-102825000D03*
X108350000Y-102825000D03*
X108850000Y-102825000D03*
X109350000Y-102825000D03*
X109850000Y-102825000D03*
X110350000Y-102825000D03*
X110850000Y-102825000D03*
D16*
X111475000Y-102200000D03*
X111475000Y-101700000D03*
X111475000Y-101200000D03*
X111475000Y-100700000D03*
X111475000Y-100200000D03*
X111475000Y-99700000D03*
X111475000Y-99200000D03*
X111475000Y-98700000D03*
X111475000Y-98200000D03*
X111475000Y-97700000D03*
X111475000Y-97200000D03*
X111475000Y-96700000D03*
D17*
X110850000Y-96075000D03*
X110350000Y-96075000D03*
X109850000Y-96075000D03*
X109350000Y-96075000D03*
X108850000Y-96075000D03*
X108350000Y-96075000D03*
X107850000Y-96075000D03*
X107350000Y-96075000D03*
X106850000Y-96075000D03*
X106350000Y-96075000D03*
X105850000Y-96075000D03*
X105350000Y-96075000D03*
D18*
X104725000Y-96700000D03*
X104725000Y-97200000D03*
X104725000Y-97700000D03*
X104725000Y-98200000D03*
X104725000Y-98700000D03*
X104725000Y-99200000D03*
X104725000Y-99700000D03*
X104725000Y-100200000D03*
X104725000Y-100700000D03*
X104725000Y-101200000D03*
X104725000Y-101700000D03*
X104725000Y-102200000D03*
%TD*%
D19*
%TO.C,C168*%
X141700000Y-105300000D03*
X140700000Y-105300000D03*
%TD*%
D20*
%TO.C,J9*%
X207500000Y-60000000D03*
%TD*%
D21*
%TO.C,R36*%
X107000000Y-123225000D03*
X107000000Y-124275000D03*
%TD*%
D22*
%TO.C,C24*%
X171353553Y-140646447D03*
X170646447Y-141353553D03*
%TD*%
D23*
%TO.C,R24*%
X90725000Y-103900000D03*
X91775000Y-103900000D03*
%TD*%
D24*
%TO.C,U23*%
X104500000Y-66900000D03*
D25*
X104350000Y-67300000D03*
X104350000Y-67700000D03*
X104350000Y-68100000D03*
X104350000Y-68500000D03*
X104350000Y-68900000D03*
X104350000Y-69300000D03*
X104350000Y-69700000D03*
D26*
X104500000Y-70100000D03*
D27*
X105250000Y-70400000D03*
X105650000Y-70400000D03*
X106050000Y-70400000D03*
X106450000Y-70400000D03*
X106850000Y-70400000D03*
X107250000Y-70400000D03*
D28*
X108000000Y-70100000D03*
D29*
X108100000Y-69700000D03*
D30*
X108125000Y-69300000D03*
D31*
X108112500Y-68900000D03*
D32*
X108150000Y-68500000D03*
X108150000Y-68100000D03*
X108150000Y-67700000D03*
X108150000Y-67300000D03*
D33*
X108000000Y-66900000D03*
D34*
X107150000Y-66800000D03*
X106700000Y-66800000D03*
X106250000Y-66800000D03*
X105800000Y-66800000D03*
D35*
X105350000Y-66775000D03*
%TD*%
D20*
%TO.C,J17*%
X157500000Y-60000000D03*
%TD*%
D23*
%TO.C,R76*%
X109325000Y-107250000D03*
X110375000Y-107250000D03*
%TD*%
D36*
%TO.C,C104*%
X203700000Y-132650000D03*
X202300000Y-132650000D03*
%TD*%
D37*
%TO.C,R38*%
X122525000Y-130400000D03*
X121475000Y-130400000D03*
%TD*%
D12*
%TO.C,R57*%
X188800000Y-93525000D03*
X188800000Y-92475000D03*
%TD*%
D38*
%TO.C,C131*%
X121050000Y-65200000D03*
X121050000Y-62000000D03*
%TD*%
D21*
%TO.C,R89*%
X104450000Y-79725000D03*
X104450000Y-80775000D03*
%TD*%
D23*
%TO.C,R63*%
X177070000Y-89070000D03*
X178000000Y-89070000D03*
X178000000Y-90000000D03*
X177070000Y-90000000D03*
%TD*%
D39*
%TO.C,C49*%
X125800000Y-108200000D03*
X125800000Y-109200000D03*
%TD*%
D19*
%TO.C,C143*%
X129500000Y-78250000D03*
X128500000Y-78250000D03*
%TD*%
D40*
%TO.C,U13*%
X185250000Y-90500000D03*
D41*
X184850000Y-89600000D03*
X184350000Y-89600000D03*
X183850000Y-89600000D03*
X183350000Y-89600000D03*
X182850000Y-89600000D03*
X182350000Y-89600000D03*
X181850000Y-89600000D03*
X181350000Y-89600000D03*
D42*
X180950000Y-90500000D03*
X180950000Y-91000000D03*
D43*
X181350000Y-91900000D03*
X181850000Y-91900000D03*
X182350000Y-91900000D03*
X182850000Y-91900000D03*
X183350000Y-91900000D03*
X183850000Y-91900000D03*
X184350000Y-91900000D03*
X184850000Y-91900000D03*
D40*
X185250000Y-91000000D03*
%TD*%
D44*
%TO.C,C90*%
X153610000Y-94320000D03*
X153610000Y-93320000D03*
%TD*%
D21*
%TO.C,R27*%
X95250000Y-97325000D03*
X95250000Y-98375000D03*
%TD*%
D44*
%TO.C,C91*%
X155720000Y-94320000D03*
X155720000Y-93320000D03*
%TD*%
D12*
%TO.C,R60*%
X188300000Y-87975000D03*
X188300000Y-86925000D03*
%TD*%
%TO.C,R56*%
X215100000Y-87525000D03*
X215100000Y-86475000D03*
%TD*%
D45*
%TO.C,SW3*%
X225750000Y-58100000D03*
X223250000Y-60500000D03*
X220750000Y-58100000D03*
%TD*%
%TO.C,SW4*%
X225750000Y-62950000D03*
X223250000Y-65350000D03*
X220750000Y-62950000D03*
%TD*%
D44*
%TO.C,C96*%
X164160000Y-94320000D03*
X164160000Y-93320000D03*
%TD*%
D46*
%TO.C,C63*%
X172500000Y-111750000D03*
X172500000Y-113150000D03*
%TD*%
D47*
%TO.C,C32*%
X172750000Y-124500000D03*
X173750000Y-124500000D03*
%TD*%
D48*
%TO.C,D12*%
X110600000Y-130900000D03*
X110600000Y-129600000D03*
X108400000Y-130250000D03*
%TD*%
D37*
%TO.C,R26*%
X93675000Y-99000000D03*
X92625000Y-99000000D03*
%TD*%
D39*
%TO.C,C82*%
X184600000Y-85850000D03*
X184600000Y-86850000D03*
%TD*%
%TO.C,C75*%
X209200000Y-91300000D03*
X209200000Y-92300000D03*
%TD*%
D44*
%TO.C,C106*%
X208000000Y-124750000D03*
X208000000Y-123750000D03*
%TD*%
D47*
%TO.C,C118*%
X96975000Y-91500000D03*
X97975000Y-91500000D03*
%TD*%
D44*
%TO.C,C163*%
X145350000Y-72100000D03*
X145350000Y-71100000D03*
%TD*%
D49*
%TO.C,L1*%
X141950000Y-139300000D03*
X143550000Y-139300000D03*
%TD*%
D39*
%TO.C,C57*%
X106550000Y-129000000D03*
X106550000Y-130000000D03*
%TD*%
%TO.C,C119*%
X86000000Y-73400000D03*
X86000000Y-74400000D03*
%TD*%
D19*
%TO.C,C8*%
X154000000Y-142750000D03*
X153000000Y-142750000D03*
%TD*%
D44*
%TO.C,C89*%
X151500000Y-94320000D03*
X151500000Y-93320000D03*
%TD*%
D50*
%TO.C,R90*%
X130750000Y-71525000D03*
X130750000Y-76475000D03*
%TD*%
D49*
%TO.C,C166*%
X137300000Y-106900000D03*
X138700000Y-106900000D03*
%TD*%
D19*
%TO.C,C148*%
X119650000Y-73000000D03*
X118650000Y-73000000D03*
%TD*%
D51*
%TO.C,J20*%
X197225000Y-134635000D03*
D52*
X195750000Y-136160000D03*
D51*
X197225000Y-137685000D03*
D52*
X198700000Y-136160000D03*
%TD*%
D11*
%TO.C,C27*%
X140250000Y-129700000D03*
X140250000Y-127800000D03*
%TD*%
D37*
%TO.C,R106*%
X133325000Y-85650000D03*
X132275000Y-85650000D03*
%TD*%
D53*
%TO.C,C3*%
X151050000Y-115500000D03*
X152950000Y-115500000D03*
%TD*%
D47*
%TO.C,C116*%
X104400000Y-94950000D03*
X105400000Y-94950000D03*
%TD*%
D45*
%TO.C,SW6*%
X225750000Y-72650000D03*
X223250000Y-75050000D03*
X220750000Y-72650000D03*
%TD*%
D54*
%TO.C,D30*%
X107100000Y-77200000D03*
X105700000Y-77200000D03*
%TD*%
D48*
%TO.C,D11*%
X110600000Y-128400000D03*
X110600000Y-127100000D03*
X108400000Y-127750000D03*
%TD*%
D47*
%TO.C,C71*%
X212800000Y-86800000D03*
X213800000Y-86800000D03*
%TD*%
D19*
%TO.C,C64*%
X169000000Y-115500000D03*
X168000000Y-115500000D03*
%TD*%
D55*
%TO.C,C92*%
X160765000Y-91055000D03*
X160765000Y-89655000D03*
%TD*%
D20*
%TO.C,J14*%
X182500000Y-72000000D03*
%TD*%
D56*
%TO.C,U9*%
X213875000Y-85550000D03*
X213875000Y-85050000D03*
X213875000Y-84550000D03*
X213875000Y-84050000D03*
D57*
X212725000Y-84050000D03*
X212725000Y-84550000D03*
X212700000Y-85050000D03*
X212700000Y-85550000D03*
%TD*%
D49*
%TO.C,C22*%
X174200000Y-130200000D03*
X175600000Y-130200000D03*
%TD*%
D29*
%TO.C,U10*%
X209300000Y-90100000D03*
X209300000Y-89700000D03*
X209300000Y-89300000D03*
X209300000Y-88900000D03*
X209300000Y-88500000D03*
D58*
X208600000Y-88450000D03*
D59*
X207900000Y-88500000D03*
X207900000Y-88900000D03*
X207900000Y-89300000D03*
X207900000Y-89700000D03*
X207900000Y-90100000D03*
D60*
X208600000Y-90150000D03*
%TD*%
D46*
%TO.C,Q11*%
X131800000Y-87050000D03*
X131800000Y-88950000D03*
X133800000Y-88000000D03*
%TD*%
D47*
%TO.C,C16*%
X151500000Y-117250000D03*
X152500000Y-117250000D03*
%TD*%
D61*
%TO.C,L6*%
X208205000Y-132250000D03*
X207195000Y-132250000D03*
%TD*%
D38*
%TO.C,C129*%
X114050000Y-65200000D03*
X114050000Y-62000000D03*
%TD*%
D12*
%TO.C,R81*%
X105300000Y-72825000D03*
X105300000Y-71775000D03*
%TD*%
D36*
%TO.C,C112*%
X109800000Y-105700000D03*
X108400000Y-105700000D03*
%TD*%
D62*
%TO.C,U2*%
X132050000Y-123595000D03*
X132050000Y-124865000D03*
X132050000Y-126135000D03*
X132050000Y-127405000D03*
X137450000Y-127405000D03*
X137450000Y-126135000D03*
X137450000Y-124865000D03*
X137450000Y-123595000D03*
%TD*%
D55*
%TO.C,C83*%
X189700000Y-84450000D03*
X189700000Y-83050000D03*
%TD*%
D63*
%TO.C,U22*%
X96845000Y-98700000D03*
X98115000Y-98700000D03*
X99385000Y-98700000D03*
X100655000Y-98700000D03*
X100655000Y-93300000D03*
X99385000Y-93300000D03*
X98115000Y-93300000D03*
X96845000Y-93300000D03*
%TD*%
D19*
%TO.C,C10*%
X168250000Y-142750000D03*
X167250000Y-142750000D03*
%TD*%
D39*
%TO.C,C73*%
X211400000Y-85400000D03*
X211400000Y-86400000D03*
%TD*%
D38*
%TO.C,C126*%
X94950000Y-65200000D03*
X94950000Y-62000000D03*
%TD*%
D21*
%TO.C,R110*%
X143750000Y-100800000D03*
X143750000Y-101850000D03*
%TD*%
D56*
%TO.C,U12*%
X187075000Y-86000000D03*
X187075000Y-85500000D03*
X187075000Y-85000000D03*
X187075000Y-84500000D03*
D57*
X185925000Y-84500000D03*
X185925000Y-85000000D03*
X185900000Y-85500000D03*
X185900000Y-86000000D03*
%TD*%
D37*
%TO.C,R40*%
X122525000Y-125000000D03*
X121475000Y-125000000D03*
%TD*%
D64*
%TO.C,R104*%
X118350000Y-100575000D03*
D65*
X121250000Y-100575000D03*
%TD*%
D66*
%TO.C,C138*%
X110300000Y-73200000D03*
X108400000Y-73200000D03*
%TD*%
D21*
%TO.C,R108*%
X142000000Y-99475000D03*
X142000000Y-100525000D03*
%TD*%
D67*
%TO.C,C161*%
X143150000Y-93750000D03*
X146350000Y-93750000D03*
%TD*%
D68*
%TO.C,D15*%
X218350000Y-93450000D03*
X216850000Y-93450000D03*
%TD*%
D19*
%TO.C,C31*%
X166000000Y-142750000D03*
X165000000Y-142750000D03*
%TD*%
D69*
%TO.C,U8*%
X104100000Y-115025000D03*
X104100000Y-115675000D03*
X104100000Y-116325000D03*
X104100000Y-116975000D03*
X106900000Y-116975000D03*
D70*
X106900000Y-116325000D03*
D69*
X106900000Y-115675000D03*
X106900000Y-115025000D03*
%TD*%
D47*
%TO.C,C84*%
X186300000Y-89600000D03*
X187300000Y-89600000D03*
%TD*%
D38*
%TO.C,C132*%
X124550000Y-65200000D03*
X124550000Y-62000000D03*
%TD*%
D19*
%TO.C,C150*%
X119650000Y-74200000D03*
X118650000Y-74200000D03*
%TD*%
%TO.C,C127*%
X107850000Y-65500000D03*
X106850000Y-65500000D03*
%TD*%
D44*
%TO.C,C81*%
X184600000Y-84650000D03*
X184600000Y-83650000D03*
%TD*%
D71*
%TO.C,C134*%
X112450000Y-67300000D03*
X112450000Y-70500000D03*
%TD*%
D19*
%TO.C,C114*%
X109600000Y-104200000D03*
X108600000Y-104200000D03*
%TD*%
D44*
%TO.C,C68*%
X102600000Y-116500000D03*
X102600000Y-115500000D03*
%TD*%
D47*
%TO.C,C102*%
X203625000Y-129500000D03*
X204625000Y-129500000D03*
%TD*%
D23*
%TO.C,R23*%
X142975000Y-125250000D03*
X144025000Y-125250000D03*
%TD*%
D37*
%TO.C,R45*%
X122525000Y-133100000D03*
X121475000Y-133100000D03*
%TD*%
D72*
%TO.C,L7*%
X105025000Y-61000000D03*
X107475000Y-61000000D03*
%TD*%
D73*
%TO.C,C18*%
X145500000Y-139300000D03*
X145500000Y-141200000D03*
%TD*%
D39*
%TO.C,C12*%
X172750000Y-130000000D03*
X172750000Y-131000000D03*
%TD*%
D55*
%TO.C,C66*%
X101100000Y-116700000D03*
X101100000Y-115300000D03*
%TD*%
D23*
%TO.C,R59*%
X208135000Y-93535000D03*
X209065000Y-93535000D03*
X209065000Y-94465000D03*
X208135000Y-94465000D03*
%TD*%
D20*
%TO.C,J18*%
X157500000Y-72000000D03*
%TD*%
D74*
%TO.C,X1*%
X143262500Y-136212500D03*
X143262500Y-137487500D03*
X144237500Y-137487500D03*
X144237500Y-136212500D03*
%TD*%
D75*
%TO.C,R37*%
X107000000Y-136250000D03*
X107000000Y-137750000D03*
%TD*%
D47*
%TO.C,C80*%
X186000000Y-87250000D03*
X187000000Y-87250000D03*
%TD*%
D12*
%TO.C,R94*%
X116935000Y-79825000D03*
X116935000Y-78775000D03*
%TD*%
D20*
%TO.C,J13*%
X182500000Y-60000000D03*
%TD*%
D12*
%TO.C,R103*%
X126250000Y-92325000D03*
X126250000Y-91275000D03*
%TD*%
D39*
%TO.C,C46*%
X135750000Y-105500000D03*
X135750000Y-106500000D03*
%TD*%
D76*
%TO.C,SW1*%
X140575000Y-119075000D03*
X136425000Y-119075000D03*
X140575000Y-116925000D03*
X136425000Y-116925000D03*
%TD*%
D19*
%TO.C,C69*%
X106900000Y-118400000D03*
X105900000Y-118400000D03*
%TD*%
D77*
%TO.C,SW10*%
X96425000Y-108925000D03*
X100575000Y-108925000D03*
X96425000Y-111075000D03*
X100575000Y-111075000D03*
%TD*%
D21*
%TO.C,R62*%
X188300000Y-82525000D03*
X188300000Y-83575000D03*
%TD*%
D44*
%TO.C,C141*%
X108350000Y-81000000D03*
X108350000Y-80000000D03*
%TD*%
D73*
%TO.C,C110*%
X114500000Y-95250000D03*
X114500000Y-97150000D03*
%TD*%
D78*
%TO.C,D2*%
X136975000Y-121000000D03*
X136025000Y-121000000D03*
X136025000Y-121950000D03*
X136975000Y-121950000D03*
%TD*%
D38*
%TO.C,C124*%
X101950000Y-65200000D03*
X101950000Y-62000000D03*
%TD*%
D79*
%TO.C,NT4*%
X113103553Y-75551447D03*
X112396447Y-76258553D03*
%TD*%
D23*
%TO.C,R25*%
X92625000Y-97650000D03*
X93675000Y-97650000D03*
%TD*%
D46*
%TO.C,C113*%
X102750000Y-95050000D03*
X102750000Y-96450000D03*
%TD*%
D71*
%TO.C,C135*%
X115950000Y-67300000D03*
X115950000Y-70500000D03*
%TD*%
D80*
%TO.C,U5*%
X94600000Y-124555000D03*
X94600000Y-128365000D03*
X94600000Y-127095000D03*
X94600000Y-125825000D03*
X94600000Y-129635000D03*
X94600000Y-130905000D03*
X94600000Y-132175000D03*
X94600000Y-133445000D03*
X103400000Y-133445000D03*
X103400000Y-132175000D03*
X103400000Y-130905000D03*
X103400000Y-129635000D03*
X103400000Y-128365000D03*
X103400000Y-127095000D03*
X103400000Y-125825000D03*
X103400000Y-124555000D03*
%TD*%
D77*
%TO.C,SW9*%
X108825000Y-108925000D03*
X112975000Y-108925000D03*
X108825000Y-111075000D03*
X112975000Y-111075000D03*
%TD*%
D81*
%TO.C,J8*%
X217850000Y-104750000D03*
X197150000Y-104750000D03*
D82*
X216750000Y-105525000D03*
X216500000Y-97975000D03*
X216250000Y-105525000D03*
X216000000Y-97975000D03*
X215750000Y-105525000D03*
X215500000Y-97975000D03*
X215250000Y-105525000D03*
X215000000Y-97975000D03*
X214750000Y-105525000D03*
X214500000Y-97975000D03*
X214250000Y-105525000D03*
X214000000Y-97975000D03*
X213750000Y-105525000D03*
X213500000Y-97975000D03*
X213250000Y-105525000D03*
X213000000Y-97975000D03*
X212750000Y-105525000D03*
X212500000Y-97975000D03*
X212250000Y-105525000D03*
X212000000Y-97975000D03*
X211750000Y-105525000D03*
X211500000Y-97975000D03*
X211250000Y-105525000D03*
X209000000Y-97975000D03*
X208750000Y-105525000D03*
X208500000Y-97975000D03*
X208250000Y-105525000D03*
X208000000Y-97975000D03*
X207750000Y-105525000D03*
X207500000Y-97975000D03*
X207250000Y-105525000D03*
X207000000Y-97975000D03*
X206750000Y-105525000D03*
X206500000Y-97975000D03*
X206250000Y-105525000D03*
X206000000Y-97975000D03*
X205750000Y-105525000D03*
X205500000Y-97975000D03*
X205250000Y-105525000D03*
X205000000Y-97975000D03*
X204750000Y-105525000D03*
X204500000Y-97975000D03*
X204250000Y-105525000D03*
X204000000Y-97975000D03*
X203750000Y-105525000D03*
X203500000Y-97975000D03*
X203250000Y-105525000D03*
X203000000Y-97975000D03*
X202750000Y-105525000D03*
X202500000Y-97975000D03*
X202250000Y-105525000D03*
X202000000Y-97975000D03*
X201750000Y-105525000D03*
X201500000Y-97975000D03*
X201250000Y-105525000D03*
X201000000Y-97975000D03*
X200750000Y-105525000D03*
X200500000Y-97975000D03*
X200250000Y-105525000D03*
X200000000Y-97975000D03*
X199750000Y-105525000D03*
X199500000Y-97975000D03*
X199250000Y-105525000D03*
X199000000Y-97975000D03*
X198750000Y-105525000D03*
X198500000Y-97975000D03*
X198250000Y-105525000D03*
%TD*%
D12*
%TO.C,R112*%
X145050000Y-100775000D03*
X145050000Y-99725000D03*
%TD*%
D83*
%TO.C,U4*%
X93750000Y-105550000D03*
X94250000Y-105550000D03*
X94750000Y-105550000D03*
X95250000Y-105550000D03*
X95750000Y-105550000D03*
X96250000Y-105550000D03*
D84*
X96900000Y-104900000D03*
X96900000Y-104400000D03*
X96900000Y-103900000D03*
X96900000Y-103400000D03*
X96900000Y-102900000D03*
X96900000Y-102400000D03*
D85*
X96250000Y-101750000D03*
X95750000Y-101750000D03*
X95250000Y-101750000D03*
X94750000Y-101750000D03*
X94250000Y-101750000D03*
X93750000Y-101750000D03*
D86*
X93100000Y-102400000D03*
X93100000Y-102900000D03*
X93100000Y-103400000D03*
X93100000Y-103900000D03*
X93100000Y-104400000D03*
X93100000Y-104900000D03*
%TD*%
D87*
%TO.C,D1*%
X134800000Y-118350000D03*
X134800000Y-117650000D03*
%TD*%
D55*
%TO.C,C142*%
X108450000Y-78250000D03*
X108450000Y-76850000D03*
%TD*%
D39*
%TO.C,C156*%
X145350000Y-73375000D03*
X145350000Y-74375000D03*
%TD*%
D73*
%TO.C,C48*%
X127550000Y-107900000D03*
X127550000Y-109800000D03*
%TD*%
D88*
%TO.C,U1*%
X149281200Y-121250000D03*
X149281200Y-121749999D03*
X149281200Y-122250000D03*
X149281200Y-122749999D03*
X149281200Y-123250001D03*
X149281200Y-123750000D03*
X149281200Y-124249999D03*
X149281200Y-124750000D03*
X149281200Y-125249999D03*
X149281200Y-125750001D03*
X149281200Y-126250000D03*
X149281200Y-126749999D03*
X149281200Y-127250000D03*
X149281200Y-127749999D03*
X149281200Y-128250001D03*
X149281200Y-128750000D03*
X149281200Y-129249999D03*
X149281200Y-129750000D03*
X149281200Y-130250000D03*
X149281200Y-130749998D03*
X149281200Y-131250000D03*
X149281200Y-131749999D03*
X149281200Y-132250001D03*
X149281200Y-132750000D03*
X149281200Y-133249999D03*
X149281200Y-133750000D03*
X149281200Y-134249999D03*
X149281200Y-134750001D03*
X149281200Y-135250000D03*
X149281200Y-135749999D03*
X149281200Y-136250000D03*
X149281200Y-136749999D03*
X149281200Y-137250001D03*
X149281200Y-137750000D03*
X149281200Y-138249999D03*
X149281200Y-138750000D03*
D89*
X151250000Y-140718800D03*
X151749999Y-140718800D03*
X152250000Y-140718800D03*
X152749999Y-140718800D03*
X153250001Y-140718800D03*
X153750000Y-140718800D03*
X154249999Y-140718800D03*
X154750000Y-140718800D03*
X155249999Y-140718800D03*
X155750001Y-140718800D03*
X156250000Y-140718800D03*
X156749999Y-140718800D03*
X157250000Y-140718800D03*
X157749999Y-140718800D03*
X158250001Y-140718800D03*
X158750000Y-140718800D03*
X159249999Y-140718800D03*
X159750000Y-140718800D03*
X160250000Y-140718800D03*
X160750001Y-140718800D03*
X161250000Y-140718800D03*
X161749999Y-140718800D03*
X162250001Y-140718800D03*
X162750000Y-140718800D03*
X163250001Y-140718800D03*
X163750000Y-140718800D03*
X164249999Y-140718800D03*
X164750001Y-140718800D03*
X165250000Y-140718800D03*
X165750001Y-140718800D03*
X166250000Y-140718800D03*
X166749999Y-140718800D03*
X167250001Y-140718800D03*
X167750000Y-140718800D03*
X168250001Y-140718800D03*
X168750000Y-140718800D03*
D88*
X170718800Y-138750000D03*
X170718800Y-138250001D03*
X170718800Y-137750000D03*
X170718800Y-137250001D03*
X170718800Y-136749999D03*
X170718800Y-136250000D03*
X170718800Y-135750001D03*
X170718800Y-135250000D03*
X170718800Y-134750001D03*
X170718800Y-134249999D03*
X170718800Y-133750000D03*
X170718800Y-133250001D03*
X170718800Y-132750000D03*
X170718800Y-132250001D03*
X170718800Y-131749999D03*
X170718800Y-131250000D03*
X170718800Y-130750001D03*
X170718800Y-130250000D03*
X170718800Y-129750000D03*
X170718800Y-129249999D03*
X170718800Y-128750000D03*
X170718800Y-128250001D03*
X170718800Y-127749999D03*
X170718800Y-127250000D03*
X170718800Y-126749999D03*
X170718800Y-126250000D03*
X170718800Y-125750001D03*
X170718800Y-125249999D03*
X170718800Y-124750000D03*
X170718800Y-124249999D03*
X170718800Y-123750000D03*
X170718800Y-123250001D03*
X170718800Y-122749999D03*
X170718800Y-122250000D03*
X170718800Y-121749999D03*
X170718800Y-121250000D03*
D89*
X168750000Y-119281200D03*
X168250001Y-119281200D03*
X167750000Y-119281200D03*
X167250001Y-119281200D03*
X166749999Y-119281200D03*
X166250000Y-119281200D03*
X165750001Y-119281200D03*
X165250000Y-119281200D03*
X164750001Y-119281200D03*
X164249999Y-119281200D03*
X163750000Y-119281200D03*
X163250001Y-119281200D03*
X162750000Y-119281200D03*
X162250001Y-119281200D03*
X161749999Y-119281200D03*
X161250000Y-119281200D03*
X160750001Y-119281200D03*
X160250000Y-119281200D03*
X159750000Y-119281200D03*
X159249999Y-119281200D03*
X158750000Y-119281200D03*
X158250001Y-119281200D03*
X157749999Y-119281200D03*
X157250000Y-119281200D03*
X156749999Y-119281200D03*
X156250000Y-119281200D03*
X155750001Y-119281200D03*
X155249999Y-119281200D03*
X154750000Y-119281200D03*
X154249999Y-119281200D03*
X153750000Y-119281200D03*
X153250001Y-119281200D03*
X152749999Y-119281200D03*
X152250000Y-119281200D03*
X151749999Y-119281200D03*
X151250000Y-119281200D03*
%TD*%
D12*
%TO.C,R53*%
X117100000Y-124025000D03*
X117100000Y-122975000D03*
%TD*%
D37*
%TO.C,R44*%
X122525000Y-129050000D03*
X121475000Y-129050000D03*
%TD*%
D29*
%TO.C,U11*%
X209300000Y-84100000D03*
X209300000Y-83700000D03*
X209300000Y-83300000D03*
X209300000Y-82900000D03*
X209300000Y-82500000D03*
D58*
X208600000Y-82450000D03*
D59*
X207900000Y-82500000D03*
X207900000Y-82900000D03*
X207900000Y-83300000D03*
X207900000Y-83700000D03*
X207900000Y-84100000D03*
D60*
X208600000Y-84150000D03*
%TD*%
D90*
%TO.C,U15*%
X161590000Y-86980000D03*
X162090000Y-86980000D03*
X162590000Y-86980000D03*
X163090000Y-86980000D03*
D91*
X163090000Y-85830000D03*
X162590000Y-85830000D03*
X162090000Y-85805000D03*
X161590000Y-85805000D03*
%TD*%
D67*
%TO.C,C160*%
X143150000Y-91250000D03*
X146350000Y-91250000D03*
%TD*%
D19*
%TO.C,C42*%
X93650000Y-100500000D03*
X92650000Y-100500000D03*
%TD*%
D39*
%TO.C,C38*%
X86200000Y-104250000D03*
X86200000Y-105250000D03*
%TD*%
%TO.C,C77*%
X209200000Y-85300000D03*
X209200000Y-86300000D03*
%TD*%
D92*
%TO.C,L4*%
X211100000Y-129745000D03*
X211100000Y-130755000D03*
%TD*%
D37*
%TO.C,R41*%
X122525000Y-123650000D03*
X121475000Y-123650000D03*
%TD*%
D93*
%TO.C,Q5*%
X93325000Y-70850000D03*
X92675000Y-70850000D03*
X92025000Y-70850000D03*
X91375000Y-70850000D03*
%TD*%
D44*
%TO.C,C146*%
X115350000Y-82750000D03*
X115350000Y-81750000D03*
%TD*%
D36*
%TO.C,C103*%
X211100000Y-132250000D03*
X209700000Y-132250000D03*
%TD*%
D50*
%TO.C,R92*%
X123750000Y-71525000D03*
X123750000Y-76475000D03*
%TD*%
D39*
%TO.C,C78*%
X208000000Y-85300000D03*
X208000000Y-86300000D03*
%TD*%
D37*
%TO.C,R47*%
X122525000Y-127700000D03*
X121475000Y-127700000D03*
%TD*%
D68*
%TO.C,D35*%
X140250000Y-100000000D03*
X138750000Y-100000000D03*
%TD*%
D81*
%TO.C,J12*%
X192850000Y-104750000D03*
X172150000Y-104750000D03*
D82*
X191750000Y-105525000D03*
X191500000Y-97975000D03*
X191250000Y-105525000D03*
X191000000Y-97975000D03*
X190750000Y-105525000D03*
X190500000Y-97975000D03*
X190250000Y-105525000D03*
X190000000Y-97975000D03*
X189750000Y-105525000D03*
X189500000Y-97975000D03*
X189250000Y-105525000D03*
X189000000Y-97975000D03*
X188750000Y-105525000D03*
X188500000Y-97975000D03*
X188250000Y-105525000D03*
X188000000Y-97975000D03*
X187750000Y-105525000D03*
X187500000Y-97975000D03*
X187250000Y-105525000D03*
X187000000Y-97975000D03*
X186750000Y-105525000D03*
X186500000Y-97975000D03*
X186250000Y-105525000D03*
X184000000Y-97975000D03*
X183750000Y-105525000D03*
X183500000Y-97975000D03*
X183250000Y-105525000D03*
X183000000Y-97975000D03*
X182750000Y-105525000D03*
X182500000Y-97975000D03*
X182250000Y-105525000D03*
X182000000Y-97975000D03*
X181750000Y-105525000D03*
X181500000Y-97975000D03*
X181250000Y-105525000D03*
X181000000Y-97975000D03*
X180750000Y-105525000D03*
X180500000Y-97975000D03*
X180250000Y-105525000D03*
X180000000Y-97975000D03*
X179750000Y-105525000D03*
X179500000Y-97975000D03*
X179250000Y-105525000D03*
X179000000Y-97975000D03*
X178750000Y-105525000D03*
X178500000Y-97975000D03*
X178250000Y-105525000D03*
X178000000Y-97975000D03*
X177750000Y-105525000D03*
X177500000Y-97975000D03*
X177250000Y-105525000D03*
X177000000Y-97975000D03*
X176750000Y-105525000D03*
X176500000Y-97975000D03*
X176250000Y-105525000D03*
X176000000Y-97975000D03*
X175750000Y-105525000D03*
X175500000Y-97975000D03*
X175250000Y-105525000D03*
X175000000Y-97975000D03*
X174750000Y-105525000D03*
X174500000Y-97975000D03*
X174250000Y-105525000D03*
X174000000Y-97975000D03*
X173750000Y-105525000D03*
X173500000Y-97975000D03*
X173250000Y-105525000D03*
%TD*%
D36*
%TO.C,C162*%
X143675000Y-71400000D03*
X142275000Y-71400000D03*
%TD*%
D46*
%TO.C,C154*%
X138675000Y-75750000D03*
X138675000Y-77150000D03*
%TD*%
D55*
%TO.C,Q1*%
X165750000Y-115450000D03*
X165750000Y-113550000D03*
X163750000Y-114500000D03*
%TD*%
D71*
%TO.C,C120*%
X100700000Y-67300000D03*
X100700000Y-70500000D03*
%TD*%
D49*
%TO.C,C60*%
X116500000Y-133750000D03*
X117900000Y-133750000D03*
%TD*%
D94*
%TO.C,X3*%
X87612500Y-105237500D03*
X88887500Y-105237500D03*
X88887500Y-104262500D03*
X87612500Y-104262500D03*
%TD*%
D46*
%TO.C,C79*%
X189700000Y-86050000D03*
X189700000Y-87450000D03*
%TD*%
D47*
%TO.C,C59*%
X116350000Y-132250000D03*
X117350000Y-132250000D03*
%TD*%
%TO.C,C123*%
X104650000Y-65500000D03*
X105650000Y-65500000D03*
%TD*%
D23*
%TO.C,R105*%
X128700000Y-89650000D03*
X129750000Y-89650000D03*
%TD*%
D29*
%TO.C,U14*%
X182500000Y-84550000D03*
X182500000Y-84150000D03*
X182500000Y-83750000D03*
X182500000Y-83350000D03*
X182500000Y-82950000D03*
D58*
X181800000Y-82900000D03*
D59*
X181100000Y-82950000D03*
X181100000Y-83350000D03*
X181100000Y-83750000D03*
X181100000Y-84150000D03*
X181100000Y-84550000D03*
D60*
X181800000Y-84600000D03*
%TD*%
D44*
%TO.C,C1*%
X133300000Y-118500000D03*
X133300000Y-117500000D03*
%TD*%
D95*
%TO.C,D34*%
X127850000Y-92550000D03*
X127850000Y-91050000D03*
%TD*%
D12*
%TO.C,R109*%
X143750000Y-104150000D03*
X143750000Y-103100000D03*
%TD*%
D47*
%TO.C,C167*%
X137300000Y-105300000D03*
X138300000Y-105300000D03*
%TD*%
D36*
%TO.C,C39*%
X92750000Y-108325000D03*
X91350000Y-108325000D03*
%TD*%
D37*
%TO.C,R97*%
X117625000Y-81600000D03*
X116575000Y-81600000D03*
%TD*%
D39*
%TO.C,C19*%
X147250000Y-139000000D03*
X147250000Y-140000000D03*
%TD*%
D96*
%TO.C,Q4*%
X87675000Y-69550000D03*
X88325000Y-69550000D03*
X88975000Y-69550000D03*
X89625000Y-69550000D03*
%TD*%
D21*
%TO.C,R71*%
X105450000Y-90325000D03*
X105450000Y-91375000D03*
%TD*%
D55*
%TO.C,C88*%
X158265000Y-91055000D03*
X158265000Y-89655000D03*
%TD*%
D97*
%TO.C,D29*%
X103350000Y-75000000D03*
X104850000Y-75000000D03*
%TD*%
D47*
%TO.C,C101*%
X203625000Y-130850000D03*
X204625000Y-130850000D03*
%TD*%
D19*
%TO.C,C36*%
X144225000Y-134750000D03*
X143225000Y-134750000D03*
%TD*%
D98*
%TO.C,J11*%
X179200000Y-108000000D03*
X184800000Y-108000000D03*
D99*
X180500000Y-110525000D03*
X181500000Y-110525000D03*
X182500000Y-110525000D03*
X183500000Y-110525000D03*
%TD*%
D44*
%TO.C,C72*%
X211400000Y-84200000D03*
X211400000Y-83200000D03*
%TD*%
D37*
%TO.C,R13*%
X139775000Y-121000000D03*
X138725000Y-121000000D03*
%TD*%
D12*
%TO.C,R34*%
X108750000Y-136525000D03*
X108750000Y-135475000D03*
%TD*%
D47*
%TO.C,C43*%
X84000000Y-97000000D03*
X85000000Y-97000000D03*
%TD*%
D21*
%TO.C,R68*%
X200975000Y-130050000D03*
X200975000Y-131100000D03*
%TD*%
%TO.C,R102*%
X140850000Y-70500000D03*
X140850000Y-71550000D03*
%TD*%
%TO.C,R58*%
X215100000Y-82075000D03*
X215100000Y-83125000D03*
%TD*%
D39*
%TO.C,C41*%
X98150000Y-104000000D03*
X98150000Y-105000000D03*
%TD*%
D21*
%TO.C,R87*%
X102800000Y-72600000D03*
X102800000Y-73650000D03*
%TD*%
D37*
%TO.C,R99*%
X133325000Y-84250000D03*
X132275000Y-84250000D03*
%TD*%
D44*
%TO.C,C26*%
X145850000Y-124500000D03*
X145850000Y-123500000D03*
%TD*%
D46*
%TO.C,C70*%
X216500000Y-85600000D03*
X216500000Y-87000000D03*
%TD*%
D47*
%TO.C,C61*%
X118750000Y-129250000D03*
X119750000Y-129250000D03*
%TD*%
D100*
%TO.C,U25*%
X143413000Y-75550000D03*
D101*
X143537500Y-74475000D03*
X143537500Y-73975000D03*
X143537500Y-73475000D03*
D102*
X142500000Y-72887500D03*
D103*
X142000000Y-72962500D03*
D102*
X141500000Y-72887500D03*
D101*
X140462500Y-73475000D03*
X140462500Y-73975000D03*
X140462500Y-74475000D03*
D100*
X140587000Y-75550000D03*
D104*
X142000000Y-75962500D03*
%TD*%
D98*
%TO.C,J7*%
X208900000Y-108500000D03*
X214500000Y-108500000D03*
D99*
X210200000Y-111025000D03*
X211200000Y-111025000D03*
X212200000Y-111025000D03*
X213200000Y-111025000D03*
%TD*%
D47*
%TO.C,C23*%
X172750000Y-128650000D03*
X173750000Y-128650000D03*
%TD*%
D19*
%TO.C,C99*%
X202275000Y-128725000D03*
X201275000Y-128725000D03*
%TD*%
D11*
%TO.C,C164*%
X132750000Y-92750000D03*
X132750000Y-90850000D03*
%TD*%
D105*
%TO.C,J19*%
X197225000Y-128685000D03*
D106*
X198700000Y-127160000D03*
D105*
X197225000Y-125635000D03*
D106*
X195750000Y-127160000D03*
%TD*%
D38*
%TO.C,C128*%
X110550000Y-65200000D03*
X110550000Y-62000000D03*
%TD*%
%TO.C,C130*%
X117550000Y-65200000D03*
X117550000Y-62000000D03*
%TD*%
D39*
%TO.C,C122*%
X102950000Y-67000000D03*
X102950000Y-68000000D03*
%TD*%
D107*
%TO.C,R96*%
X120350000Y-85105000D03*
X120350000Y-79395000D03*
%TD*%
D23*
%TO.C,R54*%
X167975000Y-110250000D03*
X169025000Y-110250000D03*
%TD*%
D108*
%TO.C,U20*%
X203450000Y-124250000D03*
X203450000Y-124750000D03*
X203450000Y-125250000D03*
X203450000Y-125750000D03*
X206550000Y-125750000D03*
X206550000Y-125250000D03*
X206550000Y-124750000D03*
X206550000Y-124250000D03*
%TD*%
D12*
%TO.C,R22*%
X145750000Y-137375000D03*
X145750000Y-136325000D03*
%TD*%
D64*
%TO.C,R100*%
X137800000Y-94250000D03*
D65*
X140700000Y-94250000D03*
%TD*%
D109*
%TO.C,U18*%
X205300000Y-131850000D03*
X205300000Y-132250000D03*
X205300000Y-132650000D03*
X205700000Y-132650000D03*
X205700000Y-132250000D03*
X205700000Y-131850000D03*
%TD*%
D47*
%TO.C,C34*%
X139250000Y-123595000D03*
X140250000Y-123595000D03*
%TD*%
D110*
%TO.C,U3*%
X133095000Y-137900000D03*
X134365000Y-137900000D03*
X135635000Y-137900000D03*
X136905000Y-137900000D03*
X136905000Y-129600000D03*
X135635000Y-129600000D03*
X134365000Y-129600000D03*
X133095000Y-129600000D03*
%TD*%
D73*
%TO.C,C44*%
X90950000Y-97900000D03*
X90950000Y-99800000D03*
%TD*%
D68*
%TO.C,D13*%
X218350000Y-89450000D03*
X216850000Y-89450000D03*
%TD*%
D19*
%TO.C,C151*%
X116750000Y-74200000D03*
X115750000Y-74200000D03*
%TD*%
D98*
%TO.C,J15*%
X191225000Y-110500000D03*
X196825000Y-110500000D03*
D99*
X192525000Y-113025000D03*
X193525000Y-113025000D03*
X194525000Y-113025000D03*
X195525000Y-113025000D03*
%TD*%
D71*
%TO.C,C121*%
X97200000Y-67300000D03*
X97200000Y-70500000D03*
%TD*%
D36*
%TO.C,C62*%
X169200000Y-116950000D03*
X167800000Y-116950000D03*
%TD*%
D19*
%TO.C,C144*%
X126000000Y-78250000D03*
X125000000Y-78250000D03*
%TD*%
D51*
%TO.C,J22*%
X224500000Y-97475000D03*
D52*
X223025000Y-99000000D03*
D51*
X224500000Y-100525000D03*
D52*
X225975000Y-99000000D03*
%TD*%
D73*
%TO.C,C17*%
X140000000Y-139300000D03*
X140000000Y-141200000D03*
%TD*%
D12*
%TO.C,R77*%
X104050000Y-72825000D03*
X104050000Y-71775000D03*
%TD*%
D45*
%TO.C,SW5*%
X225750000Y-67800000D03*
X223250000Y-70200000D03*
X220750000Y-67800000D03*
%TD*%
D111*
%TO.C,L8*%
X142000000Y-80700000D03*
D112*
X142000000Y-85300000D03*
%TD*%
D23*
%TO.C,R86*%
X118625000Y-71800000D03*
X119675000Y-71800000D03*
%TD*%
D47*
%TO.C,C14*%
X163500000Y-117250000D03*
X164500000Y-117250000D03*
%TD*%
D113*
%TO.C,L9*%
X129750000Y-98300000D03*
X124750000Y-98300000D03*
%TD*%
D21*
%TO.C,R72*%
X106850000Y-90325000D03*
X106850000Y-91375000D03*
%TD*%
D23*
%TO.C,R84*%
X109125000Y-70150000D03*
X110175000Y-70150000D03*
%TD*%
D38*
%TO.C,C125*%
X98450000Y-65200000D03*
X98450000Y-62000000D03*
%TD*%
D114*
%TO.C,C157*%
X140850000Y-88750000D03*
X137650000Y-88750000D03*
%TD*%
D21*
%TO.C,R15*%
X148650000Y-140125000D03*
X148650000Y-141175000D03*
%TD*%
D47*
%TO.C,C137*%
X118650000Y-70600000D03*
X119650000Y-70600000D03*
%TD*%
D115*
%TO.C,D32*%
X112750000Y-74330000D03*
X112750000Y-77480000D03*
%TD*%
D36*
%TO.C,Q2*%
X94950000Y-94000000D03*
X93050000Y-94000000D03*
X94000000Y-96000000D03*
%TD*%
D44*
%TO.C,C147*%
X114100000Y-82750000D03*
X114100000Y-81750000D03*
%TD*%
D36*
%TO.C,L3*%
X132500000Y-108200000D03*
X130900000Y-108200000D03*
%TD*%
D37*
%TO.C,R93*%
X117625000Y-82900000D03*
X116575000Y-82900000D03*
%TD*%
D39*
%TO.C,C50*%
X124450000Y-108200000D03*
X124450000Y-109200000D03*
%TD*%
D19*
%TO.C,C9*%
X161000000Y-142750000D03*
X160000000Y-142750000D03*
%TD*%
D116*
%TO.C,D23*%
X107300000Y-109550000D03*
X107300000Y-110250000D03*
%TD*%
D117*
%TO.C,U6*%
X113750000Y-131000000D03*
X114250000Y-131000000D03*
X114750000Y-131000000D03*
X115250000Y-131000000D03*
X115750000Y-131000000D03*
X116250000Y-131000000D03*
D118*
X117000000Y-130250000D03*
X117000000Y-129750000D03*
X117000000Y-129250000D03*
X117000000Y-128750000D03*
X117000000Y-128250000D03*
X117000000Y-127750000D03*
D117*
X116250000Y-127000000D03*
X115750000Y-127000000D03*
X115250000Y-127000000D03*
X114750000Y-127000000D03*
X114250000Y-127000000D03*
X113750000Y-127000000D03*
D118*
X113000000Y-127750000D03*
X113000000Y-128250000D03*
X113000000Y-128750000D03*
X113000000Y-129250000D03*
X113000000Y-129750000D03*
X113000000Y-130250000D03*
%TD*%
D95*
%TO.C,D33*%
X132800000Y-81450000D03*
X132800000Y-79950000D03*
%TD*%
D44*
%TO.C,C117*%
X103550000Y-102800000D03*
X103550000Y-101800000D03*
%TD*%
D119*
%TO.C,U27*%
X141700000Y-103675000D03*
X141700000Y-103025000D03*
X141700000Y-102375000D03*
X141700000Y-101725000D03*
X137300000Y-101725000D03*
X137300000Y-102375000D03*
X137300000Y-103025000D03*
X137300000Y-103675000D03*
%TD*%
D37*
%TO.C,R107*%
X129750000Y-88450000D03*
X128700000Y-88450000D03*
%TD*%
D44*
%TO.C,C93*%
X157830000Y-94320000D03*
X157830000Y-93320000D03*
%TD*%
D39*
%TO.C,C47*%
X129450000Y-108200000D03*
X129450000Y-109200000D03*
%TD*%
D36*
%TO.C,C111*%
X105100000Y-104350000D03*
X103700000Y-104350000D03*
%TD*%
D47*
%TO.C,C145*%
X123750000Y-79750000D03*
X124750000Y-79750000D03*
%TD*%
D37*
%TO.C,R48*%
X122525000Y-126350000D03*
X121475000Y-126350000D03*
%TD*%
D73*
%TO.C,C153*%
X147175000Y-75750000D03*
X147175000Y-77650000D03*
%TD*%
D21*
%TO.C,R3*%
X149500000Y-115225000D03*
X149500000Y-116275000D03*
%TD*%
D46*
%TO.C,C45*%
X99650000Y-103400000D03*
X99650000Y-104800000D03*
%TD*%
D36*
%TO.C,Q10*%
X136450000Y-79750000D03*
X134550000Y-79750000D03*
X135500000Y-81750000D03*
%TD*%
D46*
%TO.C,Q12*%
X134350000Y-99650000D03*
X134350000Y-101550000D03*
X136350000Y-100600000D03*
%TD*%
D120*
%TO.C,C25*%
X170646447Y-118646447D03*
X171353553Y-119353553D03*
%TD*%
D93*
%TO.C,Q3*%
X89625000Y-70850000D03*
X88975000Y-70850000D03*
X88325000Y-70850000D03*
X87675000Y-70850000D03*
%TD*%
D121*
%TO.C,D17*%
X228875000Y-116000000D03*
X228175000Y-116000000D03*
%TD*%
D12*
%TO.C,R33*%
X107000000Y-134775000D03*
X107000000Y-133725000D03*
%TD*%
D92*
%TO.C,L5*%
X202300000Y-129945000D03*
X202300000Y-130955000D03*
%TD*%
D81*
%TO.C,J16*%
X167850000Y-104750000D03*
X147150000Y-104750000D03*
D82*
X166750000Y-105525000D03*
X166500000Y-97975000D03*
X166250000Y-105525000D03*
X166000000Y-97975000D03*
X165750000Y-105525000D03*
X165500000Y-97975000D03*
X165250000Y-105525000D03*
X165000000Y-97975000D03*
X164750000Y-105525000D03*
X164500000Y-97975000D03*
X164250000Y-105525000D03*
X164000000Y-97975000D03*
X163750000Y-105525000D03*
X163500000Y-97975000D03*
X163250000Y-105525000D03*
X163000000Y-97975000D03*
X162750000Y-105525000D03*
X162500000Y-97975000D03*
X162250000Y-105525000D03*
X162000000Y-97975000D03*
X161750000Y-105525000D03*
X161500000Y-97975000D03*
X161250000Y-105525000D03*
X159000000Y-97975000D03*
X158750000Y-105525000D03*
X158500000Y-97975000D03*
X158250000Y-105525000D03*
X158000000Y-97975000D03*
X157750000Y-105525000D03*
X157500000Y-97975000D03*
X157250000Y-105525000D03*
X157000000Y-97975000D03*
X156750000Y-105525000D03*
X156500000Y-97975000D03*
X156250000Y-105525000D03*
X156000000Y-97975000D03*
X155750000Y-105525000D03*
X155500000Y-97975000D03*
X155250000Y-105525000D03*
X155000000Y-97975000D03*
X154750000Y-105525000D03*
X154500000Y-97975000D03*
X154250000Y-105525000D03*
X154000000Y-97975000D03*
X153750000Y-105525000D03*
X153500000Y-97975000D03*
X153250000Y-105525000D03*
X153000000Y-97975000D03*
X152750000Y-105525000D03*
X152500000Y-97975000D03*
X152250000Y-105525000D03*
X152000000Y-97975000D03*
X151750000Y-105525000D03*
X151500000Y-97975000D03*
X151250000Y-105525000D03*
X151000000Y-97975000D03*
X150750000Y-105525000D03*
X150500000Y-97975000D03*
X150250000Y-105525000D03*
X150000000Y-97975000D03*
X149750000Y-105525000D03*
X149500000Y-97975000D03*
X149250000Y-105525000D03*
X149000000Y-97975000D03*
X148750000Y-105525000D03*
X148500000Y-97975000D03*
X148250000Y-105525000D03*
%TD*%
D55*
%TO.C,C74*%
X216500000Y-84000000D03*
X216500000Y-82600000D03*
%TD*%
D98*
%TO.C,J3*%
X180225000Y-113425000D03*
X185825000Y-113425000D03*
D99*
X181525000Y-115950000D03*
X182525000Y-115950000D03*
X183525000Y-115950000D03*
X184525000Y-115950000D03*
%TD*%
D11*
%TO.C,C140*%
X106650000Y-80700000D03*
X106650000Y-78800000D03*
%TD*%
D39*
%TO.C,C86*%
X182500000Y-85750000D03*
X182500000Y-86750000D03*
%TD*%
D73*
%TO.C,C152*%
X136825000Y-75750000D03*
X136825000Y-77650000D03*
%TD*%
D44*
%TO.C,C94*%
X159940000Y-94320000D03*
X159940000Y-93320000D03*
%TD*%
D122*
%TO.C,D25*%
X111925000Y-107250000D03*
X112875000Y-107250000D03*
X112875000Y-106300000D03*
X111925000Y-106300000D03*
%TD*%
D39*
%TO.C,C76*%
X208000000Y-91300000D03*
X208000000Y-92300000D03*
%TD*%
D12*
%TO.C,R88*%
X112850000Y-95225000D03*
X112850000Y-94175000D03*
%TD*%
D123*
%TO.C,X2*%
X144150000Y-122750000D03*
X142850000Y-122750000D03*
X142850000Y-123750000D03*
X144150000Y-123750000D03*
%TD*%
D37*
%TO.C,R30*%
X91775000Y-105500000D03*
X90725000Y-105500000D03*
%TD*%
D50*
%TO.C,R91*%
X127250000Y-71525000D03*
X127250000Y-76475000D03*
%TD*%
D12*
%TO.C,R95*%
X115735000Y-79825000D03*
X115735000Y-78775000D03*
%TD*%
D21*
%TO.C,R75*%
X103300000Y-109475000D03*
X103300000Y-110525000D03*
%TD*%
D124*
%TO.C,U24*%
X110250000Y-83150000D03*
X110750000Y-83150000D03*
X111250000Y-83150000D03*
X111750000Y-83150000D03*
X112250000Y-83150000D03*
D125*
X112900000Y-82500000D03*
X112900000Y-82000000D03*
X112900000Y-81500000D03*
X112900000Y-81000000D03*
X112900000Y-80500000D03*
D124*
X112250000Y-79850000D03*
X111750000Y-79850000D03*
X111250000Y-79850000D03*
X110750000Y-79850000D03*
X110250000Y-79850000D03*
D125*
X109600000Y-80500000D03*
X109600000Y-81000000D03*
X109600000Y-81500000D03*
X109600000Y-82000000D03*
X109600000Y-82500000D03*
%TD*%
D44*
%TO.C,C95*%
X162050000Y-94320000D03*
X162050000Y-93320000D03*
%TD*%
D126*
%TO.C,L2*%
X144000000Y-129975000D03*
X144000000Y-127525000D03*
%TD*%
D47*
%TO.C,C97*%
X211100000Y-128500000D03*
X212100000Y-128500000D03*
%TD*%
D39*
%TO.C,C13*%
X172750000Y-122250000D03*
X172750000Y-123250000D03*
%TD*%
D45*
%TO.C,SW8*%
X225750000Y-82350000D03*
X223250000Y-84750000D03*
X220750000Y-82350000D03*
%TD*%
D127*
%TO.C,D27*%
X86150000Y-69600000D03*
X86150000Y-71000000D03*
%TD*%
D60*
%TO.C,U17*%
X157990000Y-87055000D03*
X158390000Y-87055000D03*
X158790000Y-87055000D03*
X159190000Y-87055000D03*
X159590000Y-87055000D03*
D29*
X159640000Y-86355000D03*
D58*
X159590000Y-85655000D03*
X159190000Y-85655000D03*
X158790000Y-85655000D03*
X158390000Y-85655000D03*
X157990000Y-85655000D03*
D59*
X157940000Y-86355000D03*
%TD*%
D96*
%TO.C,Q6*%
X91375000Y-69550000D03*
X92025000Y-69550000D03*
X92675000Y-69550000D03*
X93325000Y-69550000D03*
%TD*%
D97*
%TO.C,D24*%
X104750000Y-112000000D03*
X106250000Y-112000000D03*
%TD*%
D12*
%TO.C,R65*%
X205800000Y-92800000D03*
X205800000Y-91750000D03*
%TD*%
D44*
%TO.C,C28*%
X147250000Y-127875000D03*
X147250000Y-126875000D03*
%TD*%
D19*
%TO.C,C100*%
X202275000Y-127375000D03*
X201275000Y-127375000D03*
%TD*%
%TO.C,C40*%
X92775000Y-106825000D03*
X91775000Y-106825000D03*
%TD*%
D23*
%TO.C,R67*%
X155000000Y-84070000D03*
X155930000Y-84070000D03*
X155930000Y-85000000D03*
X155000000Y-85000000D03*
%TD*%
D39*
%TO.C,C108*%
X105900000Y-109400000D03*
X105900000Y-110400000D03*
%TD*%
D12*
%TO.C,R61*%
X199800000Y-93175000D03*
X199800000Y-92125000D03*
%TD*%
D128*
%TO.C,C165*%
X121550000Y-95200000D03*
X121550000Y-92000000D03*
%TD*%
D21*
%TO.C,R35*%
X108750000Y-121475000D03*
X108750000Y-122525000D03*
%TD*%
D129*
%TO.C,U19*%
X199275000Y-132650000D03*
X199275000Y-131660000D03*
X199275000Y-130670000D03*
X197225000Y-130670000D03*
X197225000Y-131660000D03*
X197225000Y-132650000D03*
%TD*%
D121*
%TO.C,D16*%
X226025000Y-138000000D03*
X225325000Y-138000000D03*
%TD*%
D47*
%TO.C,C37*%
X146250000Y-122250000D03*
X147250000Y-122250000D03*
%TD*%
D37*
%TO.C,R82*%
X110175000Y-71350000D03*
X109125000Y-71350000D03*
%TD*%
D45*
%TO.C,SW7*%
X225750000Y-77500000D03*
X223250000Y-79900000D03*
X220750000Y-77500000D03*
%TD*%
D39*
%TO.C,C35*%
X131000000Y-129600000D03*
X131000000Y-130600000D03*
%TD*%
D12*
%TO.C,R98*%
X114450000Y-77430000D03*
X114450000Y-76380000D03*
%TD*%
D68*
%TO.C,D3*%
X144750000Y-121000000D03*
X143250000Y-121000000D03*
%TD*%
%TO.C,D14*%
X218350000Y-91450000D03*
X216850000Y-91450000D03*
%TD*%
D21*
%TO.C,R49*%
X111750000Y-131975000D03*
X111750000Y-133025000D03*
%TD*%
D130*
%TO.C,D28*%
X94850000Y-70900000D03*
X94850000Y-69500000D03*
%TD*%
D12*
%TO.C,R64*%
X151500000Y-87050000D03*
X151500000Y-86000000D03*
%TD*%
D20*
%TO.C,J10*%
X207500000Y-72000000D03*
%TD*%
D67*
%TO.C,C158*%
X143150000Y-88750000D03*
X146350000Y-88750000D03*
%TD*%
D76*
%TO.C,SW2*%
X147825000Y-119075000D03*
X143675000Y-119075000D03*
X147825000Y-116925000D03*
X143675000Y-116925000D03*
%TD*%
D39*
%TO.C,C65*%
X171000000Y-111600000D03*
X171000000Y-112600000D03*
%TD*%
D47*
%TO.C,C98*%
X211100000Y-127125000D03*
X212100000Y-127125000D03*
%TD*%
D39*
%TO.C,C87*%
X181100000Y-85750000D03*
X181100000Y-86750000D03*
%TD*%
D12*
%TO.C,R111*%
X145050000Y-103075000D03*
X145050000Y-102025000D03*
%TD*%
D51*
%TO.C,J21*%
X224500000Y-116975000D03*
D52*
X223025000Y-118500000D03*
D51*
X224500000Y-120025000D03*
D52*
X225975000Y-118500000D03*
%TD*%
D114*
%TO.C,C159*%
X140850000Y-91250000D03*
X137650000Y-91250000D03*
%TD*%
D37*
%TO.C,R39*%
X122525000Y-131750000D03*
X121475000Y-131750000D03*
%TD*%
D131*
%TO.C,U26*%
X129250000Y-92540000D03*
X129750000Y-92540000D03*
X130250000Y-92540000D03*
X130250000Y-91060000D03*
X129750000Y-91060000D03*
X129250000Y-91060000D03*
%TD*%
D132*
%TO.C,J4*%
X188725000Y-127687500D03*
X187625000Y-127687500D03*
X186525000Y-127687500D03*
X185425000Y-127687500D03*
X184325000Y-127687500D03*
X183225000Y-127687500D03*
X182125000Y-127687500D03*
X181025000Y-127687500D03*
D133*
X178555000Y-129887500D03*
X178555000Y-121687500D03*
X192445000Y-121687500D03*
X192445000Y-129887500D03*
%TD*%
D21*
%TO.C,R55*%
X108500000Y-115475000D03*
X108500000Y-116525000D03*
%TD*%
D12*
%TO.C,R11*%
X142125000Y-118525000D03*
X142125000Y-117475000D03*
%TD*%
D42*
%TO.C,U16*%
X151745000Y-90430000D03*
D43*
X152145000Y-91330000D03*
X152645000Y-91330000D03*
X153145000Y-91330000D03*
X153645000Y-91330000D03*
X154145000Y-91330000D03*
X154645000Y-91330000D03*
X155145000Y-91330000D03*
X155645000Y-91330000D03*
D40*
X156045000Y-90430000D03*
X156045000Y-89930000D03*
D41*
X155645000Y-89030000D03*
X155145000Y-89030000D03*
X154645000Y-89030000D03*
X154145000Y-89030000D03*
X153645000Y-89030000D03*
X153145000Y-89030000D03*
X152645000Y-89030000D03*
X152145000Y-89030000D03*
D42*
X151745000Y-89930000D03*
%TD*%
D46*
%TO.C,C155*%
X145325000Y-75750000D03*
X145325000Y-77150000D03*
%TD*%
D36*
%TO.C,C67*%
X107100000Y-119900000D03*
X105700000Y-119900000D03*
%TD*%
D19*
%TO.C,C149*%
X116750000Y-73005000D03*
X115750000Y-73005000D03*
%TD*%
D44*
%TO.C,C4*%
X147250000Y-124500000D03*
X147250000Y-123500000D03*
%TD*%
D66*
%TO.C,C169*%
X142350000Y-107100000D03*
X140450000Y-107100000D03*
%TD*%
D44*
%TO.C,C2*%
X149500000Y-118500000D03*
X149500000Y-117500000D03*
%TD*%
D121*
%TO.C,D18*%
X228875000Y-96500000D03*
X228175000Y-96500000D03*
%TD*%
D44*
%TO.C,C11*%
X172750000Y-136000000D03*
X172750000Y-135000000D03*
%TD*%
D134*
%TO.C,U7*%
X167525000Y-114400000D03*
X168175000Y-114400000D03*
X168825000Y-114400000D03*
X169475000Y-114400000D03*
X169475000Y-111600000D03*
D135*
X168825000Y-111600000D03*
D134*
X168175000Y-111600000D03*
X167525000Y-111600000D03*
%TD*%
D47*
%TO.C,C85*%
X186300000Y-91900000D03*
X187300000Y-91900000D03*
%TD*%
D136*
%TO.C,Q7*%
X118600000Y-67125000D03*
X118600000Y-67775000D03*
X118600000Y-68425000D03*
X118600000Y-69075000D03*
%TD*%
D44*
%TO.C,C105*%
X201750000Y-125250000D03*
X201750000Y-124250000D03*
%TD*%
D39*
%TO.C,C7*%
X147250000Y-136500000D03*
X147250000Y-137500000D03*
%TD*%
D37*
%TO.C,R14*%
X147275000Y-121000000D03*
X146225000Y-121000000D03*
%TD*%
D39*
%TO.C,C170*%
X135500000Y-103025000D03*
X135500000Y-104025000D03*
%TD*%
D130*
%TO.C,D31*%
X104450000Y-78600000D03*
X104450000Y-77200000D03*
%TD*%
D47*
%TO.C,C15*%
X158500000Y-117250000D03*
X159500000Y-117250000D03*
%TD*%
D21*
%TO.C,R42*%
X115750000Y-122975000D03*
X115750000Y-124025000D03*
%TD*%
D39*
%TO.C,C115*%
X112850000Y-96450000D03*
X112850000Y-97450000D03*
%TD*%
D21*
%TO.C,R101*%
X139550000Y-70500000D03*
X139550000Y-71550000D03*
%TD*%
D39*
%TO.C,C109*%
X102100000Y-109500000D03*
X102100000Y-110500000D03*
%TD*%
D53*
%TO.C,C29*%
X174550000Y-122800000D03*
X176450000Y-122800000D03*
%TD*%
D11*
%TO.C,C139*%
X110250000Y-78200000D03*
X110250000Y-76300000D03*
%TD*%
D37*
%TO.C,R74*%
X103225000Y-111800000D03*
X102175000Y-111800000D03*
%TD*%
D12*
%TO.C,R66*%
X153610000Y-87050000D03*
X153610000Y-86000000D03*
%TD*%
M02*
