%TF.GenerationSoftware,KiCad,Pcbnew,9.0.2*%
%TF.CreationDate,2025-05-19T10:18:23-04:00*%
%TF.ProjectId,frontPanel,66726f6e-7450-4616-9e65-6c2e6b696361,1*%
%TF.SameCoordinates,Original*%
%TF.FileFunction,Profile,NP*%
%FSLAX46Y46*%
G04 Gerber Fmt 4.6, Leading zero omitted, Abs format (unit mm)*
G04 Created by KiCad (PCBNEW 9.0.2) date 2025-05-19 10:18:23*
%MOMM*%
%LPD*%
G01*
G04 APERTURE LIST*
%TA.AperFunction,Profile*%
%ADD10C,0.050000*%
%TD*%
G04 APERTURE END LIST*
D10*
X90000000Y-83990000D02*
G75*
G02*
X93990000Y-80000000I3990000J0D01*
G01*
X190010000Y-80000000D02*
G75*
G02*
X194000000Y-83990000I0J-3990000D01*
G01*
X194000000Y-130620000D02*
X194000000Y-83990000D01*
X90000000Y-83990000D02*
X90000000Y-130620000D01*
X93990000Y-134610000D02*
G75*
G02*
X90000000Y-130620000I0J3990000D01*
G01*
X93990000Y-134610000D02*
X190010000Y-134610000D01*
X194000000Y-130620000D02*
G75*
G02*
X190010000Y-134610000I-3990000J0D01*
G01*
X190010000Y-80000000D02*
X93990000Y-80000000D01*
%TO.C,J1*%
X101450000Y-94669110D02*
X101450000Y-99050890D01*
X110550000Y-94669110D02*
X110550000Y-99050890D01*
X101450000Y-94669110D02*
G75*
G02*
X110550000Y-94669110I4550000J-2190890D01*
G01*
X110549999Y-99050890D02*
G75*
G02*
X101450001Y-99050890I-4549999J2190890D01*
G01*
%TO.C,J9*%
X151200001Y-122000000D02*
X151200000Y-115000000D01*
X152200000Y-114000001D02*
X159200000Y-114000000D01*
X159200000Y-123000000D02*
X152199999Y-123000000D01*
X160200000Y-115000000D02*
X160200000Y-122000000D01*
X151200000Y-115000000D02*
G75*
G02*
X152200000Y-114000000I999999J1D01*
G01*
X152200000Y-123000000D02*
G75*
G02*
X151200000Y-122000000I-1J999999D01*
G01*
X159200000Y-114000000D02*
G75*
G02*
X160200000Y-115000000I0J-1000000D01*
G01*
X160200000Y-122000000D02*
G75*
G02*
X159200000Y-123000000I-1000000J0D01*
G01*
%TO.C,J4*%
X162725000Y-89735000D02*
X162725000Y-101685000D01*
X164025000Y-102985000D02*
X177975000Y-102985000D01*
X177975000Y-88435000D02*
X164025000Y-88435000D01*
X179275000Y-101685000D02*
X179275000Y-89735000D01*
X162725000Y-89735000D02*
G75*
G02*
X164025000Y-88435000I1299999J1D01*
G01*
X164025000Y-102985000D02*
G75*
G02*
X162725000Y-101685000I-1J1299999D01*
G01*
X177975000Y-88435000D02*
G75*
G02*
X179275000Y-89735000I0J-1300000D01*
G01*
X179275000Y-101685000D02*
G75*
G02*
X177975000Y-102985000I-1300000J0D01*
G01*
%TO.C,J2*%
X119450000Y-94669110D02*
X119450000Y-99050890D01*
X128550000Y-94669110D02*
X128550000Y-99050890D01*
X119450000Y-94669110D02*
G75*
G02*
X128550000Y-94669110I4550000J-2190890D01*
G01*
X128549999Y-99050890D02*
G75*
G02*
X119450001Y-99050890I-4549999J2190890D01*
G01*
%TO.C,J3*%
X138725000Y-98535000D02*
X138725000Y-101584998D01*
X139975002Y-102835000D02*
X148025000Y-102835000D01*
X148024998Y-97285000D02*
X139975000Y-97285000D01*
X149275000Y-101585000D02*
X149275000Y-98535002D01*
X138725000Y-98535000D02*
G75*
G02*
X139975000Y-97285000I1250002J-2D01*
G01*
X139975000Y-102835000D02*
G75*
G02*
X138725000Y-101585000I2J1250002D01*
G01*
X148025000Y-97285000D02*
G75*
G02*
X149275000Y-98535000I0J-1250000D01*
G01*
X149275000Y-101585000D02*
G75*
G02*
X148025000Y-102835000I-1250000J0D01*
G01*
%TD*%
M02*
