%TF.GenerationSoftware,KiCad,Pcbnew,9.0.2*%
%TF.CreationDate,2025-05-19T10:18:23-04:00*%
%TF.ProjectId,frontPanel,66726f6e-7450-4616-9e65-6c2e6b696361,1*%
%TF.SameCoordinates,Original*%
%TF.FileFunction,Copper,L2,Bot*%
%TF.FilePolarity,Positive*%
%FSLAX46Y46*%
G04 Gerber Fmt 4.6, Leading zero omitted, Abs format (unit mm)*
G04 Created by KiCad (PCBNEW 9.0.2) date 2025-05-19 10:18:23*
%MOMM*%
%LPD*%
G01*
G04 APERTURE LIST*
%TA.AperFunction,SMDPad,CuDef*%
%ADD10C,12.750000*%
%TD*%
%TA.AperFunction,ComponentPad*%
%ADD11C,6.000000*%
%TD*%
%TA.AperFunction,ComponentPad*%
%ADD12C,5.000000*%
%TD*%
G04 APERTURE END LIST*
D10*
%TO.P,J1,1*%
%TO.N,GND*%
X106000000Y-96860000D03*
%TD*%
D11*
%TO.P,J6,1*%
%TO.N,GND*%
X190010000Y-84735000D03*
%TD*%
D12*
%TO.P,J9,1*%
%TO.N,unconnected-(J9-Pad1)_1*%
X145540000Y-112150000D03*
%TO.P,J9,2*%
%TO.N,unconnected-(J9-Pad1)_2*%
X165860000Y-112150000D03*
%TO.P,J9,3*%
%TO.N,unconnected-(J9-Pad1)*%
X165860000Y-124850000D03*
%TO.P,J9,4*%
%TO.N,unconnected-(J9-Pad1)_3*%
X145540000Y-124850000D03*
%TD*%
D11*
%TO.P,J4,1*%
%TO.N,GND*%
X159000000Y-91210000D03*
%TO.P,J4,2*%
X183000000Y-100210000D03*
%TD*%
D10*
%TO.P,J2,1*%
%TO.N,GND*%
X124000000Y-96860000D03*
%TD*%
D11*
%TO.P,J5,1*%
%TO.N,GND*%
X93990000Y-84735000D03*
%TD*%
%TO.P,J7,1*%
%TO.N,GND*%
X190010000Y-129875000D03*
%TD*%
%TO.P,J8,1*%
%TO.N,GND*%
X93990000Y-129875000D03*
%TD*%
D12*
%TO.P,J3,1*%
%TO.N,GND*%
X134750000Y-100060000D03*
%TO.P,J3,2*%
X153250000Y-100060000D03*
%TD*%
%TA.AperFunction,Conductor*%
%TO.N,GND*%
G36*
X190013032Y-80500648D02*
G01*
X190345949Y-80517004D01*
X190358058Y-80518197D01*
X190684741Y-80566656D01*
X190696675Y-80569030D01*
X191017036Y-80649276D01*
X191028675Y-80652806D01*
X191339649Y-80764073D01*
X191350870Y-80768721D01*
X191649440Y-80909935D01*
X191660168Y-80915670D01*
X191943432Y-81085452D01*
X191953550Y-81092212D01*
X192218826Y-81288954D01*
X192228232Y-81296674D01*
X192472943Y-81518467D01*
X192481532Y-81527056D01*
X192524948Y-81574958D01*
X192703325Y-81771767D01*
X192711045Y-81781173D01*
X192907787Y-82046449D01*
X192914547Y-82056567D01*
X193084329Y-82339831D01*
X193090066Y-82350563D01*
X193231273Y-82649118D01*
X193235930Y-82660361D01*
X193347191Y-82971318D01*
X193350723Y-82982963D01*
X193430969Y-83303324D01*
X193433343Y-83315258D01*
X193481802Y-83641941D01*
X193482995Y-83654051D01*
X193499351Y-83986966D01*
X193499500Y-83993051D01*
X193499500Y-130616948D01*
X193499351Y-130623033D01*
X193482995Y-130955948D01*
X193481802Y-130968058D01*
X193433343Y-131294741D01*
X193430969Y-131306675D01*
X193350723Y-131627036D01*
X193347191Y-131638681D01*
X193235930Y-131949638D01*
X193231273Y-131960881D01*
X193090066Y-132259436D01*
X193084329Y-132270168D01*
X192914547Y-132553432D01*
X192907787Y-132563550D01*
X192711045Y-132828826D01*
X192703325Y-132838232D01*
X192481540Y-133082935D01*
X192472935Y-133091540D01*
X192228232Y-133313325D01*
X192218826Y-133321045D01*
X191953550Y-133517787D01*
X191943432Y-133524547D01*
X191660168Y-133694329D01*
X191649436Y-133700066D01*
X191350881Y-133841273D01*
X191339638Y-133845930D01*
X191028681Y-133957191D01*
X191017036Y-133960723D01*
X190696675Y-134040969D01*
X190684741Y-134043343D01*
X190358058Y-134091802D01*
X190345948Y-134092995D01*
X190032329Y-134108403D01*
X190013031Y-134109351D01*
X190006949Y-134109500D01*
X93993051Y-134109500D01*
X93986968Y-134109351D01*
X93966545Y-134108347D01*
X93654051Y-134092995D01*
X93641941Y-134091802D01*
X93315258Y-134043343D01*
X93303324Y-134040969D01*
X92982963Y-133960723D01*
X92971318Y-133957191D01*
X92660361Y-133845930D01*
X92649118Y-133841273D01*
X92350563Y-133700066D01*
X92339831Y-133694329D01*
X92056567Y-133524547D01*
X92046449Y-133517787D01*
X91781173Y-133321045D01*
X91771767Y-133313325D01*
X91732609Y-133277834D01*
X91527056Y-133091532D01*
X91518467Y-133082943D01*
X91296674Y-132838232D01*
X91288954Y-132828826D01*
X91092212Y-132563550D01*
X91085452Y-132553432D01*
X90915670Y-132270168D01*
X90909933Y-132259436D01*
X90773799Y-131971606D01*
X90768721Y-131960870D01*
X90764073Y-131949649D01*
X90652806Y-131638675D01*
X90649276Y-131627036D01*
X90569030Y-131306675D01*
X90566656Y-131294741D01*
X90518197Y-130968058D01*
X90517004Y-130955947D01*
X90500649Y-130623032D01*
X90500500Y-130616948D01*
X90500500Y-124695528D01*
X142789500Y-124695528D01*
X142789500Y-125004471D01*
X142824086Y-125311437D01*
X142824089Y-125311455D01*
X142892831Y-125612635D01*
X142892835Y-125612647D01*
X142994862Y-125904222D01*
X142994868Y-125904236D01*
X143128903Y-126182562D01*
X143128905Y-126182565D01*
X143293265Y-126444143D01*
X143485880Y-126685674D01*
X143704326Y-126904120D01*
X143945857Y-127096735D01*
X144207435Y-127261095D01*
X144485771Y-127395135D01*
X144485777Y-127395137D01*
X144777352Y-127497164D01*
X144777364Y-127497168D01*
X145078548Y-127565911D01*
X145078554Y-127565911D01*
X145078562Y-127565913D01*
X145283206Y-127588970D01*
X145385529Y-127600499D01*
X145385532Y-127600500D01*
X145385535Y-127600500D01*
X145694468Y-127600500D01*
X145694469Y-127600499D01*
X145851356Y-127582822D01*
X146001437Y-127565913D01*
X146001442Y-127565912D01*
X146001452Y-127565911D01*
X146302636Y-127497168D01*
X146594229Y-127395135D01*
X146872565Y-127261095D01*
X147134143Y-127096735D01*
X147375674Y-126904120D01*
X147594120Y-126685674D01*
X147786735Y-126444143D01*
X147951095Y-126182565D01*
X148085135Y-125904229D01*
X148187168Y-125612636D01*
X148255911Y-125311452D01*
X148290500Y-125004465D01*
X148290500Y-124695535D01*
X148290499Y-124695528D01*
X163109500Y-124695528D01*
X163109500Y-125004471D01*
X163144086Y-125311437D01*
X163144089Y-125311455D01*
X163212831Y-125612635D01*
X163212835Y-125612647D01*
X163314862Y-125904222D01*
X163314868Y-125904236D01*
X163448903Y-126182562D01*
X163448905Y-126182565D01*
X163613265Y-126444143D01*
X163805880Y-126685674D01*
X164024326Y-126904120D01*
X164265857Y-127096735D01*
X164527435Y-127261095D01*
X164805771Y-127395135D01*
X164805777Y-127395137D01*
X165097352Y-127497164D01*
X165097364Y-127497168D01*
X165398548Y-127565911D01*
X165398554Y-127565911D01*
X165398562Y-127565913D01*
X165603206Y-127588970D01*
X165705529Y-127600499D01*
X165705532Y-127600500D01*
X165705535Y-127600500D01*
X166014468Y-127600500D01*
X166014469Y-127600499D01*
X166171356Y-127582822D01*
X166321437Y-127565913D01*
X166321442Y-127565912D01*
X166321452Y-127565911D01*
X166622636Y-127497168D01*
X166914229Y-127395135D01*
X167192565Y-127261095D01*
X167454143Y-127096735D01*
X167695674Y-126904120D01*
X167914120Y-126685674D01*
X168106735Y-126444143D01*
X168271095Y-126182565D01*
X168405135Y-125904229D01*
X168507168Y-125612636D01*
X168575911Y-125311452D01*
X168610500Y-125004465D01*
X168610500Y-124695535D01*
X168575911Y-124388548D01*
X168507168Y-124087364D01*
X168405135Y-123795771D01*
X168271095Y-123517435D01*
X168106735Y-123255857D01*
X167914120Y-123014326D01*
X167695674Y-122795880D01*
X167454143Y-122603265D01*
X167192565Y-122438905D01*
X167192562Y-122438903D01*
X166914236Y-122304868D01*
X166914222Y-122304862D01*
X166622647Y-122202835D01*
X166622635Y-122202831D01*
X166321455Y-122134089D01*
X166321437Y-122134086D01*
X166014471Y-122099500D01*
X166014465Y-122099500D01*
X165705535Y-122099500D01*
X165705528Y-122099500D01*
X165398562Y-122134086D01*
X165398544Y-122134089D01*
X165097364Y-122202831D01*
X165097352Y-122202835D01*
X164805777Y-122304862D01*
X164805763Y-122304868D01*
X164527437Y-122438903D01*
X164265858Y-122603264D01*
X164024326Y-122795879D01*
X163805879Y-123014326D01*
X163613264Y-123255858D01*
X163448903Y-123517437D01*
X163314868Y-123795763D01*
X163314862Y-123795777D01*
X163212835Y-124087352D01*
X163212831Y-124087364D01*
X163144089Y-124388544D01*
X163144086Y-124388562D01*
X163109500Y-124695528D01*
X148290499Y-124695528D01*
X148255911Y-124388548D01*
X148187168Y-124087364D01*
X148085135Y-123795771D01*
X147951095Y-123517435D01*
X147786735Y-123255857D01*
X147594120Y-123014326D01*
X147375674Y-122795880D01*
X147134143Y-122603265D01*
X146872565Y-122438905D01*
X146872562Y-122438903D01*
X146594236Y-122304868D01*
X146594222Y-122304862D01*
X146302647Y-122202835D01*
X146302635Y-122202831D01*
X146001455Y-122134089D01*
X146001437Y-122134086D01*
X145694471Y-122099500D01*
X145694465Y-122099500D01*
X145385535Y-122099500D01*
X145385528Y-122099500D01*
X145078562Y-122134086D01*
X145078544Y-122134089D01*
X144777364Y-122202831D01*
X144777352Y-122202835D01*
X144485777Y-122304862D01*
X144485763Y-122304868D01*
X144207437Y-122438903D01*
X143945858Y-122603264D01*
X143704326Y-122795879D01*
X143485879Y-123014326D01*
X143293264Y-123255858D01*
X143128903Y-123517437D01*
X142994868Y-123795763D01*
X142994862Y-123795777D01*
X142892835Y-124087352D01*
X142892831Y-124087364D01*
X142824089Y-124388544D01*
X142824086Y-124388562D01*
X142789500Y-124695528D01*
X90500500Y-124695528D01*
X90500500Y-111995528D01*
X142789500Y-111995528D01*
X142789500Y-112304471D01*
X142824086Y-112611437D01*
X142824089Y-112611455D01*
X142892831Y-112912635D01*
X142892835Y-112912647D01*
X142994862Y-113204222D01*
X142994868Y-113204236D01*
X143128903Y-113482562D01*
X143128905Y-113482565D01*
X143293265Y-113744143D01*
X143436963Y-113924334D01*
X143446485Y-113936275D01*
X143485880Y-113985674D01*
X143704326Y-114204120D01*
X143945857Y-114396735D01*
X144207435Y-114561095D01*
X144485771Y-114695135D01*
X144485777Y-114695137D01*
X144777352Y-114797164D01*
X144777364Y-114797168D01*
X145078548Y-114865911D01*
X145078554Y-114865911D01*
X145078562Y-114865913D01*
X145282147Y-114888851D01*
X145385529Y-114900499D01*
X145385532Y-114900500D01*
X145385535Y-114900500D01*
X145694468Y-114900500D01*
X145694469Y-114900499D01*
X145763846Y-114892682D01*
X150699500Y-114892682D01*
X150699500Y-122107317D01*
X150730044Y-122319764D01*
X150730047Y-122319774D01*
X150790517Y-122525715D01*
X150879672Y-122720938D01*
X150879679Y-122720951D01*
X150995720Y-122901514D01*
X151136275Y-123063724D01*
X151260277Y-123171172D01*
X151298487Y-123204281D01*
X151378743Y-123255858D01*
X151479048Y-123320320D01*
X151479061Y-123320327D01*
X151674284Y-123409482D01*
X151674288Y-123409483D01*
X151674290Y-123409484D01*
X151880231Y-123469954D01*
X151880232Y-123469954D01*
X151880235Y-123469955D01*
X151943584Y-123479062D01*
X152092682Y-123500500D01*
X152092683Y-123500500D01*
X159307317Y-123500500D01*
X159307318Y-123500500D01*
X159477851Y-123475980D01*
X159519764Y-123469955D01*
X159519765Y-123469954D01*
X159519769Y-123469954D01*
X159725710Y-123409484D01*
X159725713Y-123409482D01*
X159725715Y-123409482D01*
X159920938Y-123320327D01*
X159920944Y-123320323D01*
X159920950Y-123320321D01*
X160101513Y-123204281D01*
X160263724Y-123063724D01*
X160404281Y-122901513D01*
X160520321Y-122720950D01*
X160520323Y-122720944D01*
X160520327Y-122720938D01*
X160609482Y-122525715D01*
X160609482Y-122525713D01*
X160609484Y-122525710D01*
X160669954Y-122319769D01*
X160672097Y-122304868D01*
X160675980Y-122277851D01*
X160700500Y-122107318D01*
X160700500Y-122000000D01*
X160700500Y-121934108D01*
X160700500Y-114934108D01*
X160700500Y-114892682D01*
X160672097Y-114695135D01*
X160669955Y-114680235D01*
X160669952Y-114680225D01*
X160634973Y-114561096D01*
X160609484Y-114474290D01*
X160609483Y-114474288D01*
X160609482Y-114474284D01*
X160520327Y-114279061D01*
X160520320Y-114279048D01*
X160472167Y-114204120D01*
X160404281Y-114098487D01*
X160306527Y-113985673D01*
X160263724Y-113936275D01*
X160101514Y-113795720D01*
X160101513Y-113795719D01*
X160021256Y-113744141D01*
X159920951Y-113679679D01*
X159920938Y-113679672D01*
X159725715Y-113590517D01*
X159519774Y-113530047D01*
X159519764Y-113530044D01*
X159328754Y-113502582D01*
X159307318Y-113499500D01*
X159200000Y-113499500D01*
X159134108Y-113499500D01*
X159134107Y-113499500D01*
X152265895Y-113499500D01*
X152265892Y-113499500D01*
X152200000Y-113499500D01*
X152092682Y-113499500D01*
X151880235Y-113530044D01*
X151880225Y-113530047D01*
X151674284Y-113590517D01*
X151479061Y-113679672D01*
X151479048Y-113679679D01*
X151298485Y-113795720D01*
X151136275Y-113936275D01*
X150995720Y-114098485D01*
X150879679Y-114279048D01*
X150879672Y-114279061D01*
X150790517Y-114474284D01*
X150730047Y-114680225D01*
X150730044Y-114680235D01*
X150699500Y-114892682D01*
X145763846Y-114892682D01*
X145851356Y-114882822D01*
X146001437Y-114865913D01*
X146001442Y-114865912D01*
X146001452Y-114865911D01*
X146302636Y-114797168D01*
X146315009Y-114792838D01*
X146376816Y-114771212D01*
X146513071Y-114723533D01*
X146594229Y-114695135D01*
X146872565Y-114561095D01*
X147134143Y-114396735D01*
X147375674Y-114204120D01*
X147594120Y-113985674D01*
X147786735Y-113744143D01*
X147951095Y-113482565D01*
X148085135Y-113204229D01*
X148187168Y-112912636D01*
X148255911Y-112611452D01*
X148290500Y-112304465D01*
X148290500Y-111995535D01*
X148290499Y-111995528D01*
X163109500Y-111995528D01*
X163109500Y-112304471D01*
X163144086Y-112611437D01*
X163144089Y-112611455D01*
X163212831Y-112912635D01*
X163212835Y-112912647D01*
X163314862Y-113204222D01*
X163314868Y-113204236D01*
X163448903Y-113482562D01*
X163448905Y-113482565D01*
X163613265Y-113744143D01*
X163756963Y-113924334D01*
X163766485Y-113936275D01*
X163805880Y-113985674D01*
X164024326Y-114204120D01*
X164265857Y-114396735D01*
X164527435Y-114561095D01*
X164805771Y-114695135D01*
X164805777Y-114695137D01*
X165097352Y-114797164D01*
X165097364Y-114797168D01*
X165398548Y-114865911D01*
X165398554Y-114865911D01*
X165398562Y-114865913D01*
X165602147Y-114888851D01*
X165705529Y-114900499D01*
X165705532Y-114900500D01*
X165705535Y-114900500D01*
X166014468Y-114900500D01*
X166014469Y-114900499D01*
X166171356Y-114882822D01*
X166321437Y-114865913D01*
X166321442Y-114865912D01*
X166321452Y-114865911D01*
X166622636Y-114797168D01*
X166914229Y-114695135D01*
X167192565Y-114561095D01*
X167454143Y-114396735D01*
X167695674Y-114204120D01*
X167914120Y-113985674D01*
X168106735Y-113744143D01*
X168271095Y-113482565D01*
X168405135Y-113204229D01*
X168507168Y-112912636D01*
X168575911Y-112611452D01*
X168610500Y-112304465D01*
X168610500Y-111995535D01*
X168575911Y-111688548D01*
X168507168Y-111387364D01*
X168405135Y-111095771D01*
X168271095Y-110817435D01*
X168106735Y-110555857D01*
X167914120Y-110314326D01*
X167695674Y-110095880D01*
X167454143Y-109903265D01*
X167192565Y-109738905D01*
X167192562Y-109738903D01*
X166914236Y-109604868D01*
X166914222Y-109604862D01*
X166622647Y-109502835D01*
X166622635Y-109502831D01*
X166321455Y-109434089D01*
X166321437Y-109434086D01*
X166014471Y-109399500D01*
X166014465Y-109399500D01*
X165705535Y-109399500D01*
X165705528Y-109399500D01*
X165398562Y-109434086D01*
X165398544Y-109434089D01*
X165097364Y-109502831D01*
X165097352Y-109502835D01*
X164805777Y-109604862D01*
X164805763Y-109604868D01*
X164527437Y-109738903D01*
X164265858Y-109903264D01*
X164024326Y-110095879D01*
X163805879Y-110314326D01*
X163613264Y-110555858D01*
X163448903Y-110817437D01*
X163314868Y-111095763D01*
X163314862Y-111095777D01*
X163212835Y-111387352D01*
X163212831Y-111387364D01*
X163144089Y-111688544D01*
X163144086Y-111688562D01*
X163109500Y-111995528D01*
X148290499Y-111995528D01*
X148255911Y-111688548D01*
X148187168Y-111387364D01*
X148085135Y-111095771D01*
X147951095Y-110817435D01*
X147786735Y-110555857D01*
X147594120Y-110314326D01*
X147375674Y-110095880D01*
X147134143Y-109903265D01*
X146872565Y-109738905D01*
X146872562Y-109738903D01*
X146594236Y-109604868D01*
X146594222Y-109604862D01*
X146302647Y-109502835D01*
X146302635Y-109502831D01*
X146001455Y-109434089D01*
X146001437Y-109434086D01*
X145694471Y-109399500D01*
X145694465Y-109399500D01*
X145385535Y-109399500D01*
X145385528Y-109399500D01*
X145078562Y-109434086D01*
X145078544Y-109434089D01*
X144777364Y-109502831D01*
X144777352Y-109502835D01*
X144485777Y-109604862D01*
X144485763Y-109604868D01*
X144207437Y-109738903D01*
X143945858Y-109903264D01*
X143704326Y-110095879D01*
X143485879Y-110314326D01*
X143293264Y-110555858D01*
X143128903Y-110817437D01*
X142994868Y-111095763D01*
X142994862Y-111095777D01*
X142892835Y-111387352D01*
X142892831Y-111387364D01*
X142824089Y-111688544D01*
X142824086Y-111688562D01*
X142789500Y-111995528D01*
X90500500Y-111995528D01*
X90500500Y-94640829D01*
X100945974Y-94640829D01*
X100946271Y-94644797D01*
X100946271Y-94644802D01*
X100949153Y-94683223D01*
X100949500Y-94692496D01*
X100949500Y-99027515D01*
X100949153Y-99036787D01*
X100945974Y-99079169D01*
X100947339Y-99086380D01*
X100949500Y-99109430D01*
X100949500Y-99116784D01*
X100957378Y-99146186D01*
X100961707Y-99162342D01*
X100970469Y-99208659D01*
X100978694Y-99225742D01*
X100981701Y-99236964D01*
X100981703Y-99236968D01*
X100983607Y-99244076D01*
X101004910Y-99280974D01*
X101009233Y-99289151D01*
X101099229Y-99475948D01*
X101099232Y-99475953D01*
X101333315Y-99873767D01*
X101333320Y-99873774D01*
X101599617Y-100250776D01*
X101599625Y-100250786D01*
X101599630Y-100250793D01*
X101896320Y-100604402D01*
X102221342Y-100932159D01*
X102572452Y-101231802D01*
X102572466Y-101231812D01*
X102947216Y-101501255D01*
X102947229Y-101501263D01*
X103343064Y-101738670D01*
X103343076Y-101738677D01*
X103757271Y-101942411D01*
X104186949Y-102111055D01*
X104629144Y-102243446D01*
X105080804Y-102338669D01*
X105538810Y-102396067D01*
X106000000Y-102415244D01*
X106461190Y-102396067D01*
X106919196Y-102338669D01*
X107370856Y-102243446D01*
X107813051Y-102111055D01*
X108242729Y-101942411D01*
X108656924Y-101738677D01*
X109052774Y-101501261D01*
X109052778Y-101501257D01*
X109052783Y-101501255D01*
X109339061Y-101295423D01*
X109427548Y-101231802D01*
X109778658Y-100932159D01*
X110103680Y-100604402D01*
X110400370Y-100250793D01*
X110666680Y-99873774D01*
X110900771Y-99475948D01*
X110992775Y-99284981D01*
X111016392Y-99244076D01*
X111021303Y-99225746D01*
X111029531Y-99208659D01*
X111037430Y-99166896D01*
X111039494Y-99157855D01*
X111050499Y-99116784D01*
X111050500Y-99116782D01*
X111050500Y-99097805D01*
X111054025Y-99079171D01*
X111050500Y-99032160D01*
X111050500Y-94692496D01*
X111050847Y-94683223D01*
X111053728Y-94644802D01*
X111054026Y-94640829D01*
X118945974Y-94640829D01*
X118946271Y-94644797D01*
X118946271Y-94644802D01*
X118949153Y-94683223D01*
X118949500Y-94692496D01*
X118949500Y-99027515D01*
X118949153Y-99036787D01*
X118945974Y-99079169D01*
X118947339Y-99086380D01*
X118949500Y-99109430D01*
X118949500Y-99116784D01*
X118957378Y-99146186D01*
X118961707Y-99162342D01*
X118970469Y-99208659D01*
X118978694Y-99225742D01*
X118981701Y-99236964D01*
X118981703Y-99236968D01*
X118983607Y-99244076D01*
X119004910Y-99280974D01*
X119009233Y-99289151D01*
X119099229Y-99475948D01*
X119099232Y-99475953D01*
X119333315Y-99873767D01*
X119333320Y-99873774D01*
X119599617Y-100250776D01*
X119599625Y-100250786D01*
X119599630Y-100250793D01*
X119896320Y-100604402D01*
X120221342Y-100932159D01*
X120572452Y-101231802D01*
X120572466Y-101231812D01*
X120947216Y-101501255D01*
X120947229Y-101501263D01*
X121343064Y-101738670D01*
X121343076Y-101738677D01*
X121757271Y-101942411D01*
X122186949Y-102111055D01*
X122629144Y-102243446D01*
X123080804Y-102338669D01*
X123538810Y-102396067D01*
X124000000Y-102415244D01*
X124461190Y-102396067D01*
X124919196Y-102338669D01*
X125370856Y-102243446D01*
X125813051Y-102111055D01*
X126242729Y-101942411D01*
X126656924Y-101738677D01*
X127052774Y-101501261D01*
X127052778Y-101501257D01*
X127052783Y-101501255D01*
X127339061Y-101295423D01*
X127427548Y-101231802D01*
X127778658Y-100932159D01*
X128103680Y-100604402D01*
X128400370Y-100250793D01*
X128666680Y-99873774D01*
X128900771Y-99475948D01*
X128992775Y-99284981D01*
X129016392Y-99244076D01*
X129021303Y-99225746D01*
X129029531Y-99208659D01*
X129037430Y-99166896D01*
X129039494Y-99157855D01*
X129050499Y-99116784D01*
X129050500Y-99116782D01*
X129050500Y-99097805D01*
X129054025Y-99079171D01*
X129050500Y-99032160D01*
X129050500Y-98409803D01*
X138224500Y-98409803D01*
X138224500Y-101710196D01*
X138260135Y-101958044D01*
X138260136Y-101958048D01*
X138330676Y-102198291D01*
X138330678Y-102198297D01*
X138434695Y-102426061D01*
X138434705Y-102426079D01*
X138570068Y-102636708D01*
X138570072Y-102636714D01*
X138734047Y-102825952D01*
X138923285Y-102989927D01*
X138923291Y-102989931D01*
X139133920Y-103125294D01*
X139133928Y-103125298D01*
X139133932Y-103125301D01*
X139133935Y-103125302D01*
X139133938Y-103125304D01*
X139361702Y-103229321D01*
X139361708Y-103229323D01*
X139564788Y-103288951D01*
X139601954Y-103299864D01*
X139849802Y-103335500D01*
X139849803Y-103335500D01*
X148150197Y-103335500D01*
X148150198Y-103335500D01*
X148398046Y-103299864D01*
X148526803Y-103262057D01*
X148638291Y-103229323D01*
X148638297Y-103229321D01*
X148638297Y-103229320D01*
X148638300Y-103229320D01*
X148866068Y-103125301D01*
X149076715Y-102989927D01*
X149265952Y-102825952D01*
X149429927Y-102636715D01*
X149565301Y-102426068D01*
X149669320Y-102198300D01*
X149739864Y-101958046D01*
X149775500Y-101710198D01*
X149775500Y-101585000D01*
X149775500Y-101519108D01*
X149775500Y-98469110D01*
X149775500Y-98409802D01*
X149739864Y-98161954D01*
X149693786Y-98005023D01*
X149669323Y-97921708D01*
X149669321Y-97921702D01*
X149565304Y-97693938D01*
X149565294Y-97693920D01*
X149429931Y-97483291D01*
X149429927Y-97483285D01*
X149265952Y-97294047D01*
X149076714Y-97130072D01*
X149076708Y-97130068D01*
X148866079Y-96994705D01*
X148866061Y-96994695D01*
X148638297Y-96890678D01*
X148638291Y-96890676D01*
X148398048Y-96820136D01*
X148398044Y-96820135D01*
X148221468Y-96794747D01*
X148150198Y-96784500D01*
X148090890Y-96784500D01*
X140040892Y-96784500D01*
X139975000Y-96784500D01*
X139849802Y-96784500D01*
X139814167Y-96789623D01*
X139601955Y-96820135D01*
X139601951Y-96820136D01*
X139361708Y-96890676D01*
X139361702Y-96890678D01*
X139133938Y-96994695D01*
X139133920Y-96994705D01*
X138923291Y-97130068D01*
X138923285Y-97130072D01*
X138734047Y-97294047D01*
X138570072Y-97483285D01*
X138570068Y-97483291D01*
X138434705Y-97693920D01*
X138434695Y-97693938D01*
X138330678Y-97921702D01*
X138330676Y-97921708D01*
X138260136Y-98161951D01*
X138260135Y-98161955D01*
X138224500Y-98409803D01*
X129050500Y-98409803D01*
X129050500Y-94687852D01*
X129054026Y-94640829D01*
X129050500Y-94622188D01*
X129050500Y-94603218D01*
X129038295Y-94557670D01*
X129029532Y-94511341D01*
X129021302Y-94494249D01*
X129018293Y-94483018D01*
X129018293Y-94483017D01*
X129018292Y-94483015D01*
X129016392Y-94475923D01*
X128995092Y-94439030D01*
X128990768Y-94430850D01*
X128900782Y-94244072D01*
X128900772Y-94244053D01*
X128900772Y-94244052D01*
X128770564Y-94022770D01*
X128666685Y-93846232D01*
X128666680Y-93846225D01*
X128666679Y-93846224D01*
X128472803Y-93571750D01*
X128400383Y-93469223D01*
X128400377Y-93469215D01*
X128400371Y-93469207D01*
X128103681Y-93115598D01*
X127778659Y-92787841D01*
X127427549Y-92488198D01*
X127427534Y-92488187D01*
X127052784Y-92218743D01*
X127052771Y-92218735D01*
X126656936Y-91981328D01*
X126656907Y-91981313D01*
X126426346Y-91867905D01*
X126242730Y-91777588D01*
X125813052Y-91608944D01*
X125813046Y-91608942D01*
X125813043Y-91608941D01*
X125370856Y-91476553D01*
X124919196Y-91381330D01*
X124461190Y-91323932D01*
X124461186Y-91323931D01*
X124461181Y-91323931D01*
X124000000Y-91304755D01*
X123538818Y-91323931D01*
X123538812Y-91323931D01*
X123538810Y-91323932D01*
X123233472Y-91362197D01*
X123080803Y-91381330D01*
X122629143Y-91476553D01*
X122186956Y-91608941D01*
X122186955Y-91608941D01*
X121954856Y-91700037D01*
X121757270Y-91777588D01*
X121757268Y-91777589D01*
X121343092Y-91981313D01*
X121343063Y-91981328D01*
X120947228Y-92218735D01*
X120947215Y-92218743D01*
X120572465Y-92488187D01*
X120572435Y-92488211D01*
X120221340Y-92787841D01*
X119896324Y-93115593D01*
X119896315Y-93115602D01*
X119599628Y-93469208D01*
X119599616Y-93469223D01*
X119333320Y-93846224D01*
X119099232Y-94244044D01*
X119099228Y-94244050D01*
X119099228Y-94244052D01*
X119080774Y-94282353D01*
X119009226Y-94430860D01*
X119007841Y-94433734D01*
X119007218Y-94435029D01*
X118983608Y-94475924D01*
X118978697Y-94494249D01*
X118973651Y-94504730D01*
X118973649Y-94504731D01*
X118970467Y-94511341D01*
X118962566Y-94553110D01*
X118960502Y-94562153D01*
X118949500Y-94603212D01*
X118949500Y-94610562D01*
X118948511Y-94621105D01*
X118948610Y-94625393D01*
X118948111Y-94629526D01*
X118945974Y-94640829D01*
X111054026Y-94640829D01*
X111051887Y-94629523D01*
X111051390Y-94625393D01*
X111051710Y-94623476D01*
X111050500Y-94610562D01*
X111050500Y-94603219D01*
X111039496Y-94562153D01*
X111039496Y-94562152D01*
X111038294Y-94557669D01*
X111029532Y-94511341D01*
X111021302Y-94494249D01*
X111018293Y-94483018D01*
X111018293Y-94483017D01*
X111018292Y-94483015D01*
X111016392Y-94475923D01*
X110995092Y-94439030D01*
X110990768Y-94430850D01*
X110900782Y-94244072D01*
X110900772Y-94244053D01*
X110900772Y-94244052D01*
X110770564Y-94022770D01*
X110666685Y-93846232D01*
X110666680Y-93846225D01*
X110666679Y-93846224D01*
X110472803Y-93571750D01*
X110400383Y-93469223D01*
X110400377Y-93469215D01*
X110400371Y-93469207D01*
X110103681Y-93115598D01*
X109778659Y-92787841D01*
X109427549Y-92488198D01*
X109427534Y-92488187D01*
X109052784Y-92218743D01*
X109052771Y-92218735D01*
X108656936Y-91981328D01*
X108656907Y-91981313D01*
X108426346Y-91867905D01*
X108242730Y-91777588D01*
X107813052Y-91608944D01*
X107813046Y-91608942D01*
X107813043Y-91608941D01*
X107370856Y-91476553D01*
X106919196Y-91381330D01*
X106461190Y-91323932D01*
X106461186Y-91323931D01*
X106461181Y-91323931D01*
X106000000Y-91304755D01*
X105538818Y-91323931D01*
X105538812Y-91323931D01*
X105538810Y-91323932D01*
X105233472Y-91362197D01*
X105080803Y-91381330D01*
X104629143Y-91476553D01*
X104186956Y-91608941D01*
X104186955Y-91608941D01*
X103954856Y-91700037D01*
X103757270Y-91777588D01*
X103757268Y-91777589D01*
X103343092Y-91981313D01*
X103343063Y-91981328D01*
X102947228Y-92218735D01*
X102947215Y-92218743D01*
X102572465Y-92488187D01*
X102572435Y-92488211D01*
X102221340Y-92787841D01*
X101896324Y-93115593D01*
X101896315Y-93115602D01*
X101599628Y-93469208D01*
X101599616Y-93469223D01*
X101333320Y-93846224D01*
X101099232Y-94244044D01*
X101099228Y-94244050D01*
X101099228Y-94244052D01*
X101080774Y-94282353D01*
X101009226Y-94430860D01*
X101007841Y-94433734D01*
X101007218Y-94435029D01*
X100983608Y-94475924D01*
X100978697Y-94494249D01*
X100973651Y-94504730D01*
X100973649Y-94504731D01*
X100970467Y-94511341D01*
X100962566Y-94553110D01*
X100960502Y-94562153D01*
X100949500Y-94603212D01*
X100949500Y-94610562D01*
X100948511Y-94621105D01*
X100948610Y-94625393D01*
X100948111Y-94629526D01*
X100945974Y-94640829D01*
X90500500Y-94640829D01*
X90500500Y-89616995D01*
X162224500Y-89616995D01*
X162224500Y-101803004D01*
X162224501Y-101803020D01*
X162255306Y-102037010D01*
X162316394Y-102264993D01*
X162406714Y-102483045D01*
X162406719Y-102483056D01*
X162477677Y-102605957D01*
X162524727Y-102687450D01*
X162524729Y-102687453D01*
X162524730Y-102687454D01*
X162668406Y-102874697D01*
X162668412Y-102874704D01*
X162835295Y-103041587D01*
X162835301Y-103041592D01*
X163022550Y-103185273D01*
X163153918Y-103261118D01*
X163226943Y-103303280D01*
X163226948Y-103303282D01*
X163226951Y-103303284D01*
X163445007Y-103393606D01*
X163672986Y-103454693D01*
X163906989Y-103485500D01*
X163906996Y-103485500D01*
X178093004Y-103485500D01*
X178093011Y-103485500D01*
X178327014Y-103454693D01*
X178554993Y-103393606D01*
X178773049Y-103303284D01*
X178977450Y-103185273D01*
X179164699Y-103041592D01*
X179331592Y-102874699D01*
X179475273Y-102687450D01*
X179593284Y-102483049D01*
X179683606Y-102264993D01*
X179744693Y-102037014D01*
X179775500Y-101803011D01*
X179775500Y-101685000D01*
X179775500Y-101619108D01*
X179775500Y-89669108D01*
X179775500Y-89616989D01*
X179744693Y-89382986D01*
X179683606Y-89155007D01*
X179593284Y-88936951D01*
X179593282Y-88936948D01*
X179593280Y-88936943D01*
X179551118Y-88863918D01*
X179475273Y-88732550D01*
X179331592Y-88545301D01*
X179331587Y-88545295D01*
X179164704Y-88378412D01*
X179164697Y-88378406D01*
X178977454Y-88234730D01*
X178977453Y-88234729D01*
X178977450Y-88234727D01*
X178895957Y-88187677D01*
X178773056Y-88116719D01*
X178773045Y-88116714D01*
X178554993Y-88026394D01*
X178327010Y-87965306D01*
X178093020Y-87934501D01*
X178093017Y-87934500D01*
X178093011Y-87934500D01*
X178040892Y-87934500D01*
X164090892Y-87934500D01*
X164025000Y-87934500D01*
X163906989Y-87934500D01*
X163906983Y-87934500D01*
X163906979Y-87934501D01*
X163672989Y-87965306D01*
X163445006Y-88026394D01*
X163226954Y-88116714D01*
X163226943Y-88116719D01*
X163022545Y-88234730D01*
X162835302Y-88378406D01*
X162835295Y-88378412D01*
X162668412Y-88545295D01*
X162668406Y-88545302D01*
X162524730Y-88732545D01*
X162406719Y-88936943D01*
X162406714Y-88936954D01*
X162316394Y-89155006D01*
X162255306Y-89382989D01*
X162224501Y-89616979D01*
X162224500Y-89616995D01*
X90500500Y-89616995D01*
X90500500Y-83993051D01*
X90500649Y-83986967D01*
X90517004Y-83654052D01*
X90518197Y-83641941D01*
X90566656Y-83315258D01*
X90569030Y-83303324D01*
X90649276Y-82982963D01*
X90652804Y-82971329D01*
X90764076Y-82660343D01*
X90768718Y-82649136D01*
X90909939Y-82350551D01*
X90915663Y-82339842D01*
X91085460Y-82056554D01*
X91092203Y-82046461D01*
X91288962Y-81781162D01*
X91296665Y-81771777D01*
X91518476Y-81527046D01*
X91527046Y-81518476D01*
X91771777Y-81296665D01*
X91781162Y-81288962D01*
X92046461Y-81092203D01*
X92056554Y-81085460D01*
X92339842Y-80915663D01*
X92350551Y-80909939D01*
X92649136Y-80768718D01*
X92660343Y-80764076D01*
X92971329Y-80652804D01*
X92982956Y-80649278D01*
X93303324Y-80569030D01*
X93315255Y-80566656D01*
X93641944Y-80518196D01*
X93654048Y-80517004D01*
X93986967Y-80500648D01*
X93993051Y-80500500D01*
X94055892Y-80500500D01*
X189944108Y-80500500D01*
X190006949Y-80500500D01*
X190013032Y-80500648D01*
G37*
%TD.AperFunction*%
%TD*%
M02*
