%TF.GenerationSoftware,KiCad,Pcbnew,8.0.8+1*%
%TF.CreationDate,2025-01-22T08:35:02-05:00*%
%TF.ProjectId,cellularBoard,63656c6c-756c-4617-9242-6f6172642e6b,rev?*%
%TF.SameCoordinates,Original*%
%TF.FileFunction,Legend,Bot*%
%TF.FilePolarity,Positive*%
%FSLAX46Y46*%
G04 Gerber Fmt 4.6, Leading zero omitted, Abs format (unit mm)*
G04 Created by KiCad (PCBNEW 8.0.8+1) date 2025-01-22 08:35:02*
%MOMM*%
%LPD*%
G01*
G04 APERTURE LIST*
%ADD10C,0.187500*%
%ADD11C,0.200000*%
%ADD12C,0.120000*%
G04 APERTURE END LIST*
D10*
G36*
X143703576Y-83789212D02*
G01*
X143226753Y-83789212D01*
X143226753Y-83918172D01*
X143552267Y-83918172D01*
X143552267Y-84082303D01*
X143257527Y-84082303D01*
X143257527Y-84211263D01*
X143552267Y-84211263D01*
X143552267Y-84422289D01*
X143226753Y-84422289D01*
X143226753Y-84551250D01*
X143703576Y-84551250D01*
X143703576Y-83789212D01*
G37*
G36*
X143115928Y-83976790D02*
G01*
X143021772Y-83976790D01*
X143006751Y-84040904D01*
X142988705Y-84007488D01*
X142966085Y-83985217D01*
X142933028Y-83968924D01*
X142904352Y-83965067D01*
X142867792Y-83971064D01*
X142839139Y-83986316D01*
X142813972Y-84013261D01*
X142804335Y-84038706D01*
X142784975Y-84006489D01*
X142756763Y-83981247D01*
X142721740Y-83967656D01*
X142694609Y-83965067D01*
X142657400Y-83969066D01*
X142621407Y-83984816D01*
X142595848Y-84012514D01*
X142594042Y-84015625D01*
X142580405Y-84053154D01*
X142572884Y-84094485D01*
X142568587Y-84138367D01*
X142566520Y-84180898D01*
X142565859Y-84218825D01*
X142565832Y-84228849D01*
X142565832Y-84551250D01*
X142688930Y-84551250D01*
X142688930Y-84187999D01*
X142690077Y-84150234D01*
X142695339Y-84113805D01*
X142698639Y-84104102D01*
X142729776Y-84082495D01*
X142734542Y-84082303D01*
X142767391Y-84099755D01*
X142769347Y-84103552D01*
X142778086Y-84141722D01*
X142780113Y-84180500D01*
X142780155Y-84187999D01*
X142780155Y-84551250D01*
X142901788Y-84551250D01*
X142901788Y-84187999D01*
X142903000Y-84151143D01*
X142908560Y-84114419D01*
X142912046Y-84104102D01*
X142942732Y-84082495D01*
X142947400Y-84082303D01*
X142980856Y-84098852D01*
X142982754Y-84102453D01*
X142991049Y-84139528D01*
X142992922Y-84176166D01*
X142993012Y-84187999D01*
X142993012Y-84551250D01*
X143115928Y-84551250D01*
X143115928Y-83976790D01*
G37*
G36*
X142449511Y-84551250D02*
G01*
X142314689Y-84551250D01*
X142299851Y-84464971D01*
X142283563Y-84493204D01*
X142256042Y-84524691D01*
X142223016Y-84546799D01*
X142184485Y-84559528D01*
X142147077Y-84562973D01*
X142123510Y-84561731D01*
X142085435Y-84553579D01*
X142051392Y-84537819D01*
X142021381Y-84514450D01*
X141995402Y-84483472D01*
X141979571Y-84457090D01*
X141964115Y-84421525D01*
X141952523Y-84381695D01*
X141945815Y-84345248D01*
X141941790Y-84305839D01*
X141940448Y-84263470D01*
X141940513Y-84260906D01*
X142090657Y-84260906D01*
X142091355Y-84285900D01*
X142095373Y-84322468D01*
X142104164Y-84358571D01*
X142119234Y-84392431D01*
X142128563Y-84406521D01*
X142157088Y-84431979D01*
X142194705Y-84441340D01*
X142211902Y-84439640D01*
X142246869Y-84422450D01*
X142271092Y-84392980D01*
X142279377Y-84377032D01*
X142291734Y-84340467D01*
X142298054Y-84302236D01*
X142299851Y-84264020D01*
X142299597Y-84249223D01*
X142295781Y-84208215D01*
X142286171Y-84168598D01*
X142270908Y-84135243D01*
X142259359Y-84118746D01*
X142229564Y-84094711D01*
X142193239Y-84086700D01*
X142176032Y-84088342D01*
X142141490Y-84104946D01*
X142118135Y-84133411D01*
X142110219Y-84148792D01*
X142098412Y-84184598D01*
X142092375Y-84222575D01*
X142090657Y-84260906D01*
X141940513Y-84260906D01*
X141941309Y-84229350D01*
X141944809Y-84189396D01*
X141951002Y-84152438D01*
X141961986Y-84112045D01*
X141976847Y-84075966D01*
X141995586Y-84044201D01*
X142010014Y-84025654D01*
X142038363Y-83999147D01*
X142070657Y-83980214D01*
X142106895Y-83968853D01*
X142147077Y-83965067D01*
X142176744Y-83967334D01*
X142214672Y-83978127D01*
X142248391Y-83997808D01*
X142277904Y-84026378D01*
X142299851Y-84057940D01*
X142299851Y-83754041D01*
X142449511Y-83754041D01*
X142449511Y-84551250D01*
G37*
G36*
X141771188Y-83976790D02*
G01*
X141635999Y-83976790D01*
X141620978Y-84063435D01*
X141601220Y-84031450D01*
X141574919Y-84005287D01*
X141553750Y-83991079D01*
X141517489Y-83975228D01*
X141480402Y-83967124D01*
X141447322Y-83965067D01*
X141408735Y-83967714D01*
X141371974Y-83975657D01*
X141337037Y-83988895D01*
X141330268Y-83992178D01*
X141330268Y-84136708D01*
X141360715Y-84112534D01*
X141396001Y-84096272D01*
X141436127Y-84087921D01*
X141460511Y-84086700D01*
X141498854Y-84089633D01*
X141535452Y-84099638D01*
X141566207Y-84116741D01*
X141592242Y-84142871D01*
X141609621Y-84176470D01*
X141616399Y-84203020D01*
X141619696Y-84235260D01*
X141620917Y-84271973D01*
X141620978Y-84284536D01*
X141620978Y-84551250D01*
X141771188Y-84551250D01*
X141771188Y-83976790D01*
G37*
G36*
X141193065Y-84645039D02*
G01*
X141176578Y-84645039D01*
X141161191Y-84645039D01*
X141123672Y-84644169D01*
X141100741Y-84642291D01*
X141065827Y-84630541D01*
X141063005Y-84628552D01*
X141039604Y-84599821D01*
X141036627Y-84594114D01*
X141021414Y-84559466D01*
X141009516Y-84528169D01*
X141227869Y-83976790D01*
X141069966Y-83976790D01*
X140938625Y-84346086D01*
X140813145Y-83976790D01*
X140655242Y-83976790D01*
X140893562Y-84608219D01*
X140908358Y-84643001D01*
X140925819Y-84675539D01*
X140931297Y-84684423D01*
X140954664Y-84714337D01*
X140982860Y-84738132D01*
X140986985Y-84740843D01*
X141021490Y-84756227D01*
X141059868Y-84762087D01*
X141068867Y-84762275D01*
X141193065Y-84762275D01*
X141193065Y-84645039D01*
G37*
G36*
X140518222Y-84164369D02*
G01*
X140112840Y-84164369D01*
X140112840Y-84316776D01*
X140518222Y-84316776D01*
X140518222Y-84164369D01*
G37*
G36*
X139931856Y-84551250D02*
G01*
X139780547Y-84551250D01*
X139780547Y-84246434D01*
X139732370Y-84246434D01*
X139713334Y-84248967D01*
X139681079Y-84267867D01*
X139676863Y-84272088D01*
X139654646Y-84301455D01*
X139636932Y-84333812D01*
X139626308Y-84356527D01*
X139533984Y-84551250D01*
X139367838Y-84551250D01*
X139506324Y-84276293D01*
X139511036Y-84267080D01*
X139529221Y-84234894D01*
X139546807Y-84211447D01*
X139552880Y-84205850D01*
X139586191Y-84190381D01*
X139556870Y-84184762D01*
X139520978Y-84171330D01*
X139503461Y-84160658D01*
X139475549Y-84134877D01*
X139461317Y-84114677D01*
X139446606Y-84081021D01*
X139439174Y-84045054D01*
X139437643Y-84017640D01*
X139593518Y-84017640D01*
X139593860Y-84030846D01*
X139600662Y-84068565D01*
X139620080Y-84099522D01*
X139635685Y-84110582D01*
X139670566Y-84121814D01*
X139709289Y-84124801D01*
X139780547Y-84124801D01*
X139780547Y-83910845D01*
X139709289Y-83910845D01*
X139690738Y-83911449D01*
X139653184Y-83917824D01*
X139620080Y-83935574D01*
X139612428Y-83943953D01*
X139597254Y-83978966D01*
X139593518Y-84017640D01*
X139437643Y-84017640D01*
X139437081Y-84007565D01*
X139437843Y-83983904D01*
X139442699Y-83946239D01*
X139453018Y-83909562D01*
X139456118Y-83901739D01*
X139474460Y-83869061D01*
X139501195Y-83841052D01*
X139514015Y-83831788D01*
X139549616Y-83813715D01*
X139586466Y-83802172D01*
X139629163Y-83794274D01*
X139669211Y-83790477D01*
X139713319Y-83789212D01*
X139931856Y-83789212D01*
X139931856Y-84551250D01*
G37*
G36*
X139137212Y-83906448D02*
G01*
X139152599Y-83891061D01*
X139152599Y-83745981D01*
X139137212Y-83730594D01*
X139017777Y-83730594D01*
X139002390Y-83745981D01*
X139002390Y-83891061D01*
X139017777Y-83906448D01*
X139137212Y-83906448D01*
G37*
G36*
X138952014Y-84551250D02*
G01*
X138989957Y-84549330D01*
X139028900Y-84542240D01*
X139066386Y-84527740D01*
X139096385Y-84506417D01*
X139105704Y-84496661D01*
X139126221Y-84464959D01*
X139139364Y-84430139D01*
X139148019Y-84388709D01*
X139151866Y-84347937D01*
X139152599Y-84318059D01*
X139152599Y-84098423D01*
X139274049Y-84098423D01*
X139274049Y-83976790D01*
X139002390Y-83976790D01*
X139002390Y-84308716D01*
X139000314Y-84345746D01*
X138991412Y-84383081D01*
X138981140Y-84401773D01*
X138950407Y-84423499D01*
X138913141Y-84429589D01*
X138910066Y-84429617D01*
X138790081Y-84429617D01*
X138790081Y-84551250D01*
X138952014Y-84551250D01*
G37*
G36*
X138331210Y-84057940D02*
G01*
X138345684Y-84036173D01*
X138374114Y-84005064D01*
X138406487Y-83982843D01*
X138442806Y-83969511D01*
X138483068Y-83965067D01*
X138506644Y-83966306D01*
X138544776Y-83974439D01*
X138578928Y-83990163D01*
X138609100Y-84013478D01*
X138635293Y-84044385D01*
X138651230Y-84070674D01*
X138666789Y-84106188D01*
X138678458Y-84146031D01*
X138685211Y-84182538D01*
X138689263Y-84222051D01*
X138690614Y-84264569D01*
X138689758Y-84298444D01*
X138686281Y-84338171D01*
X138680130Y-84374990D01*
X138669218Y-84415337D01*
X138654456Y-84451498D01*
X138635842Y-84483472D01*
X138621448Y-84502105D01*
X138593104Y-84528735D01*
X138560745Y-84547756D01*
X138524372Y-84559169D01*
X138483984Y-84562973D01*
X138452530Y-84560581D01*
X138413213Y-84549192D01*
X138379400Y-84528423D01*
X138351093Y-84498276D01*
X138331210Y-84464971D01*
X138316372Y-84551250D01*
X138181550Y-84551250D01*
X138181550Y-84264020D01*
X138331210Y-84264020D01*
X138331463Y-84278818D01*
X138335255Y-84319850D01*
X138344804Y-84359528D01*
X138359970Y-84392980D01*
X138369418Y-84406912D01*
X138398294Y-84432084D01*
X138436357Y-84441340D01*
X138453361Y-84439621D01*
X138487977Y-84422235D01*
X138512011Y-84392431D01*
X138520191Y-84376323D01*
X138532391Y-84339172D01*
X138538630Y-84300107D01*
X138540404Y-84260906D01*
X138540164Y-84246027D01*
X138537179Y-84209311D01*
X138528650Y-84169469D01*
X138513110Y-84133411D01*
X138504027Y-84119954D01*
X138475765Y-84095640D01*
X138437822Y-84086700D01*
X138417451Y-84089022D01*
X138384642Y-84105662D01*
X138360153Y-84135243D01*
X138351815Y-84151138D01*
X138339379Y-84187624D01*
X138333019Y-84225815D01*
X138331210Y-84264020D01*
X138181550Y-84264020D01*
X138181550Y-83754041D01*
X138331210Y-83754041D01*
X138331210Y-84057940D01*
G37*
G36*
X137699598Y-84057940D02*
G01*
X137714072Y-84036173D01*
X137742502Y-84005064D01*
X137774875Y-83982843D01*
X137811194Y-83969511D01*
X137851456Y-83965067D01*
X137875032Y-83966306D01*
X137913164Y-83974439D01*
X137947316Y-83990163D01*
X137977488Y-84013478D01*
X138003681Y-84044385D01*
X138019618Y-84070674D01*
X138035177Y-84106188D01*
X138046846Y-84146031D01*
X138053599Y-84182538D01*
X138057651Y-84222051D01*
X138059002Y-84264569D01*
X138058146Y-84298444D01*
X138054669Y-84338171D01*
X138048518Y-84374990D01*
X138037606Y-84415337D01*
X138022844Y-84451498D01*
X138004230Y-84483472D01*
X137989836Y-84502105D01*
X137961492Y-84528735D01*
X137929133Y-84547756D01*
X137892760Y-84559169D01*
X137852372Y-84562973D01*
X137820918Y-84560581D01*
X137781601Y-84549192D01*
X137747788Y-84528423D01*
X137719481Y-84498276D01*
X137699598Y-84464971D01*
X137684760Y-84551250D01*
X137549938Y-84551250D01*
X137549938Y-84264020D01*
X137699598Y-84264020D01*
X137699851Y-84278818D01*
X137703643Y-84319850D01*
X137713192Y-84359528D01*
X137728358Y-84392980D01*
X137737806Y-84406912D01*
X137766682Y-84432084D01*
X137804745Y-84441340D01*
X137821749Y-84439621D01*
X137856365Y-84422235D01*
X137880399Y-84392431D01*
X137888579Y-84376323D01*
X137900779Y-84339172D01*
X137907018Y-84300107D01*
X137908792Y-84260906D01*
X137908552Y-84246027D01*
X137905567Y-84209311D01*
X137897038Y-84169469D01*
X137881498Y-84133411D01*
X137872415Y-84119954D01*
X137844153Y-84095640D01*
X137806210Y-84086700D01*
X137785839Y-84089022D01*
X137753030Y-84105662D01*
X137728541Y-84135243D01*
X137720203Y-84151138D01*
X137707767Y-84187624D01*
X137701407Y-84225815D01*
X137699598Y-84264020D01*
X137549938Y-84264020D01*
X137549938Y-83754041D01*
X137699598Y-83754041D01*
X137699598Y-84057940D01*
G37*
G36*
X137069635Y-84551250D02*
G01*
X137107515Y-84549311D01*
X137146401Y-84542150D01*
X137183845Y-84527504D01*
X137213824Y-84505965D01*
X137223141Y-84496112D01*
X137243658Y-84464089D01*
X137256801Y-84428913D01*
X137265457Y-84387057D01*
X137269303Y-84345865D01*
X137270036Y-84315677D01*
X137270036Y-83875674D01*
X137422260Y-83875674D01*
X137422260Y-83754041D01*
X137119827Y-83754041D01*
X137119827Y-84307434D01*
X137117752Y-84344868D01*
X137108849Y-84382568D01*
X137098578Y-84401407D01*
X137067935Y-84423418D01*
X137030589Y-84429589D01*
X137027503Y-84429617D01*
X136907519Y-84429617D01*
X136907519Y-84551250D01*
X137069635Y-84551250D01*
G37*
G36*
X136526192Y-83965214D02*
G01*
X136565469Y-83968052D01*
X136601696Y-83974501D01*
X136639363Y-83986293D01*
X136673046Y-84002802D01*
X136695643Y-84017953D01*
X136725411Y-84044689D01*
X136750222Y-84076235D01*
X136768117Y-84108315D01*
X136771955Y-84116878D01*
X136784829Y-84152948D01*
X136793742Y-84191926D01*
X136798291Y-84228417D01*
X136799808Y-84267134D01*
X136798603Y-84302024D01*
X136793707Y-84342659D01*
X136785046Y-84379984D01*
X136769683Y-84420406D01*
X136748897Y-84456062D01*
X136722688Y-84486953D01*
X136696853Y-84508853D01*
X136661270Y-84530234D01*
X136620689Y-84546269D01*
X136583054Y-84555549D01*
X136541949Y-84561117D01*
X136497374Y-84562973D01*
X136483567Y-84562803D01*
X136442431Y-84560248D01*
X136401719Y-84554628D01*
X136361433Y-84545943D01*
X136321571Y-84534192D01*
X136282135Y-84519376D01*
X136282135Y-84384187D01*
X136295248Y-84391108D01*
X136334502Y-84409192D01*
X136373627Y-84423257D01*
X136412624Y-84433303D01*
X136451491Y-84439331D01*
X136490230Y-84441340D01*
X136518252Y-84440245D01*
X136558831Y-84433555D01*
X136597420Y-84417498D01*
X136624983Y-84392682D01*
X136641521Y-84359109D01*
X136647034Y-84316776D01*
X136257955Y-84316776D01*
X136257955Y-84255410D01*
X136257986Y-84250016D01*
X136259924Y-84213427D01*
X136262011Y-84199540D01*
X136409263Y-84199540D01*
X136645568Y-84199540D01*
X136643172Y-84183204D01*
X136631123Y-84146423D01*
X136608749Y-84116009D01*
X136596158Y-84106048D01*
X136560220Y-84090821D01*
X136522103Y-84086700D01*
X136508897Y-84087146D01*
X136471432Y-84094765D01*
X136438572Y-84115276D01*
X136428612Y-84126945D01*
X136413385Y-84161587D01*
X136409263Y-84199540D01*
X136262011Y-84199540D01*
X136265832Y-84174123D01*
X136275678Y-84137498D01*
X136289462Y-84103552D01*
X136299943Y-84083871D01*
X136322010Y-84051961D01*
X136348192Y-84024572D01*
X136378489Y-84001703D01*
X136400737Y-83989252D01*
X136436910Y-83975406D01*
X136476445Y-83967356D01*
X136514410Y-83965067D01*
X136526192Y-83965214D01*
G37*
G36*
X147246685Y-85811250D02*
G01*
X147095376Y-85811250D01*
X147049214Y-85623671D01*
X146846798Y-85623671D01*
X146799537Y-85811250D01*
X146648229Y-85811250D01*
X146732073Y-85502038D01*
X146875924Y-85502038D01*
X147018989Y-85502038D01*
X146947731Y-85189713D01*
X146875924Y-85502038D01*
X146732073Y-85502038D01*
X146854858Y-85049212D01*
X147040055Y-85049212D01*
X147246685Y-85811250D01*
G37*
G36*
X146316178Y-85225214D02*
G01*
X146355455Y-85228052D01*
X146391682Y-85234501D01*
X146429349Y-85246293D01*
X146463032Y-85262802D01*
X146485630Y-85277953D01*
X146515397Y-85304689D01*
X146540208Y-85336235D01*
X146558103Y-85368315D01*
X146561941Y-85376878D01*
X146574815Y-85412948D01*
X146583728Y-85451926D01*
X146588277Y-85488417D01*
X146589794Y-85527134D01*
X146588589Y-85562024D01*
X146583693Y-85602659D01*
X146575032Y-85639984D01*
X146559669Y-85680406D01*
X146538883Y-85716062D01*
X146512674Y-85746953D01*
X146486839Y-85768853D01*
X146451256Y-85790234D01*
X146410675Y-85806269D01*
X146373040Y-85815549D01*
X146331935Y-85821117D01*
X146287360Y-85822973D01*
X146273553Y-85822803D01*
X146232417Y-85820248D01*
X146191705Y-85814628D01*
X146151419Y-85805943D01*
X146111557Y-85794192D01*
X146072121Y-85779376D01*
X146072121Y-85644187D01*
X146085234Y-85651108D01*
X146124488Y-85669192D01*
X146163613Y-85683257D01*
X146202610Y-85693303D01*
X146241477Y-85699331D01*
X146280216Y-85701340D01*
X146308238Y-85700245D01*
X146348818Y-85693555D01*
X146387406Y-85677498D01*
X146414969Y-85652682D01*
X146431507Y-85619109D01*
X146437020Y-85576776D01*
X146047941Y-85576776D01*
X146047941Y-85515410D01*
X146047972Y-85510016D01*
X146049910Y-85473427D01*
X146051997Y-85459540D01*
X146199249Y-85459540D01*
X146435554Y-85459540D01*
X146433158Y-85443204D01*
X146421109Y-85406423D01*
X146398735Y-85376009D01*
X146386144Y-85366048D01*
X146350206Y-85350821D01*
X146312089Y-85346700D01*
X146298883Y-85347146D01*
X146261419Y-85354765D01*
X146228558Y-85375276D01*
X146218598Y-85386945D01*
X146203371Y-85421587D01*
X146199249Y-85459540D01*
X146051997Y-85459540D01*
X146055818Y-85434123D01*
X146065664Y-85397498D01*
X146079448Y-85363552D01*
X146089929Y-85343871D01*
X146111996Y-85311961D01*
X146138178Y-85284572D01*
X146168475Y-85261703D01*
X146190723Y-85249252D01*
X146226896Y-85235406D01*
X146266431Y-85227356D01*
X146304396Y-85225067D01*
X146316178Y-85225214D01*
G37*
G36*
X145876666Y-85236790D02*
G01*
X145741477Y-85236790D01*
X145726456Y-85323435D01*
X145706698Y-85291450D01*
X145680397Y-85265287D01*
X145659228Y-85251079D01*
X145622967Y-85235228D01*
X145585880Y-85227124D01*
X145552800Y-85225067D01*
X145514213Y-85227714D01*
X145477452Y-85235657D01*
X145442515Y-85248895D01*
X145435746Y-85252178D01*
X145435746Y-85396708D01*
X145466193Y-85372534D01*
X145501479Y-85356272D01*
X145541605Y-85347921D01*
X145565989Y-85346700D01*
X145604332Y-85349633D01*
X145640930Y-85359638D01*
X145671685Y-85376741D01*
X145697720Y-85402871D01*
X145715099Y-85436470D01*
X145721877Y-85463020D01*
X145725174Y-85495260D01*
X145726395Y-85531973D01*
X145726456Y-85544536D01*
X145726456Y-85811250D01*
X145876666Y-85811250D01*
X145876666Y-85236790D01*
G37*
G36*
X145080526Y-85226355D02*
G01*
X145118342Y-85232079D01*
X145157545Y-85243993D01*
X145193213Y-85261703D01*
X145211318Y-85273894D01*
X145240527Y-85299580D01*
X145265389Y-85330077D01*
X145285903Y-85365384D01*
X145289852Y-85373863D01*
X145303098Y-85409738D01*
X145312269Y-85448750D01*
X145316949Y-85485459D01*
X145318510Y-85524569D01*
X145318478Y-85530258D01*
X145316495Y-85568739D01*
X145310450Y-85609841D01*
X145300375Y-85647874D01*
X145286270Y-85682839D01*
X145275471Y-85702995D01*
X145252675Y-85735557D01*
X145225561Y-85763338D01*
X145194129Y-85786337D01*
X145166959Y-85800612D01*
X145128962Y-85813814D01*
X145092291Y-85820683D01*
X145052895Y-85822973D01*
X145022919Y-85821685D01*
X144985436Y-85815961D01*
X144946661Y-85804047D01*
X144911479Y-85786337D01*
X144893532Y-85774132D01*
X144864541Y-85748354D01*
X144839809Y-85717679D01*
X144819338Y-85682106D01*
X144815390Y-85673557D01*
X144802143Y-85637373D01*
X144792973Y-85598006D01*
X144788292Y-85560949D01*
X144786833Y-85524020D01*
X144936941Y-85524020D01*
X144937428Y-85543875D01*
X144942081Y-85584719D01*
X144951660Y-85620260D01*
X144968082Y-85653530D01*
X144982696Y-85672159D01*
X145015509Y-85694617D01*
X145052346Y-85701340D01*
X145074615Y-85699044D01*
X145110392Y-85682593D01*
X145136976Y-85653346D01*
X145146000Y-85637486D01*
X145159460Y-85600936D01*
X145166342Y-85562534D01*
X145168300Y-85524020D01*
X145167811Y-85504168D01*
X145163131Y-85463351D01*
X145153495Y-85427866D01*
X145136976Y-85394693D01*
X145119940Y-85373696D01*
X145089234Y-85353449D01*
X145052346Y-85346700D01*
X145030094Y-85348979D01*
X144994443Y-85365304D01*
X144968082Y-85394327D01*
X144959111Y-85410051D01*
X144945730Y-85446545D01*
X144938888Y-85485140D01*
X144936941Y-85524020D01*
X144786833Y-85524020D01*
X144786732Y-85521455D01*
X144786763Y-85515733D01*
X144788724Y-85477079D01*
X144794700Y-85435909D01*
X144804661Y-85397945D01*
X144818606Y-85363186D01*
X144829184Y-85343158D01*
X144851629Y-85310893D01*
X144878450Y-85283497D01*
X144909647Y-85260970D01*
X144936602Y-85246981D01*
X144974402Y-85234043D01*
X145010970Y-85227311D01*
X145050331Y-85225067D01*
X145080526Y-85226355D01*
G37*
G36*
X144648979Y-85236790D02*
G01*
X144514523Y-85236790D01*
X144499685Y-85324535D01*
X144482781Y-85289228D01*
X144458560Y-85261298D01*
X144444914Y-85250895D01*
X144410847Y-85234172D01*
X144374409Y-85226303D01*
X144350942Y-85225067D01*
X144313401Y-85228490D01*
X144276887Y-85240525D01*
X144246431Y-85261224D01*
X144229492Y-85279838D01*
X144209391Y-85314558D01*
X144197046Y-85352159D01*
X144190508Y-85390263D01*
X144187950Y-85433223D01*
X144187909Y-85439756D01*
X144187909Y-85811250D01*
X144337203Y-85811250D01*
X144337203Y-85462654D01*
X144339238Y-85425052D01*
X144347713Y-85388276D01*
X144354422Y-85374543D01*
X144383087Y-85350615D01*
X144407362Y-85346700D01*
X144444008Y-85354790D01*
X144472202Y-85379061D01*
X144475322Y-85383519D01*
X144491096Y-85417819D01*
X144498520Y-85457262D01*
X144499685Y-85483720D01*
X144499685Y-85811250D01*
X144648979Y-85811250D01*
X144648979Y-85236790D01*
G37*
G36*
X143821191Y-85226051D02*
G01*
X143857790Y-85229406D01*
X143894085Y-85235142D01*
X143926919Y-85242673D01*
X143963242Y-85253809D01*
X143999781Y-85267931D01*
X143999781Y-85396892D01*
X143971829Y-85383187D01*
X143937585Y-85368956D01*
X143900130Y-85356591D01*
X143871667Y-85349685D01*
X143832679Y-85343992D01*
X143795900Y-85342303D01*
X143780721Y-85342723D01*
X143743510Y-85347616D01*
X143734414Y-85349943D01*
X143702294Y-85367766D01*
X143695241Y-85376112D01*
X143686174Y-85412279D01*
X143686174Y-85436092D01*
X143790221Y-85436092D01*
X143816050Y-85436585D01*
X143853762Y-85439169D01*
X143890238Y-85443969D01*
X143904881Y-85446696D01*
X143940689Y-85456798D01*
X143975601Y-85472546D01*
X143982504Y-85476575D01*
X144012863Y-85501165D01*
X144034952Y-85530798D01*
X144045490Y-85553674D01*
X144054175Y-85589631D01*
X144056751Y-85628067D01*
X144056697Y-85633921D01*
X144053305Y-85672489D01*
X144042967Y-85711415D01*
X144025736Y-85744846D01*
X144001613Y-85772781D01*
X143998134Y-85775869D01*
X143967903Y-85797044D01*
X143933413Y-85811945D01*
X143894665Y-85820571D01*
X143857266Y-85822973D01*
X143831116Y-85821782D01*
X143793782Y-85815531D01*
X143758714Y-85803922D01*
X143739566Y-85794499D01*
X143707866Y-85771651D01*
X143683059Y-85744388D01*
X143676099Y-85779193D01*
X143661994Y-85811250D01*
X143513250Y-85811250D01*
X143517496Y-85804846D01*
X143530835Y-85770400D01*
X143533055Y-85759705D01*
X143537979Y-85722223D01*
X143538069Y-85720743D01*
X143539445Y-85683572D01*
X143539436Y-85679241D01*
X143538895Y-85642356D01*
X143538629Y-85628302D01*
X143538346Y-85590149D01*
X143538225Y-85564847D01*
X143538007Y-85551680D01*
X143686174Y-85551680D01*
X143686184Y-85554107D01*
X143689276Y-85592787D01*
X143697165Y-85628800D01*
X143710849Y-85661835D01*
X143734534Y-85692364D01*
X143737913Y-85695403D01*
X143770817Y-85712657D01*
X143808173Y-85717460D01*
X143841337Y-85713183D01*
X143873569Y-85695112D01*
X143891017Y-85667955D01*
X143896833Y-85631548D01*
X143893587Y-85602688D01*
X143873752Y-85569815D01*
X143853094Y-85556932D01*
X143816050Y-85546368D01*
X143783431Y-85542950D01*
X143746074Y-85541605D01*
X143686174Y-85541605D01*
X143686174Y-85551680D01*
X143538007Y-85551680D01*
X143537613Y-85527867D01*
X143537327Y-85514777D01*
X143536880Y-85476759D01*
X143537453Y-85450390D01*
X143540750Y-85411381D01*
X143547963Y-85372176D01*
X143560327Y-85334426D01*
X143580066Y-85299561D01*
X143607294Y-85271536D01*
X143638546Y-85251994D01*
X143668405Y-85240214D01*
X143707908Y-85230983D01*
X143748277Y-85226355D01*
X143787656Y-85225067D01*
X143821191Y-85226051D01*
G37*
G36*
X143227852Y-85822973D02*
G01*
X143265427Y-85819550D01*
X143302061Y-85807515D01*
X143332725Y-85786815D01*
X143349851Y-85768202D01*
X143370129Y-85733363D01*
X143382583Y-85695802D01*
X143389178Y-85657846D01*
X143391759Y-85615139D01*
X143391800Y-85608650D01*
X143391800Y-85236790D01*
X143241591Y-85236790D01*
X143241591Y-85586302D01*
X143239105Y-85625397D01*
X143228057Y-85664941D01*
X143201817Y-85694150D01*
X143170882Y-85701340D01*
X143134751Y-85693491D01*
X143105528Y-85667817D01*
X143104021Y-85665620D01*
X143088484Y-85631762D01*
X143081172Y-85592190D01*
X143080024Y-85565419D01*
X143080024Y-85236790D01*
X142929815Y-85236790D01*
X142929815Y-85811250D01*
X143065186Y-85811250D01*
X143080024Y-85724971D01*
X143095714Y-85758276D01*
X143121035Y-85788423D01*
X143153912Y-85809192D01*
X143194345Y-85820581D01*
X143227852Y-85822973D01*
G37*
G36*
X142418187Y-85811250D02*
G01*
X142458212Y-85810185D01*
X142497767Y-85806442D01*
X142534918Y-85799121D01*
X142550811Y-85794214D01*
X142585180Y-85776172D01*
X142611847Y-85747681D01*
X142618771Y-85735229D01*
X142630939Y-85699500D01*
X142636788Y-85662996D01*
X142638719Y-85624911D01*
X142638738Y-85620374D01*
X142638738Y-85358423D01*
X142785284Y-85358423D01*
X142785284Y-85236790D01*
X142638738Y-85236790D01*
X142638738Y-85080536D01*
X142488529Y-85014041D01*
X142488529Y-85236790D01*
X142292158Y-85236790D01*
X142292158Y-85358423D01*
X142488529Y-85358423D01*
X142488529Y-85620740D01*
X142481748Y-85656925D01*
X142469295Y-85673497D01*
X142434031Y-85687712D01*
X142407562Y-85689617D01*
X142292158Y-85689617D01*
X142292158Y-85811250D01*
X142418187Y-85811250D01*
G37*
G36*
X141979466Y-85166448D02*
G01*
X141994853Y-85151061D01*
X141994853Y-85005981D01*
X141979466Y-84990594D01*
X141860031Y-84990594D01*
X141844644Y-85005981D01*
X141844644Y-85151061D01*
X141860031Y-85166448D01*
X141979466Y-85166448D01*
G37*
G36*
X141794268Y-85811250D02*
G01*
X141832211Y-85809330D01*
X141871154Y-85802240D01*
X141908640Y-85787740D01*
X141938639Y-85766417D01*
X141947958Y-85756661D01*
X141968475Y-85724959D01*
X141981618Y-85690139D01*
X141990273Y-85648709D01*
X141994120Y-85607937D01*
X141994853Y-85578059D01*
X141994853Y-85358423D01*
X142116303Y-85358423D01*
X142116303Y-85236790D01*
X141844644Y-85236790D01*
X141844644Y-85568716D01*
X141842568Y-85605746D01*
X141833666Y-85643081D01*
X141823394Y-85661773D01*
X141792661Y-85683499D01*
X141755395Y-85689589D01*
X141752320Y-85689617D01*
X141632335Y-85689617D01*
X141632335Y-85811250D01*
X141794268Y-85811250D01*
G37*
G36*
X141215596Y-85822973D02*
G01*
X141256706Y-85821055D01*
X141294855Y-85815299D01*
X141336725Y-85803327D01*
X141374333Y-85785829D01*
X141407677Y-85762806D01*
X141427538Y-85744388D01*
X141453248Y-85712680D01*
X141473640Y-85676631D01*
X141488711Y-85636241D01*
X141497208Y-85599268D01*
X141502010Y-85559280D01*
X141503192Y-85525119D01*
X141501358Y-85482495D01*
X141495858Y-85442895D01*
X141486690Y-85406317D01*
X141470847Y-85366415D01*
X141449724Y-85330866D01*
X141428087Y-85304568D01*
X141397895Y-85277550D01*
X141363644Y-85256122D01*
X141325337Y-85240284D01*
X141282973Y-85230035D01*
X141244570Y-85225765D01*
X141220176Y-85225067D01*
X141180624Y-85227188D01*
X141141792Y-85233552D01*
X141103678Y-85244158D01*
X141066283Y-85259007D01*
X141045237Y-85269397D01*
X141045237Y-85407516D01*
X141075215Y-85383819D01*
X141111451Y-85363864D01*
X141149793Y-85351510D01*
X141190242Y-85346759D01*
X141195446Y-85346700D01*
X141235102Y-85350366D01*
X141272604Y-85363038D01*
X141303201Y-85384762D01*
X141311034Y-85393045D01*
X141332093Y-85425724D01*
X141344377Y-85461682D01*
X141349993Y-85498851D01*
X141350968Y-85524569D01*
X141348483Y-85564549D01*
X141339749Y-85603723D01*
X141322669Y-85640045D01*
X141311217Y-85655362D01*
X141283046Y-85679608D01*
X141248220Y-85694874D01*
X141211187Y-85700936D01*
X141197644Y-85701340D01*
X141160361Y-85698579D01*
X141120456Y-85688661D01*
X141083436Y-85671531D01*
X141049301Y-85647188D01*
X141045237Y-85643638D01*
X141045237Y-85779742D01*
X141079498Y-85796587D01*
X141115441Y-85809295D01*
X141153068Y-85817865D01*
X141192378Y-85822298D01*
X141215596Y-85822973D01*
G37*
G36*
X140663131Y-85226051D02*
G01*
X140699730Y-85229406D01*
X140736025Y-85235142D01*
X140768859Y-85242673D01*
X140805182Y-85253809D01*
X140841721Y-85267931D01*
X140841721Y-85396892D01*
X140813769Y-85383187D01*
X140779525Y-85368956D01*
X140742070Y-85356591D01*
X140713607Y-85349685D01*
X140674619Y-85343992D01*
X140637840Y-85342303D01*
X140622661Y-85342723D01*
X140585450Y-85347616D01*
X140576354Y-85349943D01*
X140544234Y-85367766D01*
X140537181Y-85376112D01*
X140528114Y-85412279D01*
X140528114Y-85436092D01*
X140632161Y-85436092D01*
X140657990Y-85436585D01*
X140695702Y-85439169D01*
X140732178Y-85443969D01*
X140746821Y-85446696D01*
X140782629Y-85456798D01*
X140817541Y-85472546D01*
X140824444Y-85476575D01*
X140854803Y-85501165D01*
X140876892Y-85530798D01*
X140887430Y-85553674D01*
X140896115Y-85589631D01*
X140898691Y-85628067D01*
X140898637Y-85633921D01*
X140895245Y-85672489D01*
X140884907Y-85711415D01*
X140867676Y-85744846D01*
X140843553Y-85772781D01*
X140840074Y-85775869D01*
X140809843Y-85797044D01*
X140775353Y-85811945D01*
X140736605Y-85820571D01*
X140699206Y-85822973D01*
X140673056Y-85821782D01*
X140635722Y-85815531D01*
X140600654Y-85803922D01*
X140581506Y-85794499D01*
X140549806Y-85771651D01*
X140524999Y-85744388D01*
X140518039Y-85779193D01*
X140503934Y-85811250D01*
X140355190Y-85811250D01*
X140359436Y-85804846D01*
X140372775Y-85770400D01*
X140374995Y-85759705D01*
X140379919Y-85722223D01*
X140380009Y-85720743D01*
X140381385Y-85683572D01*
X140381376Y-85679241D01*
X140380835Y-85642356D01*
X140380569Y-85628302D01*
X140380286Y-85590149D01*
X140380165Y-85564847D01*
X140379947Y-85551680D01*
X140528114Y-85551680D01*
X140528124Y-85554107D01*
X140531215Y-85592787D01*
X140539104Y-85628800D01*
X140552789Y-85661835D01*
X140576474Y-85692364D01*
X140579852Y-85695403D01*
X140612757Y-85712657D01*
X140650113Y-85717460D01*
X140683277Y-85713183D01*
X140715509Y-85695112D01*
X140732957Y-85667955D01*
X140738773Y-85631548D01*
X140735527Y-85602688D01*
X140715692Y-85569815D01*
X140695034Y-85556932D01*
X140657990Y-85546368D01*
X140625371Y-85542950D01*
X140588014Y-85541605D01*
X140528114Y-85541605D01*
X140528114Y-85551680D01*
X140379947Y-85551680D01*
X140379553Y-85527867D01*
X140379267Y-85514777D01*
X140378820Y-85476759D01*
X140379393Y-85450390D01*
X140382690Y-85411381D01*
X140389903Y-85372176D01*
X140402267Y-85334426D01*
X140422006Y-85299561D01*
X140449234Y-85271536D01*
X140480486Y-85251994D01*
X140510345Y-85240214D01*
X140549848Y-85230983D01*
X140590217Y-85226355D01*
X140629596Y-85225067D01*
X140663131Y-85226051D01*
G37*
G36*
X139911889Y-85811250D02*
G01*
X139949769Y-85809311D01*
X139988655Y-85802150D01*
X140026099Y-85787504D01*
X140056078Y-85765965D01*
X140065395Y-85756112D01*
X140085912Y-85724089D01*
X140099055Y-85688913D01*
X140107711Y-85647057D01*
X140111557Y-85605865D01*
X140112290Y-85575677D01*
X140112290Y-85135674D01*
X140264514Y-85135674D01*
X140264514Y-85014041D01*
X139962081Y-85014041D01*
X139962081Y-85567434D01*
X139960006Y-85604868D01*
X139951103Y-85642568D01*
X139940832Y-85661407D01*
X139910189Y-85683418D01*
X139872843Y-85689589D01*
X139869757Y-85689617D01*
X139749773Y-85689617D01*
X139749773Y-85811250D01*
X139911889Y-85811250D01*
G37*
G36*
X138736775Y-85822973D02*
G01*
X138777567Y-85821260D01*
X138814764Y-85816122D01*
X138854653Y-85805433D01*
X138889365Y-85789812D01*
X138923317Y-85765353D01*
X138935711Y-85752814D01*
X138960051Y-85717703D01*
X138976155Y-85681343D01*
X138987867Y-85639200D01*
X138994272Y-85599663D01*
X138997627Y-85556110D01*
X138998176Y-85528050D01*
X138998176Y-85049212D01*
X138847051Y-85049212D01*
X138847051Y-85561755D01*
X138842930Y-85600954D01*
X138829162Y-85635453D01*
X138817742Y-85650599D01*
X138787909Y-85672262D01*
X138752421Y-85681516D01*
X138736775Y-85682289D01*
X138698404Y-85677059D01*
X138665465Y-85659728D01*
X138655809Y-85650599D01*
X138635773Y-85617906D01*
X138627215Y-85578946D01*
X138626500Y-85561755D01*
X138626500Y-85049212D01*
X138475375Y-85049212D01*
X138475375Y-85528050D01*
X138476342Y-85565622D01*
X138480272Y-85608780D01*
X138487226Y-85647707D01*
X138499560Y-85688835D01*
X138516249Y-85723871D01*
X138537290Y-85752814D01*
X138568061Y-85780152D01*
X138600171Y-85798239D01*
X138637574Y-85811394D01*
X138680271Y-85819616D01*
X138719896Y-85822699D01*
X138736775Y-85822973D01*
G37*
G36*
X138332859Y-85236790D02*
G01*
X138198403Y-85236790D01*
X138183565Y-85324535D01*
X138166661Y-85289228D01*
X138142440Y-85261298D01*
X138128794Y-85250895D01*
X138094727Y-85234172D01*
X138058289Y-85226303D01*
X138034822Y-85225067D01*
X137997281Y-85228490D01*
X137960767Y-85240525D01*
X137930311Y-85261224D01*
X137913372Y-85279838D01*
X137893271Y-85314558D01*
X137880926Y-85352159D01*
X137874388Y-85390263D01*
X137871830Y-85433223D01*
X137871789Y-85439756D01*
X137871789Y-85811250D01*
X138021083Y-85811250D01*
X138021083Y-85462654D01*
X138023118Y-85425052D01*
X138031593Y-85388276D01*
X138038302Y-85374543D01*
X138066967Y-85350615D01*
X138091242Y-85346700D01*
X138127888Y-85354790D01*
X138156082Y-85379061D01*
X138159202Y-85383519D01*
X138174976Y-85417819D01*
X138182400Y-85457262D01*
X138183565Y-85483720D01*
X138183565Y-85811250D01*
X138332859Y-85811250D01*
X138332859Y-85236790D01*
G37*
G36*
X137558182Y-85166448D02*
G01*
X137573569Y-85151061D01*
X137573569Y-85005981D01*
X137558182Y-84990594D01*
X137438747Y-84990594D01*
X137423360Y-85005981D01*
X137423360Y-85151061D01*
X137438747Y-85166448D01*
X137558182Y-85166448D01*
G37*
G36*
X137372984Y-85811250D02*
G01*
X137410927Y-85809330D01*
X137449870Y-85802240D01*
X137487356Y-85787740D01*
X137517355Y-85766417D01*
X137526674Y-85756661D01*
X137547191Y-85724959D01*
X137560334Y-85690139D01*
X137568989Y-85648709D01*
X137572836Y-85607937D01*
X137573569Y-85578059D01*
X137573569Y-85358423D01*
X137695019Y-85358423D01*
X137695019Y-85236790D01*
X137423360Y-85236790D01*
X137423360Y-85568716D01*
X137421284Y-85605746D01*
X137412382Y-85643081D01*
X137402110Y-85661773D01*
X137371377Y-85683499D01*
X137334111Y-85689589D01*
X137331036Y-85689617D01*
X137211051Y-85689617D01*
X137211051Y-85811250D01*
X137372984Y-85811250D01*
G37*
G36*
X137116713Y-85236790D02*
G01*
X136964488Y-85236790D01*
X136841939Y-85685403D01*
X136718841Y-85236790D01*
X136566617Y-85236790D01*
X136749066Y-85811250D01*
X136934263Y-85811250D01*
X137116713Y-85236790D01*
G37*
G36*
X136210386Y-85225214D02*
G01*
X136249663Y-85228052D01*
X136285890Y-85234501D01*
X136323557Y-85246293D01*
X136357240Y-85262802D01*
X136379837Y-85277953D01*
X136409605Y-85304689D01*
X136434416Y-85336235D01*
X136452311Y-85368315D01*
X136456149Y-85376878D01*
X136469023Y-85412948D01*
X136477936Y-85451926D01*
X136482485Y-85488417D01*
X136484002Y-85527134D01*
X136482797Y-85562024D01*
X136477901Y-85602659D01*
X136469240Y-85639984D01*
X136453877Y-85680406D01*
X136433091Y-85716062D01*
X136406882Y-85746953D01*
X136381047Y-85768853D01*
X136345464Y-85790234D01*
X136304883Y-85806269D01*
X136267248Y-85815549D01*
X136226143Y-85821117D01*
X136181568Y-85822973D01*
X136167761Y-85822803D01*
X136126625Y-85820248D01*
X136085913Y-85814628D01*
X136045627Y-85805943D01*
X136005765Y-85794192D01*
X135966329Y-85779376D01*
X135966329Y-85644187D01*
X135979442Y-85651108D01*
X136018696Y-85669192D01*
X136057821Y-85683257D01*
X136096817Y-85693303D01*
X136135685Y-85699331D01*
X136174424Y-85701340D01*
X136202446Y-85700245D01*
X136243025Y-85693555D01*
X136281614Y-85677498D01*
X136309177Y-85652682D01*
X136325715Y-85619109D01*
X136331228Y-85576776D01*
X135942149Y-85576776D01*
X135942149Y-85515410D01*
X135942180Y-85510016D01*
X135944118Y-85473427D01*
X135946205Y-85459540D01*
X136093457Y-85459540D01*
X136329762Y-85459540D01*
X136327366Y-85443204D01*
X136315317Y-85406423D01*
X136292943Y-85376009D01*
X136280352Y-85366048D01*
X136244414Y-85350821D01*
X136206297Y-85346700D01*
X136193091Y-85347146D01*
X136155626Y-85354765D01*
X136122766Y-85375276D01*
X136112806Y-85386945D01*
X136097579Y-85421587D01*
X136093457Y-85459540D01*
X135946205Y-85459540D01*
X135950026Y-85434123D01*
X135959872Y-85397498D01*
X135973656Y-85363552D01*
X135984137Y-85343871D01*
X136006204Y-85311961D01*
X136032386Y-85284572D01*
X136062683Y-85261703D01*
X136084931Y-85249252D01*
X136121104Y-85235406D01*
X136160639Y-85227356D01*
X136198604Y-85225067D01*
X136210386Y-85225214D01*
G37*
G36*
X135770874Y-85236790D02*
G01*
X135635685Y-85236790D01*
X135620664Y-85323435D01*
X135600906Y-85291450D01*
X135574605Y-85265287D01*
X135553436Y-85251079D01*
X135517175Y-85235228D01*
X135480088Y-85227124D01*
X135447007Y-85225067D01*
X135408421Y-85227714D01*
X135371660Y-85235657D01*
X135336723Y-85248895D01*
X135329954Y-85252178D01*
X135329954Y-85396708D01*
X135360401Y-85372534D01*
X135395687Y-85356272D01*
X135435813Y-85347921D01*
X135460197Y-85346700D01*
X135498540Y-85349633D01*
X135535138Y-85359638D01*
X135565893Y-85376741D01*
X135591927Y-85402871D01*
X135609307Y-85436470D01*
X135616085Y-85463020D01*
X135619382Y-85495260D01*
X135620603Y-85531973D01*
X135620664Y-85544536D01*
X135620664Y-85811250D01*
X135770874Y-85811250D01*
X135770874Y-85236790D01*
G37*
G36*
X134950767Y-85822973D02*
G01*
X134987784Y-85821756D01*
X135026295Y-85818105D01*
X135066301Y-85812019D01*
X135107800Y-85803499D01*
X135143524Y-85794539D01*
X135165457Y-85788352D01*
X135165457Y-85659758D01*
X135127587Y-85679368D01*
X135089679Y-85694920D01*
X135051733Y-85706416D01*
X135013747Y-85713854D01*
X134975724Y-85717235D01*
X134963040Y-85717460D01*
X134921856Y-85714471D01*
X134883768Y-85701844D01*
X134859925Y-85672990D01*
X134857344Y-85654995D01*
X134871461Y-85619755D01*
X134882440Y-85610665D01*
X134916420Y-85594820D01*
X134953566Y-85584258D01*
X134968169Y-85580990D01*
X135009569Y-85571647D01*
X135048294Y-85560991D01*
X135089441Y-85543461D01*
X135122519Y-85521253D01*
X135147529Y-85494367D01*
X135166892Y-85455929D01*
X135174153Y-85418751D01*
X135174799Y-85402570D01*
X135170975Y-85362270D01*
X135159503Y-85326916D01*
X135137456Y-85293054D01*
X135113616Y-85271045D01*
X135079487Y-85250930D01*
X135043970Y-85238043D01*
X135003176Y-85229557D01*
X134964011Y-85225785D01*
X134935746Y-85225067D01*
X134898958Y-85226336D01*
X134859949Y-85230544D01*
X134846170Y-85232760D01*
X134809787Y-85240463D01*
X134772376Y-85251067D01*
X134754762Y-85256940D01*
X134754762Y-85387916D01*
X134788104Y-85367393D01*
X134822888Y-85350626D01*
X134841041Y-85343952D01*
X134877416Y-85334811D01*
X134915052Y-85330789D01*
X134926038Y-85330580D01*
X134963811Y-85333028D01*
X134999595Y-85342766D01*
X135004989Y-85345417D01*
X135030462Y-85372046D01*
X135032650Y-85385351D01*
X135015478Y-85418448D01*
X135006638Y-85424918D01*
X134972612Y-85440718D01*
X134936814Y-85451425D01*
X134922923Y-85454777D01*
X134874197Y-85466501D01*
X134835763Y-85477755D01*
X134799176Y-85493892D01*
X134766783Y-85516139D01*
X134753846Y-85528966D01*
X134732258Y-85561725D01*
X134720408Y-85597217D01*
X134716076Y-85633809D01*
X134715928Y-85642539D01*
X134719597Y-85684828D01*
X134730605Y-85721479D01*
X134754685Y-85759363D01*
X134790232Y-85788437D01*
X134826926Y-85805353D01*
X134870958Y-85816630D01*
X134908799Y-85821387D01*
X134950767Y-85822973D01*
G37*
G36*
X134400122Y-85166448D02*
G01*
X134415509Y-85151061D01*
X134415509Y-85005981D01*
X134400122Y-84990594D01*
X134280687Y-84990594D01*
X134265300Y-85005981D01*
X134265300Y-85151061D01*
X134280687Y-85166448D01*
X134400122Y-85166448D01*
G37*
G36*
X134214924Y-85811250D02*
G01*
X134252867Y-85809330D01*
X134291810Y-85802240D01*
X134329296Y-85787740D01*
X134359295Y-85766417D01*
X134368614Y-85756661D01*
X134389131Y-85724959D01*
X134402274Y-85690139D01*
X134410929Y-85648709D01*
X134414776Y-85607937D01*
X134415509Y-85578059D01*
X134415509Y-85358423D01*
X134536959Y-85358423D01*
X134536959Y-85236790D01*
X134265300Y-85236790D01*
X134265300Y-85568716D01*
X134263224Y-85605746D01*
X134254322Y-85643081D01*
X134244050Y-85661773D01*
X134213317Y-85683499D01*
X134176051Y-85689589D01*
X134172976Y-85689617D01*
X134052991Y-85689617D01*
X134052991Y-85811250D01*
X134214924Y-85811250D01*
G37*
G36*
X133575619Y-85811250D02*
G01*
X133615644Y-85810185D01*
X133655199Y-85806442D01*
X133692350Y-85799121D01*
X133708243Y-85794214D01*
X133742612Y-85776172D01*
X133769279Y-85747681D01*
X133776203Y-85735229D01*
X133788371Y-85699500D01*
X133794220Y-85662996D01*
X133796151Y-85624911D01*
X133796170Y-85620374D01*
X133796170Y-85358423D01*
X133942716Y-85358423D01*
X133942716Y-85236790D01*
X133796170Y-85236790D01*
X133796170Y-85080536D01*
X133645961Y-85014041D01*
X133645961Y-85236790D01*
X133449589Y-85236790D01*
X133449589Y-85358423D01*
X133645961Y-85358423D01*
X133645961Y-85620740D01*
X133639180Y-85656925D01*
X133626727Y-85673497D01*
X133591463Y-85687712D01*
X133564994Y-85689617D01*
X133449589Y-85689617D01*
X133449589Y-85811250D01*
X133575619Y-85811250D01*
G37*
G36*
X133297915Y-85905039D02*
G01*
X133281428Y-85905039D01*
X133266041Y-85905039D01*
X133228522Y-85904169D01*
X133205591Y-85902291D01*
X133170677Y-85890541D01*
X133167855Y-85888552D01*
X133144454Y-85859821D01*
X133141477Y-85854114D01*
X133126264Y-85819466D01*
X133114366Y-85788169D01*
X133332719Y-85236790D01*
X133174816Y-85236790D01*
X133043475Y-85606086D01*
X132917995Y-85236790D01*
X132760092Y-85236790D01*
X132998412Y-85868219D01*
X133013208Y-85903001D01*
X133030669Y-85935539D01*
X133036147Y-85944423D01*
X133059514Y-85974337D01*
X133087710Y-85998132D01*
X133091835Y-86000843D01*
X133126340Y-86016227D01*
X133164718Y-86022087D01*
X133173717Y-86022275D01*
X133297915Y-86022275D01*
X133297915Y-85905039D01*
G37*
G36*
X148757388Y-87071250D02*
G01*
X148606263Y-87071250D01*
X148606263Y-86782554D01*
X148549842Y-86782554D01*
X148521005Y-86782065D01*
X148476364Y-86779074D01*
X148435997Y-86773364D01*
X148393201Y-86762922D01*
X148356562Y-86748566D01*
X148321598Y-86726867D01*
X148317349Y-86723308D01*
X148291384Y-86694604D01*
X148272028Y-86659274D01*
X148260698Y-86623717D01*
X148254224Y-86583291D01*
X148252538Y-86545883D01*
X148409891Y-86545883D01*
X148410616Y-86564826D01*
X148418267Y-86602770D01*
X148439567Y-86635276D01*
X148468186Y-86650904D01*
X148505599Y-86658893D01*
X148544164Y-86660922D01*
X148606263Y-86660922D01*
X148606263Y-86430845D01*
X148544164Y-86430845D01*
X148513551Y-86432081D01*
X148474193Y-86439017D01*
X148439567Y-86456673D01*
X148426584Y-86471866D01*
X148413398Y-86506663D01*
X148409891Y-86545883D01*
X148252538Y-86545883D01*
X148252605Y-86538098D01*
X148254966Y-86501232D01*
X148262249Y-86461528D01*
X148274389Y-86426769D01*
X148294689Y-86392468D01*
X148321598Y-86364899D01*
X148351054Y-86345974D01*
X148386667Y-86330965D01*
X148428437Y-86319871D01*
X148467948Y-86313617D01*
X148511735Y-86310082D01*
X148549842Y-86309212D01*
X148757388Y-86309212D01*
X148757388Y-87071250D01*
G37*
G36*
X148122845Y-86274041D02*
G01*
X147973551Y-86274041D01*
X147973551Y-86584351D01*
X147956647Y-86549163D01*
X147932426Y-86521292D01*
X147918780Y-86510895D01*
X147884713Y-86494172D01*
X147848275Y-86486303D01*
X147824808Y-86485067D01*
X147787267Y-86488490D01*
X147750753Y-86500525D01*
X147720297Y-86521224D01*
X147703358Y-86539838D01*
X147683257Y-86574558D01*
X147670912Y-86612159D01*
X147664374Y-86650263D01*
X147661816Y-86693223D01*
X147661775Y-86699756D01*
X147661775Y-87071250D01*
X147811069Y-87071250D01*
X147811069Y-86721921D01*
X147813125Y-86684549D01*
X147821690Y-86648004D01*
X147828471Y-86634360D01*
X147857451Y-86610589D01*
X147881777Y-86606700D01*
X147918383Y-86614709D01*
X147946456Y-86638739D01*
X147949555Y-86643153D01*
X147965092Y-86677127D01*
X147972403Y-86716484D01*
X147973551Y-86742987D01*
X147973551Y-87071250D01*
X148122845Y-87071250D01*
X148122845Y-86274041D01*
G37*
G36*
X147509185Y-87165039D02*
G01*
X147492698Y-87165039D01*
X147477311Y-87165039D01*
X147439792Y-87164169D01*
X147416861Y-87162291D01*
X147381947Y-87150541D01*
X147379125Y-87148552D01*
X147355724Y-87119821D01*
X147352747Y-87114114D01*
X147337534Y-87079466D01*
X147325636Y-87048169D01*
X147543989Y-86496790D01*
X147386086Y-86496790D01*
X147254745Y-86866086D01*
X147129265Y-86496790D01*
X146971362Y-86496790D01*
X147209682Y-87128219D01*
X147224478Y-87163001D01*
X147241939Y-87195539D01*
X147247417Y-87204423D01*
X147270784Y-87234337D01*
X147298980Y-87258132D01*
X147303105Y-87260843D01*
X147337610Y-87276227D01*
X147375988Y-87282087D01*
X147384987Y-87282275D01*
X147509185Y-87282275D01*
X147509185Y-87165039D01*
G37*
G36*
X146635589Y-87082973D02*
G01*
X146672606Y-87081756D01*
X146711117Y-87078105D01*
X146751123Y-87072019D01*
X146792622Y-87063499D01*
X146828346Y-87054539D01*
X146850279Y-87048352D01*
X146850279Y-86919758D01*
X146812409Y-86939368D01*
X146774501Y-86954920D01*
X146736555Y-86966416D01*
X146698569Y-86973854D01*
X146660546Y-86977235D01*
X146647862Y-86977460D01*
X146606678Y-86974471D01*
X146568590Y-86961844D01*
X146544747Y-86932990D01*
X146542166Y-86914995D01*
X146556283Y-86879755D01*
X146567262Y-86870665D01*
X146601242Y-86854820D01*
X146638388Y-86844258D01*
X146652991Y-86840990D01*
X146694391Y-86831647D01*
X146733116Y-86820991D01*
X146774263Y-86803461D01*
X146807341Y-86781253D01*
X146832351Y-86754367D01*
X146851714Y-86715929D01*
X146858975Y-86678751D01*
X146859621Y-86662570D01*
X146855797Y-86622270D01*
X146844325Y-86586916D01*
X146822278Y-86553054D01*
X146798438Y-86531045D01*
X146764309Y-86510930D01*
X146728792Y-86498043D01*
X146687999Y-86489557D01*
X146648833Y-86485785D01*
X146620568Y-86485067D01*
X146583780Y-86486336D01*
X146544771Y-86490544D01*
X146530992Y-86492760D01*
X146494609Y-86500463D01*
X146457198Y-86511067D01*
X146439584Y-86516940D01*
X146439584Y-86647916D01*
X146472926Y-86627393D01*
X146507710Y-86610626D01*
X146525863Y-86603952D01*
X146562238Y-86594811D01*
X146599874Y-86590789D01*
X146610860Y-86590580D01*
X146648634Y-86593028D01*
X146684417Y-86602766D01*
X146689811Y-86605417D01*
X146715284Y-86632046D01*
X146717472Y-86645351D01*
X146700300Y-86678448D01*
X146691460Y-86684918D01*
X146657434Y-86700718D01*
X146621636Y-86711425D01*
X146607745Y-86714777D01*
X146559019Y-86726501D01*
X146520585Y-86737755D01*
X146483998Y-86753892D01*
X146451605Y-86776139D01*
X146438668Y-86788966D01*
X146417080Y-86821725D01*
X146405230Y-86857217D01*
X146400898Y-86893809D01*
X146400750Y-86902539D01*
X146404419Y-86944828D01*
X146415427Y-86981479D01*
X146439507Y-87019363D01*
X146475054Y-87048437D01*
X146511748Y-87065353D01*
X146555780Y-87076630D01*
X146593621Y-87081387D01*
X146635589Y-87082973D01*
G37*
G36*
X146084944Y-86426448D02*
G01*
X146100331Y-86411061D01*
X146100331Y-86265981D01*
X146084944Y-86250594D01*
X145965509Y-86250594D01*
X145950122Y-86265981D01*
X145950122Y-86411061D01*
X145965509Y-86426448D01*
X146084944Y-86426448D01*
G37*
G36*
X145899746Y-87071250D02*
G01*
X145937689Y-87069330D01*
X145976632Y-87062240D01*
X146014118Y-87047740D01*
X146044117Y-87026417D01*
X146053436Y-87016661D01*
X146073953Y-86984959D01*
X146087096Y-86950139D01*
X146095751Y-86908709D01*
X146099598Y-86867937D01*
X146100331Y-86838059D01*
X146100331Y-86618423D01*
X146221781Y-86618423D01*
X146221781Y-86496790D01*
X145950122Y-86496790D01*
X145950122Y-86828716D01*
X145948046Y-86865746D01*
X145939144Y-86903081D01*
X145928872Y-86921773D01*
X145898139Y-86943499D01*
X145860873Y-86949589D01*
X145857798Y-86949617D01*
X145737813Y-86949617D01*
X145737813Y-87071250D01*
X145899746Y-87071250D01*
G37*
G36*
X145321074Y-87082973D02*
G01*
X145362184Y-87081055D01*
X145400333Y-87075299D01*
X145442203Y-87063327D01*
X145479811Y-87045829D01*
X145513155Y-87022806D01*
X145533016Y-87004388D01*
X145558726Y-86972680D01*
X145579118Y-86936631D01*
X145594189Y-86896241D01*
X145602686Y-86859268D01*
X145607488Y-86819280D01*
X145608670Y-86785119D01*
X145606836Y-86742495D01*
X145601336Y-86702895D01*
X145592168Y-86666317D01*
X145576325Y-86626415D01*
X145555202Y-86590866D01*
X145533565Y-86564568D01*
X145503373Y-86537550D01*
X145469123Y-86516122D01*
X145430815Y-86500284D01*
X145388451Y-86490035D01*
X145350048Y-86485765D01*
X145325654Y-86485067D01*
X145286102Y-86487188D01*
X145247270Y-86493552D01*
X145209156Y-86504158D01*
X145171761Y-86519007D01*
X145150715Y-86529397D01*
X145150715Y-86667516D01*
X145180693Y-86643819D01*
X145216929Y-86623864D01*
X145255271Y-86611510D01*
X145295720Y-86606759D01*
X145300924Y-86606700D01*
X145340580Y-86610366D01*
X145378082Y-86623038D01*
X145408679Y-86644762D01*
X145416512Y-86653045D01*
X145437571Y-86685724D01*
X145449855Y-86721682D01*
X145455471Y-86758851D01*
X145456446Y-86784569D01*
X145453961Y-86824549D01*
X145445227Y-86863723D01*
X145428147Y-86900045D01*
X145416695Y-86915362D01*
X145388524Y-86939608D01*
X145353698Y-86954874D01*
X145316665Y-86960936D01*
X145303122Y-86961340D01*
X145265839Y-86958579D01*
X145225934Y-86948661D01*
X145188914Y-86931531D01*
X145154779Y-86907188D01*
X145150715Y-86903638D01*
X145150715Y-87039742D01*
X145184976Y-87056587D01*
X145220919Y-87069295D01*
X145258546Y-87077865D01*
X145297856Y-87082298D01*
X145321074Y-87082973D01*
G37*
G36*
X144768609Y-86486051D02*
G01*
X144805208Y-86489406D01*
X144841503Y-86495142D01*
X144874337Y-86502673D01*
X144910660Y-86513809D01*
X144947199Y-86527931D01*
X144947199Y-86656892D01*
X144919247Y-86643187D01*
X144885003Y-86628956D01*
X144847548Y-86616591D01*
X144819085Y-86609685D01*
X144780097Y-86603992D01*
X144743318Y-86602303D01*
X144728139Y-86602723D01*
X144690928Y-86607616D01*
X144681832Y-86609943D01*
X144649712Y-86627766D01*
X144642659Y-86636112D01*
X144633592Y-86672279D01*
X144633592Y-86696092D01*
X144737639Y-86696092D01*
X144763468Y-86696585D01*
X144801180Y-86699169D01*
X144837656Y-86703969D01*
X144852299Y-86706696D01*
X144888107Y-86716798D01*
X144923019Y-86732546D01*
X144929922Y-86736575D01*
X144960281Y-86761165D01*
X144982370Y-86790798D01*
X144992908Y-86813674D01*
X145001593Y-86849631D01*
X145004169Y-86888067D01*
X145004115Y-86893921D01*
X145000723Y-86932489D01*
X144990385Y-86971415D01*
X144973154Y-87004846D01*
X144949031Y-87032781D01*
X144945552Y-87035869D01*
X144915321Y-87057044D01*
X144880831Y-87071945D01*
X144842083Y-87080571D01*
X144804684Y-87082973D01*
X144778534Y-87081782D01*
X144741200Y-87075531D01*
X144706132Y-87063922D01*
X144686984Y-87054499D01*
X144655284Y-87031651D01*
X144630477Y-87004388D01*
X144623517Y-87039193D01*
X144609412Y-87071250D01*
X144460668Y-87071250D01*
X144464914Y-87064846D01*
X144478253Y-87030400D01*
X144480473Y-87019705D01*
X144485397Y-86982223D01*
X144485487Y-86980743D01*
X144486863Y-86943572D01*
X144486854Y-86939241D01*
X144486313Y-86902356D01*
X144486047Y-86888302D01*
X144485764Y-86850149D01*
X144485643Y-86824847D01*
X144485425Y-86811680D01*
X144633592Y-86811680D01*
X144633602Y-86814107D01*
X144636694Y-86852787D01*
X144644583Y-86888800D01*
X144658267Y-86921835D01*
X144681952Y-86952364D01*
X144685331Y-86955403D01*
X144718235Y-86972657D01*
X144755591Y-86977460D01*
X144788755Y-86973183D01*
X144820987Y-86955112D01*
X144838435Y-86927955D01*
X144844251Y-86891548D01*
X144841005Y-86862688D01*
X144821170Y-86829815D01*
X144800512Y-86816932D01*
X144763468Y-86806368D01*
X144730849Y-86802950D01*
X144693492Y-86801605D01*
X144633592Y-86801605D01*
X144633592Y-86811680D01*
X144485425Y-86811680D01*
X144485031Y-86787867D01*
X144484745Y-86774777D01*
X144484298Y-86736759D01*
X144484871Y-86710390D01*
X144488168Y-86671381D01*
X144495381Y-86632176D01*
X144507745Y-86594426D01*
X144527484Y-86559561D01*
X144554712Y-86531536D01*
X144585964Y-86511994D01*
X144615823Y-86500214D01*
X144655326Y-86490983D01*
X144695695Y-86486355D01*
X144735074Y-86485067D01*
X144768609Y-86486051D01*
G37*
G36*
X144017367Y-87071250D02*
G01*
X144055247Y-87069311D01*
X144094133Y-87062150D01*
X144131577Y-87047504D01*
X144161556Y-87025965D01*
X144170874Y-87016112D01*
X144191390Y-86984089D01*
X144204533Y-86948913D01*
X144213189Y-86907057D01*
X144217035Y-86865865D01*
X144217768Y-86835677D01*
X144217768Y-86395674D01*
X144369992Y-86395674D01*
X144369992Y-86274041D01*
X144067559Y-86274041D01*
X144067559Y-86827434D01*
X144065484Y-86864868D01*
X144056581Y-86902568D01*
X144046310Y-86921407D01*
X144015667Y-86943418D01*
X143978321Y-86949589D01*
X143975235Y-86949617D01*
X143855251Y-86949617D01*
X143855251Y-87071250D01*
X144017367Y-87071250D01*
G37*
G36*
X142859656Y-87082973D02*
G01*
X142897552Y-87081828D01*
X142919740Y-87080042D01*
X142956219Y-87074804D01*
X142978175Y-87070150D01*
X143014482Y-87060576D01*
X143049215Y-87048569D01*
X143085603Y-87032552D01*
X143088817Y-87030949D01*
X143088817Y-86876710D01*
X143054867Y-86899083D01*
X143021641Y-86917978D01*
X142985573Y-86934893D01*
X142971397Y-86940457D01*
X142935955Y-86951470D01*
X142897879Y-86958873D01*
X142860755Y-86961340D01*
X142821969Y-86957760D01*
X142785639Y-86944531D01*
X142773011Y-86935878D01*
X142749930Y-86905607D01*
X142742266Y-86868494D01*
X142742236Y-86865719D01*
X142748728Y-86829398D01*
X142762752Y-86805635D01*
X142788764Y-86782554D01*
X142822287Y-86765519D01*
X142896659Y-86737492D01*
X142931388Y-86723506D01*
X142964921Y-86708081D01*
X142993562Y-86692612D01*
X143025166Y-86671156D01*
X143051447Y-86646450D01*
X143072796Y-86614068D01*
X143085249Y-86579081D01*
X143091298Y-86538559D01*
X143091931Y-86518772D01*
X143089587Y-86481420D01*
X143080926Y-86441880D01*
X143065885Y-86406688D01*
X143044462Y-86375843D01*
X143025252Y-86356473D01*
X142993544Y-86333490D01*
X142957242Y-86316151D01*
X142916347Y-86304458D01*
X142877638Y-86298928D01*
X142842803Y-86297488D01*
X142804524Y-86298765D01*
X142768020Y-86302597D01*
X142736374Y-86308296D01*
X142698507Y-86318411D01*
X142662438Y-86331213D01*
X142631960Y-86344200D01*
X142631960Y-86489097D01*
X142662803Y-86468938D01*
X142699931Y-86449257D01*
X142737189Y-86434497D01*
X142774575Y-86424656D01*
X142812090Y-86419736D01*
X142830896Y-86419121D01*
X142868686Y-86422187D01*
X142905128Y-86434640D01*
X142914610Y-86440920D01*
X142938161Y-86471387D01*
X142943736Y-86503019D01*
X142934506Y-86539796D01*
X142922304Y-86555409D01*
X142891713Y-86576291D01*
X142857452Y-86591814D01*
X142833461Y-86601204D01*
X142768431Y-86625567D01*
X142730183Y-86641518D01*
X142696704Y-86659397D01*
X142664281Y-86682192D01*
X142635249Y-86710847D01*
X142632510Y-86714228D01*
X142611435Y-86747896D01*
X142597257Y-86786665D01*
X142590445Y-86825408D01*
X142588913Y-86857110D01*
X142591328Y-86897317D01*
X142598573Y-86933582D01*
X142613130Y-86970911D01*
X142634261Y-87002875D01*
X142657606Y-87026004D01*
X142690753Y-87048202D01*
X142730089Y-87064948D01*
X142768732Y-87074962D01*
X142811920Y-87080970D01*
X142851384Y-87082918D01*
X142859656Y-87082973D01*
G37*
G36*
X142163014Y-87082973D02*
G01*
X142204124Y-87081055D01*
X142242273Y-87075299D01*
X142284143Y-87063327D01*
X142321751Y-87045829D01*
X142355095Y-87022806D01*
X142374956Y-87004388D01*
X142400666Y-86972680D01*
X142421058Y-86936631D01*
X142436129Y-86896241D01*
X142444626Y-86859268D01*
X142449428Y-86819280D01*
X142450610Y-86785119D01*
X142448776Y-86742495D01*
X142443276Y-86702895D01*
X142434108Y-86666317D01*
X142418265Y-86626415D01*
X142397142Y-86590866D01*
X142375505Y-86564568D01*
X142345313Y-86537550D01*
X142311062Y-86516122D01*
X142272755Y-86500284D01*
X142230391Y-86490035D01*
X142191988Y-86485765D01*
X142167594Y-86485067D01*
X142128042Y-86487188D01*
X142089210Y-86493552D01*
X142051096Y-86504158D01*
X142013701Y-86519007D01*
X141992655Y-86529397D01*
X141992655Y-86667516D01*
X142022633Y-86643819D01*
X142058869Y-86623864D01*
X142097211Y-86611510D01*
X142137660Y-86606759D01*
X142142864Y-86606700D01*
X142182520Y-86610366D01*
X142220022Y-86623038D01*
X142250619Y-86644762D01*
X142258452Y-86653045D01*
X142279511Y-86685724D01*
X142291795Y-86721682D01*
X142297411Y-86758851D01*
X142298386Y-86784569D01*
X142295901Y-86824549D01*
X142287167Y-86863723D01*
X142270087Y-86900045D01*
X142258635Y-86915362D01*
X142230464Y-86939608D01*
X142195638Y-86954874D01*
X142158605Y-86960936D01*
X142145062Y-86961340D01*
X142107779Y-86958579D01*
X142067874Y-86948661D01*
X142030854Y-86931531D01*
X141996719Y-86907188D01*
X141992655Y-86903638D01*
X141992655Y-87039742D01*
X142026916Y-87056587D01*
X142062859Y-87069295D01*
X142100486Y-87077865D01*
X142139796Y-87082298D01*
X142163014Y-87082973D01*
G37*
G36*
X141663660Y-86426448D02*
G01*
X141679047Y-86411061D01*
X141679047Y-86265981D01*
X141663660Y-86250594D01*
X141544225Y-86250594D01*
X141528838Y-86265981D01*
X141528838Y-86411061D01*
X141544225Y-86426448D01*
X141663660Y-86426448D01*
G37*
G36*
X141478462Y-87071250D02*
G01*
X141516405Y-87069330D01*
X141555348Y-87062240D01*
X141592834Y-87047740D01*
X141622833Y-87026417D01*
X141632152Y-87016661D01*
X141652669Y-86984959D01*
X141665812Y-86950139D01*
X141674467Y-86908709D01*
X141678314Y-86867937D01*
X141679047Y-86838059D01*
X141679047Y-86618423D01*
X141800497Y-86618423D01*
X141800497Y-86496790D01*
X141528838Y-86496790D01*
X141528838Y-86828716D01*
X141526762Y-86865746D01*
X141517860Y-86903081D01*
X141507588Y-86921773D01*
X141476855Y-86943499D01*
X141439589Y-86949589D01*
X141436514Y-86949617D01*
X141316529Y-86949617D01*
X141316529Y-87071250D01*
X141478462Y-87071250D01*
G37*
G36*
X140947476Y-86485214D02*
G01*
X140986753Y-86488052D01*
X141022980Y-86494501D01*
X141060647Y-86506293D01*
X141094330Y-86522802D01*
X141116927Y-86537953D01*
X141146695Y-86564689D01*
X141171506Y-86596235D01*
X141189401Y-86628315D01*
X141193239Y-86636878D01*
X141206113Y-86672948D01*
X141215026Y-86711926D01*
X141219575Y-86748417D01*
X141221092Y-86787134D01*
X141219887Y-86822024D01*
X141214991Y-86862659D01*
X141206330Y-86899984D01*
X141190967Y-86940406D01*
X141170181Y-86976062D01*
X141143972Y-87006953D01*
X141118137Y-87028853D01*
X141082554Y-87050234D01*
X141041973Y-87066269D01*
X141004338Y-87075549D01*
X140963233Y-87081117D01*
X140918658Y-87082973D01*
X140904851Y-87082803D01*
X140863715Y-87080248D01*
X140823003Y-87074628D01*
X140782717Y-87065943D01*
X140742855Y-87054192D01*
X140703419Y-87039376D01*
X140703419Y-86904187D01*
X140716532Y-86911108D01*
X140755786Y-86929192D01*
X140794911Y-86943257D01*
X140833908Y-86953303D01*
X140872775Y-86959331D01*
X140911514Y-86961340D01*
X140939536Y-86960245D01*
X140980115Y-86953555D01*
X141018704Y-86937498D01*
X141046267Y-86912682D01*
X141062805Y-86879109D01*
X141068318Y-86836776D01*
X140679239Y-86836776D01*
X140679239Y-86775410D01*
X140679270Y-86770016D01*
X140681208Y-86733427D01*
X140683295Y-86719540D01*
X140830547Y-86719540D01*
X141066852Y-86719540D01*
X141064456Y-86703204D01*
X141052407Y-86666423D01*
X141030033Y-86636009D01*
X141017442Y-86626048D01*
X140981504Y-86610821D01*
X140943387Y-86606700D01*
X140930181Y-86607146D01*
X140892716Y-86614765D01*
X140859856Y-86635276D01*
X140849896Y-86646945D01*
X140834669Y-86681587D01*
X140830547Y-86719540D01*
X140683295Y-86719540D01*
X140687116Y-86694123D01*
X140696962Y-86657498D01*
X140710746Y-86623552D01*
X140721227Y-86603871D01*
X140743294Y-86571961D01*
X140769476Y-86544572D01*
X140799773Y-86521703D01*
X140822021Y-86509252D01*
X140858194Y-86495406D01*
X140897729Y-86487356D01*
X140935694Y-86485067D01*
X140947476Y-86485214D01*
G37*
G36*
X140543501Y-86496790D02*
G01*
X140409045Y-86496790D01*
X140394207Y-86584535D01*
X140377303Y-86549228D01*
X140353082Y-86521298D01*
X140339436Y-86510895D01*
X140305369Y-86494172D01*
X140268931Y-86486303D01*
X140245464Y-86485067D01*
X140207923Y-86488490D01*
X140171409Y-86500525D01*
X140140953Y-86521224D01*
X140124014Y-86539838D01*
X140103913Y-86574558D01*
X140091568Y-86612159D01*
X140085030Y-86650263D01*
X140082472Y-86693223D01*
X140082431Y-86699756D01*
X140082431Y-87071250D01*
X140231725Y-87071250D01*
X140231725Y-86722654D01*
X140233760Y-86685052D01*
X140242235Y-86648276D01*
X140248944Y-86634543D01*
X140277609Y-86610615D01*
X140301884Y-86606700D01*
X140338530Y-86614790D01*
X140366724Y-86639061D01*
X140369844Y-86643519D01*
X140385618Y-86677819D01*
X140393042Y-86717262D01*
X140394207Y-86743720D01*
X140394207Y-87071250D01*
X140543501Y-87071250D01*
X140543501Y-86496790D01*
G37*
G36*
X139636566Y-87082973D02*
G01*
X139677676Y-87081055D01*
X139715825Y-87075299D01*
X139757695Y-87063327D01*
X139795303Y-87045829D01*
X139828647Y-87022806D01*
X139848508Y-87004388D01*
X139874218Y-86972680D01*
X139894610Y-86936631D01*
X139909681Y-86896241D01*
X139918178Y-86859268D01*
X139922980Y-86819280D01*
X139924162Y-86785119D01*
X139922328Y-86742495D01*
X139916828Y-86702895D01*
X139907660Y-86666317D01*
X139891817Y-86626415D01*
X139870694Y-86590866D01*
X139849057Y-86564568D01*
X139818865Y-86537550D01*
X139784614Y-86516122D01*
X139746307Y-86500284D01*
X139703943Y-86490035D01*
X139665540Y-86485765D01*
X139641146Y-86485067D01*
X139601594Y-86487188D01*
X139562762Y-86493552D01*
X139524648Y-86504158D01*
X139487253Y-86519007D01*
X139466207Y-86529397D01*
X139466207Y-86667516D01*
X139496185Y-86643819D01*
X139532421Y-86623864D01*
X139570763Y-86611510D01*
X139611212Y-86606759D01*
X139616416Y-86606700D01*
X139656072Y-86610366D01*
X139693574Y-86623038D01*
X139724171Y-86644762D01*
X139732004Y-86653045D01*
X139753063Y-86685724D01*
X139765347Y-86721682D01*
X139770963Y-86758851D01*
X139771938Y-86784569D01*
X139769453Y-86824549D01*
X139760719Y-86863723D01*
X139743639Y-86900045D01*
X139732187Y-86915362D01*
X139704016Y-86939608D01*
X139669190Y-86954874D01*
X139632156Y-86960936D01*
X139618614Y-86961340D01*
X139581331Y-86958579D01*
X139541426Y-86948661D01*
X139504406Y-86931531D01*
X139470271Y-86907188D01*
X139466207Y-86903638D01*
X139466207Y-87039742D01*
X139500468Y-87056587D01*
X139536411Y-87069295D01*
X139574038Y-87077865D01*
X139613348Y-87082298D01*
X139636566Y-87082973D01*
G37*
G36*
X139052640Y-86485214D02*
G01*
X139091917Y-86488052D01*
X139128144Y-86494501D01*
X139165811Y-86506293D01*
X139199494Y-86522802D01*
X139222091Y-86537953D01*
X139251859Y-86564689D01*
X139276670Y-86596235D01*
X139294565Y-86628315D01*
X139298403Y-86636878D01*
X139311277Y-86672948D01*
X139320190Y-86711926D01*
X139324739Y-86748417D01*
X139326256Y-86787134D01*
X139325051Y-86822024D01*
X139320155Y-86862659D01*
X139311494Y-86899984D01*
X139296131Y-86940406D01*
X139275345Y-86976062D01*
X139249136Y-87006953D01*
X139223301Y-87028853D01*
X139187718Y-87050234D01*
X139147137Y-87066269D01*
X139109502Y-87075549D01*
X139068397Y-87081117D01*
X139023822Y-87082973D01*
X139010015Y-87082803D01*
X138968879Y-87080248D01*
X138928167Y-87074628D01*
X138887881Y-87065943D01*
X138848019Y-87054192D01*
X138808583Y-87039376D01*
X138808583Y-86904187D01*
X138821696Y-86911108D01*
X138860950Y-86929192D01*
X138900075Y-86943257D01*
X138939072Y-86953303D01*
X138977939Y-86959331D01*
X139016678Y-86961340D01*
X139044700Y-86960245D01*
X139085279Y-86953555D01*
X139123868Y-86937498D01*
X139151431Y-86912682D01*
X139167969Y-86879109D01*
X139173482Y-86836776D01*
X138784403Y-86836776D01*
X138784403Y-86775410D01*
X138784434Y-86770016D01*
X138786372Y-86733427D01*
X138788459Y-86719540D01*
X138935711Y-86719540D01*
X139172016Y-86719540D01*
X139169620Y-86703204D01*
X139157571Y-86666423D01*
X139135197Y-86636009D01*
X139122606Y-86626048D01*
X139086668Y-86610821D01*
X139048551Y-86606700D01*
X139035345Y-86607146D01*
X138997880Y-86614765D01*
X138965020Y-86635276D01*
X138955060Y-86646945D01*
X138939833Y-86681587D01*
X138935711Y-86719540D01*
X138788459Y-86719540D01*
X138792280Y-86694123D01*
X138802126Y-86657498D01*
X138815910Y-86623552D01*
X138826391Y-86603871D01*
X138848458Y-86571961D01*
X138874640Y-86544572D01*
X138904937Y-86521703D01*
X138927185Y-86509252D01*
X138963358Y-86495406D01*
X139002893Y-86487356D01*
X139040858Y-86485067D01*
X139052640Y-86485214D01*
G37*
G36*
X138424633Y-87082973D02*
G01*
X138461650Y-87081756D01*
X138500161Y-87078105D01*
X138540167Y-87072019D01*
X138581666Y-87063499D01*
X138617390Y-87054539D01*
X138639323Y-87048352D01*
X138639323Y-86919758D01*
X138601453Y-86939368D01*
X138563545Y-86954920D01*
X138525599Y-86966416D01*
X138487613Y-86973854D01*
X138449590Y-86977235D01*
X138436906Y-86977460D01*
X138395722Y-86974471D01*
X138357634Y-86961844D01*
X138333791Y-86932990D01*
X138331210Y-86914995D01*
X138345327Y-86879755D01*
X138356306Y-86870665D01*
X138390286Y-86854820D01*
X138427432Y-86844258D01*
X138442035Y-86840990D01*
X138483435Y-86831647D01*
X138522160Y-86820991D01*
X138563307Y-86803461D01*
X138596385Y-86781253D01*
X138621395Y-86754367D01*
X138640758Y-86715929D01*
X138648019Y-86678751D01*
X138648665Y-86662570D01*
X138644841Y-86622270D01*
X138633369Y-86586916D01*
X138611322Y-86553054D01*
X138587482Y-86531045D01*
X138553353Y-86510930D01*
X138517836Y-86498043D01*
X138477043Y-86489557D01*
X138437877Y-86485785D01*
X138409612Y-86485067D01*
X138372824Y-86486336D01*
X138333815Y-86490544D01*
X138320036Y-86492760D01*
X138283653Y-86500463D01*
X138246242Y-86511067D01*
X138228628Y-86516940D01*
X138228628Y-86647916D01*
X138261970Y-86627393D01*
X138296754Y-86610626D01*
X138314907Y-86603952D01*
X138351282Y-86594811D01*
X138388918Y-86590789D01*
X138399904Y-86590580D01*
X138437677Y-86593028D01*
X138473461Y-86602766D01*
X138478855Y-86605417D01*
X138504328Y-86632046D01*
X138506516Y-86645351D01*
X138489344Y-86678448D01*
X138480504Y-86684918D01*
X138446478Y-86700718D01*
X138410680Y-86711425D01*
X138396789Y-86714777D01*
X138348063Y-86726501D01*
X138309629Y-86737755D01*
X138273042Y-86753892D01*
X138240649Y-86776139D01*
X138227712Y-86788966D01*
X138206124Y-86821725D01*
X138194274Y-86857217D01*
X138189942Y-86893809D01*
X138189794Y-86902539D01*
X138193463Y-86944828D01*
X138204471Y-86981479D01*
X138228551Y-87019363D01*
X138264098Y-87048437D01*
X138300792Y-87065353D01*
X138344824Y-87076630D01*
X138382665Y-87081387D01*
X138424633Y-87082973D01*
G37*
G36*
X137403393Y-87071250D02*
G01*
X137241277Y-87071250D01*
X137196022Y-87069847D01*
X137154047Y-87065640D01*
X137115353Y-87058627D01*
X137071598Y-87045917D01*
X137032968Y-87028824D01*
X136999463Y-87007349D01*
X136971083Y-86981490D01*
X136956351Y-86963646D01*
X136935019Y-86929547D01*
X136917711Y-86890001D01*
X136906763Y-86854442D01*
X136898391Y-86815397D01*
X136892595Y-86772866D01*
X136889375Y-86726848D01*
X136888651Y-86690047D01*
X136888656Y-86689498D01*
X137046004Y-86689498D01*
X137046597Y-86721057D01*
X137049707Y-86763951D01*
X137055484Y-86801514D01*
X137065593Y-86838597D01*
X137083923Y-86875611D01*
X137106088Y-86899654D01*
X137138687Y-86918491D01*
X137174477Y-86927936D01*
X137211051Y-86930566D01*
X137252084Y-86930566D01*
X137252084Y-86449896D01*
X137211051Y-86449896D01*
X137184281Y-86451228D01*
X137146768Y-86458905D01*
X137112395Y-86475697D01*
X137083923Y-86504484D01*
X137067334Y-86536655D01*
X137056706Y-86572506D01*
X137050485Y-86608957D01*
X137046930Y-86650688D01*
X137046004Y-86689498D01*
X136888656Y-86689498D01*
X136888836Y-86670884D01*
X136890708Y-86628324D01*
X136894596Y-86588779D01*
X136900500Y-86552249D01*
X136909717Y-86514193D01*
X136913805Y-86500877D01*
X136928135Y-86463943D01*
X136947695Y-86428209D01*
X136971083Y-86398055D01*
X136976316Y-86392589D01*
X137005586Y-86367862D01*
X137040036Y-86347473D01*
X137079664Y-86331423D01*
X137115095Y-86321705D01*
X137153841Y-86314765D01*
X137195902Y-86310600D01*
X137241277Y-86309212D01*
X137403393Y-86309212D01*
X137403393Y-87071250D01*
G37*
G36*
X136526192Y-86485214D02*
G01*
X136565469Y-86488052D01*
X136601696Y-86494501D01*
X136639363Y-86506293D01*
X136673046Y-86522802D01*
X136695643Y-86537953D01*
X136725411Y-86564689D01*
X136750222Y-86596235D01*
X136768117Y-86628315D01*
X136771955Y-86636878D01*
X136784829Y-86672948D01*
X136793742Y-86711926D01*
X136798291Y-86748417D01*
X136799808Y-86787134D01*
X136798603Y-86822024D01*
X136793707Y-86862659D01*
X136785046Y-86899984D01*
X136769683Y-86940406D01*
X136748897Y-86976062D01*
X136722688Y-87006953D01*
X136696853Y-87028853D01*
X136661270Y-87050234D01*
X136620689Y-87066269D01*
X136583054Y-87075549D01*
X136541949Y-87081117D01*
X136497374Y-87082973D01*
X136483567Y-87082803D01*
X136442431Y-87080248D01*
X136401719Y-87074628D01*
X136361433Y-87065943D01*
X136321571Y-87054192D01*
X136282135Y-87039376D01*
X136282135Y-86904187D01*
X136295248Y-86911108D01*
X136334502Y-86929192D01*
X136373627Y-86943257D01*
X136412623Y-86953303D01*
X136451491Y-86959331D01*
X136490230Y-86961340D01*
X136518252Y-86960245D01*
X136558831Y-86953555D01*
X136597420Y-86937498D01*
X136624983Y-86912682D01*
X136641521Y-86879109D01*
X136647034Y-86836776D01*
X136257955Y-86836776D01*
X136257955Y-86775410D01*
X136257986Y-86770016D01*
X136259924Y-86733427D01*
X136262011Y-86719540D01*
X136409263Y-86719540D01*
X136645568Y-86719540D01*
X136643172Y-86703204D01*
X136631123Y-86666423D01*
X136608749Y-86636009D01*
X136596158Y-86626048D01*
X136560220Y-86610821D01*
X136522103Y-86606700D01*
X136508897Y-86607146D01*
X136471432Y-86614765D01*
X136438572Y-86635276D01*
X136428612Y-86646945D01*
X136413385Y-86681587D01*
X136409263Y-86719540D01*
X136262011Y-86719540D01*
X136265832Y-86694123D01*
X136275678Y-86657498D01*
X136289462Y-86623552D01*
X136299943Y-86603871D01*
X136322010Y-86571961D01*
X136348192Y-86544572D01*
X136378489Y-86521703D01*
X136400737Y-86509252D01*
X136436910Y-86495406D01*
X136476445Y-86487356D01*
X136514410Y-86485067D01*
X136526192Y-86485214D01*
G37*
G36*
X135862411Y-86487482D02*
G01*
X135901729Y-86498977D01*
X135935541Y-86519939D01*
X135963849Y-86550368D01*
X135983731Y-86583985D01*
X135998569Y-86496790D01*
X136133391Y-86496790D01*
X136133391Y-87282275D01*
X135983731Y-87282275D01*
X135983731Y-86990466D01*
X135969786Y-87012148D01*
X135941747Y-87043134D01*
X135909079Y-87065267D01*
X135871783Y-87078547D01*
X135829858Y-87082973D01*
X135806548Y-87081740D01*
X135768841Y-87073644D01*
X135735061Y-87057992D01*
X135705208Y-87034785D01*
X135679282Y-87004022D01*
X135663451Y-86977798D01*
X135647995Y-86942387D01*
X135636403Y-86902674D01*
X135629694Y-86866293D01*
X135625669Y-86826925D01*
X135624328Y-86784569D01*
X135624420Y-86780906D01*
X135774537Y-86780906D01*
X135775235Y-86805900D01*
X135779253Y-86842468D01*
X135788044Y-86878571D01*
X135803114Y-86912431D01*
X135812443Y-86926521D01*
X135840968Y-86951979D01*
X135878585Y-86961340D01*
X135895782Y-86959640D01*
X135930749Y-86942450D01*
X135954972Y-86912980D01*
X135963257Y-86897032D01*
X135975614Y-86860467D01*
X135981934Y-86822236D01*
X135983731Y-86784020D01*
X135983477Y-86769223D01*
X135979661Y-86728215D01*
X135970051Y-86688598D01*
X135954788Y-86655243D01*
X135943239Y-86638746D01*
X135913444Y-86614711D01*
X135877119Y-86606700D01*
X135859911Y-86608342D01*
X135825370Y-86624946D01*
X135802014Y-86653411D01*
X135794099Y-86668792D01*
X135782292Y-86704598D01*
X135776254Y-86742575D01*
X135774537Y-86780906D01*
X135624420Y-86780906D01*
X135625186Y-86750440D01*
X135628675Y-86710452D01*
X135634846Y-86673432D01*
X135645794Y-86632929D01*
X135660606Y-86596702D01*
X135679282Y-86564751D01*
X135693634Y-86546075D01*
X135721916Y-86519384D01*
X135754231Y-86500319D01*
X135790578Y-86488880D01*
X135830957Y-86485067D01*
X135862411Y-86487482D01*
G37*
G36*
X135294429Y-86486051D02*
G01*
X135331028Y-86489406D01*
X135367323Y-86495142D01*
X135400157Y-86502673D01*
X135436480Y-86513809D01*
X135473019Y-86527931D01*
X135473019Y-86656892D01*
X135445067Y-86643187D01*
X135410823Y-86628956D01*
X135373368Y-86616591D01*
X135344905Y-86609685D01*
X135305917Y-86603992D01*
X135269138Y-86602303D01*
X135253959Y-86602723D01*
X135216748Y-86607616D01*
X135207652Y-86609943D01*
X135175532Y-86627766D01*
X135168479Y-86636112D01*
X135159412Y-86672279D01*
X135159412Y-86696092D01*
X135263459Y-86696092D01*
X135289288Y-86696585D01*
X135327000Y-86699169D01*
X135363476Y-86703969D01*
X135378118Y-86706696D01*
X135413927Y-86716798D01*
X135448839Y-86732546D01*
X135455742Y-86736575D01*
X135486101Y-86761165D01*
X135508190Y-86790798D01*
X135518728Y-86813674D01*
X135527413Y-86849631D01*
X135529989Y-86888067D01*
X135529935Y-86893921D01*
X135526543Y-86932489D01*
X135516205Y-86971415D01*
X135498974Y-87004846D01*
X135474851Y-87032781D01*
X135471372Y-87035869D01*
X135441141Y-87057044D01*
X135406651Y-87071945D01*
X135367902Y-87080571D01*
X135330504Y-87082973D01*
X135304354Y-87081782D01*
X135267020Y-87075531D01*
X135231952Y-87063922D01*
X135212804Y-87054499D01*
X135181104Y-87031651D01*
X135156297Y-87004388D01*
X135149337Y-87039193D01*
X135135231Y-87071250D01*
X134986488Y-87071250D01*
X134990734Y-87064846D01*
X135004073Y-87030400D01*
X135006293Y-87019705D01*
X135011217Y-86982223D01*
X135011307Y-86980743D01*
X135012683Y-86943572D01*
X135012674Y-86939241D01*
X135012133Y-86902356D01*
X135011867Y-86888302D01*
X135011584Y-86850149D01*
X135011463Y-86824847D01*
X135011245Y-86811680D01*
X135159412Y-86811680D01*
X135159422Y-86814107D01*
X135162513Y-86852787D01*
X135170402Y-86888800D01*
X135184087Y-86921835D01*
X135207772Y-86952364D01*
X135211150Y-86955403D01*
X135244055Y-86972657D01*
X135281411Y-86977460D01*
X135314575Y-86973183D01*
X135346807Y-86955112D01*
X135364255Y-86927955D01*
X135370071Y-86891548D01*
X135366825Y-86862688D01*
X135346990Y-86829815D01*
X135326332Y-86816932D01*
X135289288Y-86806368D01*
X135256669Y-86802950D01*
X135219312Y-86801605D01*
X135159412Y-86801605D01*
X135159412Y-86811680D01*
X135011245Y-86811680D01*
X135010851Y-86787867D01*
X135010565Y-86774777D01*
X135010118Y-86736759D01*
X135010691Y-86710390D01*
X135013988Y-86671381D01*
X135021201Y-86632176D01*
X135033565Y-86594426D01*
X135053304Y-86559561D01*
X135080532Y-86531536D01*
X135111784Y-86511994D01*
X135141643Y-86500214D01*
X135181146Y-86490983D01*
X135221515Y-86486355D01*
X135260894Y-86485067D01*
X135294429Y-86486051D01*
G37*
G36*
X134823455Y-86496790D02*
G01*
X134688267Y-86496790D01*
X134673246Y-86583435D01*
X134653488Y-86551450D01*
X134627187Y-86525287D01*
X134606018Y-86511079D01*
X134569757Y-86495228D01*
X134532670Y-86487124D01*
X134499589Y-86485067D01*
X134461003Y-86487714D01*
X134424242Y-86495657D01*
X134389305Y-86508895D01*
X134382536Y-86512178D01*
X134382536Y-86656708D01*
X134412983Y-86632534D01*
X134448269Y-86616272D01*
X134488395Y-86607921D01*
X134512779Y-86606700D01*
X134551122Y-86609633D01*
X134587720Y-86619638D01*
X134618475Y-86636741D01*
X134644509Y-86662871D01*
X134661889Y-86696470D01*
X134668667Y-86723020D01*
X134671964Y-86755260D01*
X134673185Y-86791973D01*
X134673246Y-86804536D01*
X134673246Y-87071250D01*
X134823455Y-87071250D01*
X134823455Y-86496790D01*
G37*
G36*
X133891425Y-87071250D02*
G01*
X133931450Y-87070185D01*
X133971005Y-87066442D01*
X134008156Y-87059121D01*
X134024049Y-87054214D01*
X134058418Y-87036172D01*
X134085085Y-87007681D01*
X134092009Y-86995229D01*
X134104177Y-86959500D01*
X134110026Y-86922996D01*
X134111957Y-86884911D01*
X134111976Y-86880374D01*
X134111976Y-86618423D01*
X134258522Y-86618423D01*
X134258522Y-86496790D01*
X134111976Y-86496790D01*
X134111976Y-86340536D01*
X133961767Y-86274041D01*
X133961767Y-86496790D01*
X133765395Y-86496790D01*
X133765395Y-86618423D01*
X133961767Y-86618423D01*
X133961767Y-86880740D01*
X133954986Y-86916925D01*
X133942533Y-86933497D01*
X133907269Y-86947712D01*
X133880800Y-86949617D01*
X133765395Y-86949617D01*
X133765395Y-87071250D01*
X133891425Y-87071250D01*
G37*
G36*
X133641748Y-86496790D02*
G01*
X133547592Y-86496790D01*
X133532571Y-86560904D01*
X133514525Y-86527488D01*
X133491905Y-86505217D01*
X133458848Y-86488924D01*
X133430172Y-86485067D01*
X133393612Y-86491064D01*
X133364959Y-86506316D01*
X133339792Y-86533261D01*
X133330155Y-86558706D01*
X133310795Y-86526489D01*
X133282583Y-86501247D01*
X133247560Y-86487656D01*
X133220429Y-86485067D01*
X133183220Y-86489066D01*
X133147227Y-86504816D01*
X133121668Y-86532514D01*
X133119862Y-86535625D01*
X133106225Y-86573154D01*
X133098704Y-86614485D01*
X133094406Y-86658367D01*
X133092340Y-86700898D01*
X133091679Y-86738825D01*
X133091652Y-86748849D01*
X133091652Y-87071250D01*
X133214750Y-87071250D01*
X133214750Y-86707999D01*
X133215897Y-86670234D01*
X133221159Y-86633805D01*
X133224459Y-86624102D01*
X133255596Y-86602495D01*
X133260362Y-86602303D01*
X133293211Y-86619755D01*
X133295167Y-86623552D01*
X133303906Y-86661722D01*
X133305932Y-86700500D01*
X133305975Y-86707999D01*
X133305975Y-87071250D01*
X133427608Y-87071250D01*
X133427608Y-86707999D01*
X133428820Y-86671143D01*
X133434380Y-86634419D01*
X133437866Y-86624102D01*
X133468552Y-86602495D01*
X133473220Y-86602303D01*
X133506676Y-86618852D01*
X133508574Y-86622453D01*
X133516869Y-86659528D01*
X133518742Y-86696166D01*
X133518832Y-86707999D01*
X133518832Y-87071250D01*
X133641748Y-87071250D01*
X133641748Y-86496790D01*
G37*
G36*
X132736520Y-86485214D02*
G01*
X132775797Y-86488052D01*
X132812024Y-86494501D01*
X132849691Y-86506293D01*
X132883374Y-86522802D01*
X132905971Y-86537953D01*
X132935739Y-86564689D01*
X132960550Y-86596235D01*
X132978445Y-86628315D01*
X132982283Y-86636878D01*
X132995157Y-86672948D01*
X133004070Y-86711926D01*
X133008619Y-86748417D01*
X133010136Y-86787134D01*
X133008931Y-86822024D01*
X133004035Y-86862659D01*
X132995374Y-86899984D01*
X132980011Y-86940406D01*
X132959225Y-86976062D01*
X132933016Y-87006953D01*
X132907181Y-87028853D01*
X132871598Y-87050234D01*
X132831017Y-87066269D01*
X132793382Y-87075549D01*
X132752277Y-87081117D01*
X132707702Y-87082973D01*
X132693895Y-87082803D01*
X132652759Y-87080248D01*
X132612047Y-87074628D01*
X132571761Y-87065943D01*
X132531899Y-87054192D01*
X132492463Y-87039376D01*
X132492463Y-86904187D01*
X132505576Y-86911108D01*
X132544830Y-86929192D01*
X132583955Y-86943257D01*
X132622951Y-86953303D01*
X132661819Y-86959331D01*
X132700558Y-86961340D01*
X132728580Y-86960245D01*
X132769159Y-86953555D01*
X132807748Y-86937498D01*
X132835311Y-86912682D01*
X132851849Y-86879109D01*
X132857362Y-86836776D01*
X132468283Y-86836776D01*
X132468283Y-86775410D01*
X132468314Y-86770016D01*
X132470252Y-86733427D01*
X132472339Y-86719540D01*
X132619591Y-86719540D01*
X132855896Y-86719540D01*
X132853500Y-86703204D01*
X132841451Y-86666423D01*
X132819077Y-86636009D01*
X132806486Y-86626048D01*
X132770548Y-86610821D01*
X132732431Y-86606700D01*
X132719225Y-86607146D01*
X132681760Y-86614765D01*
X132648900Y-86635276D01*
X132638940Y-86646945D01*
X132623713Y-86681587D01*
X132619591Y-86719540D01*
X132472339Y-86719540D01*
X132476160Y-86694123D01*
X132486006Y-86657498D01*
X132499790Y-86623552D01*
X132510271Y-86603871D01*
X132532338Y-86571961D01*
X132558520Y-86544572D01*
X132588817Y-86521703D01*
X132611065Y-86509252D01*
X132647238Y-86495406D01*
X132686773Y-86487356D01*
X132724738Y-86485067D01*
X132736520Y-86485214D01*
G37*
G36*
X132332545Y-86496790D02*
G01*
X132198089Y-86496790D01*
X132183251Y-86584535D01*
X132166347Y-86549228D01*
X132142126Y-86521298D01*
X132128480Y-86510895D01*
X132094413Y-86494172D01*
X132057975Y-86486303D01*
X132034507Y-86485067D01*
X131996967Y-86488490D01*
X131960453Y-86500525D01*
X131929997Y-86521224D01*
X131913058Y-86539838D01*
X131892957Y-86574558D01*
X131880612Y-86612159D01*
X131874074Y-86650263D01*
X131871516Y-86693223D01*
X131871475Y-86699756D01*
X131871475Y-87071250D01*
X132020769Y-87071250D01*
X132020769Y-86722654D01*
X132022804Y-86685052D01*
X132031279Y-86648276D01*
X132037988Y-86634543D01*
X132066653Y-86610615D01*
X132090928Y-86606700D01*
X132127574Y-86614790D01*
X132155768Y-86639061D01*
X132158888Y-86643519D01*
X132174662Y-86677819D01*
X132182086Y-86717262D01*
X132183251Y-86743720D01*
X132183251Y-87071250D01*
X132332545Y-87071250D01*
X132332545Y-86496790D01*
G37*
G36*
X131364977Y-87071250D02*
G01*
X131405002Y-87070185D01*
X131444557Y-87066442D01*
X131481708Y-87059121D01*
X131497601Y-87054214D01*
X131531970Y-87036172D01*
X131558637Y-87007681D01*
X131565561Y-86995229D01*
X131577729Y-86959500D01*
X131583578Y-86922996D01*
X131585509Y-86884911D01*
X131585528Y-86880374D01*
X131585528Y-86618423D01*
X131732074Y-86618423D01*
X131732074Y-86496790D01*
X131585528Y-86496790D01*
X131585528Y-86340536D01*
X131435319Y-86274041D01*
X131435319Y-86496790D01*
X131238947Y-86496790D01*
X131238947Y-86618423D01*
X131435319Y-86618423D01*
X131435319Y-86880740D01*
X131428538Y-86916925D01*
X131416085Y-86933497D01*
X131380821Y-86947712D01*
X131354352Y-86949617D01*
X131238947Y-86949617D01*
X131238947Y-87071250D01*
X131364977Y-87071250D01*
G37*
D11*
G36*
X146678331Y-89418949D02*
G01*
X146437752Y-89418949D01*
X146316119Y-89867623D01*
X146195219Y-89418949D01*
X145953174Y-89418949D01*
X145953174Y-90435000D01*
X146126831Y-90435000D01*
X146126831Y-89627288D01*
X146234786Y-90065216D01*
X146395498Y-90065216D01*
X146504674Y-89627288D01*
X146504674Y-90435000D01*
X146678331Y-90435000D01*
X146678331Y-89418949D01*
G37*
G36*
X145515995Y-89654734D02*
G01*
X145564794Y-89659208D01*
X145613188Y-89666856D01*
X145656966Y-89676897D01*
X145705397Y-89691745D01*
X145754116Y-89710575D01*
X145754116Y-89882522D01*
X145716846Y-89864250D01*
X145671188Y-89845275D01*
X145621248Y-89828789D01*
X145583297Y-89819580D01*
X145531313Y-89811989D01*
X145482274Y-89809738D01*
X145462035Y-89810298D01*
X145412420Y-89816821D01*
X145400293Y-89819924D01*
X145357466Y-89843688D01*
X145348062Y-89854816D01*
X145335972Y-89903039D01*
X145335972Y-89934790D01*
X145474702Y-89934790D01*
X145509140Y-89935447D01*
X145559424Y-89938893D01*
X145608059Y-89945293D01*
X145627582Y-89948928D01*
X145675327Y-89962397D01*
X145721876Y-89983394D01*
X145731079Y-89988767D01*
X145771558Y-90021554D01*
X145801011Y-90061064D01*
X145815061Y-90091566D01*
X145826641Y-90139508D01*
X145830076Y-90190757D01*
X145830004Y-90198561D01*
X145825481Y-90249986D01*
X145811696Y-90301887D01*
X145788722Y-90346461D01*
X145756558Y-90383709D01*
X145751919Y-90387826D01*
X145711612Y-90416059D01*
X145665625Y-90435926D01*
X145613960Y-90447429D01*
X145564095Y-90450631D01*
X145529229Y-90449043D01*
X145479450Y-90440709D01*
X145432692Y-90425230D01*
X145407162Y-90412666D01*
X145364896Y-90382201D01*
X145331820Y-90345851D01*
X145322539Y-90392257D01*
X145303732Y-90435000D01*
X145105407Y-90435000D01*
X145111069Y-90426461D01*
X145128854Y-90380533D01*
X145131815Y-90366273D01*
X145138380Y-90316297D01*
X145138500Y-90314325D01*
X145140334Y-90264762D01*
X145140322Y-90258988D01*
X145139601Y-90209808D01*
X145139247Y-90191069D01*
X145138868Y-90140198D01*
X145138707Y-90106462D01*
X145138416Y-90088907D01*
X145335972Y-90088907D01*
X145335987Y-90092143D01*
X145340108Y-90143716D01*
X145350627Y-90191734D01*
X145368874Y-90235780D01*
X145400452Y-90276486D01*
X145404958Y-90280538D01*
X145448830Y-90303542D01*
X145498638Y-90309947D01*
X145542856Y-90304244D01*
X145585833Y-90280150D01*
X145609097Y-90243941D01*
X145616852Y-90195397D01*
X145612524Y-90156918D01*
X145586077Y-90113087D01*
X145558533Y-90095909D01*
X145509140Y-90081824D01*
X145465649Y-90077266D01*
X145415840Y-90075474D01*
X145335972Y-90075474D01*
X145335972Y-90088907D01*
X145138416Y-90088907D01*
X145137891Y-90057156D01*
X145137511Y-90039703D01*
X145136914Y-89989012D01*
X145137678Y-89953853D01*
X145142074Y-89901841D01*
X145151691Y-89849568D01*
X145168177Y-89799235D01*
X145194496Y-89752749D01*
X145230800Y-89715382D01*
X145272469Y-89689326D01*
X145312281Y-89673618D01*
X145364951Y-89661311D01*
X145418776Y-89655140D01*
X145471283Y-89653422D01*
X145515995Y-89654734D01*
G37*
G36*
X144512141Y-89777254D02*
G01*
X144531440Y-89748231D01*
X144569346Y-89706752D01*
X144612511Y-89677124D01*
X144660935Y-89659348D01*
X144714618Y-89653422D01*
X144746053Y-89655075D01*
X144796895Y-89665919D01*
X144842431Y-89686885D01*
X144882661Y-89717971D01*
X144917584Y-89759180D01*
X144938834Y-89794232D01*
X144959579Y-89841585D01*
X144975138Y-89894708D01*
X144984142Y-89943384D01*
X144989545Y-89996068D01*
X144991346Y-90052759D01*
X144990205Y-90097925D01*
X144985569Y-90150894D01*
X144977367Y-90199987D01*
X144962819Y-90253783D01*
X144943135Y-90301997D01*
X144918317Y-90344630D01*
X144899125Y-90369474D01*
X144861333Y-90404980D01*
X144818188Y-90430342D01*
X144769690Y-90445559D01*
X144715840Y-90450631D01*
X144673901Y-90447441D01*
X144621478Y-90432256D01*
X144576395Y-90404565D01*
X144538651Y-90364368D01*
X144512141Y-90319961D01*
X144492357Y-90435000D01*
X144312595Y-90435000D01*
X144312595Y-90052027D01*
X144512141Y-90052027D01*
X144512478Y-90071757D01*
X144517534Y-90126467D01*
X144530266Y-90179371D01*
X144550487Y-90223974D01*
X144563085Y-90242549D01*
X144601587Y-90276112D01*
X144652337Y-90288454D01*
X144675008Y-90286161D01*
X144721163Y-90262980D01*
X144753209Y-90223241D01*
X144764115Y-90201765D01*
X144780382Y-90152229D01*
X144788700Y-90100143D01*
X144791066Y-90047875D01*
X144790747Y-90028037D01*
X144786766Y-89979081D01*
X144775394Y-89925958D01*
X144754674Y-89877882D01*
X144742564Y-89859939D01*
X144704880Y-89827521D01*
X144654290Y-89815600D01*
X144627129Y-89818697D01*
X144583384Y-89840883D01*
X144550732Y-89880324D01*
X144539614Y-89901518D01*
X144523032Y-89950166D01*
X144514553Y-90001087D01*
X144512141Y-90052027D01*
X144312595Y-90052027D01*
X144312595Y-89372055D01*
X144512141Y-89372055D01*
X144512141Y-89777254D01*
G37*
G36*
X143902511Y-89575265D02*
G01*
X143923027Y-89554748D01*
X143923027Y-89361308D01*
X143902511Y-89340792D01*
X143743265Y-89340792D01*
X143722748Y-89361308D01*
X143722748Y-89554748D01*
X143743265Y-89575265D01*
X143902511Y-89575265D01*
G37*
G36*
X143655581Y-90435000D02*
G01*
X143706171Y-90432441D01*
X143758095Y-90422987D01*
X143808077Y-90403654D01*
X143848076Y-90375222D01*
X143860501Y-90362215D01*
X143887856Y-90319946D01*
X143905381Y-90273518D01*
X143916921Y-90218279D01*
X143922050Y-90163917D01*
X143923027Y-90124078D01*
X143923027Y-89831231D01*
X144084960Y-89831231D01*
X144084960Y-89669054D01*
X143722748Y-89669054D01*
X143722748Y-90111622D01*
X143719981Y-90160995D01*
X143708112Y-90210775D01*
X143694416Y-90235697D01*
X143653438Y-90264665D01*
X143603750Y-90272786D01*
X143599650Y-90272822D01*
X143439671Y-90272822D01*
X143439671Y-90435000D01*
X143655581Y-90435000D01*
G37*
G36*
X142952406Y-90450631D02*
G01*
X143001762Y-90449008D01*
X143053111Y-90444140D01*
X143106451Y-90436025D01*
X143161784Y-90424665D01*
X143209416Y-90412719D01*
X143238659Y-90404469D01*
X143238659Y-90233011D01*
X143188167Y-90259157D01*
X143137623Y-90279894D01*
X143087027Y-90295221D01*
X143036380Y-90305139D01*
X142985682Y-90309647D01*
X142968771Y-90309947D01*
X142913858Y-90305962D01*
X142863075Y-90289125D01*
X142831283Y-90250654D01*
X142827842Y-90226660D01*
X142846664Y-90179674D01*
X142861304Y-90167554D01*
X142906611Y-90146427D01*
X142956139Y-90132344D01*
X142975609Y-90127986D01*
X143030808Y-90115530D01*
X143082443Y-90101322D01*
X143137304Y-90077948D01*
X143181409Y-90048337D01*
X143214756Y-90012489D01*
X143240573Y-89961238D01*
X143250255Y-89911668D01*
X143251115Y-89890094D01*
X143246017Y-89836360D01*
X143230721Y-89789221D01*
X143201325Y-89744073D01*
X143169538Y-89714727D01*
X143124033Y-89687906D01*
X143076677Y-89670724D01*
X143022286Y-89659409D01*
X142970064Y-89654380D01*
X142932378Y-89653422D01*
X142883328Y-89655115D01*
X142831316Y-89660725D01*
X142812944Y-89663681D01*
X142764433Y-89673950D01*
X142714551Y-89688090D01*
X142691066Y-89695921D01*
X142691066Y-89870554D01*
X142735523Y-89843191D01*
X142781900Y-89820835D01*
X142806105Y-89811936D01*
X142854604Y-89799748D01*
X142904787Y-89794385D01*
X142919434Y-89794106D01*
X142969799Y-89797371D01*
X143017510Y-89810354D01*
X143024702Y-89813890D01*
X143058666Y-89849395D01*
X143061583Y-89867135D01*
X143038687Y-89911265D01*
X143026900Y-89919891D01*
X142981532Y-89940957D01*
X142933802Y-89955234D01*
X142915281Y-89959703D01*
X142850313Y-89975334D01*
X142799068Y-89990340D01*
X142750285Y-90011856D01*
X142707094Y-90041518D01*
X142689845Y-90058621D01*
X142661061Y-90102301D01*
X142645261Y-90149623D01*
X142639485Y-90198412D01*
X142639287Y-90210052D01*
X142644179Y-90266438D01*
X142658857Y-90315305D01*
X142690964Y-90365817D01*
X142738360Y-90404583D01*
X142787285Y-90427137D01*
X142845995Y-90442173D01*
X142896448Y-90448517D01*
X142952406Y-90450631D01*
G37*
G36*
X142142213Y-89655140D02*
G01*
X142192634Y-89662772D01*
X142244905Y-89678658D01*
X142292462Y-89702271D01*
X142316603Y-89718526D01*
X142355547Y-89752774D01*
X142388696Y-89793436D01*
X142416049Y-89840512D01*
X142421314Y-89851817D01*
X142438975Y-89899651D01*
X142451203Y-89951667D01*
X142457444Y-90000612D01*
X142459524Y-90052759D01*
X142459482Y-90060345D01*
X142456838Y-90111653D01*
X142448778Y-90166454D01*
X142435344Y-90217165D01*
X142416538Y-90263785D01*
X142402139Y-90290660D01*
X142371745Y-90334077D01*
X142335593Y-90371117D01*
X142293683Y-90401782D01*
X142257457Y-90420816D01*
X142206794Y-90438419D01*
X142157900Y-90447578D01*
X142105372Y-90450631D01*
X142065404Y-90448914D01*
X142015426Y-90441281D01*
X141963726Y-90425396D01*
X141916817Y-90401782D01*
X141892887Y-90385510D01*
X141854232Y-90351139D01*
X141821257Y-90310239D01*
X141793963Y-90262808D01*
X141788698Y-90251410D01*
X141771036Y-90203164D01*
X141758809Y-90150675D01*
X141752568Y-90101266D01*
X141750622Y-90052027D01*
X141950766Y-90052027D01*
X141951415Y-90078500D01*
X141957619Y-90132959D01*
X141970392Y-90180347D01*
X141992288Y-90224706D01*
X142011772Y-90249545D01*
X142055524Y-90279489D01*
X142104639Y-90288454D01*
X142134332Y-90285392D01*
X142182034Y-90263457D01*
X142217480Y-90224462D01*
X142229512Y-90203315D01*
X142247458Y-90154581D01*
X142256635Y-90103379D01*
X142259245Y-90052027D01*
X142258593Y-90025557D01*
X142252352Y-89971135D01*
X142239504Y-89923822D01*
X142217480Y-89879591D01*
X142194765Y-89851595D01*
X142153824Y-89824598D01*
X142104639Y-89815600D01*
X142074970Y-89818638D01*
X142027436Y-89840406D01*
X141992288Y-89879103D01*
X141980326Y-89900069D01*
X141962485Y-89948726D01*
X141953362Y-90000186D01*
X141950766Y-90052027D01*
X141750622Y-90052027D01*
X141750487Y-90048607D01*
X141750529Y-90040978D01*
X141753143Y-89989439D01*
X141761112Y-89934546D01*
X141774393Y-89883927D01*
X141792986Y-89837581D01*
X141807090Y-89810877D01*
X141837017Y-89767858D01*
X141872778Y-89731330D01*
X141914374Y-89701294D01*
X141950315Y-89682641D01*
X142000714Y-89665390D01*
X142049471Y-89656414D01*
X142101953Y-89653422D01*
X142142213Y-89655140D01*
G37*
G36*
X141566817Y-89669054D02*
G01*
X141387542Y-89669054D01*
X141367759Y-89786046D01*
X141345219Y-89738971D01*
X141312925Y-89701731D01*
X141294730Y-89687861D01*
X141249307Y-89665563D01*
X141200724Y-89655070D01*
X141169434Y-89653422D01*
X141119379Y-89657987D01*
X141070695Y-89674033D01*
X141030086Y-89701633D01*
X141007501Y-89726451D01*
X140980699Y-89772744D01*
X140964240Y-89822879D01*
X140955523Y-89873684D01*
X140952112Y-89930964D01*
X140952057Y-89939675D01*
X140952057Y-90435000D01*
X141151115Y-90435000D01*
X141151115Y-89970205D01*
X141153828Y-89920069D01*
X141165128Y-89871035D01*
X141174074Y-89852725D01*
X141212294Y-89820820D01*
X141244660Y-89815600D01*
X141293522Y-89826387D01*
X141331114Y-89858748D01*
X141335274Y-89864692D01*
X141356307Y-89910425D01*
X141366204Y-89963016D01*
X141367759Y-89998293D01*
X141367759Y-90435000D01*
X141566817Y-90435000D01*
X141566817Y-89669054D01*
G37*
G36*
X139507849Y-90450631D02*
G01*
X139567180Y-90447316D01*
X139622133Y-90437369D01*
X139672710Y-90420792D01*
X139718910Y-90397585D01*
X139760733Y-90367746D01*
X139798179Y-90331276D01*
X139811932Y-90314832D01*
X139841770Y-90271197D01*
X139864832Y-90226746D01*
X139884300Y-90177388D01*
X139891799Y-90153876D01*
X139904195Y-90103638D01*
X139913048Y-90048913D01*
X139917890Y-89997346D01*
X139920021Y-89942344D01*
X139920131Y-89925997D01*
X139918422Y-89864154D01*
X139913293Y-89806120D01*
X139904744Y-89751894D01*
X139892776Y-89701477D01*
X139877389Y-89654869D01*
X139853346Y-89601964D01*
X139823961Y-89555011D01*
X139810711Y-89537896D01*
X139774263Y-89499126D01*
X139733307Y-89466927D01*
X139687843Y-89441299D01*
X139637871Y-89422243D01*
X139583391Y-89409757D01*
X139524403Y-89403843D01*
X139499545Y-89403318D01*
X139447685Y-89406301D01*
X139397680Y-89415249D01*
X139375226Y-89421392D01*
X139327859Y-89439134D01*
X139283394Y-89462197D01*
X139263851Y-89474637D01*
X139263851Y-89698852D01*
X139297293Y-89662261D01*
X139337476Y-89630993D01*
X139360815Y-89617763D01*
X139406728Y-89600368D01*
X139456752Y-89591841D01*
X139481227Y-89590896D01*
X139535312Y-89596086D01*
X139582038Y-89611657D01*
X139625811Y-89641581D01*
X139653418Y-89673939D01*
X139678209Y-89721383D01*
X139694090Y-89771412D01*
X139703387Y-89820619D01*
X139708699Y-89875665D01*
X139710083Y-89925997D01*
X139708747Y-89975428D01*
X139703618Y-90029833D01*
X139694642Y-90078880D01*
X139679308Y-90129330D01*
X139655372Y-90178056D01*
X139624073Y-90216155D01*
X139590159Y-90241071D01*
X139543829Y-90258223D01*
X139495393Y-90263053D01*
X139467549Y-90261831D01*
X139441415Y-90256946D01*
X139418945Y-90249863D01*
X139403802Y-90240338D01*
X139403802Y-90050073D01*
X139542043Y-90050073D01*
X139542043Y-89887896D01*
X139227459Y-89887896D01*
X139227459Y-90346828D01*
X139268808Y-90379089D01*
X139312928Y-90405347D01*
X139355442Y-90424009D01*
X139402661Y-90438479D01*
X139427982Y-90443792D01*
X139479018Y-90449823D01*
X139507849Y-90450631D01*
G37*
G36*
X138619294Y-90435000D02*
G01*
X138669801Y-90432415D01*
X138721649Y-90422866D01*
X138771574Y-90403338D01*
X138811546Y-90374621D01*
X138823969Y-90361482D01*
X138851325Y-90318786D01*
X138868849Y-90271884D01*
X138880390Y-90216077D01*
X138885519Y-90161154D01*
X138886496Y-90120903D01*
X138886496Y-89534232D01*
X139089461Y-89534232D01*
X139089461Y-89372055D01*
X138686217Y-89372055D01*
X138686217Y-90109912D01*
X138683450Y-90159825D01*
X138671580Y-90210091D01*
X138657884Y-90235209D01*
X138617028Y-90264558D01*
X138567233Y-90272786D01*
X138563118Y-90272822D01*
X138403139Y-90272822D01*
X138403139Y-90435000D01*
X138619294Y-90435000D01*
G37*
G36*
X137894704Y-89653619D02*
G01*
X137947073Y-89657402D01*
X137995376Y-89666001D01*
X138045598Y-89681724D01*
X138090508Y-89703736D01*
X138120639Y-89723938D01*
X138160329Y-89759586D01*
X138193411Y-89801647D01*
X138217270Y-89844420D01*
X138222387Y-89855838D01*
X138239553Y-89903931D01*
X138251437Y-89955901D01*
X138257502Y-90004556D01*
X138259524Y-90056179D01*
X138257918Y-90102699D01*
X138251391Y-90156879D01*
X138239843Y-90206646D01*
X138219358Y-90260541D01*
X138191643Y-90308083D01*
X138156698Y-90349270D01*
X138122251Y-90378471D01*
X138074807Y-90406979D01*
X138020700Y-90428359D01*
X137970520Y-90440733D01*
X137915713Y-90448156D01*
X137856279Y-90450631D01*
X137837870Y-90450404D01*
X137783022Y-90446998D01*
X137728740Y-90439505D01*
X137675024Y-90427924D01*
X137621876Y-90412256D01*
X137569294Y-90392501D01*
X137569294Y-90212250D01*
X137586778Y-90221478D01*
X137639117Y-90245589D01*
X137691284Y-90264342D01*
X137743279Y-90277738D01*
X137795102Y-90285775D01*
X137846754Y-90288454D01*
X137884117Y-90286994D01*
X137938223Y-90278073D01*
X137989674Y-90256664D01*
X138026425Y-90223577D01*
X138048476Y-90178812D01*
X138055826Y-90122369D01*
X137537054Y-90122369D01*
X137537054Y-90040547D01*
X137537095Y-90033355D01*
X137539680Y-89984570D01*
X137542463Y-89966053D01*
X137738799Y-89966053D01*
X138053872Y-89966053D01*
X138050677Y-89944272D01*
X138034612Y-89895230D01*
X138004779Y-89854678D01*
X137987992Y-89841398D01*
X137940074Y-89821095D01*
X137889252Y-89815600D01*
X137871644Y-89816195D01*
X137821691Y-89826353D01*
X137777877Y-89853702D01*
X137764597Y-89869261D01*
X137744294Y-89915449D01*
X137738799Y-89966053D01*
X137542463Y-89966053D01*
X137547556Y-89932165D01*
X137560684Y-89883331D01*
X137579064Y-89838070D01*
X137593038Y-89811828D01*
X137622461Y-89769281D01*
X137657370Y-89732762D01*
X137697766Y-89702271D01*
X137727430Y-89685670D01*
X137775661Y-89667209D01*
X137828375Y-89656475D01*
X137878994Y-89653422D01*
X137894704Y-89653619D01*
G37*
G36*
X137380006Y-90560052D02*
G01*
X137358024Y-90560052D01*
X137337508Y-90560052D01*
X137287482Y-90558893D01*
X137256907Y-90556388D01*
X137210356Y-90540721D01*
X137206593Y-90538070D01*
X137175391Y-90499762D01*
X137171422Y-90492152D01*
X137151138Y-90445955D01*
X137135274Y-90404225D01*
X137426412Y-89669054D01*
X137215875Y-89669054D01*
X137040752Y-90161448D01*
X136873446Y-89669054D01*
X136662909Y-89669054D01*
X136980669Y-90510959D01*
X137000397Y-90557335D01*
X137023678Y-90600718D01*
X137030983Y-90612564D01*
X137062138Y-90652449D01*
X137099733Y-90684177D01*
X137105233Y-90687791D01*
X137151239Y-90708302D01*
X137202410Y-90716116D01*
X137214409Y-90716367D01*
X137380006Y-90716367D01*
X137380006Y-90560052D01*
G37*
G36*
X136090648Y-89777254D02*
G01*
X136109947Y-89748231D01*
X136147852Y-89706752D01*
X136191017Y-89677124D01*
X136239442Y-89659348D01*
X136293125Y-89653422D01*
X136324560Y-89655075D01*
X136375402Y-89665919D01*
X136420938Y-89686885D01*
X136461167Y-89717971D01*
X136496091Y-89759180D01*
X136517341Y-89794232D01*
X136538086Y-89841585D01*
X136553645Y-89894708D01*
X136562649Y-89943384D01*
X136568051Y-89996068D01*
X136569852Y-90052759D01*
X136568711Y-90097925D01*
X136564076Y-90150894D01*
X136555874Y-90199987D01*
X136541325Y-90253783D01*
X136521642Y-90301997D01*
X136496824Y-90344630D01*
X136477632Y-90369474D01*
X136439839Y-90404980D01*
X136396695Y-90430342D01*
X136348197Y-90445559D01*
X136294346Y-90450631D01*
X136252408Y-90447441D01*
X136199985Y-90432256D01*
X136154901Y-90404565D01*
X136117158Y-90364368D01*
X136090648Y-90319961D01*
X136070864Y-90435000D01*
X135891101Y-90435000D01*
X135891101Y-90052027D01*
X136090648Y-90052027D01*
X136090985Y-90071757D01*
X136096040Y-90126467D01*
X136108772Y-90179371D01*
X136128994Y-90223974D01*
X136141591Y-90242549D01*
X136180093Y-90276112D01*
X136230843Y-90288454D01*
X136253515Y-90286161D01*
X136299670Y-90262980D01*
X136331715Y-90223241D01*
X136342622Y-90201765D01*
X136358889Y-90152229D01*
X136367207Y-90100143D01*
X136369573Y-90047875D01*
X136369253Y-90028037D01*
X136365273Y-89979081D01*
X136353900Y-89925958D01*
X136333181Y-89877882D01*
X136321070Y-89859939D01*
X136283387Y-89827521D01*
X136232797Y-89815600D01*
X136205636Y-89818697D01*
X136161890Y-89840883D01*
X136129238Y-89880324D01*
X136118121Y-89901518D01*
X136101539Y-89950166D01*
X136093060Y-90001087D01*
X136090648Y-90052027D01*
X135891101Y-90052027D01*
X135891101Y-89372055D01*
X136090648Y-89372055D01*
X136090648Y-89777254D01*
G37*
G36*
X135461234Y-90450631D02*
G01*
X135511334Y-90446067D01*
X135560180Y-90430020D01*
X135601065Y-90402421D01*
X135623900Y-90377602D01*
X135650937Y-90331151D01*
X135667542Y-90281070D01*
X135676336Y-90230461D01*
X135679777Y-90173519D01*
X135679831Y-90164867D01*
X135679831Y-89669054D01*
X135479552Y-89669054D01*
X135479552Y-90135069D01*
X135476238Y-90187196D01*
X135461507Y-90239922D01*
X135426521Y-90278867D01*
X135385274Y-90288454D01*
X135337100Y-90277989D01*
X135298135Y-90243757D01*
X135296126Y-90240826D01*
X135275410Y-90195683D01*
X135265661Y-90142921D01*
X135264130Y-90107226D01*
X135264130Y-89669054D01*
X135063851Y-89669054D01*
X135063851Y-90435000D01*
X135244346Y-90435000D01*
X135264130Y-90319961D01*
X135285050Y-90364368D01*
X135318812Y-90404565D01*
X135362648Y-90432256D01*
X135416558Y-90447441D01*
X135461234Y-90450631D01*
G37*
G36*
X134782239Y-89669054D02*
G01*
X134601988Y-89669054D01*
X134581960Y-89784581D01*
X134555616Y-89741934D01*
X134520548Y-89707049D01*
X134492323Y-89688105D01*
X134443974Y-89666970D01*
X134394525Y-89656166D01*
X134350418Y-89653422D01*
X134298969Y-89656952D01*
X134249954Y-89667543D01*
X134203371Y-89685193D01*
X134194346Y-89689570D01*
X134194346Y-89882278D01*
X134234942Y-89850046D01*
X134281990Y-89828362D01*
X134335492Y-89817228D01*
X134368003Y-89815600D01*
X134419127Y-89819511D01*
X134467925Y-89832850D01*
X134508931Y-89855655D01*
X134543644Y-89890494D01*
X134566817Y-89935294D01*
X134575854Y-89970694D01*
X134580250Y-90013681D01*
X134581878Y-90062631D01*
X134581960Y-90079382D01*
X134581960Y-90435000D01*
X134782239Y-90435000D01*
X134782239Y-89669054D01*
G37*
G36*
X133725905Y-89654734D02*
G01*
X133774703Y-89659208D01*
X133823097Y-89666856D01*
X133866875Y-89676897D01*
X133915306Y-89691745D01*
X133964025Y-89710575D01*
X133964025Y-89882522D01*
X133926755Y-89864250D01*
X133881097Y-89845275D01*
X133831157Y-89828789D01*
X133793206Y-89819580D01*
X133741223Y-89811989D01*
X133692183Y-89809738D01*
X133671944Y-89810298D01*
X133622330Y-89816821D01*
X133610202Y-89819924D01*
X133567375Y-89843688D01*
X133557972Y-89854816D01*
X133545882Y-89903039D01*
X133545882Y-89934790D01*
X133684612Y-89934790D01*
X133719050Y-89935447D01*
X133769333Y-89938893D01*
X133817968Y-89945293D01*
X133837491Y-89948928D01*
X133885236Y-89962397D01*
X133931785Y-89983394D01*
X133940989Y-89988767D01*
X133981468Y-90021554D01*
X134010920Y-90061064D01*
X134024970Y-90091566D01*
X134036550Y-90139508D01*
X134039985Y-90190757D01*
X134039913Y-90198561D01*
X134035390Y-90249986D01*
X134021606Y-90301887D01*
X133998631Y-90346461D01*
X133966468Y-90383709D01*
X133961829Y-90387826D01*
X133921521Y-90416059D01*
X133875535Y-90435926D01*
X133823870Y-90447429D01*
X133774004Y-90450631D01*
X133739139Y-90449043D01*
X133689359Y-90440709D01*
X133642602Y-90425230D01*
X133617071Y-90412666D01*
X133574805Y-90382201D01*
X133541729Y-90345851D01*
X133532448Y-90392257D01*
X133513642Y-90435000D01*
X133315316Y-90435000D01*
X133320978Y-90426461D01*
X133338764Y-90380533D01*
X133341724Y-90366273D01*
X133348289Y-90316297D01*
X133348409Y-90314325D01*
X133350243Y-90264762D01*
X133350232Y-90258988D01*
X133349510Y-90209808D01*
X133349156Y-90191069D01*
X133348778Y-90140198D01*
X133348616Y-90106462D01*
X133348326Y-90088907D01*
X133545882Y-90088907D01*
X133545896Y-90092143D01*
X133550017Y-90143716D01*
X133560536Y-90191734D01*
X133578783Y-90235780D01*
X133610362Y-90276486D01*
X133614867Y-90280538D01*
X133658739Y-90303542D01*
X133708547Y-90309947D01*
X133752766Y-90304244D01*
X133795742Y-90280150D01*
X133819006Y-90243941D01*
X133826761Y-90195397D01*
X133822433Y-90156918D01*
X133795986Y-90113087D01*
X133768442Y-90095909D01*
X133719050Y-90081824D01*
X133675558Y-90077266D01*
X133625749Y-90075474D01*
X133545882Y-90075474D01*
X133545882Y-90088907D01*
X133348326Y-90088907D01*
X133347801Y-90057156D01*
X133347420Y-90039703D01*
X133346824Y-89989012D01*
X133347587Y-89953853D01*
X133351983Y-89901841D01*
X133361600Y-89849568D01*
X133378087Y-89799235D01*
X133404405Y-89752749D01*
X133440709Y-89715382D01*
X133482378Y-89689326D01*
X133522190Y-89673618D01*
X133574861Y-89661311D01*
X133628686Y-89655140D01*
X133681192Y-89653422D01*
X133725905Y-89654734D01*
G37*
G36*
X146257257Y-91098949D02*
G01*
X146016678Y-91098949D01*
X145895045Y-91547623D01*
X145774145Y-91098949D01*
X145532100Y-91098949D01*
X145532100Y-92115000D01*
X145705757Y-92115000D01*
X145705757Y-91307288D01*
X145813712Y-91745216D01*
X145974424Y-91745216D01*
X146083600Y-91307288D01*
X146083600Y-92115000D01*
X146257257Y-92115000D01*
X146257257Y-91098949D01*
G37*
G36*
X145094921Y-91334734D02*
G01*
X145143720Y-91339208D01*
X145192114Y-91346856D01*
X145235892Y-91356897D01*
X145284323Y-91371745D01*
X145333042Y-91390575D01*
X145333042Y-91562522D01*
X145295772Y-91544250D01*
X145250114Y-91525275D01*
X145200174Y-91508789D01*
X145162223Y-91499580D01*
X145110239Y-91491989D01*
X145061200Y-91489738D01*
X145040961Y-91490298D01*
X144991346Y-91496821D01*
X144979219Y-91499924D01*
X144936392Y-91523688D01*
X144926988Y-91534816D01*
X144914898Y-91583039D01*
X144914898Y-91614790D01*
X145053628Y-91614790D01*
X145088066Y-91615447D01*
X145138350Y-91618893D01*
X145186985Y-91625293D01*
X145206508Y-91628928D01*
X145254253Y-91642397D01*
X145300802Y-91663394D01*
X145310005Y-91668767D01*
X145350484Y-91701554D01*
X145379937Y-91741064D01*
X145393987Y-91771566D01*
X145405567Y-91819508D01*
X145409002Y-91870757D01*
X145408930Y-91878561D01*
X145404407Y-91929986D01*
X145390622Y-91981887D01*
X145367648Y-92026461D01*
X145335484Y-92063709D01*
X145330845Y-92067826D01*
X145290538Y-92096059D01*
X145244551Y-92115926D01*
X145192886Y-92127429D01*
X145143021Y-92130631D01*
X145108155Y-92129043D01*
X145058376Y-92120709D01*
X145011618Y-92105230D01*
X144986088Y-92092666D01*
X144943822Y-92062201D01*
X144910746Y-92025851D01*
X144901465Y-92072257D01*
X144882658Y-92115000D01*
X144684333Y-92115000D01*
X144689995Y-92106461D01*
X144707780Y-92060533D01*
X144710741Y-92046273D01*
X144717306Y-91996297D01*
X144717426Y-91994325D01*
X144719260Y-91944762D01*
X144719248Y-91938988D01*
X144718527Y-91889808D01*
X144718173Y-91871069D01*
X144717794Y-91820198D01*
X144717633Y-91786462D01*
X144717342Y-91768907D01*
X144914898Y-91768907D01*
X144914913Y-91772143D01*
X144919034Y-91823716D01*
X144929553Y-91871734D01*
X144947800Y-91915780D01*
X144979378Y-91956486D01*
X144983884Y-91960538D01*
X145027756Y-91983542D01*
X145077564Y-91989947D01*
X145121782Y-91984244D01*
X145164759Y-91960150D01*
X145188023Y-91923941D01*
X145195778Y-91875397D01*
X145191450Y-91836918D01*
X145165003Y-91793087D01*
X145137459Y-91775909D01*
X145088066Y-91761824D01*
X145044575Y-91757266D01*
X144994766Y-91755474D01*
X144914898Y-91755474D01*
X144914898Y-91768907D01*
X144717342Y-91768907D01*
X144716817Y-91737156D01*
X144716437Y-91719703D01*
X144715840Y-91669012D01*
X144716604Y-91633853D01*
X144721000Y-91581841D01*
X144730617Y-91529568D01*
X144747103Y-91479235D01*
X144773422Y-91432749D01*
X144809726Y-91395382D01*
X144851395Y-91369326D01*
X144891207Y-91353618D01*
X144943877Y-91341311D01*
X144997702Y-91335140D01*
X145050209Y-91333422D01*
X145094921Y-91334734D01*
G37*
G36*
X144215631Y-92130631D02*
G01*
X144264987Y-92129008D01*
X144316335Y-92124140D01*
X144369676Y-92116025D01*
X144425008Y-92104665D01*
X144472640Y-92092719D01*
X144501884Y-92084469D01*
X144501884Y-91913011D01*
X144451391Y-91939157D01*
X144400847Y-91959894D01*
X144350252Y-91975221D01*
X144299605Y-91985139D01*
X144248906Y-91989647D01*
X144231995Y-91989947D01*
X144177083Y-91985962D01*
X144126299Y-91969125D01*
X144094508Y-91930654D01*
X144091067Y-91906660D01*
X144109889Y-91859674D01*
X144124528Y-91847554D01*
X144169835Y-91826427D01*
X144219363Y-91812344D01*
X144238834Y-91807986D01*
X144294033Y-91795530D01*
X144345667Y-91781322D01*
X144400529Y-91757948D01*
X144444633Y-91728337D01*
X144477981Y-91692489D01*
X144503798Y-91641238D01*
X144513479Y-91591668D01*
X144514340Y-91570094D01*
X144509241Y-91516360D01*
X144493946Y-91469221D01*
X144464549Y-91424073D01*
X144432763Y-91394727D01*
X144387257Y-91367906D01*
X144339902Y-91350724D01*
X144285510Y-91339409D01*
X144233289Y-91334380D01*
X144195603Y-91333422D01*
X144146553Y-91335115D01*
X144094540Y-91340725D01*
X144076168Y-91343681D01*
X144027657Y-91353950D01*
X143977776Y-91368090D01*
X143954291Y-91375921D01*
X143954291Y-91550554D01*
X143998747Y-91523191D01*
X144045125Y-91500835D01*
X144069330Y-91491936D01*
X144117829Y-91479748D01*
X144168011Y-91474385D01*
X144182658Y-91474106D01*
X144233024Y-91477371D01*
X144280735Y-91490354D01*
X144287927Y-91493890D01*
X144321890Y-91529395D01*
X144324808Y-91547135D01*
X144301912Y-91591265D01*
X144290125Y-91599891D01*
X144244757Y-91620957D01*
X144197027Y-91635234D01*
X144178506Y-91639703D01*
X144113538Y-91655334D01*
X144062292Y-91670340D01*
X144013509Y-91691856D01*
X143970318Y-91721518D01*
X143953070Y-91738621D01*
X143924285Y-91782301D01*
X143908486Y-91829623D01*
X143902709Y-91878412D01*
X143902512Y-91890052D01*
X143907404Y-91946438D01*
X143922082Y-91995305D01*
X143954189Y-92045817D01*
X144001585Y-92084583D01*
X144050509Y-92107137D01*
X144109219Y-92122173D01*
X144159673Y-92128517D01*
X144215631Y-92130631D01*
G37*
G36*
X143224249Y-92115000D02*
G01*
X143277616Y-92113580D01*
X143330356Y-92108589D01*
X143379891Y-92098829D01*
X143401081Y-92092285D01*
X143446907Y-92068229D01*
X143482463Y-92030242D01*
X143491695Y-92013639D01*
X143507918Y-91966000D01*
X143515718Y-91917328D01*
X143518292Y-91866548D01*
X143518318Y-91860498D01*
X143518318Y-91511231D01*
X143713712Y-91511231D01*
X143713712Y-91349054D01*
X143518318Y-91349054D01*
X143518318Y-91140715D01*
X143318039Y-91052055D01*
X143318039Y-91349054D01*
X143056210Y-91349054D01*
X143056210Y-91511231D01*
X143318039Y-91511231D01*
X143318039Y-91860987D01*
X143308998Y-91909233D01*
X143292393Y-91931329D01*
X143245375Y-91950283D01*
X143210083Y-91952822D01*
X143056210Y-91952822D01*
X143056210Y-92115000D01*
X143224249Y-92115000D01*
G37*
G36*
X142526526Y-91333619D02*
G01*
X142578895Y-91337402D01*
X142627198Y-91346001D01*
X142677420Y-91361724D01*
X142722330Y-91383736D01*
X142752461Y-91403938D01*
X142792151Y-91439586D01*
X142825233Y-91481647D01*
X142849092Y-91524420D01*
X142854209Y-91535838D01*
X142871375Y-91583931D01*
X142883259Y-91635901D01*
X142889324Y-91684556D01*
X142891346Y-91736179D01*
X142889740Y-91782699D01*
X142883213Y-91836879D01*
X142871665Y-91886646D01*
X142851180Y-91940541D01*
X142823465Y-91988083D01*
X142788520Y-92029270D01*
X142754073Y-92058471D01*
X142706629Y-92086979D01*
X142652522Y-92108359D01*
X142602342Y-92120733D01*
X142547535Y-92128156D01*
X142488101Y-92130631D01*
X142469693Y-92130404D01*
X142414844Y-92126998D01*
X142360562Y-92119505D01*
X142306846Y-92107924D01*
X142253698Y-92092256D01*
X142201116Y-92072501D01*
X142201116Y-91892250D01*
X142218600Y-91901478D01*
X142270939Y-91925589D01*
X142323106Y-91944342D01*
X142375101Y-91957738D01*
X142426924Y-91965775D01*
X142478576Y-91968454D01*
X142515939Y-91966994D01*
X142570045Y-91958073D01*
X142621496Y-91936664D01*
X142658247Y-91903577D01*
X142680298Y-91858812D01*
X142687648Y-91802369D01*
X142168876Y-91802369D01*
X142168876Y-91720547D01*
X142168917Y-91713355D01*
X142171502Y-91664570D01*
X142174285Y-91646053D01*
X142370621Y-91646053D01*
X142685694Y-91646053D01*
X142682499Y-91624272D01*
X142666434Y-91575230D01*
X142636601Y-91534678D01*
X142619814Y-91521398D01*
X142571896Y-91501095D01*
X142521074Y-91495600D01*
X142503466Y-91496195D01*
X142453513Y-91506353D01*
X142409699Y-91533702D01*
X142396419Y-91549261D01*
X142376116Y-91595449D01*
X142370621Y-91646053D01*
X142174285Y-91646053D01*
X142179378Y-91612165D01*
X142192506Y-91563331D01*
X142210886Y-91518070D01*
X142224861Y-91491828D01*
X142254283Y-91449281D01*
X142289192Y-91412762D01*
X142329588Y-91382271D01*
X142359252Y-91365670D01*
X142407483Y-91347209D01*
X142460197Y-91336475D01*
X142510816Y-91333422D01*
X142526526Y-91333619D01*
G37*
G36*
X141940509Y-91349054D02*
G01*
X141760258Y-91349054D01*
X141740230Y-91464581D01*
X141713886Y-91421934D01*
X141678818Y-91387049D01*
X141650593Y-91368105D01*
X141602244Y-91346970D01*
X141552795Y-91336166D01*
X141508688Y-91333422D01*
X141457239Y-91336952D01*
X141408224Y-91347543D01*
X141361641Y-91365193D01*
X141352616Y-91369570D01*
X141352616Y-91562278D01*
X141393212Y-91530046D01*
X141440260Y-91508362D01*
X141493762Y-91497228D01*
X141526273Y-91495600D01*
X141577397Y-91499511D01*
X141626195Y-91512850D01*
X141667201Y-91535655D01*
X141701914Y-91570494D01*
X141725087Y-91615294D01*
X141734124Y-91650694D01*
X141738520Y-91693681D01*
X141740148Y-91742631D01*
X141740230Y-91759382D01*
X141740230Y-92115000D01*
X141940509Y-92115000D01*
X141940509Y-91349054D01*
G37*
G36*
X140930320Y-91098949D02*
G01*
X140755198Y-91098949D01*
X140755198Y-91474106D01*
X140930320Y-91474106D01*
X140930320Y-91098949D01*
G37*
G36*
X140004884Y-92130631D02*
G01*
X140054240Y-92129008D01*
X140105589Y-92124140D01*
X140158929Y-92116025D01*
X140214262Y-92104665D01*
X140261894Y-92092719D01*
X140291137Y-92084469D01*
X140291137Y-91913011D01*
X140240645Y-91939157D01*
X140190101Y-91959894D01*
X140139505Y-91975221D01*
X140088858Y-91985139D01*
X140038160Y-91989647D01*
X140021249Y-91989947D01*
X139966336Y-91985962D01*
X139915553Y-91969125D01*
X139883761Y-91930654D01*
X139880320Y-91906660D01*
X139899142Y-91859674D01*
X139913782Y-91847554D01*
X139959089Y-91826427D01*
X140008617Y-91812344D01*
X140028087Y-91807986D01*
X140083286Y-91795530D01*
X140134921Y-91781322D01*
X140189782Y-91757948D01*
X140233887Y-91728337D01*
X140267234Y-91692489D01*
X140293051Y-91641238D01*
X140302733Y-91591668D01*
X140303593Y-91570094D01*
X140298495Y-91516360D01*
X140283199Y-91469221D01*
X140253803Y-91424073D01*
X140222016Y-91394727D01*
X140176511Y-91367906D01*
X140129155Y-91350724D01*
X140074764Y-91339409D01*
X140022542Y-91334380D01*
X139984856Y-91333422D01*
X139935806Y-91335115D01*
X139883794Y-91340725D01*
X139865422Y-91343681D01*
X139816911Y-91353950D01*
X139767029Y-91368090D01*
X139743544Y-91375921D01*
X139743544Y-91550554D01*
X139788000Y-91523191D01*
X139834378Y-91500835D01*
X139858583Y-91491936D01*
X139907082Y-91479748D01*
X139957265Y-91474385D01*
X139971912Y-91474106D01*
X140022277Y-91477371D01*
X140069988Y-91490354D01*
X140077180Y-91493890D01*
X140111144Y-91529395D01*
X140114061Y-91547135D01*
X140091165Y-91591265D01*
X140079378Y-91599891D01*
X140034010Y-91620957D01*
X139986280Y-91635234D01*
X139967759Y-91639703D01*
X139902791Y-91655334D01*
X139851546Y-91670340D01*
X139802763Y-91691856D01*
X139759572Y-91721518D01*
X139742323Y-91738621D01*
X139713539Y-91782301D01*
X139697739Y-91829623D01*
X139691962Y-91878412D01*
X139691765Y-91890052D01*
X139696657Y-91946438D01*
X139711335Y-91995305D01*
X139743442Y-92045817D01*
X139790838Y-92084583D01*
X139839763Y-92107137D01*
X139898473Y-92122173D01*
X139948926Y-92128517D01*
X140004884Y-92130631D01*
G37*
G36*
X138416085Y-91270896D02*
G01*
X138675226Y-91270896D01*
X138675226Y-91098949D01*
X137955443Y-91098949D01*
X137955443Y-91270896D01*
X138214584Y-91270896D01*
X138214584Y-92115000D01*
X138416085Y-92115000D01*
X138416085Y-91270896D01*
G37*
G36*
X137777145Y-91052055D02*
G01*
X137578087Y-91052055D01*
X137578087Y-91465802D01*
X137555548Y-91418885D01*
X137523254Y-91381722D01*
X137505059Y-91367861D01*
X137459636Y-91345563D01*
X137411053Y-91335070D01*
X137379762Y-91333422D01*
X137329708Y-91337987D01*
X137281023Y-91354033D01*
X137240415Y-91381633D01*
X137217829Y-91406451D01*
X137191028Y-91452744D01*
X137174568Y-91502879D01*
X137165851Y-91553684D01*
X137162440Y-91610964D01*
X137162386Y-91619675D01*
X137162386Y-92115000D01*
X137361444Y-92115000D01*
X137361444Y-91649228D01*
X137364186Y-91599399D01*
X137375606Y-91550673D01*
X137384647Y-91532480D01*
X137423287Y-91500786D01*
X137455722Y-91495600D01*
X137504530Y-91506279D01*
X137541960Y-91538318D01*
X137546092Y-91544204D01*
X137566808Y-91589503D01*
X137576556Y-91641979D01*
X137578087Y-91677316D01*
X137578087Y-92115000D01*
X137777145Y-92115000D01*
X137777145Y-91052055D01*
G37*
G36*
X136631480Y-91333619D02*
G01*
X136683850Y-91337402D01*
X136732152Y-91346001D01*
X136782375Y-91361724D01*
X136827285Y-91383736D01*
X136857415Y-91403938D01*
X136897105Y-91439586D01*
X136930187Y-91481647D01*
X136954047Y-91524420D01*
X136959164Y-91535838D01*
X136976329Y-91583931D01*
X136988213Y-91635901D01*
X136994279Y-91684556D01*
X136996301Y-91736179D01*
X136994694Y-91782699D01*
X136988167Y-91836879D01*
X136976619Y-91886646D01*
X136956134Y-91940541D01*
X136928420Y-91988083D01*
X136893475Y-92029270D01*
X136859028Y-92058471D01*
X136811584Y-92086979D01*
X136757476Y-92108359D01*
X136707297Y-92120733D01*
X136652490Y-92128156D01*
X136593056Y-92130631D01*
X136574647Y-92130404D01*
X136519798Y-92126998D01*
X136465516Y-92119505D01*
X136411801Y-92107924D01*
X136358653Y-92092256D01*
X136306071Y-92072501D01*
X136306071Y-91892250D01*
X136323555Y-91901478D01*
X136375894Y-91925589D01*
X136428060Y-91944342D01*
X136480056Y-91957738D01*
X136531879Y-91965775D01*
X136583531Y-91968454D01*
X136620894Y-91966994D01*
X136674999Y-91958073D01*
X136726451Y-91936664D01*
X136763202Y-91903577D01*
X136785252Y-91858812D01*
X136792602Y-91802369D01*
X136273831Y-91802369D01*
X136273831Y-91720547D01*
X136273872Y-91713355D01*
X136276456Y-91664570D01*
X136279239Y-91646053D01*
X136475575Y-91646053D01*
X136790648Y-91646053D01*
X136787454Y-91624272D01*
X136771389Y-91575230D01*
X136741556Y-91534678D01*
X136724769Y-91521398D01*
X136676850Y-91501095D01*
X136626029Y-91495600D01*
X136608420Y-91496195D01*
X136558467Y-91506353D01*
X136514654Y-91533702D01*
X136501373Y-91549261D01*
X136481071Y-91595449D01*
X136475575Y-91646053D01*
X136279239Y-91646053D01*
X136284333Y-91612165D01*
X136297461Y-91563331D01*
X136315840Y-91518070D01*
X136329815Y-91491828D01*
X136359237Y-91449281D01*
X136394146Y-91412762D01*
X136434542Y-91382271D01*
X136464206Y-91365670D01*
X136512438Y-91347209D01*
X136565151Y-91336475D01*
X136615771Y-91333422D01*
X136631480Y-91333619D01*
G37*
G36*
X135794138Y-92130631D02*
G01*
X135843494Y-92129008D01*
X135894842Y-92124140D01*
X135948182Y-92116025D01*
X136003515Y-92104665D01*
X136051147Y-92092719D01*
X136080390Y-92084469D01*
X136080390Y-91913011D01*
X136029898Y-91939157D01*
X135979354Y-91959894D01*
X135928758Y-91975221D01*
X135878111Y-91985139D01*
X135827413Y-91989647D01*
X135810502Y-91989947D01*
X135755589Y-91985962D01*
X135704806Y-91969125D01*
X135673014Y-91930654D01*
X135669574Y-91906660D01*
X135688396Y-91859674D01*
X135703035Y-91847554D01*
X135748342Y-91826427D01*
X135797870Y-91812344D01*
X135817341Y-91807986D01*
X135872540Y-91795530D01*
X135924174Y-91781322D01*
X135979036Y-91757948D01*
X136023140Y-91728337D01*
X136056487Y-91692489D01*
X136082305Y-91641238D01*
X136091986Y-91591668D01*
X136092847Y-91570094D01*
X136087748Y-91516360D01*
X136072452Y-91469221D01*
X136043056Y-91424073D01*
X136011270Y-91394727D01*
X135965764Y-91367906D01*
X135918408Y-91350724D01*
X135864017Y-91339409D01*
X135811796Y-91334380D01*
X135774110Y-91333422D01*
X135725059Y-91335115D01*
X135673047Y-91340725D01*
X135654675Y-91343681D01*
X135606164Y-91353950D01*
X135556282Y-91368090D01*
X135532798Y-91375921D01*
X135532798Y-91550554D01*
X135577254Y-91523191D01*
X135623632Y-91500835D01*
X135647836Y-91491936D01*
X135696336Y-91479748D01*
X135746518Y-91474385D01*
X135761165Y-91474106D01*
X135811530Y-91477371D01*
X135859241Y-91490354D01*
X135866434Y-91493890D01*
X135900397Y-91529395D01*
X135903314Y-91547135D01*
X135880418Y-91591265D01*
X135868632Y-91599891D01*
X135823264Y-91620957D01*
X135775533Y-91635234D01*
X135757013Y-91639703D01*
X135692044Y-91655334D01*
X135640799Y-91670340D01*
X135592016Y-91691856D01*
X135548825Y-91721518D01*
X135531577Y-91738621D01*
X135502792Y-91782301D01*
X135486992Y-91829623D01*
X135481216Y-91878412D01*
X135481018Y-91890052D01*
X135485911Y-91946438D01*
X135500588Y-91995305D01*
X135532695Y-92045817D01*
X135580091Y-92084583D01*
X135629016Y-92107137D01*
X135687726Y-92122173D01*
X135738180Y-92128517D01*
X135794138Y-92130631D01*
G37*
G36*
X135059944Y-91255265D02*
G01*
X135080460Y-91234748D01*
X135080460Y-91041308D01*
X135059944Y-91020792D01*
X134900697Y-91020792D01*
X134880181Y-91041308D01*
X134880181Y-91234748D01*
X134900697Y-91255265D01*
X135059944Y-91255265D01*
G37*
G36*
X134813014Y-92115000D02*
G01*
X134863604Y-92112441D01*
X134915528Y-92102987D01*
X134965510Y-92083654D01*
X135005508Y-92055222D01*
X135017934Y-92042215D01*
X135045289Y-91999946D01*
X135062813Y-91953518D01*
X135074354Y-91898279D01*
X135079483Y-91843917D01*
X135080460Y-91804078D01*
X135080460Y-91511231D01*
X135242393Y-91511231D01*
X135242393Y-91349054D01*
X134880181Y-91349054D01*
X134880181Y-91791622D01*
X134877414Y-91840995D01*
X134865544Y-91890775D01*
X134851849Y-91915697D01*
X134810871Y-91944665D01*
X134761183Y-91952786D01*
X134757083Y-91952822D01*
X134597103Y-91952822D01*
X134597103Y-92115000D01*
X134813014Y-92115000D01*
G37*
G36*
X134109839Y-92130631D02*
G01*
X134159195Y-92129008D01*
X134210543Y-92124140D01*
X134263884Y-92116025D01*
X134319216Y-92104665D01*
X134366848Y-92092719D01*
X134396092Y-92084469D01*
X134396092Y-91913011D01*
X134345599Y-91939157D01*
X134295055Y-91959894D01*
X134244460Y-91975221D01*
X134193813Y-91985139D01*
X134143114Y-91989647D01*
X134126203Y-91989947D01*
X134071291Y-91985962D01*
X134020507Y-91969125D01*
X133988716Y-91930654D01*
X133985275Y-91906660D01*
X134004097Y-91859674D01*
X134018736Y-91847554D01*
X134064043Y-91826427D01*
X134113571Y-91812344D01*
X134133042Y-91807986D01*
X134188241Y-91795530D01*
X134239875Y-91781322D01*
X134294737Y-91757948D01*
X134338841Y-91728337D01*
X134372189Y-91692489D01*
X134398006Y-91641238D01*
X134407687Y-91591668D01*
X134408548Y-91570094D01*
X134403449Y-91516360D01*
X134388154Y-91469221D01*
X134358757Y-91424073D01*
X134326971Y-91394727D01*
X134281465Y-91367906D01*
X134234110Y-91350724D01*
X134179718Y-91339409D01*
X134127497Y-91334380D01*
X134089811Y-91333422D01*
X134040760Y-91335115D01*
X133988748Y-91340725D01*
X133970376Y-91343681D01*
X133921865Y-91353950D01*
X133871984Y-91368090D01*
X133848499Y-91375921D01*
X133848499Y-91550554D01*
X133892955Y-91523191D01*
X133939333Y-91500835D01*
X133963538Y-91491936D01*
X134012037Y-91479748D01*
X134062219Y-91474385D01*
X134076866Y-91474106D01*
X134127231Y-91477371D01*
X134174943Y-91490354D01*
X134182135Y-91493890D01*
X134216098Y-91529395D01*
X134219016Y-91547135D01*
X134196120Y-91591265D01*
X134184333Y-91599891D01*
X134138965Y-91620957D01*
X134091235Y-91635234D01*
X134072714Y-91639703D01*
X134007745Y-91655334D01*
X133956500Y-91670340D01*
X133907717Y-91691856D01*
X133864526Y-91721518D01*
X133847278Y-91738621D01*
X133818493Y-91782301D01*
X133802694Y-91829623D01*
X133796917Y-91878412D01*
X133796720Y-91890052D01*
X133801612Y-91946438D01*
X133816290Y-91995305D01*
X133848397Y-92045817D01*
X133895793Y-92084583D01*
X133944717Y-92107137D01*
X134003427Y-92122173D01*
X134053881Y-92128517D01*
X134109839Y-92130631D01*
G37*
G36*
X144132099Y-93649187D02*
G01*
X144115002Y-93607421D01*
X144022679Y-93510212D01*
X143986485Y-93471820D01*
X143950620Y-93433775D01*
X143916799Y-93397892D01*
X143902267Y-93382473D01*
X143867138Y-93345301D01*
X143832413Y-93308224D01*
X143798198Y-93270947D01*
X143786251Y-93257665D01*
X143754673Y-93220125D01*
X143742532Y-93204665D01*
X143715471Y-93162029D01*
X143712490Y-93155816D01*
X143695454Y-93110020D01*
X143689776Y-93064469D01*
X143697770Y-93013118D01*
X143724077Y-92969823D01*
X143731541Y-92962620D01*
X143774491Y-92937242D01*
X143825842Y-92926401D01*
X143848533Y-92925495D01*
X143899564Y-92929843D01*
X143949545Y-92941666D01*
X143969434Y-92948210D01*
X144016251Y-92966638D01*
X144038066Y-92976542D01*
X144082793Y-92999688D01*
X144110362Y-93015865D01*
X144110362Y-92820226D01*
X144063099Y-92803472D01*
X144032448Y-92794092D01*
X143983497Y-92781167D01*
X143966747Y-92777484D01*
X143914540Y-92768851D01*
X143863432Y-92764203D01*
X143829971Y-92763318D01*
X143779940Y-92765453D01*
X143728059Y-92772655D01*
X143690997Y-92781392D01*
X143644720Y-92797867D01*
X143599704Y-92822304D01*
X143577668Y-92838300D01*
X143540974Y-92875166D01*
X143512867Y-92918900D01*
X143509769Y-92925251D01*
X143493072Y-92973703D01*
X143485941Y-93025476D01*
X143485344Y-93047128D01*
X143489852Y-93099134D01*
X143502194Y-93146899D01*
X143505861Y-93157037D01*
X143527488Y-93201963D01*
X143554267Y-93245514D01*
X143574981Y-93273785D01*
X143608864Y-93312709D01*
X143644835Y-93351210D01*
X143680709Y-93388446D01*
X143716715Y-93425094D01*
X143753748Y-93462341D01*
X143774039Y-93482613D01*
X143811056Y-93519099D01*
X143849001Y-93553553D01*
X143852685Y-93556618D01*
X143892028Y-93587465D01*
X143899092Y-93592522D01*
X143934507Y-93623053D01*
X143484123Y-93623053D01*
X143484123Y-93795000D01*
X144132099Y-93795000D01*
X144132099Y-93649187D01*
G37*
G36*
X142967717Y-93121111D02*
G01*
X142976098Y-93170226D01*
X142978006Y-93186285D01*
X142981715Y-93236660D01*
X142982937Y-93284776D01*
X142982871Y-93291223D01*
X142980250Y-93340464D01*
X142979243Y-93353667D01*
X142974877Y-93402745D01*
X142973804Y-93410409D01*
X142964374Y-93458921D01*
X142946789Y-93484078D01*
X142925723Y-93452021D01*
X142917480Y-93402013D01*
X142915602Y-93384855D01*
X142912351Y-93334113D01*
X142911374Y-93288928D01*
X142911395Y-93285306D01*
X142913816Y-93235683D01*
X142914801Y-93220683D01*
X142918701Y-93171692D01*
X142920082Y-93160788D01*
X142930424Y-93112829D01*
X142948254Y-93089626D01*
X142967717Y-93121111D01*
G37*
G36*
X142968287Y-92763827D02*
G01*
X143026610Y-92771469D01*
X143078975Y-92788282D01*
X143125380Y-92814265D01*
X143165826Y-92849419D01*
X143200313Y-92893743D01*
X143205497Y-92902039D01*
X143228949Y-92947390D01*
X143248287Y-92999193D01*
X143263511Y-93057447D01*
X143272727Y-93108696D01*
X143279310Y-93164074D01*
X143283260Y-93223582D01*
X143284577Y-93287219D01*
X143284494Y-93303410D01*
X143282519Y-93365639D01*
X143277911Y-93423807D01*
X143270670Y-93477914D01*
X143260795Y-93527961D01*
X143244749Y-93584809D01*
X143224588Y-93635313D01*
X143200313Y-93679473D01*
X143183808Y-93702912D01*
X143146290Y-93742874D01*
X143102761Y-93773615D01*
X143053222Y-93795133D01*
X142997672Y-93807429D01*
X142946789Y-93810631D01*
X142886553Y-93806031D01*
X142832243Y-93792230D01*
X142783857Y-93769228D01*
X142741396Y-93737026D01*
X142704860Y-93695623D01*
X142674248Y-93645020D01*
X142649561Y-93585216D01*
X142630800Y-93516212D01*
X142621583Y-93465097D01*
X142615000Y-93409893D01*
X142611050Y-93350601D01*
X142609734Y-93287219D01*
X142812944Y-93287219D01*
X142812975Y-93298844D01*
X142814069Y-93354040D01*
X142816724Y-93404346D01*
X142821974Y-93458259D01*
X142830941Y-93512258D01*
X142844939Y-93562236D01*
X142863441Y-93599956D01*
X142900123Y-93636329D01*
X142947521Y-93648454D01*
X142987378Y-93640034D01*
X143025571Y-93607702D01*
X143049371Y-93562236D01*
X143051339Y-93556673D01*
X143064837Y-93505130D01*
X143073368Y-93449762D01*
X143078242Y-93394676D01*
X143080585Y-93343392D01*
X143081367Y-93287219D01*
X143081335Y-93275563D01*
X143080242Y-93220231D01*
X143077586Y-93169813D01*
X143072337Y-93115797D01*
X143063369Y-93061721D01*
X143049371Y-93011713D01*
X143033478Y-92978118D01*
X142997912Y-92939724D01*
X142947521Y-92925495D01*
X142907279Y-92933915D01*
X142868810Y-92966246D01*
X142844939Y-93011713D01*
X142842971Y-93017276D01*
X142829473Y-93068857D01*
X142820943Y-93124309D01*
X142816068Y-93179504D01*
X142813725Y-93230904D01*
X142812944Y-93287219D01*
X142609734Y-93287219D01*
X142609816Y-93270922D01*
X142611791Y-93208318D01*
X142616399Y-93149843D01*
X142623640Y-93095497D01*
X142633515Y-93045280D01*
X142649561Y-92988316D01*
X142669722Y-92937804D01*
X142693997Y-92893743D01*
X142710502Y-92870435D01*
X142748020Y-92830696D01*
X142791549Y-92800127D01*
X142841088Y-92778729D01*
X142896638Y-92766502D01*
X142947521Y-92763318D01*
X142968287Y-92763827D01*
G37*
G36*
X142447801Y-93649187D02*
G01*
X142430704Y-93607421D01*
X142338380Y-93510212D01*
X142302186Y-93471820D01*
X142266322Y-93433775D01*
X142232500Y-93397892D01*
X142217968Y-93382473D01*
X142182839Y-93345301D01*
X142148115Y-93308224D01*
X142113899Y-93270947D01*
X142101953Y-93257665D01*
X142070374Y-93220125D01*
X142058233Y-93204665D01*
X142031172Y-93162029D01*
X142028191Y-93155816D01*
X142011155Y-93110020D01*
X142005477Y-93064469D01*
X142013471Y-93013118D01*
X142039778Y-92969823D01*
X142047242Y-92962620D01*
X142090192Y-92937242D01*
X142141543Y-92926401D01*
X142164235Y-92925495D01*
X142215265Y-92929843D01*
X142265246Y-92941666D01*
X142285135Y-92948210D01*
X142331952Y-92966638D01*
X142353767Y-92976542D01*
X142398494Y-92999688D01*
X142426063Y-93015865D01*
X142426063Y-92820226D01*
X142378800Y-92803472D01*
X142348150Y-92794092D01*
X142299199Y-92781167D01*
X142282448Y-92777484D01*
X142230241Y-92768851D01*
X142179133Y-92764203D01*
X142145672Y-92763318D01*
X142095641Y-92765453D01*
X142043760Y-92772655D01*
X142006698Y-92781392D01*
X141960422Y-92797867D01*
X141915405Y-92822304D01*
X141893369Y-92838300D01*
X141856676Y-92875166D01*
X141828569Y-92918900D01*
X141825470Y-92925251D01*
X141808774Y-92973703D01*
X141801642Y-93025476D01*
X141801046Y-93047128D01*
X141805554Y-93099134D01*
X141817895Y-93146899D01*
X141821562Y-93157037D01*
X141843189Y-93201963D01*
X141869968Y-93245514D01*
X141890683Y-93273785D01*
X141924566Y-93312709D01*
X141960536Y-93351210D01*
X141996410Y-93388446D01*
X142032416Y-93425094D01*
X142069449Y-93462341D01*
X142089741Y-93482613D01*
X142126757Y-93519099D01*
X142164702Y-93553553D01*
X142168387Y-93556618D01*
X142207729Y-93587465D01*
X142214793Y-93592522D01*
X142250208Y-93623053D01*
X141799824Y-93623053D01*
X141799824Y-93795000D01*
X142447801Y-93795000D01*
X142447801Y-93649187D01*
G37*
G36*
X141319887Y-93810631D02*
G01*
X141370491Y-93808857D01*
X141382902Y-93807944D01*
X141433094Y-93802632D01*
X141449824Y-93800129D01*
X141499231Y-93791241D01*
X141518701Y-93786939D01*
X141567701Y-93774470D01*
X141586600Y-93769110D01*
X141586600Y-93591789D01*
X141540602Y-93612171D01*
X141528471Y-93616702D01*
X141481277Y-93631052D01*
X141469608Y-93634043D01*
X141418591Y-93643894D01*
X141369795Y-93648102D01*
X141350662Y-93648454D01*
X141299737Y-93645523D01*
X141250621Y-93635219D01*
X141202345Y-93612550D01*
X141187996Y-93601559D01*
X141154210Y-93560469D01*
X141136939Y-93513691D01*
X141132553Y-93468935D01*
X141137800Y-93417296D01*
X141155694Y-93369915D01*
X141186286Y-93332404D01*
X141228336Y-93305427D01*
X141275429Y-93290619D01*
X141325032Y-93285206D01*
X141336984Y-93285020D01*
X141386340Y-93288229D01*
X141388031Y-93288440D01*
X141437128Y-93298048D01*
X141442253Y-93299431D01*
X141490347Y-93315511D01*
X141499406Y-93319214D01*
X141544801Y-93340106D01*
X141552406Y-93344127D01*
X141552406Y-92778949D01*
X140997975Y-92778949D01*
X140997975Y-92950896D01*
X141389008Y-92950896D01*
X141389008Y-93140429D01*
X141367270Y-93132857D01*
X141336251Y-93125041D01*
X141306942Y-93122843D01*
X141275435Y-93122843D01*
X141222450Y-93126244D01*
X141171937Y-93136444D01*
X141139636Y-93147023D01*
X141094367Y-93168249D01*
X141051062Y-93198221D01*
X141030215Y-93217365D01*
X140997363Y-93256745D01*
X140971041Y-93302251D01*
X140961094Y-93325321D01*
X140946062Y-93374860D01*
X140938377Y-93423952D01*
X140936426Y-93466737D01*
X140939972Y-93524259D01*
X140950611Y-93577024D01*
X140968343Y-93625032D01*
X140993167Y-93668283D01*
X141025083Y-93706777D01*
X141037298Y-93718551D01*
X141077967Y-93749844D01*
X141124321Y-93774662D01*
X141176359Y-93793006D01*
X141234082Y-93804876D01*
X141286526Y-93809822D01*
X141319887Y-93810631D01*
G37*
G36*
X140690962Y-93279159D02*
G01*
X140150452Y-93279159D01*
X140150452Y-93482369D01*
X140690962Y-93482369D01*
X140690962Y-93279159D01*
G37*
G36*
X139599120Y-93121111D02*
G01*
X139607501Y-93170226D01*
X139609409Y-93186285D01*
X139613118Y-93236660D01*
X139614339Y-93284776D01*
X139614274Y-93291223D01*
X139611653Y-93340464D01*
X139610645Y-93353667D01*
X139606279Y-93402745D01*
X139605207Y-93410409D01*
X139595777Y-93458921D01*
X139578191Y-93484078D01*
X139557125Y-93452021D01*
X139548882Y-93402013D01*
X139547005Y-93384855D01*
X139543753Y-93334113D01*
X139542776Y-93288928D01*
X139542798Y-93285306D01*
X139545219Y-93235683D01*
X139546204Y-93220683D01*
X139550103Y-93171692D01*
X139551485Y-93160788D01*
X139561827Y-93112829D01*
X139579657Y-93089626D01*
X139599120Y-93121111D01*
G37*
G36*
X139599690Y-92763827D02*
G01*
X139658013Y-92771469D01*
X139710377Y-92788282D01*
X139756783Y-92814265D01*
X139797229Y-92849419D01*
X139831715Y-92893743D01*
X139836900Y-92902039D01*
X139860352Y-92947390D01*
X139879690Y-92999193D01*
X139894913Y-93057447D01*
X139904130Y-93108696D01*
X139910713Y-93164074D01*
X139914663Y-93223582D01*
X139915979Y-93287219D01*
X139915897Y-93303410D01*
X139913922Y-93365639D01*
X139909314Y-93423807D01*
X139902072Y-93477914D01*
X139892198Y-93527961D01*
X139876151Y-93584809D01*
X139855991Y-93635313D01*
X139831715Y-93679473D01*
X139815210Y-93702912D01*
X139777693Y-93742874D01*
X139734164Y-93773615D01*
X139684625Y-93795133D01*
X139629075Y-93807429D01*
X139578191Y-93810631D01*
X139517956Y-93806031D01*
X139463645Y-93792230D01*
X139415259Y-93769228D01*
X139372798Y-93737026D01*
X139336262Y-93695623D01*
X139305651Y-93645020D01*
X139280964Y-93585216D01*
X139262202Y-93516212D01*
X139252986Y-93465097D01*
X139246403Y-93409893D01*
X139242453Y-93350601D01*
X139241136Y-93287219D01*
X139444346Y-93287219D01*
X139444378Y-93298844D01*
X139445471Y-93354040D01*
X139448127Y-93404346D01*
X139453376Y-93458259D01*
X139462344Y-93512258D01*
X139476342Y-93562236D01*
X139494844Y-93599956D01*
X139531526Y-93636329D01*
X139578924Y-93648454D01*
X139618781Y-93640034D01*
X139656974Y-93607702D01*
X139680773Y-93562236D01*
X139682742Y-93556673D01*
X139696240Y-93505130D01*
X139704770Y-93449762D01*
X139709645Y-93394676D01*
X139711988Y-93343392D01*
X139712769Y-93287219D01*
X139712738Y-93275563D01*
X139711644Y-93220231D01*
X139708988Y-93169813D01*
X139703739Y-93115797D01*
X139694772Y-93061721D01*
X139680773Y-93011713D01*
X139664880Y-92978118D01*
X139629314Y-92939724D01*
X139578924Y-92925495D01*
X139538681Y-92933915D01*
X139500213Y-92966246D01*
X139476342Y-93011713D01*
X139474374Y-93017276D01*
X139460875Y-93068857D01*
X139452345Y-93124309D01*
X139447471Y-93179504D01*
X139445127Y-93230904D01*
X139444346Y-93287219D01*
X139241136Y-93287219D01*
X139241219Y-93270922D01*
X139243194Y-93208318D01*
X139247802Y-93149843D01*
X139255043Y-93095497D01*
X139264918Y-93045280D01*
X139280964Y-92988316D01*
X139301125Y-92937804D01*
X139325400Y-92893743D01*
X139341905Y-92870435D01*
X139379423Y-92830696D01*
X139422952Y-92800127D01*
X139472491Y-92778729D01*
X139528041Y-92766502D01*
X139578924Y-92763318D01*
X139599690Y-92763827D01*
G37*
G36*
X139029378Y-93623053D02*
G01*
X138803697Y-93623053D01*
X138803697Y-92989975D01*
X138956838Y-93155572D01*
X139052581Y-93056165D01*
X138802476Y-92778949D01*
X138607570Y-92778949D01*
X138607570Y-93623053D01*
X138381890Y-93623053D01*
X138381890Y-93795000D01*
X139029378Y-93795000D01*
X139029378Y-93623053D01*
G37*
G36*
X138164514Y-93279159D02*
G01*
X137624004Y-93279159D01*
X137624004Y-93482369D01*
X138164514Y-93482369D01*
X138164514Y-93279159D01*
G37*
G36*
X137345079Y-93623053D02*
G01*
X137119399Y-93623053D01*
X137119399Y-92989975D01*
X137272539Y-93155572D01*
X137368282Y-93056165D01*
X137118177Y-92778949D01*
X136923272Y-92778949D01*
X136923272Y-93623053D01*
X136697591Y-93623053D01*
X136697591Y-93795000D01*
X137345079Y-93795000D01*
X137345079Y-93623053D01*
G37*
G36*
X136561792Y-93381985D02*
G01*
X136561792Y-93576158D01*
X136157082Y-93576158D01*
X136157082Y-93795000D01*
X135963642Y-93795000D01*
X135963642Y-93576158D01*
X135851534Y-93576158D01*
X135851534Y-93404211D01*
X135963642Y-93404211D01*
X136157082Y-93404211D01*
X136414758Y-93404211D01*
X136157082Y-93008538D01*
X136157082Y-93404211D01*
X135963642Y-93404211D01*
X135963642Y-92778949D01*
X136174667Y-92778949D01*
X136561792Y-93381985D01*
G37*
D12*
X130800000Y-91940724D02*
X131050000Y-91583581D01*
X131228571Y-91940724D02*
X131228571Y-91190724D01*
X131228571Y-91190724D02*
X130942857Y-91190724D01*
X130942857Y-91190724D02*
X130871428Y-91226438D01*
X130871428Y-91226438D02*
X130835714Y-91262152D01*
X130835714Y-91262152D02*
X130800000Y-91333581D01*
X130800000Y-91333581D02*
X130800000Y-91440724D01*
X130800000Y-91440724D02*
X130835714Y-91512152D01*
X130835714Y-91512152D02*
X130871428Y-91547867D01*
X130871428Y-91547867D02*
X130942857Y-91583581D01*
X130942857Y-91583581D02*
X131228571Y-91583581D01*
X130550000Y-91190724D02*
X130050000Y-91940724D01*
X130050000Y-91190724D02*
X130550000Y-91940724D01*
X129764285Y-91940724D02*
X129764285Y-91190724D01*
X129764285Y-91190724D02*
X129585714Y-91190724D01*
X129585714Y-91190724D02*
X129478571Y-91226438D01*
X129478571Y-91226438D02*
X129407142Y-91297867D01*
X129407142Y-91297867D02*
X129371428Y-91369295D01*
X129371428Y-91369295D02*
X129335714Y-91512152D01*
X129335714Y-91512152D02*
X129335714Y-91619295D01*
X129335714Y-91619295D02*
X129371428Y-91762152D01*
X129371428Y-91762152D02*
X129407142Y-91833581D01*
X129407142Y-91833581D02*
X129478571Y-91905010D01*
X129478571Y-91905010D02*
X129585714Y-91940724D01*
X129585714Y-91940724D02*
X129764285Y-91940724D01*
X131264285Y-88490724D02*
X131014285Y-89240724D01*
X131014285Y-89240724D02*
X130764285Y-88490724D01*
X130549999Y-89205010D02*
X130442857Y-89240724D01*
X130442857Y-89240724D02*
X130264285Y-89240724D01*
X130264285Y-89240724D02*
X130192857Y-89205010D01*
X130192857Y-89205010D02*
X130157142Y-89169295D01*
X130157142Y-89169295D02*
X130121428Y-89097867D01*
X130121428Y-89097867D02*
X130121428Y-89026438D01*
X130121428Y-89026438D02*
X130157142Y-88955010D01*
X130157142Y-88955010D02*
X130192857Y-88919295D01*
X130192857Y-88919295D02*
X130264285Y-88883581D01*
X130264285Y-88883581D02*
X130407142Y-88847867D01*
X130407142Y-88847867D02*
X130478571Y-88812152D01*
X130478571Y-88812152D02*
X130514285Y-88776438D01*
X130514285Y-88776438D02*
X130549999Y-88705010D01*
X130549999Y-88705010D02*
X130549999Y-88633581D01*
X130549999Y-88633581D02*
X130514285Y-88562152D01*
X130514285Y-88562152D02*
X130478571Y-88526438D01*
X130478571Y-88526438D02*
X130407142Y-88490724D01*
X130407142Y-88490724D02*
X130228571Y-88490724D01*
X130228571Y-88490724D02*
X130121428Y-88526438D01*
X129835713Y-89205010D02*
X129728571Y-89240724D01*
X129728571Y-89240724D02*
X129549999Y-89240724D01*
X129549999Y-89240724D02*
X129478571Y-89205010D01*
X129478571Y-89205010D02*
X129442856Y-89169295D01*
X129442856Y-89169295D02*
X129407142Y-89097867D01*
X129407142Y-89097867D02*
X129407142Y-89026438D01*
X129407142Y-89026438D02*
X129442856Y-88955010D01*
X129442856Y-88955010D02*
X129478571Y-88919295D01*
X129478571Y-88919295D02*
X129549999Y-88883581D01*
X129549999Y-88883581D02*
X129692856Y-88847867D01*
X129692856Y-88847867D02*
X129764285Y-88812152D01*
X129764285Y-88812152D02*
X129799999Y-88776438D01*
X129799999Y-88776438D02*
X129835713Y-88705010D01*
X129835713Y-88705010D02*
X129835713Y-88633581D01*
X129835713Y-88633581D02*
X129799999Y-88562152D01*
X129799999Y-88562152D02*
X129764285Y-88526438D01*
X129764285Y-88526438D02*
X129692856Y-88490724D01*
X129692856Y-88490724D02*
X129514285Y-88490724D01*
X129514285Y-88490724D02*
X129407142Y-88526438D01*
X148550375Y-112555010D02*
X147978947Y-112555010D01*
X148264661Y-112840724D02*
X148264661Y-112269295D01*
X147693233Y-112090724D02*
X147228947Y-112090724D01*
X147228947Y-112090724D02*
X147478947Y-112376438D01*
X147478947Y-112376438D02*
X147371804Y-112376438D01*
X147371804Y-112376438D02*
X147300376Y-112412152D01*
X147300376Y-112412152D02*
X147264661Y-112447867D01*
X147264661Y-112447867D02*
X147228947Y-112519295D01*
X147228947Y-112519295D02*
X147228947Y-112697867D01*
X147228947Y-112697867D02*
X147264661Y-112769295D01*
X147264661Y-112769295D02*
X147300376Y-112805010D01*
X147300376Y-112805010D02*
X147371804Y-112840724D01*
X147371804Y-112840724D02*
X147586090Y-112840724D01*
X147586090Y-112840724D02*
X147657518Y-112805010D01*
X147657518Y-112805010D02*
X147693233Y-112769295D01*
X147014661Y-112090724D02*
X146764661Y-112840724D01*
X146764661Y-112840724D02*
X146514661Y-112090724D01*
X146157518Y-112412152D02*
X146228947Y-112376438D01*
X146228947Y-112376438D02*
X146264661Y-112340724D01*
X146264661Y-112340724D02*
X146300375Y-112269295D01*
X146300375Y-112269295D02*
X146300375Y-112233581D01*
X146300375Y-112233581D02*
X146264661Y-112162152D01*
X146264661Y-112162152D02*
X146228947Y-112126438D01*
X146228947Y-112126438D02*
X146157518Y-112090724D01*
X146157518Y-112090724D02*
X146014661Y-112090724D01*
X146014661Y-112090724D02*
X145943233Y-112126438D01*
X145943233Y-112126438D02*
X145907518Y-112162152D01*
X145907518Y-112162152D02*
X145871804Y-112233581D01*
X145871804Y-112233581D02*
X145871804Y-112269295D01*
X145871804Y-112269295D02*
X145907518Y-112340724D01*
X145907518Y-112340724D02*
X145943233Y-112376438D01*
X145943233Y-112376438D02*
X146014661Y-112412152D01*
X146014661Y-112412152D02*
X146157518Y-112412152D01*
X146157518Y-112412152D02*
X146228947Y-112447867D01*
X146228947Y-112447867D02*
X146264661Y-112483581D01*
X146264661Y-112483581D02*
X146300375Y-112555010D01*
X146300375Y-112555010D02*
X146300375Y-112697867D01*
X146300375Y-112697867D02*
X146264661Y-112769295D01*
X146264661Y-112769295D02*
X146228947Y-112805010D01*
X146228947Y-112805010D02*
X146157518Y-112840724D01*
X146157518Y-112840724D02*
X146014661Y-112840724D01*
X146014661Y-112840724D02*
X145943233Y-112805010D01*
X145943233Y-112805010D02*
X145907518Y-112769295D01*
X145907518Y-112769295D02*
X145871804Y-112697867D01*
X145871804Y-112697867D02*
X145871804Y-112555010D01*
X145871804Y-112555010D02*
X145907518Y-112483581D01*
X145907518Y-112483581D02*
X145943233Y-112447867D01*
X145943233Y-112447867D02*
X146014661Y-112412152D01*
X133650375Y-111155010D02*
X133078947Y-111155010D01*
X133364661Y-111440724D02*
X133364661Y-110869295D01*
X132328947Y-111440724D02*
X132757518Y-111440724D01*
X132543233Y-111440724D02*
X132543233Y-110690724D01*
X132543233Y-110690724D02*
X132614661Y-110797867D01*
X132614661Y-110797867D02*
X132686090Y-110869295D01*
X132686090Y-110869295D02*
X132757518Y-110905010D01*
X132114661Y-110690724D02*
X131864661Y-111440724D01*
X131864661Y-111440724D02*
X131614661Y-110690724D01*
X131257518Y-111012152D02*
X131328947Y-110976438D01*
X131328947Y-110976438D02*
X131364661Y-110940724D01*
X131364661Y-110940724D02*
X131400375Y-110869295D01*
X131400375Y-110869295D02*
X131400375Y-110833581D01*
X131400375Y-110833581D02*
X131364661Y-110762152D01*
X131364661Y-110762152D02*
X131328947Y-110726438D01*
X131328947Y-110726438D02*
X131257518Y-110690724D01*
X131257518Y-110690724D02*
X131114661Y-110690724D01*
X131114661Y-110690724D02*
X131043233Y-110726438D01*
X131043233Y-110726438D02*
X131007518Y-110762152D01*
X131007518Y-110762152D02*
X130971804Y-110833581D01*
X130971804Y-110833581D02*
X130971804Y-110869295D01*
X130971804Y-110869295D02*
X131007518Y-110940724D01*
X131007518Y-110940724D02*
X131043233Y-110976438D01*
X131043233Y-110976438D02*
X131114661Y-111012152D01*
X131114661Y-111012152D02*
X131257518Y-111012152D01*
X131257518Y-111012152D02*
X131328947Y-111047867D01*
X131328947Y-111047867D02*
X131364661Y-111083581D01*
X131364661Y-111083581D02*
X131400375Y-111155010D01*
X131400375Y-111155010D02*
X131400375Y-111297867D01*
X131400375Y-111297867D02*
X131364661Y-111369295D01*
X131364661Y-111369295D02*
X131328947Y-111405010D01*
X131328947Y-111405010D02*
X131257518Y-111440724D01*
X131257518Y-111440724D02*
X131114661Y-111440724D01*
X131114661Y-111440724D02*
X131043233Y-111405010D01*
X131043233Y-111405010D02*
X131007518Y-111369295D01*
X131007518Y-111369295D02*
X130971804Y-111297867D01*
X130971804Y-111297867D02*
X130971804Y-111155010D01*
X130971804Y-111155010D02*
X131007518Y-111083581D01*
X131007518Y-111083581D02*
X131043233Y-111047867D01*
X131043233Y-111047867D02*
X131114661Y-111012152D01*
X135728947Y-109090724D02*
X135478947Y-109840724D01*
X135478947Y-109840724D02*
X135228947Y-109090724D01*
X135014661Y-109805010D02*
X134907519Y-109840724D01*
X134907519Y-109840724D02*
X134728947Y-109840724D01*
X134728947Y-109840724D02*
X134657519Y-109805010D01*
X134657519Y-109805010D02*
X134621804Y-109769295D01*
X134621804Y-109769295D02*
X134586090Y-109697867D01*
X134586090Y-109697867D02*
X134586090Y-109626438D01*
X134586090Y-109626438D02*
X134621804Y-109555010D01*
X134621804Y-109555010D02*
X134657519Y-109519295D01*
X134657519Y-109519295D02*
X134728947Y-109483581D01*
X134728947Y-109483581D02*
X134871804Y-109447867D01*
X134871804Y-109447867D02*
X134943233Y-109412152D01*
X134943233Y-109412152D02*
X134978947Y-109376438D01*
X134978947Y-109376438D02*
X135014661Y-109305010D01*
X135014661Y-109305010D02*
X135014661Y-109233581D01*
X135014661Y-109233581D02*
X134978947Y-109162152D01*
X134978947Y-109162152D02*
X134943233Y-109126438D01*
X134943233Y-109126438D02*
X134871804Y-109090724D01*
X134871804Y-109090724D02*
X134693233Y-109090724D01*
X134693233Y-109090724D02*
X134586090Y-109126438D01*
X134300375Y-109805010D02*
X134193233Y-109840724D01*
X134193233Y-109840724D02*
X134014661Y-109840724D01*
X134014661Y-109840724D02*
X133943233Y-109805010D01*
X133943233Y-109805010D02*
X133907518Y-109769295D01*
X133907518Y-109769295D02*
X133871804Y-109697867D01*
X133871804Y-109697867D02*
X133871804Y-109626438D01*
X133871804Y-109626438D02*
X133907518Y-109555010D01*
X133907518Y-109555010D02*
X133943233Y-109519295D01*
X133943233Y-109519295D02*
X134014661Y-109483581D01*
X134014661Y-109483581D02*
X134157518Y-109447867D01*
X134157518Y-109447867D02*
X134228947Y-109412152D01*
X134228947Y-109412152D02*
X134264661Y-109376438D01*
X134264661Y-109376438D02*
X134300375Y-109305010D01*
X134300375Y-109305010D02*
X134300375Y-109233581D01*
X134300375Y-109233581D02*
X134264661Y-109162152D01*
X134264661Y-109162152D02*
X134228947Y-109126438D01*
X134228947Y-109126438D02*
X134157518Y-109090724D01*
X134157518Y-109090724D02*
X133978947Y-109090724D01*
X133978947Y-109090724D02*
X133871804Y-109126438D01*
X133246428Y-91190724D02*
X132817857Y-91190724D01*
X133032142Y-91940724D02*
X133032142Y-91190724D01*
X132639285Y-91190724D02*
X132139285Y-91940724D01*
X132139285Y-91190724D02*
X132639285Y-91940724D01*
X131853570Y-91940724D02*
X131853570Y-91190724D01*
X131853570Y-91190724D02*
X131674999Y-91190724D01*
X131674999Y-91190724D02*
X131567856Y-91226438D01*
X131567856Y-91226438D02*
X131496427Y-91297867D01*
X131496427Y-91297867D02*
X131460713Y-91369295D01*
X131460713Y-91369295D02*
X131424999Y-91512152D01*
X131424999Y-91512152D02*
X131424999Y-91619295D01*
X131424999Y-91619295D02*
X131460713Y-91762152D01*
X131460713Y-91762152D02*
X131496427Y-91833581D01*
X131496427Y-91833581D02*
X131567856Y-91905010D01*
X131567856Y-91905010D02*
X131674999Y-91940724D01*
X131674999Y-91940724D02*
X131853570Y-91940724D01*
X134244990Y-114893232D02*
X134209275Y-114786090D01*
X134209275Y-114786090D02*
X134209275Y-114607518D01*
X134209275Y-114607518D02*
X134244990Y-114536090D01*
X134244990Y-114536090D02*
X134280704Y-114500375D01*
X134280704Y-114500375D02*
X134352132Y-114464661D01*
X134352132Y-114464661D02*
X134423561Y-114464661D01*
X134423561Y-114464661D02*
X134494990Y-114500375D01*
X134494990Y-114500375D02*
X134530704Y-114536090D01*
X134530704Y-114536090D02*
X134566418Y-114607518D01*
X134566418Y-114607518D02*
X134602132Y-114750375D01*
X134602132Y-114750375D02*
X134637847Y-114821804D01*
X134637847Y-114821804D02*
X134673561Y-114857518D01*
X134673561Y-114857518D02*
X134744990Y-114893232D01*
X134744990Y-114893232D02*
X134816418Y-114893232D01*
X134816418Y-114893232D02*
X134887847Y-114857518D01*
X134887847Y-114857518D02*
X134923561Y-114821804D01*
X134923561Y-114821804D02*
X134959275Y-114750375D01*
X134959275Y-114750375D02*
X134959275Y-114571804D01*
X134959275Y-114571804D02*
X134923561Y-114464661D01*
X134209275Y-114143232D02*
X134959275Y-114143232D01*
X134959275Y-114143232D02*
X134959275Y-113964661D01*
X134959275Y-113964661D02*
X134923561Y-113857518D01*
X134923561Y-113857518D02*
X134852132Y-113786089D01*
X134852132Y-113786089D02*
X134780704Y-113750375D01*
X134780704Y-113750375D02*
X134637847Y-113714661D01*
X134637847Y-113714661D02*
X134530704Y-113714661D01*
X134530704Y-113714661D02*
X134387847Y-113750375D01*
X134387847Y-113750375D02*
X134316418Y-113786089D01*
X134316418Y-113786089D02*
X134244990Y-113857518D01*
X134244990Y-113857518D02*
X134209275Y-113964661D01*
X134209275Y-113964661D02*
X134209275Y-114143232D01*
X134423561Y-113428946D02*
X134423561Y-113071804D01*
X134209275Y-113500375D02*
X134959275Y-113250375D01*
X134959275Y-113250375D02*
X134209275Y-113000375D01*
X140607518Y-113205010D02*
X140500376Y-113240724D01*
X140500376Y-113240724D02*
X140321804Y-113240724D01*
X140321804Y-113240724D02*
X140250376Y-113205010D01*
X140250376Y-113205010D02*
X140214661Y-113169295D01*
X140214661Y-113169295D02*
X140178947Y-113097867D01*
X140178947Y-113097867D02*
X140178947Y-113026438D01*
X140178947Y-113026438D02*
X140214661Y-112955010D01*
X140214661Y-112955010D02*
X140250376Y-112919295D01*
X140250376Y-112919295D02*
X140321804Y-112883581D01*
X140321804Y-112883581D02*
X140464661Y-112847867D01*
X140464661Y-112847867D02*
X140536090Y-112812152D01*
X140536090Y-112812152D02*
X140571804Y-112776438D01*
X140571804Y-112776438D02*
X140607518Y-112705010D01*
X140607518Y-112705010D02*
X140607518Y-112633581D01*
X140607518Y-112633581D02*
X140571804Y-112562152D01*
X140571804Y-112562152D02*
X140536090Y-112526438D01*
X140536090Y-112526438D02*
X140464661Y-112490724D01*
X140464661Y-112490724D02*
X140286090Y-112490724D01*
X140286090Y-112490724D02*
X140178947Y-112526438D01*
X139428947Y-113169295D02*
X139464661Y-113205010D01*
X139464661Y-113205010D02*
X139571804Y-113240724D01*
X139571804Y-113240724D02*
X139643232Y-113240724D01*
X139643232Y-113240724D02*
X139750375Y-113205010D01*
X139750375Y-113205010D02*
X139821804Y-113133581D01*
X139821804Y-113133581D02*
X139857518Y-113062152D01*
X139857518Y-113062152D02*
X139893232Y-112919295D01*
X139893232Y-112919295D02*
X139893232Y-112812152D01*
X139893232Y-112812152D02*
X139857518Y-112669295D01*
X139857518Y-112669295D02*
X139821804Y-112597867D01*
X139821804Y-112597867D02*
X139750375Y-112526438D01*
X139750375Y-112526438D02*
X139643232Y-112490724D01*
X139643232Y-112490724D02*
X139571804Y-112490724D01*
X139571804Y-112490724D02*
X139464661Y-112526438D01*
X139464661Y-112526438D02*
X139428947Y-112562152D01*
X138750375Y-113240724D02*
X139107518Y-113240724D01*
X139107518Y-113240724D02*
X139107518Y-112490724D01*
%TO.C,R3*%
X135255000Y-111980000D02*
X135885000Y-111980000D01*
X135255000Y-112920000D02*
X135255000Y-111980000D01*
X135885000Y-112920000D02*
X135255000Y-112920000D01*
X136515000Y-112920000D02*
X137145000Y-112920000D01*
X137145000Y-111980000D02*
X136515000Y-111980000D01*
X137145000Y-112920000D02*
X137145000Y-111980000D01*
%TO.C,D5*%
X148550000Y-99600000D02*
X148550000Y-100600000D01*
X148550000Y-100600000D02*
X149100000Y-100600000D01*
X149100000Y-99600000D02*
X148550000Y-99600000D01*
X150050000Y-100600000D02*
X150050000Y-99600000D01*
%TO.C,D3*%
X148550000Y-100700000D02*
X148550000Y-101700000D01*
X148550000Y-101700000D02*
X149100000Y-101700000D01*
X149100000Y-100700000D02*
X148550000Y-100700000D01*
X150050000Y-101700000D02*
X150050000Y-100700000D01*
%TO.C,D6*%
X148550000Y-98500000D02*
X148550000Y-99500000D01*
X148550000Y-99500000D02*
X149100000Y-99500000D01*
X149100000Y-98500000D02*
X148550000Y-98500000D01*
X150050000Y-99500000D02*
X150050000Y-98500000D01*
%TO.C,J3*%
X131550000Y-107025000D02*
X138800000Y-107025000D01*
X138800000Y-94375000D02*
X131550000Y-94375000D01*
X142925000Y-94375000D02*
X144460000Y-94375000D01*
X142925000Y-107025000D02*
X144460000Y-107025000D01*
X144460000Y-95950000D02*
X144460000Y-94375000D01*
X144460000Y-103750000D02*
X144460000Y-107025000D01*
%TO.C,R6*%
X131105000Y-113730000D02*
X131105000Y-114670000D01*
X131105000Y-114670000D02*
X131735000Y-114670000D01*
X131735000Y-113730000D02*
X131105000Y-113730000D01*
X132365000Y-113730000D02*
X132995000Y-113730000D01*
X132995000Y-113730000D02*
X132995000Y-114670000D01*
X132995000Y-114670000D02*
X132365000Y-114670000D01*
%TO.C,C8*%
X130685000Y-112135000D02*
X131595000Y-112135000D01*
X130685000Y-113465000D02*
X130685000Y-112135000D01*
X131595000Y-113465000D02*
X130685000Y-113465000D01*
X132505000Y-113465000D02*
X133415000Y-113465000D01*
X133415000Y-112135000D02*
X132505000Y-112135000D01*
X133415000Y-113465000D02*
X133415000Y-112135000D01*
%TO.C,R4*%
X135255000Y-110830000D02*
X135885000Y-110830000D01*
X135255000Y-111770000D02*
X135255000Y-110830000D01*
X135885000Y-111770000D02*
X135255000Y-111770000D01*
X136515000Y-111770000D02*
X137145000Y-111770000D01*
X137145000Y-110830000D02*
X136515000Y-110830000D01*
X137145000Y-111770000D02*
X137145000Y-110830000D01*
%TO.C,D4*%
X148550000Y-101800000D02*
X148550000Y-102800000D01*
X148550000Y-102800000D02*
X149100000Y-102800000D01*
X149100000Y-101800000D02*
X148550000Y-101800000D01*
X150050000Y-102800000D02*
X150050000Y-101800000D01*
%TD*%
M02*
