%TF.GenerationSoftware,KiCad,Pcbnew,8.0.8+1*%
%TF.CreationDate,2025-01-22T08:35:02-05:00*%
%TF.ProjectId,cellularBoard,63656c6c-756c-4617-9242-6f6172642e6b,rev?*%
%TF.SameCoordinates,Original*%
%TF.FileFunction,Legend,Top*%
%TF.FilePolarity,Positive*%
%FSLAX46Y46*%
G04 Gerber Fmt 4.6, Leading zero omitted, Abs format (unit mm)*
G04 Created by KiCad (PCBNEW 8.0.8+1) date 2025-01-22 08:35:02*
%MOMM*%
%LPD*%
G01*
G04 APERTURE LIST*
%ADD10C,0.150000*%
%ADD11C,0.200000*%
%ADD12C,0.120000*%
%ADD13C,0.100000*%
%ADD14C,0.152400*%
G04 APERTURE END LIST*
D10*
G36*
X150713625Y-83639537D02*
G01*
X150562499Y-83639537D01*
X150562499Y-83006460D01*
X150239000Y-83006460D01*
X150239000Y-82877500D01*
X150713625Y-82877500D01*
X150713625Y-83639537D01*
G37*
G36*
X149956899Y-83510577D02*
G01*
X150151256Y-83510577D01*
X150151256Y-83639537D01*
X149611418Y-83639537D01*
X149611418Y-83510577D01*
X149805774Y-83510577D01*
X149805774Y-82877500D01*
X149956899Y-82877500D01*
X149956899Y-83510577D01*
G37*
G36*
X149479710Y-83639537D02*
G01*
X149002887Y-83639537D01*
X149002887Y-83510577D01*
X149328401Y-83510577D01*
X149328401Y-83346446D01*
X149033661Y-83346446D01*
X149033661Y-83217486D01*
X149328401Y-83217486D01*
X149328401Y-83006460D01*
X149002887Y-83006460D01*
X149002887Y-82877500D01*
X149479710Y-82877500D01*
X149479710Y-83639537D01*
G37*
G36*
X148820804Y-83264380D02*
G01*
X148415422Y-83264380D01*
X148415422Y-83111973D01*
X148820804Y-83111973D01*
X148820804Y-83264380D01*
G37*
G36*
X148258435Y-83639537D02*
G01*
X148078000Y-83639537D01*
X147986775Y-83303032D01*
X147896100Y-83639537D01*
X147714567Y-83639537D01*
X147714567Y-82877500D01*
X147844809Y-82877500D01*
X147844809Y-83483283D01*
X147925776Y-83154837D01*
X148046310Y-83154837D01*
X148128192Y-83483283D01*
X148128192Y-82877500D01*
X148258435Y-82877500D01*
X148258435Y-83639537D01*
G37*
D11*
G36*
X143693720Y-115898949D02*
G01*
X144329484Y-115898949D01*
X144329484Y-116070896D01*
X143895464Y-116070896D01*
X143895464Y-116289738D01*
X144288451Y-116289738D01*
X144288451Y-116461685D01*
X143895464Y-116461685D01*
X143895464Y-116743053D01*
X144329484Y-116743053D01*
X144329484Y-116915000D01*
X143693720Y-116915000D01*
X143693720Y-115898949D01*
G37*
D10*
G36*
X148683414Y-112450082D02*
G01*
X148727201Y-112453617D01*
X148766712Y-112459871D01*
X148808482Y-112470965D01*
X148844095Y-112485974D01*
X148873551Y-112504899D01*
X148900460Y-112532468D01*
X148920760Y-112566769D01*
X148932900Y-112601528D01*
X148940183Y-112641232D01*
X148942544Y-112678098D01*
X148942611Y-112685883D01*
X148940925Y-112723291D01*
X148934451Y-112763717D01*
X148923121Y-112799274D01*
X148903765Y-112834604D01*
X148877800Y-112863308D01*
X148873551Y-112866867D01*
X148838587Y-112888566D01*
X148801948Y-112902922D01*
X148759152Y-112913364D01*
X148718785Y-112919074D01*
X148674144Y-112922065D01*
X148645307Y-112922554D01*
X148588886Y-112922554D01*
X148588886Y-113211250D01*
X148437761Y-113211250D01*
X148437761Y-112800922D01*
X148588886Y-112800922D01*
X148650985Y-112800922D01*
X148689550Y-112798893D01*
X148726963Y-112790904D01*
X148755582Y-112775276D01*
X148776882Y-112742770D01*
X148784533Y-112704826D01*
X148785258Y-112685883D01*
X148781751Y-112646663D01*
X148768565Y-112611866D01*
X148755582Y-112596673D01*
X148720956Y-112579017D01*
X148681598Y-112572081D01*
X148650985Y-112570845D01*
X148588886Y-112570845D01*
X148588886Y-112800922D01*
X148437761Y-112800922D01*
X148437761Y-112449212D01*
X148645307Y-112449212D01*
X148683414Y-112450082D01*
G37*
G36*
X148984194Y-112449212D02*
G01*
X149116451Y-112449212D01*
X149171406Y-113005170D01*
X149237534Y-112636790D01*
X149363014Y-112636790D01*
X149439951Y-113005170D01*
X149482998Y-112449212D01*
X149616355Y-112449212D01*
X149528244Y-113211250D01*
X149387194Y-113211250D01*
X149300000Y-112804219D01*
X149218483Y-113211250D01*
X149078532Y-113211250D01*
X148984194Y-112449212D01*
G37*
G36*
X149946594Y-112450477D02*
G01*
X149986642Y-112454274D01*
X150029339Y-112462172D01*
X150066189Y-112473715D01*
X150101789Y-112491788D01*
X150114610Y-112501052D01*
X150141344Y-112529061D01*
X150159687Y-112561739D01*
X150162787Y-112569562D01*
X150173106Y-112606239D01*
X150177962Y-112643904D01*
X150178724Y-112667565D01*
X150176631Y-112705054D01*
X150169199Y-112741021D01*
X150154488Y-112774677D01*
X150140256Y-112794877D01*
X150112344Y-112820658D01*
X150094827Y-112831330D01*
X150058935Y-112844762D01*
X150029614Y-112850381D01*
X150062925Y-112865850D01*
X150068998Y-112871447D01*
X150086584Y-112894894D01*
X150104769Y-112927080D01*
X150109481Y-112936293D01*
X150247967Y-113211250D01*
X150081821Y-113211250D01*
X149989497Y-113016527D01*
X149978872Y-112993812D01*
X149961159Y-112961455D01*
X149938942Y-112932088D01*
X149934726Y-112927867D01*
X149902471Y-112908967D01*
X149883435Y-112906434D01*
X149835258Y-112906434D01*
X149835258Y-113211250D01*
X149683949Y-113211250D01*
X149683949Y-112784801D01*
X149835258Y-112784801D01*
X149906516Y-112784801D01*
X149945239Y-112781814D01*
X149980120Y-112770582D01*
X149995725Y-112759522D01*
X150015143Y-112728565D01*
X150021945Y-112690846D01*
X150022287Y-112677640D01*
X150018551Y-112638966D01*
X150003377Y-112603953D01*
X149995725Y-112595574D01*
X149962621Y-112577824D01*
X149925067Y-112571449D01*
X149906516Y-112570845D01*
X149835258Y-112570845D01*
X149835258Y-112784801D01*
X149683949Y-112784801D01*
X149683949Y-112449212D01*
X149902486Y-112449212D01*
X149946594Y-112450477D01*
G37*
G36*
X129669368Y-83897871D02*
G01*
X129670894Y-83847343D01*
X129673276Y-83817759D01*
X129680260Y-83769121D01*
X129686465Y-83739846D01*
X129699230Y-83691436D01*
X129715240Y-83645126D01*
X129736597Y-83596608D01*
X129738733Y-83592323D01*
X129944385Y-83592323D01*
X129914555Y-83637590D01*
X129889362Y-83681891D01*
X129866808Y-83729981D01*
X129859389Y-83748883D01*
X129844706Y-83796138D01*
X129834835Y-83846907D01*
X129831545Y-83896406D01*
X129836319Y-83948120D01*
X129853957Y-83996560D01*
X129865495Y-84013398D01*
X129905856Y-84044173D01*
X129955340Y-84054391D01*
X129959040Y-84054431D01*
X130007469Y-84045775D01*
X130039152Y-84027076D01*
X130069926Y-83992393D01*
X130092641Y-83947697D01*
X130130010Y-83848534D01*
X130148657Y-83802228D01*
X130169225Y-83757518D01*
X130189849Y-83719330D01*
X130218457Y-83677191D01*
X130251399Y-83642149D01*
X130294575Y-83613684D01*
X130341224Y-83597080D01*
X130395254Y-83589015D01*
X130421636Y-83588171D01*
X130471439Y-83591297D01*
X130524159Y-83602844D01*
X130571082Y-83622899D01*
X130612208Y-83651463D01*
X130638035Y-83677076D01*
X130668679Y-83719354D01*
X130691797Y-83767756D01*
X130707388Y-83822283D01*
X130714761Y-83873895D01*
X130716681Y-83920341D01*
X130714979Y-83971380D01*
X130709870Y-84020053D01*
X130702271Y-84062247D01*
X130688784Y-84112736D01*
X130671714Y-84160829D01*
X130654399Y-84201465D01*
X130461203Y-84201465D01*
X130488082Y-84160342D01*
X130514323Y-84110837D01*
X130534003Y-84061160D01*
X130547124Y-84011312D01*
X130553684Y-83961292D01*
X130554504Y-83936217D01*
X130550417Y-83885831D01*
X130533812Y-83837241D01*
X130525439Y-83824598D01*
X130484816Y-83793197D01*
X130442641Y-83785764D01*
X130393604Y-83798070D01*
X130372787Y-83814340D01*
X130344944Y-83855129D01*
X130324247Y-83900810D01*
X130311727Y-83932798D01*
X130279242Y-84019504D01*
X130257975Y-84070501D01*
X130234136Y-84115140D01*
X130203743Y-84158371D01*
X130165536Y-84197080D01*
X130161029Y-84200732D01*
X130116138Y-84228832D01*
X130064446Y-84247736D01*
X130012789Y-84256818D01*
X129970519Y-84258862D01*
X129916910Y-84255642D01*
X129868556Y-84245982D01*
X129818784Y-84226573D01*
X129776165Y-84198398D01*
X129745327Y-84167271D01*
X129715730Y-84123074D01*
X129693402Y-84070626D01*
X129680050Y-84019103D01*
X129672038Y-83961518D01*
X129669442Y-83908900D01*
X129669368Y-83897871D01*
G37*
G36*
X130701050Y-84640125D02*
G01*
X130701050Y-84887055D01*
X129685000Y-85162561D01*
X129685000Y-84960816D01*
X129935104Y-84897801D01*
X129935104Y-84858967D01*
X130097281Y-84858967D01*
X130513715Y-84763224D01*
X130097281Y-84668213D01*
X130097281Y-84858967D01*
X129935104Y-84858967D01*
X129935104Y-84627913D01*
X129685000Y-84566364D01*
X129685000Y-84364619D01*
X130701050Y-84640125D01*
G37*
G36*
X130701050Y-85566538D02*
G01*
X130699362Y-85625350D01*
X130694300Y-85678747D01*
X130683770Y-85735676D01*
X130668379Y-85784809D01*
X130644282Y-85832277D01*
X130631929Y-85849371D01*
X130594584Y-85885017D01*
X130551014Y-85909474D01*
X130540582Y-85913607D01*
X130491680Y-85927365D01*
X130441460Y-85933840D01*
X130409912Y-85934856D01*
X130359927Y-85932066D01*
X130311971Y-85922156D01*
X130267097Y-85902542D01*
X130240163Y-85883565D01*
X130205788Y-85846349D01*
X130191559Y-85822993D01*
X130173649Y-85775137D01*
X130166158Y-85736043D01*
X130145532Y-85780458D01*
X130138070Y-85788555D01*
X130106807Y-85812002D01*
X130063893Y-85836250D01*
X130051608Y-85842533D01*
X129685000Y-86027180D01*
X129685000Y-85805652D01*
X129944630Y-85682554D01*
X129974916Y-85668387D01*
X130018059Y-85644769D01*
X130057215Y-85615147D01*
X130062843Y-85609525D01*
X130084883Y-85571912D01*
X130253597Y-85571912D01*
X130257580Y-85623543D01*
X130272556Y-85670051D01*
X130287302Y-85690858D01*
X130328579Y-85716748D01*
X130378871Y-85725817D01*
X130396479Y-85726273D01*
X130448045Y-85721293D01*
X130494728Y-85701060D01*
X130505900Y-85690858D01*
X130529567Y-85646719D01*
X130538067Y-85596647D01*
X130538872Y-85571912D01*
X130538872Y-85476901D01*
X130253597Y-85476901D01*
X130253597Y-85571912D01*
X130084883Y-85571912D01*
X130088043Y-85566519D01*
X130091420Y-85541137D01*
X130091420Y-85476901D01*
X129685000Y-85476901D01*
X129685000Y-85275157D01*
X130701050Y-85275157D01*
X130701050Y-85566538D01*
G37*
G36*
X130701050Y-86324424D02*
G01*
X130701050Y-86571353D01*
X129685000Y-86846859D01*
X129685000Y-86645115D01*
X129935104Y-86582100D01*
X129935104Y-86543265D01*
X130097281Y-86543265D01*
X130513715Y-86447522D01*
X130097281Y-86352512D01*
X130097281Y-86543265D01*
X129935104Y-86543265D01*
X129935104Y-86312212D01*
X129685000Y-86250662D01*
X129685000Y-86048918D01*
X130701050Y-86324424D01*
G37*
G36*
X130200840Y-87019783D02*
G01*
X130200840Y-87560293D01*
X129997630Y-87560293D01*
X129997630Y-87019783D01*
X130200840Y-87019783D01*
G37*
G36*
X130701050Y-88092986D02*
G01*
X130699362Y-88151798D01*
X130694300Y-88205195D01*
X130683770Y-88262124D01*
X130668379Y-88311257D01*
X130644282Y-88358725D01*
X130631929Y-88375819D01*
X130594584Y-88411465D01*
X130551014Y-88435922D01*
X130540582Y-88440055D01*
X130491680Y-88453813D01*
X130441460Y-88460288D01*
X130409912Y-88461304D01*
X130359927Y-88458514D01*
X130311971Y-88448604D01*
X130267097Y-88428990D01*
X130240163Y-88410013D01*
X130205788Y-88372797D01*
X130191559Y-88349441D01*
X130173649Y-88301585D01*
X130166158Y-88262491D01*
X130145532Y-88306906D01*
X130138070Y-88315003D01*
X130106807Y-88338450D01*
X130063893Y-88362698D01*
X130051608Y-88368981D01*
X129685000Y-88553628D01*
X129685000Y-88332100D01*
X129944630Y-88209002D01*
X129974916Y-88194836D01*
X130018059Y-88171217D01*
X130057215Y-88141595D01*
X130062843Y-88135973D01*
X130084883Y-88098360D01*
X130253597Y-88098360D01*
X130257580Y-88149991D01*
X130272556Y-88196499D01*
X130287302Y-88217306D01*
X130328579Y-88243196D01*
X130378871Y-88252265D01*
X130396479Y-88252721D01*
X130448045Y-88247741D01*
X130494728Y-88227508D01*
X130505900Y-88217306D01*
X130529567Y-88173167D01*
X130538067Y-88123095D01*
X130538872Y-88098360D01*
X130538872Y-88003349D01*
X130253597Y-88003349D01*
X130253597Y-88098360D01*
X130084883Y-88098360D01*
X130088043Y-88092967D01*
X130091420Y-88067585D01*
X130091420Y-88003349D01*
X129685000Y-88003349D01*
X129685000Y-87801605D01*
X130701050Y-87801605D01*
X130701050Y-88092986D01*
G37*
G36*
X129669368Y-88917306D02*
G01*
X129671142Y-88866702D01*
X129672055Y-88854291D01*
X129677367Y-88804099D01*
X129679870Y-88787369D01*
X129688758Y-88737962D01*
X129693060Y-88718492D01*
X129705529Y-88669492D01*
X129710889Y-88650593D01*
X129888210Y-88650593D01*
X129867828Y-88696591D01*
X129863297Y-88708722D01*
X129848947Y-88755916D01*
X129845956Y-88767585D01*
X129836105Y-88818602D01*
X129831897Y-88867398D01*
X129831545Y-88886531D01*
X129834476Y-88937456D01*
X129844780Y-88986572D01*
X129867449Y-89034848D01*
X129878440Y-89049197D01*
X129919530Y-89082983D01*
X129966308Y-89100254D01*
X130011064Y-89104640D01*
X130062703Y-89099393D01*
X130110084Y-89081499D01*
X130147595Y-89050907D01*
X130174572Y-89008857D01*
X130189380Y-88961764D01*
X130194793Y-88912161D01*
X130194979Y-88900209D01*
X130191770Y-88850853D01*
X130191559Y-88849162D01*
X130181951Y-88800065D01*
X130180568Y-88794940D01*
X130164488Y-88746846D01*
X130160785Y-88737787D01*
X130139893Y-88692392D01*
X130135872Y-88684787D01*
X130701050Y-88684787D01*
X130701050Y-89239218D01*
X130529103Y-89239218D01*
X130529103Y-88848185D01*
X130339570Y-88848185D01*
X130347142Y-88869923D01*
X130354958Y-88900942D01*
X130357156Y-88930251D01*
X130357156Y-88961758D01*
X130353755Y-89014743D01*
X130343555Y-89065256D01*
X130332976Y-89097557D01*
X130311750Y-89142826D01*
X130281778Y-89186131D01*
X130262634Y-89206978D01*
X130223254Y-89239830D01*
X130177748Y-89266152D01*
X130154678Y-89276099D01*
X130105139Y-89291131D01*
X130056047Y-89298816D01*
X130013262Y-89300767D01*
X129955740Y-89297221D01*
X129902975Y-89286582D01*
X129854967Y-89268850D01*
X129811716Y-89244026D01*
X129773222Y-89212110D01*
X129761448Y-89199895D01*
X129730155Y-89159226D01*
X129705337Y-89112872D01*
X129686993Y-89060834D01*
X129675123Y-89003111D01*
X129670177Y-88950667D01*
X129669368Y-88917306D01*
G37*
G36*
X129856946Y-89523517D02*
G01*
X129856946Y-89749197D01*
X130490024Y-89749197D01*
X130324427Y-89596057D01*
X130423834Y-89500314D01*
X130701050Y-89750418D01*
X130701050Y-89945324D01*
X129856946Y-89945324D01*
X129856946Y-90171004D01*
X129685000Y-90171004D01*
X129685000Y-89523517D01*
X129856946Y-89523517D01*
G37*
G36*
X129830812Y-90315840D02*
G01*
X129872578Y-90332937D01*
X129969787Y-90425261D01*
X130008179Y-90461455D01*
X130046224Y-90497319D01*
X130082107Y-90531141D01*
X130097526Y-90545673D01*
X130134698Y-90580802D01*
X130171775Y-90615526D01*
X130209052Y-90649742D01*
X130222334Y-90661688D01*
X130259874Y-90693267D01*
X130275334Y-90705408D01*
X130317970Y-90732469D01*
X130324183Y-90735450D01*
X130369979Y-90752486D01*
X130415530Y-90758164D01*
X130466881Y-90750170D01*
X130510176Y-90723863D01*
X130517379Y-90716399D01*
X130542757Y-90673449D01*
X130553598Y-90622098D01*
X130554504Y-90599406D01*
X130550156Y-90548376D01*
X130538333Y-90498395D01*
X130531789Y-90478506D01*
X130513361Y-90431689D01*
X130503457Y-90409874D01*
X130480311Y-90365147D01*
X130464134Y-90337578D01*
X130659773Y-90337578D01*
X130676527Y-90384841D01*
X130685907Y-90415491D01*
X130698832Y-90464442D01*
X130702515Y-90481193D01*
X130711148Y-90533400D01*
X130715796Y-90584508D01*
X130716681Y-90617969D01*
X130714546Y-90668000D01*
X130707344Y-90719881D01*
X130698607Y-90756943D01*
X130682132Y-90803219D01*
X130657695Y-90848236D01*
X130641699Y-90870272D01*
X130604833Y-90906965D01*
X130561099Y-90935072D01*
X130554748Y-90938171D01*
X130506296Y-90954867D01*
X130454523Y-90961999D01*
X130432871Y-90962595D01*
X130380865Y-90958087D01*
X130333100Y-90945746D01*
X130322962Y-90942079D01*
X130278036Y-90920452D01*
X130234485Y-90893673D01*
X130206214Y-90872958D01*
X130167290Y-90839075D01*
X130128789Y-90803105D01*
X130091553Y-90767231D01*
X130054905Y-90731225D01*
X130017658Y-90694192D01*
X129997386Y-90673900D01*
X129960900Y-90636884D01*
X129926446Y-90598939D01*
X129923381Y-90595254D01*
X129892534Y-90555912D01*
X129887477Y-90548848D01*
X129856946Y-90513433D01*
X129856946Y-90963817D01*
X129685000Y-90963817D01*
X129685000Y-90315840D01*
X129830812Y-90315840D01*
G37*
G36*
X129669368Y-92440265D02*
G01*
X129671471Y-92390645D01*
X129680013Y-92332807D01*
X129695127Y-92279620D01*
X129716812Y-92231084D01*
X129745068Y-92187199D01*
X129779895Y-92147965D01*
X129803946Y-92126657D01*
X129849116Y-92095345D01*
X129900059Y-92069341D01*
X129956774Y-92048643D01*
X130006302Y-92035907D01*
X130059524Y-92026566D01*
X130116440Y-92020622D01*
X130177051Y-92018075D01*
X130192780Y-92017969D01*
X130254589Y-92019667D01*
X130312643Y-92024762D01*
X130366941Y-92033253D01*
X130417484Y-92045141D01*
X130464272Y-92060425D01*
X130517475Y-92084307D01*
X130564812Y-92113495D01*
X130582103Y-92126657D01*
X130620873Y-92163100D01*
X130653072Y-92204194D01*
X130678700Y-92249940D01*
X130697756Y-92300336D01*
X130710242Y-92355384D01*
X130716156Y-92415083D01*
X130716681Y-92440265D01*
X130714204Y-92491195D01*
X130706770Y-92539694D01*
X130703736Y-92553105D01*
X130688581Y-92601573D01*
X130667844Y-92647143D01*
X130664658Y-92653000D01*
X130431161Y-92653000D01*
X130465342Y-92615343D01*
X130478545Y-92597801D01*
X130503916Y-92555981D01*
X130505900Y-92551884D01*
X130522418Y-92505519D01*
X130523485Y-92500837D01*
X130529097Y-92452110D01*
X130529103Y-92450523D01*
X130523821Y-92399110D01*
X130505252Y-92349153D01*
X130473314Y-92307542D01*
X130444595Y-92284438D01*
X130396525Y-92259647D01*
X130346324Y-92243766D01*
X130297248Y-92234469D01*
X130242591Y-92229157D01*
X130192780Y-92227773D01*
X130142800Y-92229157D01*
X130088097Y-92234469D01*
X130039148Y-92243766D01*
X129989311Y-92259647D01*
X129941943Y-92284438D01*
X129900856Y-92320485D01*
X129873215Y-92364878D01*
X129859022Y-92417617D01*
X129856946Y-92450523D01*
X129861669Y-92499177D01*
X129875837Y-92546221D01*
X129878440Y-92552372D01*
X129901967Y-92596822D01*
X129903841Y-92599755D01*
X129933847Y-92640351D01*
X129944385Y-92653000D01*
X129719682Y-92653000D01*
X129698888Y-92607047D01*
X129683675Y-92558948D01*
X129682069Y-92552372D01*
X129672952Y-92501951D01*
X129669480Y-92451501D01*
X129669368Y-92440265D01*
G37*
G36*
X130115443Y-92821840D02*
G01*
X130164098Y-92827906D01*
X130216068Y-92839790D01*
X130264161Y-92856955D01*
X130275579Y-92862072D01*
X130318352Y-92885932D01*
X130360413Y-92919014D01*
X130396061Y-92958704D01*
X130416263Y-92988834D01*
X130438275Y-93033744D01*
X130453998Y-93083967D01*
X130462597Y-93132269D01*
X130466380Y-93184639D01*
X130466577Y-93200348D01*
X130463524Y-93250968D01*
X130452790Y-93303681D01*
X130434329Y-93351913D01*
X130417728Y-93381577D01*
X130387237Y-93421973D01*
X130350718Y-93456882D01*
X130308171Y-93486304D01*
X130281929Y-93500279D01*
X130236668Y-93518658D01*
X130187834Y-93531786D01*
X130135429Y-93539663D01*
X130086644Y-93542247D01*
X130079452Y-93542288D01*
X129997630Y-93542288D01*
X129997630Y-93340544D01*
X130153946Y-93340544D01*
X130204550Y-93335048D01*
X130250738Y-93314746D01*
X130266297Y-93301465D01*
X130293646Y-93257652D01*
X130303804Y-93207699D01*
X130304399Y-93190090D01*
X130298904Y-93139269D01*
X130278601Y-93091350D01*
X130265321Y-93074563D01*
X130224769Y-93044730D01*
X130175727Y-93028665D01*
X130153946Y-93025471D01*
X130153946Y-93340544D01*
X129997630Y-93340544D01*
X129997630Y-93023517D01*
X129941187Y-93030867D01*
X129896422Y-93052917D01*
X129863335Y-93089668D01*
X129841926Y-93141120D01*
X129833005Y-93195225D01*
X129831545Y-93232588D01*
X129834224Y-93284240D01*
X129842261Y-93336063D01*
X129855657Y-93388059D01*
X129874410Y-93440225D01*
X129898521Y-93492564D01*
X129907749Y-93510048D01*
X129727498Y-93510048D01*
X129707743Y-93457466D01*
X129692075Y-93404318D01*
X129680494Y-93350603D01*
X129673001Y-93296321D01*
X129669595Y-93241472D01*
X129669368Y-93223063D01*
X129671843Y-93163629D01*
X129679266Y-93108822D01*
X129691640Y-93058643D01*
X129713020Y-93004535D01*
X129741528Y-92957091D01*
X129770729Y-92922644D01*
X129811916Y-92887699D01*
X129859458Y-92859985D01*
X129913353Y-92839500D01*
X129963120Y-92827952D01*
X130017300Y-92821425D01*
X130063820Y-92819818D01*
X130115443Y-92821840D01*
G37*
G36*
X129685000Y-94144347D02*
G01*
X129687584Y-94093840D01*
X129697133Y-94041992D01*
X129716661Y-93992067D01*
X129745378Y-93952095D01*
X129758517Y-93939672D01*
X129801213Y-93912316D01*
X129848115Y-93894792D01*
X129903922Y-93883251D01*
X129958845Y-93878122D01*
X129999096Y-93877145D01*
X130585767Y-93877145D01*
X130585767Y-93674180D01*
X130747944Y-93674180D01*
X130747944Y-94077424D01*
X130010087Y-94077424D01*
X129960174Y-94080191D01*
X129909908Y-94092061D01*
X129884790Y-94105757D01*
X129855441Y-94146613D01*
X129847213Y-94196408D01*
X129847177Y-94200523D01*
X129847177Y-94360502D01*
X129685000Y-94360502D01*
X129685000Y-94144347D01*
G37*
G36*
X129685000Y-94986496D02*
G01*
X129687584Y-94935990D01*
X129697133Y-94884141D01*
X129716661Y-94834216D01*
X129745378Y-94794244D01*
X129758517Y-94781821D01*
X129801213Y-94754466D01*
X129848115Y-94736941D01*
X129903922Y-94725401D01*
X129958845Y-94720272D01*
X129999096Y-94719295D01*
X130585767Y-94719295D01*
X130585767Y-94516329D01*
X130747944Y-94516329D01*
X130747944Y-94919574D01*
X130010087Y-94919574D01*
X129960174Y-94922341D01*
X129909908Y-94934210D01*
X129884790Y-94947906D01*
X129855441Y-94988762D01*
X129847213Y-95038557D01*
X129847177Y-95042672D01*
X129847177Y-95202651D01*
X129685000Y-95202651D01*
X129685000Y-94986496D01*
G37*
G36*
X129669368Y-95618108D02*
G01*
X129673932Y-95568008D01*
X129689979Y-95519163D01*
X129717578Y-95478277D01*
X129742397Y-95455443D01*
X129788848Y-95428405D01*
X129838929Y-95411801D01*
X129889538Y-95403007D01*
X129946480Y-95399566D01*
X129955132Y-95399511D01*
X130450945Y-95399511D01*
X130450945Y-95599790D01*
X129984930Y-95599790D01*
X129932803Y-95603105D01*
X129880077Y-95617835D01*
X129841132Y-95652821D01*
X129831545Y-95694068D01*
X129842010Y-95742243D01*
X129876242Y-95781207D01*
X129879173Y-95783217D01*
X129924316Y-95803933D01*
X129977078Y-95813681D01*
X130012773Y-95815212D01*
X130450945Y-95815212D01*
X130450945Y-96015491D01*
X129685000Y-96015491D01*
X129685000Y-95834996D01*
X129800038Y-95815212D01*
X129755631Y-95794292D01*
X129715434Y-95760531D01*
X129687743Y-95716695D01*
X129672558Y-95662784D01*
X129669368Y-95618108D01*
G37*
G36*
X129685000Y-96670795D02*
G01*
X129687584Y-96620288D01*
X129697133Y-96568440D01*
X129716661Y-96518515D01*
X129745378Y-96478543D01*
X129758517Y-96466120D01*
X129801213Y-96438764D01*
X129848115Y-96421240D01*
X129903922Y-96409699D01*
X129958845Y-96404570D01*
X129999096Y-96403593D01*
X130585767Y-96403593D01*
X130585767Y-96200628D01*
X130747944Y-96200628D01*
X130747944Y-96603872D01*
X130010087Y-96603872D01*
X129960174Y-96606639D01*
X129909908Y-96618509D01*
X129884790Y-96632205D01*
X129855441Y-96673061D01*
X129847213Y-96722856D01*
X129847177Y-96726971D01*
X129847177Y-96886950D01*
X129685000Y-96886950D01*
X129685000Y-96670795D01*
G37*
G36*
X129980491Y-97042792D02*
G01*
X130028433Y-97054372D01*
X130058935Y-97068422D01*
X130098445Y-97097875D01*
X130131232Y-97138354D01*
X130136605Y-97147557D01*
X130157602Y-97194106D01*
X130171071Y-97241852D01*
X130174706Y-97261374D01*
X130181106Y-97310009D01*
X130184552Y-97360293D01*
X130185209Y-97394731D01*
X130185209Y-97533461D01*
X130216960Y-97533461D01*
X130265183Y-97521371D01*
X130276311Y-97511967D01*
X130300075Y-97469140D01*
X130303178Y-97457013D01*
X130309701Y-97407398D01*
X130310261Y-97387159D01*
X130308010Y-97338120D01*
X130300419Y-97286136D01*
X130291210Y-97248185D01*
X130274724Y-97198245D01*
X130255749Y-97152587D01*
X130237477Y-97115317D01*
X130409424Y-97115317D01*
X130428254Y-97164037D01*
X130443102Y-97212467D01*
X130453143Y-97256245D01*
X130460791Y-97304639D01*
X130465265Y-97353438D01*
X130466577Y-97398150D01*
X130464859Y-97450657D01*
X130458688Y-97504482D01*
X130446381Y-97557152D01*
X130430673Y-97596964D01*
X130404617Y-97638633D01*
X130367250Y-97674937D01*
X130320764Y-97701256D01*
X130270431Y-97717742D01*
X130218158Y-97727359D01*
X130166146Y-97731755D01*
X130130987Y-97732519D01*
X130080296Y-97731922D01*
X130062843Y-97731542D01*
X130013537Y-97730726D01*
X129979801Y-97730565D01*
X129928930Y-97730186D01*
X129910191Y-97729832D01*
X129861011Y-97729111D01*
X129855237Y-97729099D01*
X129805674Y-97730933D01*
X129803702Y-97731053D01*
X129753726Y-97737618D01*
X129739466Y-97740579D01*
X129693538Y-97758365D01*
X129685000Y-97764026D01*
X129685000Y-97565701D01*
X129727742Y-97546894D01*
X129774148Y-97537613D01*
X129737798Y-97504537D01*
X129707333Y-97462271D01*
X129694769Y-97436741D01*
X129679290Y-97389983D01*
X129676078Y-97370795D01*
X129810052Y-97370795D01*
X129816457Y-97420603D01*
X129839461Y-97464476D01*
X129843513Y-97468981D01*
X129884219Y-97500560D01*
X129928265Y-97518806D01*
X129976283Y-97529325D01*
X130027856Y-97533446D01*
X130031092Y-97533461D01*
X130044525Y-97533461D01*
X130044525Y-97453593D01*
X130042733Y-97403784D01*
X130038175Y-97360293D01*
X130024090Y-97310900D01*
X130006912Y-97283356D01*
X129963081Y-97256909D01*
X129924602Y-97252581D01*
X129876058Y-97260336D01*
X129839849Y-97283600D01*
X129815755Y-97326577D01*
X129810052Y-97370795D01*
X129676078Y-97370795D01*
X129670956Y-97340204D01*
X129669368Y-97305338D01*
X129672570Y-97255473D01*
X129684073Y-97203808D01*
X129703940Y-97157821D01*
X129732173Y-97117514D01*
X129736290Y-97112875D01*
X129773538Y-97080711D01*
X129818112Y-97057737D01*
X129870013Y-97043952D01*
X129921438Y-97039429D01*
X129929242Y-97039357D01*
X129980491Y-97042792D01*
G37*
G36*
X130450945Y-97981402D02*
G01*
X130450945Y-98161653D01*
X130335418Y-98181681D01*
X130378065Y-98208025D01*
X130412950Y-98243093D01*
X130431894Y-98271318D01*
X130453029Y-98319667D01*
X130463833Y-98369116D01*
X130466577Y-98413224D01*
X130463047Y-98464672D01*
X130452456Y-98513687D01*
X130434806Y-98560270D01*
X130430429Y-98569295D01*
X130237721Y-98569295D01*
X130269953Y-98528699D01*
X130291637Y-98481651D01*
X130302771Y-98428149D01*
X130304399Y-98395638D01*
X130300488Y-98344514D01*
X130287149Y-98295716D01*
X130264344Y-98254710D01*
X130229505Y-98219997D01*
X130184705Y-98196824D01*
X130149305Y-98187787D01*
X130106318Y-98183391D01*
X130057368Y-98181763D01*
X130040617Y-98181681D01*
X129685000Y-98181681D01*
X129685000Y-97981402D01*
X130450945Y-97981402D01*
G37*
G36*
X130701050Y-99559699D02*
G01*
X130701050Y-99800279D01*
X130252376Y-99921912D01*
X130701050Y-100042812D01*
X130701050Y-100284856D01*
X129685000Y-100284856D01*
X129685000Y-100111200D01*
X130492711Y-100111200D01*
X130054783Y-100003244D01*
X130054783Y-99842533D01*
X130492711Y-99733356D01*
X129685000Y-99733356D01*
X129685000Y-99559699D01*
X130701050Y-99559699D01*
G37*
G36*
X130119387Y-100411989D02*
G01*
X130168332Y-100418230D01*
X130220348Y-100430458D01*
X130268182Y-100448119D01*
X130279487Y-100453384D01*
X130326563Y-100480737D01*
X130367225Y-100513886D01*
X130401473Y-100552830D01*
X130417728Y-100576971D01*
X130441341Y-100624528D01*
X130457227Y-100676799D01*
X130464859Y-100727220D01*
X130466577Y-100767480D01*
X130463585Y-100819962D01*
X130454609Y-100868719D01*
X130437358Y-100919118D01*
X130418705Y-100955059D01*
X130388669Y-100996655D01*
X130352141Y-101032416D01*
X130309122Y-101062343D01*
X130282418Y-101076448D01*
X130236072Y-101095040D01*
X130185453Y-101108321D01*
X130130560Y-101116290D01*
X130079021Y-101118904D01*
X130071392Y-101118946D01*
X130018733Y-101116865D01*
X129969324Y-101110624D01*
X129916835Y-101098397D01*
X129868589Y-101080735D01*
X129857191Y-101075471D01*
X129809760Y-101048176D01*
X129768860Y-101015201D01*
X129734489Y-100976546D01*
X129718217Y-100952616D01*
X129694603Y-100905707D01*
X129678718Y-100854007D01*
X129671085Y-100804029D01*
X129669399Y-100764794D01*
X129831545Y-100764794D01*
X129840510Y-100813909D01*
X129870454Y-100857661D01*
X129895293Y-100877145D01*
X129939652Y-100899041D01*
X129987040Y-100911814D01*
X130041499Y-100918018D01*
X130067972Y-100918667D01*
X130119813Y-100916072D01*
X130171273Y-100906948D01*
X130219930Y-100889107D01*
X130240896Y-100877145D01*
X130279593Y-100841997D01*
X130301361Y-100794463D01*
X130304399Y-100764794D01*
X130295401Y-100715609D01*
X130268404Y-100674668D01*
X130240408Y-100651953D01*
X130196177Y-100629929D01*
X130148864Y-100617081D01*
X130094442Y-100610841D01*
X130067972Y-100610188D01*
X130016620Y-100612798D01*
X129965418Y-100621975D01*
X129916684Y-100639921D01*
X129895537Y-100651953D01*
X129856542Y-100687399D01*
X129834607Y-100735101D01*
X129831545Y-100764794D01*
X129669399Y-100764794D01*
X129669368Y-100764061D01*
X129672421Y-100711533D01*
X129681580Y-100662639D01*
X129699183Y-100611976D01*
X129718217Y-100575750D01*
X129748882Y-100533840D01*
X129785922Y-100497688D01*
X129829339Y-100467294D01*
X129856214Y-100452896D01*
X129902834Y-100434089D01*
X129953545Y-100420655D01*
X130008346Y-100412595D01*
X130059654Y-100409951D01*
X130067240Y-100409909D01*
X130119387Y-100411989D01*
G37*
G36*
X130123931Y-101248486D02*
G01*
X130176615Y-101253888D01*
X130225291Y-101262892D01*
X130278414Y-101278451D01*
X130325767Y-101299197D01*
X130360819Y-101320446D01*
X130402028Y-101355370D01*
X130433114Y-101395599D01*
X130454080Y-101441135D01*
X130464924Y-101491977D01*
X130466577Y-101523412D01*
X130460651Y-101577095D01*
X130442875Y-101625520D01*
X130413247Y-101668685D01*
X130371768Y-101706590D01*
X130342745Y-101725889D01*
X130747944Y-101725889D01*
X130747944Y-101925436D01*
X129685000Y-101925436D01*
X129685000Y-101745673D01*
X129800038Y-101725889D01*
X129755631Y-101699379D01*
X129715434Y-101661636D01*
X129687743Y-101616552D01*
X129678805Y-101585694D01*
X129831545Y-101585694D01*
X129843887Y-101636444D01*
X129877450Y-101674946D01*
X129896025Y-101687543D01*
X129940628Y-101707765D01*
X129993532Y-101720497D01*
X130048242Y-101725552D01*
X130067972Y-101725889D01*
X130118912Y-101723477D01*
X130169833Y-101714998D01*
X130218481Y-101698416D01*
X130239675Y-101687299D01*
X130279116Y-101654647D01*
X130301302Y-101610901D01*
X130304399Y-101583740D01*
X130292478Y-101533150D01*
X130260060Y-101495467D01*
X130242117Y-101483356D01*
X130194041Y-101462637D01*
X130140918Y-101451264D01*
X130091962Y-101447284D01*
X130072124Y-101446964D01*
X130019856Y-101449330D01*
X129967770Y-101457648D01*
X129918234Y-101473915D01*
X129896758Y-101484822D01*
X129857019Y-101516867D01*
X129833838Y-101563022D01*
X129831545Y-101585694D01*
X129678805Y-101585694D01*
X129672558Y-101564129D01*
X129669368Y-101522191D01*
X129674440Y-101468340D01*
X129689657Y-101419842D01*
X129715019Y-101376698D01*
X129750525Y-101338906D01*
X129775369Y-101319713D01*
X129818002Y-101294895D01*
X129866216Y-101275212D01*
X129920012Y-101260663D01*
X129969105Y-101252461D01*
X130022074Y-101247826D01*
X130067240Y-101246685D01*
X130123931Y-101248486D01*
G37*
G36*
X130115443Y-102085483D02*
G01*
X130164098Y-102091548D01*
X130216068Y-102103432D01*
X130264161Y-102120598D01*
X130275579Y-102125715D01*
X130318352Y-102149574D01*
X130360413Y-102182657D01*
X130396061Y-102222346D01*
X130416263Y-102252477D01*
X130438275Y-102297387D01*
X130453998Y-102347609D01*
X130462597Y-102395912D01*
X130466380Y-102448281D01*
X130466577Y-102463991D01*
X130463524Y-102514610D01*
X130452790Y-102567324D01*
X130434329Y-102615555D01*
X130417728Y-102645219D01*
X130387237Y-102685615D01*
X130350718Y-102720524D01*
X130308171Y-102749947D01*
X130281929Y-102763921D01*
X130236668Y-102782301D01*
X130187834Y-102795429D01*
X130135429Y-102803306D01*
X130086644Y-102805890D01*
X130079452Y-102805931D01*
X129997630Y-102805931D01*
X129997630Y-102604187D01*
X130153946Y-102604187D01*
X130204550Y-102598691D01*
X130250738Y-102578388D01*
X130266297Y-102565108D01*
X130293646Y-102521294D01*
X130303804Y-102471341D01*
X130304399Y-102453733D01*
X130298904Y-102402911D01*
X130278601Y-102354993D01*
X130265321Y-102338206D01*
X130224769Y-102308373D01*
X130175727Y-102292308D01*
X130153946Y-102289113D01*
X130153946Y-102604187D01*
X129997630Y-102604187D01*
X129997630Y-102287159D01*
X129941187Y-102294509D01*
X129896422Y-102316560D01*
X129863335Y-102353311D01*
X129841926Y-102404762D01*
X129833005Y-102458868D01*
X129831545Y-102496231D01*
X129834224Y-102547883D01*
X129842261Y-102599706D01*
X129855657Y-102651701D01*
X129874410Y-102703868D01*
X129898521Y-102756207D01*
X129907749Y-102773691D01*
X129727498Y-102773691D01*
X129707743Y-102721109D01*
X129692075Y-102667961D01*
X129680494Y-102614245D01*
X129673001Y-102559963D01*
X129669595Y-102505115D01*
X129669368Y-102486706D01*
X129671843Y-102427272D01*
X129679266Y-102372465D01*
X129691640Y-102322285D01*
X129713020Y-102268178D01*
X129741528Y-102220734D01*
X129770729Y-102186287D01*
X129811916Y-102151342D01*
X129859458Y-102123627D01*
X129913353Y-102103142D01*
X129963120Y-102091594D01*
X130017300Y-102085067D01*
X130063820Y-102083461D01*
X130115443Y-102085483D01*
G37*
G36*
X130450945Y-102925610D02*
G01*
X130450945Y-103051151D01*
X130365460Y-103071179D01*
X130410014Y-103095240D01*
X130439710Y-103125401D01*
X130461434Y-103169476D01*
X130466577Y-103207711D01*
X130458581Y-103256458D01*
X130438244Y-103294661D01*
X130402318Y-103328218D01*
X130368391Y-103341067D01*
X130411347Y-103366881D01*
X130445003Y-103404497D01*
X130463125Y-103451193D01*
X130466577Y-103487369D01*
X130461244Y-103536980D01*
X130440244Y-103584970D01*
X130403313Y-103619050D01*
X130399166Y-103621458D01*
X130349127Y-103639640D01*
X130294019Y-103649668D01*
X130235510Y-103655398D01*
X130178802Y-103658153D01*
X130128232Y-103659035D01*
X130114867Y-103659071D01*
X129685000Y-103659071D01*
X129685000Y-103494940D01*
X130169333Y-103494940D01*
X130219687Y-103493411D01*
X130268259Y-103486395D01*
X130281196Y-103481995D01*
X130310006Y-103440479D01*
X130310261Y-103434124D01*
X130286992Y-103390325D01*
X130281929Y-103387718D01*
X130231036Y-103376065D01*
X130179333Y-103373364D01*
X130169333Y-103373307D01*
X129685000Y-103373307D01*
X129685000Y-103211130D01*
X130169333Y-103211130D01*
X130218475Y-103209514D01*
X130267440Y-103202101D01*
X130281196Y-103197452D01*
X130310006Y-103156538D01*
X130310261Y-103150314D01*
X130288196Y-103105706D01*
X130283394Y-103103175D01*
X130233961Y-103092115D01*
X130185110Y-103089617D01*
X130169333Y-103089497D01*
X129685000Y-103089497D01*
X129685000Y-102925610D01*
X130450945Y-102925610D01*
G37*
D12*
%TO.C,L3*%
X145000000Y-80912500D02*
X145000000Y-80462500D01*
X145000000Y-81962500D02*
X145000000Y-81512500D01*
X146000000Y-80462500D02*
X145000000Y-80462500D01*
X146000000Y-80912500D02*
X146000000Y-80462500D01*
X146000000Y-81962500D02*
X145000000Y-81962500D01*
X146000000Y-81962500D02*
X146000000Y-81512500D01*
%TO.C,L1*%
X131950000Y-110275000D02*
X132350000Y-110275000D01*
X131950000Y-112200000D02*
X132350000Y-112200000D01*
%TO.C,D2*%
X148690000Y-110440000D02*
X148690000Y-109540000D01*
X149910000Y-109540000D02*
X148690000Y-109540000D01*
X149910000Y-110440000D02*
X149910000Y-109540000D01*
X149910000Y-112260000D02*
X148690000Y-112260000D01*
%TO.C,C7*%
X147935000Y-83835000D02*
X148845000Y-83835000D01*
X147935000Y-85165000D02*
X147935000Y-83835000D01*
X148845000Y-85165000D02*
X147935000Y-85165000D01*
X149755000Y-85165000D02*
X150665000Y-85165000D01*
X150665000Y-83835000D02*
X149755000Y-83835000D01*
X150665000Y-85165000D02*
X150665000Y-83835000D01*
%TO.C,C6*%
X147935000Y-85435000D02*
X148845000Y-85435000D01*
X147935000Y-86765000D02*
X147935000Y-85435000D01*
X148845000Y-86765000D02*
X147935000Y-86765000D01*
X149755000Y-86765000D02*
X150665000Y-86765000D01*
X150665000Y-85435000D02*
X149755000Y-85435000D01*
X150665000Y-86765000D02*
X150665000Y-85435000D01*
%TO.C,C14*%
X147935000Y-100785000D02*
X148845000Y-100785000D01*
X147935000Y-102115000D02*
X147935000Y-100785000D01*
X148845000Y-102115000D02*
X147935000Y-102115000D01*
X149755000Y-102115000D02*
X150665000Y-102115000D01*
X150665000Y-100785000D02*
X149755000Y-100785000D01*
X150665000Y-102115000D02*
X150665000Y-100785000D01*
%TO.C,L2*%
X142600000Y-80900000D02*
X142600000Y-80450000D01*
X142600000Y-81950000D02*
X142600000Y-81500000D01*
X143600000Y-80450000D02*
X142600000Y-80450000D01*
X143600000Y-80900000D02*
X143600000Y-80450000D01*
X143600000Y-81950000D02*
X142600000Y-81950000D01*
X143600000Y-81950000D02*
X143600000Y-81500000D01*
%TO.C,C11*%
X142810000Y-113035000D02*
X142810000Y-113945000D01*
X142810000Y-115765000D02*
X142810000Y-114855000D01*
X144140000Y-113035000D02*
X142810000Y-113035000D01*
X144140000Y-113945000D02*
X144140000Y-113035000D01*
X144140000Y-114855000D02*
X144140000Y-115765000D01*
X144140000Y-115765000D02*
X142810000Y-115765000D01*
%TO.C,C9*%
X138035000Y-112485000D02*
X138945000Y-112485000D01*
X138035000Y-113815000D02*
X138035000Y-112485000D01*
X138945000Y-113815000D02*
X138035000Y-113815000D01*
X139855000Y-113815000D02*
X140765000Y-113815000D01*
X140765000Y-112485000D02*
X139855000Y-112485000D01*
X140765000Y-113815000D02*
X140765000Y-112485000D01*
%TO.C,R8*%
X135720000Y-82330000D02*
X136350000Y-82330000D01*
X135720000Y-83270000D02*
X135720000Y-82330000D01*
X136350000Y-83270000D02*
X135720000Y-83270000D01*
X136980000Y-83270000D02*
X137610000Y-83270000D01*
X137610000Y-82330000D02*
X136980000Y-82330000D01*
X137610000Y-83270000D02*
X137610000Y-82330000D01*
%TO.C,C19*%
X143830000Y-80270000D02*
X144770000Y-80270000D01*
X143830000Y-80890000D02*
X143830000Y-80270000D01*
X143830000Y-81510000D02*
X143830000Y-82130000D01*
X143830000Y-82130000D02*
X144770000Y-82130000D01*
X144770000Y-80270000D02*
X144770000Y-80890000D01*
X144770000Y-82130000D02*
X144770000Y-81510000D01*
%TO.C,C1*%
X130660000Y-114585000D02*
X131570000Y-114585000D01*
X130660000Y-115915000D02*
X130660000Y-114585000D01*
X131570000Y-115915000D02*
X130660000Y-115915000D01*
X132480000Y-115915000D02*
X133390000Y-115915000D01*
X133390000Y-114585000D02*
X132480000Y-114585000D01*
X133390000Y-115915000D02*
X133390000Y-114585000D01*
%TO.C,C10*%
X141110000Y-113035000D02*
X141110000Y-113945000D01*
X141110000Y-115765000D02*
X141110000Y-114855000D01*
X142440000Y-113035000D02*
X141110000Y-113035000D01*
X142440000Y-113945000D02*
X142440000Y-113035000D01*
X142440000Y-114855000D02*
X142440000Y-115765000D01*
X142440000Y-115765000D02*
X141110000Y-115765000D01*
%TO.C,C12*%
X142307000Y-82330000D02*
X142927000Y-82330000D01*
X142307000Y-83270000D02*
X142307000Y-82330000D01*
X142927000Y-83270000D02*
X142307000Y-83270000D01*
X143547000Y-83270000D02*
X144167000Y-83270000D01*
X144167000Y-82330000D02*
X143547000Y-82330000D01*
X144167000Y-83270000D02*
X144167000Y-82330000D01*
%TO.C,C4*%
X147935000Y-88635000D02*
X148845000Y-88635000D01*
X147935000Y-89965000D02*
X147935000Y-88635000D01*
X148845000Y-89965000D02*
X147935000Y-89965000D01*
X149755000Y-89965000D02*
X150665000Y-89965000D01*
X150665000Y-88635000D02*
X149755000Y-88635000D01*
X150665000Y-89965000D02*
X150665000Y-88635000D01*
%TO.C,C5*%
X147935000Y-87035000D02*
X148845000Y-87035000D01*
X147935000Y-88365000D02*
X147935000Y-87035000D01*
X148845000Y-88365000D02*
X147935000Y-88365000D01*
X149755000Y-88365000D02*
X150665000Y-88365000D01*
X150665000Y-87035000D02*
X149755000Y-87035000D01*
X150665000Y-88365000D02*
X150665000Y-87035000D01*
%TO.C,R5*%
X139180000Y-114005000D02*
X139180000Y-114635000D01*
X139180000Y-115895000D02*
X139180000Y-115265000D01*
X140120000Y-114005000D02*
X139180000Y-114005000D01*
X140120000Y-114635000D02*
X140120000Y-114005000D01*
X140120000Y-115265000D02*
X140120000Y-115895000D01*
X140120000Y-115895000D02*
X139180000Y-115895000D01*
%TO.C,C17*%
X147935000Y-95985000D02*
X148845000Y-95985000D01*
X147935000Y-97315000D02*
X147935000Y-95985000D01*
X148845000Y-97315000D02*
X147935000Y-97315000D01*
X149755000Y-97315000D02*
X150665000Y-97315000D01*
X150665000Y-95985000D02*
X149755000Y-95985000D01*
X150665000Y-97315000D02*
X150665000Y-95985000D01*
%TO.C,C3*%
X147937000Y-90262000D02*
X149763000Y-90262000D01*
X147937000Y-91321000D02*
X147937000Y-90262000D01*
X147937000Y-92379000D02*
X147937000Y-93438000D01*
X147937000Y-93438000D02*
X149763000Y-93438000D01*
X149763000Y-90262000D02*
X149763000Y-91321000D01*
X149763000Y-93438000D02*
X149763000Y-92379000D01*
%TO.C,U1*%
X134200000Y-112700000D02*
X134200000Y-113200000D01*
X134200000Y-112700000D02*
X134700000Y-112700000D01*
X134200000Y-115400000D02*
X134200000Y-115900000D01*
X134700000Y-115900000D02*
X134200000Y-115900000D01*
X137400000Y-112700000D02*
X136900000Y-112700000D01*
X137400000Y-112700000D02*
X137400000Y-113200000D01*
X137400000Y-115400000D02*
X137400000Y-115900000D01*
X137400000Y-115900000D02*
X136900000Y-115900000D01*
D13*
X133900000Y-113550000D02*
X133650000Y-113800000D01*
X133650000Y-113300000D01*
X133900000Y-113550000D01*
G36*
X133900000Y-113550000D02*
G01*
X133650000Y-113800000D01*
X133650000Y-113300000D01*
X133900000Y-113550000D01*
G37*
D12*
%TO.C,R7*%
X141680000Y-111730000D02*
X141680000Y-112670000D01*
X141680000Y-112670000D02*
X142310000Y-112670000D01*
X142310000Y-111730000D02*
X141680000Y-111730000D01*
X142940000Y-111730000D02*
X143570000Y-111730000D01*
X143570000Y-111730000D02*
X143570000Y-112670000D01*
X143570000Y-112670000D02*
X142940000Y-112670000D01*
%TO.C,R1*%
X137980000Y-114020000D02*
X138920000Y-114020000D01*
X137980000Y-114650000D02*
X137980000Y-114020000D01*
X137980000Y-115280000D02*
X137980000Y-115910000D01*
X137980000Y-115910000D02*
X138920000Y-115910000D01*
X138920000Y-114020000D02*
X138920000Y-114650000D01*
X138920000Y-115910000D02*
X138920000Y-115280000D01*
%TO.C,D1*%
X135650000Y-110250000D02*
X136950000Y-110250000D01*
X135650000Y-112250000D02*
X136950000Y-112250000D01*
D13*
X138600000Y-111850000D02*
X138600000Y-110650000D01*
D12*
%TO.C,C16*%
X147935000Y-99185000D02*
X148845000Y-99185000D01*
X147935000Y-100515000D02*
X147935000Y-99185000D01*
X148845000Y-100515000D02*
X147935000Y-100515000D01*
X149755000Y-100515000D02*
X150665000Y-100515000D01*
X150665000Y-99185000D02*
X149755000Y-99185000D01*
X150665000Y-100515000D02*
X150665000Y-99185000D01*
%TO.C,R2*%
X148830000Y-107220000D02*
X149770000Y-107220000D01*
X148830000Y-107850000D02*
X148830000Y-107220000D01*
X148830000Y-108480000D02*
X148830000Y-109110000D01*
X148830000Y-109110000D02*
X149770000Y-109110000D01*
X149770000Y-107220000D02*
X149770000Y-107850000D01*
X149770000Y-109110000D02*
X149770000Y-108480000D01*
%TO.C,C15*%
X147935000Y-102385000D02*
X148845000Y-102385000D01*
X147935000Y-103715000D02*
X147935000Y-102385000D01*
X148845000Y-103715000D02*
X147935000Y-103715000D01*
X149755000Y-103715000D02*
X150665000Y-103715000D01*
X150665000Y-102385000D02*
X149755000Y-102385000D01*
X150665000Y-103715000D02*
X150665000Y-102385000D01*
%TO.C,C2*%
X130660000Y-112935000D02*
X131570000Y-112935000D01*
X130660000Y-114265000D02*
X130660000Y-112935000D01*
X131570000Y-114265000D02*
X130660000Y-114265000D01*
X132480000Y-114265000D02*
X133390000Y-114265000D01*
X133390000Y-112935000D02*
X132480000Y-112935000D01*
X133390000Y-114265000D02*
X133390000Y-112935000D01*
D14*
%TO.C,U2*%
X131373270Y-83673280D02*
X131373270Y-109926720D01*
X131373270Y-109926720D02*
X147626730Y-109926720D01*
X147626730Y-83673280D02*
X131373270Y-83673280D01*
X147626730Y-109926720D02*
X147626730Y-83673280D01*
D12*
%TO.C,D7*%
X145000000Y-79400000D02*
X145000000Y-79950000D01*
X145000000Y-79950000D02*
X146000000Y-79950000D01*
X146000000Y-78450000D02*
X145000000Y-78450000D01*
X146000000Y-79950000D02*
X146000000Y-79400000D01*
%TO.C,C18*%
X147935000Y-97585000D02*
X148845000Y-97585000D01*
X147935000Y-98915000D02*
X147935000Y-97585000D01*
X148845000Y-98915000D02*
X147935000Y-98915000D01*
X149755000Y-98915000D02*
X150665000Y-98915000D01*
X150665000Y-97585000D02*
X149755000Y-97585000D01*
X150665000Y-98915000D02*
X150665000Y-97585000D01*
%TO.C,C13*%
X144470000Y-82330000D02*
X145090000Y-82330000D01*
X144470000Y-83270000D02*
X144470000Y-82330000D01*
X145090000Y-83270000D02*
X144470000Y-83270000D01*
X145710000Y-83270000D02*
X146330000Y-83270000D01*
X146330000Y-82330000D02*
X145710000Y-82330000D01*
X146330000Y-83270000D02*
X146330000Y-82330000D01*
%TD*%
M02*
