%TF.GenerationSoftware,KiCad,Pcbnew,8.0.8+1*%
%TF.CreationDate,2025-01-22T08:35:02-05:00*%
%TF.ProjectId,cellularBoard,63656c6c-756c-4617-9242-6f6172642e6b,rev?*%
%TF.SameCoordinates,Original*%
%TF.FileFunction,Copper,L3,Inr*%
%TF.FilePolarity,Positive*%
%FSLAX46Y46*%
G04 Gerber Fmt 4.6, Leading zero omitted, Abs format (unit mm)*
G04 Created by KiCad (PCBNEW 8.0.8+1) date 2025-01-22 08:35:02*
%MOMM*%
%LPD*%
G01*
G04 APERTURE LIST*
G04 Aperture macros list*
%AMFreePoly0*
4,1,129,0.331476,2.729949,0.658118,2.670090,0.975163,2.571295,1.277989,2.435004,1.562178,2.263206,1.823587,2.058405,2.058405,1.823587,2.263206,1.562178,2.435004,1.277989,2.571295,0.975163,2.670090,0.658118,2.729949,0.331476,2.750000,0.000000,2.747491,-0.166193,2.732458,-0.289997,2.729949,-0.331476,2.722458,-0.372351,2.707427,-0.496154,2.677580,-0.617241,2.670090,-0.658118,
2.657730,-0.697782,2.627882,-0.818881,2.583657,-0.935489,2.571295,-0.975163,2.554237,-1.013062,2.510016,-1.129667,2.452065,-1.240079,2.435004,-1.277989,2.413497,-1.313564,2.355549,-1.423979,2.284710,-1.526604,2.263206,-1.562178,2.237570,-1.594899,2.166733,-1.697527,2.084033,-1.790874,2.058405,-1.823587,2.029019,-1.852972,1.946321,-1.946321,1.852972,-2.029019,1.823587,-2.058405,
1.790874,-2.084033,1.697527,-2.166733,1.594899,-2.237570,1.562178,-2.263206,1.526604,-2.284710,1.423979,-2.355549,1.313564,-2.413497,1.277989,-2.435004,1.240079,-2.452065,1.129667,-2.510016,1.013062,-2.554237,0.975163,-2.571295,0.935489,-2.583657,0.818881,-2.627882,0.697785,-2.657729,0.658118,-2.670090,0.617241,-2.677580,0.496154,-2.707427,0.372351,-2.722458,0.331476,-2.729949,
0.289997,-2.732458,0.166193,-2.747491,0.041478,-2.747491,0.000000,-2.750000,-0.041478,-2.747491,-0.166193,-2.747491,-0.289997,-2.732458,-0.331476,-2.729949,-0.372351,-2.722458,-0.496154,-2.707427,-0.617241,-2.677580,-0.658118,-2.670090,-0.697785,-2.657729,-0.818881,-2.627882,-0.935489,-2.583657,-0.975163,-2.571295,-1.013062,-2.554237,-1.129667,-2.510016,-1.240079,-2.452065,-1.277989,-2.435004,
-1.313564,-2.413497,-1.423979,-2.355549,-1.526604,-2.284710,-1.562178,-2.263206,-1.594899,-2.237570,-1.697527,-2.166733,-1.790874,-2.084033,-1.823587,-2.058405,-1.852972,-2.029019,-1.946321,-1.946321,-2.029019,-1.852972,-2.058405,-1.823587,-2.084033,-1.790874,-2.166733,-1.697527,-2.237570,-1.594899,-2.263206,-1.562178,-2.284710,-1.526604,-2.355549,-1.423979,-2.413497,-1.313564,-2.435004,-1.277989,
-2.452065,-1.240079,-2.510016,-1.129667,-2.554237,-1.013062,-2.571295,-0.975163,-2.583657,-0.935489,-2.627882,-0.818881,-2.657730,-0.697782,-2.670090,-0.658118,-2.677580,-0.617241,-2.707427,-0.496154,-2.722458,-0.372351,-2.729949,-0.331476,-2.732458,-0.289997,-2.747491,-0.166193,-2.750000,0.000000,-2.729949,0.331476,-2.670090,0.658118,-2.571295,0.975163,-2.435004,1.277989,-2.263206,1.562178,
-2.058405,1.823587,-1.823587,2.058405,-1.562178,2.263206,-1.277989,2.435004,-0.975163,2.571295,-0.658118,2.670090,-0.331476,2.729949,0.000000,2.750000,0.331476,2.729949,0.331476,2.729949,$1*%
G04 Aperture macros list end*
%TA.AperFunction,ComponentPad*%
%ADD10FreePoly0,0.000000*%
%TD*%
%TA.AperFunction,ViaPad*%
%ADD11C,0.527500*%
%TD*%
%TA.AperFunction,ViaPad*%
%ADD12C,0.615000*%
%TD*%
G04 APERTURE END LIST*
D10*
%TO.N,VSS*%
%TO.C,J2*%
X140000000Y-78000000D03*
%TD*%
D11*
%TO.N,VSS*%
X129750000Y-112800000D03*
X147950000Y-110250000D03*
X139500000Y-106150000D03*
X144750000Y-92700000D03*
X137100000Y-116900000D03*
X143300000Y-116150000D03*
X132000000Y-109500000D03*
X135300000Y-89250000D03*
X131200000Y-100100000D03*
X147400000Y-116800000D03*
X135220000Y-113720000D03*
X148450000Y-93750000D03*
X150450000Y-85300000D03*
X138400000Y-116900000D03*
D12*
X149300000Y-103850000D03*
D11*
X129750000Y-114200000D03*
X140200000Y-93700000D03*
X139500000Y-89250000D03*
X147000000Y-78950000D03*
X135300000Y-99900000D03*
X135150000Y-83450000D03*
X135300000Y-87450000D03*
X149250000Y-93750000D03*
X133300000Y-116950000D03*
X130650000Y-116350000D03*
X150450000Y-86900000D03*
X139500000Y-87450000D03*
X136380000Y-114880000D03*
X138400000Y-83450000D03*
X141600000Y-89250000D03*
X135300000Y-106150000D03*
X139500000Y-104350000D03*
X147000000Y-82050000D03*
X150450000Y-88500000D03*
X143700000Y-89250000D03*
X141600000Y-104350000D03*
X131150000Y-85800000D03*
X141650000Y-83450000D03*
X143400000Y-93900000D03*
X149250000Y-94550000D03*
X144600000Y-113800000D03*
X145150000Y-96800000D03*
X136380000Y-113720000D03*
X143700000Y-87450000D03*
X143925000Y-112200000D03*
X141600000Y-93700000D03*
X135800000Y-114300000D03*
X132550000Y-84800000D03*
X141600000Y-87450000D03*
X137400000Y-89250000D03*
X131150000Y-90350000D03*
X149400000Y-116600000D03*
X150450000Y-90100000D03*
X144750000Y-94800000D03*
X132500000Y-116150000D03*
X150450000Y-83700000D03*
X135300000Y-104350000D03*
X150000000Y-82050000D03*
X141600000Y-106150000D03*
X140600000Y-83500000D03*
X144800000Y-78850000D03*
X135300000Y-90150000D03*
X134050000Y-83450000D03*
X148450000Y-94550000D03*
X135220000Y-114880000D03*
X145000000Y-116950000D03*
X146200000Y-78850000D03*
X134250000Y-91200000D03*
X145300000Y-89250000D03*
X142200000Y-81950000D03*
X139500000Y-83450000D03*
D12*
X149300000Y-97450000D03*
D11*
X150000000Y-78950000D03*
X131150000Y-88000000D03*
X130300000Y-108100000D03*
X137750000Y-116900000D03*
X137400000Y-87450000D03*
X143700000Y-106150000D03*
X143700000Y-104350000D03*
D12*
%TO.N,+3V3*%
X145100000Y-115500000D03*
X133550000Y-114425000D03*
X131500000Y-116650000D03*
D11*
%TO.N,+1V8*%
X130900000Y-109400000D03*
%TO.N,Net-(U1-VCC)*%
X133800000Y-112800000D03*
D12*
%TO.N,+3V8*%
X149300000Y-106500000D03*
X144950000Y-110850000D03*
X150350000Y-91000000D03*
D11*
%TO.N,VSIM*%
X147650000Y-98999640D03*
%TO.N,/SIM_IO*%
X147650000Y-101199280D03*
%TO.N,/SIM_CLK*%
X147650000Y-102299100D03*
%TO.N,/SIM_RST*%
X147650000Y-100099460D03*
%TO.N,/RESET_N*%
X131100000Y-104500000D03*
%TO.N,Net-(D2-Pad2)*%
X147950000Y-111550000D03*
%TO.N,/MODULE_STS*%
X136250000Y-110080000D03*
%TO.N,/SARA_RXD_1V8*%
X134250000Y-98800000D03*
%TO.N,/NETWORK_STS*%
X134250000Y-102300000D03*
%TO.N,/SARA_TXD_1V8*%
X134250000Y-97900000D03*
X139050000Y-100750000D03*
X138200000Y-101600000D03*
%TO.N,/SARA_SCL_1V8*%
X139600000Y-111350000D03*
%TO.N,/SARA_RTS_1V8*%
X134250000Y-95700000D03*
X138950000Y-98550000D03*
X136900000Y-100600000D03*
%TO.N,/SLEEP*%
X134250000Y-101200000D03*
%TO.N,/SARA_CTS_1V8*%
X134250000Y-96800000D03*
X137550000Y-101100000D03*
X139000000Y-99650000D03*
%TO.N,/SARA_SDA_1V8*%
X138863750Y-111350000D03*
X134052995Y-116863749D03*
X135936250Y-116850000D03*
%TO.N,Net-(U1-RT)*%
X133750000Y-115700000D03*
%TD*%
%TA.AperFunction,Conductor*%
%TO.N,VSS*%
G36*
X150504778Y-78251256D02*
G01*
X150567478Y-78261187D01*
X150585777Y-78267133D01*
X150637973Y-78293728D01*
X150653540Y-78305038D01*
X150694961Y-78346459D01*
X150706271Y-78362026D01*
X150732866Y-78414222D01*
X150738812Y-78432521D01*
X150748743Y-78495219D01*
X150749500Y-78504840D01*
X150749500Y-90540253D01*
X150731487Y-90583740D01*
X150688000Y-90601753D01*
X150654751Y-90591990D01*
X150563203Y-90533156D01*
X150563196Y-90533153D01*
X150472891Y-90506637D01*
X150423039Y-90492000D01*
X150276961Y-90492000D01*
X150136803Y-90533153D01*
X150136796Y-90533156D01*
X150013913Y-90612128D01*
X150013907Y-90612132D01*
X149918250Y-90722526D01*
X149918247Y-90722531D01*
X149857566Y-90855403D01*
X149857565Y-90855407D01*
X149836776Y-90999999D01*
X149836776Y-91000000D01*
X149857565Y-91144592D01*
X149857566Y-91144596D01*
X149918247Y-91277468D01*
X149918250Y-91277473D01*
X150013907Y-91387867D01*
X150013910Y-91387869D01*
X150136799Y-91466845D01*
X150276961Y-91508000D01*
X150423039Y-91508000D01*
X150563201Y-91466845D01*
X150654752Y-91408008D01*
X150701073Y-91399651D01*
X150739737Y-91426496D01*
X150749500Y-91459746D01*
X150749500Y-115688000D01*
X150731487Y-115731487D01*
X150688000Y-115749500D01*
X150351079Y-115749500D01*
X150206093Y-115778340D01*
X150206076Y-115778345D01*
X150069511Y-115834913D01*
X150069503Y-115834917D01*
X149946584Y-115917048D01*
X149842048Y-116021584D01*
X149759917Y-116144503D01*
X149759913Y-116144511D01*
X149703345Y-116281076D01*
X149703340Y-116281093D01*
X149674500Y-116426078D01*
X149674500Y-117188500D01*
X149656487Y-117231987D01*
X149613000Y-117250000D01*
X143537000Y-117250000D01*
X143493513Y-117231987D01*
X143475500Y-117188500D01*
X143475500Y-117010610D01*
X143475500Y-117010609D01*
X143438329Y-116835733D01*
X143400381Y-116750500D01*
X143365615Y-116672414D01*
X143365613Y-116672411D01*
X143365612Y-116672408D01*
X143310408Y-116596427D01*
X143260524Y-116527767D01*
X143260522Y-116527765D01*
X143127668Y-116408143D01*
X143112696Y-116399499D01*
X142972835Y-116318750D01*
X142972834Y-116318749D01*
X142856887Y-116281076D01*
X142802803Y-116263503D01*
X142625000Y-116244815D01*
X142447197Y-116263503D01*
X142277166Y-116318749D01*
X142122331Y-116408143D01*
X141989477Y-116527765D01*
X141989475Y-116527767D01*
X141884391Y-116672402D01*
X141884384Y-116672414D01*
X141811671Y-116835731D01*
X141774500Y-117010609D01*
X141774500Y-117188500D01*
X141756487Y-117231987D01*
X141713000Y-117250000D01*
X136338605Y-117250000D01*
X136295118Y-117231987D01*
X136277105Y-117188500D01*
X136292127Y-117148226D01*
X136319318Y-117116846D01*
X136330818Y-117103574D01*
X136386275Y-116982139D01*
X136405274Y-116850000D01*
X136386275Y-116717861D01*
X136365517Y-116672408D01*
X136330818Y-116596427D01*
X136330818Y-116596426D01*
X136271324Y-116527767D01*
X136243396Y-116495536D01*
X136243391Y-116495532D01*
X136131092Y-116423362D01*
X136131085Y-116423359D01*
X136048558Y-116399127D01*
X136002999Y-116385750D01*
X135869501Y-116385750D01*
X135741414Y-116423359D01*
X135741407Y-116423362D01*
X135629108Y-116495532D01*
X135629103Y-116495536D01*
X135541684Y-116596422D01*
X135541681Y-116596427D01*
X135486226Y-116717856D01*
X135486225Y-116717860D01*
X135467226Y-116850000D01*
X135486225Y-116982139D01*
X135486226Y-116982143D01*
X135541681Y-117103572D01*
X135541684Y-117103577D01*
X135580373Y-117148226D01*
X135595238Y-117192887D01*
X135574169Y-117234978D01*
X135533895Y-117250000D01*
X134467264Y-117250000D01*
X134423777Y-117231987D01*
X134405764Y-117188500D01*
X134420785Y-117148226D01*
X134423569Y-117145013D01*
X134447563Y-117117323D01*
X134503020Y-116995888D01*
X134522019Y-116863749D01*
X134503020Y-116731610D01*
X134447563Y-116610175D01*
X134435650Y-116596427D01*
X134360141Y-116509285D01*
X134360136Y-116509281D01*
X134247837Y-116437111D01*
X134247830Y-116437108D01*
X134165303Y-116412876D01*
X134119744Y-116399499D01*
X133986246Y-116399499D01*
X133858159Y-116437108D01*
X133858152Y-116437111D01*
X133745853Y-116509281D01*
X133745848Y-116509285D01*
X133658429Y-116610171D01*
X133658426Y-116610176D01*
X133602971Y-116731605D01*
X133602970Y-116731609D01*
X133583971Y-116863749D01*
X133602970Y-116995888D01*
X133602971Y-116995892D01*
X133627760Y-117050172D01*
X133658427Y-117117323D01*
X133668971Y-117129491D01*
X133685205Y-117148226D01*
X133700069Y-117192887D01*
X133679000Y-117234979D01*
X133638726Y-117250000D01*
X131687459Y-117250000D01*
X131643972Y-117231987D01*
X131625959Y-117188500D01*
X131643972Y-117145013D01*
X131670133Y-117129491D01*
X131682052Y-117125990D01*
X131713201Y-117116845D01*
X131836090Y-117037869D01*
X131931752Y-116927470D01*
X131992435Y-116794592D01*
X132013224Y-116650000D01*
X131992435Y-116505408D01*
X131989965Y-116500000D01*
X131961245Y-116437111D01*
X131931752Y-116372530D01*
X131915131Y-116353348D01*
X131836092Y-116262132D01*
X131836086Y-116262128D01*
X131713203Y-116183156D01*
X131713196Y-116183153D01*
X131622891Y-116156637D01*
X131573039Y-116142000D01*
X131426961Y-116142000D01*
X131286803Y-116183153D01*
X131286796Y-116183156D01*
X131163913Y-116262128D01*
X131163907Y-116262132D01*
X131068250Y-116372526D01*
X131068247Y-116372531D01*
X131007566Y-116505403D01*
X131007565Y-116505407D01*
X130986776Y-116649999D01*
X130986776Y-116650000D01*
X131007565Y-116794592D01*
X131007566Y-116794596D01*
X131068247Y-116927468D01*
X131068250Y-116927473D01*
X131163907Y-117037867D01*
X131163910Y-117037869D01*
X131286799Y-117116845D01*
X131288427Y-117117323D01*
X131329867Y-117129491D01*
X131366518Y-117159026D01*
X131371550Y-117205826D01*
X131342015Y-117242477D01*
X131312541Y-117250000D01*
X130387000Y-117250000D01*
X130343513Y-117231987D01*
X130325500Y-117188500D01*
X130325500Y-116426079D01*
X130325499Y-116426078D01*
X130321931Y-116408143D01*
X130296658Y-116281087D01*
X130296655Y-116281080D01*
X130296654Y-116281076D01*
X130256092Y-116183153D01*
X130240084Y-116144505D01*
X130157951Y-116021584D01*
X130053416Y-115917049D01*
X130053415Y-115917048D01*
X130053416Y-115917048D01*
X129930496Y-115834917D01*
X129930497Y-115834917D01*
X129930495Y-115834916D01*
X129930488Y-115834913D01*
X129793923Y-115778345D01*
X129793906Y-115778340D01*
X129648921Y-115749500D01*
X129648918Y-115749500D01*
X129624828Y-115749500D01*
X129312000Y-115749500D01*
X129268513Y-115731487D01*
X129255471Y-115700000D01*
X133280976Y-115700000D01*
X133299975Y-115832139D01*
X133299976Y-115832143D01*
X133355431Y-115953572D01*
X133355434Y-115953577D01*
X133414363Y-116021584D01*
X133442855Y-116054465D01*
X133555160Y-116126639D01*
X133683251Y-116164250D01*
X133816749Y-116164250D01*
X133944840Y-116126639D01*
X134057145Y-116054465D01*
X134144568Y-115953574D01*
X134200025Y-115832139D01*
X134219024Y-115700000D01*
X134200025Y-115567861D01*
X134169034Y-115499999D01*
X144586776Y-115499999D01*
X144586776Y-115500000D01*
X144607565Y-115644592D01*
X144607566Y-115644596D01*
X144668247Y-115777468D01*
X144668250Y-115777473D01*
X144763907Y-115887867D01*
X144763910Y-115887869D01*
X144886799Y-115966845D01*
X145026961Y-116008000D01*
X145173039Y-116008000D01*
X145313201Y-115966845D01*
X145436090Y-115887869D01*
X145531752Y-115777470D01*
X145592435Y-115644592D01*
X145613224Y-115500000D01*
X145592435Y-115355408D01*
X145531752Y-115222530D01*
X145531749Y-115222526D01*
X145436092Y-115112132D01*
X145436086Y-115112128D01*
X145313203Y-115033156D01*
X145313196Y-115033153D01*
X145222891Y-115006637D01*
X145173039Y-114992000D01*
X145026961Y-114992000D01*
X144886803Y-115033153D01*
X144886796Y-115033156D01*
X144763913Y-115112128D01*
X144763907Y-115112132D01*
X144668250Y-115222526D01*
X144668247Y-115222531D01*
X144607566Y-115355403D01*
X144607565Y-115355407D01*
X144586776Y-115499999D01*
X134169034Y-115499999D01*
X134144568Y-115446426D01*
X134057145Y-115345535D01*
X134057143Y-115345534D01*
X134057141Y-115345532D01*
X133944842Y-115273362D01*
X133944835Y-115273359D01*
X133862308Y-115249127D01*
X133816749Y-115235750D01*
X133683251Y-115235750D01*
X133555164Y-115273359D01*
X133555157Y-115273362D01*
X133442858Y-115345532D01*
X133442853Y-115345536D01*
X133355434Y-115446422D01*
X133355431Y-115446427D01*
X133299976Y-115567856D01*
X133299975Y-115567860D01*
X133280976Y-115700000D01*
X129255471Y-115700000D01*
X129250500Y-115688000D01*
X129250500Y-114424999D01*
X133036776Y-114424999D01*
X133036776Y-114425000D01*
X133057565Y-114569592D01*
X133057566Y-114569596D01*
X133118247Y-114702468D01*
X133118250Y-114702473D01*
X133213907Y-114812867D01*
X133213910Y-114812869D01*
X133336799Y-114891845D01*
X133476961Y-114933000D01*
X133623039Y-114933000D01*
X133763201Y-114891845D01*
X133886090Y-114812869D01*
X133981752Y-114702470D01*
X134042435Y-114569592D01*
X134063224Y-114425000D01*
X134042435Y-114280408D01*
X133981752Y-114147530D01*
X133981749Y-114147526D01*
X133886092Y-114037132D01*
X133886086Y-114037128D01*
X133763203Y-113958156D01*
X133763196Y-113958153D01*
X133672891Y-113931637D01*
X133623039Y-113917000D01*
X133476961Y-113917000D01*
X133336803Y-113958153D01*
X133336796Y-113958156D01*
X133213913Y-114037128D01*
X133213907Y-114037132D01*
X133118250Y-114147526D01*
X133118247Y-114147531D01*
X133057566Y-114280403D01*
X133057565Y-114280407D01*
X133036776Y-114424999D01*
X129250500Y-114424999D01*
X129250500Y-112800000D01*
X133330976Y-112800000D01*
X133349975Y-112932139D01*
X133349976Y-112932143D01*
X133405431Y-113053572D01*
X133405434Y-113053577D01*
X133492853Y-113154463D01*
X133492855Y-113154465D01*
X133605160Y-113226639D01*
X133733251Y-113264250D01*
X133866749Y-113264250D01*
X133994840Y-113226639D01*
X134107145Y-113154465D01*
X134194568Y-113053574D01*
X134250025Y-112932139D01*
X134269024Y-112800000D01*
X134250025Y-112667861D01*
X134194568Y-112546426D01*
X134107145Y-112445535D01*
X134107143Y-112445534D01*
X134107141Y-112445532D01*
X133994842Y-112373362D01*
X133994835Y-112373359D01*
X133912308Y-112349127D01*
X133866749Y-112335750D01*
X133733251Y-112335750D01*
X133605164Y-112373359D01*
X133605157Y-112373362D01*
X133492858Y-112445532D01*
X133492853Y-112445536D01*
X133405434Y-112546422D01*
X133405431Y-112546427D01*
X133349976Y-112667856D01*
X133349975Y-112667860D01*
X133330976Y-112800000D01*
X129250500Y-112800000D01*
X129250500Y-111350000D01*
X138394726Y-111350000D01*
X138413725Y-111482139D01*
X138413726Y-111482143D01*
X138469181Y-111603572D01*
X138469184Y-111603577D01*
X138542103Y-111687729D01*
X138556605Y-111704465D01*
X138668910Y-111776639D01*
X138797001Y-111814250D01*
X138930499Y-111814250D01*
X139058590Y-111776639D01*
X139170895Y-111704465D01*
X139185397Y-111687728D01*
X139227487Y-111666660D01*
X139272149Y-111681524D01*
X139278348Y-111687723D01*
X139292855Y-111704465D01*
X139405160Y-111776639D01*
X139533251Y-111814250D01*
X139666749Y-111814250D01*
X139794840Y-111776639D01*
X139907145Y-111704465D01*
X139994568Y-111603574D01*
X140019034Y-111550000D01*
X147480976Y-111550000D01*
X147499975Y-111682139D01*
X147499976Y-111682143D01*
X147555431Y-111803572D01*
X147555434Y-111803577D01*
X147642853Y-111904463D01*
X147642855Y-111904465D01*
X147755160Y-111976639D01*
X147883251Y-112014250D01*
X148016749Y-112014250D01*
X148144840Y-111976639D01*
X148257145Y-111904465D01*
X148344568Y-111803574D01*
X148400025Y-111682139D01*
X148419024Y-111550000D01*
X148400025Y-111417861D01*
X148344568Y-111296426D01*
X148276486Y-111217856D01*
X148257146Y-111195536D01*
X148257141Y-111195532D01*
X148144842Y-111123362D01*
X148144835Y-111123359D01*
X148053094Y-111096422D01*
X148016749Y-111085750D01*
X147883251Y-111085750D01*
X147755164Y-111123359D01*
X147755157Y-111123362D01*
X147642858Y-111195532D01*
X147642853Y-111195536D01*
X147555434Y-111296422D01*
X147555431Y-111296427D01*
X147499976Y-111417856D01*
X147499975Y-111417860D01*
X147480976Y-111550000D01*
X140019034Y-111550000D01*
X140050025Y-111482139D01*
X140069024Y-111350000D01*
X140050025Y-111217861D01*
X139994568Y-111096426D01*
X139985317Y-111085750D01*
X139907146Y-110995536D01*
X139907141Y-110995532D01*
X139794842Y-110923362D01*
X139794835Y-110923359D01*
X139712308Y-110899127D01*
X139666749Y-110885750D01*
X139533251Y-110885750D01*
X139405164Y-110923359D01*
X139405157Y-110923362D01*
X139292858Y-110995532D01*
X139292856Y-110995534D01*
X139278353Y-111012271D01*
X139236261Y-111033339D01*
X139191600Y-111018474D01*
X139185397Y-111012271D01*
X139184961Y-111011768D01*
X139170895Y-110995535D01*
X139170892Y-110995533D01*
X139170891Y-110995532D01*
X139058592Y-110923362D01*
X139058585Y-110923359D01*
X138976058Y-110899127D01*
X138930499Y-110885750D01*
X138797001Y-110885750D01*
X138668914Y-110923359D01*
X138668907Y-110923362D01*
X138556608Y-110995532D01*
X138556603Y-110995536D01*
X138469184Y-111096422D01*
X138469181Y-111096427D01*
X138413726Y-111217856D01*
X138413725Y-111217860D01*
X138394726Y-111350000D01*
X129250500Y-111350000D01*
X129250500Y-110849999D01*
X144436776Y-110849999D01*
X144436776Y-110850000D01*
X144457565Y-110994592D01*
X144457566Y-110994596D01*
X144518247Y-111127468D01*
X144518250Y-111127473D01*
X144613907Y-111237867D01*
X144613910Y-111237869D01*
X144736799Y-111316845D01*
X144876961Y-111358000D01*
X145023039Y-111358000D01*
X145163201Y-111316845D01*
X145286090Y-111237869D01*
X145303432Y-111217856D01*
X145381749Y-111127473D01*
X145381752Y-111127470D01*
X145442435Y-110994592D01*
X145463224Y-110850000D01*
X145442435Y-110705408D01*
X145381752Y-110572530D01*
X145381749Y-110572526D01*
X145286092Y-110462132D01*
X145286086Y-110462128D01*
X145163203Y-110383156D01*
X145163196Y-110383153D01*
X145072891Y-110356637D01*
X145023039Y-110342000D01*
X144876961Y-110342000D01*
X144736803Y-110383153D01*
X144736796Y-110383156D01*
X144613913Y-110462128D01*
X144613907Y-110462132D01*
X144518250Y-110572526D01*
X144518247Y-110572531D01*
X144457566Y-110705403D01*
X144457565Y-110705407D01*
X144436776Y-110849999D01*
X129250500Y-110849999D01*
X129250500Y-110080000D01*
X135780976Y-110080000D01*
X135799975Y-110212139D01*
X135799976Y-110212143D01*
X135855431Y-110333572D01*
X135855434Y-110333577D01*
X135898394Y-110383155D01*
X135942855Y-110434465D01*
X136055160Y-110506639D01*
X136183251Y-110544250D01*
X136316749Y-110544250D01*
X136444840Y-110506639D01*
X136557145Y-110434465D01*
X136644568Y-110333574D01*
X136700025Y-110212139D01*
X136719024Y-110080000D01*
X136700025Y-109947861D01*
X136644568Y-109826426D01*
X136582211Y-109754463D01*
X136557146Y-109725536D01*
X136557141Y-109725532D01*
X136444842Y-109653362D01*
X136444835Y-109653359D01*
X136362308Y-109629127D01*
X136316749Y-109615750D01*
X136183251Y-109615750D01*
X136055164Y-109653359D01*
X136055157Y-109653362D01*
X135942858Y-109725532D01*
X135942853Y-109725536D01*
X135855434Y-109826422D01*
X135855431Y-109826427D01*
X135799976Y-109947856D01*
X135799975Y-109947860D01*
X135780976Y-110080000D01*
X129250500Y-110080000D01*
X129250500Y-109400000D01*
X130430976Y-109400000D01*
X130449975Y-109532139D01*
X130449976Y-109532143D01*
X130505431Y-109653572D01*
X130505434Y-109653577D01*
X130592853Y-109754463D01*
X130592855Y-109754465D01*
X130705160Y-109826639D01*
X130833251Y-109864250D01*
X130966749Y-109864250D01*
X131094840Y-109826639D01*
X131207145Y-109754465D01*
X131294568Y-109653574D01*
X131350025Y-109532139D01*
X131369024Y-109400000D01*
X131350025Y-109267861D01*
X131294568Y-109146426D01*
X131207145Y-109045535D01*
X131207143Y-109045534D01*
X131207141Y-109045532D01*
X131094842Y-108973362D01*
X131094835Y-108973359D01*
X131012308Y-108949127D01*
X130966749Y-108935750D01*
X130833251Y-108935750D01*
X130705164Y-108973359D01*
X130705157Y-108973362D01*
X130592858Y-109045532D01*
X130592853Y-109045536D01*
X130505434Y-109146422D01*
X130505431Y-109146427D01*
X130449976Y-109267856D01*
X130449975Y-109267860D01*
X130430976Y-109400000D01*
X129250500Y-109400000D01*
X129250500Y-106499999D01*
X148786776Y-106499999D01*
X148786776Y-106500000D01*
X148807565Y-106644592D01*
X148807566Y-106644596D01*
X148868247Y-106777468D01*
X148868250Y-106777473D01*
X148963907Y-106887867D01*
X148963910Y-106887869D01*
X149086799Y-106966845D01*
X149226961Y-107008000D01*
X149373039Y-107008000D01*
X149513201Y-106966845D01*
X149636090Y-106887869D01*
X149731752Y-106777470D01*
X149792435Y-106644592D01*
X149813224Y-106500000D01*
X149792435Y-106355408D01*
X149731752Y-106222530D01*
X149731749Y-106222526D01*
X149636092Y-106112132D01*
X149636086Y-106112128D01*
X149513203Y-106033156D01*
X149513196Y-106033153D01*
X149422891Y-106006637D01*
X149373039Y-105992000D01*
X149226961Y-105992000D01*
X149086803Y-106033153D01*
X149086796Y-106033156D01*
X148963913Y-106112128D01*
X148963907Y-106112132D01*
X148868250Y-106222526D01*
X148868247Y-106222531D01*
X148807566Y-106355403D01*
X148807565Y-106355407D01*
X148786776Y-106499999D01*
X129250500Y-106499999D01*
X129250500Y-104500000D01*
X130630976Y-104500000D01*
X130649975Y-104632139D01*
X130649976Y-104632143D01*
X130705431Y-104753572D01*
X130705434Y-104753577D01*
X130792853Y-104854463D01*
X130792855Y-104854465D01*
X130905160Y-104926639D01*
X131033251Y-104964250D01*
X131166749Y-104964250D01*
X131294840Y-104926639D01*
X131407145Y-104854465D01*
X131494568Y-104753574D01*
X131550025Y-104632139D01*
X131569024Y-104500000D01*
X131550025Y-104367861D01*
X131494568Y-104246426D01*
X131407145Y-104145535D01*
X131407143Y-104145534D01*
X131407141Y-104145532D01*
X131294842Y-104073362D01*
X131294835Y-104073359D01*
X131212308Y-104049127D01*
X131166749Y-104035750D01*
X131033251Y-104035750D01*
X130905164Y-104073359D01*
X130905157Y-104073362D01*
X130792858Y-104145532D01*
X130792853Y-104145536D01*
X130705434Y-104246422D01*
X130705431Y-104246427D01*
X130649976Y-104367856D01*
X130649975Y-104367860D01*
X130630976Y-104500000D01*
X129250500Y-104500000D01*
X129250500Y-102300000D01*
X133780976Y-102300000D01*
X133799975Y-102432139D01*
X133799976Y-102432143D01*
X133855431Y-102553572D01*
X133855434Y-102553577D01*
X133942073Y-102653563D01*
X133942855Y-102654465D01*
X134055160Y-102726639D01*
X134183251Y-102764250D01*
X134316749Y-102764250D01*
X134444840Y-102726639D01*
X134557145Y-102654465D01*
X134644568Y-102553574D01*
X134700025Y-102432139D01*
X134719024Y-102300000D01*
X134718895Y-102299100D01*
X147180976Y-102299100D01*
X147199975Y-102431239D01*
X147199976Y-102431243D01*
X147255431Y-102552672D01*
X147255434Y-102552677D01*
X147256214Y-102553577D01*
X147342855Y-102653565D01*
X147342857Y-102653566D01*
X147342858Y-102653567D01*
X147399007Y-102689652D01*
X147455160Y-102725739D01*
X147583251Y-102763350D01*
X147716749Y-102763350D01*
X147844840Y-102725739D01*
X147957145Y-102653565D01*
X148044568Y-102552674D01*
X148100025Y-102431239D01*
X148119024Y-102299100D01*
X148100025Y-102166961D01*
X148044568Y-102045526D01*
X148028203Y-102026640D01*
X147957146Y-101944636D01*
X147957141Y-101944632D01*
X147844842Y-101872462D01*
X147844835Y-101872459D01*
X147762308Y-101848227D01*
X147716749Y-101834850D01*
X147583251Y-101834850D01*
X147455164Y-101872459D01*
X147455157Y-101872462D01*
X147342858Y-101944632D01*
X147342853Y-101944636D01*
X147255434Y-102045522D01*
X147255431Y-102045527D01*
X147199976Y-102166956D01*
X147199975Y-102166960D01*
X147180976Y-102299100D01*
X134718895Y-102299100D01*
X134700025Y-102167861D01*
X134644568Y-102046426D01*
X134643788Y-102045526D01*
X134557146Y-101945536D01*
X134557141Y-101945532D01*
X134444842Y-101873362D01*
X134444835Y-101873359D01*
X134362308Y-101849127D01*
X134316749Y-101835750D01*
X134183251Y-101835750D01*
X134055164Y-101873359D01*
X134055157Y-101873362D01*
X133942858Y-101945532D01*
X133942853Y-101945536D01*
X133855434Y-102046422D01*
X133855431Y-102046427D01*
X133799976Y-102167856D01*
X133799975Y-102167860D01*
X133780976Y-102300000D01*
X129250500Y-102300000D01*
X129250500Y-101200000D01*
X133780976Y-101200000D01*
X133799975Y-101332139D01*
X133799976Y-101332143D01*
X133855431Y-101453572D01*
X133855434Y-101453577D01*
X133918744Y-101526640D01*
X133942855Y-101554465D01*
X134055160Y-101626639D01*
X134183251Y-101664250D01*
X134316749Y-101664250D01*
X134444840Y-101626639D01*
X134557145Y-101554465D01*
X134644568Y-101453574D01*
X134700025Y-101332139D01*
X134719024Y-101200000D01*
X134700025Y-101067861D01*
X134698375Y-101064249D01*
X134654356Y-100967859D01*
X134644568Y-100946426D01*
X134643944Y-100945706D01*
X134557146Y-100845536D01*
X134557141Y-100845532D01*
X134444842Y-100773362D01*
X134444835Y-100773359D01*
X134350077Y-100745536D01*
X134316749Y-100735750D01*
X134183251Y-100735750D01*
X134055164Y-100773359D01*
X134055157Y-100773362D01*
X133942858Y-100845532D01*
X133942853Y-100845536D01*
X133855434Y-100946422D01*
X133855431Y-100946427D01*
X133799976Y-101067856D01*
X133799975Y-101067860D01*
X133780976Y-101200000D01*
X129250500Y-101200000D01*
X129250500Y-100600000D01*
X136430976Y-100600000D01*
X136449975Y-100732139D01*
X136449976Y-100732143D01*
X136505431Y-100853572D01*
X136505434Y-100853577D01*
X136585889Y-100946426D01*
X136592855Y-100954465D01*
X136705160Y-101026639D01*
X136833251Y-101064250D01*
X136966747Y-101064250D01*
X136966749Y-101064250D01*
X137003317Y-101053512D01*
X137050116Y-101058543D01*
X137079652Y-101095194D01*
X137081517Y-101103768D01*
X137099975Y-101232139D01*
X137099976Y-101232143D01*
X137155431Y-101353572D01*
X137155434Y-101353577D01*
X137242853Y-101454463D01*
X137242855Y-101454465D01*
X137355160Y-101526639D01*
X137483251Y-101564250D01*
X137616747Y-101564250D01*
X137616749Y-101564250D01*
X137653317Y-101553512D01*
X137700116Y-101558543D01*
X137729652Y-101595194D01*
X137731517Y-101603768D01*
X137749975Y-101732139D01*
X137749976Y-101732143D01*
X137805431Y-101853572D01*
X137805434Y-101853577D01*
X137884337Y-101944635D01*
X137892855Y-101954465D01*
X138005160Y-102026639D01*
X138133251Y-102064250D01*
X138266749Y-102064250D01*
X138394840Y-102026639D01*
X138507145Y-101954465D01*
X138594568Y-101853574D01*
X138650025Y-101732139D01*
X138669024Y-101600000D01*
X138650025Y-101467861D01*
X138643907Y-101454465D01*
X138628787Y-101421356D01*
X138594568Y-101346426D01*
X138582188Y-101332139D01*
X138507146Y-101245536D01*
X138507141Y-101245532D01*
X138394842Y-101173362D01*
X138394835Y-101173359D01*
X138286178Y-101141455D01*
X138266749Y-101135750D01*
X138133251Y-101135750D01*
X138133250Y-101135750D01*
X138096682Y-101146487D01*
X138049881Y-101141455D01*
X138020347Y-101104804D01*
X138018482Y-101096231D01*
X138014402Y-101067856D01*
X138000025Y-100967861D01*
X137993907Y-100954465D01*
X137960877Y-100882139D01*
X137944568Y-100846426D01*
X137943793Y-100845532D01*
X137861014Y-100750000D01*
X138580976Y-100750000D01*
X138599975Y-100882139D01*
X138599976Y-100882143D01*
X138655431Y-101003572D01*
X138655434Y-101003577D01*
X138735720Y-101096231D01*
X138742855Y-101104465D01*
X138855160Y-101176639D01*
X138983251Y-101214250D01*
X139116749Y-101214250D01*
X139167732Y-101199280D01*
X147180976Y-101199280D01*
X147199975Y-101331419D01*
X147199976Y-101331423D01*
X147255431Y-101452852D01*
X147255434Y-101452857D01*
X147342653Y-101553512D01*
X147342855Y-101553745D01*
X147342857Y-101553746D01*
X147342858Y-101553747D01*
X147359201Y-101564250D01*
X147455160Y-101625919D01*
X147583251Y-101663530D01*
X147716749Y-101663530D01*
X147844840Y-101625919D01*
X147957145Y-101553745D01*
X148044568Y-101452854D01*
X148100025Y-101331419D01*
X148119024Y-101199280D01*
X148100025Y-101067141D01*
X148098704Y-101064249D01*
X148078787Y-101020636D01*
X148044568Y-100945706D01*
X147964737Y-100853577D01*
X147957146Y-100844816D01*
X147957141Y-100844812D01*
X147844842Y-100772642D01*
X147844835Y-100772639D01*
X147752529Y-100745536D01*
X147716749Y-100735030D01*
X147583251Y-100735030D01*
X147455164Y-100772639D01*
X147455157Y-100772642D01*
X147342858Y-100844812D01*
X147342853Y-100844816D01*
X147255434Y-100945702D01*
X147255431Y-100945707D01*
X147199976Y-101067136D01*
X147199975Y-101067140D01*
X147180976Y-101199280D01*
X139167732Y-101199280D01*
X139244840Y-101176639D01*
X139357145Y-101104465D01*
X139444568Y-101003574D01*
X139500025Y-100882139D01*
X139519024Y-100750000D01*
X139500025Y-100617861D01*
X139444568Y-100496426D01*
X139419816Y-100467861D01*
X139357146Y-100395536D01*
X139357141Y-100395532D01*
X139244842Y-100323362D01*
X139244835Y-100323359D01*
X139162308Y-100299127D01*
X139116749Y-100285750D01*
X138983251Y-100285750D01*
X138855164Y-100323359D01*
X138855157Y-100323362D01*
X138742858Y-100395532D01*
X138742853Y-100395536D01*
X138655434Y-100496422D01*
X138655431Y-100496427D01*
X138599976Y-100617856D01*
X138599975Y-100617860D01*
X138580976Y-100750000D01*
X137861014Y-100750000D01*
X137857146Y-100745536D01*
X137857141Y-100745532D01*
X137744842Y-100673362D01*
X137744835Y-100673359D01*
X137636178Y-100641455D01*
X137616749Y-100635750D01*
X137483251Y-100635750D01*
X137483250Y-100635750D01*
X137446682Y-100646487D01*
X137399881Y-100641455D01*
X137370347Y-100604804D01*
X137368482Y-100596231D01*
X137363806Y-100563709D01*
X137350025Y-100467861D01*
X137294568Y-100346426D01*
X137274580Y-100323359D01*
X137207146Y-100245536D01*
X137207141Y-100245532D01*
X137094842Y-100173362D01*
X137094835Y-100173359D01*
X137012308Y-100149127D01*
X136966749Y-100135750D01*
X136833251Y-100135750D01*
X136705164Y-100173359D01*
X136705157Y-100173362D01*
X136592858Y-100245532D01*
X136592853Y-100245536D01*
X136505434Y-100346422D01*
X136505431Y-100346427D01*
X136449976Y-100467856D01*
X136449975Y-100467860D01*
X136430976Y-100600000D01*
X129250500Y-100600000D01*
X129250500Y-99650000D01*
X138530976Y-99650000D01*
X138549975Y-99782139D01*
X138549976Y-99782143D01*
X138605431Y-99903572D01*
X138605434Y-99903577D01*
X138660669Y-99967321D01*
X138692855Y-100004465D01*
X138805160Y-100076639D01*
X138933251Y-100114250D01*
X139066749Y-100114250D01*
X139117119Y-100099460D01*
X147180976Y-100099460D01*
X147199975Y-100231599D01*
X147199976Y-100231603D01*
X147255431Y-100353032D01*
X147255434Y-100353037D01*
X147292260Y-100395536D01*
X147342855Y-100453925D01*
X147455160Y-100526099D01*
X147583251Y-100563710D01*
X147716749Y-100563710D01*
X147844840Y-100526099D01*
X147957145Y-100453925D01*
X148044568Y-100353034D01*
X148100025Y-100231599D01*
X148119024Y-100099460D01*
X148100025Y-99967321D01*
X148044568Y-99845886D01*
X147957145Y-99744995D01*
X147957143Y-99744994D01*
X147957141Y-99744992D01*
X147844842Y-99672822D01*
X147844835Y-99672819D01*
X147762308Y-99648587D01*
X147716749Y-99635210D01*
X147583251Y-99635210D01*
X147455164Y-99672819D01*
X147455157Y-99672822D01*
X147342858Y-99744992D01*
X147342853Y-99744996D01*
X147255434Y-99845882D01*
X147255431Y-99845887D01*
X147199976Y-99967316D01*
X147199975Y-99967320D01*
X147180976Y-100099460D01*
X139117119Y-100099460D01*
X139194840Y-100076639D01*
X139307145Y-100004465D01*
X139394568Y-99903574D01*
X139450025Y-99782139D01*
X139469024Y-99650000D01*
X139450025Y-99517861D01*
X139394568Y-99396426D01*
X139357898Y-99354107D01*
X139307146Y-99295536D01*
X139307141Y-99295532D01*
X139194842Y-99223362D01*
X139194835Y-99223359D01*
X139112308Y-99199127D01*
X139066749Y-99185750D01*
X138933251Y-99185750D01*
X138805164Y-99223359D01*
X138805157Y-99223362D01*
X138692858Y-99295532D01*
X138692853Y-99295536D01*
X138605434Y-99396422D01*
X138605431Y-99396427D01*
X138549976Y-99517856D01*
X138549975Y-99517860D01*
X138530976Y-99650000D01*
X129250500Y-99650000D01*
X129250500Y-97900000D01*
X133780976Y-97900000D01*
X133799975Y-98032139D01*
X133799976Y-98032143D01*
X133855431Y-98153572D01*
X133855434Y-98153577D01*
X133891792Y-98195536D01*
X133942855Y-98254465D01*
X133942857Y-98254466D01*
X133942858Y-98254467D01*
X134011005Y-98298263D01*
X134037851Y-98336927D01*
X134029493Y-98383249D01*
X134011005Y-98401737D01*
X133942858Y-98445532D01*
X133942853Y-98445536D01*
X133855434Y-98546422D01*
X133855431Y-98546427D01*
X133799976Y-98667856D01*
X133799975Y-98667860D01*
X133780976Y-98800000D01*
X133799975Y-98932139D01*
X133799976Y-98932143D01*
X133855431Y-99053572D01*
X133855434Y-99053577D01*
X133942853Y-99154463D01*
X133942855Y-99154465D01*
X134055160Y-99226639D01*
X134183251Y-99264250D01*
X134316749Y-99264250D01*
X134444840Y-99226639D01*
X134557145Y-99154465D01*
X134644568Y-99053574D01*
X134700025Y-98932139D01*
X134719024Y-98800000D01*
X134700025Y-98667861D01*
X134689663Y-98645172D01*
X134678787Y-98621356D01*
X134646200Y-98550000D01*
X138480976Y-98550000D01*
X138499975Y-98682139D01*
X138499976Y-98682143D01*
X138555431Y-98803572D01*
X138555434Y-98803577D01*
X138610821Y-98867496D01*
X138642855Y-98904465D01*
X138755160Y-98976639D01*
X138883251Y-99014250D01*
X139016749Y-99014250D01*
X139066506Y-98999640D01*
X147180976Y-98999640D01*
X147199975Y-99131779D01*
X147199976Y-99131783D01*
X147255431Y-99253212D01*
X147255434Y-99253217D01*
X147292104Y-99295536D01*
X147342855Y-99354105D01*
X147455160Y-99426279D01*
X147583251Y-99463890D01*
X147716749Y-99463890D01*
X147844840Y-99426279D01*
X147957145Y-99354105D01*
X148044568Y-99253214D01*
X148100025Y-99131779D01*
X148119024Y-98999640D01*
X148100025Y-98867501D01*
X148044568Y-98746066D01*
X147976798Y-98667856D01*
X147957146Y-98645176D01*
X147957141Y-98645172D01*
X147844842Y-98573002D01*
X147844835Y-98572999D01*
X147754320Y-98546422D01*
X147716749Y-98535390D01*
X147583251Y-98535390D01*
X147455164Y-98572999D01*
X147455157Y-98573002D01*
X147342858Y-98645172D01*
X147342853Y-98645176D01*
X147255434Y-98746062D01*
X147255431Y-98746067D01*
X147199976Y-98867496D01*
X147199975Y-98867500D01*
X147180976Y-98999640D01*
X139066506Y-98999640D01*
X139144840Y-98976639D01*
X139257145Y-98904465D01*
X139344568Y-98803574D01*
X139400025Y-98682139D01*
X139419024Y-98550000D01*
X139400025Y-98417861D01*
X139392661Y-98401737D01*
X139363064Y-98336927D01*
X139344568Y-98296426D01*
X139308208Y-98254465D01*
X139257146Y-98195536D01*
X139257141Y-98195532D01*
X139144842Y-98123362D01*
X139144835Y-98123359D01*
X139062308Y-98099127D01*
X139016749Y-98085750D01*
X138883251Y-98085750D01*
X138755164Y-98123359D01*
X138755157Y-98123362D01*
X138642858Y-98195532D01*
X138642853Y-98195536D01*
X138555434Y-98296422D01*
X138555431Y-98296427D01*
X138499976Y-98417856D01*
X138499975Y-98417860D01*
X138480976Y-98550000D01*
X134646200Y-98550000D01*
X134644568Y-98546426D01*
X134635005Y-98535390D01*
X134557146Y-98445536D01*
X134557141Y-98445532D01*
X134488994Y-98401737D01*
X134462149Y-98363073D01*
X134470506Y-98316751D01*
X134488994Y-98298263D01*
X134493106Y-98295619D01*
X134557145Y-98254465D01*
X134644568Y-98153574D01*
X134700025Y-98032139D01*
X134719024Y-97900000D01*
X134700025Y-97767861D01*
X134644568Y-97646426D01*
X134557145Y-97545535D01*
X134557143Y-97545534D01*
X134557141Y-97545532D01*
X134444842Y-97473362D01*
X134444835Y-97473359D01*
X134362308Y-97449127D01*
X134316749Y-97435750D01*
X134183251Y-97435750D01*
X134055164Y-97473359D01*
X134055157Y-97473362D01*
X133942858Y-97545532D01*
X133942853Y-97545536D01*
X133855434Y-97646422D01*
X133855431Y-97646427D01*
X133799976Y-97767856D01*
X133799975Y-97767860D01*
X133780976Y-97900000D01*
X129250500Y-97900000D01*
X129250500Y-96800000D01*
X133780976Y-96800000D01*
X133799975Y-96932139D01*
X133799976Y-96932143D01*
X133855431Y-97053572D01*
X133855434Y-97053577D01*
X133942853Y-97154463D01*
X133942855Y-97154465D01*
X134055160Y-97226639D01*
X134183251Y-97264250D01*
X134316749Y-97264250D01*
X134444840Y-97226639D01*
X134557145Y-97154465D01*
X134644568Y-97053574D01*
X134700025Y-96932139D01*
X134719024Y-96800000D01*
X134700025Y-96667861D01*
X134644568Y-96546426D01*
X134557145Y-96445535D01*
X134557143Y-96445534D01*
X134557141Y-96445532D01*
X134444842Y-96373362D01*
X134444835Y-96373359D01*
X134362308Y-96349127D01*
X134316749Y-96335750D01*
X134183251Y-96335750D01*
X134055164Y-96373359D01*
X134055157Y-96373362D01*
X133942858Y-96445532D01*
X133942853Y-96445536D01*
X133855434Y-96546422D01*
X133855431Y-96546427D01*
X133799976Y-96667856D01*
X133799975Y-96667860D01*
X133780976Y-96800000D01*
X129250500Y-96800000D01*
X129250500Y-95700000D01*
X133780976Y-95700000D01*
X133799975Y-95832139D01*
X133799976Y-95832143D01*
X133855431Y-95953572D01*
X133855434Y-95953577D01*
X133942853Y-96054463D01*
X133942855Y-96054465D01*
X134055160Y-96126639D01*
X134183251Y-96164250D01*
X134316749Y-96164250D01*
X134444840Y-96126639D01*
X134557145Y-96054465D01*
X134644568Y-95953574D01*
X134700025Y-95832139D01*
X134719024Y-95700000D01*
X134700025Y-95567861D01*
X134644568Y-95446426D01*
X134557145Y-95345535D01*
X134557143Y-95345534D01*
X134557141Y-95345532D01*
X134444842Y-95273362D01*
X134444835Y-95273359D01*
X134362308Y-95249127D01*
X134316749Y-95235750D01*
X134183251Y-95235750D01*
X134055164Y-95273359D01*
X134055157Y-95273362D01*
X133942858Y-95345532D01*
X133942853Y-95345536D01*
X133855434Y-95446422D01*
X133855431Y-95446427D01*
X133799976Y-95567856D01*
X133799975Y-95567860D01*
X133780976Y-95700000D01*
X129250500Y-95700000D01*
X129250500Y-78504840D01*
X129251257Y-78495220D01*
X129261187Y-78432522D01*
X129267133Y-78414222D01*
X129293728Y-78362026D01*
X129305035Y-78346462D01*
X129346462Y-78305035D01*
X129362024Y-78293728D01*
X129388124Y-78280430D01*
X129414222Y-78267133D01*
X129432521Y-78261187D01*
X129495220Y-78251256D01*
X129504840Y-78250500D01*
X129544170Y-78250500D01*
X150455830Y-78250500D01*
X150495160Y-78250500D01*
X150504778Y-78251256D01*
G37*
%TD.AperFunction*%
%TD*%
M02*
