M48
; DRILL file {KiCad 8.0.8+1} date 2025-01-22T08:35:05-0500
; FORMAT={-:-/ absolute / inch / decimal}
; #@! TF.CreationDate,2025-01-22T08:35:05-05:00
; #@! TF.GenerationSoftware,Kicad,Pcbnew,8.0.8+1
; #@! TF.FileFunction,Plated,1,4,PTH
FMAT,2
INCH
; #@! TA.AperFunction,Plated,PTH,ViaDrill
T1C0.0085
; #@! TA.AperFunction,Plated,PTH,ViaDrill
T2C0.0118
; #@! TA.AperFunction,Plated,PTH,ComponentDrill
T3C0.1378
%
G90
G05
T1
X5.1083Y-4.4409
X5.1083Y-4.4961
X5.1299Y-4.2559
X5.1437Y-4.5807
X5.1535Y-4.3071
X5.1614Y-4.1142
X5.1634Y-3.378
X5.1634Y-3.4646
X5.1634Y-3.5571
X5.1654Y-3.9409
X5.1969Y-4.311
X5.2165Y-4.5728
X5.2185Y-3.3386
X5.248Y-4.6043
X5.2657Y-4.5551
X5.2677Y-4.4409
X5.2776Y-3.2854
X5.2777Y-4.6009
X5.2854Y-3.5906
X5.2854Y-3.7677
X5.2854Y-3.811
X5.2854Y-3.8543
X5.2854Y-3.8898
X5.2854Y-3.9843
X5.2854Y-4.0276
X5.3209Y-3.2854
X5.3236Y-4.4772
X5.3236Y-4.5228
X5.3268Y-3.4429
X5.3268Y-3.5138
X5.3268Y-3.5492
X5.3268Y-3.9331
X5.3268Y-4.1083
X5.3268Y-4.1791
X5.3465Y-4.5
X5.3518Y-4.6004
X5.3642Y-4.3339
X5.3693Y-4.4772
X5.3693Y-4.5228
X5.3898Y-3.9606
X5.3976Y-4.6024
X5.4094Y-3.4429
X5.4094Y-3.5138
X5.4154Y-3.9803
X5.4232Y-4.6024
X5.4409Y-4.0
X5.4488Y-3.2854
X5.4488Y-4.6024
X5.4671Y-4.3839
X5.4705Y-3.8799
X5.4724Y-3.9232
X5.4744Y-3.9665
X5.4921Y-3.2854
X5.4921Y-3.4429
X5.4921Y-3.5138
X5.4921Y-4.1083
X5.4921Y-4.1791
X5.4961Y-4.3839
X5.5197Y-3.689
X5.5354Y-3.2874
X5.5748Y-3.4429
X5.5748Y-3.5138
X5.5748Y-3.689
X5.5748Y-4.1083
X5.5748Y-4.1791
X5.5768Y-3.2854
X5.5984Y-3.2264
X5.6417Y-4.5728
X5.6457Y-3.6969
X5.6575Y-3.4429
X5.6575Y-3.5138
X5.6575Y-4.1083
X5.6575Y-4.1791
X5.6663Y-4.4173
X5.6929Y-4.4803
X5.6988Y-3.6496
X5.6988Y-3.7323
X5.7008Y-3.1043
X5.7087Y-4.6043
X5.7146Y-3.811
X5.7205Y-3.5138
X5.7559Y-3.1043
X5.7874Y-3.1083
X5.7874Y-3.2303
X5.8031Y-4.5984
X5.813Y-3.8976
X5.813Y-3.9409
X5.813Y-3.9842
X5.813Y-4.0275
X5.8248Y-4.3406
X5.8248Y-4.3917
X5.8445Y-3.6909
X5.8445Y-3.7224
X5.876Y-3.6909
X5.876Y-3.7224
X5.8819Y-4.5906
X5.9055Y-3.1083
X5.9055Y-3.2303
X5.9232Y-3.2953
X5.9232Y-3.3583
X5.9232Y-3.4213
X5.9232Y-3.4843
X5.9232Y-3.5472
T2
X5.1772Y-4.5925
X5.2579Y-4.5049
X5.7067Y-4.3642
X5.7126Y-4.5472
X5.878Y-3.8366
X5.878Y-4.0886
X5.878Y-4.1929
X5.9193Y-3.5827
T3
X5.5118Y-3.0709
M30
