%TF.GenerationSoftware,KiCad,Pcbnew,8.0.8+1*%
%TF.CreationDate,2025-01-22T08:35:02-05:00*%
%TF.ProjectId,cellularBoard,63656c6c-756c-4617-9242-6f6172642e6b,rev?*%
%TF.SameCoordinates,Original*%
%TF.FileFunction,Copper,L4,Bot*%
%TF.FilePolarity,Positive*%
%FSLAX46Y46*%
G04 Gerber Fmt 4.6, Leading zero omitted, Abs format (unit mm)*
G04 Created by KiCad (PCBNEW 8.0.8+1) date 2025-01-22 08:35:02*
%MOMM*%
%LPD*%
G01*
G04 APERTURE LIST*
G04 Aperture macros list*
%AMRoundRect*
0 Rectangle with rounded corners*
0 $1 Rounding radius*
0 $2 $3 $4 $5 $6 $7 $8 $9 X,Y pos of 4 corners*
0 Add a 4 corners polygon primitive as box body*
4,1,4,$2,$3,$4,$5,$6,$7,$8,$9,$2,$3,0*
0 Add four circle primitives for the rounded corners*
1,1,$1+$1,$2,$3*
1,1,$1+$1,$4,$5*
1,1,$1+$1,$6,$7*
1,1,$1+$1,$8,$9*
0 Add four rect primitives between the rounded corners*
20,1,$1+$1,$2,$3,$4,$5,0*
20,1,$1+$1,$4,$5,$6,$7,0*
20,1,$1+$1,$6,$7,$8,$9,0*
20,1,$1+$1,$8,$9,$2,$3,0*%
%AMFreePoly0*
4,1,129,0.331476,2.729949,0.658118,2.670090,0.975163,2.571295,1.277989,2.435004,1.562178,2.263206,1.823587,2.058405,2.058405,1.823587,2.263206,1.562178,2.435004,1.277989,2.571295,0.975163,2.670090,0.658118,2.729949,0.331476,2.750000,0.000000,2.747491,-0.166193,2.732458,-0.289997,2.729949,-0.331476,2.722458,-0.372351,2.707427,-0.496154,2.677580,-0.617241,2.670090,-0.658118,
2.657730,-0.697782,2.627882,-0.818881,2.583657,-0.935489,2.571295,-0.975163,2.554237,-1.013062,2.510016,-1.129667,2.452065,-1.240079,2.435004,-1.277989,2.413497,-1.313564,2.355549,-1.423979,2.284710,-1.526604,2.263206,-1.562178,2.237570,-1.594899,2.166733,-1.697527,2.084033,-1.790874,2.058405,-1.823587,2.029019,-1.852972,1.946321,-1.946321,1.852972,-2.029019,1.823587,-2.058405,
1.790874,-2.084033,1.697527,-2.166733,1.594899,-2.237570,1.562178,-2.263206,1.526604,-2.284710,1.423979,-2.355549,1.313564,-2.413497,1.277989,-2.435004,1.240079,-2.452065,1.129667,-2.510016,1.013062,-2.554237,0.975163,-2.571295,0.935489,-2.583657,0.818881,-2.627882,0.697785,-2.657729,0.658118,-2.670090,0.617241,-2.677580,0.496154,-2.707427,0.372351,-2.722458,0.331476,-2.729949,
0.289997,-2.732458,0.166193,-2.747491,0.041478,-2.747491,0.000000,-2.750000,-0.041478,-2.747491,-0.166193,-2.747491,-0.289997,-2.732458,-0.331476,-2.729949,-0.372351,-2.722458,-0.496154,-2.707427,-0.617241,-2.677580,-0.658118,-2.670090,-0.697785,-2.657729,-0.818881,-2.627882,-0.935489,-2.583657,-0.975163,-2.571295,-1.013062,-2.554237,-1.129667,-2.510016,-1.240079,-2.452065,-1.277989,-2.435004,
-1.313564,-2.413497,-1.423979,-2.355549,-1.526604,-2.284710,-1.562178,-2.263206,-1.594899,-2.237570,-1.697527,-2.166733,-1.790874,-2.084033,-1.823587,-2.058405,-1.852972,-2.029019,-1.946321,-1.946321,-2.029019,-1.852972,-2.058405,-1.823587,-2.084033,-1.790874,-2.166733,-1.697527,-2.237570,-1.594899,-2.263206,-1.562178,-2.284710,-1.526604,-2.355549,-1.423979,-2.413497,-1.313564,-2.435004,-1.277989,
-2.452065,-1.240079,-2.510016,-1.129667,-2.554237,-1.013062,-2.571295,-0.975163,-2.583657,-0.935489,-2.627882,-0.818881,-2.657730,-0.697782,-2.670090,-0.658118,-2.677580,-0.617241,-2.707427,-0.496154,-2.722458,-0.372351,-2.729949,-0.331476,-2.732458,-0.289997,-2.747491,-0.166193,-2.750000,0.000000,-2.729949,0.331476,-2.670090,0.658118,-2.571295,0.975163,-2.435004,1.277989,-2.263206,1.562178,
-2.058405,1.823587,-1.823587,2.058405,-1.562178,2.263206,-1.277989,2.435004,-0.975163,2.571295,-0.658118,2.670090,-0.331476,2.729949,0.000000,2.750000,0.331476,2.729949,0.331476,2.729949,$1*%
%AMFreePoly1*
4,1,59,0.331476,2.729949,0.658118,2.670090,0.975163,2.571295,1.277989,2.435004,1.562178,2.263206,1.823587,2.058405,2.058405,1.823587,2.263206,1.562178,2.435004,1.277989,2.571295,0.975163,2.670090,0.658118,2.729949,0.331476,2.750000,0.000000,3.000000,0.000000,3.000000,-1.000000,2.997462,-1.174582,2.956927,-1.521386,2.876404,-1.861139,2.756982,-2.189246,2.600278,-2.501271,
2.408409,-2.792994,2.183970,-3.060469,1.929997,-3.300081,1.649924,-3.508587,1.347538,-3.683170,1.026930,-3.821467,0.692434,-3.921608,0.348574,-3.982240,0.000000,-4.002542,-0.348574,-3.982240,-0.692434,-3.921608,-1.026930,-3.821467,-1.347538,-3.683170,-1.649924,-3.508587,-1.929997,-3.300081,-2.183970,-3.060469,-2.408409,-2.792994,-2.600278,-2.501271,-2.756982,-2.189246,-2.876404,-1.861139,
-2.956927,-1.521386,-2.997462,-1.174582,-3.000000,-1.000000,-3.000000,0.000000,-2.750000,0.000000,-2.729949,0.331476,-2.670090,0.658118,-2.571295,0.975163,-2.435004,1.277989,-2.263206,1.562178,-2.058405,1.823587,-1.823587,2.058405,-1.562178,2.263206,-1.277989,2.435004,-0.975163,2.571295,-0.658118,2.670090,-0.331476,2.729949,0.000000,2.750000,0.331476,2.729949,0.331476,2.729949,
$1*%
G04 Aperture macros list end*
%TA.AperFunction,EtchedComponent*%
%ADD10C,0.000000*%
%TD*%
%TA.AperFunction,ComponentPad*%
%ADD11FreePoly0,0.000000*%
%TD*%
%TA.AperFunction,SMDPad,CuDef*%
%ADD12FreePoly1,0.000000*%
%TD*%
%TA.AperFunction,SMDPad,CuDef*%
%ADD13R,0.350000X2.000000*%
%TD*%
%TA.AperFunction,SMDPad,CuDef*%
%ADD14RoundRect,0.145000X-0.155000X-0.145000X0.155000X-0.145000X0.155000X0.145000X-0.155000X0.145000X0*%
%TD*%
%TA.AperFunction,SMDPad,CuDef*%
%ADD15RoundRect,0.100000X0.100000X0.250000X-0.100000X0.250000X-0.100000X-0.250000X0.100000X-0.250000X0*%
%TD*%
%TA.AperFunction,SMDPad,CuDef*%
%ADD16C,1.000000*%
%TD*%
%TA.AperFunction,SMDPad,CuDef*%
%ADD17C,0.500000*%
%TD*%
%TA.AperFunction,SMDPad,CuDef*%
%ADD18R,1.500000X1.000000*%
%TD*%
%TA.AperFunction,SMDPad,CuDef*%
%ADD19RoundRect,0.162500X0.412500X0.162500X-0.412500X0.162500X-0.412500X-0.162500X0.412500X-0.162500X0*%
%TD*%
%TA.AperFunction,SMDPad,CuDef*%
%ADD20RoundRect,0.250000X0.600000X0.450000X-0.600000X0.450000X-0.600000X-0.450000X0.600000X-0.450000X0*%
%TD*%
%TA.AperFunction,SMDPad,CuDef*%
%ADD21RoundRect,0.112500X0.537500X0.112500X-0.537500X0.112500X-0.537500X-0.112500X0.537500X-0.112500X0*%
%TD*%
%TA.AperFunction,SMDPad,CuDef*%
%ADD22RoundRect,0.135000X0.265000X0.135000X-0.265000X0.135000X-0.265000X-0.135000X0.265000X-0.135000X0*%
%TD*%
%TA.AperFunction,SMDPad,CuDef*%
%ADD23RoundRect,0.145000X0.155000X0.145000X-0.155000X0.145000X-0.155000X-0.145000X0.155000X-0.145000X0*%
%TD*%
%TA.AperFunction,SMDPad,CuDef*%
%ADD24RoundRect,0.217750X-0.217750X-0.267250X0.217750X-0.267250X0.217750X0.267250X-0.217750X0.267250X0*%
%TD*%
%TA.AperFunction,ViaPad*%
%ADD25C,0.527500*%
%TD*%
%TA.AperFunction,ViaPad*%
%ADD26C,0.615000*%
%TD*%
%TA.AperFunction,Conductor*%
%ADD27C,0.200000*%
%TD*%
%TA.AperFunction,Conductor*%
%ADD28C,0.250000*%
%TD*%
%TA.AperFunction,Conductor*%
%ADD29C,0.300000*%
%TD*%
G04 APERTURE END LIST*
D10*
%TA.AperFunction,EtchedComponent*%
%TO.C,JP1*%
G36*
X149600000Y-111150000D02*
G01*
X149000000Y-111150000D01*
X149000000Y-110650000D01*
X149600000Y-110650000D01*
X149600000Y-111150000D01*
G37*
%TD.AperFunction*%
%TD*%
D11*
%TO.P,J2,1*%
%TO.N,VSS*%
X140000000Y-78000000D03*
D12*
X140000000Y-78000000D03*
%TD*%
D13*
%TO.P,J1,2,3.3V*%
%TO.N,+3V3*%
X149000000Y-118500000D03*
%TO.P,J1,4,3.3V*%
X148500000Y-118500000D03*
%TO.P,J1,6,~{LED_1}*%
%TO.N,unconnected-(J1-~{LED_1}-Pad6)*%
X148000000Y-118500000D03*
%TO.P,J1,8,PCM_CLK/I2S_SCK*%
%TO.N,unconnected-(J1-PCM_CLK{slash}I2S_SCK-Pad8)*%
X147500000Y-118500000D03*
%TO.P,J1,10,PCM_SYNC/I2S_WS*%
%TO.N,unconnected-(J1-PCM_SYNC{slash}I2S_WS-Pad10)*%
X147000000Y-118500000D03*
%TO.P,J1,12,PCM_IN/I2S_SD_IN*%
%TO.N,unconnected-(J1-PCM_IN{slash}I2S_SD_IN-Pad12)*%
X146500000Y-118500000D03*
%TO.P,J1,14,PCM_OUT/I2S_SD_OUT*%
%TO.N,unconnected-(J1-PCM_OUT{slash}I2S_SD_OUT-Pad14)*%
X146000000Y-118500000D03*
%TO.P,J1,16,~{LED_2}*%
%TO.N,unconnected-(J1-~{LED_2}-Pad16)*%
X145500000Y-118500000D03*
%TO.P,J1,18,GND*%
%TO.N,VSS*%
X145000000Y-118500000D03*
%TO.P,J1,20,~{UART_WAKE}*%
%TO.N,unconnected-(J1-~{UART_WAKE}-Pad20)*%
X144500000Y-118500000D03*
%TO.P,J1,22,UART_RXD*%
%TO.N,/SARA_RXD_1V8*%
X144000000Y-118500000D03*
%TO.P,J1,32,UART_TXD*%
%TO.N,/SARA_TXD_1V8*%
X141500000Y-118500000D03*
%TO.P,J1,34,UART_CTS*%
%TO.N,/SARA_CTS_1V8*%
X141000000Y-118500000D03*
%TO.P,J1,36,UART_RTS*%
%TO.N,/SARA_RTS_1V8*%
X140500000Y-118500000D03*
%TO.P,J1,38,VENDOR_DEFINED*%
%TO.N,/SLEEP*%
X140000000Y-118500000D03*
%TO.P,J1,40,VENDOR_DEFINED*%
%TO.N,/NETWORK_STS*%
X139500000Y-118500000D03*
%TO.P,J1,42,VENDOR_DEFINED*%
%TO.N,/MODULE_STS*%
X139000000Y-118500000D03*
%TO.P,J1,44,COEX3*%
%TO.N,unconnected-(J1-COEX3-Pad44)*%
X138500000Y-118500000D03*
%TO.P,J1,46,COEX2*%
%TO.N,unconnected-(J1-COEX2-Pad46)*%
X138000000Y-118500000D03*
%TO.P,J1,48,COEX1*%
%TO.N,unconnected-(J1-COEX1-Pad48)*%
X137500000Y-118500000D03*
%TO.P,J1,50,SUSCLK*%
%TO.N,unconnected-(J1-SUSCLK-Pad50)*%
X137000000Y-118500000D03*
%TO.P,J1,52,~{PERST0}*%
%TO.N,/RESET_N*%
X136500000Y-118500000D03*
%TO.P,J1,54,~{W_DISABLE2}*%
%TO.N,unconnected-(J1-~{W_DISABLE2}-Pad54)*%
X136000000Y-118500000D03*
%TO.P,J1,56,~{W_DISABLE1}*%
%TO.N,unconnected-(J1-~{W_DISABLE1}-Pad56)*%
X135500000Y-118500000D03*
%TO.P,J1,58,I2C_DATA*%
%TO.N,/SARA_SDA_1V8*%
X135000000Y-118500000D03*
%TO.P,J1,60,I2C_CLK*%
%TO.N,/SARA_SCL_1V8*%
X134500000Y-118500000D03*
%TO.P,J1,62,~{ALERT}*%
%TO.N,unconnected-(J1-~{ALERT}-Pad62)*%
X134000000Y-118500000D03*
%TO.P,J1,64,RESERVED*%
%TO.N,unconnected-(J1-RESERVED-Pad64)*%
X133500000Y-118500000D03*
%TO.P,J1,66,UIM_SWP/~{PERST1}*%
%TO.N,unconnected-(J1-UIM_SWP{slash}~{PERST1}-Pad66)*%
X133000000Y-118500000D03*
%TO.P,J1,68,UIM_POWER_SNK/~{CLKREQ1}*%
%TO.N,unconnected-(J1-UIM_POWER_SNK{slash}~{CLKREQ1}-Pad68)*%
X132500000Y-118500000D03*
%TO.P,J1,70,UIM_POWER_SRC/GPIO1/~{PEWAKE1}*%
%TO.N,unconnected-(J1-UIM_POWER_SRC{slash}GPIO1{slash}~{PEWAKE1}-Pad70)*%
X132000000Y-118500000D03*
%TO.P,J1,72,3.3V*%
%TO.N,+3V3*%
X131500000Y-118500000D03*
%TO.P,J1,74,3.3V*%
X131000000Y-118500000D03*
%TD*%
D14*
%TO.P,R3,1*%
%TO.N,+1V8*%
X135735000Y-112450000D03*
%TO.P,R3,2*%
%TO.N,/SARA_SDA_1V8*%
X136665000Y-112450000D03*
%TD*%
D15*
%TO.P,D5,1*%
%TO.N,VSS*%
X149650000Y-100100000D03*
%TO.P,D5,2*%
%TO.N,/SIM_RST*%
X148950000Y-100100000D03*
%TD*%
D16*
%TO.P,TP5,1*%
%TO.N,/SARA_RXD_1V8*%
X130300000Y-92700000D03*
%TD*%
%TO.P,TP8,1*%
%TO.N,VSS*%
X130300000Y-90000000D03*
%TD*%
%TO.P,TP1,1*%
%TO.N,+3V8*%
X144950000Y-112500000D03*
%TD*%
%TO.P,TP7,1*%
%TO.N,+1V8*%
X129800000Y-111100000D03*
%TD*%
D15*
%TO.P,D3,1*%
%TO.N,VSS*%
X149650000Y-101200000D03*
%TO.P,D3,2*%
%TO.N,/SIM_IO*%
X148950000Y-101200000D03*
%TD*%
%TO.P,D6,1*%
%TO.N,VSS*%
X149650000Y-99000000D03*
%TO.P,D6,2*%
%TO.N,VSIM*%
X148950000Y-99000000D03*
%TD*%
D17*
%TO.P,REF\u002A\u002A,*%
%TO.N,*%
X150200000Y-115200000D03*
%TD*%
D16*
%TO.P,TP2,1*%
%TO.N,VSS*%
X133000000Y-109500000D03*
%TD*%
D17*
%TO.P,REF\u002A\u002A,*%
%TO.N,*%
X130100000Y-79100000D03*
%TD*%
D18*
%TO.P,JP1,1*%
%TO.N,VSS*%
X149300000Y-110250000D03*
%TO.P,JP1,2*%
%TO.N,Net-(D2-Pad2)*%
X149300000Y-111550000D03*
%TD*%
D16*
%TO.P,TP6,1*%
%TO.N,/SARA_TXD_1V8*%
X132300000Y-92700000D03*
%TD*%
D19*
%TO.P,J3,C1,VCC*%
%TO.N,VSIM*%
X144030000Y-97945000D03*
%TO.P,J3,C2,RST*%
%TO.N,/SIM_RST*%
X144030000Y-100485000D03*
%TO.P,J3,C3,CLK*%
%TO.N,/SIM_CLK*%
X144030000Y-103025000D03*
%TO.P,J3,C5,GND*%
%TO.N,VSS*%
X144030000Y-96675000D03*
%TO.P,J3,C6,VPP*%
%TO.N,unconnected-(J3-VPP-PadC6)*%
X144030000Y-99215000D03*
%TO.P,J3,C7,IO*%
%TO.N,/SIM_IO*%
X144030000Y-101755000D03*
D20*
%TO.P,J3,MP1,MP*%
%TO.N,VSS*%
X130300000Y-94595000D03*
%TO.P,J3,MP2,MP*%
X130300000Y-106805000D03*
D21*
%TO.P,J3,MP3,MP*%
X139860000Y-106970000D03*
%TO.P,J3,MP4,MP*%
X141860000Y-106970000D03*
%TO.P,J3,MP5,MP*%
X141860000Y-94430000D03*
%TO.P,J3,MP6,MP*%
X139860000Y-94430000D03*
D22*
%TO.P,J3,X1,NC*%
%TO.N,unconnected-(J3-NC-PadX1)*%
X130880000Y-98155000D03*
%TO.P,J3,X2,NC*%
%TO.N,unconnected-(J3-NC-PadX2)*%
X130880000Y-103240000D03*
%TD*%
D23*
%TO.P,R6,1*%
%TO.N,Net-(U1-RT)*%
X132515000Y-114200000D03*
%TO.P,R6,2*%
%TO.N,VSS*%
X131585000Y-114200000D03*
%TD*%
D17*
%TO.P,REF\u002A\u002A,*%
%TO.N,*%
X129800000Y-115200000D03*
%TD*%
D24*
%TO.P,C8,1*%
%TO.N,VSS*%
X131300000Y-112800000D03*
%TO.P,C8,2*%
%TO.N,Net-(U1-VCC)*%
X132800000Y-112800000D03*
%TD*%
D14*
%TO.P,R4,1*%
%TO.N,+1V8*%
X135735000Y-111300000D03*
%TO.P,R4,2*%
%TO.N,/SARA_SCL_1V8*%
X136665000Y-111300000D03*
%TD*%
D16*
%TO.P,TP4,1*%
%TO.N,/SARA_SDA_1V8*%
X134550000Y-112150000D03*
%TD*%
%TO.P,TP3,1*%
%TO.N,/SARA_SCL_1V8*%
X137900000Y-112900000D03*
%TD*%
D15*
%TO.P,D4,1*%
%TO.N,VSS*%
X149650000Y-102300000D03*
%TO.P,D4,2*%
%TO.N,/SIM_CLK*%
X148950000Y-102300000D03*
%TD*%
D25*
%TO.N,VSS*%
X129750000Y-112800000D03*
X147950000Y-110250000D03*
X139500000Y-106150000D03*
X144750000Y-92700000D03*
X137100000Y-116900000D03*
X143300000Y-116150000D03*
X132000000Y-109500000D03*
X135300000Y-89250000D03*
X131200000Y-100100000D03*
X147400000Y-116800000D03*
X135220000Y-113720000D03*
X148450000Y-93750000D03*
X150450000Y-85300000D03*
X138400000Y-116900000D03*
D26*
X149300000Y-103850000D03*
D25*
X129750000Y-114200000D03*
X140200000Y-93700000D03*
X139500000Y-89250000D03*
X147000000Y-78950000D03*
X135300000Y-99900000D03*
X135150000Y-83450000D03*
X135300000Y-87450000D03*
X149250000Y-93750000D03*
X133300000Y-116950000D03*
X130650000Y-116350000D03*
X150450000Y-86900000D03*
X139500000Y-87450000D03*
X136380000Y-114880000D03*
X138400000Y-83450000D03*
X141600000Y-89250000D03*
X135300000Y-106150000D03*
X139500000Y-104350000D03*
X147000000Y-82050000D03*
X150450000Y-88500000D03*
X143700000Y-89250000D03*
X141600000Y-104350000D03*
X131150000Y-85800000D03*
X141650000Y-83450000D03*
X143400000Y-93900000D03*
X149250000Y-94550000D03*
X144600000Y-113800000D03*
X145150000Y-96800000D03*
X136380000Y-113720000D03*
X143700000Y-87450000D03*
X143925000Y-112200000D03*
X141600000Y-93700000D03*
X135800000Y-114300000D03*
X132550000Y-84800000D03*
X141600000Y-87450000D03*
X137400000Y-89250000D03*
X131150000Y-90350000D03*
X149400000Y-116600000D03*
X150450000Y-90100000D03*
X144750000Y-94800000D03*
X132500000Y-116150000D03*
X150450000Y-83700000D03*
X135300000Y-104350000D03*
X150000000Y-82050000D03*
X141600000Y-106150000D03*
X140600000Y-83500000D03*
X144800000Y-78850000D03*
X135300000Y-90150000D03*
X134050000Y-83450000D03*
X148450000Y-94550000D03*
X135220000Y-114880000D03*
X145000000Y-116950000D03*
X146200000Y-78850000D03*
X134250000Y-91200000D03*
X145300000Y-89250000D03*
X142200000Y-81950000D03*
X139500000Y-83450000D03*
D26*
X149300000Y-97450000D03*
D25*
X150000000Y-78950000D03*
X131150000Y-88000000D03*
X130300000Y-108100000D03*
X137750000Y-116900000D03*
X137400000Y-87450000D03*
X143700000Y-106150000D03*
X143700000Y-104350000D03*
D26*
%TO.N,+3V3*%
X145100000Y-115500000D03*
X133550000Y-114425000D03*
X131500000Y-116650000D03*
D25*
%TO.N,+1V8*%
X130900000Y-109400000D03*
%TO.N,Net-(U1-VCC)*%
X133800000Y-112800000D03*
D26*
%TO.N,+3V8*%
X149300000Y-106500000D03*
X144950000Y-110850000D03*
X150350000Y-91000000D03*
D25*
%TO.N,VSIM*%
X147650000Y-98999640D03*
%TO.N,/SIM_IO*%
X147650000Y-101199280D03*
%TO.N,/SIM_CLK*%
X147650000Y-102299100D03*
%TO.N,/SIM_RST*%
X147650000Y-100099460D03*
%TO.N,/RESET_N*%
X131100000Y-104500000D03*
%TO.N,Net-(D2-Pad2)*%
X147950000Y-111550000D03*
%TO.N,/MODULE_STS*%
X136250000Y-110080000D03*
%TO.N,/SARA_RXD_1V8*%
X134250000Y-98800000D03*
%TO.N,/NETWORK_STS*%
X134250000Y-102300000D03*
%TO.N,/SARA_TXD_1V8*%
X134250000Y-97900000D03*
X139050000Y-100750000D03*
X138200000Y-101600000D03*
%TO.N,/SARA_SCL_1V8*%
X139600000Y-111350000D03*
%TO.N,/SARA_RTS_1V8*%
X134250000Y-95700000D03*
X138950000Y-98550000D03*
X136900000Y-100600000D03*
%TO.N,/SLEEP*%
X134250000Y-101200000D03*
%TO.N,/SARA_CTS_1V8*%
X134250000Y-96800000D03*
X137550000Y-101100000D03*
X139000000Y-99650000D03*
%TO.N,/SARA_SDA_1V8*%
X138863750Y-111350000D03*
X134052995Y-116863749D03*
X135936250Y-116850000D03*
%TO.N,Net-(U1-RT)*%
X133750000Y-115700000D03*
%TD*%
D27*
%TO.N,VSS*%
X145000000Y-118500000D02*
X145000000Y-116950000D01*
%TO.N,+3V3*%
X132525000Y-115450000D02*
X133550000Y-114425000D01*
D28*
X131500000Y-116650000D02*
X131500000Y-118500000D01*
X149000000Y-117150000D02*
X149000000Y-118500000D01*
X148750000Y-116900000D02*
X149000000Y-117150000D01*
X144750000Y-115500000D02*
X147350000Y-115500000D01*
D27*
X131500000Y-116650000D02*
X131500000Y-116050000D01*
D28*
X131350000Y-116650000D02*
X131000000Y-117000000D01*
X131500000Y-116650000D02*
X131350000Y-116650000D01*
D27*
X132100000Y-115450000D02*
X132525000Y-115450000D01*
X131500000Y-116050000D02*
X132100000Y-115450000D01*
D28*
X147350000Y-115500000D02*
X148750000Y-116900000D01*
X148750000Y-116900000D02*
X148500000Y-117150000D01*
X148500000Y-117150000D02*
X148500000Y-118500000D01*
X131000000Y-117000000D02*
X131000000Y-118500000D01*
D27*
%TO.N,+1V8*%
X130900000Y-109400000D02*
X129800000Y-110500000D01*
X132800000Y-111300000D02*
X130900000Y-109400000D01*
X135735000Y-111300000D02*
X132800000Y-111300000D01*
X129800000Y-110500000D02*
X129800000Y-111100000D01*
X135735000Y-112450000D02*
X135735000Y-111300000D01*
%TO.N,Net-(U1-VCC)*%
X132800000Y-112800000D02*
X133800000Y-112800000D01*
D29*
%TO.N,+3V8*%
X150350000Y-105450000D02*
X150350000Y-91000000D01*
D27*
X144950000Y-110850000D02*
X144950000Y-112500000D01*
D29*
X149300000Y-106500000D02*
X150350000Y-105450000D01*
X144950000Y-110850000D02*
X149300000Y-106500000D01*
D27*
%TO.N,VSIM*%
X148949640Y-98999640D02*
X148950000Y-99000000D01*
X147650000Y-98999640D02*
X146595360Y-97945000D01*
X147650000Y-98999640D02*
X148949640Y-98999640D01*
X146595360Y-97945000D02*
X144030000Y-97945000D01*
%TO.N,/SIM_IO*%
X148949280Y-101199280D02*
X148950000Y-101200000D01*
X147650000Y-101199280D02*
X148949280Y-101199280D01*
X147094280Y-101755000D02*
X144030000Y-101755000D01*
X147650000Y-101199280D02*
X147094280Y-101755000D01*
%TO.N,/SIM_CLK*%
X148949100Y-102299100D02*
X148950000Y-102300000D01*
X147650000Y-102299100D02*
X148949100Y-102299100D01*
X146924100Y-103025000D02*
X144030000Y-103025000D01*
X147650000Y-102299100D02*
X146924100Y-103025000D01*
%TO.N,/SIM_RST*%
X147650000Y-100100000D02*
X147265000Y-100485000D01*
X147650000Y-100099460D02*
X148949460Y-100099460D01*
X147265000Y-100485000D02*
X144030000Y-100485000D01*
X147650000Y-100099460D02*
X147650000Y-100100000D01*
X148949460Y-100099460D02*
X148950000Y-100100000D01*
%TO.N,/RESET_N*%
X133850000Y-105150000D02*
X133850000Y-109465686D01*
X136500000Y-116702737D02*
X136500000Y-118500000D01*
X139400000Y-110350000D02*
X140200000Y-111150000D01*
X137150000Y-110650000D02*
X137450000Y-110350000D01*
X137450000Y-110350000D02*
X139400000Y-110350000D01*
X138600000Y-114238634D02*
X138600000Y-114602737D01*
X131100000Y-104500000D02*
X133200000Y-104500000D01*
X133850000Y-109465686D02*
X135034314Y-110650000D01*
X140200000Y-112638634D02*
X138600000Y-114238634D01*
X133200000Y-104500000D02*
X133850000Y-105150000D01*
X138600000Y-114602737D02*
X136500000Y-116702737D01*
X140200000Y-111150000D02*
X140200000Y-112638634D01*
X135034314Y-110650000D02*
X137150000Y-110650000D01*
%TO.N,Net-(D2-Pad2)*%
X147950000Y-111550000D02*
X149300000Y-111550000D01*
%TO.N,/MODULE_STS*%
X139800000Y-110184315D02*
X140600000Y-110984315D01*
X139000000Y-114404321D02*
X139000000Y-118500000D01*
X140600000Y-112804320D02*
X140265685Y-113138635D01*
X136250000Y-110080000D02*
X136380000Y-109950000D01*
X139565686Y-109950000D02*
X139800000Y-110184315D01*
X140600000Y-110984315D02*
X140600000Y-112804320D01*
X140265685Y-113138635D02*
X139000000Y-114404321D01*
X136380000Y-109950000D02*
X139565686Y-109950000D01*
%TO.N,/SARA_RXD_1V8*%
X143000000Y-114000000D02*
X143000000Y-109990198D01*
X138850000Y-107248240D02*
X138850000Y-101400000D01*
X144000000Y-115000000D02*
X143000000Y-114000000D01*
X130300000Y-92700000D02*
X131600000Y-94000000D01*
X139151760Y-107550000D02*
X138850000Y-107248240D01*
X131600000Y-96150000D02*
X134250000Y-98800000D01*
X143000000Y-109990198D02*
X140559802Y-107550000D01*
X131600000Y-94000000D02*
X131600000Y-96150000D01*
X138850000Y-101400000D02*
X136250000Y-98800000D01*
X136250000Y-98800000D02*
X134250000Y-98800000D01*
X144000000Y-118500000D02*
X144000000Y-115000000D01*
X140559802Y-107550000D02*
X139151760Y-107550000D01*
%TO.N,/NETWORK_STS*%
X136284314Y-102300000D02*
X134250000Y-102300000D01*
X139731372Y-109550000D02*
X138323330Y-109550000D01*
X136850000Y-102865686D02*
X136284314Y-102300000D01*
X136850000Y-108076670D02*
X136850000Y-102865686D01*
X141000000Y-112970007D02*
X141000000Y-110818628D01*
X138323330Y-109550000D02*
X136850000Y-108076670D01*
X139500000Y-118500000D02*
X139500000Y-114470007D01*
X141000000Y-110818628D02*
X139731372Y-109550000D01*
X139500000Y-114470007D02*
X141000000Y-112970007D01*
%TO.N,/SARA_TXD_1V8*%
X142600000Y-113759802D02*
X142600000Y-110155884D01*
X138450000Y-101850000D02*
X138200000Y-101600000D01*
X141500000Y-114859802D02*
X142600000Y-113759802D01*
X140394116Y-107950000D02*
X138986074Y-107950000D01*
X139050000Y-100750000D02*
X136200000Y-97900000D01*
X136200000Y-97900000D02*
X134250000Y-97900000D01*
X142600000Y-110155884D02*
X140394116Y-107950000D01*
X134250000Y-97900000D02*
X133300000Y-96950000D01*
X133300000Y-96950000D02*
X133300000Y-93700000D01*
X138450000Y-107413926D02*
X138450000Y-101850000D01*
X138986074Y-107950000D02*
X138450000Y-107413926D01*
X133300000Y-93700000D02*
X132300000Y-92700000D01*
X141500000Y-118500000D02*
X141500000Y-114859802D01*
%TO.N,/SARA_SCL_1V8*%
X134500000Y-117207263D02*
X135421013Y-116286250D01*
X138375000Y-110750000D02*
X139150000Y-110750000D01*
X137825000Y-111300000D02*
X138375000Y-110750000D01*
X134500000Y-118500000D02*
X134500000Y-117207263D01*
X137800000Y-114257263D02*
X137800000Y-113000000D01*
X139150000Y-110750000D02*
X139600000Y-111200000D01*
X135771013Y-116286250D02*
X137800000Y-114257263D01*
X137900000Y-111375000D02*
X137900000Y-112900000D01*
X137800000Y-113000000D02*
X137900000Y-112900000D01*
X136665000Y-111300000D02*
X137825000Y-111300000D01*
X137825000Y-111300000D02*
X137900000Y-111375000D01*
X135421013Y-116286250D02*
X135771013Y-116286250D01*
X139600000Y-111200000D02*
X139600000Y-111350000D01*
%TO.N,/SARA_RTS_1V8*%
X140062744Y-108750000D02*
X141800000Y-110487256D01*
X138654702Y-108750000D02*
X140062744Y-108750000D01*
X137650000Y-102515686D02*
X137650000Y-107745298D01*
X140500000Y-114728430D02*
X140500000Y-118500000D01*
X136900000Y-100600000D02*
X136900000Y-101765686D01*
X137650000Y-107745298D02*
X138654702Y-108750000D01*
X141800000Y-110487256D02*
X141800000Y-113428430D01*
X138950000Y-98550000D02*
X136100000Y-95700000D01*
X136100000Y-95700000D02*
X134250000Y-95700000D01*
X136900000Y-101765686D02*
X137650000Y-102515686D01*
X141800000Y-113428430D02*
X140500000Y-114728430D01*
%TO.N,/SLEEP*%
X135750000Y-101200000D02*
X134250000Y-101200000D01*
X141400000Y-110652942D02*
X139897058Y-109150000D01*
X138489016Y-109150000D02*
X137250000Y-107910984D01*
X140000000Y-114662744D02*
X141400000Y-113262744D01*
X139897058Y-109150000D02*
X138489016Y-109150000D01*
X137250000Y-107910984D02*
X137250000Y-102700000D01*
X140000000Y-118500000D02*
X140000000Y-114662744D01*
X137250000Y-102700000D02*
X135750000Y-101200000D01*
X141400000Y-113262744D02*
X141400000Y-110652942D01*
%TO.N,/SARA_CTS_1V8*%
X140228430Y-108350000D02*
X142200000Y-110321570D01*
X138050000Y-102350000D02*
X138050000Y-107579612D01*
X142200000Y-113594116D02*
X141000000Y-114794116D01*
X138820388Y-108350000D02*
X140228430Y-108350000D01*
X141000000Y-114794116D02*
X141000000Y-118500000D01*
X142200000Y-110321570D02*
X142200000Y-113594116D01*
X138050000Y-107579612D02*
X138820388Y-108350000D01*
X137550000Y-101850000D02*
X138050000Y-102350000D01*
X139000000Y-99650000D02*
X136150000Y-96800000D01*
X136150000Y-96800000D02*
X134250000Y-96800000D01*
X137550000Y-101100000D02*
X137550000Y-101850000D01*
%TO.N,/SARA_SDA_1V8*%
X135936250Y-116850000D02*
X135422949Y-116850000D01*
X134550000Y-113055237D02*
X134550000Y-112150000D01*
X136343750Y-113156250D02*
X136665000Y-112835000D01*
X134651013Y-113156250D02*
X134550000Y-113055237D01*
X134650000Y-113157263D02*
X134651013Y-113156250D01*
X135936250Y-116700801D02*
X138200000Y-114437051D01*
X134650000Y-116266744D02*
X134650000Y-113157263D01*
X136665000Y-112835000D02*
X136665000Y-112450000D01*
X135936250Y-116850000D02*
X135936250Y-116700801D01*
X138863750Y-113409198D02*
X138863750Y-111350000D01*
X134550000Y-112150000D02*
X134650000Y-112250000D01*
X138200000Y-114072948D02*
X138863750Y-113409198D01*
X135000000Y-117272949D02*
X135000000Y-118500000D01*
X134052995Y-116863749D02*
X134650000Y-116266744D01*
X134651013Y-113156250D02*
X136343750Y-113156250D01*
X135422949Y-116850000D02*
X135000000Y-117272949D01*
X138200000Y-114437051D02*
X138200000Y-114072948D01*
%TO.N,Net-(U1-RT)*%
X132515000Y-114200000D02*
X132897500Y-113817500D01*
X134200000Y-115250000D02*
X133750000Y-115700000D01*
X132897500Y-113817500D02*
X133867500Y-113817500D01*
X134200000Y-114150000D02*
X134200000Y-115250000D01*
X133867500Y-113817500D02*
X134200000Y-114150000D01*
%TD*%
%TA.AperFunction,Conductor*%
%TO.N,VSS*%
G36*
X130957292Y-109882263D02*
G01*
X132615489Y-111540460D01*
X132684012Y-111580022D01*
X132684016Y-111580023D01*
X132684018Y-111580024D01*
X132760434Y-111600499D01*
X132760436Y-111600500D01*
X132760438Y-111600500D01*
X133960943Y-111600500D01*
X134004430Y-111618513D01*
X134022443Y-111662000D01*
X134011556Y-111696936D01*
X133925187Y-111822059D01*
X133925180Y-111822074D01*
X133864861Y-111981120D01*
X133864861Y-111981123D01*
X133864860Y-111981126D01*
X133864860Y-111981128D01*
X133844355Y-112150000D01*
X133858512Y-112266596D01*
X133858542Y-112266837D01*
X133845902Y-112312178D01*
X133804903Y-112335302D01*
X133797490Y-112335750D01*
X133733251Y-112335750D01*
X133605164Y-112373359D01*
X133605157Y-112373362D01*
X133511813Y-112433350D01*
X133465491Y-112441707D01*
X133426827Y-112414862D01*
X133422714Y-112406188D01*
X133422685Y-112406204D01*
X133360340Y-112283843D01*
X133266656Y-112190159D01*
X133148607Y-112130011D01*
X133050673Y-112114500D01*
X133050670Y-112114500D01*
X132549330Y-112114500D01*
X132549326Y-112114500D01*
X132451392Y-112130011D01*
X132333343Y-112190159D01*
X132333343Y-112190160D01*
X132239660Y-112283843D01*
X132239659Y-112283843D01*
X132179511Y-112401892D01*
X132164000Y-112499826D01*
X132164000Y-113100173D01*
X132179511Y-113198107D01*
X132239659Y-113316156D01*
X132333343Y-113409840D01*
X132385216Y-113436270D01*
X132451392Y-113469988D01*
X132549330Y-113485500D01*
X132549334Y-113485500D01*
X132656055Y-113485500D01*
X132699542Y-113503513D01*
X132717555Y-113547000D01*
X132699542Y-113590487D01*
X132598542Y-113691487D01*
X132555055Y-113709500D01*
X132319508Y-113709500D01*
X132269200Y-113716123D01*
X132158773Y-113767616D01*
X132158769Y-113767619D01*
X132072619Y-113853769D01*
X132072616Y-113853773D01*
X132021123Y-113964200D01*
X132014500Y-114014508D01*
X132014500Y-114385491D01*
X132021123Y-114435799D01*
X132021124Y-114435801D01*
X132072617Y-114546228D01*
X132158772Y-114632383D01*
X132269199Y-114683876D01*
X132319514Y-114690500D01*
X132319517Y-114690500D01*
X132711054Y-114690500D01*
X132754541Y-114708513D01*
X132772554Y-114752000D01*
X132754541Y-114795487D01*
X132418542Y-115131487D01*
X132375055Y-115149500D01*
X132060436Y-115149500D01*
X131984015Y-115169977D01*
X131984007Y-115169981D01*
X131958840Y-115184511D01*
X131958839Y-115184510D01*
X131915495Y-115209535D01*
X131915485Y-115209543D01*
X131259543Y-115865485D01*
X131259539Y-115865490D01*
X131219979Y-115934011D01*
X131219977Y-115934015D01*
X131199500Y-116010435D01*
X131199500Y-116205676D01*
X131181487Y-116249163D01*
X131171253Y-116257411D01*
X131163912Y-116262129D01*
X131163907Y-116262132D01*
X131068250Y-116372526D01*
X131068247Y-116372531D01*
X131007565Y-116505405D01*
X131005994Y-116516332D01*
X130988607Y-116551065D01*
X130739538Y-116800134D01*
X130739530Y-116800144D01*
X130696684Y-116874355D01*
X130696680Y-116874365D01*
X130688924Y-116903310D01*
X130688925Y-116903311D01*
X130674500Y-116957147D01*
X130674500Y-117188500D01*
X130656487Y-117231987D01*
X130613000Y-117250000D01*
X130387000Y-117250000D01*
X130343513Y-117231987D01*
X130325500Y-117188500D01*
X130325500Y-116426079D01*
X130325499Y-116426078D01*
X130321931Y-116408143D01*
X130296658Y-116281087D01*
X130296655Y-116281080D01*
X130296654Y-116281076D01*
X130252496Y-116174471D01*
X130240084Y-116144505D01*
X130157951Y-116021584D01*
X130053416Y-115917049D01*
X130053415Y-115917048D01*
X130053416Y-115917048D01*
X129930496Y-115834917D01*
X129930497Y-115834917D01*
X129930495Y-115834916D01*
X129907763Y-115825500D01*
X129877376Y-115812913D01*
X129844093Y-115779629D01*
X129844094Y-115732559D01*
X129877378Y-115699276D01*
X129883575Y-115697089D01*
X130010053Y-115659953D01*
X130131128Y-115582143D01*
X130225377Y-115473373D01*
X130285165Y-115342457D01*
X130305647Y-115200000D01*
X130285165Y-115057543D01*
X130225377Y-114926627D01*
X130131128Y-114817857D01*
X130131125Y-114817855D01*
X130131124Y-114817854D01*
X130010055Y-114740048D01*
X130010048Y-114740045D01*
X129921076Y-114713921D01*
X129871961Y-114699500D01*
X129728039Y-114699500D01*
X129589951Y-114740045D01*
X129589944Y-114740048D01*
X129468875Y-114817854D01*
X129468874Y-114817855D01*
X129374623Y-114926627D01*
X129367942Y-114941256D01*
X129333491Y-114973330D01*
X129286451Y-114971649D01*
X129254377Y-114937198D01*
X129250500Y-114915707D01*
X129250500Y-111685690D01*
X129268513Y-111642203D01*
X129312000Y-111624190D01*
X129352780Y-111639655D01*
X129399148Y-111680734D01*
X129549775Y-111759790D01*
X129549777Y-111759790D01*
X129549778Y-111759791D01*
X129618127Y-111776637D01*
X129714944Y-111800500D01*
X129714945Y-111800500D01*
X129885055Y-111800500D01*
X129885056Y-111800500D01*
X130050225Y-111759790D01*
X130200852Y-111680734D01*
X130328183Y-111567929D01*
X130387400Y-111482139D01*
X130424812Y-111427940D01*
X130424813Y-111427935D01*
X130424818Y-111427930D01*
X130474690Y-111296427D01*
X130485138Y-111268879D01*
X130485138Y-111268876D01*
X130485140Y-111268872D01*
X130505645Y-111100000D01*
X130485140Y-110931128D01*
X130485138Y-110931122D01*
X130485138Y-110931120D01*
X130430859Y-110788000D01*
X130424818Y-110772070D01*
X130424815Y-110772066D01*
X130424812Y-110772059D01*
X130328183Y-110632070D01*
X130328180Y-110632067D01*
X130252327Y-110564867D01*
X130231721Y-110522547D01*
X130247076Y-110478052D01*
X130249604Y-110475365D01*
X130842708Y-109882263D01*
X130886195Y-109864250D01*
X130913805Y-109864250D01*
X130957292Y-109882263D01*
G37*
%TD.AperFunction*%
%TA.AperFunction,Conductor*%
G36*
X133889737Y-114883629D02*
G01*
X133899500Y-114916879D01*
X133899500Y-115100055D01*
X133881487Y-115143542D01*
X133807292Y-115217737D01*
X133763805Y-115235750D01*
X133683251Y-115235750D01*
X133555164Y-115273359D01*
X133555157Y-115273362D01*
X133442858Y-115345532D01*
X133442853Y-115345536D01*
X133355434Y-115446422D01*
X133355431Y-115446427D01*
X133299976Y-115567856D01*
X133299975Y-115567860D01*
X133280976Y-115700000D01*
X133299975Y-115832139D01*
X133299976Y-115832143D01*
X133355431Y-115953572D01*
X133355434Y-115953577D01*
X133438837Y-116049828D01*
X133442855Y-116054465D01*
X133555160Y-116126639D01*
X133683251Y-116164250D01*
X133816749Y-116164250D01*
X133944840Y-116126639D01*
X134057145Y-116054465D01*
X134144568Y-115953574D01*
X134200025Y-115832139D01*
X134219024Y-115700000D01*
X134217867Y-115691955D01*
X134229507Y-115646348D01*
X134235248Y-115639721D01*
X134244515Y-115630454D01*
X134288003Y-115612444D01*
X134331489Y-115630459D01*
X134349500Y-115673944D01*
X134349500Y-116116799D01*
X134331487Y-116160286D01*
X134110287Y-116381486D01*
X134066800Y-116399499D01*
X133986246Y-116399499D01*
X133858159Y-116437108D01*
X133858152Y-116437111D01*
X133745853Y-116509281D01*
X133745848Y-116509285D01*
X133658429Y-116610171D01*
X133658426Y-116610176D01*
X133602971Y-116731605D01*
X133602970Y-116731609D01*
X133583971Y-116863749D01*
X133602970Y-116995888D01*
X133602971Y-116995892D01*
X133627760Y-117050172D01*
X133658427Y-117117323D01*
X133685205Y-117148226D01*
X133700069Y-117192887D01*
X133679000Y-117234979D01*
X133638726Y-117250000D01*
X131887000Y-117250000D01*
X131843513Y-117231987D01*
X131825500Y-117188500D01*
X131825500Y-117073028D01*
X131840522Y-117032754D01*
X131931752Y-116927470D01*
X131992435Y-116794592D01*
X132013224Y-116650000D01*
X131992435Y-116505408D01*
X131989965Y-116500000D01*
X131961245Y-116437111D01*
X131931752Y-116372530D01*
X131915131Y-116353348D01*
X131836092Y-116262132D01*
X131836087Y-116262129D01*
X131828747Y-116257411D01*
X131801905Y-116218745D01*
X131800500Y-116205676D01*
X131800500Y-116199945D01*
X131818513Y-116156458D01*
X132206458Y-115768513D01*
X132249945Y-115750500D01*
X132564563Y-115750500D01*
X132598257Y-115741471D01*
X132640989Y-115730021D01*
X132709511Y-115690460D01*
X132765460Y-115634511D01*
X133448957Y-114951012D01*
X133492444Y-114933000D01*
X133623039Y-114933000D01*
X133763201Y-114891845D01*
X133804752Y-114865141D01*
X133851072Y-114856784D01*
X133889737Y-114883629D01*
G37*
%TD.AperFunction*%
%TA.AperFunction,Conductor*%
G36*
X138681487Y-115033195D02*
G01*
X138699500Y-115076682D01*
X138699500Y-117188500D01*
X138681487Y-117231987D01*
X138638000Y-117250000D01*
X136862000Y-117250000D01*
X136818513Y-117231987D01*
X136800500Y-117188500D01*
X136800500Y-116852682D01*
X136818513Y-116809195D01*
X138594513Y-115033195D01*
X138638000Y-115015182D01*
X138681487Y-115033195D01*
G37*
%TD.AperFunction*%
%TA.AperFunction,Conductor*%
G36*
X142731540Y-114140205D02*
G01*
X142741313Y-114152942D01*
X142759535Y-114184504D01*
X142759538Y-114184508D01*
X142759540Y-114184511D01*
X142759543Y-114184514D01*
X143681487Y-115106458D01*
X143699500Y-115149945D01*
X143699500Y-117188500D01*
X143681487Y-117231987D01*
X143638000Y-117250000D01*
X143537000Y-117250000D01*
X143493513Y-117231987D01*
X143475500Y-117188500D01*
X143475500Y-117010610D01*
X143475500Y-117010609D01*
X143438329Y-116835733D01*
X143400381Y-116750500D01*
X143365615Y-116672414D01*
X143365613Y-116672411D01*
X143365612Y-116672408D01*
X143341728Y-116639535D01*
X143260524Y-116527767D01*
X143260522Y-116527765D01*
X143127668Y-116408143D01*
X143112696Y-116399499D01*
X142972835Y-116318750D01*
X142972834Y-116318749D01*
X142856887Y-116281076D01*
X142802803Y-116263503D01*
X142625000Y-116244815D01*
X142447197Y-116263503D01*
X142277166Y-116318749D01*
X142122331Y-116408143D01*
X141989477Y-116527765D01*
X141989475Y-116527767D01*
X141911754Y-116634741D01*
X141871620Y-116659335D01*
X141825851Y-116648346D01*
X141801257Y-116608212D01*
X141800500Y-116598592D01*
X141800500Y-115009746D01*
X141818512Y-114966260D01*
X142644567Y-114140204D01*
X142688053Y-114122192D01*
X142731540Y-114140205D01*
G37*
%TD.AperFunction*%
%TA.AperFunction,Conductor*%
G36*
X150504778Y-78251256D02*
G01*
X150567478Y-78261187D01*
X150585777Y-78267133D01*
X150637973Y-78293728D01*
X150653540Y-78305038D01*
X150694961Y-78346459D01*
X150706271Y-78362026D01*
X150732866Y-78414222D01*
X150738812Y-78432521D01*
X150748743Y-78495219D01*
X150749500Y-78504840D01*
X150749500Y-90540253D01*
X150731487Y-90583740D01*
X150688000Y-90601753D01*
X150654751Y-90591990D01*
X150563203Y-90533156D01*
X150563196Y-90533153D01*
X150472891Y-90506637D01*
X150423039Y-90492000D01*
X150276961Y-90492000D01*
X150136803Y-90533153D01*
X150136796Y-90533156D01*
X150013913Y-90612128D01*
X150013907Y-90612132D01*
X149918250Y-90722526D01*
X149918247Y-90722531D01*
X149857566Y-90855403D01*
X149857565Y-90855407D01*
X149836776Y-90999999D01*
X149836776Y-91000000D01*
X149857565Y-91144592D01*
X149857566Y-91144596D01*
X149918247Y-91277468D01*
X149918247Y-91277469D01*
X149918248Y-91277470D01*
X149984479Y-91353904D01*
X149999500Y-91394176D01*
X149999500Y-105279344D01*
X149981487Y-105322831D01*
X149330331Y-105973987D01*
X149286844Y-105992000D01*
X149226961Y-105992000D01*
X149086803Y-106033153D01*
X149086796Y-106033156D01*
X148963913Y-106112128D01*
X148963907Y-106112132D01*
X148868250Y-106222526D01*
X148868247Y-106222531D01*
X148807566Y-106355403D01*
X148807565Y-106355407D01*
X148786743Y-106500226D01*
X148769356Y-106534960D01*
X144980331Y-110323987D01*
X144936844Y-110342000D01*
X144876961Y-110342000D01*
X144736803Y-110383153D01*
X144736796Y-110383156D01*
X144613913Y-110462128D01*
X144613907Y-110462132D01*
X144518250Y-110572526D01*
X144518247Y-110572531D01*
X144457566Y-110705403D01*
X144457565Y-110705407D01*
X144436776Y-110849999D01*
X144436776Y-110850000D01*
X144457565Y-110994592D01*
X144457566Y-110994596D01*
X144518247Y-111127468D01*
X144518250Y-111127473D01*
X144577227Y-111195535D01*
X144613910Y-111237869D01*
X144621248Y-111242585D01*
X144648094Y-111281248D01*
X144649500Y-111294322D01*
X144649500Y-111829418D01*
X144631487Y-111872905D01*
X144616581Y-111883873D01*
X144549148Y-111919264D01*
X144421816Y-112032071D01*
X144325187Y-112172059D01*
X144325180Y-112172074D01*
X144264861Y-112331120D01*
X144264861Y-112331123D01*
X144264860Y-112331126D01*
X144264860Y-112331128D01*
X144244355Y-112500000D01*
X144264860Y-112668872D01*
X144264860Y-112668873D01*
X144264861Y-112668876D01*
X144264861Y-112668879D01*
X144325180Y-112827925D01*
X144325187Y-112827940D01*
X144421816Y-112967928D01*
X144549145Y-113080732D01*
X144549146Y-113080732D01*
X144549148Y-113080734D01*
X144699775Y-113159790D01*
X144699777Y-113159790D01*
X144699778Y-113159791D01*
X144746173Y-113171226D01*
X144864944Y-113200500D01*
X144864945Y-113200500D01*
X145035055Y-113200500D01*
X145035056Y-113200500D01*
X145200225Y-113159790D01*
X145350852Y-113080734D01*
X145478183Y-112967929D01*
X145552810Y-112859814D01*
X145574812Y-112827940D01*
X145574813Y-112827935D01*
X145574818Y-112827930D01*
X145633420Y-112673408D01*
X145635138Y-112668879D01*
X145635138Y-112668876D01*
X145635140Y-112668872D01*
X145655645Y-112500000D01*
X145635140Y-112331128D01*
X145635138Y-112331122D01*
X145635138Y-112331120D01*
X145594925Y-112225089D01*
X145574818Y-112172070D01*
X145574815Y-112172066D01*
X145574812Y-112172059D01*
X145478183Y-112032071D01*
X145350851Y-111919264D01*
X145283419Y-111883873D01*
X145253285Y-111847714D01*
X145250500Y-111829418D01*
X145250500Y-111550000D01*
X147480976Y-111550000D01*
X147499975Y-111682139D01*
X147499976Y-111682143D01*
X147555431Y-111803572D01*
X147555434Y-111803577D01*
X147610041Y-111866596D01*
X147642855Y-111904465D01*
X147642857Y-111904466D01*
X147642858Y-111904467D01*
X147699007Y-111940552D01*
X147755160Y-111976639D01*
X147883251Y-112014250D01*
X148016749Y-112014250D01*
X148144840Y-111976639D01*
X148254752Y-111906002D01*
X148301073Y-111897645D01*
X148339737Y-111924490D01*
X148349500Y-111957740D01*
X148349500Y-112069751D01*
X148361131Y-112128224D01*
X148361132Y-112128228D01*
X148361133Y-112128231D01*
X148405448Y-112194552D01*
X148471769Y-112238867D01*
X148530248Y-112250499D01*
X148530249Y-112250500D01*
X148530252Y-112250500D01*
X150069751Y-112250500D01*
X150069751Y-112250499D01*
X150128231Y-112238867D01*
X150194552Y-112194552D01*
X150238867Y-112128231D01*
X150250499Y-112069751D01*
X150250500Y-112069751D01*
X150250500Y-111030249D01*
X150250499Y-111030248D01*
X150243407Y-110994596D01*
X150238867Y-110971769D01*
X150194552Y-110905448D01*
X150128231Y-110861133D01*
X150128228Y-110861132D01*
X150128224Y-110861131D01*
X150069751Y-110849500D01*
X150069748Y-110849500D01*
X149867000Y-110849500D01*
X149823513Y-110831487D01*
X149805500Y-110788000D01*
X149805500Y-110649999D01*
X149805499Y-110649986D01*
X149800348Y-110604273D01*
X149785061Y-110572530D01*
X149760991Y-110522547D01*
X149760668Y-110521876D01*
X149760664Y-110521871D01*
X149689163Y-110464851D01*
X149600004Y-110444500D01*
X149600000Y-110444500D01*
X149000000Y-110444500D01*
X148999986Y-110444500D01*
X148954273Y-110449651D01*
X148871876Y-110489331D01*
X148871871Y-110489335D01*
X148814851Y-110560836D01*
X148794500Y-110649995D01*
X148794500Y-110788000D01*
X148776487Y-110831487D01*
X148733000Y-110849500D01*
X148530249Y-110849500D01*
X148471775Y-110861131D01*
X148471769Y-110861133D01*
X148405448Y-110905448D01*
X148361133Y-110971769D01*
X148361131Y-110971775D01*
X148349500Y-111030248D01*
X148349500Y-111142259D01*
X148331487Y-111185746D01*
X148288000Y-111203759D01*
X148254751Y-111193996D01*
X148144842Y-111123362D01*
X148144835Y-111123359D01*
X148053108Y-111096426D01*
X148016749Y-111085750D01*
X147883251Y-111085750D01*
X147755164Y-111123359D01*
X147755157Y-111123362D01*
X147642858Y-111195532D01*
X147642853Y-111195536D01*
X147555434Y-111296422D01*
X147555431Y-111296427D01*
X147499976Y-111417856D01*
X147499975Y-111417860D01*
X147480976Y-111550000D01*
X145250500Y-111550000D01*
X145250500Y-111294322D01*
X145268513Y-111250835D01*
X145278747Y-111242587D01*
X145286090Y-111237869D01*
X145381752Y-111127470D01*
X145442435Y-110994592D01*
X145463224Y-110850000D01*
X145463223Y-110849997D01*
X145463256Y-110849772D01*
X145480641Y-110815039D01*
X149269669Y-107026013D01*
X149313156Y-107008000D01*
X149373039Y-107008000D01*
X149513201Y-106966845D01*
X149636090Y-106887869D01*
X149731752Y-106777470D01*
X149792435Y-106644592D01*
X149813224Y-106500000D01*
X149813223Y-106499996D01*
X149813256Y-106499771D01*
X149830641Y-106465038D01*
X150630469Y-105665212D01*
X150634739Y-105657815D01*
X150672082Y-105629161D01*
X150718749Y-105635304D01*
X150747404Y-105672647D01*
X150749500Y-105688565D01*
X150749500Y-114915707D01*
X150731487Y-114959194D01*
X150688000Y-114977207D01*
X150644513Y-114959194D01*
X150632058Y-114941256D01*
X150631533Y-114940108D01*
X150625377Y-114926627D01*
X150531128Y-114817857D01*
X150531125Y-114817855D01*
X150531124Y-114817854D01*
X150410055Y-114740048D01*
X150410048Y-114740045D01*
X150321076Y-114713921D01*
X150271961Y-114699500D01*
X150128039Y-114699500D01*
X149989951Y-114740045D01*
X149989944Y-114740048D01*
X149868875Y-114817854D01*
X149868874Y-114817855D01*
X149774622Y-114926627D01*
X149774622Y-114926628D01*
X149714836Y-115057538D01*
X149714835Y-115057542D01*
X149694353Y-115199999D01*
X149694353Y-115200000D01*
X149714835Y-115342457D01*
X149714836Y-115342461D01*
X149774622Y-115473371D01*
X149774622Y-115473372D01*
X149774623Y-115473373D01*
X149868872Y-115582143D01*
X149989947Y-115659953D01*
X150116413Y-115697086D01*
X150153064Y-115726621D01*
X150158096Y-115773421D01*
X150128561Y-115810072D01*
X150122623Y-115812913D01*
X150069508Y-115834914D01*
X150069503Y-115834917D01*
X149946584Y-115917048D01*
X149842048Y-116021584D01*
X149759917Y-116144503D01*
X149759913Y-116144511D01*
X149703345Y-116281076D01*
X149703340Y-116281093D01*
X149674500Y-116426078D01*
X149674500Y-117188500D01*
X149656487Y-117231987D01*
X149613000Y-117250000D01*
X149387000Y-117250000D01*
X149343513Y-117231987D01*
X149325500Y-117188500D01*
X149325500Y-117107144D01*
X149303319Y-117024366D01*
X149303319Y-117024365D01*
X149303318Y-117024362D01*
X149260465Y-116950138D01*
X149199862Y-116889535D01*
X148949862Y-116639535D01*
X147549862Y-115239535D01*
X147549859Y-115239533D01*
X147549855Y-115239530D01*
X147475644Y-115196684D01*
X147475632Y-115196679D01*
X147392856Y-115174500D01*
X147392853Y-115174500D01*
X145518219Y-115174500D01*
X145474732Y-115156487D01*
X145471748Y-115153282D01*
X145436090Y-115112131D01*
X145436087Y-115112129D01*
X145436086Y-115112128D01*
X145313203Y-115033156D01*
X145313196Y-115033153D01*
X145222891Y-115006637D01*
X145173039Y-114992000D01*
X145026961Y-114992000D01*
X144886803Y-115033153D01*
X144886796Y-115033156D01*
X144763913Y-115112128D01*
X144763911Y-115112130D01*
X144723036Y-115159301D01*
X144692476Y-115178430D01*
X144624366Y-115196680D01*
X144624362Y-115196682D01*
X144550139Y-115239534D01*
X144550134Y-115239538D01*
X144489538Y-115300134D01*
X144489534Y-115300139D01*
X144446682Y-115374362D01*
X144446680Y-115374366D01*
X144424500Y-115457144D01*
X144424500Y-115542855D01*
X144446680Y-115625633D01*
X144446681Y-115625635D01*
X144446682Y-115625638D01*
X144489535Y-115699862D01*
X144550138Y-115760465D01*
X144624362Y-115803318D01*
X144668994Y-115815277D01*
X144692475Y-115821569D01*
X144723036Y-115840699D01*
X144763907Y-115887866D01*
X144763910Y-115887869D01*
X144886799Y-115966845D01*
X145026961Y-116008000D01*
X145173039Y-116008000D01*
X145313201Y-115966845D01*
X145436090Y-115887869D01*
X145471741Y-115846725D01*
X145513832Y-115825657D01*
X145518219Y-115825500D01*
X147189699Y-115825500D01*
X147233186Y-115843513D01*
X148246186Y-116856513D01*
X148264199Y-116900000D01*
X148246186Y-116943487D01*
X148239538Y-116950134D01*
X148239530Y-116950144D01*
X148196684Y-117024355D01*
X148196680Y-117024365D01*
X148189765Y-117050171D01*
X148189766Y-117050172D01*
X148174500Y-117107148D01*
X148174500Y-117188500D01*
X148156487Y-117231987D01*
X148113000Y-117250000D01*
X144362000Y-117250000D01*
X144318513Y-117231987D01*
X144300500Y-117188500D01*
X144300500Y-114960436D01*
X144297570Y-114949504D01*
X144297570Y-114949500D01*
X144280024Y-114884018D01*
X144280023Y-114884016D01*
X144280022Y-114884012D01*
X144240460Y-114815489D01*
X143318513Y-113893542D01*
X143300500Y-113850055D01*
X143300500Y-109950633D01*
X143280022Y-109874213D01*
X143280021Y-109874209D01*
X143240460Y-109805687D01*
X143184511Y-109749738D01*
X140744313Y-107309540D01*
X140675791Y-107269979D01*
X140675788Y-107269978D01*
X140675786Y-107269977D01*
X140599366Y-107249500D01*
X140599364Y-107249500D01*
X139301705Y-107249500D01*
X139258218Y-107231487D01*
X139168513Y-107141782D01*
X139150500Y-107098295D01*
X139150500Y-101360435D01*
X139130023Y-101284018D01*
X139130022Y-101284017D01*
X139130021Y-101284011D01*
X139130017Y-101284005D01*
X139129020Y-101281597D01*
X139129019Y-101280274D01*
X139128978Y-101280118D01*
X139129019Y-101280106D01*
X139129018Y-101234526D01*
X139162300Y-101201241D01*
X139168495Y-101199055D01*
X139244840Y-101176639D01*
X139357145Y-101104465D01*
X139444568Y-101003574D01*
X139500025Y-100882139D01*
X139519024Y-100750000D01*
X139500025Y-100617861D01*
X139483521Y-100581723D01*
X139475295Y-100563709D01*
X139444568Y-100496426D01*
X139419816Y-100467861D01*
X139357146Y-100395536D01*
X139357141Y-100395532D01*
X139244842Y-100323362D01*
X139244835Y-100323359D01*
X139124585Y-100288051D01*
X139116749Y-100285750D01*
X139116748Y-100285750D01*
X139036195Y-100285750D01*
X138992708Y-100267737D01*
X138944208Y-100219237D01*
X138926195Y-100175750D01*
X138944208Y-100132263D01*
X138987695Y-100114250D01*
X139066749Y-100114250D01*
X139194840Y-100076639D01*
X139307145Y-100004465D01*
X139394568Y-99903574D01*
X139450025Y-99782139D01*
X139469024Y-99650000D01*
X139450025Y-99517861D01*
X139394568Y-99396426D01*
X139357898Y-99354107D01*
X139307146Y-99295536D01*
X139307141Y-99295532D01*
X139194842Y-99223362D01*
X139194835Y-99223359D01*
X139112308Y-99199127D01*
X139066749Y-99185750D01*
X139066748Y-99185750D01*
X138986195Y-99185750D01*
X138942708Y-99167737D01*
X138894208Y-99119237D01*
X138876195Y-99075750D01*
X138894208Y-99032263D01*
X138928519Y-99018051D01*
X143254500Y-99018051D01*
X143254500Y-99018055D01*
X143254500Y-99018056D01*
X143254500Y-99411943D01*
X143264780Y-99482510D01*
X143317987Y-99591346D01*
X143317988Y-99591347D01*
X143403653Y-99677012D01*
X143512491Y-99730220D01*
X143583051Y-99740500D01*
X144476948Y-99740499D01*
X144547509Y-99730220D01*
X144656347Y-99677012D01*
X144742012Y-99591347D01*
X144795220Y-99482509D01*
X144805500Y-99411949D01*
X144805499Y-99018052D01*
X144795220Y-98947491D01*
X144742012Y-98838653D01*
X144656347Y-98752988D01*
X144656346Y-98752987D01*
X144547510Y-98699780D01*
X144537429Y-98698311D01*
X144476949Y-98689500D01*
X144476943Y-98689500D01*
X143583056Y-98689500D01*
X143583052Y-98689501D01*
X143536011Y-98696353D01*
X143512489Y-98699780D01*
X143403653Y-98752987D01*
X143317987Y-98838653D01*
X143264780Y-98947489D01*
X143264780Y-98947491D01*
X143254500Y-99018051D01*
X138928519Y-99018051D01*
X138937695Y-99014250D01*
X139016749Y-99014250D01*
X139144840Y-98976639D01*
X139257145Y-98904465D01*
X139344568Y-98803574D01*
X139400025Y-98682139D01*
X139419024Y-98550000D01*
X139400025Y-98417861D01*
X139395070Y-98407012D01*
X139359587Y-98329313D01*
X139344568Y-98296426D01*
X139330325Y-98279989D01*
X139257146Y-98195536D01*
X139257141Y-98195532D01*
X139144842Y-98123362D01*
X139144835Y-98123359D01*
X139062308Y-98099127D01*
X139016749Y-98085750D01*
X139016748Y-98085750D01*
X138936195Y-98085750D01*
X138892708Y-98067737D01*
X138573022Y-97748051D01*
X143254500Y-97748051D01*
X143254500Y-97748055D01*
X143254500Y-97748056D01*
X143254500Y-98141943D01*
X143264780Y-98212510D01*
X143317987Y-98321346D01*
X143317988Y-98321347D01*
X143403653Y-98407012D01*
X143512491Y-98460220D01*
X143583051Y-98470500D01*
X144476948Y-98470499D01*
X144547509Y-98460220D01*
X144656347Y-98407012D01*
X144742012Y-98321347D01*
X144762231Y-98279988D01*
X144797513Y-98248832D01*
X144817482Y-98245500D01*
X146445415Y-98245500D01*
X146488902Y-98263513D01*
X147164745Y-98939356D01*
X147182758Y-98982843D01*
X147182133Y-98991592D01*
X147180976Y-98999641D01*
X147199975Y-99131779D01*
X147199976Y-99131783D01*
X147255431Y-99253212D01*
X147255434Y-99253217D01*
X147311702Y-99318153D01*
X147342855Y-99354105D01*
X147455160Y-99426279D01*
X147583251Y-99463890D01*
X147716749Y-99463890D01*
X147844840Y-99426279D01*
X147957145Y-99354105D01*
X147985514Y-99321366D01*
X148027605Y-99300297D01*
X148031992Y-99300140D01*
X148503576Y-99300140D01*
X148547063Y-99318153D01*
X148559836Y-99336799D01*
X148597794Y-99422765D01*
X148681265Y-99506236D01*
X148678978Y-99508522D01*
X148698640Y-99538725D01*
X148688904Y-99584778D01*
X148680591Y-99593090D01*
X148681265Y-99593764D01*
X148597794Y-99677234D01*
X148597794Y-99677235D01*
X148567877Y-99744992D01*
X148560234Y-99762301D01*
X148526190Y-99794807D01*
X148503974Y-99798960D01*
X148031992Y-99798960D01*
X147988505Y-99780947D01*
X147985514Y-99777734D01*
X147957146Y-99744996D01*
X147957141Y-99744992D01*
X147844842Y-99672822D01*
X147844835Y-99672819D01*
X147739710Y-99641952D01*
X147716749Y-99635210D01*
X147583251Y-99635210D01*
X147455164Y-99672819D01*
X147455157Y-99672822D01*
X147342858Y-99744992D01*
X147342853Y-99744996D01*
X147255434Y-99845882D01*
X147255431Y-99845887D01*
X147199976Y-99967316D01*
X147199975Y-99967320D01*
X147180976Y-100099460D01*
X147180976Y-100099461D01*
X147182200Y-100107976D01*
X147170558Y-100153584D01*
X147164817Y-100160211D01*
X147158545Y-100166484D01*
X147115059Y-100184500D01*
X144817482Y-100184500D01*
X144773995Y-100166487D01*
X144762231Y-100150011D01*
X144742012Y-100108653D01*
X144656346Y-100022987D01*
X144547510Y-99969780D01*
X144537429Y-99968311D01*
X144476949Y-99959500D01*
X144476943Y-99959500D01*
X143583056Y-99959500D01*
X143583052Y-99959501D01*
X143536011Y-99966353D01*
X143512489Y-99969780D01*
X143403653Y-100022987D01*
X143317987Y-100108653D01*
X143264780Y-100217489D01*
X143261842Y-100237651D01*
X143254500Y-100288051D01*
X143254500Y-100288055D01*
X143254500Y-100288056D01*
X143254500Y-100681943D01*
X143264780Y-100752510D01*
X143317987Y-100861346D01*
X143317988Y-100861347D01*
X143403653Y-100947012D01*
X143512491Y-101000220D01*
X143583051Y-101010500D01*
X144476948Y-101010499D01*
X144547509Y-101000220D01*
X144656347Y-100947012D01*
X144742012Y-100861347D01*
X144762231Y-100819988D01*
X144797513Y-100788832D01*
X144817482Y-100785500D01*
X147259585Y-100785500D01*
X147303072Y-100803513D01*
X147321085Y-100847000D01*
X147306064Y-100887273D01*
X147296094Y-100898780D01*
X147255431Y-100945707D01*
X147199976Y-101067136D01*
X147199975Y-101067140D01*
X147180976Y-101199280D01*
X147180976Y-101199282D01*
X147182132Y-101207325D01*
X147170490Y-101252932D01*
X147164745Y-101259562D01*
X146987822Y-101436487D01*
X146944335Y-101454500D01*
X144817482Y-101454500D01*
X144773995Y-101436487D01*
X144762231Y-101420011D01*
X144742012Y-101378653D01*
X144656346Y-101292987D01*
X144547510Y-101239780D01*
X144533884Y-101237795D01*
X144476949Y-101229500D01*
X144476943Y-101229500D01*
X143583056Y-101229500D01*
X143583052Y-101229501D01*
X143536011Y-101236353D01*
X143512489Y-101239780D01*
X143403653Y-101292987D01*
X143317987Y-101378653D01*
X143264780Y-101487489D01*
X143262967Y-101499937D01*
X143254500Y-101558051D01*
X143254500Y-101558055D01*
X143254500Y-101558056D01*
X143254500Y-101951943D01*
X143264780Y-102022510D01*
X143317987Y-102131346D01*
X143317988Y-102131347D01*
X143403653Y-102217012D01*
X143512491Y-102270220D01*
X143583051Y-102280500D01*
X144476948Y-102280499D01*
X144547509Y-102270220D01*
X144656347Y-102217012D01*
X144742012Y-102131347D01*
X144762231Y-102089988D01*
X144797513Y-102058832D01*
X144817482Y-102055500D01*
X147133843Y-102055500D01*
X147141108Y-102053553D01*
X147187775Y-102059695D01*
X147216431Y-102097038D01*
X147212970Y-102138504D01*
X147199975Y-102166959D01*
X147199975Y-102166960D01*
X147180976Y-102299100D01*
X147180976Y-102299102D01*
X147182132Y-102307145D01*
X147170490Y-102352752D01*
X147164745Y-102359382D01*
X146817642Y-102706487D01*
X146774155Y-102724500D01*
X144817482Y-102724500D01*
X144773995Y-102706487D01*
X144762231Y-102690011D01*
X144742012Y-102648653D01*
X144656346Y-102562987D01*
X144547510Y-102509780D01*
X144537429Y-102508311D01*
X144476949Y-102499500D01*
X144476943Y-102499500D01*
X143583056Y-102499500D01*
X143583052Y-102499501D01*
X143536011Y-102506353D01*
X143512489Y-102509780D01*
X143403653Y-102562987D01*
X143317987Y-102648653D01*
X143264780Y-102757489D01*
X143263926Y-102763350D01*
X143254500Y-102828051D01*
X143254500Y-102828055D01*
X143254500Y-102828056D01*
X143254500Y-103221943D01*
X143264780Y-103292510D01*
X143317987Y-103401346D01*
X143317988Y-103401347D01*
X143403653Y-103487012D01*
X143512491Y-103540220D01*
X143583051Y-103550500D01*
X144476948Y-103550499D01*
X144547509Y-103540220D01*
X144656347Y-103487012D01*
X144742012Y-103401347D01*
X144762231Y-103359988D01*
X144797513Y-103328832D01*
X144817482Y-103325500D01*
X146963663Y-103325500D01*
X146997357Y-103316471D01*
X147040089Y-103305021D01*
X147108611Y-103265460D01*
X147164560Y-103209511D01*
X147592708Y-102781363D01*
X147636195Y-102763350D01*
X147716749Y-102763350D01*
X147844840Y-102725739D01*
X147957145Y-102653565D01*
X147985514Y-102620826D01*
X148027605Y-102599757D01*
X148031992Y-102599600D01*
X148503338Y-102599600D01*
X148546825Y-102617613D01*
X148559597Y-102636258D01*
X148597794Y-102722765D01*
X148677235Y-102802206D01*
X148780009Y-102847585D01*
X148805135Y-102850500D01*
X149094864Y-102850499D01*
X149119991Y-102847585D01*
X149222765Y-102802206D01*
X149302206Y-102722765D01*
X149347585Y-102619991D01*
X149350500Y-102594865D01*
X149350499Y-102005136D01*
X149347585Y-101980009D01*
X149302206Y-101877235D01*
X149222765Y-101797794D01*
X149218735Y-101793764D01*
X149221031Y-101791467D01*
X149201372Y-101761344D01*
X149211054Y-101715281D01*
X149219417Y-101706918D01*
X149218735Y-101706236D01*
X149243428Y-101681543D01*
X149302206Y-101622765D01*
X149347585Y-101519991D01*
X149350500Y-101494865D01*
X149350499Y-100905136D01*
X149347585Y-100880009D01*
X149302206Y-100777235D01*
X149222765Y-100697794D01*
X149218735Y-100693764D01*
X149221031Y-100691467D01*
X149201372Y-100661344D01*
X149211054Y-100615281D01*
X149219417Y-100606918D01*
X149218735Y-100606236D01*
X149243248Y-100581723D01*
X149302206Y-100522765D01*
X149347585Y-100419991D01*
X149350500Y-100394865D01*
X149350499Y-99805136D01*
X149347585Y-99780009D01*
X149302206Y-99677235D01*
X149222765Y-99597794D01*
X149218735Y-99593764D01*
X149221031Y-99591467D01*
X149201372Y-99561344D01*
X149211054Y-99515281D01*
X149219417Y-99506918D01*
X149218735Y-99506236D01*
X149242462Y-99482509D01*
X149302206Y-99422765D01*
X149347585Y-99319991D01*
X149350500Y-99294865D01*
X149350499Y-98705136D01*
X149347585Y-98680009D01*
X149302206Y-98577235D01*
X149222765Y-98497794D01*
X149137668Y-98460220D01*
X149119989Y-98452414D01*
X149094875Y-98449501D01*
X149094872Y-98449500D01*
X149094865Y-98449500D01*
X149094857Y-98449500D01*
X148805139Y-98449500D01*
X148780007Y-98452415D01*
X148677234Y-98497794D01*
X148597794Y-98577234D01*
X148597794Y-98577235D01*
X148560153Y-98662482D01*
X148526112Y-98694987D01*
X148503895Y-98699140D01*
X148031992Y-98699140D01*
X147988505Y-98681127D01*
X147985514Y-98677914D01*
X147957146Y-98645176D01*
X147957141Y-98645172D01*
X147844842Y-98573002D01*
X147844835Y-98572999D01*
X147739097Y-98541952D01*
X147716749Y-98535390D01*
X147716748Y-98535390D01*
X147636195Y-98535390D01*
X147592708Y-98517377D01*
X146779874Y-97704543D01*
X146779871Y-97704540D01*
X146779865Y-97704536D01*
X146779863Y-97704535D01*
X146756301Y-97690931D01*
X146756301Y-97690932D01*
X146711349Y-97664979D01*
X146711344Y-97664977D01*
X146634924Y-97644500D01*
X146634922Y-97644500D01*
X144817482Y-97644500D01*
X144773995Y-97626487D01*
X144762231Y-97610011D01*
X144746715Y-97578274D01*
X144742012Y-97568653D01*
X144656347Y-97482988D01*
X144656346Y-97482987D01*
X144547510Y-97429780D01*
X144537429Y-97428311D01*
X144476949Y-97419500D01*
X144476943Y-97419500D01*
X143583056Y-97419500D01*
X143583052Y-97419501D01*
X143536011Y-97426353D01*
X143512489Y-97429780D01*
X143403653Y-97482987D01*
X143317987Y-97568653D01*
X143264780Y-97677489D01*
X143264780Y-97677491D01*
X143254500Y-97748051D01*
X138573022Y-97748051D01*
X136284514Y-95459543D01*
X136284511Y-95459540D01*
X136215989Y-95419979D01*
X136215986Y-95419978D01*
X136215984Y-95419977D01*
X136139564Y-95399500D01*
X136139562Y-95399500D01*
X134631992Y-95399500D01*
X134588505Y-95381487D01*
X134585514Y-95378274D01*
X134557146Y-95345536D01*
X134557141Y-95345532D01*
X134444842Y-95273362D01*
X134444835Y-95273359D01*
X134362308Y-95249127D01*
X134316749Y-95235750D01*
X134183251Y-95235750D01*
X134055164Y-95273359D01*
X134055157Y-95273362D01*
X133942858Y-95345532D01*
X133942853Y-95345536D01*
X133855434Y-95446422D01*
X133855431Y-95446427D01*
X133799976Y-95567856D01*
X133799975Y-95567860D01*
X133780976Y-95700000D01*
X133799975Y-95832139D01*
X133799976Y-95832143D01*
X133855431Y-95953572D01*
X133855434Y-95953577D01*
X133933390Y-96043542D01*
X133942855Y-96054465D01*
X134055160Y-96126639D01*
X134183251Y-96164250D01*
X134316749Y-96164250D01*
X134444840Y-96126639D01*
X134557145Y-96054465D01*
X134574607Y-96034311D01*
X134585514Y-96021726D01*
X134627605Y-96000657D01*
X134631992Y-96000500D01*
X135950055Y-96000500D01*
X135993542Y-96018513D01*
X138464745Y-98489716D01*
X138482758Y-98533203D01*
X138482133Y-98541952D01*
X138480976Y-98550002D01*
X138480976Y-98554399D01*
X138479579Y-98554399D01*
X138469226Y-98594922D01*
X138428740Y-98618932D01*
X138383135Y-98607281D01*
X138376514Y-98601543D01*
X136334514Y-96559543D01*
X136334511Y-96559540D01*
X136265989Y-96519979D01*
X136265986Y-96519978D01*
X136265984Y-96519977D01*
X136189564Y-96499500D01*
X136189562Y-96499500D01*
X134631992Y-96499500D01*
X134588505Y-96481487D01*
X134585514Y-96478274D01*
X134557146Y-96445536D01*
X134557141Y-96445532D01*
X134444842Y-96373362D01*
X134444835Y-96373359D01*
X134362308Y-96349127D01*
X134316749Y-96335750D01*
X134183251Y-96335750D01*
X134055164Y-96373359D01*
X134055157Y-96373362D01*
X133942858Y-96445532D01*
X133942853Y-96445536D01*
X133855434Y-96546422D01*
X133855431Y-96546427D01*
X133799976Y-96667856D01*
X133799975Y-96667860D01*
X133780976Y-96800000D01*
X133789272Y-96857701D01*
X133777631Y-96903309D01*
X133737150Y-96927327D01*
X133691542Y-96915686D01*
X133684911Y-96909940D01*
X133618513Y-96843542D01*
X133600500Y-96800055D01*
X133600500Y-93660435D01*
X133600499Y-93660434D01*
X133580024Y-93584018D01*
X133580023Y-93584016D01*
X133580022Y-93584012D01*
X133540460Y-93515489D01*
X132988152Y-92963181D01*
X132970139Y-92919694D01*
X132974135Y-92897889D01*
X132985140Y-92868872D01*
X133005645Y-92700000D01*
X132985140Y-92531128D01*
X132985138Y-92531122D01*
X132985138Y-92531120D01*
X132944925Y-92425089D01*
X132924818Y-92372070D01*
X132924815Y-92372066D01*
X132924812Y-92372059D01*
X132828183Y-92232071D01*
X132700854Y-92119267D01*
X132550221Y-92040208D01*
X132417349Y-92007459D01*
X132385056Y-91999500D01*
X132214944Y-91999500D01*
X132187932Y-92006157D01*
X132049778Y-92040208D01*
X131899145Y-92119267D01*
X131771816Y-92232071D01*
X131675187Y-92372059D01*
X131675180Y-92372074D01*
X131614861Y-92531120D01*
X131614861Y-92531123D01*
X131614860Y-92531126D01*
X131614860Y-92531128D01*
X131594355Y-92700000D01*
X131614860Y-92868872D01*
X131614860Y-92868873D01*
X131614861Y-92868876D01*
X131614861Y-92868879D01*
X131675180Y-93027925D01*
X131675187Y-93027940D01*
X131771816Y-93167928D01*
X131899145Y-93280732D01*
X131899146Y-93280732D01*
X131899148Y-93280734D01*
X132049775Y-93359790D01*
X132049777Y-93359790D01*
X132049778Y-93359791D01*
X132095808Y-93371136D01*
X132214944Y-93400500D01*
X132214945Y-93400500D01*
X132385055Y-93400500D01*
X132385056Y-93400500D01*
X132504188Y-93371136D01*
X132550720Y-93378218D01*
X132562391Y-93387362D01*
X132981487Y-93806458D01*
X132999500Y-93849945D01*
X132999500Y-96976055D01*
X132981487Y-97019542D01*
X132938000Y-97037555D01*
X132894513Y-97019542D01*
X131918513Y-96043542D01*
X131900500Y-96000055D01*
X131900500Y-93960437D01*
X131898715Y-93953778D01*
X131895147Y-93940460D01*
X131880022Y-93884012D01*
X131840460Y-93815489D01*
X130988152Y-92963181D01*
X130970139Y-92919694D01*
X130974135Y-92897889D01*
X130985140Y-92868872D01*
X131005645Y-92700000D01*
X130985140Y-92531128D01*
X130985138Y-92531122D01*
X130985138Y-92531120D01*
X130944925Y-92425089D01*
X130924818Y-92372070D01*
X130924815Y-92372066D01*
X130924812Y-92372059D01*
X130828183Y-92232071D01*
X130700854Y-92119267D01*
X130550221Y-92040208D01*
X130417349Y-92007459D01*
X130385056Y-91999500D01*
X130214944Y-91999500D01*
X130187932Y-92006157D01*
X130049778Y-92040208D01*
X129899145Y-92119267D01*
X129771816Y-92232071D01*
X129675187Y-92372059D01*
X129675180Y-92372074D01*
X129614861Y-92531120D01*
X129614861Y-92531123D01*
X129614860Y-92531126D01*
X129614860Y-92531128D01*
X129594355Y-92700000D01*
X129614860Y-92868872D01*
X129614860Y-92868873D01*
X129614861Y-92868876D01*
X129614861Y-92868879D01*
X129675180Y-93027925D01*
X129675187Y-93027940D01*
X129771816Y-93167928D01*
X129899145Y-93280732D01*
X129899146Y-93280732D01*
X129899148Y-93280734D01*
X130049775Y-93359790D01*
X130049777Y-93359790D01*
X130049778Y-93359791D01*
X130095808Y-93371136D01*
X130214944Y-93400500D01*
X130214945Y-93400500D01*
X130385055Y-93400500D01*
X130385056Y-93400500D01*
X130504188Y-93371136D01*
X130550720Y-93378218D01*
X130562391Y-93387362D01*
X131281487Y-94106458D01*
X131299500Y-94149945D01*
X131299500Y-96189564D01*
X131319977Y-96265984D01*
X131319978Y-96265986D01*
X131319979Y-96265989D01*
X131359540Y-96334511D01*
X131359543Y-96334514D01*
X133764745Y-98739716D01*
X133782758Y-98783203D01*
X133782133Y-98791952D01*
X133780976Y-98800001D01*
X133799975Y-98932139D01*
X133799976Y-98932143D01*
X133855431Y-99053572D01*
X133855434Y-99053577D01*
X133942853Y-99154463D01*
X133942855Y-99154465D01*
X134055160Y-99226639D01*
X134183251Y-99264250D01*
X134316749Y-99264250D01*
X134444840Y-99226639D01*
X134557145Y-99154465D01*
X134585514Y-99121726D01*
X134627605Y-99100657D01*
X134631992Y-99100500D01*
X136100055Y-99100500D01*
X136143542Y-99118513D01*
X137071053Y-100046024D01*
X137089066Y-100089511D01*
X137071053Y-100132998D01*
X137027566Y-100151011D01*
X137010240Y-100148520D01*
X136996199Y-100144397D01*
X136966749Y-100135750D01*
X136833251Y-100135750D01*
X136705164Y-100173359D01*
X136705157Y-100173362D01*
X136592858Y-100245532D01*
X136592853Y-100245536D01*
X136505434Y-100346422D01*
X136505431Y-100346427D01*
X136449976Y-100467856D01*
X136449975Y-100467860D01*
X136430976Y-100600000D01*
X136449975Y-100732139D01*
X136449976Y-100732143D01*
X136505431Y-100853572D01*
X136505434Y-100853577D01*
X136584478Y-100944798D01*
X136599500Y-100985072D01*
X136599500Y-101476055D01*
X136581487Y-101519542D01*
X136538000Y-101537555D01*
X136494513Y-101519542D01*
X135934514Y-100959543D01*
X135934511Y-100959540D01*
X135934509Y-100959539D01*
X135934507Y-100959537D01*
X135929057Y-100956391D01*
X135925721Y-100954465D01*
X135910550Y-100945706D01*
X135865994Y-100919981D01*
X135865984Y-100919977D01*
X135789564Y-100899500D01*
X135789562Y-100899500D01*
X134631992Y-100899500D01*
X134588505Y-100881487D01*
X134585514Y-100878274D01*
X134557146Y-100845536D01*
X134557141Y-100845532D01*
X134444842Y-100773362D01*
X134444835Y-100773359D01*
X134362308Y-100749127D01*
X134316749Y-100735750D01*
X134183251Y-100735750D01*
X134055164Y-100773359D01*
X134055157Y-100773362D01*
X133942858Y-100845532D01*
X133942853Y-100845536D01*
X133855434Y-100946422D01*
X133855431Y-100946427D01*
X133799976Y-101067856D01*
X133799975Y-101067860D01*
X133780976Y-101200000D01*
X133799975Y-101332139D01*
X133799976Y-101332143D01*
X133855431Y-101453572D01*
X133855434Y-101453577D01*
X133911078Y-101517793D01*
X133942855Y-101554465D01*
X134055160Y-101626639D01*
X134183251Y-101664250D01*
X134316749Y-101664250D01*
X134444840Y-101626639D01*
X134557145Y-101554465D01*
X134585514Y-101521726D01*
X134627605Y-101500657D01*
X134631992Y-101500500D01*
X135600055Y-101500500D01*
X135643542Y-101518513D01*
X136019542Y-101894513D01*
X136037555Y-101938000D01*
X136019542Y-101981487D01*
X135976055Y-101999500D01*
X134631992Y-101999500D01*
X134588505Y-101981487D01*
X134585514Y-101978274D01*
X134557146Y-101945536D01*
X134557141Y-101945532D01*
X134444842Y-101873362D01*
X134444835Y-101873359D01*
X134362308Y-101849127D01*
X134316749Y-101835750D01*
X134183251Y-101835750D01*
X134055164Y-101873359D01*
X134055157Y-101873362D01*
X133942858Y-101945532D01*
X133942853Y-101945536D01*
X133855434Y-102046422D01*
X133855431Y-102046427D01*
X133799976Y-102167856D01*
X133799975Y-102167860D01*
X133780976Y-102300000D01*
X133799975Y-102432139D01*
X133799976Y-102432143D01*
X133855431Y-102553572D01*
X133855434Y-102553577D01*
X133910922Y-102617613D01*
X133942855Y-102654465D01*
X134055160Y-102726639D01*
X134183251Y-102764250D01*
X134316749Y-102764250D01*
X134444840Y-102726639D01*
X134557145Y-102654465D01*
X134585514Y-102621726D01*
X134627605Y-102600657D01*
X134631992Y-102600500D01*
X136134369Y-102600500D01*
X136177856Y-102618513D01*
X136531487Y-102972144D01*
X136549500Y-103015631D01*
X136549500Y-108116234D01*
X136569977Y-108192654D01*
X136569978Y-108192656D01*
X136569979Y-108192659D01*
X136593854Y-108234012D01*
X136609540Y-108261181D01*
X136609543Y-108261184D01*
X137892872Y-109544513D01*
X137910885Y-109588000D01*
X137892872Y-109631487D01*
X137849385Y-109649500D01*
X136440534Y-109649500D01*
X136423208Y-109647009D01*
X136370344Y-109631487D01*
X136316749Y-109615750D01*
X136183251Y-109615750D01*
X136055164Y-109653359D01*
X136055157Y-109653362D01*
X135942858Y-109725532D01*
X135942853Y-109725536D01*
X135855434Y-109826422D01*
X135855431Y-109826427D01*
X135799976Y-109947856D01*
X135799975Y-109947860D01*
X135780976Y-110080000D01*
X135799975Y-110212138D01*
X135822952Y-110262452D01*
X135824631Y-110309492D01*
X135792557Y-110343943D01*
X135767009Y-110349500D01*
X135184259Y-110349500D01*
X135140772Y-110331487D01*
X134168513Y-109359228D01*
X134150500Y-109315741D01*
X134150500Y-105110435D01*
X134130022Y-105034015D01*
X134130021Y-105034011D01*
X134090460Y-104965489D01*
X134034511Y-104909540D01*
X133384511Y-104259540D01*
X133315989Y-104219979D01*
X133315986Y-104219978D01*
X133315984Y-104219977D01*
X133239564Y-104199500D01*
X133239562Y-104199500D01*
X131481992Y-104199500D01*
X131438505Y-104181487D01*
X131435514Y-104178274D01*
X131407146Y-104145536D01*
X131407141Y-104145532D01*
X131294842Y-104073362D01*
X131294835Y-104073359D01*
X131212308Y-104049127D01*
X131166749Y-104035750D01*
X131033251Y-104035750D01*
X130905164Y-104073359D01*
X130905157Y-104073362D01*
X130792858Y-104145532D01*
X130792853Y-104145536D01*
X130705434Y-104246422D01*
X130705431Y-104246427D01*
X130649976Y-104367856D01*
X130649975Y-104367860D01*
X130630976Y-104500000D01*
X130649975Y-104632139D01*
X130649976Y-104632143D01*
X130705431Y-104753572D01*
X130705434Y-104753577D01*
X130761702Y-104818513D01*
X130792855Y-104854465D01*
X130905160Y-104926639D01*
X131033251Y-104964250D01*
X131166749Y-104964250D01*
X131294840Y-104926639D01*
X131407145Y-104854465D01*
X131435514Y-104821726D01*
X131477605Y-104800657D01*
X131481992Y-104800500D01*
X133050055Y-104800500D01*
X133093542Y-104818513D01*
X133531487Y-105256458D01*
X133549500Y-105299945D01*
X133549500Y-109505250D01*
X133569978Y-109581674D01*
X133574531Y-109589559D01*
X133574531Y-109589562D01*
X133574533Y-109589562D01*
X133609540Y-109650197D01*
X133609543Y-109650200D01*
X134852653Y-110893310D01*
X134851313Y-110894649D01*
X134871707Y-110929969D01*
X134859528Y-110975436D01*
X134818765Y-110998973D01*
X134810734Y-110999500D01*
X132949945Y-110999500D01*
X132906458Y-110981487D01*
X131385254Y-109460283D01*
X131367241Y-109416796D01*
X131367867Y-109408045D01*
X131369024Y-109400000D01*
X131350025Y-109267861D01*
X131294568Y-109146426D01*
X131207145Y-109045535D01*
X131207143Y-109045534D01*
X131207141Y-109045532D01*
X131094842Y-108973362D01*
X131094835Y-108973359D01*
X131012308Y-108949127D01*
X130966749Y-108935750D01*
X130833251Y-108935750D01*
X130705164Y-108973359D01*
X130705157Y-108973362D01*
X130592858Y-109045532D01*
X130592853Y-109045536D01*
X130505434Y-109146422D01*
X130505431Y-109146427D01*
X130449976Y-109267856D01*
X130449975Y-109267860D01*
X130430976Y-109400000D01*
X130430976Y-109400002D01*
X130432132Y-109408045D01*
X130420490Y-109453652D01*
X130414745Y-109460282D01*
X129615489Y-110259540D01*
X129559543Y-110315485D01*
X129559539Y-110315490D01*
X129519979Y-110384011D01*
X129519977Y-110384015D01*
X129504551Y-110441585D01*
X129475896Y-110478928D01*
X129473728Y-110480122D01*
X129399148Y-110519264D01*
X129352782Y-110560342D01*
X129308287Y-110575697D01*
X129265967Y-110555091D01*
X129250500Y-110514309D01*
X129250500Y-103065677D01*
X130279500Y-103065677D01*
X130279500Y-103414322D01*
X130285931Y-103463171D01*
X130335934Y-103570403D01*
X130335935Y-103570404D01*
X130419596Y-103654065D01*
X130526827Y-103704068D01*
X130575684Y-103710500D01*
X130575687Y-103710500D01*
X131184313Y-103710500D01*
X131184316Y-103710500D01*
X131233173Y-103704068D01*
X131340404Y-103654065D01*
X131424065Y-103570404D01*
X131474068Y-103463173D01*
X131480500Y-103414316D01*
X131480500Y-103065684D01*
X131474068Y-103016827D01*
X131424065Y-102909596D01*
X131340404Y-102825935D01*
X131340403Y-102825934D01*
X131233171Y-102775931D01*
X131184322Y-102769500D01*
X131184316Y-102769500D01*
X130575684Y-102769500D01*
X130575677Y-102769500D01*
X130526828Y-102775931D01*
X130419596Y-102825934D01*
X130335934Y-102909596D01*
X130285931Y-103016828D01*
X130279500Y-103065677D01*
X129250500Y-103065677D01*
X129250500Y-97980677D01*
X130279500Y-97980677D01*
X130279500Y-98329322D01*
X130285931Y-98378171D01*
X130335934Y-98485403D01*
X130335935Y-98485404D01*
X130419596Y-98569065D01*
X130526827Y-98619068D01*
X130575684Y-98625500D01*
X130575687Y-98625500D01*
X131184313Y-98625500D01*
X131184316Y-98625500D01*
X131233173Y-98619068D01*
X131340404Y-98569065D01*
X131424065Y-98485404D01*
X131474068Y-98378173D01*
X131480500Y-98329316D01*
X131480500Y-97980684D01*
X131474068Y-97931827D01*
X131424065Y-97824596D01*
X131340404Y-97740935D01*
X131340403Y-97740934D01*
X131233171Y-97690931D01*
X131184322Y-97684500D01*
X131184316Y-97684500D01*
X130575684Y-97684500D01*
X130575677Y-97684500D01*
X130526828Y-97690931D01*
X130419596Y-97740934D01*
X130335934Y-97824596D01*
X130285931Y-97931828D01*
X130279500Y-97980677D01*
X129250500Y-97980677D01*
X129250500Y-79099999D01*
X129594353Y-79099999D01*
X129594353Y-79100000D01*
X129614835Y-79242457D01*
X129614836Y-79242461D01*
X129674622Y-79373371D01*
X129674622Y-79373372D01*
X129674623Y-79373373D01*
X129768872Y-79482143D01*
X129889947Y-79559953D01*
X130028039Y-79600500D01*
X130171961Y-79600500D01*
X130310053Y-79559953D01*
X130431128Y-79482143D01*
X130525377Y-79373373D01*
X130585165Y-79242457D01*
X130605647Y-79100000D01*
X130585165Y-78957543D01*
X130525377Y-78826627D01*
X130431128Y-78717857D01*
X130431125Y-78717855D01*
X130431124Y-78717854D01*
X130310055Y-78640048D01*
X130310048Y-78640045D01*
X130221076Y-78613921D01*
X130171961Y-78599500D01*
X130028039Y-78599500D01*
X129889951Y-78640045D01*
X129889944Y-78640048D01*
X129768875Y-78717854D01*
X129768874Y-78717855D01*
X129674622Y-78826627D01*
X129674622Y-78826628D01*
X129614836Y-78957538D01*
X129614835Y-78957542D01*
X129594353Y-79099999D01*
X129250500Y-79099999D01*
X129250500Y-78504840D01*
X129251257Y-78495220D01*
X129261187Y-78432522D01*
X129267133Y-78414222D01*
X129293728Y-78362026D01*
X129305035Y-78346462D01*
X129346462Y-78305035D01*
X129362024Y-78293728D01*
X129388124Y-78280430D01*
X129414222Y-78267133D01*
X129432521Y-78261187D01*
X129495220Y-78251256D01*
X129504840Y-78250500D01*
X129544170Y-78250500D01*
X150455830Y-78250500D01*
X150495160Y-78250500D01*
X150504778Y-78251256D01*
G37*
%TD.AperFunction*%
%TA.AperFunction,Conductor*%
G36*
X137181669Y-112808915D02*
G01*
X137199682Y-112852402D01*
X137199234Y-112859814D01*
X137196494Y-112882380D01*
X137194355Y-112900000D01*
X137214860Y-113068872D01*
X137214860Y-113068873D01*
X137214861Y-113068876D01*
X137214861Y-113068879D01*
X137275180Y-113227925D01*
X137275187Y-113227940D01*
X137371814Y-113367926D01*
X137371816Y-113367928D01*
X137371817Y-113367929D01*
X137478783Y-113462692D01*
X137499388Y-113505010D01*
X137499500Y-113508724D01*
X137499500Y-114107318D01*
X137481487Y-114150805D01*
X135664555Y-115967737D01*
X135621068Y-115985750D01*
X135381449Y-115985750D01*
X135305028Y-116006227D01*
X135305023Y-116006229D01*
X135270288Y-116026284D01*
X135270287Y-116026283D01*
X135236508Y-116045785D01*
X135236498Y-116045793D01*
X135055487Y-116226804D01*
X135012000Y-116244817D01*
X134968513Y-116226804D01*
X134950500Y-116183317D01*
X134950500Y-113518250D01*
X134968513Y-113474763D01*
X135012000Y-113456750D01*
X136383313Y-113456750D01*
X136417007Y-113447721D01*
X136459739Y-113436271D01*
X136528261Y-113396710D01*
X136584210Y-113340761D01*
X136905460Y-113019511D01*
X136906561Y-113017603D01*
X136933042Y-112971739D01*
X136945019Y-112950992D01*
X136945021Y-112950989D01*
X136947725Y-112940896D01*
X136976378Y-112903554D01*
X136981139Y-112901076D01*
X137021228Y-112882383D01*
X137094696Y-112808914D01*
X137138182Y-112790902D01*
X137181669Y-112808915D01*
G37*
%TD.AperFunction*%
%TD*%
M02*
