%TF.GenerationSoftware,KiCad,Pcbnew,9.0.2*%
%TF.CreationDate,2025-05-19T10:19:53-04:00*%
%TF.ProjectId,backPanel,6261636b-5061-46e6-956c-2e6b69636164,rev?*%
%TF.SameCoordinates,Original*%
%TF.FileFunction,Copper,L1,Top*%
%TF.FilePolarity,Positive*%
%FSLAX46Y46*%
G04 Gerber Fmt 4.6, Leading zero omitted, Abs format (unit mm)*
G04 Created by KiCad (PCBNEW 9.0.2) date 2025-05-19 10:19:53*
%MOMM*%
%LPD*%
G01*
G04 APERTURE LIST*
%TA.AperFunction,ComponentPad*%
%ADD10C,6.000000*%
%TD*%
%TA.AperFunction,ComponentPad*%
%ADD11C,8.000000*%
%TD*%
%TA.AperFunction,SMDPad,CuDef*%
%ADD12C,16.000000*%
%TD*%
%TA.AperFunction,SMDPad,CuDef*%
%ADD13C,9.250000*%
%TD*%
G04 APERTURE END LIST*
D10*
%TO.P,J8,1*%
%TO.N,GND*%
X94000000Y-129875000D03*
%TD*%
%TO.P,J5,1*%
%TO.N,GND*%
X94000000Y-84735000D03*
%TD*%
%TO.P,J7,1*%
%TO.N,GND*%
X190020000Y-129875000D03*
%TD*%
D11*
%TO.P,J4,1*%
%TO.N,GND*%
X179200000Y-98995000D03*
%TD*%
D12*
%TO.P,J1,1*%
%TO.N,N/C*%
X109750000Y-98390000D03*
%TD*%
D10*
%TO.P,J6,1*%
%TO.N,GND*%
X190020000Y-84735000D03*
%TD*%
D13*
%TO.P,J2,1*%
%TO.N,N/C*%
X151000000Y-96270000D03*
%TD*%
%TO.P,J3,1*%
%TO.N,N/C*%
X131500000Y-96270000D03*
%TD*%
%TA.AperFunction,Conductor*%
%TO.N,GND*%
G36*
X190023032Y-80500648D02*
G01*
X190355949Y-80517004D01*
X190368058Y-80518197D01*
X190694741Y-80566656D01*
X190706675Y-80569030D01*
X191027036Y-80649276D01*
X191038675Y-80652806D01*
X191349649Y-80764073D01*
X191360870Y-80768721D01*
X191659440Y-80909935D01*
X191670168Y-80915670D01*
X191953432Y-81085452D01*
X191963550Y-81092212D01*
X192228826Y-81288954D01*
X192238232Y-81296674D01*
X192482943Y-81518467D01*
X192491532Y-81527056D01*
X192534948Y-81574958D01*
X192713325Y-81771767D01*
X192721045Y-81781173D01*
X192917787Y-82046449D01*
X192924547Y-82056567D01*
X193094329Y-82339831D01*
X193100066Y-82350563D01*
X193241273Y-82649118D01*
X193245930Y-82660361D01*
X193357191Y-82971318D01*
X193360723Y-82982963D01*
X193440969Y-83303324D01*
X193443343Y-83315258D01*
X193491802Y-83641941D01*
X193492995Y-83654051D01*
X193509351Y-83986966D01*
X193509500Y-83993051D01*
X193509500Y-130616948D01*
X193509351Y-130623033D01*
X193492995Y-130955948D01*
X193491802Y-130968058D01*
X193443343Y-131294741D01*
X193440969Y-131306675D01*
X193360723Y-131627036D01*
X193357191Y-131638681D01*
X193245930Y-131949638D01*
X193241273Y-131960881D01*
X193100066Y-132259436D01*
X193094329Y-132270168D01*
X192924547Y-132553432D01*
X192917787Y-132563550D01*
X192721045Y-132828826D01*
X192713325Y-132838232D01*
X192491540Y-133082935D01*
X192482935Y-133091540D01*
X192238232Y-133313325D01*
X192228826Y-133321045D01*
X191963550Y-133517787D01*
X191953432Y-133524547D01*
X191670168Y-133694329D01*
X191659436Y-133700066D01*
X191360881Y-133841273D01*
X191349638Y-133845930D01*
X191038681Y-133957191D01*
X191027036Y-133960723D01*
X190706675Y-134040969D01*
X190694741Y-134043343D01*
X190368058Y-134091802D01*
X190355948Y-134092995D01*
X190042329Y-134108403D01*
X190023031Y-134109351D01*
X190016949Y-134109500D01*
X94003051Y-134109500D01*
X93996968Y-134109351D01*
X93976545Y-134108347D01*
X93664051Y-134092995D01*
X93651941Y-134091802D01*
X93325258Y-134043343D01*
X93313324Y-134040969D01*
X92992963Y-133960723D01*
X92981318Y-133957191D01*
X92670361Y-133845930D01*
X92659118Y-133841273D01*
X92360563Y-133700066D01*
X92349831Y-133694329D01*
X92066567Y-133524547D01*
X92056449Y-133517787D01*
X91791173Y-133321045D01*
X91781767Y-133313325D01*
X91742609Y-133277834D01*
X91537056Y-133091532D01*
X91528467Y-133082943D01*
X91306674Y-132838232D01*
X91298954Y-132828826D01*
X91102212Y-132563550D01*
X91095452Y-132553432D01*
X90925670Y-132270168D01*
X90919933Y-132259436D01*
X90783799Y-131971606D01*
X90778721Y-131960870D01*
X90774073Y-131949649D01*
X90662806Y-131638675D01*
X90659276Y-131627036D01*
X90579030Y-131306675D01*
X90576656Y-131294741D01*
X90528197Y-130968058D01*
X90527004Y-130955947D01*
X90510649Y-130623032D01*
X90510500Y-130616948D01*
X90510500Y-98119907D01*
X101499500Y-98119907D01*
X101499500Y-98660093D01*
X101514706Y-98892091D01*
X101534830Y-99199129D01*
X101605337Y-99734687D01*
X101605339Y-99734698D01*
X101710717Y-100264472D01*
X101710721Y-100264490D01*
X101850534Y-100786278D01*
X101850536Y-100786286D01*
X102024170Y-101297793D01*
X102024174Y-101297804D01*
X102230892Y-101796866D01*
X102469810Y-102281342D01*
X102739898Y-102749149D01*
X102739914Y-102749174D01*
X103040016Y-103198308D01*
X103368855Y-103626859D01*
X103368860Y-103626864D01*
X103368861Y-103626866D01*
X103725030Y-104033000D01*
X104107000Y-104414970D01*
X104513134Y-104771139D01*
X104513140Y-104771144D01*
X104941691Y-105099983D01*
X105390825Y-105400085D01*
X105390850Y-105400101D01*
X105858657Y-105670189D01*
X106343133Y-105909107D01*
X106578396Y-106006556D01*
X106842204Y-106115829D01*
X107165712Y-106225645D01*
X107353713Y-106289463D01*
X107353717Y-106289464D01*
X107353723Y-106289466D01*
X107875504Y-106429277D01*
X107875508Y-106429277D01*
X107875509Y-106429278D01*
X107875527Y-106429282D01*
X108392078Y-106532029D01*
X108405311Y-106534662D01*
X108940876Y-106605170D01*
X109479907Y-106640500D01*
X109479918Y-106640500D01*
X110020082Y-106640500D01*
X110020093Y-106640500D01*
X110559124Y-106605170D01*
X111094689Y-106534662D01*
X111349668Y-106483943D01*
X111624472Y-106429282D01*
X111624481Y-106429279D01*
X111624496Y-106429277D01*
X112146277Y-106289466D01*
X112657796Y-106115829D01*
X113156864Y-105909108D01*
X113641342Y-105670189D01*
X114109158Y-105400096D01*
X114558307Y-105099984D01*
X114986866Y-104771139D01*
X115393000Y-104414970D01*
X115774970Y-104033000D01*
X116131139Y-103626866D01*
X116459984Y-103198307D01*
X116760096Y-102749158D01*
X117030189Y-102281342D01*
X117269108Y-101796864D01*
X117475829Y-101297796D01*
X117649466Y-100786277D01*
X117789277Y-100264496D01*
X117894662Y-99734689D01*
X117965170Y-99199124D01*
X118000500Y-98660093D01*
X118000500Y-98119907D01*
X117965170Y-97580876D01*
X117894662Y-97045311D01*
X117789277Y-96515504D01*
X117761606Y-96412234D01*
X117674331Y-96086518D01*
X117666455Y-96057126D01*
X126624500Y-96057126D01*
X126624500Y-96482873D01*
X126661605Y-96906989D01*
X126735533Y-97326251D01*
X126735536Y-97326264D01*
X126845719Y-97737477D01*
X126845722Y-97737487D01*
X126845723Y-97737488D01*
X126991334Y-98137551D01*
X126991337Y-98137558D01*
X126991338Y-98137560D01*
X126991341Y-98137568D01*
X127171254Y-98523390D01*
X127171262Y-98523406D01*
X127384122Y-98892091D01*
X127384131Y-98892106D01*
X127628325Y-99240850D01*
X127837057Y-99489606D01*
X127901980Y-99566978D01*
X128203022Y-99868020D01*
X128319078Y-99965403D01*
X128529149Y-100141674D01*
X128529155Y-100141678D01*
X128529156Y-100141679D01*
X128877900Y-100385873D01*
X129246600Y-100598741D01*
X129246609Y-100598745D01*
X129632431Y-100778658D01*
X129632435Y-100778659D01*
X129632449Y-100778666D01*
X130032512Y-100924277D01*
X130032518Y-100924278D01*
X130032522Y-100924280D01*
X130144507Y-100954286D01*
X130443743Y-101034466D01*
X130863013Y-101108395D01*
X131287129Y-101145499D01*
X131287130Y-101145500D01*
X131287131Y-101145500D01*
X131712870Y-101145500D01*
X131712870Y-101145499D01*
X132136987Y-101108395D01*
X132556257Y-101034466D01*
X132967488Y-100924277D01*
X133367551Y-100778666D01*
X133753400Y-100598741D01*
X134122100Y-100385873D01*
X134470844Y-100141679D01*
X134796978Y-99868020D01*
X135098020Y-99566978D01*
X135371679Y-99240844D01*
X135615873Y-98892100D01*
X135828741Y-98523400D01*
X136008666Y-98137551D01*
X136154277Y-97737488D01*
X136264466Y-97326257D01*
X136338395Y-96906987D01*
X136375500Y-96482869D01*
X136375500Y-96057131D01*
X136375500Y-96057126D01*
X146124500Y-96057126D01*
X146124500Y-96482873D01*
X146161605Y-96906989D01*
X146235533Y-97326251D01*
X146235536Y-97326264D01*
X146345719Y-97737477D01*
X146345722Y-97737487D01*
X146345723Y-97737488D01*
X146491334Y-98137551D01*
X146491337Y-98137558D01*
X146491338Y-98137560D01*
X146491341Y-98137568D01*
X146671254Y-98523390D01*
X146671262Y-98523406D01*
X146884122Y-98892091D01*
X146884131Y-98892106D01*
X147128325Y-99240850D01*
X147337057Y-99489606D01*
X147401980Y-99566978D01*
X147703022Y-99868020D01*
X147819078Y-99965403D01*
X148029149Y-100141674D01*
X148029155Y-100141678D01*
X148029156Y-100141679D01*
X148377900Y-100385873D01*
X148746600Y-100598741D01*
X148746609Y-100598745D01*
X149132431Y-100778658D01*
X149132435Y-100778659D01*
X149132449Y-100778666D01*
X149532512Y-100924277D01*
X149532518Y-100924278D01*
X149532522Y-100924280D01*
X149644507Y-100954286D01*
X149943743Y-101034466D01*
X150363013Y-101108395D01*
X150787129Y-101145499D01*
X150787130Y-101145500D01*
X150787131Y-101145500D01*
X151212870Y-101145500D01*
X151212870Y-101145499D01*
X151636987Y-101108395D01*
X152056257Y-101034466D01*
X152467488Y-100924277D01*
X152867551Y-100778666D01*
X153253400Y-100598741D01*
X153622100Y-100385873D01*
X153970844Y-100141679D01*
X154296978Y-99868020D01*
X154598020Y-99566978D01*
X154871679Y-99240844D01*
X155115873Y-98892100D01*
X155328741Y-98523400D01*
X155508666Y-98137551D01*
X155654277Y-97737488D01*
X155764466Y-97326257D01*
X155838395Y-96906987D01*
X155875500Y-96482869D01*
X155875500Y-96057131D01*
X155838395Y-95633013D01*
X155764466Y-95213743D01*
X155654277Y-94802512D01*
X155508666Y-94402449D01*
X155328741Y-94016600D01*
X155115873Y-93647900D01*
X154871679Y-93299156D01*
X154871678Y-93299155D01*
X154871674Y-93299149D01*
X154598017Y-92973019D01*
X154296980Y-92671982D01*
X153970850Y-92398325D01*
X153622106Y-92154131D01*
X153622103Y-92154129D01*
X153622100Y-92154127D01*
X153370491Y-92008861D01*
X153253406Y-91941262D01*
X153253390Y-91941254D01*
X152867568Y-91761341D01*
X152867560Y-91761338D01*
X152867558Y-91761337D01*
X152867551Y-91761334D01*
X152467488Y-91615723D01*
X152467487Y-91615722D01*
X152467477Y-91615719D01*
X152056264Y-91505536D01*
X152056267Y-91505536D01*
X152056257Y-91505534D01*
X151997064Y-91495096D01*
X151636989Y-91431605D01*
X151212873Y-91394500D01*
X151212869Y-91394500D01*
X150787131Y-91394500D01*
X150787126Y-91394500D01*
X150363010Y-91431605D01*
X149943748Y-91505533D01*
X149943745Y-91505533D01*
X149943743Y-91505534D01*
X149943738Y-91505535D01*
X149943735Y-91505536D01*
X149532522Y-91615719D01*
X149355868Y-91680016D01*
X149132449Y-91761334D01*
X149132445Y-91761335D01*
X149132439Y-91761338D01*
X149132431Y-91761341D01*
X148746609Y-91941254D01*
X148746593Y-91941262D01*
X148377908Y-92154122D01*
X148377893Y-92154131D01*
X148029149Y-92398325D01*
X147703019Y-92671982D01*
X147401982Y-92973019D01*
X147128325Y-93299149D01*
X146884131Y-93647893D01*
X146884122Y-93647908D01*
X146671262Y-94016593D01*
X146671254Y-94016609D01*
X146491341Y-94402431D01*
X146491338Y-94402439D01*
X146345719Y-94802522D01*
X146235536Y-95213735D01*
X146235533Y-95213748D01*
X146161605Y-95633010D01*
X146124500Y-96057126D01*
X136375500Y-96057126D01*
X136338395Y-95633013D01*
X136264466Y-95213743D01*
X136154277Y-94802512D01*
X136008666Y-94402449D01*
X135828741Y-94016600D01*
X135615873Y-93647900D01*
X135371679Y-93299156D01*
X135371678Y-93299155D01*
X135371674Y-93299149D01*
X135098017Y-92973019D01*
X134796980Y-92671982D01*
X134470850Y-92398325D01*
X134122106Y-92154131D01*
X134122103Y-92154129D01*
X134122100Y-92154127D01*
X133870491Y-92008861D01*
X133753406Y-91941262D01*
X133753390Y-91941254D01*
X133367568Y-91761341D01*
X133367560Y-91761338D01*
X133367558Y-91761337D01*
X133367551Y-91761334D01*
X132967488Y-91615723D01*
X132967487Y-91615722D01*
X132967477Y-91615719D01*
X132556264Y-91505536D01*
X132556267Y-91505536D01*
X132556257Y-91505534D01*
X132497064Y-91495096D01*
X132136989Y-91431605D01*
X131712873Y-91394500D01*
X131712869Y-91394500D01*
X131287131Y-91394500D01*
X131287126Y-91394500D01*
X130863010Y-91431605D01*
X130443748Y-91505533D01*
X130443745Y-91505533D01*
X130443743Y-91505534D01*
X130443738Y-91505535D01*
X130443735Y-91505536D01*
X130032522Y-91615719D01*
X129855868Y-91680016D01*
X129632449Y-91761334D01*
X129632445Y-91761335D01*
X129632439Y-91761338D01*
X129632431Y-91761341D01*
X129246609Y-91941254D01*
X129246593Y-91941262D01*
X128877908Y-92154122D01*
X128877893Y-92154131D01*
X128529149Y-92398325D01*
X128203019Y-92671982D01*
X127901982Y-92973019D01*
X127628325Y-93299149D01*
X127384131Y-93647893D01*
X127384122Y-93647908D01*
X127171262Y-94016593D01*
X127171254Y-94016609D01*
X126991341Y-94402431D01*
X126991338Y-94402439D01*
X126845719Y-94802522D01*
X126735536Y-95213735D01*
X126735533Y-95213748D01*
X126661605Y-95633010D01*
X126624500Y-96057126D01*
X117666455Y-96057126D01*
X117649465Y-95993721D01*
X117649463Y-95993713D01*
X117585645Y-95805712D01*
X117475829Y-95482204D01*
X117269108Y-94983136D01*
X117030189Y-94498658D01*
X117030189Y-94498657D01*
X116760101Y-94030850D01*
X116760085Y-94030825D01*
X116459983Y-93581691D01*
X116131144Y-93153140D01*
X115973185Y-92973022D01*
X115774970Y-92747000D01*
X115393000Y-92365030D01*
X114986866Y-92008861D01*
X114986864Y-92008860D01*
X114986859Y-92008855D01*
X114558308Y-91680016D01*
X114109174Y-91379914D01*
X114109149Y-91379898D01*
X113641342Y-91109810D01*
X113156866Y-90870892D01*
X112657804Y-90664174D01*
X112657793Y-90664170D01*
X112146286Y-90490536D01*
X112146278Y-90490534D01*
X111624490Y-90350721D01*
X111624472Y-90350717D01*
X111094698Y-90245339D01*
X111094687Y-90245337D01*
X110559129Y-90174830D01*
X110390676Y-90163789D01*
X110020093Y-90139500D01*
X109479907Y-90139500D01*
X109131122Y-90162360D01*
X108940870Y-90174830D01*
X108405312Y-90245337D01*
X108405301Y-90245339D01*
X107875527Y-90350717D01*
X107875509Y-90350721D01*
X107353721Y-90490534D01*
X107353713Y-90490536D01*
X106842206Y-90664170D01*
X106842195Y-90664174D01*
X106343133Y-90870892D01*
X105858657Y-91109810D01*
X105390850Y-91379898D01*
X105390825Y-91379914D01*
X104941691Y-91680016D01*
X104513140Y-92008855D01*
X104106995Y-92365034D01*
X103725034Y-92746995D01*
X103368855Y-93153140D01*
X103040016Y-93581691D01*
X102739914Y-94030825D01*
X102739898Y-94030850D01*
X102469810Y-94498657D01*
X102230892Y-94983133D01*
X102024174Y-95482195D01*
X102024170Y-95482206D01*
X101850536Y-95993713D01*
X101850534Y-95993721D01*
X101710721Y-96515509D01*
X101710717Y-96515527D01*
X101605339Y-97045301D01*
X101605337Y-97045312D01*
X101534830Y-97580870D01*
X101534830Y-97580876D01*
X101499500Y-98119907D01*
X90510500Y-98119907D01*
X90510500Y-83993051D01*
X90510649Y-83986967D01*
X90527004Y-83654052D01*
X90528197Y-83641941D01*
X90576656Y-83315258D01*
X90579030Y-83303324D01*
X90659276Y-82982963D01*
X90662804Y-82971329D01*
X90774076Y-82660343D01*
X90778718Y-82649136D01*
X90919939Y-82350551D01*
X90925663Y-82339842D01*
X91095460Y-82056554D01*
X91102203Y-82046461D01*
X91298962Y-81781162D01*
X91306665Y-81771777D01*
X91528476Y-81527046D01*
X91537046Y-81518476D01*
X91781777Y-81296665D01*
X91791162Y-81288962D01*
X92056461Y-81092203D01*
X92066554Y-81085460D01*
X92349842Y-80915663D01*
X92360551Y-80909939D01*
X92659136Y-80768718D01*
X92670343Y-80764076D01*
X92981329Y-80652804D01*
X92992956Y-80649278D01*
X93313324Y-80569030D01*
X93325255Y-80566656D01*
X93651944Y-80518196D01*
X93664048Y-80517004D01*
X93996967Y-80500648D01*
X94003051Y-80500500D01*
X94065892Y-80500500D01*
X189954108Y-80500500D01*
X190016949Y-80500500D01*
X190023032Y-80500648D01*
G37*
%TD.AperFunction*%
%TD*%
M02*
