%TF.GenerationSoftware,KiCad,Pcbnew,9.0.2*%
%TF.CreationDate,2025-05-19T10:19:53-04:00*%
%TF.ProjectId,backPanel,6261636b-5061-46e6-956c-2e6b69636164,rev?*%
%TF.SameCoordinates,Original*%
%TF.FileFunction,Legend,Top*%
%TF.FilePolarity,Positive*%
%FSLAX46Y46*%
G04 Gerber Fmt 4.6, Leading zero omitted, Abs format (unit mm)*
G04 Created by KiCad (PCBNEW 9.0.2) date 2025-05-19 10:19:53*
%MOMM*%
%LPD*%
G01*
G04 APERTURE LIST*
%ADD10C,0.250000*%
%ADD11C,0.300000*%
G04 APERTURE END LIST*
D10*
X179000000Y-106800000D02*
X179400000Y-106800000D01*
X178600000Y-106400000D02*
X179800000Y-106400000D01*
X179200000Y-104500000D02*
X179200000Y-106000000D01*
X178200000Y-106000000D02*
X180200000Y-106000000D01*
D11*
G36*
X150292276Y-89122500D02*
G01*
X149962273Y-89122500D01*
X149831115Y-88782513D01*
X149230735Y-88782513D01*
X149106721Y-89122500D01*
X148784962Y-89122500D01*
X149014897Y-88530455D01*
X149323975Y-88530455D01*
X149733845Y-88530455D01*
X149526849Y-87967719D01*
X149323975Y-88530455D01*
X149014897Y-88530455D01*
X149370045Y-87616010D01*
X149690797Y-87616010D01*
X150292276Y-89122500D01*
G37*
G36*
X150450911Y-87616010D02*
G01*
X150754169Y-87616010D01*
X150754169Y-88439322D01*
X150757853Y-88618371D01*
X150765435Y-88693395D01*
X150784650Y-88752054D01*
X150815323Y-88801500D01*
X150858125Y-88843238D01*
X150909884Y-88873342D01*
X150975473Y-88892706D01*
X151058527Y-88899750D01*
X151143145Y-88892843D01*
X151206385Y-88874333D01*
X151253158Y-88846352D01*
X151291596Y-88807367D01*
X151317496Y-88764002D01*
X151332018Y-88715194D01*
X151341336Y-88624569D01*
X151345390Y-88456999D01*
X151345390Y-87616010D01*
X151648739Y-87616010D01*
X151648739Y-88409188D01*
X151641200Y-88661199D01*
X151624101Y-88793413D01*
X151602544Y-88865826D01*
X151572270Y-88928557D01*
X151533426Y-88982915D01*
X151485805Y-89029773D01*
X151427398Y-89070827D01*
X151356655Y-89106013D01*
X151281421Y-89130039D01*
X151186481Y-89145966D01*
X151067777Y-89151809D01*
X150923632Y-89145067D01*
X150817530Y-89127375D01*
X150741347Y-89101892D01*
X150670502Y-89064018D01*
X150612479Y-89020745D01*
X150565675Y-88972107D01*
X150511420Y-88888938D01*
X150480587Y-88804678D01*
X150459594Y-88659457D01*
X150450911Y-88421461D01*
X150450911Y-87616010D01*
G37*
G36*
X151815527Y-89122500D02*
G01*
X152335214Y-88338846D01*
X151863704Y-87616010D01*
X152218253Y-87616010D01*
X152515649Y-88066821D01*
X152814602Y-87616010D01*
X153166037Y-87616010D01*
X152693885Y-88336923D01*
X153212199Y-89122500D01*
X152846384Y-89122500D01*
X152513542Y-88612246D01*
X152179326Y-89122500D01*
X151815527Y-89122500D01*
G37*
G36*
X129874166Y-88565626D02*
G01*
X130168265Y-88659415D01*
X130126303Y-88780938D01*
X130074475Y-88880565D01*
X130013496Y-88961486D01*
X129943318Y-89026146D01*
X129862223Y-89077128D01*
X129770040Y-89114436D01*
X129664840Y-89137768D01*
X129544255Y-89145947D01*
X129425899Y-89137333D01*
X129319213Y-89112370D01*
X129222314Y-89071717D01*
X129133699Y-89015137D01*
X129052320Y-88941516D01*
X128985229Y-88857140D01*
X128932168Y-88760992D01*
X128892990Y-88651371D01*
X128868356Y-88526083D01*
X128859704Y-88382535D01*
X128868561Y-88229799D01*
X128893638Y-88097936D01*
X128933248Y-87983969D01*
X128986496Y-87885360D01*
X129053327Y-87800108D01*
X129134970Y-87725940D01*
X129225262Y-87668592D01*
X129325419Y-87627108D01*
X129437170Y-87601463D01*
X129562665Y-87592562D01*
X129698743Y-87603536D01*
X129816755Y-87634897D01*
X129919864Y-87685437D01*
X130010454Y-87755503D01*
X130070430Y-87825247D01*
X130121927Y-87916044D01*
X130164144Y-88032199D01*
X129863908Y-88102541D01*
X129839054Y-88028735D01*
X129802082Y-87967975D01*
X129752717Y-87918169D01*
X129693242Y-87880999D01*
X129625488Y-87858350D01*
X129547278Y-87850483D01*
X129466077Y-87858322D01*
X129395094Y-87880938D01*
X129332253Y-87918036D01*
X129276168Y-87970742D01*
X129234517Y-88032613D01*
X129202001Y-88114586D01*
X129180272Y-88221698D01*
X129172213Y-88360004D01*
X129180333Y-88507757D01*
X129202040Y-88620308D01*
X129234143Y-88704703D01*
X129274703Y-88766851D01*
X129330121Y-88820121D01*
X129391989Y-88857473D01*
X129461648Y-88880173D01*
X129541141Y-88888026D01*
X129618776Y-88879198D01*
X129687386Y-88853432D01*
X129749145Y-88810266D01*
X129798761Y-88752992D01*
X129840843Y-88673372D01*
X129874166Y-88565626D01*
G37*
G36*
X130428292Y-89122500D02*
G01*
X130428292Y-87616010D01*
X131542131Y-87616010D01*
X131542131Y-87868068D01*
X130731550Y-87868068D01*
X130731550Y-88202192D01*
X131485711Y-88202192D01*
X131485711Y-88454251D01*
X130731550Y-88454251D01*
X130731550Y-88870441D01*
X131570799Y-88870441D01*
X131570799Y-89122500D01*
X130428292Y-89122500D01*
G37*
G36*
X131835956Y-89122500D02*
G01*
X131835956Y-87633595D01*
X132139305Y-87633595D01*
X132139305Y-88870441D01*
X132893466Y-88870441D01*
X132893466Y-89122500D01*
X131835956Y-89122500D01*
G37*
G36*
X133118231Y-89122500D02*
G01*
X133118231Y-87633595D01*
X133421580Y-87633595D01*
X133421580Y-88870441D01*
X134175741Y-88870441D01*
X134175741Y-89122500D01*
X133118231Y-89122500D01*
G37*
G36*
X107217507Y-89122500D02*
G01*
X107217507Y-87616010D01*
X107671433Y-87616010D01*
X107944008Y-88643661D01*
X108213468Y-87616010D01*
X108668493Y-87616010D01*
X108668493Y-89122500D01*
X108386667Y-89122500D01*
X108386667Y-87936670D01*
X108088538Y-89122500D01*
X107796454Y-89122500D01*
X107499333Y-87936670D01*
X107499333Y-89122500D01*
X107217507Y-89122500D01*
G37*
G36*
X110324551Y-89122500D02*
G01*
X109994548Y-89122500D01*
X109863390Y-88782513D01*
X109263011Y-88782513D01*
X109138996Y-89122500D01*
X108817237Y-89122500D01*
X109047173Y-88530455D01*
X109356250Y-88530455D01*
X109766120Y-88530455D01*
X109559124Y-87967719D01*
X109356250Y-88530455D01*
X109047173Y-88530455D01*
X109402321Y-87616010D01*
X109723072Y-87616010D01*
X110324551Y-89122500D01*
G37*
G36*
X110475951Y-89122500D02*
G01*
X110475951Y-87616010D01*
X110779301Y-87616010D01*
X110779301Y-89122500D01*
X110475951Y-89122500D01*
G37*
G36*
X111071568Y-89122500D02*
G01*
X111071568Y-87616010D01*
X111366674Y-87616010D01*
X111981433Y-88624519D01*
X111981433Y-87616010D01*
X112263259Y-87616010D01*
X112263259Y-89122500D01*
X111958902Y-89122500D01*
X111353302Y-88129011D01*
X111353302Y-89122500D01*
X111071568Y-89122500D01*
G37*
M02*
