%TF.GenerationSoftware,KiCad,Pcbnew,9.0.2*%
%TF.CreationDate,2025-05-15T13:19:02-04:00*%
%TF.ProjectId,mainBoard,6d61696e-426f-4617-9264-2e6b69636164,01*%
%TF.SameCoordinates,Original*%
%TF.FileFunction,Copper,L4,Inr*%
%TF.FilePolarity,Positive*%
%FSLAX46Y46*%
G04 Gerber Fmt 4.6, Leading zero omitted, Abs format (unit mm)*
G04 Created by KiCad (PCBNEW 9.0.2) date 2025-05-15 13:19:02*
%MOMM*%
%LPD*%
G01*
G04 APERTURE LIST*
%TA.AperFunction,ComponentPad*%
%ADD10C,6.500000*%
%TD*%
%TA.AperFunction,ComponentPad*%
%ADD11R,1.700000X1.700000*%
%TD*%
%TA.AperFunction,ComponentPad*%
%ADD12C,1.700000*%
%TD*%
%TA.AperFunction,ComponentPad*%
%ADD13C,2.000000*%
%TD*%
%TA.AperFunction,ComponentPad*%
%ADD14C,2.500000*%
%TD*%
%TA.AperFunction,ComponentPad*%
%ADD15O,3.250000X1.000000*%
%TD*%
%TA.AperFunction,ComponentPad*%
%ADD16C,2.750000*%
%TD*%
%TA.AperFunction,ComponentPad*%
%ADD17C,0.930000*%
%TD*%
%TA.AperFunction,ComponentPad*%
%ADD18O,3.550000X1.350000*%
%TD*%
%TA.AperFunction,ComponentPad*%
%ADD19C,1.900000*%
%TD*%
%TA.AperFunction,ComponentPad*%
%ADD20O,3.750000X2.000000*%
%TD*%
%TA.AperFunction,ComponentPad*%
%ADD21C,1.500000*%
%TD*%
%TA.AperFunction,ComponentPad*%
%ADD22C,2.600000*%
%TD*%
%TA.AperFunction,ViaPad*%
%ADD23C,0.550000*%
%TD*%
%TA.AperFunction,ViaPad*%
%ADD24C,0.600000*%
%TD*%
%TA.AperFunction,ViaPad*%
%ADD25C,0.800000*%
%TD*%
%TA.AperFunction,ViaPad*%
%ADD26C,0.700000*%
%TD*%
%TA.AperFunction,Conductor*%
%ADD27C,0.300000*%
%TD*%
%TA.AperFunction,Conductor*%
%ADD28C,0.200000*%
%TD*%
%TA.AperFunction,Conductor*%
%ADD29C,0.250000*%
%TD*%
%TA.AperFunction,Conductor*%
%ADD30C,0.500000*%
%TD*%
G04 APERTURE END LIST*
D10*
%TO.N,VSS*%
%TO.C,J15*%
X205500000Y-60000000D03*
%TD*%
%TO.N,VSS*%
%TO.C,J27*%
X157500000Y-60000000D03*
%TD*%
D11*
%TO.N,/Auxiliary Card/AUX_VDD*%
%TO.C,J26*%
X155960000Y-109000000D03*
D12*
%TO.N,/Auxiliary Card/AUX_GPIO_VCCA*%
X158500000Y-109000000D03*
%TO.N,/Auxiliary Card/AUX_1V8*%
X161040000Y-109000000D03*
%TD*%
D13*
%TO.N,/RF Interface/LTE_RF-IN*%
%TO.C,AE2*%
X224500000Y-110500000D03*
D14*
%TO.N,VSS*%
X227040000Y-107960000D03*
X221960000Y-107960000D03*
X221960000Y-113040000D03*
X227040000Y-113040000D03*
%TD*%
%TO.N,/RF Interface/GNSS_RF-IN*%
%TO.C,AE1*%
X218750000Y-132250000D03*
%TO.N,VSS*%
X221290000Y-129710000D03*
X216210000Y-129710000D03*
X216210000Y-134790000D03*
X221290000Y-134790000D03*
%TD*%
D10*
%TO.N,VSS*%
%TO.C,J22*%
X181500000Y-72000000D03*
%TD*%
D15*
%TO.N,GND*%
%TO.C,J5*%
X91500000Y-55700000D03*
%TD*%
D11*
%TO.N,/LTE Card/LTE_VDD*%
%TO.C,J20*%
X179960000Y-109000000D03*
D12*
%TO.N,/LTE Card/LTE_GPIO_VCCA*%
X182500000Y-109000000D03*
%TO.N,/LTE Card/LTE_1V8*%
X185040000Y-109000000D03*
%TD*%
D10*
%TO.N,VSS*%
%TO.C,J28*%
X157500000Y-72000000D03*
%TD*%
%TO.N,VSS*%
%TO.C,J21*%
X181500000Y-60000000D03*
%TD*%
D11*
%TO.N,VSS*%
%TO.C,J41*%
X143060000Y-97500000D03*
D12*
%TO.N,/EPS Controller/Voltage Regulators/+3V3_REG_OUT*%
X140520000Y-97500000D03*
%TO.N,+3V3*%
X137980000Y-97500000D03*
%TO.N,VSS*%
X135440000Y-97500000D03*
%TD*%
D15*
%TO.N,GND*%
%TO.C,J4*%
X214500000Y-55700000D03*
%TD*%
D16*
%TO.N,GND*%
%TO.C,J1*%
X219920000Y-66550000D03*
X224920000Y-66550000D03*
X224920000Y-59050000D03*
X219920000Y-59050000D03*
%TD*%
D11*
%TO.N,/LTE Card/LTE_VDD*%
%TO.C,J17*%
X171710000Y-109000000D03*
D12*
%TO.N,/LTE Card/LTE_SIG_VCCA*%
X174250000Y-109000000D03*
%TO.N,/LTE Card/LTE_1V8*%
X176790000Y-109000000D03*
%TD*%
D17*
%TO.N,VSS*%
%TO.C,J9*%
X80670000Y-96275000D03*
%TO.N,unconnected-(J9-TX1+-PadA2)*%
X80670000Y-97375000D03*
%TO.N,unconnected-(J9-TX1--PadA3)*%
X80670000Y-98475000D03*
%TO.N,VBUS*%
X80670000Y-99575000D03*
%TO.N,/USB Hub/CC1*%
X79900000Y-100325000D03*
%TO.N,/USB Hub/UP_USB_DP*%
X80670000Y-101075000D03*
%TO.N,/USB Hub/UP_USB_DN*%
X80670000Y-102925000D03*
%TO.N,unconnected-(J9-SBU1-PadA8)*%
X79900000Y-103675000D03*
%TO.N,VBUS*%
X80670000Y-104425000D03*
%TO.N,unconnected-(J9-RX2--PadA10)*%
X80670000Y-105525000D03*
%TO.N,unconnected-(J9-RX2+-PadA11)*%
X80670000Y-106625000D03*
%TO.N,VSS*%
X80670000Y-107725000D03*
X78050000Y-107350000D03*
%TO.N,unconnected-(J9-TX2+-PadB2)*%
X78050000Y-106250000D03*
%TO.N,unconnected-(J9-TX2--PadB3)*%
X78050000Y-105150000D03*
%TO.N,VBUS*%
X78050000Y-104050000D03*
%TO.N,/USB Hub/CC2*%
X78850000Y-103300000D03*
%TO.N,/USB Hub/UP_USB_DP*%
X78050000Y-102550000D03*
%TO.N,/USB Hub/UP_USB_DN*%
X78050000Y-101450000D03*
%TO.N,unconnected-(J9-SBU2-PadB8)*%
X78850000Y-100700000D03*
%TO.N,VBUS*%
X78050000Y-99950000D03*
%TO.N,unconnected-(J9-RX1--PadB10)*%
X78050000Y-98850000D03*
%TO.N,unconnected-(J9-RX1+-PadB11)*%
X78050000Y-97750000D03*
%TO.N,VSS*%
X78050000Y-96650000D03*
X79375000Y-97050000D03*
X79375000Y-98150000D03*
X79375000Y-99250000D03*
X79375000Y-104750000D03*
X79375000Y-105850000D03*
X79375000Y-106950000D03*
D18*
%TO.N,Net-(J9-PadS1)*%
X79375000Y-110900000D03*
%TO.N,Net-(J9-PadS2)*%
X79375000Y-93100000D03*
%TD*%
D15*
%TO.N,GND*%
%TO.C,J3*%
X214500000Y-144300000D03*
%TD*%
D11*
%TO.N,/GNSS Card/GNSS_VDD*%
%TO.C,J14*%
X203960000Y-109000000D03*
D12*
%TO.N,/GNSS Card/GPS_GPIO_VCCA*%
X206500000Y-109000000D03*
%TO.N,/GNSS Card/GNSS_1V8*%
X209040000Y-109000000D03*
%TD*%
D11*
%TO.N,/GNSS Card/GNSS_VDD*%
%TO.C,J11*%
X195710000Y-109000000D03*
D12*
%TO.N,/GNSS Card/GPS_SIG_VCCA*%
X198250000Y-109000000D03*
%TO.N,/GNSS Card/GNSS_1V8*%
X200790000Y-109000000D03*
%TD*%
D11*
%TO.N,VSS*%
%TO.C,J42*%
X123610000Y-105800000D03*
D12*
%TO.N,Net-(J42-Pin_2)*%
X121070000Y-105800000D03*
%TO.N,+1V8*%
X118530000Y-105800000D03*
%TO.N,VSS*%
X115990000Y-105800000D03*
%TD*%
D19*
%TO.N,VSS*%
%TO.C,J37*%
X78325000Y-65700000D03*
%TO.N,/EPS Controller/Battery Charger/PVIN*%
X80275000Y-65075000D03*
%TO.N,VSS*%
X78325000Y-62300000D03*
%TO.N,/EPS Controller/Battery Charger/PVIN*%
X80275000Y-62925000D03*
D20*
%TO.N,Net-(J37-SHIELD-PadS1)*%
X78825000Y-70250000D03*
%TO.N,Net-(J37-SHIELD-PadS2)*%
X78825000Y-57750000D03*
%TD*%
D11*
%TO.N,/Auxiliary Card/AUX_VDD*%
%TO.C,J23*%
X147710000Y-109000000D03*
D12*
%TO.N,/Auxiliary Card/AUX_SIG_VCCA*%
X150250000Y-109000000D03*
%TO.N,/Auxiliary Card/AUX_1V8*%
X152790000Y-109000000D03*
%TD*%
D13*
%TO.N,/RF Interface/AUX_RF-IN*%
%TO.C,AE3*%
X224500000Y-91000000D03*
D14*
%TO.N,VSS*%
X227040000Y-88460000D03*
X221960000Y-88460000D03*
X221960000Y-93540000D03*
X227040000Y-93540000D03*
%TD*%
D15*
%TO.N,GND*%
%TO.C,J2*%
X91500000Y-144300000D03*
%TD*%
D19*
%TO.N,+3V3*%
%TO.C,J33*%
X78325000Y-83700000D03*
%TO.N,/I2C1.SCL*%
X80275000Y-83075000D03*
%TO.N,/I2C1.SDA*%
X78325000Y-80300000D03*
%TO.N,VSS*%
X80275000Y-80925000D03*
D20*
%TO.N,Net-(J33-SHIELD-PadS1)*%
X78825000Y-88250000D03*
%TO.N,Net-(J33-SHIELD-PadS2)*%
X78825000Y-75750000D03*
%TD*%
D10*
%TO.N,VSS*%
%TO.C,J16*%
X205500000Y-72000000D03*
%TD*%
D21*
%TO.N,/Ethernet/MDI_RX+*%
%TO.C,J10*%
X84500000Y-124560000D03*
%TO.N,/Ethernet/MDI_RX-*%
X87040000Y-125830000D03*
%TO.N,/Ethernet/MDI_TX+*%
X84500000Y-127100000D03*
%TO.N,unconnected-(J10-DC+-Pad4)*%
X87040000Y-128370000D03*
%TO.N,unconnected-(J10-DC+-Pad5)*%
X84500000Y-129640000D03*
%TO.N,/Ethernet/MDI_TX-*%
X87040000Y-130910000D03*
%TO.N,unconnected-(J10-DC--Pad7)*%
X84500000Y-132180000D03*
%TO.N,unconnected-(J10-DC--Pad8)*%
X87040000Y-133450000D03*
%TO.N,Net-(J10-LED(Yellow)_K)*%
X80500000Y-135530000D03*
%TO.N,/Ethernet/LED1*%
X80500000Y-132990000D03*
%TO.N,Net-(J10-LED(Green)_K)*%
X80500000Y-125010000D03*
%TO.N,/Ethernet/LED2*%
X80500000Y-122470000D03*
D22*
%TO.N,GND*%
X76500000Y-124000000D03*
X76500000Y-134000000D03*
%TD*%
D16*
%TO.N,PACK+*%
%TO.C,J40*%
X144100000Y-60200000D03*
%TO.N,PACK-*%
X139900000Y-60200000D03*
%TD*%
D23*
%TO.N,VSS*%
X155000000Y-79000000D03*
X99000000Y-73000000D03*
X86000000Y-86000000D03*
X152000000Y-74000000D03*
X198000000Y-88000000D03*
X203000000Y-145000000D03*
X156250000Y-135500000D03*
X165000000Y-57000000D03*
X200000000Y-68000000D03*
X133000000Y-131000000D03*
X92000000Y-90000000D03*
X104050000Y-108150000D03*
X219500000Y-97000000D03*
X156550000Y-86000000D03*
X98000000Y-58000000D03*
X192000000Y-80000000D03*
X117500000Y-60250000D03*
X208000000Y-140000000D03*
X224000000Y-108000000D03*
X176000000Y-80000000D03*
X220000000Y-140000000D03*
X191000000Y-65000000D03*
X80000000Y-54000000D03*
X84000000Y-90000000D03*
X166250000Y-135250000D03*
X81000000Y-79000000D03*
X190000000Y-102000000D03*
X130000000Y-110000000D03*
X84000000Y-84000000D03*
X151750000Y-137750000D03*
X148000000Y-87500000D03*
X96000000Y-103650000D03*
X138000000Y-108500000D03*
X215000000Y-103000000D03*
X108000000Y-56000000D03*
X205000000Y-67000000D03*
X210000000Y-74000000D03*
D24*
X93050000Y-93050000D03*
D23*
X191000000Y-139000000D03*
X186000000Y-72000000D03*
X201000000Y-79000000D03*
D24*
X123000000Y-92250000D03*
D23*
X206750000Y-104150000D03*
X103000000Y-60250000D03*
X222000000Y-126000000D03*
X195000000Y-59000000D03*
X84000000Y-62000000D03*
X166500000Y-106750000D03*
X205000000Y-65000000D03*
X128000000Y-130000000D03*
X84000000Y-146000000D03*
X218000000Y-92000000D03*
X86000000Y-67250000D03*
X81000000Y-89000000D03*
X213000000Y-101000000D03*
X190000000Y-92000000D03*
X115500000Y-60250000D03*
X159000000Y-135500000D03*
X187000000Y-81000000D03*
X108100000Y-99450000D03*
X219500000Y-102000000D03*
X186850000Y-118650000D03*
X114000000Y-59750000D03*
X127000000Y-113000000D03*
X103700000Y-105275000D03*
X136000000Y-87500000D03*
X187000000Y-61000000D03*
X226000000Y-76000000D03*
X85000000Y-57000000D03*
X150000000Y-100000000D03*
X90750000Y-96500000D03*
X90500000Y-65750000D03*
X154000000Y-64000000D03*
X222500000Y-96500000D03*
X159000000Y-130000000D03*
X102000000Y-60250000D03*
X213000000Y-59000000D03*
X133000000Y-119000000D03*
X94000000Y-78000000D03*
X152000000Y-72000000D03*
X115000000Y-87000000D03*
X189000000Y-139000000D03*
X86000000Y-76000000D03*
X208000000Y-128000000D03*
X140000000Y-138000000D03*
X93500000Y-60750000D03*
X127000000Y-73000000D03*
X115000000Y-143000000D03*
X108100000Y-108350000D03*
X115000000Y-130000000D03*
X154000000Y-54000000D03*
X131000000Y-83000000D03*
D24*
X140825000Y-137350000D03*
D23*
X213000000Y-63000000D03*
X200000000Y-62000000D03*
X96000000Y-74000000D03*
X118000000Y-90000000D03*
X205000000Y-145000000D03*
X101000000Y-83000000D03*
X135000000Y-107000000D03*
X138950000Y-103800000D03*
X154000000Y-74000000D03*
X118000000Y-88000000D03*
X177000000Y-101000000D03*
X127000000Y-55000000D03*
X153000000Y-83000000D03*
X194000000Y-102000000D03*
X97000000Y-143000000D03*
X190000000Y-94000000D03*
X176825000Y-91800000D03*
X218000000Y-68000000D03*
X172250000Y-107000000D03*
X224000000Y-88000000D03*
X142500000Y-62500000D03*
X82000000Y-146000000D03*
X159000000Y-133750000D03*
X225000000Y-75000000D03*
X213000000Y-121000000D03*
X101000000Y-81000000D03*
X213000000Y-57000000D03*
X209000000Y-63000000D03*
X77000000Y-61000000D03*
X214750000Y-83425000D03*
X216000000Y-140000000D03*
X207000000Y-143000000D03*
X180000000Y-66000000D03*
X173000000Y-75000000D03*
X194500000Y-130000000D03*
X145750000Y-82000000D03*
X184000000Y-88000000D03*
X213000000Y-103000000D03*
X110000000Y-56000000D03*
D24*
X126250000Y-79125000D03*
D23*
X194500000Y-132000000D03*
X216000000Y-78000000D03*
X104000000Y-84000000D03*
X102000000Y-76000000D03*
X217000000Y-67000000D03*
X189250000Y-107000000D03*
X76000000Y-74000000D03*
X84000000Y-92000000D03*
X86500000Y-66750000D03*
X137000000Y-141000000D03*
X160000000Y-133750000D03*
X114000000Y-54000000D03*
X193000000Y-75000000D03*
X168000000Y-78000000D03*
X223000000Y-75000000D03*
X110000000Y-100400000D03*
X96500000Y-60750000D03*
X102500000Y-59750000D03*
X96000000Y-78000000D03*
X173000000Y-55000000D03*
X203000000Y-67000000D03*
X116000000Y-56000000D03*
X182000000Y-76000000D03*
D24*
X85400000Y-105250000D03*
D23*
X77000000Y-65000000D03*
X203750000Y-104150000D03*
X222000000Y-117500000D03*
X74000000Y-60000000D03*
X109000000Y-143000000D03*
X144000000Y-84000000D03*
X107000000Y-143000000D03*
X189000000Y-65000000D03*
X111000000Y-59000000D03*
X213000000Y-111000000D03*
X207000000Y-55000000D03*
X219500000Y-120000000D03*
X168000000Y-90000000D03*
X188000000Y-70000000D03*
X123000000Y-59000000D03*
X199000000Y-81000000D03*
X203000000Y-57000000D03*
X95000000Y-81000000D03*
X121850000Y-136525000D03*
X91000000Y-115000000D03*
X222000000Y-102000000D03*
X156000000Y-68000000D03*
X168000000Y-58000000D03*
X123000000Y-103500000D03*
X213000000Y-91000000D03*
X138250000Y-80500000D03*
X157050000Y-146425000D03*
X177000000Y-73000000D03*
X106000000Y-144000000D03*
X111000000Y-143000000D03*
X153000000Y-89000000D03*
X174475000Y-128650000D03*
X214000000Y-142000000D03*
X85000000Y-77000000D03*
X186500000Y-96625000D03*
X98000000Y-142000000D03*
X191000000Y-69000000D03*
X121000000Y-145000000D03*
X222000000Y-142000000D03*
X163000000Y-133750000D03*
X75000000Y-87000000D03*
X95000000Y-57000000D03*
X161000000Y-63000000D03*
X85000000Y-79000000D03*
X172000000Y-54000000D03*
X196000000Y-62000000D03*
X125000000Y-59750000D03*
X128000000Y-81000000D03*
X135000000Y-85000000D03*
X161000000Y-133750000D03*
X129000000Y-73000000D03*
X162000000Y-74000000D03*
X89000000Y-117000000D03*
X86000000Y-94000000D03*
X212000000Y-70000000D03*
X200000000Y-78000000D03*
X147500000Y-92000000D03*
X223000000Y-71000000D03*
X201000000Y-135000000D03*
X111250000Y-82275000D03*
X193000000Y-73000000D03*
X128000000Y-74000000D03*
X225000000Y-81000000D03*
X223500000Y-96500000D03*
X152750000Y-106950000D03*
D24*
X124750000Y-79125000D03*
D23*
X93000000Y-143000000D03*
D24*
X97850000Y-90700000D03*
D23*
X170650000Y-114625000D03*
X92000000Y-92000000D03*
X148000000Y-56000000D03*
X152000000Y-64000000D03*
X107000000Y-145000000D03*
X158000000Y-103900000D03*
D24*
X132050000Y-128200000D03*
D23*
X138000000Y-54000000D03*
X100500000Y-120250000D03*
X193000000Y-61000000D03*
X138825000Y-115125000D03*
X130000000Y-74000000D03*
X154000000Y-70000000D03*
X144000000Y-108500000D03*
X86000000Y-112000000D03*
X149000000Y-69000000D03*
X87000000Y-117000000D03*
X216000000Y-122000000D03*
X77000000Y-81000000D03*
X162000000Y-58000000D03*
X212000000Y-72000000D03*
X97500000Y-60750000D03*
X130000000Y-54000000D03*
X215000000Y-117000000D03*
X165000000Y-55000000D03*
X172000000Y-96000000D03*
X135000000Y-134750000D03*
D24*
X111525000Y-117700000D03*
D23*
X98000000Y-76000000D03*
X148000000Y-92500000D03*
X193000000Y-79000000D03*
X193000000Y-101000000D03*
X207000000Y-65000000D03*
X173750000Y-106975000D03*
X198900000Y-106900000D03*
X205000000Y-113000000D03*
X123525000Y-127000000D03*
X119000000Y-141000000D03*
X81000000Y-71000000D03*
X221000000Y-101000000D03*
X196000000Y-90000000D03*
X164000000Y-74000000D03*
X101000000Y-79000000D03*
X187000000Y-79000000D03*
X107150000Y-100400000D03*
X214000000Y-58000000D03*
X85000000Y-59000000D03*
X75000000Y-77000000D03*
X119000000Y-111000000D03*
X102000000Y-54000000D03*
X218000000Y-62000000D03*
X179000000Y-81000000D03*
X180000000Y-104000000D03*
X74000000Y-78000000D03*
X174000000Y-54000000D03*
X202000000Y-120000000D03*
X156200000Y-132000000D03*
X217000000Y-89000000D03*
X214000000Y-92000000D03*
X192000000Y-124000000D03*
X154000000Y-68000000D03*
X223000000Y-141000000D03*
X181000000Y-67000000D03*
X193750000Y-129887500D03*
X210000000Y-144000000D03*
X152000000Y-60000000D03*
D24*
X116525000Y-118250000D03*
D23*
X78000000Y-112000000D03*
X222000000Y-99000000D03*
X220500000Y-86000000D03*
X148000000Y-86500000D03*
X85000000Y-109000000D03*
X195000000Y-55000000D03*
X208000000Y-126000000D03*
X128000000Y-114000000D03*
X224000000Y-106000000D03*
X85000000Y-55000000D03*
X195500000Y-139000000D03*
D24*
X90450000Y-108325000D03*
D23*
X172000000Y-92000000D03*
X191000000Y-141000000D03*
X95000000Y-77000000D03*
X120000000Y-56000000D03*
X90000000Y-64000000D03*
X182000000Y-56000000D03*
X199000000Y-75000000D03*
X225000000Y-77000000D03*
X222500000Y-86000000D03*
X180000000Y-102000000D03*
X125000000Y-111000000D03*
X158000000Y-68000000D03*
X122000000Y-59750000D03*
X97500000Y-59750000D03*
X149000000Y-89000000D03*
X90000000Y-122000000D03*
X155750000Y-107000000D03*
X129000000Y-141000000D03*
X162000000Y-70000000D03*
X165000000Y-73000000D03*
X85000000Y-117000000D03*
X222000000Y-119500000D03*
X77000000Y-59000000D03*
X183225000Y-128750000D03*
X102500000Y-60750000D03*
X140000000Y-84000000D03*
X189000000Y-143000000D03*
X77000000Y-85000000D03*
X116000000Y-146000000D03*
X190375000Y-84875000D03*
X75000000Y-57000000D03*
X144000000Y-54000000D03*
X142000000Y-54000000D03*
X190000000Y-70000000D03*
X207000000Y-107000000D03*
X211000000Y-143000000D03*
X91000000Y-111000000D03*
X199000000Y-59000000D03*
X77000000Y-67000000D03*
X199000000Y-73000000D03*
X192000000Y-134000000D03*
X188000000Y-66000000D03*
X99000000Y-75000000D03*
X115000000Y-57000000D03*
X113000000Y-59750000D03*
X93000000Y-63250000D03*
X192000000Y-136000000D03*
X223000000Y-73000000D03*
X224500000Y-121000000D03*
X121000000Y-59750000D03*
D24*
X175600000Y-131150000D03*
D23*
X213650000Y-115450000D03*
X165000000Y-141975000D03*
X220000000Y-138000000D03*
X217000000Y-69000000D03*
X201000000Y-69000000D03*
D24*
X103300000Y-115500000D03*
D23*
X216000000Y-126000000D03*
X201000000Y-137000000D03*
X176825000Y-93200000D03*
X114000000Y-140000000D03*
X170000000Y-92000000D03*
X117000000Y-141000000D03*
X178000000Y-142000000D03*
X184000000Y-134000000D03*
X102000000Y-142000000D03*
X82000000Y-88000000D03*
X222000000Y-104000000D03*
X97000000Y-57000000D03*
X193000000Y-71000000D03*
X120000000Y-54000000D03*
X192000000Y-78000000D03*
X114000000Y-146000000D03*
X222000000Y-144000000D03*
X222500000Y-121000000D03*
X216000000Y-110000000D03*
X85000000Y-63000000D03*
X206000000Y-112000000D03*
X213000000Y-67000000D03*
X199500000Y-124000000D03*
X165750000Y-114500000D03*
X107000000Y-58250000D03*
X205000000Y-103000000D03*
X81000000Y-59000000D03*
X206000000Y-146000000D03*
X171000000Y-57000000D03*
X129000000Y-79000000D03*
X105500000Y-115350000D03*
X153000000Y-71000000D03*
X190925000Y-85125000D03*
X192000000Y-66000000D03*
X135675000Y-115925000D03*
X200000000Y-56000000D03*
X127000000Y-57000000D03*
X201000000Y-75000000D03*
X173000000Y-83000000D03*
X117000000Y-105000000D03*
X158000000Y-64000000D03*
X128000000Y-112000000D03*
X95000000Y-73000000D03*
X191000000Y-71000000D03*
X189000000Y-125000000D03*
D24*
X105900000Y-117600000D03*
D23*
X171000000Y-55000000D03*
X128000000Y-144000000D03*
X107000000Y-141000000D03*
X148000000Y-62000000D03*
X207000000Y-145000000D03*
X212000000Y-68000000D03*
X78000000Y-86000000D03*
X117000000Y-57000000D03*
X133000000Y-105000000D03*
X161000000Y-135500000D03*
X219500000Y-109000000D03*
X194000000Y-106000000D03*
X153000000Y-75000000D03*
X111000000Y-141000000D03*
X131450000Y-90950000D03*
X188000000Y-130000000D03*
X155000000Y-67000000D03*
X220000000Y-146000000D03*
X210000000Y-146000000D03*
X163000000Y-75000000D03*
X102550000Y-120050000D03*
X194000000Y-74000000D03*
X214000000Y-78000000D03*
X205000000Y-117000000D03*
X96000000Y-142000000D03*
X148000000Y-54000000D03*
X198000000Y-72000000D03*
X95000000Y-60250000D03*
X196000000Y-92000000D03*
X198000000Y-62000000D03*
X147000000Y-111000000D03*
X215000000Y-67000000D03*
X223500000Y-86000000D03*
X88000000Y-58000000D03*
X81000000Y-77000000D03*
X168000000Y-82000000D03*
X181000000Y-143000000D03*
X164000000Y-137250000D03*
X89000000Y-109000000D03*
X219000000Y-145000000D03*
X149000000Y-76000000D03*
X201000000Y-57000000D03*
X190000000Y-142000000D03*
X221000000Y-141000000D03*
X184000000Y-76000000D03*
X193000000Y-81000000D03*
X118000000Y-54000000D03*
X103000000Y-57000000D03*
X191000000Y-57000000D03*
X158000000Y-56000000D03*
X154000000Y-56000000D03*
X187000000Y-73000000D03*
X107150000Y-101350000D03*
X190000000Y-54000000D03*
X216000000Y-94000000D03*
X124000000Y-112000000D03*
X138500000Y-67500000D03*
X83000000Y-77000000D03*
X209000000Y-101000000D03*
X213000000Y-79000000D03*
X163000000Y-138250000D03*
X202000000Y-80000000D03*
X146000000Y-102000000D03*
X189000000Y-55000000D03*
X200000000Y-86000000D03*
X208150000Y-115450000D03*
X153000000Y-59000000D03*
X126000000Y-56000000D03*
X168000000Y-56000000D03*
X210925000Y-85125000D03*
X161000000Y-131000000D03*
X121000000Y-89000000D03*
X153000000Y-111000000D03*
X222000000Y-138000000D03*
D24*
X167800000Y-116150000D03*
D23*
X149000000Y-75000000D03*
X186000000Y-76000000D03*
X96000000Y-60250000D03*
X92000000Y-116000000D03*
X84000000Y-56000000D03*
X190000000Y-90000000D03*
X206000000Y-66000000D03*
X96000000Y-90000000D03*
X126000000Y-80000000D03*
X216000000Y-80000000D03*
X79000000Y-55000000D03*
X135000000Y-109000000D03*
X89000000Y-65250000D03*
X94000000Y-90000000D03*
X180000000Y-78000000D03*
X115000000Y-129000000D03*
X87000000Y-113000000D03*
X190000000Y-122000000D03*
X127000000Y-115000000D03*
X98250000Y-120250000D03*
X97000000Y-60250000D03*
X144500000Y-67500000D03*
X198000000Y-66000000D03*
X106000000Y-142000000D03*
X187000000Y-69000000D03*
X202000000Y-78000000D03*
X226000000Y-90000000D03*
X218000000Y-90000000D03*
X141000000Y-131000000D03*
D24*
X131000000Y-131350000D03*
D23*
X151000000Y-101000000D03*
X80000000Y-140000000D03*
X147500000Y-62500000D03*
X200000000Y-70000000D03*
X178000000Y-66000000D03*
X210000000Y-72000000D03*
X150475000Y-132000000D03*
D24*
X110100000Y-117700000D03*
D23*
X192000000Y-90000000D03*
D25*
X80700000Y-137550000D03*
D23*
X151250000Y-104050000D03*
X198000000Y-116000000D03*
X106200000Y-99450000D03*
X203000000Y-63000000D03*
X145500000Y-68500000D03*
X174000000Y-84000000D03*
X147000000Y-55000000D03*
X92500000Y-63750000D03*
X212000000Y-78000000D03*
X99000000Y-57000000D03*
X223000000Y-137000000D03*
X190000000Y-124000000D03*
X171975000Y-123250000D03*
X122500000Y-91000000D03*
X137000000Y-85000000D03*
X193000000Y-65000000D03*
X111250000Y-80725000D03*
X117000000Y-139000000D03*
X93000000Y-117000000D03*
X85000000Y-83000000D03*
X133000000Y-97000000D03*
X77000000Y-77000000D03*
X149000000Y-93000000D03*
X173000000Y-57000000D03*
X119000000Y-136525000D03*
X191000000Y-75000000D03*
X206000000Y-78000000D03*
X111000000Y-145000000D03*
X166000000Y-102000000D03*
X101000000Y-95000000D03*
X202000000Y-62000000D03*
X163000000Y-57000000D03*
X149000000Y-62000000D03*
X201000000Y-73000000D03*
X210000000Y-66000000D03*
X202000000Y-58000000D03*
X161000000Y-132000000D03*
X211000000Y-145000000D03*
X161000000Y-71000000D03*
X84000000Y-80000000D03*
X190000000Y-56000000D03*
X130000000Y-112000000D03*
X196000000Y-58000000D03*
D24*
X123000000Y-91500000D03*
D23*
X191000000Y-131000000D03*
X98500000Y-60750000D03*
X130000000Y-114000000D03*
X223000000Y-129000000D03*
X86000000Y-142000000D03*
X110000000Y-58000000D03*
X128000000Y-58000000D03*
X76000000Y-78000000D03*
X222000000Y-101000000D03*
X131000000Y-85000000D03*
X90000000Y-65250000D03*
X220000000Y-126000000D03*
X145750000Y-79750000D03*
X76000000Y-66000000D03*
X197750000Y-106900000D03*
X197000000Y-75000000D03*
X195000000Y-81000000D03*
X109050000Y-101350000D03*
X201000000Y-63000000D03*
X153000000Y-57000000D03*
X224000000Y-84000000D03*
X117000000Y-109000000D03*
X126500000Y-61250000D03*
X221000000Y-125000000D03*
X210000000Y-62000000D03*
X93000000Y-65250000D03*
X89500000Y-65750000D03*
X149000000Y-95000000D03*
X102000000Y-146000000D03*
X74000000Y-84000000D03*
X186000000Y-56000000D03*
X214000000Y-68000000D03*
X86000000Y-56000000D03*
X105000000Y-57000000D03*
X206000000Y-54000000D03*
X221000000Y-83000000D03*
X156000000Y-56000000D03*
X160000000Y-132000000D03*
X106000000Y-146000000D03*
X119000000Y-59000000D03*
X80000000Y-112000000D03*
X75000000Y-61000000D03*
X219500000Y-124000000D03*
X163000000Y-73000000D03*
X219500000Y-108000000D03*
X193000000Y-57000000D03*
X91000000Y-63000000D03*
X88000000Y-116000000D03*
X223000000Y-87000000D03*
X221500000Y-86000000D03*
X189475000Y-126625000D03*
X195000000Y-63000000D03*
X191000000Y-91000000D03*
X104000000Y-56000000D03*
X201000000Y-71000000D03*
X117000000Y-89000000D03*
X90000000Y-142000000D03*
X195000000Y-111000000D03*
X219500000Y-110000000D03*
X94000000Y-80000000D03*
X149000000Y-64000000D03*
X99000000Y-119500000D03*
X131000000Y-111000000D03*
X91000000Y-93000000D03*
X188000000Y-64000000D03*
X216000000Y-84000000D03*
X86000000Y-84000000D03*
D25*
X84450000Y-110900000D03*
D23*
X177000000Y-55000000D03*
X147000000Y-121000000D03*
X105000000Y-145000000D03*
X222000000Y-74000000D03*
X138500000Y-70500000D03*
X222000000Y-72000000D03*
X141500000Y-62500000D03*
X215000000Y-113000000D03*
X134400000Y-90300000D03*
X153000000Y-141975000D03*
X223000000Y-105000000D03*
X141500000Y-74050000D03*
X84000000Y-78000000D03*
X100325000Y-112200000D03*
X152000000Y-88000000D03*
X81000000Y-143000000D03*
X157000000Y-55000000D03*
X177250000Y-104100000D03*
D24*
X111750000Y-133825000D03*
D23*
X128000000Y-142000000D03*
X154000000Y-58000000D03*
X88000000Y-112000000D03*
X217000000Y-61000000D03*
X197225000Y-138675000D03*
X111250000Y-81500000D03*
X192000000Y-70000000D03*
X162000000Y-80000000D03*
X162000000Y-137250000D03*
X224000000Y-74000000D03*
X131000000Y-141000000D03*
X200825000Y-91800000D03*
X197000000Y-63000000D03*
X129000000Y-113000000D03*
X119000000Y-60750000D03*
X198000000Y-82000000D03*
X158000000Y-66000000D03*
X192000000Y-60000000D03*
X83000000Y-61000000D03*
X139750000Y-82100000D03*
D25*
X80700000Y-139200000D03*
D23*
X193000000Y-125000000D03*
X194000000Y-70000000D03*
X83000000Y-55000000D03*
X152000000Y-80000000D03*
X138500000Y-73500000D03*
X148500000Y-62500000D03*
D24*
X91700000Y-100850000D03*
D23*
X88000000Y-118000000D03*
X214000000Y-110000000D03*
X147000000Y-86500000D03*
X157000000Y-77000000D03*
X171400000Y-114550000D03*
X143000000Y-111000000D03*
X145000000Y-120700000D03*
X212000000Y-90000000D03*
X194500000Y-136000000D03*
X212000000Y-144000000D03*
X156000000Y-64000000D03*
X222000000Y-76000000D03*
X130000000Y-128000000D03*
X136500000Y-89000000D03*
X163000000Y-59000000D03*
X178000000Y-56000000D03*
X159000000Y-65000000D03*
X223500000Y-101500000D03*
X170000000Y-58000000D03*
X162250000Y-129000000D03*
X103500000Y-60750000D03*
X140375000Y-115075000D03*
X87000000Y-75000000D03*
X147500000Y-89000000D03*
X192000000Y-94000000D03*
X206000000Y-142000000D03*
X223500000Y-95000000D03*
X217000000Y-87000000D03*
X179000000Y-141000000D03*
D24*
X144350000Y-138175000D03*
D23*
X113000000Y-145000000D03*
X142500000Y-74050000D03*
X136500000Y-91000000D03*
X206000000Y-56000000D03*
X159000000Y-132000000D03*
X223025000Y-120050000D03*
X217000000Y-143000000D03*
X217000000Y-83000000D03*
X91000000Y-61000000D03*
X82000000Y-54000000D03*
X86000000Y-98000000D03*
X170000000Y-54000000D03*
X106200000Y-100400000D03*
X219000000Y-77000000D03*
X211000000Y-55000000D03*
X211000000Y-71000000D03*
X212000000Y-142000000D03*
X123500000Y-60250000D03*
X219500000Y-114000000D03*
X123000000Y-55000000D03*
X174000000Y-80000000D03*
X116000000Y-140000000D03*
X98000000Y-97000000D03*
X208000000Y-146000000D03*
X157800000Y-86000000D03*
X202000000Y-54000000D03*
X126000000Y-110000000D03*
X105500000Y-116650000D03*
X143000000Y-83000000D03*
X186000000Y-78000000D03*
X197000000Y-59000000D03*
X117000000Y-55000000D03*
X95000000Y-75000000D03*
X88000000Y-146000000D03*
X143000000Y-108500000D03*
X107150000Y-99450000D03*
X82000000Y-92000000D03*
X211000000Y-57000000D03*
X194500000Y-139000000D03*
X111000000Y-59750000D03*
X128000000Y-138000000D03*
X130000000Y-86000000D03*
X78000000Y-74000000D03*
X220000000Y-144000000D03*
X150475000Y-126700000D03*
X217000000Y-125000000D03*
X152000000Y-82000000D03*
X187000000Y-71000000D03*
X83000000Y-59000000D03*
X171975000Y-131000000D03*
X85000000Y-113000000D03*
X210000000Y-138000000D03*
X91000000Y-65250000D03*
X84000000Y-60000000D03*
X140000000Y-108500000D03*
D24*
X111450000Y-77625000D03*
D23*
X154000000Y-80000000D03*
X193000000Y-59000000D03*
X168000000Y-89275000D03*
X185000000Y-57000000D03*
X80000000Y-90000000D03*
X124000000Y-54000000D03*
X75000000Y-75000000D03*
X148025000Y-123500000D03*
X194000000Y-66000000D03*
X134000000Y-106000000D03*
X149000000Y-68000000D03*
X101500000Y-60750000D03*
X185025000Y-131925000D03*
X114593413Y-112006587D03*
X224000000Y-76000000D03*
X91000000Y-89000000D03*
X190000000Y-68000000D03*
X163250000Y-129000000D03*
X177000000Y-59000000D03*
X153500000Y-138250000D03*
X223000000Y-123000000D03*
X82000000Y-78000000D03*
X129000000Y-109000000D03*
X189000000Y-59000000D03*
X116000000Y-86000000D03*
X132000000Y-84000000D03*
X135000000Y-132750000D03*
X88000000Y-142000000D03*
X130000000Y-84000000D03*
X87000000Y-55000000D03*
X131000000Y-113000000D03*
X84000000Y-110000000D03*
X206000000Y-68000000D03*
X87000000Y-109000000D03*
X121000000Y-59000000D03*
X213000000Y-125000000D03*
X161000000Y-67000000D03*
X187000000Y-67000000D03*
X93000000Y-111000000D03*
X163000000Y-79000000D03*
X176000000Y-100000000D03*
X75000000Y-65000000D03*
X219500000Y-89000000D03*
X152000000Y-66000000D03*
X190000000Y-80000000D03*
X96000000Y-146000000D03*
X148000000Y-93500000D03*
X115000000Y-89000000D03*
X221000000Y-137000000D03*
X211000000Y-69000000D03*
X105750000Y-63900000D03*
X109050000Y-98500000D03*
X198000000Y-64000000D03*
X162000000Y-60000000D03*
X141275000Y-118025000D03*
X172000000Y-90000000D03*
X154000000Y-104000000D03*
X113000000Y-60750000D03*
X215000000Y-61000000D03*
X203000000Y-65000000D03*
X166000000Y-56000000D03*
X87000000Y-77000000D03*
X89000000Y-63000000D03*
X197000000Y-71000000D03*
X106000000Y-90000000D03*
X202000000Y-102000000D03*
X194000000Y-80000000D03*
X140000000Y-54000000D03*
X156000000Y-76000000D03*
X102000000Y-82000000D03*
X219000000Y-129000000D03*
X109050000Y-99450000D03*
X88000000Y-108000000D03*
X194000000Y-100000000D03*
X216000000Y-64000000D03*
X125000000Y-81000000D03*
X185000000Y-73000000D03*
X92000000Y-60000000D03*
X223000000Y-145000000D03*
X152000000Y-84000000D03*
X91000000Y-113000000D03*
X225000000Y-107000000D03*
X93000000Y-141000000D03*
X85000000Y-61000000D03*
D24*
X139050000Y-105300000D03*
D23*
X101000000Y-59000000D03*
X90000000Y-114000000D03*
X217000000Y-81000000D03*
X93000000Y-62250000D03*
X134500000Y-103500000D03*
X160000000Y-76000000D03*
X133000000Y-113000000D03*
X213000000Y-139000000D03*
X194500000Y-131000000D03*
X198000000Y-140000000D03*
X117000000Y-87000000D03*
X88000000Y-54000000D03*
X182300000Y-92500000D03*
X178000000Y-140000000D03*
X130000000Y-144000000D03*
X104000000Y-146000000D03*
X165600000Y-88825000D03*
X192000000Y-72000000D03*
X84000000Y-116000000D03*
D24*
X142850000Y-101575000D03*
D23*
X191000000Y-81000000D03*
X216500000Y-124000000D03*
X128000000Y-110000000D03*
X180000000Y-80000000D03*
X128500000Y-103500000D03*
X99000000Y-141000000D03*
X98000000Y-60250000D03*
X109000000Y-145000000D03*
X200300000Y-131660000D03*
X185000000Y-79000000D03*
X200250000Y-124500000D03*
X130000000Y-130000000D03*
X162000000Y-132000000D03*
X167050000Y-133650000D03*
X86500000Y-65750000D03*
X219000000Y-79000000D03*
X102000000Y-84000000D03*
D24*
X112225000Y-117700000D03*
D23*
X119000000Y-55000000D03*
X198000000Y-118000000D03*
X119000000Y-57000000D03*
X134000000Y-133750000D03*
X200825000Y-93200000D03*
X226000000Y-74000000D03*
X180000000Y-68000000D03*
X74000000Y-72000000D03*
X193000000Y-139000000D03*
X217000000Y-123000000D03*
X217000000Y-65000000D03*
X131000000Y-115000000D03*
X179000000Y-143000000D03*
X189000000Y-131000000D03*
X196500000Y-139000000D03*
X161000000Y-81000000D03*
X204000000Y-118000000D03*
X219000000Y-141000000D03*
X130000000Y-104000000D03*
X161000000Y-57000000D03*
X178000000Y-80000000D03*
X80000000Y-142000000D03*
X149000000Y-55000000D03*
X225500000Y-86000000D03*
X181800000Y-86000000D03*
X219500000Y-91000000D03*
X215000000Y-79000000D03*
X210000000Y-70000000D03*
X186000000Y-70000000D03*
X219500000Y-92000000D03*
X130000000Y-132000000D03*
X94000000Y-103650000D03*
X180550000Y-86000000D03*
X202000000Y-74000000D03*
X174000000Y-58000000D03*
X158250000Y-144000000D03*
D24*
X108350000Y-74375000D03*
D23*
X111000000Y-55000000D03*
X222000000Y-118500000D03*
X153000000Y-61000000D03*
X214000000Y-134000000D03*
X222000000Y-120500000D03*
D25*
X80700000Y-119700000D03*
D23*
X197000000Y-57000000D03*
X174475000Y-124500000D03*
X166375000Y-84875000D03*
D24*
X96325000Y-71600000D03*
D23*
X181000000Y-79000000D03*
X165250000Y-104050000D03*
X145000000Y-95000000D03*
D24*
X83675000Y-98375000D03*
D23*
X77000000Y-113000000D03*
D24*
X132050000Y-124225000D03*
D23*
X84000000Y-82000000D03*
X226000000Y-110000000D03*
X214000000Y-136000000D03*
X215000000Y-59000000D03*
X222000000Y-110000000D03*
X178000000Y-78000000D03*
X196000000Y-84000000D03*
X177000000Y-61000000D03*
D24*
X141125000Y-141200000D03*
D23*
X204000000Y-116000000D03*
X200250000Y-127500000D03*
X100500000Y-60750000D03*
X86000000Y-110000000D03*
X193000000Y-63000000D03*
X74000000Y-64000000D03*
X226000000Y-106000000D03*
X100000000Y-144000000D03*
X166000000Y-54000000D03*
X162000000Y-82000000D03*
X209000000Y-61000000D03*
X210000000Y-68000000D03*
X208000000Y-114000000D03*
X226000000Y-104000000D03*
X101000000Y-143000000D03*
X193000000Y-143000000D03*
X182000000Y-66000000D03*
X166000000Y-58000000D03*
X140500000Y-62500000D03*
X134000000Y-54000000D03*
X214000000Y-80000000D03*
X102000000Y-144000000D03*
X226000000Y-132000000D03*
X219500000Y-123000000D03*
X179000000Y-75000000D03*
X141000000Y-111000000D03*
X196000000Y-80000000D03*
X96000000Y-114000000D03*
X76000000Y-72000000D03*
X223000000Y-111000000D03*
X203000000Y-55000000D03*
X190000000Y-64000000D03*
X128000000Y-88000000D03*
X194500000Y-125000000D03*
X149000000Y-57000000D03*
X184000000Y-56000000D03*
X194000000Y-108000000D03*
X95000000Y-55000000D03*
X86000000Y-66250000D03*
X109500000Y-60250000D03*
X106250000Y-58250000D03*
X219500000Y-90000000D03*
X192000000Y-126000000D03*
X87000000Y-141000000D03*
X99000000Y-120250000D03*
X219500000Y-121000000D03*
X118000000Y-59750000D03*
X194000000Y-68000000D03*
X197150000Y-115450000D03*
D24*
X146650000Y-141200000D03*
D23*
X208000000Y-56000000D03*
X164250000Y-129000000D03*
X177000000Y-71000000D03*
X155000000Y-75000000D03*
X171000000Y-93000000D03*
X87500000Y-65750000D03*
X215000000Y-137000000D03*
X217000000Y-57000000D03*
X96000000Y-76000000D03*
X176000000Y-56000000D03*
X125000000Y-105000000D03*
X96000000Y-56000000D03*
X82000000Y-60000000D03*
X174000000Y-76000000D03*
X189000000Y-63000000D03*
X109000000Y-60750000D03*
X127000000Y-109000000D03*
X224000000Y-72000000D03*
X104000000Y-58250000D03*
X164000000Y-54000000D03*
X219000000Y-143000000D03*
X93000000Y-115000000D03*
X192000000Y-142000000D03*
X194500000Y-126000000D03*
X137000000Y-111000000D03*
X157000000Y-67000000D03*
X166000000Y-74000000D03*
X207000000Y-67000000D03*
X134000000Y-110000000D03*
X190000000Y-138000000D03*
X171000000Y-143000000D03*
X108100000Y-97550000D03*
X223000000Y-143000000D03*
X204000000Y-78000000D03*
D24*
X119750000Y-128425000D03*
D23*
X141000000Y-123000000D03*
X131000000Y-73000000D03*
X223000000Y-83000000D03*
X146000000Y-96000000D03*
X84000000Y-86000000D03*
X81000000Y-69000000D03*
X87000000Y-61000000D03*
X111000000Y-57000000D03*
X149750000Y-104050000D03*
X225975000Y-100550000D03*
X194000000Y-58000000D03*
X86000000Y-60000000D03*
X225000000Y-87000000D03*
X84000000Y-94000000D03*
X218000000Y-138000000D03*
X109050000Y-97550000D03*
X186000000Y-64000000D03*
X170000000Y-94000000D03*
D24*
X117625000Y-118825000D03*
D23*
X100825000Y-101575000D03*
X164000000Y-60000000D03*
X218000000Y-130000000D03*
X164250000Y-131000000D03*
X176000000Y-78000000D03*
X223500000Y-116000000D03*
X226000000Y-130000000D03*
X118000000Y-56000000D03*
X208000000Y-66000000D03*
X172000000Y-82000000D03*
X164000000Y-78000000D03*
X180000000Y-56000000D03*
X95300000Y-82500000D03*
X139500000Y-67500000D03*
X149000000Y-54000000D03*
X129000000Y-111000000D03*
X208000000Y-142000000D03*
X145000000Y-108500000D03*
X136000000Y-110000000D03*
X211050000Y-124050000D03*
X99000000Y-143000000D03*
X157000000Y-65000000D03*
X86000000Y-92000000D03*
X222000000Y-100000000D03*
X190000000Y-82000000D03*
X210000000Y-102000000D03*
X172000000Y-58000000D03*
X221000000Y-99000000D03*
X215000000Y-65000000D03*
X101000000Y-57000000D03*
X119000000Y-89000000D03*
X169000000Y-77000000D03*
X148000000Y-58000000D03*
X81000000Y-145000000D03*
X220000000Y-136000000D03*
X85000000Y-99000000D03*
X180000000Y-64000000D03*
X198000000Y-56000000D03*
X209600000Y-88850000D03*
X86000000Y-108000000D03*
X81000000Y-91000000D03*
X93000000Y-89000000D03*
X192000000Y-89275000D03*
X216000000Y-62000000D03*
X117000000Y-145000000D03*
X97000000Y-141000000D03*
X221000000Y-111000000D03*
X90000000Y-120000000D03*
X138000000Y-84000000D03*
D24*
X147175000Y-79000000D03*
D23*
X130000000Y-134000000D03*
X156250000Y-138250000D03*
X160000000Y-130000000D03*
X134000000Y-84000000D03*
X114000000Y-142000000D03*
X197000000Y-81000000D03*
X140125000Y-78125000D03*
X113000000Y-141000000D03*
X113000000Y-57000000D03*
X160000000Y-135500000D03*
X95000000Y-103650000D03*
X166500000Y-109525000D03*
X186000000Y-58000000D03*
X197000000Y-61000000D03*
X78000000Y-60000000D03*
X192000000Y-128000000D03*
X99000000Y-55000000D03*
X193000000Y-67000000D03*
X147000000Y-95500000D03*
X183550000Y-85750000D03*
X161000000Y-138250000D03*
X218000000Y-66000000D03*
X214000000Y-138000000D03*
X184725000Y-124700000D03*
X152000000Y-68000000D03*
X223000000Y-81000000D03*
X136000000Y-91500000D03*
X86000000Y-100000000D03*
X147500000Y-90000000D03*
X210000000Y-60000000D03*
X105500000Y-58250000D03*
X125000000Y-60750000D03*
X97000000Y-145000000D03*
X213250000Y-124000000D03*
X225000000Y-83000000D03*
X177000000Y-57000000D03*
X213000000Y-69000000D03*
X221000000Y-143000000D03*
X132000000Y-134000000D03*
X223500000Y-121000000D03*
X153000000Y-81000000D03*
X107150000Y-97550000D03*
X103500000Y-58750000D03*
X82000000Y-90000000D03*
X159000000Y-77000000D03*
X195000000Y-75000000D03*
X201275000Y-128050000D03*
X127500000Y-103500000D03*
X146500000Y-62500000D03*
X191000000Y-95000000D03*
X202000000Y-66000000D03*
X156000000Y-102000000D03*
X149000000Y-73000000D03*
X134000000Y-144000000D03*
X76000000Y-54000000D03*
X198000000Y-68000000D03*
X181000000Y-65000000D03*
X213000000Y-123000000D03*
X221000000Y-97000000D03*
X125000000Y-73000000D03*
X197000000Y-141000000D03*
X110000000Y-97550000D03*
X217000000Y-139000000D03*
X152000000Y-56000000D03*
X213000000Y-71000000D03*
X203000000Y-103000000D03*
X215000000Y-107000000D03*
X165250000Y-131000000D03*
X112000000Y-146000000D03*
X214750000Y-89575000D03*
X150475000Y-129750000D03*
X162000000Y-146000000D03*
X126250000Y-139600000D03*
X218000000Y-122000000D03*
X161000000Y-69000000D03*
X192000000Y-56000000D03*
X210375000Y-84875000D03*
X143500000Y-77800000D03*
X217000000Y-59000000D03*
X223000000Y-139000000D03*
X156200000Y-131000000D03*
X212000000Y-60000000D03*
X165000000Y-59000000D03*
X85000000Y-91000000D03*
X77000000Y-87000000D03*
X83000000Y-91000000D03*
X136000000Y-54000000D03*
X141000000Y-108500000D03*
X194500000Y-140000000D03*
X106200000Y-101350000D03*
X112850000Y-79850000D03*
X90000000Y-124000000D03*
X194500000Y-141000000D03*
X224500000Y-86000000D03*
X138500000Y-68500000D03*
X108100000Y-101350000D03*
X178000000Y-82000000D03*
X94000000Y-88000000D03*
X200000000Y-82000000D03*
X123300000Y-127700000D03*
X223000000Y-125000000D03*
X218500000Y-124000000D03*
X211000000Y-103000000D03*
X222000000Y-84000000D03*
X88000000Y-56000000D03*
X196000000Y-68000000D03*
X93000000Y-59000000D03*
X125500000Y-60250000D03*
X193000000Y-69000000D03*
X96000000Y-112000000D03*
X180000000Y-54000000D03*
X194000000Y-64000000D03*
X200000000Y-74000000D03*
X123000000Y-59750000D03*
X149000000Y-81000000D03*
X92500000Y-64750000D03*
X95000000Y-102650000D03*
X84000000Y-108000000D03*
X145500000Y-79100000D03*
D24*
X84800000Y-141050000D03*
D23*
X186000000Y-54000000D03*
X224000000Y-104000000D03*
X110000000Y-59750000D03*
X184150000Y-122325000D03*
X89000000Y-145000000D03*
X80000000Y-78000000D03*
X204000000Y-144000000D03*
X124000000Y-60750000D03*
X153000000Y-67000000D03*
X225000000Y-133000000D03*
D24*
X153000000Y-131250000D03*
D23*
X219500000Y-107000000D03*
X179000000Y-63000000D03*
X214000000Y-62000000D03*
X154000000Y-84000000D03*
X204000000Y-56000000D03*
X135525000Y-120725000D03*
X217000000Y-121000000D03*
X89000000Y-107000000D03*
X86500000Y-67750000D03*
X196500000Y-124000000D03*
X197500000Y-124000000D03*
X223025000Y-100550000D03*
X183650000Y-138375000D03*
X204500000Y-134000000D03*
X76000000Y-64000000D03*
X218000000Y-128000000D03*
D24*
X118800000Y-133750000D03*
D23*
X198000000Y-74000000D03*
X115000000Y-60750000D03*
X184000000Y-54000000D03*
X196000000Y-88000000D03*
X219500000Y-101000000D03*
X190000000Y-132000000D03*
X222000000Y-146000000D03*
X218000000Y-78000000D03*
X200250000Y-129500000D03*
X189000000Y-69000000D03*
X161000000Y-73000000D03*
X94000000Y-142000000D03*
X103500000Y-59750000D03*
X155000000Y-57000000D03*
X86000000Y-68250000D03*
X217000000Y-85000000D03*
X192000000Y-92000000D03*
X178000000Y-74000000D03*
X131000000Y-135000000D03*
X78000000Y-64000000D03*
X216000000Y-58000000D03*
X74000000Y-62000000D03*
X89000000Y-111000000D03*
X94000000Y-144000000D03*
X167000000Y-75000000D03*
X144500000Y-68500000D03*
X194000000Y-56000000D03*
X125000000Y-59000000D03*
X101500000Y-59750000D03*
X145000000Y-97000000D03*
X132000000Y-112000000D03*
X136000000Y-90500000D03*
X182000000Y-78000000D03*
X138500000Y-66500000D03*
X195000000Y-93000000D03*
X212000000Y-62000000D03*
X167000000Y-55000000D03*
X92000000Y-94000000D03*
X201325000Y-83875000D03*
X75000000Y-73000000D03*
X208000000Y-86000000D03*
X171000000Y-75000000D03*
X216000000Y-68000000D03*
X108000000Y-54000000D03*
X122000000Y-88000000D03*
X114000000Y-88000000D03*
D24*
X168000000Y-114700000D03*
D23*
X89000000Y-57000000D03*
X209000000Y-111000000D03*
X112500000Y-60250000D03*
X89000000Y-141000000D03*
X106250000Y-64350000D03*
X222000000Y-98000000D03*
X82000000Y-76000000D03*
X218000000Y-82000000D03*
X200000000Y-136000000D03*
X118825000Y-123275000D03*
X81000000Y-73000000D03*
X188000000Y-72000000D03*
X214000000Y-102000000D03*
X140050000Y-101600000D03*
X122000000Y-103500000D03*
X116000000Y-59750000D03*
X99000000Y-59000000D03*
X92500000Y-61750000D03*
X226000000Y-80000000D03*
X176000000Y-58000000D03*
X85000000Y-85000000D03*
X162000000Y-76000000D03*
X161000000Y-61000000D03*
X179000000Y-67000000D03*
X114000000Y-58000000D03*
X172000000Y-102000000D03*
X131750000Y-78500000D03*
X160000000Y-66000000D03*
X210000000Y-140000000D03*
X157975000Y-146400000D03*
X198000000Y-80000000D03*
X103000000Y-83000000D03*
X129000000Y-133000000D03*
X200250000Y-125500000D03*
X192000000Y-82000000D03*
X84000000Y-76000000D03*
X132000000Y-106000000D03*
X127000000Y-87000000D03*
X95000000Y-93000000D03*
X121000000Y-60750000D03*
X100000000Y-60250000D03*
X217000000Y-91000000D03*
X200000000Y-134000000D03*
X202000000Y-56000000D03*
X120000000Y-112000000D03*
X218000000Y-60000000D03*
X183000000Y-101000000D03*
X196000000Y-74000000D03*
X131500000Y-103500000D03*
X138250000Y-79750000D03*
D24*
X136825000Y-78750000D03*
D23*
X88000000Y-110000000D03*
X139500000Y-66500000D03*
X193000000Y-99000000D03*
X211000000Y-139000000D03*
X126000000Y-70000000D03*
D24*
X147250000Y-140750000D03*
D23*
X81000000Y-87000000D03*
X176000000Y-74000000D03*
D24*
X130700000Y-126150000D03*
D23*
X194500000Y-142000000D03*
X95000000Y-145000000D03*
X209000000Y-117000000D03*
X115800000Y-97475000D03*
X194000000Y-96000000D03*
X218000000Y-84000000D03*
X219500000Y-94000000D03*
X121500000Y-60250000D03*
X223000000Y-91000000D03*
X86000000Y-106000000D03*
X213000000Y-113000000D03*
X216000000Y-112000000D03*
X107000000Y-55000000D03*
X198500000Y-124000000D03*
X198000000Y-70000000D03*
X158000000Y-102000000D03*
X192000000Y-54000000D03*
D24*
X83500000Y-117150000D03*
D23*
X202000000Y-136000000D03*
X149000000Y-74000000D03*
X152500000Y-138250000D03*
X152000000Y-54000000D03*
X165000000Y-81000000D03*
X174000000Y-82000000D03*
X161000000Y-55000000D03*
X163000000Y-137250000D03*
X192000000Y-64000000D03*
X93000000Y-91000000D03*
X209000000Y-75000000D03*
X96500000Y-59750000D03*
X201000000Y-67000000D03*
X139625000Y-78450000D03*
X132000000Y-132000000D03*
X211000000Y-137000000D03*
X150000000Y-90000000D03*
X220000000Y-78000000D03*
X199000000Y-67000000D03*
X226000000Y-102000000D03*
X165250000Y-129000000D03*
X75000000Y-59000000D03*
X199000000Y-57000000D03*
X186000000Y-60000000D03*
X185000000Y-59000000D03*
X215000000Y-93000000D03*
D25*
X82700000Y-141150000D03*
D23*
X162000000Y-133750000D03*
X176450000Y-123925000D03*
X160000000Y-68000000D03*
X171000000Y-97000000D03*
D24*
X106550000Y-130750000D03*
D23*
X162150000Y-96550000D03*
X194500000Y-143000000D03*
X160000000Y-56000000D03*
X79000000Y-73000000D03*
X225000000Y-135000000D03*
X175525000Y-87150000D03*
X138250000Y-82000000D03*
X162000000Y-54000000D03*
X100000000Y-58000000D03*
X150000000Y-94000000D03*
X156000000Y-66000000D03*
X109000000Y-58750000D03*
X191000000Y-67000000D03*
X197000000Y-85000000D03*
X214000000Y-108000000D03*
X143000000Y-121000000D03*
X133000000Y-109000000D03*
X224000000Y-102000000D03*
X187000000Y-139000000D03*
X107000000Y-57000000D03*
X220000000Y-128000000D03*
X118000000Y-146000000D03*
X166000000Y-84000000D03*
X107750000Y-58250000D03*
X187000000Y-63000000D03*
X135000000Y-105000000D03*
X83000000Y-85000000D03*
X185000000Y-63000000D03*
X208000000Y-54000000D03*
X146000000Y-106000000D03*
X177000000Y-81000000D03*
X110000000Y-99450000D03*
X186000000Y-68000000D03*
D24*
X118100000Y-132250000D03*
D23*
X100000000Y-76000000D03*
X144000000Y-78125000D03*
X215000000Y-69000000D03*
X101000000Y-60250000D03*
X176000000Y-102000000D03*
D24*
X95450000Y-71600000D03*
D23*
X149000000Y-111000000D03*
X116000000Y-104000000D03*
X221000000Y-119000000D03*
X212000000Y-58000000D03*
X195000000Y-97000000D03*
X194500000Y-137000000D03*
X138625000Y-79100000D03*
X118000000Y-58000000D03*
D24*
X116900000Y-118825000D03*
D23*
X86000000Y-62000000D03*
X200000000Y-139000000D03*
X77000000Y-55000000D03*
X84000000Y-96000000D03*
X141000000Y-83000000D03*
X219000000Y-125000000D03*
X94000000Y-92000000D03*
X196000000Y-94000000D03*
X209000000Y-57000000D03*
X97000000Y-75000000D03*
X224000000Y-122000000D03*
X194000000Y-104000000D03*
X197225000Y-124650000D03*
X117000000Y-59000000D03*
X108500000Y-58250000D03*
X205000000Y-143000000D03*
X221000000Y-105000000D03*
X199000000Y-65000000D03*
X219500000Y-111000000D03*
X192000000Y-68000000D03*
X200000000Y-60000000D03*
X102000000Y-56000000D03*
X109727800Y-90075000D03*
X102401731Y-91551474D03*
X100000000Y-78000000D03*
X190000000Y-140000000D03*
X137000000Y-87000000D03*
X225975000Y-120050000D03*
X128000000Y-104000000D03*
X144500000Y-78450000D03*
X167850000Y-112500000D03*
X138950000Y-101600000D03*
X114000000Y-129000000D03*
X93000000Y-61250000D03*
X132000000Y-102000000D03*
X209000000Y-107000000D03*
X176000000Y-54000000D03*
D24*
X196175000Y-131675000D03*
D23*
X217000000Y-137000000D03*
X204000000Y-64000000D03*
X194000000Y-60000000D03*
X100000000Y-80000000D03*
X104000000Y-90000000D03*
X194000000Y-72000000D03*
D24*
X148050000Y-126875000D03*
D23*
X127000000Y-89000000D03*
X129000000Y-131000000D03*
X223000000Y-103000000D03*
X99000000Y-60250000D03*
X95500000Y-60750000D03*
X145750000Y-81250000D03*
X136000000Y-88500000D03*
X78000000Y-90000000D03*
X122000000Y-54000000D03*
X190000000Y-104000000D03*
X149000000Y-77000000D03*
X213000000Y-135000000D03*
X132000000Y-114000000D03*
D24*
X108600000Y-104850000D03*
D23*
X170750000Y-83425000D03*
X99000000Y-145000000D03*
X185000000Y-69000000D03*
X200000000Y-64000000D03*
X163000000Y-135500000D03*
X87000000Y-63000000D03*
X165000000Y-79000000D03*
X213000000Y-65000000D03*
X82000000Y-112000000D03*
X163000000Y-55000000D03*
X92000000Y-110000000D03*
X174000000Y-74000000D03*
X84000000Y-54000000D03*
X95000000Y-91000000D03*
X207000000Y-83000000D03*
X128000000Y-132000000D03*
X100655000Y-99900000D03*
X177000000Y-75000000D03*
X161000000Y-139250000D03*
X98500000Y-59750000D03*
X218000000Y-80000000D03*
X86000000Y-146000000D03*
X214000000Y-60000000D03*
X164000000Y-58000000D03*
X163000000Y-139250000D03*
X125000000Y-85000000D03*
X159000000Y-129000000D03*
X171000000Y-81000000D03*
X198000000Y-96000000D03*
X189000000Y-75000000D03*
X112000000Y-60750000D03*
X194000000Y-54000000D03*
X104000000Y-144000000D03*
X202650000Y-115450000D03*
X213000000Y-141000000D03*
X88000000Y-64000000D03*
X83000000Y-83000000D03*
X173750000Y-141500000D03*
X183000000Y-65000000D03*
X188000000Y-62000000D03*
X196250000Y-106900000D03*
X76550000Y-102975000D03*
D25*
X80700000Y-118000000D03*
D23*
X146000000Y-108000000D03*
X121000000Y-55000000D03*
X221000000Y-123000000D03*
X145000000Y-83000000D03*
X81000000Y-75000000D03*
X160000000Y-146000000D03*
X88500000Y-65750000D03*
X191000000Y-55000000D03*
D24*
X97200000Y-71600000D03*
D23*
X149000000Y-86500000D03*
D24*
X139950000Y-105300000D03*
D23*
X191000000Y-135000000D03*
X215000000Y-81000000D03*
X80000000Y-60000000D03*
X145000000Y-107000000D03*
X199000000Y-61000000D03*
X189000000Y-137000000D03*
X86000000Y-118000000D03*
X153000000Y-73000000D03*
X223000000Y-79000000D03*
X134050000Y-90900000D03*
X219500000Y-100000000D03*
X195000000Y-79000000D03*
X199000000Y-139000000D03*
X87000000Y-111000000D03*
X223000000Y-77000000D03*
X204000000Y-146000000D03*
X89000000Y-143000000D03*
X180000000Y-100000000D03*
X130000000Y-106000000D03*
X106000000Y-56000000D03*
X176000000Y-104000000D03*
X106250000Y-63500000D03*
X190000000Y-60000000D03*
X147000000Y-57000000D03*
X219500000Y-98000000D03*
X132000000Y-104000000D03*
X77000000Y-93000000D03*
X176000000Y-76000000D03*
X155000000Y-63000000D03*
X178000000Y-64000000D03*
X164000000Y-138250000D03*
X87000000Y-59000000D03*
X181175000Y-118700000D03*
X204000000Y-54000000D03*
X198000000Y-84000000D03*
X88000000Y-140000000D03*
X112000000Y-56000000D03*
X124000000Y-59750000D03*
X208000000Y-78000000D03*
X97000000Y-59000000D03*
D24*
X212850000Y-127125000D03*
D23*
X193000000Y-133000000D03*
X217000000Y-97000000D03*
X116000000Y-54000000D03*
X195000000Y-69000000D03*
X118000000Y-110000000D03*
X147500000Y-88000000D03*
X120000000Y-88000000D03*
X117000000Y-59750000D03*
X162000000Y-56000000D03*
X101000000Y-55000000D03*
X188000000Y-132000000D03*
X149000000Y-56000000D03*
X76000000Y-86000000D03*
X219500000Y-117000000D03*
X152825000Y-93225000D03*
X90000000Y-118000000D03*
X132500000Y-103500000D03*
X193000000Y-135000000D03*
X91000000Y-91000000D03*
X149000000Y-65000000D03*
X160000000Y-141975000D03*
X128000000Y-56000000D03*
X156000000Y-78000000D03*
X109050000Y-100400000D03*
X191000000Y-79000000D03*
X159000000Y-131000000D03*
X225000000Y-109000000D03*
X220000000Y-84000000D03*
X165000000Y-77000000D03*
X149000000Y-91000000D03*
X168000000Y-76000000D03*
X109000000Y-59750000D03*
X194500000Y-138000000D03*
X192000000Y-74000000D03*
X88000000Y-60000000D03*
X218000000Y-146000000D03*
X167000000Y-91000000D03*
X213000000Y-107000000D03*
X138500000Y-71500000D03*
X152000000Y-70000000D03*
X145000000Y-82100000D03*
X181250000Y-132950000D03*
X170000000Y-82000000D03*
X185000000Y-61000000D03*
X128000000Y-128000000D03*
D24*
X98075000Y-71600000D03*
D23*
X221000000Y-103000000D03*
X120500000Y-60250000D03*
X92500000Y-65750000D03*
X226500000Y-86000000D03*
X98000000Y-54000000D03*
X160000000Y-64000000D03*
X95000000Y-104650000D03*
X194000000Y-122000000D03*
X141250000Y-82100000D03*
X101000000Y-85000000D03*
X171000000Y-91000000D03*
X114000000Y-60750000D03*
X211000000Y-141000000D03*
X86000000Y-140000000D03*
X213000000Y-109000000D03*
X201000000Y-59000000D03*
X190750000Y-107000000D03*
X145500000Y-67500000D03*
X75000000Y-81000000D03*
X87000000Y-57000000D03*
X219000000Y-85000000D03*
X97000000Y-73000000D03*
X142000000Y-108500000D03*
X154875000Y-120750000D03*
X96000000Y-54000000D03*
X161000000Y-79000000D03*
X210000000Y-58000000D03*
X94000000Y-56000000D03*
X168000000Y-102000000D03*
X120750000Y-91000000D03*
X225000000Y-131000000D03*
X212000000Y-138000000D03*
X90000000Y-128000000D03*
X92000000Y-65250000D03*
X116000000Y-88000000D03*
X99300000Y-84050000D03*
X202000000Y-68000000D03*
X149000000Y-83000000D03*
X208000000Y-112000000D03*
X217000000Y-95000000D03*
X205250000Y-104150000D03*
X164000000Y-56000000D03*
X205000000Y-79000000D03*
X194500000Y-124000000D03*
X89000000Y-59000000D03*
X81000000Y-67000000D03*
X200250000Y-126500000D03*
X166000000Y-90000000D03*
X211000000Y-65000000D03*
X136000000Y-108000000D03*
X214000000Y-64000000D03*
X208000000Y-130500000D03*
X77000000Y-63000000D03*
X90000000Y-62000000D03*
X128000000Y-54000000D03*
X191000000Y-129000000D03*
X98000000Y-90000000D03*
X190000000Y-66000000D03*
D24*
X145325000Y-78000000D03*
D23*
X114225000Y-68900000D03*
X186000000Y-74000000D03*
X86500000Y-68750000D03*
X185000000Y-65000000D03*
X194500000Y-128000000D03*
X87000000Y-115000000D03*
X202750000Y-104100000D03*
X176000000Y-120000000D03*
X196000000Y-96000000D03*
X183000000Y-55000000D03*
X221000000Y-91000000D03*
X98250000Y-119500000D03*
X151525000Y-87150000D03*
X148025000Y-137500000D03*
X188000000Y-138000000D03*
X210000000Y-142000000D03*
X121875000Y-138225000D03*
X216000000Y-102000000D03*
X125000000Y-113000000D03*
X196000000Y-70000000D03*
X159000000Y-111000000D03*
X188000000Y-60000000D03*
X190000000Y-130000000D03*
D24*
X136905000Y-139200000D03*
D23*
X206300000Y-92500000D03*
X199000000Y-71000000D03*
X116500000Y-60250000D03*
X76000000Y-56000000D03*
X178000000Y-58000000D03*
X191000000Y-125000000D03*
X209000000Y-113000000D03*
X79000000Y-113000000D03*
X99385000Y-99900000D03*
X219000000Y-81000000D03*
X122000000Y-56000000D03*
X165250000Y-130000000D03*
X177000000Y-69000000D03*
X215500000Y-124000000D03*
X191000000Y-133000000D03*
X164000000Y-72000000D03*
X202000000Y-70000000D03*
X196000000Y-112000000D03*
X176000000Y-60000000D03*
X185000000Y-131000000D03*
X167250000Y-131000000D03*
X105500000Y-116000000D03*
X81000000Y-55000000D03*
X95000000Y-79000000D03*
X192000000Y-96000000D03*
X169000000Y-93000000D03*
X193000000Y-127000000D03*
X179000000Y-69000000D03*
X192000000Y-58000000D03*
X216000000Y-90000000D03*
X193000000Y-114350000D03*
X189000000Y-133000000D03*
X139000000Y-108500000D03*
X86000000Y-96000000D03*
D24*
X100700000Y-71600000D03*
D23*
X131000000Y-105000000D03*
X96845000Y-99900000D03*
X101000000Y-77000000D03*
X177000000Y-141000000D03*
X171000000Y-95000000D03*
X81000000Y-85000000D03*
X176000000Y-142000000D03*
X206800000Y-84575000D03*
X95000000Y-59000000D03*
X159000000Y-79000000D03*
X196000000Y-140000000D03*
X81000000Y-61000000D03*
X149000000Y-60000000D03*
X166000000Y-76000000D03*
X108000000Y-144000000D03*
D26*
X110825000Y-68975000D03*
D23*
X217000000Y-77000000D03*
X223000000Y-131000000D03*
X201000000Y-55000000D03*
X185000000Y-142275000D03*
X161000000Y-59000000D03*
X195000000Y-61000000D03*
X136500000Y-88000000D03*
X107150000Y-98500000D03*
X218000000Y-86000000D03*
X216000000Y-108000000D03*
X194000000Y-62000000D03*
X165250000Y-126250000D03*
X213250000Y-104150000D03*
X169000000Y-75000000D03*
X154875000Y-113525000D03*
X190000000Y-72000000D03*
X131000000Y-133000000D03*
X98115000Y-99900000D03*
X128675000Y-91800000D03*
X224500000Y-101500000D03*
X111525000Y-111075000D03*
X108100000Y-111225000D03*
X193000000Y-137000000D03*
X154000000Y-82000000D03*
X136000000Y-86000000D03*
X142750000Y-82100000D03*
X100000000Y-56000000D03*
X167000000Y-79000000D03*
X222000000Y-78000000D03*
X194000000Y-78000000D03*
X85000000Y-107000000D03*
X84000000Y-112000000D03*
D24*
X212850000Y-128500000D03*
D23*
X209000000Y-143000000D03*
X83000000Y-89000000D03*
D24*
X111450000Y-76925000D03*
D23*
X158300000Y-92525000D03*
X85000000Y-87000000D03*
X92000000Y-112000000D03*
X168500000Y-112500000D03*
X81000000Y-57000000D03*
X122000000Y-110000000D03*
X190000000Y-120000000D03*
X147000000Y-59000000D03*
X193000000Y-115000000D03*
X121000000Y-109000000D03*
X93000000Y-79000000D03*
X82000000Y-58000000D03*
X224000000Y-80000000D03*
X166000000Y-100000000D03*
X172000000Y-88000000D03*
X113000000Y-55000000D03*
X148650000Y-104050000D03*
X188000000Y-54000000D03*
X97000000Y-79000000D03*
X209000000Y-145000000D03*
X138500000Y-62500000D03*
X112000000Y-59750000D03*
X123000000Y-111000000D03*
X187000000Y-55000000D03*
X91000000Y-59000000D03*
X149000000Y-79000000D03*
X134000000Y-104000000D03*
X152000000Y-58000000D03*
X142000000Y-73750000D03*
X190000000Y-62000000D03*
X219500000Y-113000000D03*
X111500000Y-60250000D03*
X184000000Y-68000000D03*
X162000000Y-78000000D03*
X203000000Y-69000000D03*
X200000000Y-135000000D03*
X135000000Y-111000000D03*
X207000000Y-113000000D03*
X83000000Y-57000000D03*
X83000000Y-81000000D03*
X102000000Y-88000000D03*
X208000000Y-64000000D03*
X219000000Y-139000000D03*
X155000000Y-65000000D03*
X200000000Y-72000000D03*
X179850000Y-121687500D03*
X105000000Y-55000000D03*
X125000000Y-109000000D03*
X163000000Y-71000000D03*
X94000000Y-58000000D03*
X74000000Y-86000000D03*
X101000000Y-145000000D03*
X76000000Y-62000000D03*
X185000000Y-55000000D03*
X194000000Y-82000000D03*
X124000000Y-110000000D03*
X193000000Y-105000000D03*
X218000000Y-136000000D03*
X159500000Y-118025000D03*
X156250000Y-139250000D03*
X194500000Y-133000000D03*
X195000000Y-65000000D03*
D24*
X170075000Y-141925000D03*
D23*
X219500000Y-106000000D03*
X139000000Y-82100000D03*
X86000000Y-116000000D03*
X95000000Y-119000000D03*
X174000000Y-56000000D03*
X136500000Y-90000000D03*
X86000000Y-58000000D03*
X98000000Y-144000000D03*
X114000000Y-56000000D03*
X114500000Y-60250000D03*
X219500000Y-122000000D03*
X221000000Y-133000000D03*
X115800000Y-96850000D03*
X215000000Y-143000000D03*
X144000000Y-110000000D03*
X179750000Y-106950000D03*
X166925000Y-85125000D03*
X189000000Y-67000000D03*
X106200000Y-98500000D03*
X132000000Y-136000000D03*
X186000000Y-66000000D03*
X137000000Y-108500000D03*
X226500000Y-101500000D03*
X173750000Y-139875000D03*
X86000000Y-88000000D03*
X113000000Y-143000000D03*
X219500000Y-87000000D03*
X116000000Y-144000000D03*
X219000000Y-135000000D03*
X92000000Y-114000000D03*
X149000000Y-59000000D03*
X110475000Y-81500000D03*
X123000000Y-60750000D03*
X195000000Y-73000000D03*
X179000000Y-65000000D03*
X145750000Y-80500000D03*
X225000000Y-105000000D03*
X212000000Y-89275000D03*
X200000000Y-80000000D03*
X152000000Y-86000000D03*
X159000000Y-55000000D03*
X180750000Y-106950000D03*
X140625000Y-77800000D03*
X169000000Y-81000000D03*
X93000000Y-64250000D03*
X126000000Y-88000000D03*
X212000000Y-56000000D03*
X167000000Y-77000000D03*
X198000000Y-112000000D03*
X126000000Y-83000000D03*
X155000000Y-77000000D03*
X178000000Y-68000000D03*
X182000000Y-68000000D03*
X75000000Y-79000000D03*
X167650000Y-134650000D03*
X209000000Y-59000000D03*
X137500000Y-108000000D03*
X198000000Y-60000000D03*
X129000000Y-105000000D03*
X84000000Y-58000000D03*
X210000000Y-78000000D03*
X187000000Y-75000000D03*
X78000000Y-56000000D03*
X125000000Y-119000000D03*
X148000000Y-88500000D03*
X196000000Y-64000000D03*
D24*
X82000000Y-117150000D03*
D23*
X196000000Y-72000000D03*
X126000000Y-114000000D03*
X113000000Y-115000000D03*
X85000000Y-115000000D03*
X161000000Y-65000000D03*
X221000000Y-145000000D03*
X96000000Y-58000000D03*
X191000000Y-63000000D03*
X126000000Y-54000000D03*
X130500000Y-103500000D03*
X127000000Y-82000000D03*
X155000000Y-69000000D03*
X76000000Y-60000000D03*
X142000000Y-84000000D03*
X219500000Y-112000000D03*
X88000000Y-62000000D03*
X97000000Y-89000000D03*
X123000000Y-87000000D03*
X102550000Y-68650000D03*
D24*
X151225000Y-123550000D03*
D23*
X135000000Y-117000000D03*
X215000000Y-141000000D03*
X214000000Y-66000000D03*
X188000000Y-68000000D03*
X75000000Y-63000000D03*
X159000000Y-67000000D03*
X218000000Y-134000000D03*
X112850000Y-105100000D03*
X169000000Y-55000000D03*
X179300000Y-86000000D03*
D25*
X82700000Y-139700000D03*
D23*
X201000000Y-65000000D03*
X144250000Y-82100000D03*
X219500000Y-99000000D03*
X105100000Y-88800000D03*
X218000000Y-142000000D03*
X204625000Y-130175000D03*
X99000000Y-79000000D03*
D24*
X98725000Y-105750000D03*
D23*
X205000000Y-107000000D03*
X216000000Y-66000000D03*
X200000000Y-138000000D03*
X191000000Y-137000000D03*
X96000000Y-82000000D03*
X191000000Y-121000000D03*
X191000000Y-143000000D03*
X219000000Y-83000000D03*
X203000000Y-75000000D03*
X226000000Y-134000000D03*
X77000000Y-91000000D03*
X194750000Y-89575000D03*
X219500000Y-93000000D03*
X213000000Y-143000000D03*
X195750000Y-125600000D03*
X154000000Y-62000000D03*
X85000000Y-95000000D03*
X190000000Y-74000000D03*
X214000000Y-70000000D03*
X225000000Y-71000000D03*
X133500000Y-103500000D03*
X117000000Y-85000000D03*
X83000000Y-113000000D03*
X120100000Y-91500000D03*
X213000000Y-137000000D03*
X108000000Y-142000000D03*
X116000000Y-58000000D03*
X110500000Y-60250000D03*
X176000000Y-82000000D03*
X149000000Y-61000000D03*
X99000000Y-77000000D03*
X78000000Y-78000000D03*
X147500000Y-93000000D03*
X224000000Y-132000000D03*
X149000000Y-107000000D03*
X200000000Y-66000000D03*
X131450000Y-90350000D03*
X153000000Y-65000000D03*
X77000000Y-111000000D03*
X145000000Y-93000000D03*
X201325000Y-85275000D03*
X94000000Y-116000000D03*
X163000000Y-81000000D03*
X111000000Y-60750000D03*
X146000000Y-100000000D03*
X169000000Y-57000000D03*
X97000000Y-77000000D03*
X211000000Y-73000000D03*
X200000000Y-137000000D03*
X74000000Y-66000000D03*
X222000000Y-80000000D03*
X222000000Y-82000000D03*
X224000000Y-134000000D03*
X81000000Y-113000000D03*
X119000000Y-91000000D03*
X219500000Y-116000000D03*
X102000000Y-58000000D03*
X79000000Y-91000000D03*
X112000000Y-144000000D03*
X74000000Y-74000000D03*
X178000000Y-84000000D03*
X158775000Y-145925000D03*
X90000000Y-110000000D03*
X194500000Y-134000000D03*
X214000000Y-140000000D03*
X184000000Y-66000000D03*
D24*
X104800000Y-120175000D03*
D23*
X126000000Y-106000000D03*
X155000000Y-111000000D03*
X75000000Y-85000000D03*
X214750000Y-104150000D03*
X139500000Y-68500000D03*
X87000000Y-65250000D03*
X149000000Y-71000000D03*
X219500000Y-119000000D03*
X146000000Y-98000000D03*
X103000000Y-145000000D03*
X110000000Y-98500000D03*
X86000000Y-78000000D03*
X216000000Y-116000000D03*
X218000000Y-64000000D03*
X126000000Y-60750000D03*
X129000000Y-115000000D03*
X148000000Y-95500000D03*
X208000000Y-80000000D03*
X161000000Y-77000000D03*
X124000000Y-103500000D03*
X222000000Y-97000000D03*
X211000000Y-59000000D03*
X139800000Y-119225000D03*
X206000000Y-64000000D03*
X147000000Y-83000000D03*
X153000000Y-55000000D03*
X216000000Y-142000000D03*
X182000000Y-54000000D03*
X148000000Y-94500000D03*
X113000000Y-87000000D03*
X106750000Y-63900000D03*
X145000000Y-89000000D03*
X114000000Y-144000000D03*
X212000000Y-146000000D03*
X189000000Y-129000000D03*
X197000000Y-79000000D03*
X178000000Y-54000000D03*
X205000000Y-55000000D03*
X93000000Y-95000000D03*
X195000000Y-67000000D03*
X151000000Y-142500000D03*
X100000000Y-54000000D03*
X183500000Y-126600000D03*
X213675000Y-71000000D03*
X188000000Y-56000000D03*
X191000000Y-93000000D03*
X95000000Y-141000000D03*
X173000000Y-81000000D03*
X198000000Y-94000000D03*
X208000000Y-84000000D03*
X169325000Y-133675000D03*
X193000000Y-55000000D03*
X190000000Y-136000000D03*
D24*
X98950000Y-71600000D03*
D23*
X120000000Y-59750000D03*
X145500000Y-66500000D03*
X115000000Y-59000000D03*
X91500000Y-65750000D03*
X88000000Y-76000000D03*
X177000000Y-143000000D03*
X172000000Y-84000000D03*
X147500000Y-95000000D03*
X79000000Y-85000000D03*
X198700000Y-125600000D03*
X132000000Y-70000000D03*
X80000000Y-146000000D03*
X97500000Y-120250000D03*
X116000000Y-142000000D03*
X217500000Y-124000000D03*
X222000000Y-116500000D03*
X116000000Y-129000000D03*
D24*
X110825000Y-117700000D03*
D23*
X145000000Y-78775000D03*
X195000000Y-95000000D03*
X129000000Y-85000000D03*
X194000000Y-94000000D03*
X149000000Y-67000000D03*
X94500000Y-60750000D03*
X82000000Y-56000000D03*
X129000000Y-129000000D03*
X160000000Y-131000000D03*
X148000000Y-90500000D03*
X209000000Y-67000000D03*
X139000000Y-83000000D03*
X194000000Y-114000000D03*
X187000000Y-133000000D03*
X226000000Y-82000000D03*
X92175000Y-99725000D03*
X112000000Y-142000000D03*
X138000000Y-110000000D03*
X92000000Y-142000000D03*
X219500000Y-88000000D03*
X225500000Y-101500000D03*
X80000000Y-74000000D03*
X190000000Y-134000000D03*
X85000000Y-81000000D03*
X150000000Y-88000000D03*
X94500000Y-59750000D03*
X137000000Y-83000000D03*
X177000000Y-83000000D03*
X164250000Y-126250000D03*
X150975000Y-143825000D03*
X178000000Y-70000000D03*
X220000000Y-82000000D03*
X132025000Y-120850000D03*
X191150000Y-121687500D03*
X148000000Y-60000000D03*
X225000000Y-79000000D03*
X145500000Y-62500000D03*
X153500000Y-137250000D03*
X78000000Y-92000000D03*
X222500000Y-116000000D03*
X138950000Y-102700000D03*
X179000000Y-79000000D03*
X138500000Y-69500000D03*
X209000000Y-141000000D03*
X86000000Y-54000000D03*
X192000000Y-132000000D03*
X196000000Y-66000000D03*
X176750000Y-106950000D03*
X168000000Y-54000000D03*
D24*
X101825000Y-115500000D03*
D23*
X197000000Y-65000000D03*
X170000000Y-76000000D03*
X214000000Y-112000000D03*
X208000000Y-144000000D03*
X112025000Y-81500000D03*
X217000000Y-63000000D03*
X221000000Y-85000000D03*
X132000000Y-100000000D03*
D24*
X88900000Y-106050000D03*
D23*
X138075000Y-78825000D03*
X218000000Y-140000000D03*
X100000000Y-90000000D03*
X222000000Y-140000000D03*
X77000000Y-83000000D03*
X156200000Y-130000000D03*
X87000000Y-107000000D03*
X89000000Y-61000000D03*
X129000000Y-70000000D03*
X172000000Y-56000000D03*
X197000000Y-83000000D03*
X222000000Y-106000000D03*
X98000000Y-146000000D03*
X143000000Y-141000000D03*
X175525000Y-84850000D03*
X138250000Y-81250000D03*
X159550000Y-85750000D03*
X208225000Y-123025000D03*
X137350000Y-80750000D03*
X89000000Y-113000000D03*
X197000000Y-69000000D03*
X190000000Y-78000000D03*
X218000000Y-144000000D03*
X176000000Y-84000000D03*
X124125000Y-125525000D03*
X110000000Y-60750000D03*
X219500000Y-115000000D03*
X105000000Y-143000000D03*
X165000000Y-75000000D03*
X86000000Y-82000000D03*
X162000000Y-62000000D03*
X98000000Y-78000000D03*
X149000000Y-70000000D03*
D24*
X119150000Y-69850000D03*
D23*
X189000000Y-71000000D03*
X222000000Y-132000000D03*
X110000000Y-54000000D03*
X83000000Y-115000000D03*
X91000000Y-121000000D03*
X80000000Y-144000000D03*
X224000000Y-130000000D03*
X184000000Y-64000000D03*
X170000000Y-80000000D03*
X200000000Y-54000000D03*
X201000000Y-101000000D03*
X122500000Y-60250000D03*
X218000000Y-120000000D03*
X198700000Y-137725000D03*
X194000000Y-92000000D03*
X94000000Y-82000000D03*
X123000000Y-109000000D03*
X205000000Y-111000000D03*
X94000000Y-60250000D03*
X209375000Y-124000000D03*
X188000000Y-74000000D03*
X154000000Y-66000000D03*
X196000000Y-82000000D03*
X195500000Y-124000000D03*
X199000000Y-83000000D03*
X199000000Y-63000000D03*
X161000000Y-137250000D03*
X124000000Y-82000000D03*
X140000000Y-110000000D03*
X103000000Y-55000000D03*
X196000000Y-56000000D03*
D24*
X99825000Y-71600000D03*
D23*
X91750000Y-101750000D03*
X162000000Y-139250000D03*
X145000000Y-111000000D03*
X172000000Y-76000000D03*
X197000000Y-55000000D03*
X214000000Y-100000000D03*
X192000000Y-102000000D03*
X217000000Y-79000000D03*
X192000000Y-62000000D03*
X192000000Y-140000000D03*
X97000000Y-55000000D03*
X149000000Y-72000000D03*
X99750000Y-120250000D03*
X224000000Y-78000000D03*
X211000000Y-67000000D03*
X136000000Y-133750000D03*
X129000000Y-87000000D03*
X191000000Y-127000000D03*
X124000000Y-86000000D03*
X215000000Y-111000000D03*
X130925000Y-119425000D03*
X195000000Y-57000000D03*
X223000000Y-85000000D03*
X194500000Y-135000000D03*
X219500000Y-86000000D03*
D24*
X171900000Y-119900000D03*
D23*
X221000000Y-115000000D03*
X186000000Y-62000000D03*
X99500000Y-59750000D03*
X183000000Y-67000000D03*
X163000000Y-77000000D03*
X147000000Y-61000000D03*
X126000000Y-112000000D03*
X76000000Y-84000000D03*
X115000000Y-59750000D03*
X192000000Y-84000000D03*
X221000000Y-81000000D03*
X101600000Y-91550000D03*
X215000000Y-57000000D03*
X172000000Y-94000000D03*
X211000000Y-63000000D03*
X194500000Y-127000000D03*
X103000000Y-141000000D03*
X162000000Y-72000000D03*
X202000000Y-146000000D03*
X140050000Y-103800000D03*
X138500000Y-108000000D03*
X93000000Y-113000000D03*
X222000000Y-122000000D03*
X190000000Y-126000000D03*
X139125000Y-78775000D03*
D24*
X136125000Y-104575000D03*
D23*
X175000000Y-143000000D03*
X109000000Y-57000000D03*
X195750000Y-137725000D03*
X212000000Y-64000000D03*
X90000000Y-60000000D03*
X92500000Y-62750000D03*
X182000000Y-64000000D03*
X191000000Y-61000000D03*
X219500000Y-103000000D03*
X202550000Y-124475000D03*
X120000000Y-60750000D03*
X144500000Y-69500000D03*
D24*
X116175000Y-118825000D03*
D23*
X136000000Y-84000000D03*
X108100000Y-100400000D03*
X178000000Y-62000000D03*
X140500000Y-82100000D03*
X210500000Y-96600000D03*
X100000000Y-146000000D03*
X156000000Y-80000000D03*
X219500000Y-95000000D03*
X216000000Y-60000000D03*
X225000000Y-85000000D03*
X165250000Y-132000000D03*
X145075000Y-123500000D03*
X189000000Y-57000000D03*
X151000000Y-111000000D03*
X118500000Y-60250000D03*
X117000000Y-60750000D03*
X199000000Y-55000000D03*
X169150000Y-112500000D03*
X222000000Y-128000000D03*
X158000000Y-78000000D03*
X170750000Y-89575000D03*
X144500000Y-62500000D03*
X213675000Y-76000000D03*
X161000000Y-75000000D03*
X182750000Y-106950000D03*
X222500000Y-101500000D03*
X104750000Y-58250000D03*
X219500000Y-105000000D03*
X153300000Y-132300000D03*
X119000000Y-143000000D03*
X197000000Y-67000000D03*
X147500000Y-94000000D03*
X158000000Y-54000000D03*
X127000000Y-111000000D03*
X224000000Y-82000000D03*
X115000000Y-141000000D03*
X166000000Y-78000000D03*
X215000000Y-63000000D03*
X191000000Y-83000000D03*
X106200000Y-97550000D03*
X164250000Y-130000000D03*
X200000000Y-58000000D03*
X220000000Y-142000000D03*
X125000000Y-55000000D03*
X83000000Y-79000000D03*
X188000000Y-58000000D03*
X197000000Y-73000000D03*
X77000000Y-69000000D03*
X80000000Y-72000000D03*
X151525000Y-84850000D03*
X77000000Y-73000000D03*
X199000000Y-79000000D03*
X204000000Y-68000000D03*
X113000000Y-59000000D03*
X152825000Y-91825000D03*
X219500000Y-104000000D03*
X163000000Y-61000000D03*
X140050000Y-102700000D03*
X219000000Y-137000000D03*
X86000000Y-64000000D03*
X204000000Y-66000000D03*
X215000000Y-95000000D03*
X146000000Y-54000000D03*
X150000000Y-92000000D03*
X120100000Y-92250000D03*
X149000000Y-66000000D03*
X209000000Y-55000000D03*
X218000000Y-58000000D03*
X143500000Y-82100000D03*
X208000000Y-68000000D03*
X185000000Y-75000000D03*
X118000000Y-60750000D03*
X154250000Y-107000000D03*
X194000000Y-98000000D03*
X125000000Y-89000000D03*
X207000000Y-141000000D03*
X113500000Y-60250000D03*
X100500000Y-59750000D03*
X136250000Y-99375000D03*
X104000000Y-54000000D03*
X170000000Y-56000000D03*
X149000000Y-63000000D03*
X79000000Y-79000000D03*
X173000000Y-79000000D03*
X163250000Y-130000000D03*
X145500000Y-69500000D03*
X90000000Y-112000000D03*
X207000000Y-111000000D03*
X226000000Y-92000000D03*
X175250000Y-106975000D03*
X221000000Y-79000000D03*
X143500000Y-62500000D03*
D24*
X112396447Y-76258553D03*
D23*
X218000000Y-88000000D03*
X176000000Y-72000000D03*
X108100000Y-98500000D03*
X106000000Y-54000000D03*
X225000000Y-89000000D03*
X123000000Y-85000000D03*
X200750000Y-106900000D03*
X220000000Y-80000000D03*
X91000000Y-123000000D03*
X95500000Y-85500000D03*
X152500000Y-118025000D03*
X187000000Y-59000000D03*
X132000000Y-144000000D03*
X119500000Y-60250000D03*
D24*
X145050000Y-98950000D03*
D23*
X226000000Y-78000000D03*
X85000000Y-75000000D03*
X192000000Y-138000000D03*
X170000000Y-74000000D03*
X190000000Y-128000000D03*
X124500000Y-60250000D03*
X120000000Y-144000000D03*
X96000000Y-80000000D03*
D24*
X100125000Y-105700000D03*
D23*
X185000000Y-67000000D03*
X200250000Y-128500000D03*
X193000000Y-141000000D03*
X201000000Y-111000000D03*
X218000000Y-70000000D03*
X189600000Y-88850000D03*
X202000000Y-64000000D03*
X153000000Y-63000000D03*
X95000000Y-143000000D03*
X118325000Y-136900000D03*
X190000000Y-58000000D03*
X147000000Y-81000000D03*
X128000000Y-86000000D03*
X223000000Y-133000000D03*
X194750000Y-83425000D03*
X90000000Y-58000000D03*
X223000000Y-135000000D03*
X186000000Y-134000000D03*
X96000000Y-92000000D03*
X132000000Y-54000000D03*
X212000000Y-66000000D03*
X160000000Y-78000000D03*
X137000000Y-117000000D03*
X80000000Y-56000000D03*
X221000000Y-121000000D03*
X148000000Y-89500000D03*
X184000000Y-78000000D03*
X96000000Y-144000000D03*
X221000000Y-77000000D03*
X221000000Y-117000000D03*
X133000000Y-121000000D03*
X138500000Y-72500000D03*
X198000000Y-139000000D03*
X210000000Y-54000000D03*
X136000000Y-89500000D03*
X225000000Y-103000000D03*
X108000000Y-146000000D03*
X195000000Y-71000000D03*
X86000000Y-80000000D03*
X196000000Y-60000000D03*
X167000000Y-57000000D03*
X213675000Y-73500000D03*
X157000000Y-79000000D03*
X98000000Y-74000000D03*
X186000000Y-80000000D03*
D24*
X91025000Y-106825000D03*
D23*
X160000000Y-54000000D03*
X98000000Y-56000000D03*
X193000000Y-107000000D03*
D24*
X89950000Y-105500000D03*
D23*
X94000000Y-146000000D03*
X78000000Y-54000000D03*
X198000000Y-58000000D03*
X148000000Y-91500000D03*
X124000000Y-90000000D03*
X152000000Y-62000000D03*
X153000000Y-101000000D03*
D24*
X140100000Y-123450000D03*
D23*
X91000000Y-119000000D03*
X201000000Y-134000000D03*
X83000000Y-75000000D03*
X77000000Y-79000000D03*
X162000000Y-138250000D03*
X206000000Y-114000000D03*
X168000000Y-84000000D03*
X144500000Y-66500000D03*
X106750000Y-64750000D03*
X79000000Y-61000000D03*
X110000000Y-101350000D03*
X105000000Y-141000000D03*
X179000000Y-57000000D03*
X225000000Y-73000000D03*
X208000000Y-82000000D03*
X189000000Y-61000000D03*
X147500000Y-91000000D03*
D24*
X141850000Y-122750000D03*
D23*
X190000000Y-84000000D03*
X191000000Y-73000000D03*
X75000000Y-83000000D03*
X75000000Y-71000000D03*
X116000000Y-90000000D03*
X172000000Y-74000000D03*
X112000000Y-58000000D03*
D24*
X102850000Y-97350000D03*
D23*
X115000000Y-128000000D03*
X151000000Y-107000000D03*
D24*
X140250000Y-126750000D03*
D23*
X95500000Y-59750000D03*
X226000000Y-84000000D03*
X207250000Y-130500000D03*
X109000000Y-55000000D03*
X213000000Y-81000000D03*
X201000000Y-61000000D03*
X117000000Y-143000000D03*
X173000000Y-85000000D03*
X221000000Y-139000000D03*
X155300000Y-86000000D03*
X167250000Y-141975000D03*
X74000000Y-56000000D03*
X146000000Y-110000000D03*
X217000000Y-141000000D03*
X198000000Y-92000000D03*
X150000000Y-102000000D03*
X142000000Y-110000000D03*
X109000000Y-141000000D03*
X164000000Y-76000000D03*
X103000000Y-143000000D03*
X116000000Y-138000000D03*
X213000000Y-61000000D03*
X129000000Y-139000000D03*
X100000000Y-142000000D03*
X103950000Y-101800000D03*
D25*
X81800000Y-116000000D03*
D23*
X177000000Y-79000000D03*
X159075000Y-143250000D03*
X211000000Y-61000000D03*
X147000000Y-97000000D03*
X215000000Y-109000000D03*
X198000000Y-54000000D03*
X166550000Y-104100000D03*
X162000000Y-135500000D03*
X186350000Y-138375000D03*
X99500000Y-60750000D03*
X158000000Y-76000000D03*
X198000000Y-90000000D03*
X196000000Y-54000000D03*
X223500000Y-115000000D03*
X180000000Y-76000000D03*
X126000000Y-74000000D03*
X212000000Y-140000000D03*
X88000000Y-65250000D03*
X112000000Y-54000000D03*
X147000000Y-85000000D03*
X179775000Y-129887500D03*
X101000000Y-141000000D03*
X179000000Y-55000000D03*
X139500000Y-62500000D03*
X216000000Y-82000000D03*
X164000000Y-82000000D03*
X219500000Y-118000000D03*
X115000000Y-139000000D03*
X136000000Y-106000000D03*
X164500000Y-118025000D03*
X178000000Y-76000000D03*
X177000000Y-63000000D03*
X129500000Y-103500000D03*
X105750000Y-64750000D03*
X185000000Y-71000000D03*
X209000000Y-69000000D03*
X168000000Y-74000000D03*
X187000000Y-65000000D03*
X119000000Y-59750000D03*
X115000000Y-145000000D03*
X153000000Y-69000000D03*
X195000000Y-113000000D03*
X181000000Y-55000000D03*
X92000000Y-58000000D03*
X141000000Y-121000000D03*
X97000000Y-96000000D03*
D25*
X84450000Y-93100000D03*
D23*
X167000000Y-83000000D03*
X149000000Y-58000000D03*
D24*
X104913938Y-94283996D03*
D23*
X189000000Y-73000000D03*
X196000000Y-142000000D03*
X155000000Y-55000000D03*
X115000000Y-55000000D03*
X166000000Y-110000000D03*
X215000000Y-139000000D03*
X126250000Y-141200000D03*
X194500000Y-129000000D03*
X124000000Y-56000000D03*
X84000000Y-100000000D03*
X80000000Y-92000000D03*
X149000000Y-78000000D03*
X216000000Y-138000000D03*
X171975000Y-135000000D03*
X199000000Y-69000000D03*
X156000000Y-54000000D03*
X156250000Y-137250000D03*
X104000000Y-142000000D03*
X187000000Y-57000000D03*
X157250000Y-139250000D03*
X80000000Y-86000000D03*
X135000000Y-133750000D03*
X222000000Y-124000000D03*
X142000000Y-82100000D03*
X226000000Y-72000000D03*
X195000000Y-91000000D03*
X116000000Y-60750000D03*
X138675000Y-78000000D03*
X121875000Y-139925000D03*
X218000000Y-126000000D03*
X122000000Y-60750000D03*
X93000000Y-57000000D03*
X91000000Y-57000000D03*
X212000000Y-136000000D03*
X206000000Y-144000000D03*
X191000000Y-59000000D03*
X78000000Y-72000000D03*
X210000000Y-64000000D03*
X149000000Y-85000000D03*
X209000000Y-65000000D03*
X164000000Y-135500000D03*
X210000000Y-56000000D03*
D24*
%TO.N,/STM32H745/SMPS_FB*%
X141500000Y-128750000D03*
%TO.N,/STM32H745/VCAP*%
X166425000Y-123750000D03*
X165225000Y-133150000D03*
X155275000Y-125825000D03*
X166425000Y-126250000D03*
D25*
%TO.N,+3V3_ETH*%
X111900000Y-126500000D03*
X113100000Y-132500000D03*
D23*
%TO.N,/EPS Controller/BOOT0_H7*%
X155750000Y-117500000D03*
X143675000Y-117350000D03*
X112500000Y-101450000D03*
X138300000Y-111150000D03*
%TO.N,+3V3*%
X197150000Y-116450000D03*
X202650000Y-116450000D03*
X104125000Y-102625000D03*
X93850000Y-85550000D03*
X208150000Y-116450000D03*
X161000000Y-141975000D03*
D24*
X136000000Y-93800000D03*
D23*
X102375000Y-106525000D03*
X171975000Y-136000000D03*
D24*
X137300000Y-104400000D03*
X97750000Y-104125000D03*
D23*
X148025000Y-124500000D03*
D24*
X92725000Y-101750000D03*
X106900000Y-117625000D03*
D23*
X95250000Y-96550000D03*
D24*
X153000000Y-127250000D03*
D23*
X126250000Y-93100000D03*
X202300000Y-129400000D03*
X170350000Y-112125000D03*
X163500000Y-118025000D03*
X104125000Y-103300000D03*
X213650000Y-116450000D03*
X150150000Y-116850000D03*
X150475000Y-127500000D03*
D24*
X136800000Y-94600000D03*
X191000000Y-89300000D03*
D23*
X211100000Y-127810000D03*
X166000000Y-137675000D03*
D24*
X85400000Y-104250000D03*
X109600000Y-104850000D03*
D23*
X185425000Y-128725000D03*
D24*
X141125000Y-139300000D03*
X112025000Y-95525000D03*
D23*
X159500000Y-137675000D03*
D24*
X101825000Y-116500000D03*
D23*
X134650000Y-83000000D03*
X171950000Y-129075000D03*
D24*
X118950000Y-120875000D03*
D23*
X185425000Y-126650000D03*
D24*
X132000000Y-129600000D03*
D23*
X215675000Y-87300000D03*
X134100000Y-85650000D03*
X108600000Y-90100000D03*
X151500000Y-118025000D03*
D24*
X112025000Y-96200000D03*
X113475000Y-95825000D03*
D23*
X148025000Y-136500000D03*
X150475000Y-131000000D03*
X202275000Y-128050000D03*
D24*
X169000000Y-114700000D03*
X103675000Y-95050000D03*
D23*
X192000000Y-114350000D03*
D24*
X167000000Y-89300000D03*
X136000000Y-95400000D03*
X103300000Y-116500000D03*
D23*
X123300000Y-123650000D03*
X171950000Y-130000000D03*
D24*
X119118573Y-129792051D03*
D23*
X171675000Y-87300000D03*
D24*
X96850000Y-90700000D03*
X119675000Y-120875000D03*
D23*
X158500000Y-118025000D03*
D24*
X104400000Y-95750000D03*
X136000000Y-94600000D03*
D23*
X137225000Y-119025000D03*
D24*
X211000000Y-89300000D03*
X93437500Y-106262500D03*
X136800000Y-93800000D03*
X108000000Y-120125000D03*
D23*
X171975000Y-122250000D03*
D24*
X114950000Y-122975000D03*
D23*
X100325000Y-113200000D03*
X104073200Y-85600000D03*
D24*
X138750000Y-123600000D03*
X140825000Y-136350000D03*
D23*
X104075000Y-86950000D03*
D24*
X137300000Y-106050000D03*
D23*
X207450000Y-124750000D03*
X150475000Y-128750000D03*
D24*
X136000000Y-93000000D03*
D23*
X154000000Y-141975000D03*
D24*
X174200000Y-131150000D03*
D23*
X195675000Y-87300000D03*
D24*
X151050000Y-120707950D03*
X169200000Y-116150000D03*
X136800000Y-93000000D03*
D23*
X145525000Y-122250000D03*
X145075000Y-124500000D03*
X123300000Y-125000000D03*
X183500000Y-136825000D03*
D24*
X136800000Y-95400000D03*
D23*
X211100000Y-129190000D03*
X104800000Y-103300000D03*
X167675000Y-127000000D03*
X122525000Y-131075000D03*
X156500000Y-122600000D03*
D24*
X92775000Y-107500000D03*
D23*
X109550000Y-112150000D03*
X168250000Y-141975000D03*
%TO.N,+2V8*%
X202550000Y-125250000D03*
X203625000Y-130175000D03*
D24*
X197750000Y-102650000D03*
X148200000Y-102650000D03*
X143750000Y-107100000D03*
D23*
%TO.N,/EPS Controller/~{RESET}_L0*%
X90650000Y-83950000D03*
X128175000Y-116975000D03*
X122975000Y-116975000D03*
X108100000Y-109575000D03*
X162050000Y-114500000D03*
X107800000Y-104775000D03*
%TO.N,/GNSS Card/GPS_SIG_VCCA*%
X203050000Y-86050000D03*
%TO.N,/GNSS Card/GPS_GPIO_VCCA*%
X202550000Y-93975000D03*
%TO.N,/GNSS Card/GNSS_VDD*%
X208700000Y-87750000D03*
X202550000Y-91025000D03*
X210500000Y-75500000D03*
X203050000Y-83100000D03*
X197750000Y-99250000D03*
D24*
%TO.N,+1V8*%
X116600000Y-100000000D03*
X117300000Y-101350000D03*
X116950000Y-101900000D03*
X116600000Y-99300000D03*
X117300000Y-100700000D03*
D23*
X171675000Y-85700000D03*
D24*
X117300000Y-99300000D03*
X116600000Y-101350000D03*
D23*
X195700000Y-85700000D03*
X215675000Y-85700000D03*
D24*
X116600000Y-100700000D03*
X117300000Y-100000000D03*
D23*
%TO.N,/GNSS Card/GNSS_1V8*%
X207875000Y-88775000D03*
X207875000Y-97000000D03*
X207875000Y-93750000D03*
%TO.N,/LTE Card/LTE_SIG_VCCA*%
X183550000Y-86550000D03*
X177250000Y-87925000D03*
X173500000Y-86500000D03*
%TO.N,/LTE Card/LTE_GPIO_VCCA*%
X178550000Y-93975000D03*
X182500000Y-93975000D03*
%TO.N,/LTE Card/LTE_VDD*%
X178550000Y-91025000D03*
X173750000Y-99250000D03*
X188500000Y-76250000D03*
X188500000Y-89000000D03*
X177250000Y-84075000D03*
%TO.N,/LTE Card/LTE_1V8*%
X186500000Y-95500000D03*
D24*
%TO.N,/Auxiliary Card/AUX_SIG_VCCA*%
X159550000Y-86550000D03*
D23*
X153250000Y-87925000D03*
%TO.N,/Auxiliary Card/AUX_GPIO_VCCA*%
X154550000Y-94000000D03*
X155550000Y-103800000D03*
%TO.N,/Auxiliary Card/AUX_VDD*%
X154550000Y-91050000D03*
X153250000Y-84075000D03*
X164650000Y-88500000D03*
X149000000Y-99250000D03*
X164650000Y-84000000D03*
%TO.N,/Auxiliary Card/AUX_1V8*%
X162125000Y-94500000D03*
D24*
%TO.N,/EPS Controller/Battery Charger/PVIN*%
X102500000Y-71000000D03*
X89600000Y-74650000D03*
%TO.N,/EPS Controller/Battery Charger/BTST1*%
X103500000Y-68750000D03*
D26*
%TO.N,/EPS Controller/Battery Charger/SW1*%
X105000000Y-64250000D03*
D23*
X105850000Y-67650000D03*
D26*
X105000000Y-63500000D03*
D23*
X105350000Y-67900000D03*
X105850000Y-68225000D03*
D24*
%TO.N,/EPS Controller/Battery Charger/BTST2*%
X107000000Y-69000000D03*
D26*
%TO.N,/EPS Controller/Battery Charger/SW2*%
X107500000Y-64250000D03*
D23*
X106675000Y-68225000D03*
D26*
X107500000Y-63500000D03*
D23*
X106675000Y-67650000D03*
X107175000Y-67925000D03*
%TO.N,/EPS Controller/Battery Charger/VCHG*%
X94400000Y-67300000D03*
D24*
%TO.N,GND*%
X200000000Y-148300000D03*
X140000000Y-148300000D03*
X71700000Y-75000000D03*
X205000000Y-148300000D03*
X71700000Y-65000000D03*
X135000000Y-51700000D03*
X170000000Y-148300000D03*
X228300000Y-60000000D03*
X74400000Y-90000000D03*
X135000000Y-148300000D03*
X180000000Y-51700000D03*
X225500000Y-144000000D03*
X228300000Y-65000000D03*
X225500000Y-140000000D03*
X228300000Y-115000000D03*
X105000000Y-51700000D03*
X95000000Y-148300000D03*
X210000000Y-51700000D03*
X130000000Y-51700000D03*
D23*
X175150000Y-96450000D03*
D24*
X100000000Y-148300000D03*
X120000000Y-51700000D03*
X145000000Y-148300000D03*
X225500000Y-124000000D03*
X71700000Y-80000000D03*
X150000000Y-51700000D03*
X205000000Y-51700000D03*
X80000000Y-51700000D03*
X76000000Y-51700000D03*
D23*
X184200000Y-96450000D03*
D24*
X200000000Y-51700000D03*
X90000000Y-51700000D03*
X125000000Y-51700000D03*
X185000000Y-148300000D03*
X74400000Y-110000000D03*
D23*
X205250000Y-88500000D03*
D24*
X215000000Y-148300000D03*
X224000000Y-148300000D03*
X190000000Y-148300000D03*
D23*
X156750000Y-96450000D03*
D24*
X76000000Y-148300000D03*
X165000000Y-51700000D03*
X80000000Y-148300000D03*
X74550000Y-143600000D03*
X74550000Y-125000000D03*
X228300000Y-70000000D03*
X74550000Y-130000000D03*
X140000000Y-51700000D03*
X185000000Y-51700000D03*
X74550000Y-140000000D03*
X180000000Y-148300000D03*
X71700000Y-60000000D03*
X145000000Y-51700000D03*
X160000000Y-148300000D03*
D23*
X151150000Y-96450000D03*
D24*
X110000000Y-51700000D03*
X175000000Y-51700000D03*
X74400000Y-105000000D03*
X228300000Y-120000000D03*
X85000000Y-51700000D03*
D23*
X160200000Y-96450000D03*
X204750000Y-96450000D03*
D24*
X190000000Y-51700000D03*
X228300000Y-99500000D03*
X228300000Y-75000000D03*
X74550000Y-120000000D03*
X115000000Y-51700000D03*
X108400000Y-129000000D03*
X220000000Y-51700000D03*
X150000000Y-148300000D03*
X215000000Y-51700000D03*
X120000000Y-148300000D03*
X220000000Y-148300000D03*
X228300000Y-102000000D03*
X170000000Y-51700000D03*
X165000000Y-148300000D03*
X228300000Y-90000000D03*
X210000000Y-148300000D03*
X95000000Y-51700000D03*
X71700000Y-85000000D03*
X195000000Y-148300000D03*
X155000000Y-148300000D03*
D23*
X180750000Y-96450000D03*
D24*
X130000000Y-148300000D03*
X100000000Y-51700000D03*
X228300000Y-80000000D03*
X228300000Y-95000000D03*
X160000000Y-51700000D03*
X74400000Y-95000000D03*
X225500000Y-128000000D03*
X225500000Y-136500000D03*
X175000000Y-148300000D03*
X74550000Y-135000000D03*
X224000000Y-51700000D03*
X74400000Y-114000000D03*
X85000000Y-148300000D03*
X74400000Y-100000000D03*
X110000000Y-148300000D03*
X84250000Y-102000000D03*
X90000000Y-148300000D03*
X228300000Y-56000000D03*
X228300000Y-85000000D03*
X105000000Y-148300000D03*
X71700000Y-56000000D03*
X71700000Y-70000000D03*
X115000000Y-148300000D03*
X125000000Y-148300000D03*
X195000000Y-51700000D03*
X228300000Y-110000000D03*
X155000000Y-51700000D03*
%TO.N,/EPS Controller/Battery Charger/REGN*%
X105250000Y-69000000D03*
D23*
X102325000Y-73050000D03*
D24*
X110900000Y-72175000D03*
X109350000Y-74000000D03*
%TO.N,/EPS Controller/Battery Charger/BATP*%
X117350000Y-72250000D03*
X105783437Y-69596195D03*
D23*
%TO.N,VSYS*%
X138800000Y-74800000D03*
%TO.N,CHG-*%
X117100000Y-69500000D03*
D25*
%TO.N,/EPS Controller/Battery Manager/VC5*%
X108625000Y-82000000D03*
X130750000Y-80000000D03*
%TO.N,/EPS Controller/Battery Manager/VC1*%
X127250000Y-80000000D03*
X111000000Y-84000000D03*
%TO.N,/EPS Controller/Battery Manager/VC0*%
X123750000Y-80000000D03*
X112450000Y-84000000D03*
D23*
%TO.N,CHG+*%
X120400000Y-70000000D03*
%TO.N,/Ethernet/RXP*%
X109075000Y-134066587D03*
X106450000Y-131700000D03*
%TO.N,/Ethernet/RXN*%
X106450000Y-132650000D03*
X108125000Y-134066587D03*
%TO.N,/Ethernet/TXP*%
X108125000Y-123933413D03*
X106450000Y-125350000D03*
%TO.N,/Ethernet/TXN*%
X109075000Y-123933413D03*
X106450000Y-126300000D03*
%TO.N,/EPS Controller/Voltage Regulators/+3V3_REG_OUT*%
X144475000Y-72925000D03*
D24*
X143750000Y-87250000D03*
X139550000Y-69675000D03*
D23*
%TO.N,/USB Hub/UP_USB_DP*%
X90409835Y-101059835D03*
%TO.N,/USB Hub/UP_USB_DN*%
X90940165Y-101590165D03*
D24*
%TO.N,PACK+*%
X132050000Y-68300000D03*
X131350000Y-68300000D03*
D25*
X130750000Y-70000000D03*
D24*
X132050000Y-67000000D03*
X131350000Y-67000000D03*
X129950000Y-68300000D03*
X132750000Y-67000000D03*
X131700000Y-67650000D03*
X130650000Y-68300000D03*
X132400000Y-67650000D03*
X132750000Y-68300000D03*
X129250000Y-68300000D03*
X103600000Y-77200000D03*
X131000000Y-67650000D03*
%TO.N,Net-(D33-Pad2)*%
X90500000Y-70650000D03*
X94050000Y-69850000D03*
X104850000Y-73650000D03*
D23*
%TO.N,/Memory/SDMMC2.D1*%
X169000000Y-137750000D03*
X181025000Y-128750000D03*
%TO.N,/Memory/SDMMC2.D2*%
X158550000Y-120800000D03*
X188725000Y-126650000D03*
%TO.N,/Memory/SDMMC2.CMD*%
X173750000Y-140700000D03*
X186525000Y-128750000D03*
X151675000Y-139075000D03*
X184250000Y-132287500D03*
%TO.N,/Memory/SDMMC2.D0*%
X182125000Y-132275000D03*
X182125000Y-128750000D03*
%TO.N,/Memory/SDMMC2.D3*%
X158250000Y-121500000D03*
X187625000Y-126650000D03*
%TO.N,/Memory/SDMMC2.CLK*%
X185525000Y-124100000D03*
X184325000Y-126650000D03*
X163500000Y-120700000D03*
X183575000Y-122825000D03*
%TO.N,/I2C1.SDA*%
X138800000Y-127775000D03*
X157800000Y-115650000D03*
X122100000Y-114150000D03*
D24*
X96700000Y-100800000D03*
D23*
X128000000Y-120800000D03*
X162250000Y-113200000D03*
X173625000Y-112875000D03*
X98250000Y-114200000D03*
X155875000Y-129075000D03*
X155875000Y-120750000D03*
%TO.N,/I2C1.SCL*%
X192350000Y-116250000D03*
X158250000Y-116250000D03*
X157100000Y-120750000D03*
X138800000Y-126425000D03*
X194400000Y-118300000D03*
X156475000Y-128125000D03*
D24*
X95900000Y-100700000D03*
D23*
X188900000Y-114050000D03*
X123050000Y-115000000D03*
X98250000Y-115200000D03*
X174500000Y-113125000D03*
X162950000Y-113700000D03*
X128850000Y-120800000D03*
%TO.N,/STM32H745/H7_SWCLK*%
X181850000Y-136975000D03*
X173500000Y-121450000D03*
%TO.N,/STM32H745/H7_SWDIO*%
X182700000Y-137725000D03*
X173525000Y-126200000D03*
D24*
%TO.N,/EPS Controller/TS*%
X114725000Y-81125000D03*
X108250000Y-71250000D03*
%TO.N,PACK-*%
X122000000Y-86400000D03*
X121175000Y-87100000D03*
X120350000Y-87100000D03*
X121175000Y-86400000D03*
X120350000Y-86400000D03*
X118700000Y-87100000D03*
X119525000Y-87100000D03*
X118700000Y-86400000D03*
X122000000Y-87100000D03*
X124850000Y-57500000D03*
X119525000Y-86400000D03*
D25*
X123750000Y-70000000D03*
%TO.N,/EPS Controller/Battery Manager/1P*%
X127250000Y-70000000D03*
D23*
X127250000Y-58400000D03*
%TO.N,Net-(JP7-Pad1)*%
X134400000Y-86750000D03*
%TO.N,/EPS Controller/PG_2V8*%
X112000000Y-91025000D03*
X120124930Y-95769530D03*
X143225000Y-102375000D03*
X119150000Y-93075000D03*
X103700000Y-96775000D03*
X134350000Y-98475000D03*
D24*
%TO.N,VDD_LDO*%
X142700000Y-126250000D03*
X153300000Y-135225000D03*
X168300000Y-139250000D03*
X152350000Y-126425000D03*
X168300000Y-122750000D03*
X168300000Y-128675000D03*
%TO.N,/EPS Controller/Battery Charger/SDRV*%
X117900000Y-69075000D03*
X109000000Y-66500000D03*
%TO.N,/EPS Controller/Battery Manager/DSG_G*%
X118000000Y-78750000D03*
X120500000Y-75550000D03*
D23*
%TO.N,Net-(U3-~{CS})*%
X133100000Y-136600000D03*
%TO.N,/EPS Controller/PG_1V8*%
X128750000Y-90525000D03*
X115800000Y-100000000D03*
X117500000Y-93675000D03*
X116125000Y-95050000D03*
X131100000Y-87750000D03*
%TO.N,/EPS Controller/PG_3V3*%
X135550000Y-78950000D03*
X139550000Y-72650000D03*
X115800000Y-98300000D03*
%TO.N,/STM32H745/H7_LEDBUILTIN*%
X150525000Y-118600000D03*
X155013881Y-117800707D03*
D24*
%TO.N,/STM32H745/PDR_ON*%
X152525000Y-120707950D03*
D23*
%TO.N,/Ethernet/RMII.CRS_DV*%
X121850000Y-137350000D03*
X154950000Y-144050000D03*
X124100000Y-126350000D03*
X119017050Y-137350000D03*
%TO.N,/Ethernet/RMII.REF_CLK*%
X118100000Y-122975000D03*
X151750000Y-143800000D03*
%TO.N,/Ethernet/RMII.MDIO*%
X152332950Y-143200000D03*
X120100000Y-125300000D03*
D24*
%TO.N,/Ethernet/LED2*%
X89500000Y-138750000D03*
D23*
%TO.N,/GNSS Card/GNSS.PWR_EN*%
X162000000Y-142150000D03*
X213300000Y-83000000D03*
X213300000Y-90000000D03*
%TO.N,/LTE Card/LTE.PWR_EN*%
X193300000Y-90000000D03*
X193300000Y-83000000D03*
X188500000Y-107450000D03*
X185650000Y-111400000D03*
X153600000Y-124200000D03*
%TO.N,/Auxiliary Card/AUX.PWR_EN*%
X165000000Y-102000000D03*
X160150000Y-113475000D03*
X169300000Y-90000000D03*
X161850000Y-102000000D03*
X169300000Y-83000000D03*
%TO.N,Net-(U3-CLK)*%
X135650000Y-130800000D03*
D24*
%TO.N,/EPS Controller/Battery Charger/PROG*%
X108950000Y-68675000D03*
D23*
%TO.N,/Memory/QSPI1.CLK*%
X147200000Y-134625000D03*
%TO.N,/Memory/QSPI1.IO0*%
X147250000Y-132025000D03*
%TO.N,/Memory/QSPI1.IO1*%
X147000000Y-133275000D03*
%TO.N,/Memory/QSPI1.IO2*%
X147600000Y-131250000D03*
%TO.N,/Memory/QSPI1.IO3*%
X147625000Y-130375000D03*
%TO.N,/Ethernet/RMII.TX_EN*%
X114950000Y-124975000D03*
D24*
X131600000Y-120100000D03*
X123025000Y-120875000D03*
D23*
X160750000Y-120525000D03*
%TO.N,Net-(U3-IO0)*%
X144500000Y-132500000D03*
%TO.N,Net-(U3-IO1)*%
X144500000Y-133750000D03*
%TO.N,/Ethernet/RMII.TXD0*%
X157500000Y-145700000D03*
X155000000Y-145400000D03*
%TO.N,Net-(U3-IO2)*%
X140350000Y-134350000D03*
%TO.N,Net-(U3-IO3)*%
X134400000Y-130800000D03*
%TO.N,/GNSS Card/GNSS.PPS*%
X163950000Y-142900000D03*
X206000000Y-90750000D03*
%TO.N,/GNSS Card/UART4.RX*%
X203350000Y-80575000D03*
X167250000Y-122900000D03*
%TO.N,/Auxiliary Card/AUX.GPIO2*%
X175000000Y-128000000D03*
X178450000Y-123300000D03*
X157250000Y-90250000D03*
X178450000Y-120050000D03*
X173200000Y-132175000D03*
%TO.N,/LTE Card/LTE.NET_STS*%
X153550000Y-122749999D03*
X181250000Y-90250000D03*
%TO.N,/GNSS Card/UART4.TX*%
X168747411Y-121962638D03*
X206750000Y-80575000D03*
%TO.N,/Ethernet/RMII.TXD1*%
X159000000Y-145100000D03*
X155500000Y-144800000D03*
%TO.N,/Auxiliary Card/AUX.GPIO1*%
X172275000Y-132150000D03*
X177650000Y-123300000D03*
X177650000Y-120050000D03*
X158000000Y-90750000D03*
X174250000Y-127250000D03*
%TO.N,/RF Interface/LNA_CTRL2*%
X203450000Y-123600000D03*
X172250000Y-127075000D03*
X182100000Y-126500000D03*
%TO.N,/Auxiliary Card/AUX.GPIO3*%
X156250000Y-90250000D03*
X175750000Y-128500000D03*
X172550000Y-133650000D03*
X179250000Y-123300000D03*
X179250000Y-120050000D03*
%TO.N,/LTE Card/LTE.MOD_STS*%
X180250000Y-90250000D03*
X153150000Y-122100000D03*
%TO.N,/GNSS Card/GNSS.INT*%
X205250000Y-90250000D03*
X163200000Y-143100000D03*
%TO.N,/LTE Card/LTE.SLEEP*%
X154000000Y-123550000D03*
X182000000Y-90750000D03*
%TO.N,/Ethernet/RMII.MDC*%
X120750000Y-122750000D03*
X150800000Y-135250000D03*
%TO.N,/GNSS Card/GNSS.TX_RDY*%
X162600000Y-142650000D03*
X204250000Y-90250000D03*
%TO.N,Net-(JP5-Pad2)*%
X102725000Y-73725000D03*
D24*
%TO.N,/Ethernet/LED1*%
X89500000Y-139750000D03*
D23*
%TO.N,/EPS Controller/EN_1V8*%
X115825000Y-99250000D03*
X130600000Y-90250000D03*
%TO.N,/EPS Controller/~{QON}*%
X110175000Y-94350000D03*
X107925000Y-86175000D03*
%TO.N,/EPS Controller/BAL_ALERT*%
X111400000Y-78400000D03*
X113450000Y-98150000D03*
X113175000Y-89682900D03*
%TO.N,/EPS Controller/~{CE}*%
X109175000Y-87047200D03*
X109600000Y-93850000D03*
%TO.N,/GNSS Card/GNSS.~{RESET}*%
X164250000Y-139250000D03*
X203500000Y-90750000D03*
%TO.N,Net-(JP6-Pad1)*%
X133750000Y-78750000D03*
%TO.N,Net-(JP8-Pad1)*%
X134350000Y-102675000D03*
%TO.N,/RF Interface/LNA_CTRL1*%
X206550000Y-123600000D03*
X172525000Y-126200000D03*
X181100000Y-126200000D03*
%TO.N,/RF Interface/CTRL2_2V8*%
X205700000Y-128000000D03*
X205700000Y-133475000D03*
%TO.N,/EPS Controller/EN_2V8*%
X103650000Y-97550000D03*
X112000000Y-92025000D03*
X133000000Y-102650000D03*
X119650000Y-96350000D03*
X118350000Y-93050000D03*
%TO.N,/LTE Card/I2C3.SCL*%
X174500000Y-113950000D03*
X178825000Y-84000000D03*
X174500000Y-118225000D03*
X169500000Y-126325000D03*
%TO.N,/LTE Card/I2C3.SDA*%
X175700000Y-113950000D03*
X179800000Y-84000000D03*
X169500000Y-127675000D03*
X175700000Y-118250000D03*
%TO.N,/Auxiliary Card/I2C4.SCL*%
X162006587Y-115400000D03*
X154825000Y-84000000D03*
X176625000Y-118075000D03*
X161500000Y-120925000D03*
X158825000Y-139500000D03*
X162100000Y-87500000D03*
%TO.N,/Auxiliary Card/I2C4.SDA*%
X162950000Y-86500000D03*
X162175000Y-120500000D03*
X176925000Y-118825000D03*
X155800000Y-84000000D03*
X160175000Y-139500000D03*
X162700000Y-116050000D03*
%TO.N,/GNSS Card/I2C2.SCL*%
X165325000Y-139500000D03*
X203800000Y-82575000D03*
X202050000Y-112050000D03*
X203350000Y-112500000D03*
%TO.N,/GNSS Card/I2C2.SDA*%
X202700000Y-113050000D03*
X204800000Y-82575000D03*
X166250000Y-139500000D03*
%TO.N,/STM32H745/NEOPIXEL_DIN*%
X154000000Y-118000000D03*
X138825000Y-119350000D03*
%TO.N,/STM32H745/~{RESET}_HUB*%
X96325000Y-97300000D03*
X158275000Y-143250000D03*
%TO.N,/LTE Card/USART3.TX*%
X186000000Y-116200000D03*
X182600000Y-123300000D03*
X186000000Y-118700000D03*
X184175000Y-80575000D03*
%TO.N,/LTE Card/USART3.RX*%
X184600000Y-116200000D03*
X184600000Y-118700000D03*
X180600000Y-80575000D03*
X181800000Y-123300000D03*
%TO.N,/Auxiliary Card/USART6.RX*%
X165625000Y-127200000D03*
X164450000Y-121425000D03*
X169250000Y-128750000D03*
X156600000Y-80575000D03*
%TO.N,/Auxiliary Card/USART6.TX*%
X157849997Y-113500000D03*
X159425000Y-82425000D03*
%TO.N,/EPS Controller/EPS.SCL*%
X106000000Y-74800000D03*
X108350000Y-91650000D03*
X106600000Y-91650000D03*
X105875000Y-84750000D03*
X113250000Y-79200000D03*
X103400000Y-87325000D03*
%TO.N,/EPS Controller/EPS.SDA*%
X106750000Y-86950000D03*
X107025000Y-74775000D03*
X112350000Y-78600000D03*
%TO.N,/EPS Controller/BAT_CHG_~{INT}*%
X107925000Y-72000000D03*
X112081587Y-94581587D03*
X108150000Y-87600000D03*
X111550000Y-103850000D03*
D24*
X109725000Y-68375000D03*
D23*
%TO.N,/Memory/QSPI1.~{CS}*%
X169450000Y-132250000D03*
%TO.N,/CANBus Transceivers/H7_CAN_TX*%
X167200000Y-114650000D03*
%TO.N,/CANBus Transceivers/H7_CAN_RX*%
X170050000Y-115900000D03*
%TO.N,/LTE Card/USART3.CTS*%
X181100000Y-83450000D03*
X168925000Y-135425000D03*
X182000000Y-118700000D03*
X182000000Y-116200000D03*
%TO.N,/LTE Card/USART3.RTS*%
X180550000Y-84000000D03*
X183400000Y-116200000D03*
X180800000Y-123300000D03*
X183400000Y-118700000D03*
%TO.N,/Auxiliary Card/USART6.CTS*%
X157100000Y-83450000D03*
X158600000Y-113500000D03*
%TO.N,/Auxiliary Card/USART6.RTS*%
X163675000Y-122225000D03*
X169250000Y-130250000D03*
X156550000Y-84000000D03*
X164775000Y-127675000D03*
D24*
%TO.N,Net-(C57-Pad1)*%
X105750000Y-137750000D03*
X104750000Y-125825000D03*
X104750000Y-132175000D03*
X104750000Y-129000000D03*
D23*
%TO.N,/Auxiliary Card/AUX.~{RESET}*%
X159399997Y-113475000D03*
X160150000Y-100500000D03*
X155500000Y-90750000D03*
X156000000Y-100500000D03*
%TO.N,/STM32H745/HUB_SUSPEND*%
X94050000Y-99750000D03*
X157375000Y-144225000D03*
%TO.N,/STM32H745/H7_USB.DN*%
X159427247Y-125375500D03*
X103500000Y-119625000D03*
%TO.N,/STM32H745/H7_USB.DP*%
X103500000Y-118875000D03*
X159427247Y-124625500D03*
%TO.N,/LTE Card/LTE.~{RESET}*%
X147750000Y-121000000D03*
X179500000Y-90750000D03*
D24*
%TO.N,/Clocks/25MHz*%
X126250000Y-140400000D03*
X121900000Y-139100000D03*
D23*
%TO.N,/Clocks/32768Hz*%
X140250000Y-124500000D03*
X106350000Y-103575000D03*
%TO.N,/GNSS Card/ZED_RXD_3V3*%
X206050000Y-79575000D03*
X206050000Y-82075000D03*
%TO.N,/L4_CAN_TX*%
X103175000Y-101000000D03*
X103125000Y-114450000D03*
%TO.N,Net-(U24-STAT)*%
X102775000Y-74500000D03*
X103650000Y-66450000D03*
D24*
%TO.N,/STM32H745/~{RESET}_H7*%
X94000000Y-95000000D03*
D23*
X102400000Y-112300000D03*
X109250000Y-114400000D03*
D24*
X115850735Y-117049265D03*
D23*
X186475000Y-137300000D03*
X133475000Y-126168180D03*
X134675000Y-122300000D03*
X150650000Y-133000000D03*
X133475000Y-124400000D03*
X100225000Y-111100000D03*
%TO.N,/STM32H745/HUB_H7_INT*%
X97625000Y-105575000D03*
X158750000Y-142250000D03*
%TO.N,/Ethernet/~{RESET}_ETH*%
X115375000Y-125775000D03*
X152750000Y-139450000D03*
%TO.N,/EPS Controller/SPI1.SCK*%
X154500000Y-126800000D03*
X112800000Y-106200000D03*
%TO.N,/EPS Controller/SPI1.MOSI*%
X115900000Y-102650000D03*
X162100000Y-122100000D03*
%TO.N,/EPS Controller/EPS_EEPROM_~{WC}*%
X98800000Y-92000000D03*
X112000000Y-103000000D03*
%TO.N,/EPS Controller/SPI1.MISO*%
X113426000Y-101426000D03*
X155249999Y-126674999D03*
%TO.N,/EPS Controller/SPI1.~{SS}_H7*%
X153737500Y-126862500D03*
X112850000Y-102300000D03*
%TO.N,/EPS Controller/SPI1.REQ*%
X114150000Y-92850000D03*
X127750000Y-126800000D03*
X152525000Y-136725000D03*
X124375000Y-120975000D03*
%TO.N,/EPS Controller/SPI1.GRANT*%
X128450000Y-127400000D03*
X115050000Y-93550000D03*
X125475000Y-120975000D03*
X151750000Y-135925000D03*
D24*
%TO.N,Net-(R43-Pad1)*%
X93250000Y-128365000D03*
%TO.N,Net-(R46-Pad1)*%
X93250000Y-132175000D03*
D23*
%TO.N,/CANBus Transceivers/CAN+*%
X164570500Y-106820500D03*
X166494087Y-108753731D03*
%TO.N,/CANBus Transceivers/CAN-*%
X165720500Y-106820500D03*
X166494087Y-107603731D03*
%TO.N,Net-(D10-Pad2)*%
X220625000Y-71500000D03*
%TO.N,Net-(D39-Pad2)*%
X132900000Y-88900000D03*
X127150000Y-90400000D03*
%TO.N,Net-(D13-Pad2)*%
X220625000Y-73500000D03*
%TO.N,Net-(D17-Pad2)*%
X220625000Y-75500000D03*
D24*
%TO.N,Net-(D32-Pad2)*%
X90500000Y-69750000D03*
X86875000Y-70625000D03*
X104050000Y-73600000D03*
D23*
%TO.N,/EPS Controller/BOOT0_L4*%
X126650000Y-117650000D03*
X102900000Y-99775000D03*
X165150000Y-116550000D03*
X130550000Y-117350000D03*
X104625000Y-108925000D03*
%TO.N,/EPS Controller/L4_SWCLK*%
X103575000Y-95825000D03*
X94800000Y-87650000D03*
%TO.N,/EPS Controller/L4_SWDIO*%
X106250000Y-94800000D03*
X94730000Y-85750000D03*
%TO.N,/L4_CAN_RX*%
X103350000Y-117300000D03*
X103725000Y-100350000D03*
%TO.N,/L4_CAN_STB*%
X107675000Y-115025000D03*
X110375000Y-104675000D03*
%TO.N,/EPS Controller/L4_USB.DP*%
X101625000Y-92301000D03*
X101625000Y-102500000D03*
%TO.N,/EPS Controller/L4_USB.DN*%
X102375000Y-102500000D03*
X102375000Y-92301000D03*
%TO.N,/EPS Controller/SPI1.~{SS}_L4*%
X109000000Y-94450000D03*
X162925000Y-122100000D03*
%TD*%
D27*
%TO.N,/STM32H745/VCAP*%
X166425000Y-126250000D02*
X166425000Y-123750000D01*
D28*
%TO.N,/EPS Controller/BOOT0_H7*%
X143675000Y-116525000D02*
X138300000Y-111150000D01*
X143675000Y-117350000D02*
X143675000Y-116525000D01*
%TO.N,/EPS Controller/~{RESET}_L0*%
X90647550Y-83952450D02*
X90650000Y-83950000D01*
X107800000Y-104775000D02*
X107800000Y-103764588D01*
X107400000Y-105175000D02*
X107400000Y-108875000D01*
X107400000Y-108875000D02*
X108100000Y-109575000D01*
X104347943Y-99200000D02*
X102200000Y-99200000D01*
X107800000Y-103764588D02*
X105200000Y-101164588D01*
X105200000Y-100052057D02*
X104347943Y-99200000D01*
X105200000Y-101164588D02*
X105200000Y-100052057D01*
X90647550Y-87647550D02*
X90647550Y-83952450D01*
X102200000Y-99200000D02*
X90647550Y-87647550D01*
X107800000Y-104775000D02*
X107400000Y-105175000D01*
D29*
%TO.N,/GNSS Card/GPS_GPIO_VCCA*%
X206000000Y-100902454D02*
X202550000Y-97452454D01*
X206500000Y-109000000D02*
X206000000Y-108500000D01*
X202550000Y-97452454D02*
X202550000Y-93975000D01*
X206000000Y-108500000D02*
X206000000Y-100902454D01*
D28*
%TO.N,/LTE Card/LTE_SIG_VCCA*%
X182175000Y-87925000D02*
X177250000Y-87925000D01*
X183550000Y-86550000D02*
X182175000Y-87925000D01*
%TO.N,/LTE Card/LTE_GPIO_VCCA*%
X181950000Y-108450000D02*
X182500000Y-109000000D01*
X181950000Y-94525000D02*
X181950000Y-108450000D01*
X182500000Y-93975000D02*
X181950000Y-94525000D01*
%TO.N,/Auxiliary Card/AUX_SIG_VCCA*%
X158175000Y-87925000D02*
X153250000Y-87925000D01*
X159550000Y-86550000D02*
X158175000Y-87925000D01*
D29*
X152100000Y-107150000D02*
X150250000Y-109000000D01*
X153250000Y-87925000D02*
X152100000Y-89075000D01*
X152100000Y-89075000D02*
X152100000Y-107150000D01*
%TO.N,/Auxiliary Card/AUX_GPIO_VCCA*%
X154550000Y-102800000D02*
X155550000Y-103800000D01*
X154550000Y-94000000D02*
X154550000Y-102800000D01*
D27*
%TO.N,GND*%
X82200000Y-108750000D02*
X84250000Y-106700000D01*
X73450000Y-108750000D02*
X82200000Y-108750000D01*
X84250000Y-106700000D02*
X84250000Y-102000000D01*
D28*
%TO.N,/EPS Controller/Battery Charger/REGN*%
X102325000Y-72204690D02*
X105250000Y-69279690D01*
X102325000Y-73050000D02*
X102325000Y-72204690D01*
X105250000Y-69279690D02*
X105250000Y-69000000D01*
%TO.N,/I2C1.SDA*%
X122100000Y-114150000D02*
X122100000Y-114900000D01*
X159450000Y-115650000D02*
X157800000Y-115650000D01*
X139150000Y-128125000D02*
X138800000Y-127775000D01*
X161900000Y-113200000D02*
X159450000Y-115650000D01*
X148525000Y-130375000D02*
X146275000Y-128125000D01*
X82050000Y-80500000D02*
X81300000Y-79750000D01*
X79787056Y-79747000D02*
X79784056Y-79750000D01*
X127100000Y-119900000D02*
X128000000Y-120800000D01*
X80762944Y-79747000D02*
X79787056Y-79747000D01*
X81300000Y-79750000D02*
X80765944Y-79750000D01*
X162250000Y-113200000D02*
X161900000Y-113200000D01*
X146275000Y-128125000D02*
X139150000Y-128125000D01*
X96700000Y-100800000D02*
X96700000Y-100650057D01*
X80765944Y-79750000D02*
X80762944Y-79747000D01*
X122100000Y-114900000D02*
X127100000Y-119900000D01*
X154575000Y-130375000D02*
X148525000Y-130375000D01*
X96700000Y-100650057D02*
X82050000Y-86000057D01*
X155875000Y-129075000D02*
X154575000Y-130375000D01*
X79784056Y-79750000D02*
X78875000Y-79750000D01*
X78875000Y-79750000D02*
X78325000Y-80300000D01*
X82050000Y-86000057D02*
X82050000Y-80500000D01*
%TO.N,/I2C1.SCL*%
X159435412Y-116250000D02*
X158250000Y-116250000D01*
X128850000Y-120800000D02*
X123050000Y-115000000D01*
X188900000Y-114050000D02*
X191100000Y-116250000D01*
X162850000Y-113800000D02*
X161885412Y-113800000D01*
X162950000Y-113700000D02*
X162850000Y-113800000D01*
X161885412Y-113800000D02*
X159435412Y-116250000D01*
X191100000Y-116250000D02*
X192350000Y-116250000D01*
X146700000Y-127700000D02*
X140075000Y-127700000D01*
X140075000Y-127700000D02*
X138800000Y-126425000D01*
X156475000Y-128125000D02*
X147125000Y-128125000D01*
X95900000Y-100700000D02*
X80275000Y-85075000D01*
X80275000Y-85075000D02*
X80275000Y-83075000D01*
X147125000Y-128125000D02*
X146700000Y-127700000D01*
%TO.N,/STM32H745/H7_SWCLK*%
X173500000Y-121450000D02*
X173500000Y-122625000D01*
X180350000Y-135475000D02*
X181850000Y-136975000D01*
X180350000Y-129475000D02*
X180350000Y-135475000D01*
X173500000Y-122625000D02*
X180350000Y-129475000D01*
%TO.N,/STM32H745/H7_SWDIO*%
X174500000Y-126200000D02*
X173525000Y-126200000D01*
X179125000Y-135064588D02*
X179125000Y-130825000D01*
X181785412Y-137725000D02*
X179125000Y-135064588D01*
X182700000Y-137725000D02*
X181785412Y-137725000D01*
X179125000Y-130825000D02*
X174500000Y-126200000D01*
%TO.N,/EPS Controller/TS*%
X114725000Y-76602963D02*
X114725000Y-81125000D01*
X108250000Y-71250000D02*
X109776000Y-72776000D01*
X109776000Y-72776000D02*
X110898037Y-72776000D01*
X110898037Y-72776000D02*
X114725000Y-76602963D01*
D30*
%TO.N,PACK-*%
X127226000Y-59876000D02*
X124850000Y-57500000D01*
X123750000Y-70000000D02*
X127226000Y-66524000D01*
X127226000Y-66524000D02*
X127226000Y-59876000D01*
D28*
%TO.N,/EPS Controller/Battery Manager/1P*%
X128000000Y-69250000D02*
X128000000Y-59150000D01*
X127250000Y-70000000D02*
X128000000Y-69250000D01*
X128000000Y-59150000D02*
X127250000Y-58400000D01*
%TO.N,/EPS Controller/PG_2V8*%
X112424000Y-91449000D02*
X117563588Y-91449000D01*
X117563588Y-91449000D02*
X119150000Y-93035412D01*
X119150000Y-93035412D02*
X119150000Y-93075000D01*
X112000000Y-91025000D02*
X112424000Y-91449000D01*
D27*
%TO.N,VDD_LDO*%
X168300000Y-122750000D02*
X168300000Y-128675000D01*
X142876000Y-126074000D02*
X151999000Y-126074000D01*
X151999000Y-126074000D02*
X152350000Y-126425000D01*
X142700000Y-126250000D02*
X142876000Y-126074000D01*
D28*
%TO.N,/EPS Controller/PG_1V8*%
X116125000Y-95050000D02*
X115025000Y-96150000D01*
X115477000Y-100000000D02*
X115800000Y-100000000D01*
X128750000Y-90100000D02*
X128750000Y-90525000D01*
X117500000Y-93675000D02*
X124860412Y-93675000D01*
X115025000Y-96150000D02*
X115025000Y-99548000D01*
X131100000Y-87750000D02*
X128750000Y-90100000D01*
X115025000Y-99548000D02*
X115477000Y-100000000D01*
X124860412Y-93675000D02*
X128010412Y-90525000D01*
X128010412Y-90525000D02*
X128750000Y-90525000D01*
%TO.N,/EPS Controller/PG_3V3*%
X139550000Y-74950000D02*
X139550000Y-72650000D01*
X135550000Y-78950000D02*
X139550000Y-74950000D01*
%TO.N,/GNSS Card/GNSS.PWR_EN*%
X213300000Y-90000000D02*
X217600000Y-94300000D01*
X217600000Y-118050000D02*
X214500000Y-121150000D01*
X199800000Y-146600000D02*
X164600000Y-146600000D01*
X162000000Y-144000000D02*
X162000000Y-142150000D01*
X217600000Y-94300000D02*
X217600000Y-118050000D01*
X214500000Y-121150000D02*
X214500000Y-131900000D01*
X164600000Y-146600000D02*
X162000000Y-144000000D01*
X214500000Y-131900000D02*
X199800000Y-146600000D01*
%TO.N,/LTE Card/LTE.PWR_EN*%
X156800000Y-126400000D02*
X162900000Y-126400000D01*
X153600000Y-124200000D02*
X154600000Y-124200000D01*
X180700000Y-116350000D02*
X185650000Y-111400000D01*
X188500000Y-107450000D02*
X188500000Y-101500000D01*
X162900000Y-126400000D02*
X172950000Y-116350000D01*
X188500000Y-101500000D02*
X193300000Y-96700000D01*
X172950000Y-116350000D02*
X180700000Y-116350000D01*
X193300000Y-96700000D02*
X193300000Y-90000000D01*
X154600000Y-124200000D02*
X156800000Y-126400000D01*
%TO.N,/Auxiliary Card/AUX.PWR_EN*%
X165000000Y-102000000D02*
X165000000Y-94300000D01*
X165000000Y-94300000D02*
X169300000Y-90000000D01*
X163050000Y-108650000D02*
X163050000Y-110575000D01*
X161850000Y-107450000D02*
X163050000Y-108650000D01*
X161850000Y-102000000D02*
X161850000Y-107450000D01*
X163050000Y-110575000D02*
X160150000Y-113475000D01*
%TO.N,/GNSS Card/GNSS.PPS*%
X166250000Y-145200000D02*
X163950000Y-142900000D01*
X211700000Y-101250000D02*
X211700000Y-131500000D01*
X207050000Y-90750000D02*
X209200000Y-92900000D01*
X211700000Y-131500000D02*
X198000000Y-145200000D01*
X209200000Y-92900000D02*
X209200000Y-98750000D01*
X209200000Y-98750000D02*
X211700000Y-101250000D01*
X206000000Y-90750000D02*
X207050000Y-90750000D01*
X198000000Y-145200000D02*
X166250000Y-145200000D01*
%TO.N,/GNSS Card/UART4.RX*%
X203350000Y-80575000D02*
X202650000Y-80575000D01*
X202650000Y-80575000D02*
X197000000Y-86225000D01*
X167250000Y-122645460D02*
X167250000Y-122900000D01*
X197000000Y-86225000D02*
X197000000Y-113325000D01*
X193475000Y-116850000D02*
X173045460Y-116850000D01*
X197000000Y-113325000D02*
X193475000Y-116850000D01*
X173045460Y-116850000D02*
X167250000Y-122645460D01*
%TO.N,/Auxiliary Card/AUX.GPIO2*%
X173200000Y-128975000D02*
X173200000Y-132175000D01*
X175000000Y-128000000D02*
X174175000Y-128000000D01*
X178450000Y-120050000D02*
X178450000Y-123300000D01*
X174175000Y-128000000D02*
X173200000Y-128975000D01*
%TO.N,/LTE Card/LTE.NET_STS*%
X172550000Y-115450000D02*
X178517100Y-115450000D01*
X178517100Y-115450000D02*
X181250000Y-112717100D01*
X181250000Y-112717100D02*
X181250000Y-107575000D01*
X154549999Y-122749999D02*
X155725000Y-123925000D01*
X181250000Y-107575000D02*
X181400000Y-107425000D01*
X153550000Y-122749999D02*
X154549999Y-122749999D01*
X164075000Y-123925000D02*
X172550000Y-115450000D01*
X181400000Y-107425000D02*
X181400000Y-90400000D01*
X181400000Y-90400000D02*
X181250000Y-90250000D01*
X155725000Y-123925000D02*
X164075000Y-123925000D01*
%TO.N,/GNSS Card/UART4.TX*%
X198800000Y-102900000D02*
X199500000Y-103600000D01*
X199500000Y-103600000D02*
X199500000Y-111800000D01*
X205750000Y-81575000D02*
X202650000Y-81575000D01*
X198800000Y-85425000D02*
X198800000Y-102900000D01*
X199500000Y-111800000D02*
X193800000Y-117500000D01*
X193800000Y-117500000D02*
X173200000Y-117500000D01*
X206750000Y-80575000D02*
X205750000Y-81575000D01*
X168747411Y-121952589D02*
X168747411Y-121962638D01*
X202650000Y-81575000D02*
X198800000Y-85425000D01*
X173200000Y-117500000D02*
X168747411Y-121952589D01*
%TO.N,/Auxiliary Card/AUX.GPIO1*%
X174250000Y-127250000D02*
X172650000Y-128850000D01*
X172650000Y-131775000D02*
X172275000Y-132150000D01*
X177650000Y-120050000D02*
X177650000Y-123300000D01*
X172650000Y-128850000D02*
X172650000Y-131775000D01*
%TO.N,/RF Interface/LNA_CTRL2*%
X182100000Y-126500000D02*
X185300000Y-123300000D01*
X203150000Y-123300000D02*
X203450000Y-123600000D01*
X185300000Y-123300000D02*
X203150000Y-123300000D01*
%TO.N,/Auxiliary Card/AUX.GPIO3*%
X174900000Y-131300000D02*
X172550000Y-133650000D01*
X174900000Y-129350000D02*
X174900000Y-131300000D01*
X175750000Y-128500000D02*
X174900000Y-129350000D01*
X179250000Y-120050000D02*
X179250000Y-123300000D01*
%TO.N,/LTE Card/LTE.MOD_STS*%
X172400000Y-115000000D02*
X176250000Y-115000000D01*
X156000000Y-123500000D02*
X163900000Y-123500000D01*
X178650000Y-94900000D02*
X180250000Y-93300000D01*
X153150000Y-122100000D02*
X154600000Y-122100000D01*
X180250000Y-93300000D02*
X180250000Y-90250000D01*
X163900000Y-123500000D02*
X172400000Y-115000000D01*
X154600000Y-122100000D02*
X156000000Y-123500000D01*
X153150000Y-122100000D02*
X153226000Y-122024000D01*
X176250000Y-115000000D02*
X178650000Y-112600000D01*
X178650000Y-112600000D02*
X178650000Y-94900000D01*
%TO.N,/GNSS Card/GNSS.INT*%
X165800000Y-145700000D02*
X163200000Y-143100000D01*
X209800000Y-92700000D02*
X209800000Y-98500000D01*
X212200000Y-100900000D02*
X212200000Y-131900000D01*
X209800000Y-98500000D02*
X212200000Y-100900000D01*
X212200000Y-131900000D02*
X198400000Y-145700000D01*
X198400000Y-145700000D02*
X165800000Y-145700000D01*
X207100000Y-90000000D02*
X209800000Y-92700000D01*
X205500000Y-90000000D02*
X207100000Y-90000000D01*
X205250000Y-90250000D02*
X205500000Y-90000000D01*
%TO.N,/LTE Card/LTE.SLEEP*%
X178700000Y-115900000D02*
X183750000Y-110850000D01*
X157025000Y-125950000D02*
X162700000Y-125950000D01*
X172750000Y-115900000D02*
X178700000Y-115900000D01*
X154000000Y-123550000D02*
X154625000Y-123550000D01*
X183750000Y-97050000D02*
X183525000Y-96825000D01*
X162700000Y-125950000D02*
X172750000Y-115900000D01*
X183750000Y-110850000D02*
X183750000Y-97050000D01*
X183525000Y-96825000D02*
X183525000Y-92275000D01*
X183525000Y-92275000D02*
X182000000Y-90750000D01*
X154625000Y-123550000D02*
X157025000Y-125950000D01*
%TO.N,/GNSS Card/GNSS.TX_RDY*%
X162600000Y-143600000D02*
X162600000Y-142650000D01*
X205000000Y-89500000D02*
X207400000Y-89500000D01*
X214000000Y-120725000D02*
X214000000Y-131200000D01*
X199001000Y-146199000D02*
X165199000Y-146199000D01*
X216700000Y-118025000D02*
X214000000Y-120725000D01*
X207400000Y-89500000D02*
X216700000Y-98800000D01*
X216700000Y-98800000D02*
X216700000Y-118025000D01*
X214000000Y-131200000D02*
X199001000Y-146199000D01*
X165199000Y-146199000D02*
X162600000Y-143600000D01*
X204250000Y-90250000D02*
X205000000Y-89500000D01*
%TO.N,/EPS Controller/~{QON}*%
X110325000Y-94200000D02*
X110175000Y-94350000D01*
X107925000Y-86175000D02*
X109100000Y-86175000D01*
X109100000Y-86175000D02*
X110325000Y-87400000D01*
X110325000Y-87400000D02*
X110325000Y-94200000D01*
%TO.N,/EPS Controller/BAL_ALERT*%
X113175000Y-89682900D02*
X109899000Y-86406900D01*
X109899000Y-79901000D02*
X111400000Y-78400000D01*
X109899000Y-86406900D02*
X109899000Y-79901000D01*
%TO.N,/EPS Controller/~{CE}*%
X109175000Y-87047200D02*
X109175000Y-93425000D01*
X109175000Y-93425000D02*
X109600000Y-93850000D01*
%TO.N,/GNSS Card/GNSS.~{RESET}*%
X210450000Y-131850000D02*
X197600000Y-144700000D01*
X203500000Y-90750000D02*
X203500000Y-97800000D01*
X166700000Y-144700000D02*
X164250000Y-142250000D01*
X203500000Y-97800000D02*
X210450000Y-104750000D01*
X164250000Y-142250000D02*
X164250000Y-139250000D01*
X197600000Y-144700000D02*
X166700000Y-144700000D01*
X210450000Y-104750000D02*
X210450000Y-131850000D01*
%TO.N,/RF Interface/LNA_CTRL1*%
X206550000Y-123600000D02*
X205600000Y-122650000D01*
X184650000Y-122650000D02*
X181100000Y-126200000D01*
X205600000Y-122650000D02*
X184650000Y-122650000D01*
%TO.N,/EPS Controller/EN_2V8*%
X117173000Y-91873000D02*
X118350000Y-93050000D01*
X112000000Y-92025000D02*
X112152000Y-91873000D01*
X112152000Y-91873000D02*
X117173000Y-91873000D01*
%TO.N,/LTE Card/I2C3.SCL*%
X174500000Y-118225000D02*
X172175000Y-120550000D01*
X172800000Y-88900000D02*
X175500000Y-86200000D01*
X169500000Y-122150000D02*
X169500000Y-126325000D01*
X176625000Y-86200000D02*
X178825000Y-84000000D01*
X175500000Y-86200000D02*
X176625000Y-86200000D01*
X171100000Y-120550000D02*
X169500000Y-122150000D01*
X174500000Y-113950000D02*
X173450000Y-113950000D01*
X172800000Y-98400000D02*
X172800000Y-88900000D01*
X172175000Y-120550000D02*
X171100000Y-120550000D01*
X173450000Y-113950000D02*
X173000000Y-113500000D01*
X173000000Y-98600000D02*
X172800000Y-98400000D01*
X173000000Y-113500000D02*
X173000000Y-98600000D01*
%TO.N,/LTE Card/I2C3.SDA*%
X175149000Y-118801000D02*
X174566100Y-118801000D01*
X174500000Y-107425000D02*
X174500000Y-98400000D01*
X175700000Y-118250000D02*
X175149000Y-118801000D01*
X169500000Y-127600000D02*
X169500000Y-127675000D01*
X170450000Y-122917100D02*
X170450000Y-126650000D01*
X174566100Y-118801000D02*
X170450000Y-122917100D01*
X170450000Y-126650000D02*
X169500000Y-127600000D01*
X173900000Y-97800000D02*
X173900000Y-89900000D01*
X173900000Y-89900000D02*
X179800000Y-84000000D01*
X175700000Y-113950000D02*
X175525000Y-113775000D01*
X174500000Y-98400000D02*
X173900000Y-97800000D01*
X175525000Y-113775000D02*
X175525000Y-108450000D01*
X175525000Y-108450000D02*
X174500000Y-107425000D01*
%TO.N,/Auxiliary Card/I2C4.SCL*%
X164100000Y-113400000D02*
X164100000Y-108400000D01*
X164100000Y-108400000D02*
X162800000Y-107100000D01*
X162100000Y-115400000D02*
X164100000Y-113400000D01*
X163150000Y-88550000D02*
X162100000Y-87500000D01*
X162006587Y-115400000D02*
X162100000Y-115400000D01*
X163150000Y-103100000D02*
X163150000Y-88550000D01*
X162800000Y-103450000D02*
X163150000Y-103100000D01*
X162800000Y-107100000D02*
X162800000Y-103450000D01*
%TO.N,/Auxiliary Card/I2C4.SDA*%
X162950000Y-86500000D02*
X163150000Y-86700000D01*
X163150000Y-86700000D02*
X163150000Y-87982900D01*
X163201000Y-106901000D02*
X164550000Y-108250000D01*
X163201000Y-103616100D02*
X163201000Y-106901000D01*
X163551000Y-88383900D02*
X163551000Y-103266100D01*
X163150000Y-87982900D02*
X163551000Y-88383900D01*
X163551000Y-103266100D02*
X163201000Y-103616100D01*
X164550000Y-114200000D02*
X162700000Y-116050000D01*
X164550000Y-108250000D02*
X164550000Y-114200000D01*
%TO.N,/GNSS Card/I2C2.SCL*%
X199500000Y-102650000D02*
X199500000Y-88107900D01*
X209950000Y-131350000D02*
X197100000Y-144200000D01*
X202050000Y-112050000D02*
X202050000Y-105200000D01*
X209950000Y-119100000D02*
X209950000Y-131350000D01*
X165325000Y-141485412D02*
X165325000Y-139500000D01*
X203800000Y-83807900D02*
X203800000Y-82575000D01*
X202050000Y-105200000D02*
X199500000Y-102650000D01*
X197100000Y-144200000D02*
X168039588Y-144200000D01*
X199500000Y-88107900D02*
X203800000Y-83807900D01*
X203350000Y-112500000D02*
X209950000Y-119100000D01*
X168039588Y-144200000D02*
X165325000Y-141485412D01*
%TO.N,/GNSS Card/I2C2.SDA*%
X196600000Y-143700000D02*
X208800000Y-131500000D01*
X166250000Y-139500000D02*
X166250000Y-141800000D01*
X208800000Y-119150000D02*
X202700000Y-113050000D01*
X204800000Y-83475000D02*
X204800000Y-82575000D01*
X202700000Y-104925000D02*
X200050000Y-102275000D01*
X202700000Y-113050000D02*
X202700000Y-104925000D01*
X166250000Y-141800000D02*
X168150000Y-143700000D01*
X168150000Y-143700000D02*
X196600000Y-143700000D01*
X200050000Y-102275000D02*
X200050000Y-88225000D01*
X200050000Y-88225000D02*
X204800000Y-83475000D01*
X208800000Y-131500000D02*
X208800000Y-119150000D01*
%TO.N,/STM32H745/~{RESET}_HUB*%
X138775000Y-145700000D02*
X111975000Y-118900000D01*
X98925000Y-108250000D02*
X96675000Y-106000000D01*
X105050000Y-118300000D02*
X100525000Y-118300000D01*
X152200000Y-145700000D02*
X138775000Y-145700000D01*
X158275000Y-143250000D02*
X154650000Y-143250000D01*
X105650000Y-118900000D02*
X105050000Y-118300000D01*
X97421000Y-103604057D02*
X97421000Y-98396000D01*
X111975000Y-118900000D02*
X105650000Y-118900000D01*
X96675000Y-104350057D02*
X97421000Y-103604057D01*
X154650000Y-143250000D02*
X152200000Y-145700000D01*
X98925000Y-116700000D02*
X98925000Y-108250000D01*
X100525000Y-118300000D02*
X98925000Y-116700000D01*
X97421000Y-98396000D02*
X96325000Y-97300000D01*
X96675000Y-106000000D02*
X96675000Y-104350057D01*
%TO.N,/LTE Card/USART3.TX*%
X187500000Y-83900000D02*
X187500000Y-114700000D01*
X184175000Y-80575000D02*
X187500000Y-83900000D01*
X187500000Y-114700000D02*
X186000000Y-116200000D01*
X182600000Y-122100000D02*
X186000000Y-118700000D01*
X182600000Y-123300000D02*
X182600000Y-122100000D01*
%TO.N,/LTE Card/USART3.RX*%
X184600000Y-118700000D02*
X181800000Y-121500000D01*
X187100000Y-113700000D02*
X184600000Y-116200000D01*
X182775000Y-80575000D02*
X187100000Y-84900000D01*
X181800000Y-121500000D02*
X181800000Y-123300000D01*
X187100000Y-84900000D02*
X187100000Y-113700000D01*
X180600000Y-80575000D02*
X182775000Y-80575000D01*
%TO.N,/Auxiliary Card/USART6.RX*%
X164000000Y-103500000D02*
X163650000Y-103850000D01*
X163650000Y-103850000D02*
X163650000Y-106750000D01*
X164950000Y-108050000D02*
X164950000Y-115225000D01*
X164450000Y-120375000D02*
X164450000Y-121425000D01*
X162850000Y-117325000D02*
X162850000Y-118775000D01*
X158525000Y-80575000D02*
X164000000Y-86050000D01*
X162850000Y-118775000D02*
X164450000Y-120375000D01*
X164000000Y-86050000D02*
X164000000Y-103500000D01*
X164950000Y-115225000D02*
X162850000Y-117325000D01*
X163650000Y-106750000D02*
X164950000Y-108050000D01*
X156600000Y-80575000D02*
X158525000Y-80575000D01*
%TO.N,/Auxiliary Card/USART6.TX*%
X161500000Y-87750000D02*
X162750000Y-89000000D01*
X162350000Y-103300000D02*
X162350000Y-107350000D01*
X163526363Y-108526363D02*
X163526363Y-110923637D01*
X160250000Y-114200000D02*
X158200000Y-114200000D01*
X162750000Y-102900000D02*
X162350000Y-103300000D01*
X158200000Y-114200000D02*
X157849997Y-113849997D01*
X161500000Y-84500000D02*
X161500000Y-87750000D01*
X162750000Y-89000000D02*
X162750000Y-102900000D01*
X162350000Y-107350000D02*
X163526363Y-108526363D01*
X159425000Y-82425000D02*
X161500000Y-84500000D01*
X163526363Y-110923637D02*
X160250000Y-114200000D01*
X157849997Y-113849997D02*
X157849997Y-113500000D01*
%TO.N,/EPS Controller/EPS.SCL*%
X113398447Y-75843510D02*
X110953937Y-73399000D01*
X106000000Y-84625000D02*
X105875000Y-84750000D01*
X113398447Y-79051553D02*
X113398447Y-75843510D01*
X103400000Y-88450000D02*
X103400000Y-87325000D01*
X107401000Y-73399000D02*
X106000000Y-74800000D01*
X106000000Y-74800000D02*
X106000000Y-84625000D01*
X113250000Y-79200000D02*
X113398447Y-79051553D01*
X106600000Y-91650000D02*
X103400000Y-88450000D01*
X110953937Y-73399000D02*
X107401000Y-73399000D01*
%TO.N,/EPS Controller/EPS.SDA*%
X112350000Y-78600000D02*
X112997447Y-77952553D01*
X106750000Y-86950000D02*
X106775000Y-86925000D01*
X112997447Y-76009610D02*
X111987837Y-75000000D01*
X107250000Y-75000000D02*
X107025000Y-74775000D01*
X111987837Y-75000000D02*
X107250000Y-75000000D01*
X106750000Y-75050000D02*
X106750000Y-86950000D01*
X112997447Y-77952553D02*
X112997447Y-76009610D01*
X106775000Y-86925000D02*
X106825000Y-86925000D01*
X107025000Y-74775000D02*
X106750000Y-75050000D01*
%TO.N,/EPS Controller/BAT_CHG_~{INT}*%
X104626000Y-75299000D02*
X107925000Y-72000000D01*
X104626000Y-86051000D02*
X104626000Y-75299000D01*
X108150000Y-87600000D02*
X106175000Y-87600000D01*
X106175000Y-87600000D02*
X104626000Y-86051000D01*
%TO.N,/LTE Card/USART3.CTS*%
X171100000Y-124939588D02*
X171100000Y-133250000D01*
X186300000Y-111900000D02*
X186300000Y-106250000D01*
X185100000Y-84400000D02*
X183400000Y-82700000D01*
X185100000Y-105050000D02*
X185100000Y-84400000D01*
X183400000Y-82700000D02*
X181850000Y-82700000D01*
X186300000Y-106250000D02*
X185100000Y-105050000D01*
X172750000Y-121225000D02*
X172750000Y-123289588D01*
X171100000Y-133250000D02*
X168925000Y-135425000D01*
X172750000Y-123289588D02*
X171100000Y-124939588D01*
X181300000Y-119400000D02*
X174575000Y-119400000D01*
X182000000Y-116200000D02*
X186300000Y-111900000D01*
X182000000Y-118700000D02*
X181300000Y-119400000D01*
X181850000Y-82700000D02*
X181100000Y-83450000D01*
X174575000Y-119400000D02*
X172750000Y-121225000D01*
%TO.N,/LTE Card/USART3.RTS*%
X180800000Y-123300000D02*
X180800000Y-121300000D01*
X180800000Y-121300000D02*
X183400000Y-118700000D01*
X185750000Y-105000000D02*
X185750000Y-84250000D01*
X181417706Y-82200000D02*
X180500000Y-83117706D01*
X185750000Y-84250000D02*
X183700000Y-82200000D01*
X186700000Y-112900000D02*
X186700000Y-105950000D01*
X186700000Y-105950000D02*
X185750000Y-105000000D01*
X183400000Y-116200000D02*
X186700000Y-112900000D01*
X183700000Y-82200000D02*
X181417706Y-82200000D01*
X180500000Y-83117706D02*
X180500000Y-83950000D01*
X180500000Y-83950000D02*
X180550000Y-84000000D01*
%TO.N,/Auxiliary Card/USART6.CTS*%
X158600000Y-113050000D02*
X159750000Y-111900000D01*
X157676000Y-82874000D02*
X157100000Y-83450000D01*
X159500000Y-103450000D02*
X159500000Y-90450000D01*
X160650000Y-84950000D02*
X158574000Y-82874000D01*
X159750000Y-111900000D02*
X159750000Y-103700000D01*
X160650000Y-89300000D02*
X160650000Y-84950000D01*
X158600000Y-113500000D02*
X158600000Y-113050000D01*
X159500000Y-90450000D02*
X160650000Y-89300000D01*
X159750000Y-103700000D02*
X159500000Y-103450000D01*
X158574000Y-82874000D02*
X157676000Y-82874000D01*
%TO.N,/Auxiliary Card/USART6.RTS*%
X160200000Y-89050000D02*
X160200000Y-85450000D01*
X158900000Y-96325000D02*
X158900000Y-90350000D01*
X159326000Y-84576000D02*
X157126000Y-84576000D01*
X158900000Y-90350000D02*
X160200000Y-89050000D01*
X157200000Y-118150000D02*
X157200000Y-98025000D01*
X161750000Y-119050000D02*
X158100000Y-119050000D01*
X158100000Y-119050000D02*
X157200000Y-118150000D01*
X163675000Y-121727116D02*
X162800000Y-120852116D01*
X160200000Y-85450000D02*
X159326000Y-84576000D01*
X157200000Y-98025000D02*
X158900000Y-96325000D01*
X162800000Y-120100000D02*
X161750000Y-119050000D01*
X163675000Y-122225000D02*
X163675000Y-121727116D01*
X162800000Y-120852116D02*
X162800000Y-120100000D01*
X157126000Y-84576000D02*
X156550000Y-84000000D01*
%TO.N,/Auxiliary Card/AUX.~{RESET}*%
X161250000Y-107508550D02*
X162500000Y-108758550D01*
X156000000Y-91250000D02*
X155500000Y-90750000D01*
X160150000Y-101275000D02*
X161250000Y-102375000D01*
X160150000Y-100500000D02*
X160150000Y-101275000D01*
X162500000Y-110000000D02*
X159399997Y-113100003D01*
X161250000Y-102375000D02*
X161250000Y-107508550D01*
X162500000Y-108758550D02*
X162500000Y-110000000D01*
X159399997Y-113100003D02*
X159399997Y-113475000D01*
X156000000Y-100500000D02*
X156000000Y-91250000D01*
%TO.N,/STM32H745/HUB_SUSPEND*%
X103475057Y-120650000D02*
X101800000Y-120650000D01*
X157375000Y-144225000D02*
X155275000Y-146325000D01*
X93425000Y-100375000D02*
X94050000Y-99750000D01*
X97400000Y-116250000D02*
X97400000Y-109300000D01*
X138650000Y-146325000D02*
X116250000Y-123925000D01*
X110322943Y-119350000D02*
X104775057Y-119350000D01*
X104775057Y-119350000D02*
X103475057Y-120650000D01*
X97400000Y-109300000D02*
X93425000Y-105325000D01*
X155275000Y-146325000D02*
X138650000Y-146325000D01*
X116250000Y-123925000D02*
X114897943Y-123925000D01*
X101800000Y-120650000D02*
X97400000Y-116250000D01*
X114897943Y-123925000D02*
X110322943Y-119350000D01*
X93425000Y-105325000D02*
X93425000Y-100375000D01*
%TO.N,/LTE Card/LTE.~{RESET}*%
X158250000Y-122850000D02*
X163900000Y-122850000D01*
X177850000Y-92750000D02*
X179500000Y-91100000D01*
X172200000Y-114550000D02*
X176000000Y-114550000D01*
X163900000Y-122850000D02*
X172200000Y-114550000D01*
X176000000Y-114550000D02*
X178050000Y-112500000D01*
X147750000Y-121000000D02*
X150142100Y-121000000D01*
X152450000Y-121500000D02*
X156900000Y-121500000D01*
X150692100Y-121550000D02*
X152400000Y-121550000D01*
X177850000Y-94550000D02*
X177850000Y-92750000D01*
X178050000Y-112500000D02*
X178050000Y-94750000D01*
X179500000Y-91100000D02*
X179500000Y-90750000D01*
X178050000Y-94750000D02*
X177850000Y-94550000D01*
X152400000Y-121550000D02*
X152450000Y-121500000D01*
X156900000Y-121500000D02*
X158250000Y-122850000D01*
X150142100Y-121000000D02*
X150692100Y-121550000D01*
%TO.N,/L4_CAN_TX*%
X103124000Y-114449000D02*
X103124000Y-101051000D01*
X103125000Y-114450000D02*
X103124000Y-114449000D01*
X103124000Y-101051000D02*
X103175000Y-101000000D01*
%TO.N,Net-(U24-STAT)*%
X101749000Y-68351000D02*
X101749000Y-73974000D01*
X101749000Y-73974000D02*
X102275000Y-74500000D01*
X102275000Y-74500000D02*
X102775000Y-74500000D01*
X103650000Y-66450000D02*
X101749000Y-68351000D01*
%TO.N,/STM32H745/~{RESET}_H7*%
X94000000Y-95000000D02*
X94900000Y-95000000D01*
X99876057Y-106301000D02*
X99876057Y-106301057D01*
X98809000Y-104159000D02*
X99350000Y-104700000D01*
X99350000Y-105774943D02*
X99876057Y-106301000D01*
X169175000Y-139000000D02*
X184775000Y-139000000D01*
X150650000Y-133000000D02*
X163175000Y-133000000D01*
X150349000Y-132699000D02*
X150650000Y-133000000D01*
X184775000Y-139000000D02*
X186475000Y-137300000D01*
X134675000Y-122300000D02*
X134675000Y-123200000D01*
X139276000Y-129351000D02*
X142301000Y-129351000D01*
X99876057Y-106301057D02*
X100225000Y-106650000D01*
X145649000Y-132699000D02*
X150349000Y-132699000D01*
X98809000Y-98909000D02*
X98809000Y-104159000D01*
X142301000Y-129351000D02*
X145649000Y-132699000D01*
X134675000Y-123200000D02*
X133475000Y-124400000D01*
X99350000Y-104700000D02*
X99350000Y-105774943D01*
X111899265Y-117049265D02*
X109250000Y-114400000D01*
X100225000Y-106650000D02*
X100225000Y-111100000D01*
X136093180Y-126168180D02*
X139276000Y-129351000D01*
X133475000Y-126168180D02*
X136093180Y-126168180D01*
X115850735Y-117049265D02*
X111899265Y-117049265D01*
X94900000Y-95000000D02*
X98809000Y-98909000D01*
X163175000Y-133000000D02*
X169175000Y-139000000D01*
%TO.N,/STM32H745/HUB_H7_INT*%
X158750000Y-142250000D02*
X154550000Y-142250000D01*
X152400000Y-144400000D02*
X138350000Y-144400000D01*
X112425000Y-118475000D02*
X105900000Y-118475000D01*
X138350000Y-144400000D02*
X112425000Y-118475000D01*
X100900000Y-117900000D02*
X99575000Y-116575000D01*
X99575000Y-116575000D02*
X99575000Y-107525000D01*
X105325000Y-117900000D02*
X100900000Y-117900000D01*
X154550000Y-142250000D02*
X152400000Y-144400000D01*
X99575000Y-107525000D02*
X97625000Y-105575000D01*
X105900000Y-118475000D02*
X105325000Y-117900000D01*
%TO.N,/EPS Controller/SPI1.SCK*%
X152775000Y-125075000D02*
X126900000Y-125075000D01*
X154500000Y-126800000D02*
X152775000Y-125075000D01*
X124075000Y-122250000D02*
X122700000Y-122250000D01*
X122700000Y-122250000D02*
X112800000Y-112350000D01*
X126900000Y-125075000D02*
X124075000Y-122250000D01*
X112800000Y-112350000D02*
X112800000Y-106200000D01*
%TO.N,/EPS Controller/SPI1.MOSI*%
X158750000Y-120100000D02*
X141500000Y-120100000D01*
X141500000Y-120100000D02*
X124050000Y-102650000D01*
X124050000Y-102650000D02*
X115900000Y-102650000D01*
X162100000Y-122100000D02*
X160750000Y-122100000D01*
X160750000Y-122100000D02*
X158750000Y-120100000D01*
%TO.N,/EPS Controller/EPS_EEPROM_~{WC}*%
X98800000Y-92000000D02*
X99851000Y-93051000D01*
X104875943Y-95376000D02*
X108640588Y-95376000D01*
X99851000Y-93051000D02*
X102550943Y-93051000D01*
X110576000Y-101576000D02*
X112000000Y-103000000D01*
X102550943Y-93051000D02*
X104875943Y-95376000D01*
X110576000Y-97311412D02*
X110576000Y-101576000D01*
X108640588Y-95376000D02*
X110576000Y-97311412D01*
%TO.N,/EPS Controller/SPI1.MISO*%
X122875000Y-121575000D02*
X150150000Y-121575000D01*
X150150000Y-121575000D02*
X155249999Y-126674999D01*
X113426000Y-101426000D02*
X113426000Y-112126000D01*
X113426000Y-112126000D02*
X122875000Y-121575000D01*
%TO.N,/EPS Controller/SPI1.~{SS}_H7*%
X153737500Y-126862500D02*
X152351000Y-125476000D01*
X112100000Y-105000000D02*
X112850000Y-104250000D01*
X112850000Y-104250000D02*
X112850000Y-102300000D01*
X112100000Y-112450000D02*
X112100000Y-105000000D01*
X122425000Y-122775000D02*
X112100000Y-112450000D01*
X126733900Y-125476000D02*
X124032900Y-122775000D01*
X152351000Y-125476000D02*
X126733900Y-125476000D01*
X124032900Y-122775000D02*
X122425000Y-122775000D01*
%TO.N,/EPS Controller/SPI1.REQ*%
X144777116Y-133100000D02*
X141900000Y-133100000D01*
X152525000Y-136725000D02*
X152525000Y-135775000D01*
X145727116Y-134050000D02*
X144777116Y-133100000D01*
X135600000Y-126800000D02*
X127750000Y-126800000D01*
X152525000Y-135775000D02*
X150800000Y-134050000D01*
X114150000Y-110750000D02*
X114150000Y-92850000D01*
X141900000Y-133100000D02*
X135600000Y-126800000D01*
X150800000Y-134050000D02*
X145727116Y-134050000D01*
X124375000Y-120975000D02*
X114150000Y-110750000D01*
%TO.N,/EPS Controller/SPI1.GRANT*%
X125475000Y-120975000D02*
X114550000Y-110050000D01*
X114550000Y-110050000D02*
X114550000Y-94050000D01*
X151750000Y-135925000D02*
X151275000Y-135925000D01*
X114550000Y-94050000D02*
X115050000Y-93550000D01*
X143599000Y-135924000D02*
X135075000Y-127400000D01*
X151275000Y-135925000D02*
X151274000Y-135924000D01*
X151274000Y-135924000D02*
X143599000Y-135924000D01*
X135075000Y-127400000D02*
X128450000Y-127400000D01*
%TO.N,/EPS Controller/BOOT0_L4*%
X102900000Y-99775000D02*
X104025000Y-99775000D01*
X104600000Y-100350000D02*
X104600000Y-102285412D01*
X104025000Y-99775000D02*
X104600000Y-100350000D01*
X105376000Y-108174000D02*
X104625000Y-108925000D01*
X105376000Y-103061412D02*
X105376000Y-108174000D01*
X104600000Y-102285412D02*
X105376000Y-103061412D01*
%TO.N,/EPS Controller/L4_SWCLK*%
X94800000Y-87650000D02*
X94800000Y-89950000D01*
X94800000Y-89950000D02*
X100675000Y-95825000D01*
X100675000Y-95825000D02*
X103575000Y-95825000D01*
%TO.N,/EPS Controller/L4_SWDIO*%
X106250000Y-94150000D02*
X100400000Y-88300000D01*
X96300000Y-88300000D02*
X94730000Y-86730000D01*
X100400000Y-88300000D02*
X96300000Y-88300000D01*
X94730000Y-86730000D02*
X94730000Y-85750000D01*
X106250000Y-94800000D02*
X106250000Y-94150000D01*
%TO.N,/L4_CAN_RX*%
X103275057Y-117325000D02*
X102500000Y-116549943D01*
X103350000Y-117300000D02*
X103325000Y-117325000D01*
X103325000Y-117325000D02*
X103275057Y-117325000D01*
X100925000Y-113500000D02*
X100925000Y-102275000D01*
X100925000Y-102275000D02*
X102850000Y-100350000D01*
X102500000Y-116549943D02*
X102500000Y-115075000D01*
X102850000Y-100350000D02*
X103725000Y-100350000D01*
X102500000Y-115075000D02*
X100925000Y-113500000D01*
%TO.N,/L4_CAN_STB*%
X110375000Y-104675000D02*
X110375000Y-112325000D01*
X110375000Y-112325000D02*
X107675000Y-115025000D01*
%TO.N,/EPS Controller/SPI1.~{SS}_L4*%
X160900000Y-121500000D02*
X159050000Y-119650000D01*
X109500000Y-94950000D02*
X109000000Y-94450000D01*
X162925000Y-122100000D02*
X162325000Y-121500000D01*
X142064588Y-119650000D02*
X114688588Y-92274000D01*
X110900000Y-94950000D02*
X109500000Y-94950000D01*
X114688588Y-92274000D02*
X113576000Y-92274000D01*
X113576000Y-92274000D02*
X110900000Y-94950000D01*
X162325000Y-121500000D02*
X160900000Y-121500000D01*
X159050000Y-119650000D02*
X142064588Y-119650000D01*
%TD*%
%TA.AperFunction,Conductor*%
%TO.N,GND*%
G36*
X229618500Y-122992594D02*
G01*
X229617055Y-123007265D01*
X229612398Y-123030677D01*
X229611559Y-123032702D01*
X229611688Y-123033879D01*
X229601170Y-123057784D01*
X229592103Y-123071354D01*
X229571354Y-123092103D01*
X229557784Y-123101170D01*
X229530678Y-123112397D01*
X229507262Y-123117055D01*
X229492595Y-123118500D01*
X227563178Y-123118500D01*
X227392874Y-123152376D01*
X227392872Y-123152377D01*
X227232454Y-123218824D01*
X227088074Y-123315296D01*
X227088071Y-123315298D01*
X226965298Y-123438071D01*
X226965296Y-123438074D01*
X226868824Y-123582454D01*
X226802377Y-123742872D01*
X226802376Y-123742874D01*
X226768500Y-123913178D01*
X226768500Y-124000000D01*
X224150000Y-124000000D01*
X224150000Y-123500554D01*
X224150007Y-123499500D01*
X224152308Y-123335345D01*
X224152774Y-123327979D01*
X224165073Y-123218824D01*
X224189584Y-123001274D01*
X224190992Y-122992985D01*
X224264040Y-122672943D01*
X224266370Y-122664856D01*
X224361927Y-122391770D01*
X224379727Y-122363442D01*
X224420505Y-122322665D01*
X224489688Y-122202836D01*
X224525500Y-122069183D01*
X224525500Y-122064210D01*
X224537026Y-122024201D01*
X224699149Y-121766183D01*
X224704019Y-121759320D01*
X224908688Y-121502673D01*
X224914291Y-121496404D01*
X225146404Y-121264291D01*
X225152673Y-121258688D01*
X225409320Y-121054019D01*
X225416183Y-121049149D01*
X225694135Y-120874500D01*
X225701497Y-120870432D01*
X225997254Y-120728003D01*
X226005018Y-120724787D01*
X226314856Y-120616370D01*
X226322943Y-120614040D01*
X226642985Y-120540992D01*
X226651274Y-120539584D01*
X226977983Y-120502773D01*
X226985335Y-120502308D01*
X227150000Y-120500000D01*
X229618500Y-120500000D01*
X229618500Y-122992594D01*
G37*
%TD.AperFunction*%
%TD*%
%TA.AperFunction,Conductor*%
%TO.N,GND*%
G36*
X78973138Y-113867593D02*
G01*
X78998858Y-113912142D01*
X79000000Y-113925200D01*
X79000000Y-147000000D01*
X75389473Y-147000000D01*
X75421058Y-146882122D01*
X75454500Y-146628105D01*
X75454500Y-146371895D01*
X75421058Y-146117878D01*
X75354746Y-145870398D01*
X75256699Y-145633692D01*
X75128595Y-145411808D01*
X74972624Y-145208543D01*
X74972611Y-145208529D01*
X74791470Y-145027388D01*
X74791455Y-145027374D01*
X74588194Y-144871406D01*
X74366309Y-144743301D01*
X74129605Y-144645255D01*
X74129603Y-144645254D01*
X74129602Y-144645254D01*
X73882122Y-144578942D01*
X73628105Y-144545500D01*
X73371895Y-144545500D01*
X73117878Y-144578942D01*
X73117874Y-144578943D01*
X73117873Y-144578943D01*
X73000000Y-144610527D01*
X73000000Y-142347897D01*
X73018344Y-142347640D01*
X73352915Y-142309943D01*
X73681161Y-142235023D01*
X73998955Y-142123822D01*
X74302300Y-141977739D01*
X74587382Y-141798610D01*
X74850615Y-141588689D01*
X75088689Y-141350615D01*
X75298610Y-141087382D01*
X75477739Y-140802300D01*
X75623822Y-140498955D01*
X75735023Y-140181161D01*
X75809943Y-139852915D01*
X75847640Y-139518344D01*
X75850000Y-139350000D01*
X75850000Y-138850000D01*
X75850000Y-113850000D01*
X78924800Y-113850000D01*
X78973138Y-113867593D01*
G37*
%TD.AperFunction*%
%TD*%
%TA.AperFunction,Conductor*%
%TO.N,GND*%
G36*
X228002684Y-50381691D02*
G01*
X228224975Y-50397590D01*
X228235589Y-50399116D01*
X228450726Y-50445917D01*
X228461014Y-50448937D01*
X228612203Y-50505328D01*
X228667311Y-50525882D01*
X228677070Y-50530339D01*
X228870304Y-50635852D01*
X228879331Y-50641653D01*
X229055592Y-50773600D01*
X229063700Y-50780627D01*
X229219372Y-50936299D01*
X229226399Y-50944407D01*
X229358346Y-51120668D01*
X229364147Y-51129695D01*
X229469660Y-51322929D01*
X229474117Y-51332688D01*
X229551061Y-51538982D01*
X229554083Y-51549277D01*
X229600882Y-51764407D01*
X229602409Y-51775027D01*
X229618308Y-51997315D01*
X229618500Y-52002680D01*
X229618500Y-53000000D01*
X228389473Y-53000000D01*
X228354746Y-52870398D01*
X228256699Y-52633692D01*
X228128595Y-52411808D01*
X227972624Y-52208543D01*
X227972611Y-52208529D01*
X227791470Y-52027388D01*
X227791455Y-52027374D01*
X227588194Y-51871406D01*
X227366309Y-51743301D01*
X227129605Y-51645255D01*
X227129603Y-51645254D01*
X227129602Y-51645254D01*
X226882122Y-51578942D01*
X226628105Y-51545500D01*
X226371895Y-51545500D01*
X226117878Y-51578942D01*
X226117874Y-51578943D01*
X226117873Y-51578943D01*
X225960978Y-51620983D01*
X225870398Y-51645254D01*
X225870396Y-51645254D01*
X225870395Y-51645255D01*
X225870394Y-51645255D01*
X225633690Y-51743301D01*
X225411805Y-51871406D01*
X225208544Y-52027374D01*
X225208529Y-52027388D01*
X225027388Y-52208529D01*
X225027374Y-52208544D01*
X224871406Y-52411805D01*
X224743301Y-52633690D01*
X224645255Y-52870394D01*
X224645255Y-52870395D01*
X224645254Y-52870398D01*
X224610527Y-53000000D01*
X75447176Y-53000000D01*
X75398838Y-52982407D01*
X75374539Y-52944264D01*
X75354748Y-52870405D01*
X75354747Y-52870403D01*
X75354746Y-52870398D01*
X75256699Y-52633692D01*
X75128595Y-52411808D01*
X74972624Y-52208543D01*
X74972611Y-52208529D01*
X74791470Y-52027388D01*
X74791455Y-52027374D01*
X74588194Y-51871406D01*
X74366309Y-51743301D01*
X74129605Y-51645255D01*
X74129603Y-51645254D01*
X74129602Y-51645254D01*
X73882122Y-51578942D01*
X73628105Y-51545500D01*
X73371895Y-51545500D01*
X73117878Y-51578942D01*
X73117874Y-51578943D01*
X73117873Y-51578943D01*
X72960978Y-51620983D01*
X72870398Y-51645254D01*
X72870396Y-51645254D01*
X72870395Y-51645255D01*
X72870394Y-51645255D01*
X72633690Y-51743301D01*
X72411805Y-51871406D01*
X72208544Y-52027374D01*
X72208529Y-52027388D01*
X72027388Y-52208529D01*
X72027374Y-52208544D01*
X71871406Y-52411805D01*
X71743301Y-52633690D01*
X71645255Y-52870394D01*
X71645255Y-52870395D01*
X71645254Y-52870398D01*
X71610527Y-53000000D01*
X70381500Y-53000000D01*
X70381500Y-52002680D01*
X70381692Y-51997315D01*
X70397590Y-51775027D01*
X70399117Y-51764407D01*
X70445918Y-51549270D01*
X70448935Y-51538989D01*
X70525883Y-51332684D01*
X70530339Y-51322929D01*
X70548210Y-51290201D01*
X70635856Y-51129688D01*
X70641648Y-51120674D01*
X70773605Y-50944400D01*
X70780620Y-50936306D01*
X70936306Y-50780620D01*
X70944400Y-50773605D01*
X71120674Y-50641648D01*
X71129688Y-50635856D01*
X71322933Y-50530336D01*
X71332684Y-50525883D01*
X71538989Y-50448935D01*
X71549270Y-50445918D01*
X71764412Y-50399116D01*
X71775022Y-50397590D01*
X71997315Y-50381691D01*
X72002680Y-50381500D01*
X72054851Y-50381500D01*
X227945149Y-50381500D01*
X227997320Y-50381500D01*
X228002684Y-50381691D01*
G37*
%TD.AperFunction*%
%TD*%
%TA.AperFunction,Conductor*%
%TO.N,GND*%
G36*
X73014663Y-86902308D02*
G01*
X73022017Y-86902773D01*
X73348722Y-86939584D01*
X73357017Y-86940993D01*
X73677051Y-87014039D01*
X73685148Y-87016372D01*
X73994975Y-87124785D01*
X74002751Y-87128006D01*
X74298492Y-87270427D01*
X74305873Y-87274506D01*
X74583809Y-87449145D01*
X74590686Y-87454025D01*
X74847316Y-87658680D01*
X74853604Y-87664300D01*
X75085699Y-87896395D01*
X75091319Y-87902683D01*
X75295974Y-88159313D01*
X75300854Y-88166190D01*
X75475493Y-88444126D01*
X75479572Y-88451507D01*
X75621990Y-88747241D01*
X75625217Y-88755032D01*
X75733626Y-89064848D01*
X75735961Y-89072951D01*
X75809004Y-89392972D01*
X75810416Y-89401286D01*
X75847225Y-89727979D01*
X75847691Y-89735345D01*
X75849993Y-89899500D01*
X75850000Y-89900554D01*
X75850000Y-138850000D01*
X75850000Y-139350000D01*
X75847640Y-139518344D01*
X75809943Y-139852915D01*
X75735023Y-140181161D01*
X75623822Y-140498955D01*
X75477739Y-140802300D01*
X75298610Y-141087382D01*
X75088689Y-141350615D01*
X74850615Y-141588689D01*
X74587382Y-141798610D01*
X74302300Y-141977739D01*
X73998955Y-142123822D01*
X73681161Y-142235023D01*
X73352915Y-142309943D01*
X73018344Y-142347640D01*
X72850000Y-142350000D01*
X70381500Y-142350000D01*
X70381500Y-139857405D01*
X70382943Y-139842743D01*
X70387602Y-139819318D01*
X70398826Y-139792220D01*
X70407901Y-139778639D01*
X70428639Y-139757901D01*
X70442220Y-139748826D01*
X70469318Y-139737602D01*
X70492743Y-139732943D01*
X70507405Y-139731500D01*
X72436822Y-139731500D01*
X72493332Y-139720258D01*
X72607124Y-139697624D01*
X72767547Y-139631175D01*
X72911923Y-139534706D01*
X73034706Y-139411923D01*
X73131175Y-139267547D01*
X73197624Y-139107124D01*
X73231500Y-138936820D01*
X73231500Y-138850000D01*
X73231500Y-138795149D01*
X73231500Y-119099775D01*
X73231500Y-119063180D01*
X73225198Y-119031500D01*
X73205242Y-118931175D01*
X73197624Y-118892876D01*
X73131175Y-118732453D01*
X73034706Y-118588077D01*
X73034703Y-118588074D01*
X73034701Y-118588071D01*
X72911928Y-118465298D01*
X72911925Y-118465296D01*
X72911923Y-118465294D01*
X72767547Y-118368825D01*
X72767545Y-118368824D01*
X72607127Y-118302377D01*
X72607125Y-118302376D01*
X72436822Y-118268500D01*
X72436820Y-118268500D01*
X72400225Y-118268500D01*
X70507405Y-118268500D01*
X70492736Y-118267055D01*
X70469321Y-118262397D01*
X70442215Y-118251170D01*
X70428642Y-118242100D01*
X70407899Y-118221357D01*
X70398827Y-118207781D01*
X70387602Y-118180679D01*
X70382943Y-118157257D01*
X70381500Y-118142594D01*
X70381500Y-114607405D01*
X70382943Y-114592743D01*
X70387602Y-114569318D01*
X70398826Y-114542220D01*
X70407901Y-114528639D01*
X70428639Y-114507901D01*
X70442220Y-114498826D01*
X70469318Y-114487602D01*
X70492743Y-114482943D01*
X70507405Y-114481500D01*
X72136822Y-114481500D01*
X72193332Y-114470258D01*
X72307124Y-114447624D01*
X72467547Y-114381175D01*
X72611923Y-114284706D01*
X72734706Y-114161923D01*
X72831175Y-114017547D01*
X72897624Y-113857124D01*
X72931500Y-113686820D01*
X72931500Y-113600000D01*
X72931500Y-113545149D01*
X72931500Y-90349775D01*
X72931500Y-90313180D01*
X72925198Y-90281500D01*
X72905242Y-90181175D01*
X72897624Y-90142876D01*
X72831175Y-89982453D01*
X72734706Y-89838077D01*
X72734703Y-89838074D01*
X72734701Y-89838071D01*
X72611928Y-89715298D01*
X72611925Y-89715296D01*
X72611923Y-89715294D01*
X72467547Y-89618825D01*
X72467545Y-89618824D01*
X72307127Y-89552377D01*
X72307125Y-89552376D01*
X72136822Y-89518500D01*
X72136820Y-89518500D01*
X72100225Y-89518500D01*
X70507405Y-89518500D01*
X70492736Y-89517055D01*
X70469321Y-89512397D01*
X70442215Y-89501170D01*
X70428642Y-89492100D01*
X70407899Y-89471357D01*
X70398827Y-89457781D01*
X70387602Y-89430679D01*
X70382943Y-89407257D01*
X70381500Y-89392594D01*
X70381500Y-86900000D01*
X72850000Y-86900000D01*
X73014663Y-86902308D01*
G37*
%TD.AperFunction*%
%TD*%
%TA.AperFunction,Conductor*%
%TO.N,GND*%
G36*
X224578942Y-53117878D02*
G01*
X224545500Y-53371895D01*
X224545500Y-53628105D01*
X224578942Y-53882122D01*
X224578943Y-53882125D01*
X224578943Y-53882126D01*
X224645255Y-54129604D01*
X224645255Y-54129605D01*
X224743301Y-54366309D01*
X224871406Y-54588194D01*
X225027374Y-54791455D01*
X225027388Y-54791470D01*
X225208529Y-54972611D01*
X225208543Y-54972624D01*
X225411808Y-55128595D01*
X225633692Y-55256699D01*
X225870398Y-55354746D01*
X226117878Y-55421058D01*
X226371895Y-55454500D01*
X226371898Y-55454500D01*
X226628102Y-55454500D01*
X226628105Y-55454500D01*
X226882122Y-55421058D01*
X227000000Y-55389472D01*
X227000000Y-70000000D01*
X218600557Y-70000000D01*
X218590719Y-69996419D01*
X218580282Y-69997215D01*
X218567269Y-69987884D01*
X218552219Y-69982407D01*
X218546127Y-69972725D01*
X218538478Y-69967241D01*
X218531969Y-69950224D01*
X218527706Y-69943449D01*
X218525500Y-69934831D01*
X218525500Y-69930817D01*
X218502462Y-69844839D01*
X218502349Y-69844396D01*
X218502394Y-69843936D01*
X218500000Y-69825747D01*
X218500000Y-68174251D01*
X218502562Y-68154788D01*
X218525500Y-68069183D01*
X218525500Y-67930817D01*
X218502562Y-67845209D01*
X218500000Y-67825747D01*
X218500000Y-66174251D01*
X218502562Y-66154788D01*
X218525500Y-66069183D01*
X218525500Y-65930817D01*
X218502562Y-65845209D01*
X218500000Y-65825747D01*
X218500000Y-64174251D01*
X218502562Y-64154788D01*
X218525500Y-64069183D01*
X218525500Y-63930817D01*
X218502562Y-63845209D01*
X218500000Y-63825747D01*
X218500000Y-62174251D01*
X218502562Y-62154788D01*
X218525500Y-62069183D01*
X218525500Y-61930817D01*
X218502562Y-61845209D01*
X218500000Y-61825747D01*
X218500000Y-60174251D01*
X218502562Y-60154788D01*
X218525500Y-60069183D01*
X218525500Y-59930817D01*
X218502562Y-59845209D01*
X218500000Y-59825747D01*
X218500000Y-58174251D01*
X218502562Y-58154788D01*
X218525500Y-58069183D01*
X218525500Y-57930817D01*
X218502562Y-57845209D01*
X218500000Y-57825747D01*
X218500000Y-53000000D01*
X224610527Y-53000000D01*
X224578942Y-53117878D01*
G37*
%TD.AperFunction*%
%TD*%
%TA.AperFunction,Conductor*%
%TO.N,GND*%
G36*
X224702571Y-135435075D02*
G01*
X224797164Y-135489688D01*
X224930817Y-135525500D01*
X224930820Y-135525500D01*
X225069180Y-135525500D01*
X225069183Y-135525500D01*
X225202836Y-135489688D01*
X225297429Y-135435075D01*
X225335029Y-135425000D01*
X226693300Y-135425000D01*
X226741638Y-135442593D01*
X226767358Y-135487142D01*
X226768500Y-135500200D01*
X226768500Y-140586821D01*
X226802376Y-140757125D01*
X226802377Y-140757127D01*
X226858000Y-140891414D01*
X226868825Y-140917547D01*
X226965294Y-141061923D01*
X226965296Y-141061925D01*
X226965298Y-141061928D01*
X227088071Y-141184701D01*
X227088074Y-141184703D01*
X227088077Y-141184706D01*
X227150000Y-141226081D01*
X227150000Y-144653702D01*
X227129611Y-144645257D01*
X227129604Y-144645255D01*
X227129605Y-144645255D01*
X227129602Y-144645254D01*
X226882122Y-144578942D01*
X226628105Y-144545500D01*
X226371895Y-144545500D01*
X226117878Y-144578942D01*
X226117874Y-144578943D01*
X226117873Y-144578943D01*
X225960978Y-144620983D01*
X225870398Y-144645254D01*
X225870396Y-144645254D01*
X225870395Y-144645255D01*
X225870394Y-144645255D01*
X225633690Y-144743301D01*
X225411805Y-144871406D01*
X225208544Y-145027374D01*
X225208529Y-145027388D01*
X225027388Y-145208529D01*
X225027374Y-145208544D01*
X224871406Y-145411805D01*
X224743301Y-145633690D01*
X224645255Y-145870394D01*
X224645255Y-145870395D01*
X224645254Y-145870398D01*
X224578942Y-146117878D01*
X224545500Y-146371895D01*
X224545500Y-146628105D01*
X224578942Y-146882122D01*
X224578943Y-146882125D01*
X224578943Y-146882126D01*
X224645255Y-147129604D01*
X224645255Y-147129605D01*
X224743301Y-147366309D01*
X224871406Y-147588194D01*
X225027374Y-147791455D01*
X225027388Y-147791470D01*
X225208529Y-147972611D01*
X225208543Y-147972624D01*
X225411808Y-148128595D01*
X225633692Y-148256699D01*
X225870398Y-148354746D01*
X226117878Y-148421058D01*
X226371895Y-148454500D01*
X226371898Y-148454500D01*
X226628102Y-148454500D01*
X226628105Y-148454500D01*
X226882122Y-148421058D01*
X227129602Y-148354746D01*
X227150000Y-148346296D01*
X227150000Y-149618500D01*
X224150000Y-149618500D01*
X224150000Y-135500200D01*
X224167593Y-135451862D01*
X224212142Y-135426142D01*
X224225200Y-135425000D01*
X224664971Y-135425000D01*
X224702571Y-135435075D01*
G37*
%TD.AperFunction*%
%TD*%
%TA.AperFunction,Conductor*%
%TO.N,GND*%
G36*
X73000000Y-144610527D02*
G01*
X72945640Y-144625092D01*
X72870398Y-144645254D01*
X72870395Y-144645255D01*
X72870392Y-144645256D01*
X72633690Y-144743301D01*
X72411805Y-144871406D01*
X72208544Y-145027374D01*
X72208529Y-145027388D01*
X72027388Y-145208529D01*
X72027374Y-145208544D01*
X71871406Y-145411805D01*
X71743301Y-145633690D01*
X71645255Y-145870394D01*
X71645255Y-145870395D01*
X71645254Y-145870398D01*
X71578942Y-146117878D01*
X71545500Y-146371895D01*
X71545500Y-146628105D01*
X71578942Y-146882122D01*
X71578943Y-146882125D01*
X71578943Y-146882126D01*
X71645255Y-147129604D01*
X71645255Y-147129605D01*
X71743301Y-147366309D01*
X71871406Y-147588194D01*
X72027374Y-147791455D01*
X72027388Y-147791470D01*
X72208529Y-147972611D01*
X72208543Y-147972624D01*
X72411808Y-148128595D01*
X72633692Y-148256699D01*
X72870398Y-148354746D01*
X73000000Y-148389472D01*
X73000000Y-149618500D01*
X72002680Y-149618500D01*
X71997315Y-149618308D01*
X71775027Y-149602409D01*
X71764407Y-149600882D01*
X71549277Y-149554083D01*
X71538982Y-149551061D01*
X71332688Y-149474117D01*
X71322929Y-149469660D01*
X71129695Y-149364147D01*
X71120668Y-149358346D01*
X70944407Y-149226399D01*
X70936299Y-149219372D01*
X70780627Y-149063700D01*
X70773600Y-149055592D01*
X70641653Y-148879331D01*
X70635852Y-148870304D01*
X70530339Y-148677070D01*
X70525882Y-148667311D01*
X70448938Y-148461017D01*
X70445916Y-148450722D01*
X70403708Y-148256698D01*
X70399116Y-148235589D01*
X70397590Y-148224972D01*
X70381692Y-148002684D01*
X70381500Y-147997319D01*
X70381500Y-139857405D01*
X70382943Y-139842743D01*
X70387602Y-139819318D01*
X70398826Y-139792220D01*
X70407901Y-139778639D01*
X70428639Y-139757901D01*
X70442220Y-139748826D01*
X70469318Y-139737602D01*
X70492743Y-139732943D01*
X70507405Y-139731500D01*
X72436822Y-139731500D01*
X72493332Y-139720258D01*
X72607124Y-139697624D01*
X72767547Y-139631175D01*
X72911923Y-139534706D01*
X73000000Y-139446629D01*
X73000000Y-144610527D01*
G37*
%TD.AperFunction*%
%TA.AperFunction,Conductor*%
G36*
X73000000Y-51610527D02*
G01*
X72945640Y-51625092D01*
X72870398Y-51645254D01*
X72870395Y-51645255D01*
X72870392Y-51645256D01*
X72633690Y-51743301D01*
X72411805Y-51871406D01*
X72208544Y-52027374D01*
X72208529Y-52027388D01*
X72027388Y-52208529D01*
X72027374Y-52208544D01*
X71871406Y-52411805D01*
X71743301Y-52633690D01*
X71645255Y-52870394D01*
X71645255Y-52870395D01*
X71645254Y-52870398D01*
X71578942Y-53117878D01*
X71545500Y-53371895D01*
X71545500Y-53628105D01*
X71578942Y-53882122D01*
X71578943Y-53882125D01*
X71578943Y-53882126D01*
X71645255Y-54129604D01*
X71645255Y-54129605D01*
X71743301Y-54366309D01*
X71871406Y-54588194D01*
X72027374Y-54791455D01*
X72027388Y-54791470D01*
X72208529Y-54972611D01*
X72208543Y-54972624D01*
X72411808Y-55128595D01*
X72633692Y-55256699D01*
X72870398Y-55354746D01*
X72944263Y-55374538D01*
X72986400Y-55404041D01*
X73000000Y-55447175D01*
X73000000Y-118553370D01*
X72911928Y-118465298D01*
X72911925Y-118465296D01*
X72911923Y-118465294D01*
X72767547Y-118368825D01*
X72767545Y-118368824D01*
X72607127Y-118302377D01*
X72607125Y-118302376D01*
X72436822Y-118268500D01*
X72436820Y-118268500D01*
X72400225Y-118268500D01*
X70507405Y-118268500D01*
X70492736Y-118267055D01*
X70469321Y-118262397D01*
X70442215Y-118251170D01*
X70428642Y-118242100D01*
X70407899Y-118221357D01*
X70398827Y-118207781D01*
X70387602Y-118180679D01*
X70382943Y-118157257D01*
X70381500Y-118142594D01*
X70381500Y-114607405D01*
X70382943Y-114592743D01*
X70387602Y-114569318D01*
X70398826Y-114542220D01*
X70407901Y-114528639D01*
X70428639Y-114507901D01*
X70442220Y-114498826D01*
X70469318Y-114487602D01*
X70492743Y-114482943D01*
X70507405Y-114481500D01*
X72136822Y-114481500D01*
X72193332Y-114470258D01*
X72307124Y-114447624D01*
X72467547Y-114381175D01*
X72611923Y-114284706D01*
X72734706Y-114161923D01*
X72831175Y-114017547D01*
X72897624Y-113857124D01*
X72931500Y-113686820D01*
X72931500Y-113600000D01*
X72931500Y-113545149D01*
X72931500Y-90349775D01*
X72931500Y-90313180D01*
X72925198Y-90281500D01*
X72905242Y-90181175D01*
X72897624Y-90142876D01*
X72831175Y-89982453D01*
X72734706Y-89838077D01*
X72734703Y-89838074D01*
X72734701Y-89838071D01*
X72611928Y-89715298D01*
X72611925Y-89715296D01*
X72611923Y-89715294D01*
X72467547Y-89618825D01*
X72467545Y-89618824D01*
X72307127Y-89552377D01*
X72307125Y-89552376D01*
X72136822Y-89518500D01*
X72136820Y-89518500D01*
X72100225Y-89518500D01*
X70507405Y-89518500D01*
X70492736Y-89517055D01*
X70469321Y-89512397D01*
X70442215Y-89501170D01*
X70428642Y-89492100D01*
X70407899Y-89471357D01*
X70398827Y-89457781D01*
X70387602Y-89430679D01*
X70382943Y-89407257D01*
X70381500Y-89392594D01*
X70381500Y-52002680D01*
X70381692Y-51997315D01*
X70397590Y-51775027D01*
X70399117Y-51764407D01*
X70445918Y-51549270D01*
X70448935Y-51538989D01*
X70525883Y-51332684D01*
X70530339Y-51322929D01*
X70548210Y-51290201D01*
X70635856Y-51129688D01*
X70641648Y-51120674D01*
X70773605Y-50944400D01*
X70780620Y-50936306D01*
X70936306Y-50780620D01*
X70944400Y-50773605D01*
X71120674Y-50641648D01*
X71129688Y-50635856D01*
X71322933Y-50530336D01*
X71332684Y-50525883D01*
X71538989Y-50448935D01*
X71549270Y-50445918D01*
X71764412Y-50399116D01*
X71775022Y-50397590D01*
X71997315Y-50381691D01*
X72002680Y-50381500D01*
X73000000Y-50381500D01*
X73000000Y-51610527D01*
G37*
%TD.AperFunction*%
%TD*%
%TA.AperFunction,Conductor*%
%TO.N,GND*%
G36*
X227088071Y-141184701D02*
G01*
X227088074Y-141184703D01*
X227088077Y-141184706D01*
X227232453Y-141281175D01*
X227392876Y-141347624D01*
X227495426Y-141368022D01*
X227563178Y-141381500D01*
X227563180Y-141381500D01*
X227599775Y-141381500D01*
X229445149Y-141381500D01*
X229492595Y-141381500D01*
X229507264Y-141382945D01*
X229512983Y-141384082D01*
X229530677Y-141387601D01*
X229557781Y-141398827D01*
X229571357Y-141407899D01*
X229592100Y-141428642D01*
X229601170Y-141442215D01*
X229612398Y-141469322D01*
X229617055Y-141492734D01*
X229618500Y-141507405D01*
X229618500Y-147997319D01*
X229618308Y-148002684D01*
X229602409Y-148224972D01*
X229600882Y-148235592D01*
X229554083Y-148450722D01*
X229551061Y-148461017D01*
X229474117Y-148667311D01*
X229469660Y-148677070D01*
X229364147Y-148870304D01*
X229358346Y-148879331D01*
X229226399Y-149055592D01*
X229219372Y-149063700D01*
X229063700Y-149219372D01*
X229055592Y-149226399D01*
X228879331Y-149358346D01*
X228870304Y-149364147D01*
X228677070Y-149469660D01*
X228667311Y-149474117D01*
X228461017Y-149551061D01*
X228450722Y-149554083D01*
X228235592Y-149600882D01*
X228224972Y-149602409D01*
X228002685Y-149618308D01*
X227997320Y-149618500D01*
X227000000Y-149618500D01*
X227000000Y-148389472D01*
X227129602Y-148354746D01*
X227366308Y-148256699D01*
X227588192Y-148128595D01*
X227791457Y-147972624D01*
X227972624Y-147791457D01*
X228128595Y-147588192D01*
X228256699Y-147366308D01*
X228354746Y-147129602D01*
X228421058Y-146882122D01*
X228454500Y-146628105D01*
X228454500Y-146371895D01*
X228421058Y-146117878D01*
X228354746Y-145870398D01*
X228256699Y-145633692D01*
X228128595Y-145411808D01*
X227972624Y-145208543D01*
X227972611Y-145208529D01*
X227791470Y-145027388D01*
X227791455Y-145027374D01*
X227588194Y-144871406D01*
X227366309Y-144743301D01*
X227129607Y-144645256D01*
X227129606Y-144645255D01*
X227129602Y-144645254D01*
X227038923Y-144620956D01*
X227000000Y-144610527D01*
X227000000Y-141096630D01*
X227088071Y-141184701D01*
G37*
%TD.AperFunction*%
%TA.AperFunction,Conductor*%
G36*
X228002684Y-50381691D02*
G01*
X228224975Y-50397590D01*
X228235589Y-50399116D01*
X228450726Y-50445917D01*
X228461014Y-50448937D01*
X228612203Y-50505328D01*
X228667311Y-50525882D01*
X228677070Y-50530339D01*
X228870304Y-50635852D01*
X228879331Y-50641653D01*
X229055592Y-50773600D01*
X229063700Y-50780627D01*
X229219372Y-50936299D01*
X229226399Y-50944407D01*
X229358346Y-51120668D01*
X229364147Y-51129695D01*
X229469660Y-51322929D01*
X229474117Y-51332688D01*
X229551061Y-51538982D01*
X229554083Y-51549277D01*
X229600882Y-51764407D01*
X229602409Y-51775027D01*
X229618308Y-51997315D01*
X229618500Y-52002680D01*
X229618500Y-122992594D01*
X229617055Y-123007265D01*
X229612398Y-123030677D01*
X229601170Y-123057784D01*
X229592103Y-123071354D01*
X229571354Y-123092103D01*
X229557784Y-123101170D01*
X229530678Y-123112397D01*
X229507262Y-123117055D01*
X229492595Y-123118500D01*
X227563178Y-123118500D01*
X227392874Y-123152376D01*
X227392872Y-123152377D01*
X227232454Y-123218824D01*
X227088074Y-123315296D01*
X227088071Y-123315298D01*
X227000000Y-123403369D01*
X227000000Y-114615700D01*
X227017593Y-114567362D01*
X227062142Y-114541642D01*
X227075200Y-114540500D01*
X227158088Y-114540500D01*
X227158092Y-114540500D01*
X227391368Y-114503553D01*
X227615992Y-114430568D01*
X227826433Y-114323343D01*
X228017510Y-114184517D01*
X228184517Y-114017510D01*
X228323343Y-113826433D01*
X228430568Y-113615992D01*
X228503553Y-113391368D01*
X228540500Y-113158092D01*
X228540500Y-112921908D01*
X228503553Y-112688632D01*
X228430568Y-112464008D01*
X228323343Y-112253567D01*
X228184517Y-112062490D01*
X228184515Y-112062488D01*
X228184508Y-112062480D01*
X228017519Y-111895491D01*
X228017511Y-111895484D01*
X227826434Y-111756657D01*
X227615991Y-111649431D01*
X227391372Y-111576448D01*
X227391360Y-111576445D01*
X227158094Y-111539500D01*
X227158092Y-111539500D01*
X227075200Y-111539500D01*
X227026862Y-111521907D01*
X227001142Y-111477358D01*
X227000000Y-111464300D01*
X227000000Y-109535700D01*
X227017593Y-109487362D01*
X227062142Y-109461642D01*
X227075200Y-109460500D01*
X227158088Y-109460500D01*
X227158092Y-109460500D01*
X227391368Y-109423553D01*
X227615992Y-109350568D01*
X227826433Y-109243343D01*
X228017510Y-109104517D01*
X228184517Y-108937510D01*
X228323343Y-108746433D01*
X228430568Y-108535992D01*
X228503553Y-108311368D01*
X228540500Y-108078092D01*
X228540500Y-107841908D01*
X228503553Y-107608632D01*
X228430568Y-107384008D01*
X228323343Y-107173567D01*
X228184517Y-106982490D01*
X228184515Y-106982488D01*
X228184508Y-106982480D01*
X228017519Y-106815491D01*
X228017511Y-106815484D01*
X227826434Y-106676657D01*
X227615991Y-106569431D01*
X227391372Y-106496448D01*
X227391360Y-106496445D01*
X227158094Y-106459500D01*
X227158092Y-106459500D01*
X227075200Y-106459500D01*
X227026862Y-106441907D01*
X227001142Y-106397358D01*
X227000000Y-106384300D01*
X227000000Y-101674251D01*
X227002562Y-101654788D01*
X227025500Y-101569183D01*
X227025500Y-101430817D01*
X227002562Y-101345209D01*
X227000000Y-101325747D01*
X227000000Y-95115700D01*
X227017593Y-95067362D01*
X227062142Y-95041642D01*
X227075200Y-95040500D01*
X227158088Y-95040500D01*
X227158092Y-95040500D01*
X227391368Y-95003553D01*
X227615992Y-94930568D01*
X227826433Y-94823343D01*
X228017510Y-94684517D01*
X228184517Y-94517510D01*
X228323343Y-94326433D01*
X228430568Y-94115992D01*
X228503553Y-93891368D01*
X228540500Y-93658092D01*
X228540500Y-93421908D01*
X228503553Y-93188632D01*
X228430568Y-92964008D01*
X228323343Y-92753567D01*
X228184517Y-92562490D01*
X228184515Y-92562488D01*
X228184508Y-92562480D01*
X228017519Y-92395491D01*
X228017511Y-92395484D01*
X227826434Y-92256657D01*
X227615991Y-92149431D01*
X227391372Y-92076448D01*
X227391360Y-92076445D01*
X227158094Y-92039500D01*
X227158092Y-92039500D01*
X227075200Y-92039500D01*
X227026862Y-92021907D01*
X227001142Y-91977358D01*
X227000000Y-91964300D01*
X227000000Y-90035700D01*
X227017593Y-89987362D01*
X227062142Y-89961642D01*
X227075200Y-89960500D01*
X227158088Y-89960500D01*
X227158092Y-89960500D01*
X227391368Y-89923553D01*
X227615992Y-89850568D01*
X227826433Y-89743343D01*
X228017510Y-89604517D01*
X228184517Y-89437510D01*
X228323343Y-89246433D01*
X228430568Y-89035992D01*
X228503553Y-88811368D01*
X228540500Y-88578092D01*
X228540500Y-88341908D01*
X228503553Y-88108632D01*
X228430568Y-87884008D01*
X228323343Y-87673567D01*
X228184517Y-87482490D01*
X228184515Y-87482488D01*
X228184508Y-87482480D01*
X228017519Y-87315491D01*
X228017511Y-87315484D01*
X227826434Y-87176657D01*
X227615991Y-87069431D01*
X227391372Y-86996448D01*
X227391360Y-86996445D01*
X227158094Y-86959500D01*
X227158092Y-86959500D01*
X227075200Y-86959500D01*
X227026862Y-86941907D01*
X227001142Y-86897358D01*
X227000000Y-86884300D01*
X227000000Y-86174251D01*
X227002562Y-86154788D01*
X227025500Y-86069183D01*
X227025500Y-85930817D01*
X227002562Y-85845209D01*
X227000000Y-85825747D01*
X227000000Y-70000000D01*
X227000000Y-55389472D01*
X227129602Y-55354746D01*
X227366308Y-55256699D01*
X227588192Y-55128595D01*
X227791457Y-54972624D01*
X227972624Y-54791457D01*
X228128595Y-54588192D01*
X228256699Y-54366308D01*
X228354746Y-54129602D01*
X228421058Y-53882122D01*
X228454500Y-53628105D01*
X228454500Y-53371895D01*
X228421058Y-53117878D01*
X228354746Y-52870398D01*
X228256699Y-52633692D01*
X228128595Y-52411808D01*
X227972624Y-52208543D01*
X227972611Y-52208529D01*
X227791470Y-52027388D01*
X227791455Y-52027374D01*
X227588194Y-51871406D01*
X227366309Y-51743301D01*
X227129607Y-51645256D01*
X227129606Y-51645255D01*
X227129602Y-51645254D01*
X227038923Y-51620956D01*
X227000000Y-51610527D01*
X227000000Y-50381500D01*
X227945149Y-50381500D01*
X227997320Y-50381500D01*
X228002684Y-50381691D01*
G37*
%TD.AperFunction*%
%TD*%
%TA.AperFunction,Conductor*%
%TO.N,GND*%
G36*
X71645254Y-147129602D02*
G01*
X71645255Y-147129604D01*
X71645255Y-147129605D01*
X71743301Y-147366309D01*
X71871406Y-147588194D01*
X72027374Y-147791455D01*
X72027388Y-147791470D01*
X72208529Y-147972611D01*
X72208543Y-147972624D01*
X72411808Y-148128595D01*
X72633692Y-148256699D01*
X72870398Y-148354746D01*
X73117878Y-148421058D01*
X73371895Y-148454500D01*
X73371898Y-148454500D01*
X73628102Y-148454500D01*
X73628105Y-148454500D01*
X73882122Y-148421058D01*
X74129602Y-148354746D01*
X74366308Y-148256699D01*
X74588192Y-148128595D01*
X74791457Y-147972624D01*
X74972624Y-147791457D01*
X75128595Y-147588192D01*
X75256699Y-147366308D01*
X75354746Y-147129602D01*
X75389473Y-147000000D01*
X224610527Y-147000000D01*
X224645254Y-147129602D01*
X224645255Y-147129604D01*
X224645255Y-147129605D01*
X224743301Y-147366309D01*
X224871406Y-147588194D01*
X225027374Y-147791455D01*
X225027388Y-147791470D01*
X225208529Y-147972611D01*
X225208543Y-147972624D01*
X225411808Y-148128595D01*
X225633692Y-148256699D01*
X225870398Y-148354746D01*
X226117878Y-148421058D01*
X226371895Y-148454500D01*
X226371898Y-148454500D01*
X226628102Y-148454500D01*
X226628105Y-148454500D01*
X226882122Y-148421058D01*
X227129602Y-148354746D01*
X227366308Y-148256699D01*
X227588192Y-148128595D01*
X227791457Y-147972624D01*
X227972624Y-147791457D01*
X228128595Y-147588192D01*
X228256699Y-147366308D01*
X228354746Y-147129602D01*
X228389473Y-147000000D01*
X229618500Y-147000000D01*
X229618500Y-147997319D01*
X229618308Y-148002684D01*
X229602409Y-148224972D01*
X229600882Y-148235592D01*
X229554083Y-148450722D01*
X229551061Y-148461017D01*
X229474117Y-148667311D01*
X229469660Y-148677070D01*
X229364147Y-148870304D01*
X229358346Y-148879331D01*
X229226399Y-149055592D01*
X229219372Y-149063700D01*
X229063700Y-149219372D01*
X229055592Y-149226399D01*
X228879331Y-149358346D01*
X228870304Y-149364147D01*
X228677070Y-149469660D01*
X228667311Y-149474117D01*
X228461017Y-149551061D01*
X228450722Y-149554083D01*
X228235592Y-149600882D01*
X228224972Y-149602409D01*
X228002685Y-149618308D01*
X227997320Y-149618500D01*
X72002680Y-149618500D01*
X71997315Y-149618308D01*
X71775027Y-149602409D01*
X71764407Y-149600882D01*
X71549277Y-149554083D01*
X71538982Y-149551061D01*
X71332688Y-149474117D01*
X71322929Y-149469660D01*
X71129695Y-149364147D01*
X71120668Y-149358346D01*
X70944407Y-149226399D01*
X70936299Y-149219372D01*
X70780627Y-149063700D01*
X70773600Y-149055592D01*
X70641653Y-148879331D01*
X70635852Y-148870304D01*
X70530339Y-148677070D01*
X70525882Y-148667311D01*
X70448938Y-148461017D01*
X70445916Y-148450722D01*
X70403708Y-148256698D01*
X70399116Y-148235589D01*
X70397590Y-148224972D01*
X70381692Y-148002684D01*
X70381500Y-147997319D01*
X70381500Y-147000000D01*
X71610527Y-147000000D01*
X71645254Y-147129602D01*
G37*
%TD.AperFunction*%
%TD*%
%TA.AperFunction,Conductor*%
%TO.N,GND*%
G36*
X226768500Y-128999800D02*
G01*
X226750907Y-129048138D01*
X226706358Y-129073858D01*
X226693300Y-129075000D01*
X224225200Y-129075000D01*
X224176862Y-129057407D01*
X224151142Y-129012858D01*
X224150000Y-128999800D01*
X224150000Y-124000000D01*
X226768500Y-124000000D01*
X226768500Y-128999800D01*
G37*
%TD.AperFunction*%
%TD*%
M02*
