M48
; DRILL file {KiCad 9.0.2} date 2025-05-19T09:59:34-0400
; FORMAT={-:-/ absolute / metric / decimal}
; #@! TF.CreationDate,2025-05-19T09:59:34-04:00
; #@! TF.GenerationSoftware,Kicad,Pcbnew,9.0.2
; #@! TF.FileFunction,NonPlated,1,6,NPTH
FMAT,2
METRIC
; #@! TA.AperFunction,NonPlated,NPTH,ComponentDrill
T1C0.991
; #@! TA.AperFunction,NonPlated,NPTH,ComponentDrill
T2C1.150
; #@! TA.AperFunction,NonPlated,NPTH,ComponentDrill
T3C1.650
; #@! TA.AperFunction,NonPlated,NPTH,ComponentDrill
T4C2.375
; #@! TA.AperFunction,NonPlated,NPTH,ComponentDrill
T5C3.000
; #@! TA.AperFunction,NonPlated,NPTH,ComponentDrill
T6C3.400
%
G90
G05
T1
X22.19Y-34.0
X29.81Y-32.984
X29.81Y-35.016
X113.984Y-92.81
X115.0Y-85.19
X116.016Y-92.81
T2
X97.5Y-50.25
X121.5Y-50.25
X145.5Y-50.25
T3
X77.5Y-50.25
X101.5Y-50.25
X125.5Y-50.25
T4
X22.19Y-31.46
X22.19Y-36.54
X27.905Y-31.46
X27.905Y-36.54
X112.46Y-85.19
X112.46Y-90.905
X117.54Y-85.19
X117.54Y-90.905
T5
X72.0Y-17.5
T6
X3.5Y-3.5
X3.5Y-96.5
X156.5Y-3.5
X156.5Y-96.5
M30
