%TF.GenerationSoftware,KiCad,Pcbnew,9.0.2*%
%TF.CreationDate,2025-05-17T09:42:04-04:00*%
%TF.ProjectId,mainBoard,6d61696e-426f-4617-9264-2e6b69636164,01*%
%TF.SameCoordinates,PX42c1d80PY2faf080*%
%TF.FileFunction,Other,User*%
%FSLAX46Y46*%
G04 Gerber Fmt 4.6, Leading zero omitted, Abs format (unit mm)*
G04 Created by KiCad (PCBNEW 9.0.2) date 2025-05-17 09:42:04*
%MOMM*%
%LPD*%
G01*
G04 APERTURE LIST*
%ADD10C,0.050000*%
G04 APERTURE END LIST*
%TO.C,J6*%
D10*
X121000000Y-83000000D02*
X109000000Y-83000000D01*
X109000000Y-95000000D01*
X121000000Y-95000000D01*
X121000000Y-83000000D01*
%TO.C,J36*%
X20000000Y-28000000D02*
X32000000Y-28000000D01*
X32000000Y-40000000D01*
X20000000Y-40000000D01*
X20000000Y-28000000D01*
%TO.C,TP51*%
X88500000Y-32000000D02*
G75*
G02*
X87500000Y-32000000I-500000J0D01*
G01*
X87500000Y-32000000D02*
G75*
G02*
X88500000Y-32000000I500000J0D01*
G01*
%TO.C,TP8*%
X79900000Y-78000000D02*
G75*
G02*
X78900000Y-78000000I-500000J0D01*
G01*
X78900000Y-78000000D02*
G75*
G02*
X79900000Y-78000000I500000J0D01*
G01*
%TO.C,R1*%
X97075000Y-76950000D02*
X99325000Y-76950000D01*
X99325000Y-75700000D01*
X97075000Y-75700000D01*
X97075000Y-76950000D01*
%TO.C,TP25*%
X34900000Y-67400000D02*
G75*
G02*
X33900000Y-67400000I-500000J0D01*
G01*
X33900000Y-67400000D02*
G75*
G02*
X34900000Y-67400000I500000J0D01*
G01*
%TO.C,R57*%
X150125000Y-20875000D02*
X147875000Y-20875000D01*
X147875000Y-22125000D01*
X150125000Y-22125000D01*
X150125000Y-20875000D01*
%TO.C,TP43*%
X111500000Y-32000000D02*
G75*
G02*
X110500000Y-32000000I-500000J0D01*
G01*
X110500000Y-32000000D02*
G75*
G02*
X111500000Y-32000000I500000J0D01*
G01*
%TO.C,TP60*%
X31500000Y-43500000D02*
X25500000Y-43500000D01*
X25500000Y-47500000D01*
X31500000Y-47500000D01*
X31500000Y-43500000D01*
%TO.C,R8*%
X89550000Y-87075000D02*
X90800000Y-87075000D01*
X90800000Y-89325000D01*
X89550000Y-89325000D01*
X89550000Y-87075000D01*
%TO.C,TP17*%
X39500000Y-85200000D02*
G75*
G02*
X38500000Y-85200000I-500000J0D01*
G01*
X38500000Y-85200000D02*
G75*
G02*
X39500000Y-85200000I500000J0D01*
G01*
%TO.C,JP1*%
X71700000Y-78750000D02*
X71700000Y-76250000D01*
X71700000Y-78750000D02*
X76300000Y-78750000D01*
X76300000Y-76250000D02*
X71700000Y-76250000D01*
X76300000Y-76250000D02*
X76300000Y-78750000D01*
%TO.C,C58*%
X14300000Y-92262500D02*
X7050000Y-92262500D01*
X7050000Y-94937500D01*
X14300000Y-94937500D01*
X14300000Y-92262500D01*
%TO.C,TP6*%
X79900000Y-82000000D02*
G75*
G02*
X78900000Y-82000000I-500000J0D01*
G01*
X78900000Y-82000000D02*
G75*
G02*
X79900000Y-82000000I500000J0D01*
G01*
%TO.C,R52*%
X14125000Y-69625000D02*
X12875000Y-69625000D01*
X12875000Y-67375000D01*
X14125000Y-67375000D01*
X14125000Y-69625000D01*
%TO.C,TP46*%
X110500000Y-37000000D02*
G75*
G02*
X109500000Y-37000000I-500000J0D01*
G01*
X109500000Y-37000000D02*
G75*
G02*
X110500000Y-37000000I500000J0D01*
G01*
%TO.C,TP4*%
X78600000Y-84100000D02*
G75*
G02*
X77600000Y-84100000I-500000J0D01*
G01*
X77600000Y-84100000D02*
G75*
G02*
X78600000Y-84100000I500000J0D01*
G01*
%TO.C,R4*%
X96050000Y-87075000D02*
X97300000Y-87075000D01*
X97300000Y-89325000D01*
X96050000Y-89325000D01*
X96050000Y-87075000D01*
%TO.C,TP5*%
X79900000Y-80700000D02*
G75*
G02*
X78900000Y-80700000I-500000J0D01*
G01*
X78900000Y-80700000D02*
G75*
G02*
X79900000Y-80700000I500000J0D01*
G01*
%TO.C,C52*%
X7562500Y-68812500D02*
X10437500Y-68812500D01*
X10437500Y-67187500D01*
X7562500Y-67187500D01*
X7562500Y-68812500D01*
%TO.C,R31*%
X11875000Y-61525000D02*
X14125000Y-61525000D01*
X14125000Y-60275000D01*
X11875000Y-60275000D01*
X11875000Y-61525000D01*
%TO.C,R79*%
X4150000Y-7125000D02*
X1900000Y-7125000D01*
X1900000Y-8375000D01*
X4150000Y-8375000D01*
X4150000Y-7125000D01*
%TO.C,C56*%
X7562500Y-88362500D02*
X10437500Y-88362500D01*
X10437500Y-86737500D01*
X7562500Y-86737500D01*
X7562500Y-88362500D01*
%TO.C,TP72*%
X22500000Y-27000000D02*
X28500000Y-27000000D01*
X28500000Y-23000000D01*
X22500000Y-23000000D01*
X22500000Y-27000000D01*
%TO.C,TP12*%
X34000000Y-70500000D02*
G75*
G02*
X33000000Y-70500000I-500000J0D01*
G01*
X33000000Y-70500000D02*
G75*
G02*
X34000000Y-70500000I500000J0D01*
G01*
%TO.C,TP10*%
X131000000Y-53500000D02*
X137000000Y-53500000D01*
X137000000Y-49500000D01*
X131000000Y-49500000D01*
X131000000Y-53500000D01*
%TO.C,TP26*%
X34000000Y-31500000D02*
X40000000Y-31500000D01*
X40000000Y-27500000D01*
X34000000Y-27500000D01*
X34000000Y-31500000D01*
%TO.C,TP82*%
X49000000Y-9500000D02*
X55000000Y-9500000D01*
X55000000Y-5500000D01*
X49000000Y-5500000D01*
X49000000Y-9500000D01*
%TO.C,C20*%
X82000000Y-77375000D02*
X84000000Y-77375000D01*
X84000000Y-81125000D01*
X82000000Y-81125000D01*
X82000000Y-77375000D01*
%TO.C,TP75*%
X66825000Y-24875000D02*
G75*
G02*
X65825000Y-24875000I-500000J0D01*
G01*
X65825000Y-24875000D02*
G75*
G02*
X66825000Y-24875000I500000J0D01*
G01*
%TO.C,TP37*%
X32100000Y-40800000D02*
X38100000Y-40800000D01*
X38100000Y-36800000D01*
X32100000Y-36800000D01*
X32100000Y-40800000D01*
%TO.C,TP18*%
X38100000Y-85200000D02*
G75*
G02*
X37100000Y-85200000I-500000J0D01*
G01*
X37100000Y-85200000D02*
G75*
G02*
X38100000Y-85200000I500000J0D01*
G01*
%TO.C,C54*%
X7500000Y-90042000D02*
X7500000Y-92258000D01*
X7500000Y-92258000D02*
X12300000Y-92258000D01*
X12300000Y-90042000D02*
X7500000Y-90042000D01*
X12300000Y-92258000D02*
X12300000Y-90042000D01*
%TO.C,R28*%
X13275000Y-50925000D02*
X12025000Y-50925000D01*
X12025000Y-48675000D01*
X13275000Y-48675000D01*
X13275000Y-50925000D01*
%TO.C,R2*%
X97075000Y-78300000D02*
X99325000Y-78300000D01*
X99325000Y-77050000D01*
X97075000Y-77050000D01*
X97075000Y-78300000D01*
%TO.C,R85*%
X38525000Y-21100000D02*
X40775000Y-21100000D01*
X40775000Y-19850000D01*
X38525000Y-19850000D01*
X38525000Y-21100000D01*
%TO.C,C107*%
X31725000Y-63825000D02*
X30475000Y-63825000D01*
X30475000Y-61575000D01*
X31725000Y-61575000D01*
X31725000Y-63825000D01*
%TO.C,D7*%
X12500000Y-51000000D02*
X13375000Y-51000000D01*
X12500000Y-53000000D02*
X12500000Y-51000000D01*
X13375000Y-50750000D02*
X15125000Y-50750000D01*
X13375000Y-51000000D02*
X13375000Y-50750000D01*
X13375000Y-53000000D02*
X12500000Y-53000000D01*
X13375000Y-53250000D02*
X13375000Y-53000000D01*
X15125000Y-50750000D02*
X15125000Y-51650000D01*
X15125000Y-51650000D02*
X16000000Y-51650000D01*
X15125000Y-52350000D02*
X15125000Y-53250000D01*
X15125000Y-53250000D02*
X13375000Y-53250000D01*
X16000000Y-51650000D02*
X16000000Y-52350000D01*
X16000000Y-52350000D02*
X15125000Y-52350000D01*
%TO.C,JP4*%
X143850000Y-27250000D02*
X143850000Y-24750000D01*
X143850000Y-27250000D02*
X147150000Y-27250000D01*
X147150000Y-24750000D02*
X143850000Y-24750000D01*
X147150000Y-24750000D02*
X147150000Y-27250000D01*
%TO.C,TP31*%
X133500000Y-29000000D02*
G75*
G02*
X132500000Y-29000000I-500000J0D01*
G01*
X132500000Y-29000000D02*
G75*
G02*
X133500000Y-29000000I500000J0D01*
G01*
%TO.C,R78*%
X4150000Y-19625000D02*
X1900000Y-19625000D01*
X1900000Y-20875000D01*
X4150000Y-20875000D01*
X4150000Y-19625000D01*
%TO.C,D6*%
X6850000Y-49325000D02*
X5100000Y-49325000D01*
X5100000Y-50575000D01*
X6850000Y-50575000D01*
X6850000Y-49325000D01*
%TO.C,TP53*%
X86000000Y-31000000D02*
G75*
G02*
X85000000Y-31000000I-500000J0D01*
G01*
X85000000Y-31000000D02*
G75*
G02*
X86000000Y-31000000I500000J0D01*
G01*
%TO.C,TP76*%
X51425000Y-18500000D02*
G75*
G02*
X50425000Y-18500000I-500000J0D01*
G01*
X50425000Y-18500000D02*
G75*
G02*
X51425000Y-18500000I500000J0D01*
G01*
%TO.C,R83*%
X40775000Y-21125000D02*
X38525000Y-21125000D01*
X38525000Y-22375000D01*
X40775000Y-22375000D01*
X40775000Y-21125000D01*
%TO.C,JP3*%
X143850000Y-24750000D02*
X143850000Y-22250000D01*
X143850000Y-24750000D02*
X147150000Y-24750000D01*
X147150000Y-22250000D02*
X143850000Y-22250000D01*
X147150000Y-22250000D02*
X147150000Y-24750000D01*
%TO.C,TP55*%
X93500000Y-35000000D02*
G75*
G02*
X92500000Y-35000000I-500000J0D01*
G01*
X92500000Y-35000000D02*
G75*
G02*
X93500000Y-35000000I500000J0D01*
G01*
%TO.C,TP9*%
X114000000Y-32500000D02*
X118000000Y-32500000D01*
X118000000Y-38500000D01*
X114000000Y-38500000D01*
X114000000Y-32500000D01*
%TO.C,TP79*%
X46000000Y-14500000D02*
X52000000Y-14500000D01*
X52000000Y-10500000D01*
X46000000Y-10500000D01*
X46000000Y-14500000D01*
%TO.C,TP56*%
X93500000Y-33000000D02*
G75*
G02*
X92500000Y-33000000I-500000J0D01*
G01*
X92500000Y-33000000D02*
G75*
G02*
X93500000Y-33000000I500000J0D01*
G01*
%TO.C,TP32*%
X137500000Y-29000000D02*
G75*
G02*
X136500000Y-29000000I-500000J0D01*
G01*
X136500000Y-29000000D02*
G75*
G02*
X137500000Y-29000000I500000J0D01*
G01*
%TO.C,TP39*%
X115500000Y-42000000D02*
G75*
G02*
X114500000Y-42000000I-500000J0D01*
G01*
X114500000Y-42000000D02*
G75*
G02*
X115500000Y-42000000I500000J0D01*
G01*
%TO.C,R17*%
X76925000Y-84375000D02*
X74675000Y-84375000D01*
X74675000Y-85625000D01*
X76925000Y-85625000D01*
X76925000Y-84375000D01*
%TO.C,C6*%
X80625000Y-80375000D02*
X81875000Y-80375000D01*
X81875000Y-82625000D01*
X80625000Y-82625000D01*
X80625000Y-80375000D01*
%TO.C,R12*%
X82875000Y-72125000D02*
X80625000Y-72125000D01*
X80625000Y-73375000D01*
X82875000Y-73375000D01*
X82875000Y-72125000D01*
%TO.C,R16*%
X99225000Y-81625000D02*
X96975000Y-81625000D01*
X96975000Y-82875000D01*
X99225000Y-82875000D01*
X99225000Y-81625000D01*
%TO.C,TP33*%
X131500000Y-31000000D02*
G75*
G02*
X130500000Y-31000000I-500000J0D01*
G01*
X130500000Y-31000000D02*
G75*
G02*
X131500000Y-31000000I500000J0D01*
G01*
%TO.C,JP8*%
X65000000Y-49350000D02*
X65000000Y-52650000D01*
X65000000Y-49350000D02*
X67500000Y-49350000D01*
X67500000Y-52650000D02*
X65000000Y-52650000D01*
X67500000Y-52650000D02*
X67500000Y-49350000D01*
%TO.C,TP34*%
X131500000Y-32600000D02*
G75*
G02*
X130500000Y-32600000I-500000J0D01*
G01*
X130500000Y-32600000D02*
G75*
G02*
X131500000Y-32600000I500000J0D01*
G01*
%TO.C,TP36*%
X90500000Y-51900000D02*
X96500000Y-51900000D01*
X96500000Y-47900000D01*
X90500000Y-47900000D01*
X90500000Y-51900000D01*
%TO.C,TP11*%
X32900000Y-68600000D02*
G75*
G02*
X31900000Y-68600000I-500000J0D01*
G01*
X31900000Y-68600000D02*
G75*
G02*
X32900000Y-68600000I500000J0D01*
G01*
%TO.C,C5*%
X81875000Y-78125000D02*
X80625000Y-78125000D01*
X80625000Y-75875000D01*
X81875000Y-75875000D01*
X81875000Y-78125000D01*
%TO.C,J39*%
X64050000Y-13100000D02*
X50450000Y-13100000D01*
X50450000Y-24500000D01*
X64050000Y-24500000D01*
X64050000Y-13100000D01*
%TO.C,TP77*%
X23400000Y-17300000D02*
G75*
G02*
X22400000Y-17300000I-500000J0D01*
G01*
X22400000Y-17300000D02*
G75*
G02*
X23400000Y-17300000I500000J0D01*
G01*
%TO.C,JP7*%
X63150000Y-37000000D02*
X63150000Y-40300000D01*
X63150000Y-37000000D02*
X65650000Y-37000000D01*
X65650000Y-40300000D02*
X63150000Y-40300000D01*
X65650000Y-40300000D02*
X65650000Y-37000000D01*
%TO.C,C137*%
X37325000Y-16175000D02*
X38575000Y-16175000D01*
X38575000Y-18425000D01*
X37325000Y-18425000D01*
X37325000Y-16175000D01*
%TO.C,TP83*%
X73000000Y-57000000D02*
G75*
G02*
X72000000Y-57000000I-500000J0D01*
G01*
X72000000Y-57000000D02*
G75*
G02*
X73000000Y-57000000I500000J0D01*
G01*
%TO.C,R6*%
X86450000Y-73200000D02*
X85200000Y-73200000D01*
X85200000Y-70950000D01*
X86450000Y-70950000D01*
X86450000Y-73200000D01*
%TO.C,TP69*%
X37500000Y-33000000D02*
G75*
G02*
X36500000Y-33000000I-500000J0D01*
G01*
X36500000Y-33000000D02*
G75*
G02*
X37500000Y-33000000I500000J0D01*
G01*
%TO.C,C134*%
X35175000Y-18425000D02*
X33925000Y-18425000D01*
X33925000Y-16175000D01*
X35175000Y-16175000D01*
X35175000Y-18425000D01*
%TO.C,TP38*%
X115500000Y-40000000D02*
G75*
G02*
X114500000Y-40000000I-500000J0D01*
G01*
X114500000Y-40000000D02*
G75*
G02*
X115500000Y-40000000I500000J0D01*
G01*
%TO.C,TP58*%
X139000000Y-27500000D02*
X143000000Y-27500000D01*
X143000000Y-33500000D01*
X139000000Y-33500000D01*
X139000000Y-27500000D01*
%TO.C,TP88*%
X48000000Y-42000000D02*
G75*
G02*
X47000000Y-42000000I-500000J0D01*
G01*
X47000000Y-42000000D02*
G75*
G02*
X48000000Y-42000000I500000J0D01*
G01*
%TO.C,TP84*%
X65200000Y-45400000D02*
G75*
G02*
X64200000Y-45400000I-500000J0D01*
G01*
X64200000Y-45400000D02*
G75*
G02*
X65200000Y-45400000I500000J0D01*
G01*
%TO.C,TP78*%
X20000000Y-26000000D02*
G75*
G02*
X19000000Y-26000000I-500000J0D01*
G01*
X19000000Y-26000000D02*
G75*
G02*
X20000000Y-26000000I500000J0D01*
G01*
%TO.C,TP47*%
X124500000Y-29500000D02*
X130500000Y-29500000D01*
X130500000Y-25500000D01*
X124500000Y-25500000D01*
X124500000Y-29500000D01*
%TO.C,R7*%
X87800000Y-73200000D02*
X86550000Y-73200000D01*
X86550000Y-70950000D01*
X87800000Y-70950000D01*
X87800000Y-73200000D01*
%TO.C,R19*%
X76925000Y-83125000D02*
X74675000Y-83125000D01*
X74675000Y-84375000D01*
X76925000Y-84375000D01*
X76925000Y-83125000D01*
%TO.C,TP85*%
X49000000Y-49300000D02*
G75*
G02*
X48000000Y-49300000I-500000J0D01*
G01*
X48000000Y-49300000D02*
G75*
G02*
X49000000Y-49300000I500000J0D01*
G01*
%TO.C,TP87*%
X50500000Y-39150000D02*
G75*
G02*
X49500000Y-39150000I-500000J0D01*
G01*
X49500000Y-39150000D02*
G75*
G02*
X50500000Y-39150000I500000J0D01*
G01*
%TO.C,R9*%
X88200000Y-87075000D02*
X89450000Y-87075000D01*
X89450000Y-89325000D01*
X88200000Y-89325000D01*
X88200000Y-87075000D01*
%TO.C,J40*%
X77000000Y-8600000D02*
X67000000Y-8600000D01*
X67000000Y-24300000D01*
X77000000Y-24300000D01*
X77000000Y-8600000D01*
%TO.C,R70*%
X4150000Y-25125000D02*
X1900000Y-25125000D01*
X1900000Y-26375000D01*
X4150000Y-26375000D01*
X4150000Y-25125000D01*
%TO.C,R32*%
X11875000Y-43725000D02*
X14125000Y-43725000D01*
X14125000Y-42475000D01*
X11875000Y-42475000D01*
X11875000Y-43725000D01*
%TO.C,TP86*%
X40500000Y-41000000D02*
G75*
G02*
X39500000Y-41000000I-500000J0D01*
G01*
X39500000Y-41000000D02*
G75*
G02*
X40500000Y-41000000I500000J0D01*
G01*
%TO.C,R20*%
X76925000Y-80625000D02*
X74675000Y-80625000D01*
X74675000Y-81875000D01*
X76925000Y-81875000D01*
X76925000Y-80625000D01*
%TO.C,J34*%
X30037500Y-69200000D02*
X24087500Y-69200000D01*
X24087500Y-58200000D01*
X30037500Y-58200000D01*
X30037500Y-69200000D01*
%TO.C,R50*%
X13375000Y-89375000D02*
X14625000Y-89375000D01*
X14625000Y-91625000D01*
X13375000Y-91625000D01*
X13375000Y-89375000D01*
%TO.C,TP7*%
X79900000Y-79300000D02*
G75*
G02*
X78900000Y-79300000I-500000J0D01*
G01*
X78900000Y-79300000D02*
G75*
G02*
X79900000Y-79300000I500000J0D01*
G01*
%TO.C,TP20*%
X97000000Y-66000000D02*
G75*
G02*
X96000000Y-66000000I-500000J0D01*
G01*
X96000000Y-66000000D02*
G75*
G02*
X97000000Y-66000000I500000J0D01*
G01*
%TO.C,TP22*%
X94600000Y-55900000D02*
G75*
G02*
X93600000Y-55900000I-500000J0D01*
G01*
X93600000Y-55900000D02*
G75*
G02*
X94600000Y-55900000I500000J0D01*
G01*
%TO.C,D31*%
X1350000Y-17250000D02*
X1350000Y-18750000D01*
X2000000Y-16850000D02*
X2000000Y-17250000D01*
X2000000Y-16850000D02*
X5200000Y-16850000D01*
X2000000Y-17250000D02*
X1350000Y-17250000D01*
X2000000Y-18750000D02*
X1350000Y-18750000D01*
X2000000Y-19150000D02*
X2000000Y-18750000D01*
X5200000Y-16850000D02*
X5200000Y-17250000D01*
X5200000Y-17250000D02*
X5850000Y-17250000D01*
X5200000Y-18750000D02*
X5850000Y-18750000D01*
X5200000Y-19150000D02*
X2000000Y-19150000D01*
X5200000Y-19150000D02*
X5200000Y-18750000D01*
X5850000Y-17250000D02*
X5850000Y-18750000D01*
%TO.C,D24*%
X2050000Y-31500000D02*
X2050000Y-32500000D01*
X2050000Y-31500000D02*
X2400000Y-31500000D01*
X2050000Y-32500000D02*
X2400000Y-32500000D01*
X2400000Y-31350000D02*
X4000000Y-31350000D01*
X2400000Y-31500000D02*
X2400000Y-31350000D01*
X2400000Y-32650000D02*
X2400000Y-32500000D01*
X4000000Y-31350000D02*
X4000000Y-31500000D01*
X4000000Y-32500000D02*
X4000000Y-32650000D01*
X4000000Y-32650000D02*
X2400000Y-32650000D01*
X4350000Y-31500000D02*
X4000000Y-31500000D01*
X4350000Y-31500000D02*
X4350000Y-32500000D01*
X4350000Y-32500000D02*
X4000000Y-32500000D01*
%TO.C,R18*%
X76925000Y-81875000D02*
X74675000Y-81875000D01*
X74675000Y-83125000D01*
X76925000Y-83125000D01*
X76925000Y-81875000D01*
%TO.C,D25*%
X2050000Y-29800000D02*
X2050000Y-30800000D01*
X2050000Y-29800000D02*
X2400000Y-29800000D01*
X2050000Y-30800000D02*
X2400000Y-30800000D01*
X2400000Y-29650000D02*
X4000000Y-29650000D01*
X2400000Y-29800000D02*
X2400000Y-29650000D01*
X2400000Y-30950000D02*
X2400000Y-30800000D01*
X4000000Y-29650000D02*
X4000000Y-29800000D01*
X4000000Y-30800000D02*
X4000000Y-30950000D01*
X4000000Y-30950000D02*
X2400000Y-30950000D01*
X4350000Y-29800000D02*
X4000000Y-29800000D01*
X4350000Y-29800000D02*
X4350000Y-30800000D01*
X4350000Y-30800000D02*
X4000000Y-30800000D01*
%TO.C,C33*%
X115450000Y-78625000D02*
X113200000Y-78625000D01*
X113200000Y-79875000D01*
X115450000Y-79875000D01*
X115450000Y-78625000D01*
%TO.C,TP1*%
X95100000Y-64700000D02*
G75*
G02*
X94100000Y-64700000I-500000J0D01*
G01*
X94100000Y-64700000D02*
G75*
G02*
X95100000Y-64700000I500000J0D01*
G01*
%TO.C,TP44*%
X110000000Y-32500000D02*
G75*
G02*
X109000000Y-32500000I-500000J0D01*
G01*
X109000000Y-32500000D02*
G75*
G02*
X110000000Y-32500000I500000J0D01*
G01*
%TO.C,R69*%
X6125000Y-37625000D02*
X3875000Y-37625000D01*
X3875000Y-38875000D01*
X6125000Y-38875000D01*
X6125000Y-37625000D01*
%TO.C,TP74*%
X13500000Y-55000000D02*
G75*
G02*
X12500000Y-55000000I-500000J0D01*
G01*
X12500000Y-55000000D02*
G75*
G02*
X13500000Y-55000000I500000J0D01*
G01*
%TO.C,TP35*%
X115500000Y-61500000D02*
X109500000Y-61500000D01*
X109500000Y-65500000D01*
X115500000Y-65500000D01*
X115500000Y-61500000D01*
%TO.C,TP19*%
X42000000Y-66000000D02*
X48000000Y-66000000D01*
X48000000Y-62000000D01*
X42000000Y-62000000D01*
X42000000Y-66000000D01*
%TO.C,TP30*%
X132500000Y-45000000D02*
G75*
G02*
X131500000Y-45000000I-500000J0D01*
G01*
X131500000Y-45000000D02*
G75*
G02*
X132500000Y-45000000I500000J0D01*
G01*
%TO.C,D5*%
X118025000Y-74375000D02*
X115025000Y-74375000D01*
X115025000Y-76125000D01*
X118025000Y-76125000D01*
X118025000Y-74375000D01*
%TO.C,TP59*%
X44300000Y-69800000D02*
X38300000Y-69800000D01*
X38300000Y-73800000D01*
X44300000Y-73800000D01*
X44300000Y-69800000D01*
%TO.C,TP2*%
X94400000Y-61800000D02*
G75*
G02*
X93400000Y-61800000I-500000J0D01*
G01*
X93400000Y-61800000D02*
G75*
G02*
X94400000Y-61800000I500000J0D01*
G01*
%TO.C,TP71*%
X69000000Y-16000000D02*
X75000000Y-16000000D01*
X75000000Y-12000000D01*
X69000000Y-12000000D01*
X69000000Y-16000000D01*
%TO.C,TP52*%
X88500000Y-30000000D02*
G75*
G02*
X87500000Y-30000000I-500000J0D01*
G01*
X87500000Y-30000000D02*
G75*
G02*
X88500000Y-30000000I500000J0D01*
G01*
%TO.C,JP5*%
X29450000Y-22050000D02*
X29450000Y-25350000D01*
X29450000Y-22050000D02*
X31950000Y-22050000D01*
X31950000Y-25350000D02*
X29450000Y-25350000D01*
X31950000Y-25350000D02*
X31950000Y-22050000D01*
%TO.C,TP14*%
X33900000Y-42500000D02*
G75*
G02*
X32900000Y-42500000I-500000J0D01*
G01*
X32900000Y-42500000D02*
G75*
G02*
X33900000Y-42500000I500000J0D01*
G01*
%TO.C,TP21*%
X101500000Y-66000000D02*
G75*
G02*
X100500000Y-66000000I-500000J0D01*
G01*
X100500000Y-66000000D02*
G75*
G02*
X101500000Y-66000000I500000J0D01*
G01*
%TO.C,C21*%
X80625000Y-78125000D02*
X81875000Y-78125000D01*
X81875000Y-80375000D01*
X80625000Y-80375000D01*
X80625000Y-78125000D01*
%TO.C,R5*%
X94700000Y-87075000D02*
X95950000Y-87075000D01*
X95950000Y-89325000D01*
X94700000Y-89325000D01*
X94700000Y-87075000D01*
%TO.C,TP57*%
X100000000Y-26000000D02*
X104000000Y-26000000D01*
X104000000Y-32000000D01*
X100000000Y-32000000D01*
X100000000Y-26000000D01*
%TO.C,TP16*%
X40600000Y-74000000D02*
G75*
G02*
X39600000Y-74000000I-500000J0D01*
G01*
X39600000Y-74000000D02*
G75*
G02*
X40600000Y-74000000I500000J0D01*
G01*
%TO.C,TP42*%
X109500000Y-30000000D02*
G75*
G02*
X108500000Y-30000000I-500000J0D01*
G01*
X108500000Y-30000000D02*
G75*
G02*
X109500000Y-30000000I500000J0D01*
G01*
%TO.C,D26*%
X21750000Y-68200000D02*
X21750000Y-69200000D01*
X21750000Y-68200000D02*
X22100000Y-68200000D01*
X21750000Y-69200000D02*
X22100000Y-69200000D01*
X22100000Y-68050000D02*
X23700000Y-68050000D01*
X22100000Y-68200000D02*
X22100000Y-68050000D01*
X22100000Y-69350000D02*
X22100000Y-69200000D01*
X23700000Y-68050000D02*
X23700000Y-68200000D01*
X23700000Y-69200000D02*
X23700000Y-69350000D01*
X23700000Y-69350000D02*
X22100000Y-69350000D01*
X24050000Y-68200000D02*
X23700000Y-68200000D01*
X24050000Y-68200000D02*
X24050000Y-69200000D01*
X24050000Y-69200000D02*
X23700000Y-69200000D01*
%TO.C,TP81*%
X58400000Y-9050000D02*
G75*
G02*
X57400000Y-9050000I-500000J0D01*
G01*
X57400000Y-9050000D02*
G75*
G02*
X58400000Y-9050000I500000J0D01*
G01*
%TO.C,R43*%
X16675000Y-92275000D02*
X14425000Y-92275000D01*
X14425000Y-93525000D01*
X16675000Y-93525000D01*
X16675000Y-92275000D01*
%TO.C,C51*%
X6600000Y-64892000D02*
X6600000Y-67108000D01*
X6600000Y-67108000D02*
X11400000Y-67108000D01*
X11400000Y-64892000D02*
X6600000Y-64892000D01*
X11400000Y-67108000D02*
X11400000Y-64892000D01*
%TO.C,R65*%
X150125000Y-24875000D02*
X147875000Y-24875000D01*
X147875000Y-26125000D01*
X150125000Y-26125000D01*
X150125000Y-24875000D01*
%TO.C,R29*%
X6425000Y-54625000D02*
X5175000Y-54625000D01*
X5175000Y-52375000D01*
X6425000Y-52375000D01*
X6425000Y-54625000D01*
%TO.C,TP41*%
X114500000Y-29000000D02*
G75*
G02*
X113500000Y-29000000I-500000J0D01*
G01*
X113500000Y-29000000D02*
G75*
G02*
X114500000Y-29000000I500000J0D01*
G01*
%TO.C,TP24*%
X34900000Y-65400000D02*
G75*
G02*
X33900000Y-65400000I-500000J0D01*
G01*
X33900000Y-65400000D02*
G75*
G02*
X34900000Y-65400000I500000J0D01*
G01*
%TO.C,R10*%
X82875000Y-70875000D02*
X80625000Y-70875000D01*
X80625000Y-72125000D01*
X82875000Y-72125000D01*
X82875000Y-70875000D01*
%TO.C,TP15*%
X37600000Y-74000000D02*
G75*
G02*
X36600000Y-74000000I-500000J0D01*
G01*
X36600000Y-74000000D02*
G75*
G02*
X37600000Y-74000000I500000J0D01*
G01*
%TO.C,R61*%
X150125000Y-22875000D02*
X147875000Y-22875000D01*
X147875000Y-24125000D01*
X150125000Y-24125000D01*
X150125000Y-22875000D01*
%TO.C,TP3*%
X98700000Y-83600000D02*
G75*
G02*
X97700000Y-83600000I-500000J0D01*
G01*
X97700000Y-83600000D02*
G75*
G02*
X98700000Y-83600000I500000J0D01*
G01*
%TO.C,TP27*%
X81000000Y-24500000D02*
X85000000Y-24500000D01*
X85000000Y-30500000D01*
X81000000Y-30500000D01*
X81000000Y-24500000D01*
%TO.C,C53*%
X7562500Y-70512500D02*
X10437500Y-70512500D01*
X10437500Y-68887500D01*
X7562500Y-68887500D01*
X7562500Y-70512500D01*
%TO.C,TP73*%
X92000000Y-32000000D02*
X98000000Y-32000000D01*
X98000000Y-28000000D01*
X92000000Y-28000000D01*
X92000000Y-32000000D01*
%TO.C,TP40*%
X115500000Y-44000000D02*
G75*
G02*
X114500000Y-44000000I-500000J0D01*
G01*
X114500000Y-44000000D02*
G75*
G02*
X115500000Y-44000000I500000J0D01*
G01*
%TO.C,TP28*%
X132500000Y-49000000D02*
G75*
G02*
X131500000Y-49000000I-500000J0D01*
G01*
X131500000Y-49000000D02*
G75*
G02*
X132500000Y-49000000I500000J0D01*
G01*
%TO.C,R46*%
X16675000Y-93675000D02*
X14425000Y-93675000D01*
X14425000Y-94925000D01*
X16675000Y-94925000D01*
X16675000Y-93675000D01*
%TO.C,JP2*%
X143850000Y-22250000D02*
X143850000Y-19750000D01*
X143850000Y-22250000D02*
X147150000Y-22250000D01*
X147150000Y-19750000D02*
X143850000Y-19750000D01*
X147150000Y-19750000D02*
X147150000Y-22250000D01*
%TO.C,TP48*%
X85600000Y-78000000D02*
X89600000Y-78000000D01*
X89600000Y-84000000D01*
X85600000Y-84000000D01*
X85600000Y-78000000D01*
%TO.C,D4*%
X111750000Y-81750000D02*
X114750000Y-81750000D01*
X114750000Y-80000000D01*
X111750000Y-80000000D01*
X111750000Y-81750000D01*
%TO.C,C55*%
X7562500Y-90012500D02*
X10437500Y-90012500D01*
X10437500Y-88387500D01*
X7562500Y-88387500D01*
X7562500Y-90012500D01*
%TO.C,R51*%
X12625000Y-69625000D02*
X11375000Y-69625000D01*
X11375000Y-67375000D01*
X12625000Y-67375000D01*
X12625000Y-69625000D01*
%TO.C,D27*%
X21750000Y-69600000D02*
X21750000Y-70600000D01*
X21750000Y-69600000D02*
X22100000Y-69600000D01*
X21750000Y-70600000D02*
X22100000Y-70600000D01*
X22100000Y-69450000D02*
X23700000Y-69450000D01*
X22100000Y-69600000D02*
X22100000Y-69450000D01*
X22100000Y-70750000D02*
X22100000Y-70600000D01*
X23700000Y-69450000D02*
X23700000Y-69600000D01*
X23700000Y-70600000D02*
X23700000Y-70750000D01*
X23700000Y-70750000D02*
X22100000Y-70750000D01*
X24050000Y-69600000D02*
X23700000Y-69600000D01*
X24050000Y-69600000D02*
X24050000Y-70600000D01*
X24050000Y-70600000D02*
X23700000Y-70600000D01*
%TO.C,JP6*%
X63850000Y-32000000D02*
X63850000Y-29500000D01*
X63850000Y-32000000D02*
X67150000Y-32000000D01*
X67150000Y-29500000D02*
X63850000Y-29500000D01*
X67150000Y-29500000D02*
X67150000Y-32000000D01*
%TO.C,TP80*%
X57400000Y-10250000D02*
G75*
G02*
X56400000Y-10250000I-500000J0D01*
G01*
X56400000Y-10250000D02*
G75*
G02*
X57400000Y-10250000I500000J0D01*
G01*
%TO.C,R21*%
X76925000Y-79375000D02*
X74675000Y-79375000D01*
X74675000Y-80625000D01*
X76925000Y-80625000D01*
X76925000Y-79375000D01*
%TO.C,TP70*%
X37500000Y-35000000D02*
G75*
G02*
X36500000Y-35000000I-500000J0D01*
G01*
X36500000Y-35000000D02*
G75*
G02*
X37500000Y-35000000I500000J0D01*
G01*
%TO.C,TP54*%
X86000000Y-33000000D02*
G75*
G02*
X85000000Y-33000000I-500000J0D01*
G01*
X85000000Y-33000000D02*
G75*
G02*
X86000000Y-33000000I500000J0D01*
G01*
%TO.C,TP50*%
X43000000Y-83000000D02*
X47000000Y-83000000D01*
X47000000Y-89000000D01*
X43000000Y-89000000D01*
X43000000Y-83000000D01*
%TO.C,J38*%
X41150000Y-14600000D02*
X50350000Y-14600000D01*
X41150000Y-24800000D02*
X41150000Y-14600000D01*
X50350000Y-14600000D02*
X50350000Y-24800000D01*
X50350000Y-24800000D02*
X41150000Y-24800000D01*
%TO.C,TP49*%
X54000000Y-48300000D02*
X60000000Y-48300000D01*
X60000000Y-44300000D01*
X54000000Y-44300000D01*
X54000000Y-48300000D01*
%TO.C,TP23*%
X96500000Y-55900000D02*
G75*
G02*
X95500000Y-55900000I-500000J0D01*
G01*
X95500000Y-55900000D02*
G75*
G02*
X96500000Y-55900000I500000J0D01*
G01*
%TO.C,TP45*%
X110500000Y-35000000D02*
G75*
G02*
X109500000Y-35000000I-500000J0D01*
G01*
X109500000Y-35000000D02*
G75*
G02*
X110500000Y-35000000I500000J0D01*
G01*
%TO.C,TP29*%
X132500000Y-47000000D02*
G75*
G02*
X131500000Y-47000000I-500000J0D01*
G01*
X131500000Y-47000000D02*
G75*
G02*
X132500000Y-47000000I500000J0D01*
G01*
%TO.C,R80*%
X38525000Y-19825000D02*
X40775000Y-19825000D01*
X40775000Y-18575000D01*
X38525000Y-18575000D01*
X38525000Y-19825000D01*
%TO.C,TP13*%
X31100000Y-42500000D02*
G75*
G02*
X30100000Y-42500000I-500000J0D01*
G01*
X30100000Y-42500000D02*
G75*
G02*
X31100000Y-42500000I500000J0D01*
G01*
%TD*%
M02*
