%TF.GenerationSoftware,KiCad,Pcbnew,9.0.2*%
%TF.CreationDate,2025-05-19T09:59:28-04:00*%
%TF.ProjectId,mainBoard,6d61696e-426f-4617-9264-2e6b69636164,01*%
%TF.SameCoordinates,PX42c1d80PY2faf080*%
%TF.FileFunction,Copper,L4,Inr*%
%TF.FilePolarity,Positive*%
%FSLAX46Y46*%
G04 Gerber Fmt 4.6, Leading zero omitted, Abs format (unit mm)*
G04 Created by KiCad (PCBNEW 9.0.2) date 2025-05-19 09:59:28*
%MOMM*%
%LPD*%
G01*
G04 APERTURE LIST*
%TA.AperFunction,ComponentPad*%
%ADD10C,6.500000*%
%TD*%
%TA.AperFunction,ComponentPad*%
%ADD11R,1.700000X1.700000*%
%TD*%
%TA.AperFunction,ComponentPad*%
%ADD12C,1.700000*%
%TD*%
%TA.AperFunction,ComponentPad*%
%ADD13C,2.500000*%
%TD*%
%TA.AperFunction,ComponentPad*%
%ADD14O,3.250000X1.000000*%
%TD*%
%TA.AperFunction,ComponentPad*%
%ADD15C,2.750000*%
%TD*%
%TA.AperFunction,ComponentPad*%
%ADD16C,0.930000*%
%TD*%
%TA.AperFunction,ComponentPad*%
%ADD17O,3.550000X1.350000*%
%TD*%
%TA.AperFunction,ComponentPad*%
%ADD18C,1.900000*%
%TD*%
%TA.AperFunction,ComponentPad*%
%ADD19O,3.750000X2.000000*%
%TD*%
%TA.AperFunction,ComponentPad*%
%ADD20C,2.000000*%
%TD*%
%TA.AperFunction,ComponentPad*%
%ADD21C,1.500000*%
%TD*%
%TA.AperFunction,ComponentPad*%
%ADD22C,2.600000*%
%TD*%
%TA.AperFunction,ViaPad*%
%ADD23C,0.550000*%
%TD*%
%TA.AperFunction,ViaPad*%
%ADD24C,0.600000*%
%TD*%
%TA.AperFunction,ViaPad*%
%ADD25C,0.800000*%
%TD*%
%TA.AperFunction,ViaPad*%
%ADD26C,0.700000*%
%TD*%
%TA.AperFunction,Conductor*%
%ADD27C,0.200000*%
%TD*%
%TA.AperFunction,Conductor*%
%ADD28C,0.300000*%
%TD*%
%TA.AperFunction,Conductor*%
%ADD29C,0.250000*%
%TD*%
%TA.AperFunction,Conductor*%
%ADD30C,0.500000*%
%TD*%
%TA.AperFunction,Profile*%
%ADD31C,0.050000*%
%TD*%
%TA.AperFunction,Profile*%
%ADD32C,0.100000*%
%TD*%
G04 APERTURE END LIST*
D10*
%TO.N,VSS*%
%TO.C,J15*%
X135500000Y-10000000D03*
%TD*%
%TO.N,VSS*%
%TO.C,J27*%
X87500000Y-10000000D03*
%TD*%
D11*
%TO.N,/Auxiliary Card/AUX_VDD*%
%TO.C,J26*%
X85960000Y-59000000D03*
D12*
%TO.N,/Auxiliary Card/AUX_GPIO_VCCA*%
X88500000Y-59000000D03*
%TO.N,/Auxiliary Card/AUX_1V8*%
X91040000Y-59000000D03*
%TD*%
D13*
%TO.N,/RF Interface/GNSS_RF-IN*%
%TO.C,AE1*%
X148750000Y-82250000D03*
%TO.N,VSS*%
X151290000Y-79710000D03*
X146210000Y-79710000D03*
X146210000Y-84790000D03*
X151290000Y-84790000D03*
%TD*%
D10*
%TO.N,VSS*%
%TO.C,J22*%
X111500000Y-22000000D03*
%TD*%
D14*
%TO.N,GND*%
%TO.C,J5*%
X21500000Y-5700000D03*
%TD*%
D11*
%TO.N,/LTE Card/LTE_VDD*%
%TO.C,J20*%
X109960000Y-59000000D03*
D12*
%TO.N,/LTE Card/LTE_GPIO_VCCA*%
X112500000Y-59000000D03*
%TO.N,/LTE Card/LTE_1V8*%
X115040000Y-59000000D03*
%TD*%
D10*
%TO.N,VSS*%
%TO.C,J28*%
X87500000Y-22000000D03*
%TD*%
%TO.N,VSS*%
%TO.C,J21*%
X111500000Y-10000000D03*
%TD*%
D11*
%TO.N,VSS*%
%TO.C,J41*%
X73060000Y-47500000D03*
D12*
%TO.N,/EPS Controller/Voltage Regulators/+3V3_REG_OUT*%
X70520000Y-47500000D03*
%TO.N,+3V3*%
X67980000Y-47500000D03*
%TO.N,VSS*%
X65440000Y-47500000D03*
%TD*%
D14*
%TO.N,GND*%
%TO.C,J4*%
X144500000Y-5700000D03*
%TD*%
D15*
%TO.N,GND*%
%TO.C,J1*%
X149920000Y-16550000D03*
X154920000Y-16550000D03*
X154920000Y-9050000D03*
X149920000Y-9050000D03*
%TD*%
D11*
%TO.N,/LTE Card/LTE_VDD*%
%TO.C,J17*%
X101710000Y-59000000D03*
D12*
%TO.N,/LTE Card/LTE_SIG_VCCA*%
X104250000Y-59000000D03*
%TO.N,/LTE Card/LTE_1V8*%
X106790000Y-59000000D03*
%TD*%
D16*
%TO.N,VSS*%
%TO.C,J9*%
X10670000Y-46275000D03*
%TO.N,unconnected-(J9-TX1+-PadA2)*%
X10670000Y-47375000D03*
%TO.N,unconnected-(J9-TX1--PadA3)*%
X10670000Y-48475000D03*
%TO.N,VBUS*%
X10670000Y-49575000D03*
%TO.N,/USB Hub/CC1*%
X9900000Y-50325000D03*
%TO.N,/USB Hub/UP_USB_DP*%
X10670000Y-51075000D03*
%TO.N,/USB Hub/UP_USB_DN*%
X10670000Y-52925000D03*
%TO.N,unconnected-(J9-SBU1-PadA8)*%
X9900000Y-53675000D03*
%TO.N,VBUS*%
X10670000Y-54425000D03*
%TO.N,unconnected-(J9-RX2--PadA10)*%
X10670000Y-55525000D03*
%TO.N,unconnected-(J9-RX2+-PadA11)*%
X10670000Y-56625000D03*
%TO.N,VSS*%
X10670000Y-57725000D03*
X8050000Y-57350000D03*
%TO.N,unconnected-(J9-TX2+-PadB2)*%
X8050000Y-56250000D03*
%TO.N,unconnected-(J9-TX2--PadB3)*%
X8050000Y-55150000D03*
%TO.N,VBUS*%
X8050000Y-54050000D03*
%TO.N,/USB Hub/CC2*%
X8850000Y-53300000D03*
%TO.N,/USB Hub/UP_USB_DP*%
X8050000Y-52550000D03*
%TO.N,/USB Hub/UP_USB_DN*%
X8050000Y-51450000D03*
%TO.N,unconnected-(J9-SBU2-PadB8)*%
X8850000Y-50700000D03*
%TO.N,VBUS*%
X8050000Y-49950000D03*
%TO.N,unconnected-(J9-RX1--PadB10)*%
X8050000Y-48850000D03*
%TO.N,unconnected-(J9-RX1+-PadB11)*%
X8050000Y-47750000D03*
%TO.N,VSS*%
X8050000Y-46650000D03*
X9375000Y-47050000D03*
X9375000Y-48150000D03*
X9375000Y-49250000D03*
X9375000Y-54750000D03*
X9375000Y-55850000D03*
X9375000Y-56950000D03*
D17*
%TO.N,Net-(J9-PadS1)*%
X9375000Y-60900000D03*
%TO.N,Net-(J9-PadS2)*%
X9375000Y-43100000D03*
%TD*%
D14*
%TO.N,GND*%
%TO.C,J3*%
X144500000Y-94300000D03*
%TD*%
D11*
%TO.N,/GNSS Card/GNSS_VDD*%
%TO.C,J14*%
X133960000Y-59000000D03*
D12*
%TO.N,/GNSS Card/GPS_GPIO_VCCA*%
X136500000Y-59000000D03*
%TO.N,/GNSS Card/GNSS_1V8*%
X139040000Y-59000000D03*
%TD*%
D11*
%TO.N,/GNSS Card/GNSS_VDD*%
%TO.C,J11*%
X125710000Y-59000000D03*
D12*
%TO.N,/GNSS Card/GPS_SIG_VCCA*%
X128250000Y-59000000D03*
%TO.N,/GNSS Card/GNSS_1V8*%
X130790000Y-59000000D03*
%TD*%
D11*
%TO.N,VSS*%
%TO.C,J42*%
X53610000Y-55800000D03*
D12*
%TO.N,Net-(J42-Pin_2)*%
X51070000Y-55800000D03*
%TO.N,+1V8*%
X48530000Y-55800000D03*
%TO.N,VSS*%
X45990000Y-55800000D03*
%TD*%
D18*
%TO.N,VSS*%
%TO.C,J37*%
X8325000Y-15700000D03*
%TO.N,/EPS Controller/Battery Charger/PVIN*%
X10275000Y-15075000D03*
%TO.N,VSS*%
X8325000Y-12300000D03*
%TO.N,/EPS Controller/Battery Charger/PVIN*%
X10275000Y-12925000D03*
D19*
%TO.N,Net-(J37-SHIELD-PadS1)*%
X8825000Y-20250000D03*
%TO.N,Net-(J37-SHIELD-PadS2)*%
X8825000Y-7750000D03*
%TD*%
D11*
%TO.N,/Auxiliary Card/AUX_VDD*%
%TO.C,J23*%
X77710000Y-59000000D03*
D12*
%TO.N,/Auxiliary Card/AUX_SIG_VCCA*%
X80250000Y-59000000D03*
%TO.N,/Auxiliary Card/AUX_1V8*%
X82790000Y-59000000D03*
%TD*%
D20*
%TO.N,/RF Interface/AUX_RF-IN*%
%TO.C,AE3*%
X154500000Y-41000000D03*
D13*
%TO.N,VSS*%
X157040000Y-38460000D03*
X151960000Y-38460000D03*
X151960000Y-43540000D03*
X157040000Y-43540000D03*
%TD*%
D14*
%TO.N,GND*%
%TO.C,J2*%
X21500000Y-94300000D03*
%TD*%
D18*
%TO.N,+3V3*%
%TO.C,J33*%
X8325000Y-33700000D03*
%TO.N,/I2C1.SCL*%
X10275000Y-33075000D03*
%TO.N,/I2C1.SDA*%
X8325000Y-30300000D03*
%TO.N,VSS*%
X10275000Y-30925000D03*
D19*
%TO.N,Net-(J33-SHIELD-PadS1)*%
X8825000Y-38250000D03*
%TO.N,Net-(J33-SHIELD-PadS2)*%
X8825000Y-25750000D03*
%TD*%
D10*
%TO.N,VSS*%
%TO.C,J16*%
X135500000Y-22000000D03*
%TD*%
D21*
%TO.N,/Ethernet/MDI_RX+*%
%TO.C,J10*%
X14500000Y-74560000D03*
%TO.N,/Ethernet/MDI_RX-*%
X17040000Y-75830000D03*
%TO.N,/Ethernet/MDI_TX+*%
X14500000Y-77100000D03*
%TO.N,unconnected-(J10-DC+-Pad4)*%
X17040000Y-78370000D03*
%TO.N,unconnected-(J10-DC+-Pad5)*%
X14500000Y-79640000D03*
%TO.N,/Ethernet/MDI_TX-*%
X17040000Y-80910000D03*
%TO.N,unconnected-(J10-DC--Pad7)*%
X14500000Y-82180000D03*
%TO.N,unconnected-(J10-DC--Pad8)*%
X17040000Y-83450000D03*
%TO.N,Net-(J10-LED(Yellow)_K)*%
X10500000Y-85530000D03*
%TO.N,/Ethernet/LED1*%
X10500000Y-82990000D03*
%TO.N,Net-(J10-LED(Green)_K)*%
X10500000Y-75010000D03*
%TO.N,/Ethernet/LED2*%
X10500000Y-72470000D03*
D22*
%TO.N,GND*%
X6500000Y-74000000D03*
X6500000Y-84000000D03*
%TD*%
D15*
%TO.N,PACK+*%
%TO.C,J40*%
X74100000Y-10200000D03*
%TO.N,PACK-*%
X69900000Y-10200000D03*
%TD*%
D20*
%TO.N,/RF Interface/LTE_RF-IN*%
%TO.C,AE2*%
X154500000Y-60500000D03*
D13*
%TO.N,VSS*%
X157040000Y-57960000D03*
X151960000Y-57960000D03*
X151960000Y-63040000D03*
X157040000Y-63040000D03*
%TD*%
D23*
%TO.N,VSS*%
X21500000Y-15750000D03*
X22500000Y-10750000D03*
X23500000Y-9750000D03*
%TO.N,GND*%
X158300000Y-42000000D03*
%TO.N,VSS*%
X64500000Y-53500000D03*
X75000000Y-46000000D03*
X78000000Y-37000000D03*
X78000000Y-39000000D03*
X78000000Y-41000000D03*
X78000000Y-43000000D03*
X77000000Y-46000000D03*
X79000000Y-46000000D03*
X123200000Y-66200000D03*
%TO.N,GND*%
X5500000Y-65000000D03*
X5500000Y-67000000D03*
X1500000Y-65000000D03*
X1500000Y-67000000D03*
X3500000Y-67000000D03*
X3500000Y-65000000D03*
X2500000Y-66000000D03*
X6500000Y-94000000D03*
X6500000Y-90000000D03*
X2500000Y-90000000D03*
X2500000Y-94000000D03*
X156000000Y-6000000D03*
X152000000Y-18000000D03*
X149000000Y-19000000D03*
X155000000Y-19000000D03*
X156000000Y-14000000D03*
X152000000Y-14000000D03*
X150000000Y-12000000D03*
X154000000Y-12000000D03*
X152000000Y-10000000D03*
X152000000Y-6000000D03*
X154000000Y-4000000D03*
X150000000Y-4000000D03*
X4500000Y-92000000D03*
X4500000Y-88000000D03*
X4500000Y-84000000D03*
X155500000Y-90500000D03*
X4500000Y-48000000D03*
X1700000Y-10000000D03*
X4500000Y-64000000D03*
X1700000Y-14000000D03*
X1700000Y-6000000D03*
X4500000Y-72000000D03*
X4500000Y-44000000D03*
X4500000Y-60000000D03*
X158300000Y-60000000D03*
X1700000Y-22000000D03*
X158300000Y-6000000D03*
X158300000Y-22000000D03*
X158300000Y-14000000D03*
X158300000Y-18000000D03*
X158300000Y-50000000D03*
X1700000Y-26000000D03*
X158300000Y-66000000D03*
X4500000Y-52000000D03*
X1700000Y-30000000D03*
X1700000Y-38000000D03*
X158300000Y-46000000D03*
X158300000Y-10000000D03*
X4500000Y-40000000D03*
X158300000Y-26000000D03*
X4500000Y-68000000D03*
X4500000Y-56000000D03*
X158300000Y-54000000D03*
X1700000Y-34000000D03*
X158300000Y-70000000D03*
X158300000Y-34000000D03*
X4500000Y-76000000D03*
X158300000Y-30000000D03*
X4500000Y-80000000D03*
X118000000Y-98300000D03*
X86000000Y-98300000D03*
X74000000Y-98300000D03*
X14000000Y-98300000D03*
X34000000Y-98300000D03*
X50000000Y-98300000D03*
X154000000Y-98300000D03*
X22000000Y-98300000D03*
X138000000Y-98300000D03*
X46000000Y-98300000D03*
X146000000Y-98300000D03*
X18000000Y-98300000D03*
X142000000Y-98300000D03*
X82000000Y-98300000D03*
X110000000Y-98300000D03*
X94000000Y-98300000D03*
X30000000Y-98300000D03*
X66000000Y-98300000D03*
X114000000Y-98300000D03*
X38000000Y-98300000D03*
X150000000Y-98300000D03*
X58000000Y-98300000D03*
X78000000Y-98300000D03*
X62000000Y-98300000D03*
X134000000Y-98300000D03*
X54000000Y-98300000D03*
X98000000Y-98300000D03*
X70000000Y-98300000D03*
X106000000Y-98300000D03*
X90000000Y-98300000D03*
X126000000Y-98300000D03*
X130000000Y-98300000D03*
X6000000Y-98300000D03*
X10000000Y-98300000D03*
X122000000Y-98300000D03*
X42000000Y-98300000D03*
X26000000Y-98300000D03*
X102000000Y-98300000D03*
X146000000Y-1700000D03*
X154000000Y-1700000D03*
X150000000Y-1700000D03*
X142000000Y-1700000D03*
X130000000Y-1700000D03*
X138000000Y-1700000D03*
X134000000Y-1700000D03*
X126000000Y-1700000D03*
X114000000Y-1700000D03*
X122000000Y-1700000D03*
X118000000Y-1700000D03*
X110000000Y-1700000D03*
X106000000Y-1700000D03*
X102000000Y-1700000D03*
X98000000Y-1700000D03*
X94000000Y-1700000D03*
X90000000Y-1700000D03*
X86000000Y-1700000D03*
X82000000Y-1700000D03*
X78000000Y-1700000D03*
X74000000Y-1700000D03*
X70000000Y-1700000D03*
X66000000Y-1700000D03*
X62000000Y-1700000D03*
X58000000Y-1700000D03*
X54000000Y-1700000D03*
X50000000Y-1700000D03*
X46000000Y-1700000D03*
X42000000Y-1700000D03*
X38000000Y-1700000D03*
X34000000Y-1700000D03*
X30000000Y-1700000D03*
X26000000Y-1700000D03*
X22000000Y-1700000D03*
X18000000Y-1700000D03*
X14000000Y-1700000D03*
%TO.N,VSS*%
X82000000Y-24000000D03*
X128000000Y-38000000D03*
X86250000Y-85500000D03*
X22000000Y-40000000D03*
X34050000Y-58150000D03*
X149500000Y-47000000D03*
X86550000Y-36000000D03*
X138000000Y-90000000D03*
X150000000Y-90000000D03*
X132400000Y-63800000D03*
X10000000Y-4000000D03*
X14000000Y-40000000D03*
X96250000Y-85250000D03*
X81750000Y-87750000D03*
X26000000Y-53650000D03*
D24*
X23050000Y-43050000D03*
D23*
X116000000Y-22000000D03*
X53000000Y-42250000D03*
X136750000Y-54150000D03*
X14000000Y-12000000D03*
X96500000Y-56750000D03*
X58000000Y-80000000D03*
X14000000Y-96000000D03*
X148000000Y-42000000D03*
X120000000Y-42000000D03*
X38100000Y-49450000D03*
X149500000Y-52000000D03*
X116850000Y-68650000D03*
X33700000Y-55275000D03*
X156000000Y-26000000D03*
X80000000Y-50000000D03*
X20750000Y-46500000D03*
X84000000Y-14000000D03*
X152500000Y-46500000D03*
X63000000Y-69000000D03*
X16000000Y-26000000D03*
X70000000Y-88000000D03*
X38100000Y-58350000D03*
X45000000Y-80000000D03*
D24*
X70825000Y-87350000D03*
D23*
X130000000Y-12000000D03*
X26000000Y-24000000D03*
X68950000Y-53800000D03*
X48000000Y-38000000D03*
X106825000Y-41800000D03*
X148000000Y-18000000D03*
X102250000Y-57000000D03*
X89000000Y-83750000D03*
X143000000Y-71000000D03*
X144750000Y-33425000D03*
X146000000Y-90000000D03*
X110000000Y-16000000D03*
X124500000Y-80000000D03*
X75750000Y-32000000D03*
X114000000Y-38000000D03*
X40000000Y-6000000D03*
D24*
X56250000Y-29125000D03*
D23*
X124500000Y-82000000D03*
X146000000Y-28000000D03*
X32000000Y-26000000D03*
X119250000Y-57000000D03*
X6000000Y-24000000D03*
X16500000Y-16750000D03*
X67000000Y-91000000D03*
X42900000Y-51900000D03*
X98000000Y-28000000D03*
X40000000Y-50400000D03*
X26500000Y-10750000D03*
X26000000Y-28000000D03*
X112000000Y-26000000D03*
D24*
X15400000Y-55250000D03*
D23*
X133750000Y-54150000D03*
X152000000Y-67500000D03*
X102900000Y-68600000D03*
X4000000Y-10000000D03*
X28300000Y-66100000D03*
X74000000Y-34000000D03*
X149500000Y-70000000D03*
X98000000Y-40000000D03*
X118000000Y-20000000D03*
X51850000Y-86525000D03*
X98000000Y-8000000D03*
X68250000Y-30500000D03*
X87050000Y-96425000D03*
X36000000Y-94000000D03*
X83000000Y-39000000D03*
X104475000Y-78650000D03*
X144000000Y-92000000D03*
X116500000Y-46625000D03*
X51000000Y-95000000D03*
X152000000Y-92000000D03*
X93000000Y-83750000D03*
X102000000Y-4000000D03*
X126000000Y-12000000D03*
X55000000Y-9750000D03*
X58000000Y-31000000D03*
X91000000Y-83750000D03*
X59000000Y-23000000D03*
X142000000Y-20000000D03*
X130000000Y-28000000D03*
X41250000Y-32275000D03*
X58000000Y-24000000D03*
X153500000Y-46500000D03*
X82750000Y-56950000D03*
D24*
X54750000Y-29125000D03*
X27850000Y-40700000D03*
D23*
X100650000Y-64625000D03*
X88000000Y-53900000D03*
D24*
X62050000Y-78200000D03*
D23*
X30500000Y-70250000D03*
X68825000Y-65125000D03*
X60000000Y-24000000D03*
X16000000Y-62000000D03*
X65000000Y-84750000D03*
D24*
X41525000Y-67700000D03*
D23*
X28000000Y-26000000D03*
X37600000Y-36900000D03*
X103750000Y-56975000D03*
X128900000Y-56900000D03*
X53525000Y-77000000D03*
X49000000Y-91000000D03*
X126000000Y-40000000D03*
X94000000Y-24000000D03*
X37150000Y-50400000D03*
X110000000Y-54000000D03*
X132000000Y-70000000D03*
X86200000Y-82000000D03*
X144000000Y-42000000D03*
X122000000Y-74000000D03*
X84000000Y-18000000D03*
X123750000Y-79887500D03*
D24*
X46525000Y-68250000D03*
D23*
X8000000Y-62000000D03*
X152000000Y-49000000D03*
X150500000Y-36000000D03*
X138000000Y-76000000D03*
X58000000Y-64000000D03*
X125500000Y-89000000D03*
D24*
X20450000Y-58325000D03*
D23*
X20000000Y-14000000D03*
X112000000Y-6000000D03*
X152500000Y-36000000D03*
X110000000Y-52000000D03*
X88000000Y-18000000D03*
X27500000Y-9750000D03*
X79000000Y-38000000D03*
X85750000Y-57000000D03*
X59000000Y-91000000D03*
X152000000Y-69500000D03*
X113225000Y-78750000D03*
X32500000Y-10750000D03*
X70000000Y-34000000D03*
X46000000Y-96000000D03*
X120375000Y-34875000D03*
X74000000Y-4000000D03*
X137000000Y-57000000D03*
X118000000Y-16000000D03*
X43000000Y-9750000D03*
X122000000Y-86000000D03*
X154500000Y-71000000D03*
X51000000Y-9750000D03*
D24*
X105600000Y-81150000D03*
D23*
X143650000Y-65450000D03*
X95000000Y-91975000D03*
D24*
X33300000Y-65500000D03*
D23*
X106825000Y-43200000D03*
X44000000Y-90000000D03*
X100000000Y-42000000D03*
X108000000Y-92000000D03*
X12000000Y-38000000D03*
X50000000Y-4000000D03*
X122000000Y-28000000D03*
X152500000Y-71000000D03*
X146000000Y-60000000D03*
X136000000Y-62000000D03*
X129500000Y-74000000D03*
X95750000Y-64500000D03*
X136000000Y-96000000D03*
X35500000Y-65350000D03*
X120925000Y-35125000D03*
X122000000Y-16000000D03*
X65675000Y-65925000D03*
X47000000Y-55000000D03*
X88000000Y-14000000D03*
D24*
X35900000Y-67600000D03*
D23*
X149500000Y-59000000D03*
X61450000Y-40950000D03*
X140000000Y-96000000D03*
X32550000Y-70050000D03*
X26000000Y-92000000D03*
X128000000Y-22000000D03*
X153500000Y-36000000D03*
X18000000Y-8000000D03*
X98000000Y-32000000D03*
X120000000Y-92000000D03*
X88000000Y-6000000D03*
X84000000Y-6000000D03*
X37150000Y-51350000D03*
X146000000Y-44000000D03*
X139000000Y-51000000D03*
X132000000Y-30000000D03*
X76000000Y-52000000D03*
X130000000Y-36000000D03*
X138150000Y-65450000D03*
X56000000Y-6000000D03*
X140925000Y-35125000D03*
X152000000Y-88000000D03*
D24*
X97800000Y-66150000D03*
D23*
X116000000Y-26000000D03*
X120000000Y-40000000D03*
X26000000Y-40000000D03*
X56000000Y-30000000D03*
X110000000Y-28000000D03*
X45000000Y-79000000D03*
X120000000Y-72000000D03*
X74500000Y-17500000D03*
X71000000Y-81000000D03*
D24*
X61000000Y-81350000D03*
D23*
X130000000Y-20000000D03*
X140000000Y-22000000D03*
X104500000Y-68200000D03*
X80475000Y-82000000D03*
D24*
X40100000Y-67700000D03*
D23*
X122000000Y-40000000D03*
D25*
X10700000Y-87550000D03*
D23*
X81250000Y-54050000D03*
X128000000Y-66000000D03*
X36200000Y-49450000D03*
X75500000Y-18500000D03*
X104000000Y-34000000D03*
X142000000Y-28000000D03*
X101975000Y-73250000D03*
X52500000Y-41000000D03*
X41250000Y-30725000D03*
X63000000Y-47000000D03*
X79000000Y-42000000D03*
X49000000Y-86525000D03*
X96000000Y-52000000D03*
X31000000Y-45000000D03*
X60000000Y-62000000D03*
X126000000Y-8000000D03*
X53000000Y-41500000D03*
X28500000Y-10750000D03*
X58000000Y-8000000D03*
X6000000Y-28000000D03*
X152000000Y-51000000D03*
X75750000Y-29750000D03*
X6000000Y-16000000D03*
X127750000Y-56900000D03*
X39050000Y-51350000D03*
X151000000Y-75000000D03*
X19500000Y-15750000D03*
X79000000Y-44000000D03*
X4000000Y-34000000D03*
X144000000Y-18000000D03*
X16000000Y-6000000D03*
X10000000Y-62000000D03*
X149500000Y-74000000D03*
X149500000Y-58000000D03*
X151500000Y-36000000D03*
X119475000Y-76625000D03*
X20000000Y-92000000D03*
X149500000Y-60000000D03*
X24000000Y-30000000D03*
X16000000Y-34000000D03*
D25*
X14450000Y-60900000D03*
D23*
X77000000Y-71000000D03*
X152000000Y-22000000D03*
X64400000Y-40300000D03*
X83000000Y-91975000D03*
X71500000Y-24050000D03*
X14000000Y-28000000D03*
X30325000Y-62200000D03*
X107250000Y-54100000D03*
D24*
X41750000Y-83825000D03*
D23*
X58000000Y-92000000D03*
X127225000Y-88675000D03*
X41250000Y-31500000D03*
X122000000Y-20000000D03*
X92000000Y-30000000D03*
X154000000Y-24000000D03*
X61000000Y-91000000D03*
X130825000Y-41800000D03*
X69750000Y-32100000D03*
D25*
X10700000Y-89200000D03*
D24*
X21700000Y-50850000D03*
D23*
X18000000Y-68000000D03*
X101400000Y-64550000D03*
X75000000Y-70700000D03*
X142000000Y-40000000D03*
X124500000Y-86000000D03*
X142000000Y-94000000D03*
X152000000Y-26000000D03*
X60000000Y-78000000D03*
X108000000Y-6000000D03*
X153500000Y-51500000D03*
X92250000Y-79000000D03*
X70375000Y-65075000D03*
X122000000Y-44000000D03*
X136000000Y-92000000D03*
D24*
X74350000Y-88175000D03*
D23*
X72500000Y-24050000D03*
X136000000Y-6000000D03*
X89000000Y-82000000D03*
X153025000Y-70050000D03*
X36200000Y-50400000D03*
X149500000Y-64000000D03*
X104000000Y-30000000D03*
X28000000Y-47000000D03*
X87800000Y-36000000D03*
X35500000Y-66650000D03*
X18000000Y-96000000D03*
X73000000Y-58500000D03*
X37150000Y-49450000D03*
X12000000Y-42000000D03*
X124500000Y-89000000D03*
X41000000Y-9750000D03*
X58000000Y-88000000D03*
X150000000Y-94000000D03*
X36600000Y-42500000D03*
X80475000Y-76700000D03*
X82000000Y-32000000D03*
X123500000Y-68400000D03*
X101975000Y-81000000D03*
X140000000Y-88000000D03*
D24*
X41450000Y-27625000D03*
D23*
X84000000Y-30000000D03*
X98000000Y-39275000D03*
X10000000Y-40000000D03*
X54000000Y-4000000D03*
X5000000Y-25000000D03*
X78025000Y-73500000D03*
X115025000Y-81925000D03*
X44593413Y-62006587D03*
X120000000Y-18000000D03*
X38200000Y-40900000D03*
X109550000Y-40000000D03*
X153000000Y-73000000D03*
X109300000Y-33400000D03*
X46000000Y-36000000D03*
X65000000Y-82750000D03*
X18000000Y-92000000D03*
X60000000Y-34000000D03*
X136000000Y-18000000D03*
X45900000Y-51800000D03*
X106000000Y-50000000D03*
X149500000Y-39000000D03*
X82000000Y-16000000D03*
X120000000Y-30000000D03*
X26000000Y-96000000D03*
X35750000Y-13900000D03*
X39050000Y-48500000D03*
X128000000Y-14000000D03*
X92000000Y-10000000D03*
X71275000Y-68025000D03*
X102000000Y-40000000D03*
X96000000Y-6000000D03*
X124000000Y-30000000D03*
X70000000Y-4000000D03*
X39050000Y-49450000D03*
X124000000Y-50000000D03*
D24*
X69050000Y-55300000D03*
D23*
X124500000Y-81000000D03*
X18000000Y-4000000D03*
X112300000Y-42500000D03*
X108000000Y-90000000D03*
X60000000Y-94000000D03*
X34000000Y-96000000D03*
X95600000Y-38825000D03*
D24*
X72850000Y-51575000D03*
D23*
X146500000Y-74000000D03*
X58000000Y-60000000D03*
X130300000Y-81660000D03*
X130250000Y-74500000D03*
X92000000Y-82000000D03*
X97050000Y-83650000D03*
X32000000Y-34000000D03*
D24*
X42225000Y-67700000D03*
D23*
X64000000Y-83750000D03*
X130825000Y-43200000D03*
X4000000Y-22000000D03*
X126500000Y-89000000D03*
X134000000Y-68000000D03*
X108000000Y-30000000D03*
X10000000Y-92000000D03*
X155500000Y-36000000D03*
X111800000Y-36000000D03*
X149500000Y-41000000D03*
X149500000Y-42000000D03*
X60000000Y-82000000D03*
X24000000Y-53650000D03*
X110550000Y-36000000D03*
X88250000Y-94000000D03*
D24*
X38350000Y-24375000D03*
D23*
X152000000Y-68500000D03*
X152000000Y-70500000D03*
D25*
X10700000Y-69700000D03*
D23*
X104475000Y-74500000D03*
X96375000Y-34875000D03*
D24*
X26325000Y-21600000D03*
D23*
X95250000Y-54050000D03*
D24*
X13675000Y-48375000D03*
D23*
X7000000Y-63000000D03*
D24*
X62050000Y-74225000D03*
D23*
X14000000Y-32000000D03*
D24*
X71125000Y-91200000D03*
D23*
X130250000Y-77500000D03*
X30500000Y-10750000D03*
X4000000Y-14000000D03*
X140000000Y-18000000D03*
X138000000Y-64000000D03*
X70500000Y-12500000D03*
X144000000Y-30000000D03*
X32000000Y-94000000D03*
X149500000Y-73000000D03*
X26000000Y-64000000D03*
X120000000Y-14000000D03*
X124500000Y-75000000D03*
X124000000Y-58000000D03*
X36250000Y-8250000D03*
X85550000Y-40000000D03*
X149500000Y-40000000D03*
X29000000Y-70250000D03*
X149500000Y-71000000D03*
X42900000Y-55200000D03*
X124000000Y-18000000D03*
X127150000Y-65450000D03*
D24*
X76650000Y-91200000D03*
D23*
X17500000Y-15750000D03*
X12000000Y-10000000D03*
X104000000Y-26000000D03*
X94000000Y-4000000D03*
X124500000Y-76000000D03*
X120000000Y-88000000D03*
X101000000Y-93000000D03*
X38100000Y-47550000D03*
X134000000Y-28000000D03*
D24*
X49750000Y-78425000D03*
D23*
X71000000Y-73000000D03*
X61000000Y-23000000D03*
X14000000Y-36000000D03*
X10000000Y-18000000D03*
X79750000Y-54050000D03*
X132200000Y-32950000D03*
X155975000Y-50550000D03*
X16000000Y-10000000D03*
X45200000Y-53200000D03*
X14000000Y-44000000D03*
X148000000Y-88000000D03*
X39050000Y-47550000D03*
X116000000Y-14000000D03*
D24*
X47625000Y-68825000D03*
D23*
X30825000Y-51575000D03*
X148000000Y-80000000D03*
X106000000Y-28000000D03*
X153500000Y-66000000D03*
X156000000Y-80000000D03*
X48000000Y-6000000D03*
X138000000Y-16000000D03*
X102000000Y-32000000D03*
X94000000Y-28000000D03*
X25300000Y-32500000D03*
X69500000Y-17500000D03*
X79000000Y-4000000D03*
X75000000Y-58500000D03*
X66000000Y-60000000D03*
X141050000Y-74050000D03*
X16000000Y-42000000D03*
X152000000Y-50000000D03*
X102000000Y-8000000D03*
X150000000Y-86000000D03*
X128000000Y-6000000D03*
X139600000Y-38850000D03*
X16000000Y-58000000D03*
X122000000Y-39275000D03*
X146000000Y-12000000D03*
X20000000Y-70000000D03*
D24*
X77175000Y-29000000D03*
D23*
X64000000Y-34000000D03*
X70125000Y-28125000D03*
X90000000Y-85500000D03*
X25000000Y-53650000D03*
X96500000Y-59525000D03*
X8000000Y-10000000D03*
X122000000Y-78000000D03*
X113550000Y-35750000D03*
X144000000Y-88000000D03*
X114725000Y-74700000D03*
X66000000Y-42000000D03*
X16000000Y-50000000D03*
X140000000Y-10000000D03*
X62000000Y-84000000D03*
X153500000Y-71000000D03*
X37150000Y-47550000D03*
X131275000Y-78050000D03*
X58000000Y-53500000D03*
X86000000Y-52000000D03*
X64000000Y-94000000D03*
X6000000Y-4000000D03*
X55000000Y-23000000D03*
X40000000Y-47550000D03*
X42000000Y-96000000D03*
X144750000Y-39575000D03*
X80475000Y-79750000D03*
X56250000Y-89600000D03*
X140375000Y-34875000D03*
X73500000Y-27800000D03*
X66000000Y-4000000D03*
X71000000Y-58500000D03*
X124500000Y-90000000D03*
X36200000Y-51350000D03*
X42850000Y-29850000D03*
X20000000Y-74000000D03*
X124500000Y-91000000D03*
X154500000Y-36000000D03*
X38100000Y-51350000D03*
X24000000Y-38000000D03*
X130000000Y-32000000D03*
X53300000Y-77700000D03*
X148500000Y-74000000D03*
X141000000Y-53000000D03*
X152000000Y-34000000D03*
X26000000Y-62000000D03*
X110000000Y-4000000D03*
X124000000Y-14000000D03*
X130000000Y-24000000D03*
X53000000Y-9750000D03*
X79000000Y-30000000D03*
X22500000Y-14750000D03*
X25000000Y-52650000D03*
X75500000Y-29100000D03*
D24*
X14800000Y-91050000D03*
D23*
X114150000Y-72325000D03*
X10000000Y-28000000D03*
X134000000Y-94000000D03*
X54000000Y-10750000D03*
D24*
X83000000Y-81250000D03*
D23*
X149500000Y-57000000D03*
X84000000Y-34000000D03*
X65525000Y-70725000D03*
X147000000Y-71000000D03*
X126500000Y-74000000D03*
X127500000Y-74000000D03*
X153025000Y-50550000D03*
X113650000Y-88375000D03*
D24*
X48800000Y-83750000D03*
D23*
X114000000Y-4000000D03*
X126000000Y-38000000D03*
X149500000Y-51000000D03*
X152000000Y-96000000D03*
X130250000Y-79500000D03*
X33500000Y-9750000D03*
X8000000Y-14000000D03*
X146000000Y-8000000D03*
X24000000Y-94000000D03*
X124000000Y-6000000D03*
X31500000Y-9750000D03*
X68500000Y-16500000D03*
X142000000Y-12000000D03*
X22000000Y-44000000D03*
X131325000Y-33875000D03*
X138000000Y-36000000D03*
X38000000Y-4000000D03*
X52000000Y-38000000D03*
X44000000Y-38000000D03*
D24*
X98000000Y-64700000D03*
D23*
X36250000Y-14350000D03*
X152000000Y-48000000D03*
X12000000Y-26000000D03*
X130000000Y-86000000D03*
X48825000Y-73275000D03*
X70050000Y-51600000D03*
X52000000Y-53500000D03*
X156000000Y-30000000D03*
X106000000Y-8000000D03*
X115300000Y-66400000D03*
X92000000Y-26000000D03*
X102000000Y-52000000D03*
X61750000Y-28500000D03*
X90000000Y-16000000D03*
X87975000Y-96400000D03*
X128000000Y-30000000D03*
X130250000Y-75500000D03*
X122000000Y-32000000D03*
X62000000Y-56000000D03*
X132000000Y-6000000D03*
X110050000Y-70050000D03*
X148000000Y-10000000D03*
X113000000Y-51000000D03*
X126000000Y-24000000D03*
X68250000Y-29750000D03*
D24*
X66825000Y-28750000D03*
D23*
X18000000Y-60000000D03*
X56000000Y-20000000D03*
D24*
X77250000Y-90750000D03*
D23*
X106000000Y-24000000D03*
D24*
X60700000Y-76150000D03*
D23*
X124500000Y-92000000D03*
X45800000Y-47475000D03*
X124000000Y-46000000D03*
X148000000Y-34000000D03*
X149500000Y-44000000D03*
X128500000Y-74000000D03*
X122000000Y-4000000D03*
D24*
X13500000Y-67150000D03*
D23*
X82500000Y-88250000D03*
X82000000Y-4000000D03*
X93000000Y-87250000D03*
X69625000Y-28450000D03*
X134200000Y-62400000D03*
X150000000Y-28000000D03*
X95250000Y-79000000D03*
X116000000Y-10000000D03*
D25*
X12700000Y-91150000D03*
D23*
X106450000Y-73925000D03*
D24*
X36550000Y-80750000D03*
D23*
X92150000Y-46550000D03*
X124500000Y-93000000D03*
X105525000Y-37150000D03*
X68250000Y-32000000D03*
X30000000Y-8000000D03*
X86000000Y-16000000D03*
X144000000Y-58000000D03*
X73000000Y-71000000D03*
X150000000Y-78000000D03*
X96000000Y-34000000D03*
X37750000Y-8250000D03*
X138000000Y-4000000D03*
X76000000Y-56000000D03*
X40000000Y-49450000D03*
X116000000Y-18000000D03*
D24*
X48100000Y-82250000D03*
D23*
X74000000Y-28125000D03*
X106000000Y-52000000D03*
D24*
X25450000Y-21600000D03*
D23*
X46000000Y-54000000D03*
X142000000Y-8000000D03*
X124500000Y-87000000D03*
X68625000Y-29100000D03*
D24*
X46900000Y-68825000D03*
D23*
X130000000Y-89000000D03*
X24000000Y-42000000D03*
X126000000Y-44000000D03*
X124000000Y-54000000D03*
X127225000Y-74650000D03*
X151000000Y-55000000D03*
X149500000Y-61000000D03*
X32000000Y-6000000D03*
X39727800Y-40075000D03*
X32401731Y-41551474D03*
X30000000Y-28000000D03*
X155975000Y-70050000D03*
X74500000Y-28450000D03*
X97850000Y-62500000D03*
X68950000Y-51600000D03*
X44000000Y-79000000D03*
X62000000Y-52000000D03*
X139000000Y-57000000D03*
X106000000Y-4000000D03*
D24*
X126175000Y-81675000D03*
D23*
X124000000Y-10000000D03*
X34000000Y-40000000D03*
X124000000Y-22000000D03*
D24*
X78050000Y-76875000D03*
D23*
X153000000Y-53000000D03*
X75750000Y-31250000D03*
X62000000Y-64000000D03*
D24*
X38600000Y-54850000D03*
D23*
X100750000Y-33425000D03*
X12000000Y-62000000D03*
X22000000Y-60000000D03*
X14000000Y-4000000D03*
X30655000Y-49900000D03*
X91000000Y-89250000D03*
X148000000Y-30000000D03*
X144000000Y-10000000D03*
X94000000Y-8000000D03*
X93000000Y-89250000D03*
X89000000Y-79000000D03*
X128000000Y-46000000D03*
X42000000Y-10750000D03*
X132650000Y-65450000D03*
X103750000Y-91500000D03*
X118000000Y-12000000D03*
X126250000Y-56900000D03*
X6550000Y-52975000D03*
D25*
X10700000Y-68000000D03*
D24*
X27200000Y-21600000D03*
D23*
X79000000Y-36000000D03*
D24*
X69950000Y-55300000D03*
D23*
X75000000Y-57000000D03*
X64050000Y-40900000D03*
X149500000Y-50000000D03*
X129000000Y-89000000D03*
X19000000Y-93000000D03*
X110000000Y-50000000D03*
X36000000Y-6000000D03*
X106000000Y-54000000D03*
X36250000Y-13500000D03*
X120000000Y-10000000D03*
X149500000Y-48000000D03*
X108000000Y-14000000D03*
X94000000Y-88250000D03*
X111175000Y-68700000D03*
X134000000Y-4000000D03*
X128000000Y-34000000D03*
X138000000Y-28000000D03*
D24*
X142850000Y-77125000D03*
D23*
X46000000Y-4000000D03*
X47000000Y-9750000D03*
X92000000Y-6000000D03*
X118000000Y-82000000D03*
X6000000Y-36000000D03*
X149500000Y-67000000D03*
X82825000Y-43225000D03*
X135900000Y-28850000D03*
X62500000Y-53500000D03*
X90000000Y-91975000D03*
X86000000Y-28000000D03*
X39050000Y-50400000D03*
X155000000Y-59000000D03*
X79000000Y-40000000D03*
X39000000Y-9750000D03*
X124500000Y-88000000D03*
X122000000Y-24000000D03*
X148000000Y-96000000D03*
X82000000Y-20000000D03*
X75000000Y-32100000D03*
X111250000Y-82950000D03*
X58000000Y-78000000D03*
D24*
X28075000Y-21600000D03*
D23*
X156500000Y-36000000D03*
X25000000Y-54650000D03*
X124000000Y-72000000D03*
X71250000Y-32100000D03*
X44000000Y-10750000D03*
X16000000Y-90000000D03*
X120750000Y-57000000D03*
X84875000Y-70750000D03*
X26000000Y-4000000D03*
X24000000Y-6000000D03*
X98000000Y-52000000D03*
X50750000Y-41000000D03*
X20000000Y-78000000D03*
X29300000Y-34050000D03*
X132000000Y-18000000D03*
X79000000Y-32000000D03*
X135250000Y-54150000D03*
X124500000Y-74000000D03*
X130250000Y-76500000D03*
X144000000Y-14000000D03*
X138000000Y-80000000D03*
X58000000Y-4000000D03*
D24*
X75325000Y-28000000D03*
D23*
X44225000Y-18900000D03*
X16500000Y-18750000D03*
X124500000Y-78000000D03*
X132750000Y-54100000D03*
X81525000Y-37150000D03*
X78025000Y-87500000D03*
X140000000Y-92000000D03*
X51875000Y-88225000D03*
X146000000Y-52000000D03*
X126000000Y-20000000D03*
X120000000Y-80000000D03*
D24*
X66905000Y-89200000D03*
D23*
X136300000Y-42500000D03*
X9000000Y-63000000D03*
X29385000Y-49900000D03*
X52000000Y-6000000D03*
X145500000Y-74000000D03*
X115000000Y-81000000D03*
X97250000Y-81000000D03*
X35500000Y-66000000D03*
X122000000Y-8000000D03*
X146000000Y-40000000D03*
X123000000Y-64350000D03*
X69000000Y-58500000D03*
X16000000Y-46000000D03*
D24*
X30700000Y-21600000D03*
D23*
X26845000Y-49900000D03*
X11000000Y-35000000D03*
X106000000Y-92000000D03*
X136800000Y-34575000D03*
X96000000Y-26000000D03*
D26*
X40825000Y-18975000D03*
D23*
X115000000Y-92275000D03*
X66000000Y-38000000D03*
X37150000Y-48500000D03*
X95000000Y-76250000D03*
X143250000Y-54150000D03*
X84875000Y-63525000D03*
X120000000Y-22000000D03*
X28115000Y-49900000D03*
X58675000Y-41800000D03*
X154500000Y-51500000D03*
X40927800Y-60300000D03*
X38100000Y-61225000D03*
X66000000Y-36000000D03*
X72750000Y-32100000D03*
D24*
X142850000Y-78500000D03*
X41450000Y-26925000D03*
D23*
X88300000Y-42525000D03*
X98500000Y-62500000D03*
X96000000Y-50000000D03*
X78650000Y-54050000D03*
X118000000Y-4000000D03*
X68500000Y-12500000D03*
X72000000Y-23750000D03*
X44100000Y-29200000D03*
X149500000Y-63000000D03*
X130000000Y-85000000D03*
X32000000Y-38000000D03*
X109850000Y-71687500D03*
X6000000Y-12000000D03*
X54000000Y-60000000D03*
X89500000Y-68025000D03*
X86250000Y-89250000D03*
X124500000Y-83000000D03*
D24*
X100075000Y-91925000D03*
D23*
X149500000Y-56000000D03*
X69000000Y-32100000D03*
X16000000Y-66000000D03*
X25000000Y-69000000D03*
X104000000Y-6000000D03*
X66000000Y-40000000D03*
X28000000Y-94000000D03*
X44000000Y-6000000D03*
X149500000Y-72000000D03*
X45800000Y-46850000D03*
X74000000Y-60000000D03*
X109750000Y-56950000D03*
X96925000Y-35125000D03*
X36200000Y-48500000D03*
X67000000Y-58500000D03*
X156500000Y-51500000D03*
X103750000Y-89875000D03*
X16000000Y-38000000D03*
X131200000Y-62000000D03*
X149500000Y-37000000D03*
X22000000Y-64000000D03*
X40475000Y-31500000D03*
X75750000Y-30500000D03*
X155000000Y-55000000D03*
X142000000Y-39275000D03*
X82000000Y-36000000D03*
X110750000Y-56950000D03*
X70625000Y-27800000D03*
X106850000Y-70050000D03*
X116800000Y-66000000D03*
X56000000Y-38000000D03*
X128000000Y-62000000D03*
X56000000Y-33000000D03*
X108000000Y-18000000D03*
X112000000Y-18000000D03*
X97650000Y-84650000D03*
X128000000Y-10000000D03*
X115300000Y-68100000D03*
X14000000Y-8000000D03*
X8000000Y-6000000D03*
X55000000Y-69000000D03*
D24*
X12000000Y-67150000D03*
D23*
X43000000Y-65000000D03*
X110750000Y-39700000D03*
X26000000Y-8000000D03*
X61000000Y-53500000D03*
X84450000Y-33350000D03*
X72000000Y-34000000D03*
X149500000Y-62000000D03*
X18000000Y-12000000D03*
X32550000Y-18650000D03*
D24*
X81225000Y-73550000D03*
D23*
X65000000Y-67000000D03*
X148000000Y-84000000D03*
X42900000Y-56200000D03*
X109300000Y-36000000D03*
D25*
X12700000Y-89700000D03*
D23*
X74250000Y-32100000D03*
X149500000Y-49000000D03*
X148000000Y-92000000D03*
X134625000Y-80175000D03*
D24*
X28725000Y-55750000D03*
D23*
X135000000Y-57000000D03*
X146000000Y-16000000D03*
X130000000Y-88000000D03*
X26000000Y-32000000D03*
X106000000Y-68600000D03*
X156000000Y-84000000D03*
X124750000Y-39575000D03*
X149500000Y-43000000D03*
X125750000Y-75600000D03*
X50100000Y-41500000D03*
X38000000Y-92000000D03*
X106000000Y-32000000D03*
X154000000Y-82000000D03*
X130000000Y-16000000D03*
X61450000Y-40350000D03*
X7000000Y-61000000D03*
X75000000Y-43000000D03*
X131325000Y-35275000D03*
X24000000Y-66000000D03*
X130000000Y-87000000D03*
X152000000Y-30000000D03*
X11000000Y-63000000D03*
X149500000Y-66000000D03*
X108000000Y-34000000D03*
X88775000Y-95925000D03*
X124500000Y-84000000D03*
X114000000Y-16000000D03*
D24*
X34800000Y-70175000D03*
D23*
X144750000Y-54150000D03*
X149500000Y-69000000D03*
X40000000Y-48500000D03*
X146000000Y-68000000D03*
X148000000Y-14000000D03*
X56000000Y-10750000D03*
X54000000Y-53500000D03*
X152000000Y-47000000D03*
X69800000Y-69225000D03*
X136000000Y-14000000D03*
X36750000Y-13900000D03*
X75000000Y-39000000D03*
X44000000Y-94000000D03*
X23000000Y-45000000D03*
X81000000Y-92500000D03*
X30000000Y-4000000D03*
X113500000Y-76600000D03*
X143675000Y-21000000D03*
X99325000Y-83675000D03*
D24*
X28950000Y-21600000D03*
D23*
X75500000Y-16500000D03*
X128700000Y-75600000D03*
X62000000Y-20000000D03*
X10000000Y-96000000D03*
X27500000Y-70250000D03*
X46000000Y-92000000D03*
X147500000Y-74000000D03*
X152000000Y-66500000D03*
X46000000Y-79000000D03*
D24*
X40825000Y-67700000D03*
D23*
X75000000Y-28775000D03*
X24500000Y-10750000D03*
X12000000Y-6000000D03*
X112700000Y-68100000D03*
X22175000Y-49725000D03*
X42000000Y-92000000D03*
X22000000Y-92000000D03*
X149500000Y-38000000D03*
X155500000Y-51500000D03*
X10000000Y-24000000D03*
X120000000Y-84000000D03*
X80975000Y-93825000D03*
X150000000Y-32000000D03*
X62025000Y-70850000D03*
X121150000Y-71687500D03*
X83500000Y-87250000D03*
X8000000Y-42000000D03*
X152500000Y-66000000D03*
X68950000Y-52700000D03*
X112700000Y-66400000D03*
X122000000Y-82000000D03*
X126000000Y-16000000D03*
X106750000Y-56950000D03*
X98000000Y-4000000D03*
D24*
X31825000Y-65500000D03*
D23*
X100000000Y-26000000D03*
X144000000Y-62000000D03*
X138000000Y-94000000D03*
X42025000Y-31500000D03*
X62000000Y-50000000D03*
D24*
X18900000Y-56050000D03*
D23*
X68075000Y-28825000D03*
X86200000Y-80000000D03*
X59000000Y-20000000D03*
X73000000Y-91000000D03*
X105525000Y-34850000D03*
X68250000Y-31250000D03*
X89550000Y-35750000D03*
X138225000Y-73025000D03*
X67350000Y-30750000D03*
X54125000Y-75525000D03*
X40000000Y-10750000D03*
X149500000Y-65000000D03*
D24*
X49150000Y-19850000D03*
D23*
X100000000Y-30000000D03*
X130000000Y-4000000D03*
X131000000Y-51000000D03*
X128700000Y-87725000D03*
X124000000Y-42000000D03*
X139375000Y-74000000D03*
X118000000Y-24000000D03*
X126000000Y-32000000D03*
X125500000Y-74000000D03*
X91000000Y-87250000D03*
X54000000Y-32000000D03*
X70000000Y-60000000D03*
D24*
X29825000Y-21600000D03*
D23*
X21750000Y-51750000D03*
X144000000Y-50000000D03*
X122000000Y-52000000D03*
X122000000Y-12000000D03*
X122000000Y-90000000D03*
X154000000Y-28000000D03*
X66000000Y-83750000D03*
X54000000Y-36000000D03*
X60925000Y-69425000D03*
X124500000Y-85000000D03*
X149500000Y-36000000D03*
D24*
X101900000Y-69900000D03*
D23*
X29500000Y-9750000D03*
X56000000Y-62000000D03*
X45000000Y-9750000D03*
X31600000Y-41550000D03*
X102000000Y-44000000D03*
X124500000Y-77000000D03*
X92000000Y-22000000D03*
X132000000Y-96000000D03*
X70050000Y-53800000D03*
X120000000Y-76000000D03*
X69125000Y-28775000D03*
D24*
X66125000Y-54575000D03*
D23*
X125750000Y-87725000D03*
X20000000Y-10000000D03*
X22500000Y-12750000D03*
X112000000Y-14000000D03*
X149500000Y-53000000D03*
X132550000Y-74475000D03*
X50000000Y-10750000D03*
X74500000Y-19500000D03*
D24*
X46175000Y-68825000D03*
D23*
X38100000Y-50400000D03*
X70500000Y-32100000D03*
X140500000Y-46600000D03*
X30000000Y-96000000D03*
X149500000Y-45000000D03*
X95250000Y-82000000D03*
X75075000Y-73500000D03*
X99150000Y-62500000D03*
X100750000Y-39575000D03*
X143675000Y-26000000D03*
X112750000Y-56950000D03*
X152500000Y-51500000D03*
X34750000Y-8250000D03*
X149500000Y-55000000D03*
X83300000Y-82300000D03*
X49000000Y-93000000D03*
X154000000Y-32000000D03*
X36200000Y-47550000D03*
X130000000Y-8000000D03*
X118000000Y-8000000D03*
X81525000Y-34850000D03*
X82825000Y-41825000D03*
X149500000Y-54000000D03*
X70050000Y-52700000D03*
X16000000Y-14000000D03*
X134000000Y-16000000D03*
X50100000Y-42250000D03*
X73500000Y-32100000D03*
X48000000Y-10750000D03*
X84250000Y-57000000D03*
X66250000Y-49375000D03*
X34000000Y-4000000D03*
X100000000Y-6000000D03*
X20000000Y-62000000D03*
X111200000Y-66000000D03*
X105250000Y-56975000D03*
D24*
X42396447Y-26258553D03*
D23*
X148000000Y-38000000D03*
X38100000Y-48500000D03*
X130750000Y-56900000D03*
X25500000Y-35500000D03*
X82500000Y-68025000D03*
D24*
X75050000Y-48950000D03*
D23*
X35200000Y-34100000D03*
D24*
X30125000Y-55700000D03*
D23*
X130250000Y-78500000D03*
X119600000Y-38850000D03*
X132000000Y-14000000D03*
X48325000Y-86900000D03*
X58000000Y-36000000D03*
X124750000Y-33425000D03*
X116000000Y-84000000D03*
X62000000Y-4000000D03*
X142000000Y-16000000D03*
X90000000Y-28000000D03*
X67000000Y-67000000D03*
X114000000Y-28000000D03*
X63000000Y-71000000D03*
X128000000Y-89000000D03*
X38000000Y-96000000D03*
X16000000Y-30000000D03*
X143675000Y-23500000D03*
X116000000Y-30000000D03*
D24*
X21025000Y-56825000D03*
D23*
X90000000Y-4000000D03*
X28000000Y-6000000D03*
D24*
X19950000Y-55500000D03*
D23*
X54000000Y-40000000D03*
X82000000Y-12000000D03*
X83000000Y-51000000D03*
D24*
X70100000Y-73450000D03*
D23*
X92000000Y-88250000D03*
X36750000Y-14750000D03*
X40000000Y-51350000D03*
X138000000Y-32000000D03*
D24*
X71850000Y-72750000D03*
D23*
X120000000Y-34000000D03*
X46000000Y-40000000D03*
X102000000Y-24000000D03*
D24*
X32850000Y-47350000D03*
D23*
X45000000Y-78000000D03*
D24*
X70250000Y-76750000D03*
D23*
X25500000Y-9750000D03*
X156000000Y-34000000D03*
X85300000Y-36000000D03*
X97250000Y-91975000D03*
X4000000Y-6000000D03*
X128000000Y-42000000D03*
X46000000Y-88000000D03*
X30000000Y-92000000D03*
X33950000Y-51800000D03*
D25*
X11800000Y-66000000D03*
D23*
X89075000Y-93250000D03*
X76000000Y-47000000D03*
X136700000Y-31450000D03*
X96550000Y-54100000D03*
X92000000Y-85500000D03*
X116350000Y-88375000D03*
X88000000Y-26000000D03*
X126000000Y-4000000D03*
X142000000Y-90000000D03*
X42000000Y-4000000D03*
X109775000Y-79887500D03*
X146000000Y-32000000D03*
X94000000Y-32000000D03*
X149500000Y-68000000D03*
X66000000Y-56000000D03*
X94500000Y-68025000D03*
X108000000Y-26000000D03*
X35750000Y-14750000D03*
X98000000Y-24000000D03*
X49000000Y-9750000D03*
X22000000Y-8000000D03*
X71000000Y-71000000D03*
X27000000Y-46000000D03*
D25*
X14450000Y-43100000D03*
D24*
X34913938Y-44283996D03*
D23*
X56250000Y-91200000D03*
X124500000Y-79000000D03*
X101975000Y-85000000D03*
X86000000Y-4000000D03*
X86250000Y-87250000D03*
X34000000Y-92000000D03*
X10000000Y-36000000D03*
X65000000Y-83750000D03*
X72000000Y-32100000D03*
X156000000Y-22000000D03*
X46000000Y-10750000D03*
X68675000Y-28000000D03*
X51875000Y-89925000D03*
X52000000Y-10750000D03*
X142000000Y-86000000D03*
X8000000Y-22000000D03*
X140000000Y-14000000D03*
X79000000Y-34000000D03*
X94000000Y-85500000D03*
X140000000Y-6000000D03*
D24*
%TO.N,/STM32H745/SMPS_FB*%
X71500000Y-78750000D03*
%TO.N,/STM32H745/VCAP*%
X96425000Y-73750000D03*
X95225000Y-83150000D03*
X85275000Y-75825000D03*
X96425000Y-76250000D03*
D25*
%TO.N,+3V3_ETH*%
X41900000Y-76500000D03*
X43100000Y-82500000D03*
D23*
%TO.N,/EPS Controller/BOOT0_H7*%
X85750000Y-67500000D03*
X73675000Y-67350000D03*
X42400000Y-51300000D03*
X68300000Y-61150000D03*
%TO.N,+3V3*%
X127150000Y-66450000D03*
X132650000Y-66450000D03*
X34125000Y-52625000D03*
X23850000Y-35550000D03*
X138150000Y-66450000D03*
X91000000Y-91975000D03*
D24*
X66000000Y-43800000D03*
D23*
X32375000Y-56525000D03*
X101975000Y-86000000D03*
D24*
X67300000Y-54400000D03*
X27750000Y-54125000D03*
D23*
X78025000Y-74500000D03*
D24*
X22725000Y-51750000D03*
X36900000Y-67625000D03*
D23*
X25250000Y-46550000D03*
D24*
X83000000Y-77250000D03*
D23*
X56250000Y-43100000D03*
X132300000Y-79400000D03*
X100350000Y-62125000D03*
X93500000Y-68025000D03*
X34125000Y-53300000D03*
X143650000Y-66450000D03*
X80150000Y-66850000D03*
X80475000Y-77500000D03*
D24*
X66800000Y-44600000D03*
X121000000Y-39300000D03*
D23*
X141100000Y-77810000D03*
X96000000Y-87675000D03*
D24*
X15400000Y-54250000D03*
X39600000Y-54850000D03*
D23*
X115425000Y-78725000D03*
D24*
X71125000Y-89300000D03*
X42025000Y-45525000D03*
D23*
X89500000Y-87675000D03*
D24*
X31825000Y-66500000D03*
D23*
X64650000Y-33000000D03*
X101950000Y-79075000D03*
D24*
X48950000Y-70875000D03*
D23*
X115425000Y-76650000D03*
D24*
X62000000Y-79600000D03*
D23*
X145675000Y-37300000D03*
X64100000Y-35650000D03*
X38600000Y-40100000D03*
X81500000Y-68025000D03*
D24*
X42025000Y-46200000D03*
X43475000Y-45825000D03*
D23*
X78025000Y-86500000D03*
X80475000Y-81000000D03*
X132275000Y-78050000D03*
D24*
X99000000Y-64700000D03*
X33675000Y-45050000D03*
D23*
X122000000Y-64350000D03*
D24*
X97000000Y-39300000D03*
X66000000Y-45400000D03*
X33300000Y-66500000D03*
D23*
X53300000Y-73650000D03*
X101950000Y-80000000D03*
D24*
X49118573Y-79792051D03*
D23*
X101675000Y-37300000D03*
D24*
X26850000Y-40700000D03*
X49675000Y-70875000D03*
D23*
X88500000Y-68025000D03*
D24*
X34400000Y-45750000D03*
X66000000Y-44600000D03*
D23*
X67225000Y-69025000D03*
D24*
X141000000Y-39300000D03*
X23437500Y-56262500D03*
X66800000Y-43800000D03*
X38000000Y-70125000D03*
D23*
X101975000Y-72250000D03*
D24*
X44950000Y-72975000D03*
D23*
X30325000Y-63200000D03*
X34073200Y-35600000D03*
D24*
X68750000Y-73600000D03*
X70825000Y-86350000D03*
D23*
X34075000Y-36950000D03*
D24*
X67300000Y-56050000D03*
D23*
X137450000Y-74750000D03*
X80475000Y-78750000D03*
D24*
X66000000Y-43000000D03*
D23*
X84000000Y-91975000D03*
D24*
X104200000Y-81150000D03*
D23*
X125675000Y-37300000D03*
D24*
X81050000Y-70707950D03*
X99200000Y-66150000D03*
X66800000Y-43000000D03*
D23*
X75525000Y-72250000D03*
X75075000Y-74500000D03*
X53300000Y-75000000D03*
X113500000Y-86825000D03*
D24*
X66800000Y-45400000D03*
D23*
X141100000Y-79190000D03*
X34800000Y-53300000D03*
X97675000Y-77000000D03*
X52525000Y-81075000D03*
X86500000Y-72600000D03*
D24*
X22775000Y-57500000D03*
D23*
X39550000Y-62150000D03*
X98250000Y-91975000D03*
%TO.N,+2V8*%
X132550000Y-75250000D03*
X133625000Y-80175000D03*
D24*
X127750000Y-52650000D03*
X78200000Y-52650000D03*
X73750000Y-57100000D03*
D23*
%TO.N,/EPS Controller/~{RESET}_L0*%
X20650000Y-33950000D03*
X58175000Y-66975000D03*
X52975000Y-66975000D03*
X38100000Y-59575000D03*
X92050000Y-64500000D03*
X37800000Y-54775000D03*
%TO.N,/GNSS Card/GPS_SIG_VCCA*%
X133050000Y-36050000D03*
%TO.N,/GNSS Card/GPS_GPIO_VCCA*%
X132550000Y-43975000D03*
%TO.N,/GNSS Card/GNSS_VDD*%
X138700000Y-37750000D03*
X132550000Y-41025000D03*
X140500000Y-25500000D03*
X133050000Y-33100000D03*
X127750000Y-49250000D03*
D24*
%TO.N,+1V8*%
X46600000Y-50000000D03*
X47300000Y-51350000D03*
X46950000Y-51900000D03*
X46600000Y-49300000D03*
X47300000Y-50700000D03*
D23*
X101675000Y-35700000D03*
D24*
X47300000Y-49300000D03*
X46600000Y-51350000D03*
D23*
X125700000Y-35700000D03*
X145675000Y-35700000D03*
D24*
X46600000Y-50700000D03*
X47300000Y-50000000D03*
D23*
%TO.N,/GNSS Card/GNSS_1V8*%
X137875000Y-38775000D03*
X137875000Y-47000000D03*
X137875000Y-43750000D03*
%TO.N,/LTE Card/LTE_SIG_VCCA*%
X113550000Y-36550000D03*
X107250000Y-37925000D03*
X103500000Y-36500000D03*
%TO.N,/LTE Card/LTE_GPIO_VCCA*%
X108550000Y-43975000D03*
X112500000Y-43975000D03*
%TO.N,/LTE Card/LTE_VDD*%
X108550000Y-41025000D03*
X103750000Y-49250000D03*
X118500000Y-26250000D03*
X118500000Y-39000000D03*
X107250000Y-34075000D03*
%TO.N,/LTE Card/LTE_1V8*%
X116500000Y-45500000D03*
D24*
%TO.N,/Auxiliary Card/AUX_SIG_VCCA*%
X89550000Y-36550000D03*
D23*
X83250000Y-37925000D03*
%TO.N,/Auxiliary Card/AUX_GPIO_VCCA*%
X84550000Y-44000000D03*
X85550000Y-53800000D03*
%TO.N,/Auxiliary Card/AUX_VDD*%
X84550000Y-41050000D03*
X83250000Y-34075000D03*
X94650000Y-38500000D03*
X79000000Y-49250000D03*
X94650000Y-34000000D03*
%TO.N,/Auxiliary Card/AUX_1V8*%
X92125000Y-44500000D03*
D24*
%TO.N,/EPS Controller/Battery Charger/PVIN*%
X32500000Y-21000000D03*
X19600000Y-24650000D03*
%TO.N,/EPS Controller/Battery Charger/BTST1*%
X33500000Y-18750000D03*
D26*
%TO.N,/EPS Controller/Battery Charger/SW1*%
X35000000Y-14250000D03*
D23*
X35850000Y-17650000D03*
D26*
X35000000Y-13500000D03*
D23*
X35350000Y-17900000D03*
X35850000Y-18225000D03*
D24*
%TO.N,/EPS Controller/Battery Charger/BTST2*%
X37000000Y-19000000D03*
D26*
%TO.N,/EPS Controller/Battery Charger/SW2*%
X37500000Y-14250000D03*
D23*
X36675000Y-18225000D03*
D26*
X37500000Y-13500000D03*
D23*
X36675000Y-17650000D03*
X37175000Y-17925000D03*
%TO.N,/EPS Controller/Battery Charger/VCHG*%
X24400000Y-17300000D03*
%TO.N,GND*%
X105150000Y-46450000D03*
X155500000Y-74000000D03*
X10000000Y-1700000D03*
X6000000Y-1700000D03*
X114200000Y-46450000D03*
X135250000Y-38500000D03*
X86750000Y-46450000D03*
X81150000Y-46450000D03*
X90200000Y-46450000D03*
X134750000Y-46450000D03*
D24*
X38400000Y-79000000D03*
D23*
X110750000Y-46450000D03*
X155500000Y-78000000D03*
X155500000Y-86500000D03*
D24*
X14250000Y-52000000D03*
%TO.N,/EPS Controller/Battery Charger/REGN*%
X35250000Y-19000000D03*
D23*
X32325000Y-23050000D03*
D24*
X40900000Y-22175000D03*
X39350000Y-24000000D03*
%TO.N,/EPS Controller/Battery Charger/BATP*%
X47350000Y-22250000D03*
X35783437Y-19596195D03*
D23*
%TO.N,VSYS*%
X68800000Y-24800000D03*
%TO.N,CHG-*%
X47100000Y-19500000D03*
D25*
%TO.N,/EPS Controller/Battery Manager/VC5*%
X38625000Y-32000000D03*
X60750000Y-30000000D03*
%TO.N,/EPS Controller/Battery Manager/VC1*%
X57250000Y-30000000D03*
X41000000Y-34000000D03*
%TO.N,/EPS Controller/Battery Manager/VC0*%
X53750000Y-30000000D03*
X42450000Y-34000000D03*
D23*
%TO.N,CHG+*%
X50400000Y-20000000D03*
%TO.N,/Ethernet/RXP*%
X39075000Y-84066587D03*
X36450000Y-81700000D03*
%TO.N,/Ethernet/RXN*%
X36450000Y-82650000D03*
X38125000Y-84066587D03*
%TO.N,/Ethernet/TXP*%
X38125000Y-73933413D03*
X36450000Y-75350000D03*
%TO.N,/Ethernet/TXN*%
X39075000Y-73933413D03*
X36450000Y-76300000D03*
%TO.N,/EPS Controller/Voltage Regulators/+3V3_REG_OUT*%
X74475000Y-22925000D03*
D24*
X73750000Y-37250000D03*
X69550000Y-19675000D03*
D23*
%TO.N,/USB Hub/UP_USB_DP*%
X20409835Y-51059835D03*
%TO.N,/USB Hub/UP_USB_DN*%
X20940165Y-51590165D03*
D24*
%TO.N,PACK+*%
X62050000Y-18300000D03*
X61350000Y-18300000D03*
D25*
X60750000Y-20000000D03*
D24*
X62050000Y-17000000D03*
X61350000Y-17000000D03*
X59950000Y-18300000D03*
X62750000Y-17000000D03*
X61700000Y-17650000D03*
X60650000Y-18300000D03*
X62400000Y-17650000D03*
X62750000Y-18300000D03*
X59250000Y-18300000D03*
X33600000Y-27200000D03*
X61000000Y-17650000D03*
%TO.N,Net-(D33-Pad2)*%
X20500000Y-20650000D03*
X24050000Y-19850000D03*
X34850000Y-23650000D03*
D23*
%TO.N,/Memory/SDMMC2.D1*%
X99000000Y-87750000D03*
X111025000Y-78750000D03*
%TO.N,/Memory/SDMMC2.D2*%
X88550000Y-70800000D03*
X118725000Y-76650000D03*
%TO.N,/Memory/SDMMC2.CMD*%
X103750000Y-90700000D03*
X116525000Y-78750000D03*
X81675000Y-89075000D03*
X114250000Y-82287500D03*
%TO.N,/Memory/SDMMC2.D0*%
X112125000Y-82275000D03*
X112125000Y-78750000D03*
%TO.N,/Memory/SDMMC2.D3*%
X88250000Y-71500000D03*
X117625000Y-76650000D03*
%TO.N,/Memory/SDMMC2.CLK*%
X115525000Y-74100000D03*
X114325000Y-76650000D03*
X93500000Y-70700000D03*
X113575000Y-72825000D03*
%TO.N,/I2C1.SDA*%
X68800000Y-77775000D03*
X87800000Y-65650000D03*
X52100000Y-64150000D03*
D24*
X26700000Y-50800000D03*
D23*
X58000000Y-70800000D03*
X92250000Y-63200000D03*
X103625000Y-62875000D03*
X28250000Y-64200000D03*
X85875000Y-79075000D03*
X85875000Y-70750000D03*
%TO.N,/I2C1.SCL*%
X122350000Y-66250000D03*
X88250000Y-66250000D03*
X87100000Y-70750000D03*
X68800000Y-76425000D03*
X124400000Y-68300000D03*
X86475000Y-78125000D03*
D24*
X25900000Y-50700000D03*
D23*
X118900000Y-64050000D03*
X53050000Y-65000000D03*
X28250000Y-65200000D03*
X104500000Y-63125000D03*
X92950000Y-63700000D03*
X58850000Y-70800000D03*
%TO.N,/STM32H745/H7_SWCLK*%
X111850000Y-86975000D03*
X103500000Y-71600000D03*
%TO.N,/STM32H745/H7_SWDIO*%
X112700000Y-87725000D03*
X103525000Y-76200000D03*
D24*
%TO.N,/EPS Controller/TS*%
X44725000Y-31125000D03*
X38250000Y-21250000D03*
%TO.N,PACK-*%
X52000000Y-36400000D03*
X51175000Y-37100000D03*
X50350000Y-37100000D03*
X51175000Y-36400000D03*
X50350000Y-36400000D03*
X48700000Y-37100000D03*
X49525000Y-37100000D03*
X48700000Y-36400000D03*
X52000000Y-37100000D03*
X54850000Y-7500000D03*
X49525000Y-36400000D03*
D25*
X53750000Y-20000000D03*
%TO.N,/EPS Controller/Battery Manager/1P*%
X57250000Y-20000000D03*
D23*
X57250000Y-8400000D03*
%TO.N,Net-(JP7-Pad1)*%
X64400000Y-36750000D03*
%TO.N,/EPS Controller/PG_2V8*%
X42000000Y-41025000D03*
X50124930Y-45769530D03*
X73225000Y-52375000D03*
X49150000Y-43075000D03*
X33700000Y-46775000D03*
X64350000Y-48475000D03*
D24*
%TO.N,VDD_LDO*%
X72700000Y-76250000D03*
X83300000Y-85225000D03*
X98300000Y-89250000D03*
X82350000Y-76425000D03*
X98300000Y-72750000D03*
X98300000Y-78675000D03*
%TO.N,/EPS Controller/Battery Charger/SDRV*%
X47900000Y-19075000D03*
X39000000Y-16500000D03*
%TO.N,/EPS Controller/Battery Manager/DSG_G*%
X48000000Y-28750000D03*
X50500000Y-25550000D03*
D23*
%TO.N,Net-(U3-~{CS})*%
X63100000Y-86600000D03*
%TO.N,/EPS Controller/PG_1V8*%
X58750000Y-40525000D03*
X45800000Y-50000000D03*
X47500000Y-43675000D03*
X46125000Y-45050000D03*
X61100000Y-37750000D03*
%TO.N,/EPS Controller/PG_3V3*%
X65550000Y-28950000D03*
X69550000Y-22650000D03*
X45800000Y-48300000D03*
%TO.N,/STM32H745/H7_LEDBUILTIN*%
X80525000Y-68600000D03*
X85013881Y-67800707D03*
D24*
%TO.N,/STM32H745/PDR_ON*%
X82525000Y-70707950D03*
D23*
%TO.N,/Ethernet/RMII.CRS_DV*%
X51850000Y-87350000D03*
X84950000Y-94050000D03*
X54100000Y-76350000D03*
X49017050Y-87350000D03*
%TO.N,/Ethernet/RMII.REF_CLK*%
X48100000Y-72975000D03*
X81750000Y-93800000D03*
%TO.N,/Ethernet/RMII.MDIO*%
X82332950Y-93200000D03*
X50100000Y-75300000D03*
D24*
%TO.N,/Ethernet/LED2*%
X19500000Y-88750000D03*
D23*
%TO.N,/GNSS Card/GNSS.PWR_EN*%
X92000000Y-92150000D03*
X143300000Y-33000000D03*
X143300000Y-40000000D03*
%TO.N,/LTE Card/LTE.PWR_EN*%
X123300000Y-40000000D03*
X123300000Y-33000000D03*
X118500000Y-57600000D03*
X115600000Y-60500000D03*
X83600000Y-74200000D03*
%TO.N,/Auxiliary Card/AUX.PWR_EN*%
X95000000Y-52000000D03*
X90150000Y-63475000D03*
X99300000Y-40000000D03*
X91850000Y-52000000D03*
X99300000Y-33000000D03*
%TO.N,Net-(U3-CLK)*%
X65650000Y-80800000D03*
D24*
%TO.N,/EPS Controller/Battery Charger/PROG*%
X38950000Y-18675000D03*
D23*
%TO.N,/Memory/QSPI1.CLK*%
X77200000Y-84625000D03*
%TO.N,/Memory/QSPI1.IO0*%
X77250000Y-82025000D03*
%TO.N,/Memory/QSPI1.IO1*%
X77000000Y-83275000D03*
%TO.N,/Memory/QSPI1.IO2*%
X77600000Y-81250000D03*
%TO.N,/Memory/QSPI1.IO3*%
X77625000Y-80375000D03*
%TO.N,/Ethernet/RMII.TX_EN*%
X44950000Y-74975000D03*
D24*
X61600000Y-70100000D03*
X53025000Y-70875000D03*
D23*
X90750000Y-70525000D03*
%TO.N,Net-(U3-IO0)*%
X74500000Y-82500000D03*
%TO.N,Net-(U3-IO1)*%
X74500000Y-83750000D03*
%TO.N,/Ethernet/RMII.TXD0*%
X87500000Y-95700000D03*
X85000000Y-95400000D03*
%TO.N,Net-(U3-IO2)*%
X70350000Y-84350000D03*
%TO.N,Net-(U3-IO3)*%
X64400000Y-80800000D03*
%TO.N,/GNSS Card/GNSS.PPS*%
X93950000Y-92900000D03*
X136000000Y-40750000D03*
%TO.N,/GNSS Card/UART4.RX*%
X133350000Y-30575000D03*
X97250000Y-72900000D03*
%TO.N,/Auxiliary Card/AUX.GPIO2*%
X105000000Y-78000000D03*
X108450000Y-73300000D03*
X87250000Y-40250000D03*
X108450000Y-70050000D03*
X103200000Y-82175000D03*
%TO.N,/LTE Card/LTE.NET_STS*%
X83550000Y-72749999D03*
X111250000Y-40250000D03*
%TO.N,/GNSS Card/UART4.TX*%
X98747411Y-71962638D03*
X136750000Y-30575000D03*
%TO.N,/Ethernet/RMII.TXD1*%
X89000000Y-95100000D03*
X85500000Y-94800000D03*
%TO.N,/Auxiliary Card/AUX.GPIO1*%
X102275000Y-82150000D03*
X107650000Y-73300000D03*
X107650000Y-70050000D03*
X88000000Y-40750000D03*
X104250000Y-77250000D03*
%TO.N,/RF Interface/LNA_CTRL2*%
X133450000Y-73600000D03*
X102250000Y-77075000D03*
X112100000Y-76500000D03*
%TO.N,/Auxiliary Card/AUX.GPIO3*%
X86250000Y-40250000D03*
X105750000Y-78500000D03*
X102550000Y-83650000D03*
X109250000Y-73300000D03*
X109250000Y-70050000D03*
%TO.N,/LTE Card/LTE.MOD_STS*%
X110250000Y-40250000D03*
X83150000Y-72100000D03*
%TO.N,/GNSS Card/GNSS.INT*%
X135250000Y-40250000D03*
X93200000Y-93100000D03*
%TO.N,/LTE Card/LTE.SLEEP*%
X84000000Y-73550000D03*
X112000000Y-40750000D03*
%TO.N,/Ethernet/RMII.MDC*%
X50750000Y-72750000D03*
X80800000Y-85250000D03*
%TO.N,/GNSS Card/GNSS.TX_RDY*%
X92600000Y-92650000D03*
X134250000Y-40250000D03*
%TO.N,Net-(JP5-Pad2)*%
X32725000Y-23725000D03*
D24*
%TO.N,/Ethernet/LED1*%
X19500000Y-89750000D03*
D23*
%TO.N,/EPS Controller/EN_1V8*%
X45825000Y-49250000D03*
X60600000Y-40250000D03*
%TO.N,/EPS Controller/~{QON}*%
X40175000Y-44350000D03*
X37925000Y-36175000D03*
%TO.N,/EPS Controller/BAL_ALERT*%
X41400000Y-28400000D03*
X43450000Y-48150000D03*
X43175000Y-39682900D03*
%TO.N,/EPS Controller/~{CE}*%
X39175000Y-37047200D03*
X39600000Y-43850000D03*
%TO.N,/GNSS Card/GNSS.~{RESET}*%
X94250000Y-89250000D03*
X133500000Y-40750000D03*
%TO.N,Net-(JP6-Pad1)*%
X63750000Y-28750000D03*
%TO.N,Net-(JP8-Pad1)*%
X64350000Y-52675000D03*
%TO.N,/RF Interface/LNA_CTRL1*%
X136550000Y-73600000D03*
X102525000Y-76200000D03*
X111100000Y-76200000D03*
%TO.N,/RF Interface/CTRL2_2V8*%
X135700000Y-78000000D03*
X135700000Y-83475000D03*
%TO.N,/EPS Controller/EN_2V8*%
X33650000Y-47550000D03*
X42000000Y-42025000D03*
X63000000Y-52650000D03*
X49650000Y-46350000D03*
X48350000Y-43050000D03*
%TO.N,/LTE Card/I2C3.SCL*%
X104500000Y-63950000D03*
X108825000Y-34000000D03*
X103600000Y-68225000D03*
X99500000Y-76325000D03*
%TO.N,/LTE Card/I2C3.SDA*%
X105700000Y-63950000D03*
X109800000Y-34000000D03*
X99500000Y-77675000D03*
X105371340Y-68233282D03*
%TO.N,/Auxiliary Card/I2C4.SCL*%
X92006587Y-65400000D03*
X84825000Y-34000000D03*
X106625000Y-68075000D03*
X91500000Y-70925000D03*
X88825000Y-89500000D03*
X92100000Y-37500000D03*
%TO.N,/Auxiliary Card/I2C4.SDA*%
X92950000Y-36500000D03*
X92175000Y-70500000D03*
X106925000Y-68825000D03*
X85800000Y-34000000D03*
X90175000Y-89500000D03*
X92700000Y-66050000D03*
%TO.N,/GNSS Card/I2C2.SCL*%
X95325000Y-89500000D03*
X133800000Y-32575000D03*
X132050000Y-62050000D03*
X133350000Y-62500000D03*
%TO.N,/GNSS Card/I2C2.SDA*%
X132700000Y-63050000D03*
X134800000Y-32575000D03*
X96250000Y-89500000D03*
%TO.N,/STM32H745/NEOPIXEL_DIN*%
X84000000Y-68000000D03*
X68825000Y-69350000D03*
%TO.N,/STM32H745/~{RESET}_HUB*%
X26325000Y-47300000D03*
X88275000Y-93250000D03*
%TO.N,/LTE Card/USART3.TX*%
X116000000Y-66000000D03*
X112600000Y-73300000D03*
X116000000Y-68700000D03*
X114175000Y-30575000D03*
%TO.N,/LTE Card/USART3.RX*%
X114600000Y-66000000D03*
X114600000Y-68700000D03*
X110600000Y-30575000D03*
X111800000Y-73300000D03*
%TO.N,/Auxiliary Card/USART6.RX*%
X95625000Y-77200000D03*
X94450000Y-71425000D03*
X99250000Y-78750000D03*
X86600000Y-30575000D03*
%TO.N,/Auxiliary Card/USART6.TX*%
X87849997Y-63500000D03*
X89425000Y-32425000D03*
%TO.N,/EPS Controller/EPS.SCL*%
X36000000Y-24800000D03*
X38350000Y-41650000D03*
X36600000Y-41650000D03*
X35875000Y-34750000D03*
X43250000Y-29200000D03*
X33400000Y-37325000D03*
%TO.N,/EPS Controller/EPS.SDA*%
X36750000Y-36950000D03*
X37100000Y-24775000D03*
X42350000Y-28600000D03*
%TO.N,/EPS Controller/BAT_CHG_~{INT}*%
X37925000Y-22000000D03*
X42081587Y-44581587D03*
X38150000Y-37600000D03*
X41550000Y-53850000D03*
D24*
X39725000Y-18375000D03*
D23*
%TO.N,/Memory/QSPI1.~{CS}*%
X99450000Y-82250000D03*
%TO.N,/CANBus Transceivers/H7_CAN_TX*%
X97200000Y-64650000D03*
%TO.N,/CANBus Transceivers/H7_CAN_RX*%
X100050000Y-65900000D03*
%TO.N,/LTE Card/USART3.CTS*%
X111100000Y-33450000D03*
X98925000Y-85425000D03*
X112000000Y-68700000D03*
X112000000Y-66000000D03*
%TO.N,/LTE Card/USART3.RTS*%
X110550000Y-34000000D03*
X113400000Y-66000000D03*
X110800000Y-73300000D03*
X113400000Y-68700000D03*
%TO.N,/Auxiliary Card/USART6.CTS*%
X87100000Y-33450000D03*
X88600000Y-63500000D03*
%TO.N,/Auxiliary Card/USART6.RTS*%
X93675000Y-72225000D03*
X99250000Y-80250000D03*
X86550000Y-34000000D03*
X94775000Y-77675000D03*
D24*
%TO.N,Net-(C57-Pad1)*%
X35750000Y-87750000D03*
X34750000Y-75825000D03*
X34750000Y-82175000D03*
X34750000Y-79000000D03*
D23*
%TO.N,/Auxiliary Card/AUX.~{RESET}*%
X89399997Y-63475000D03*
X90150000Y-50500000D03*
X85500000Y-40750000D03*
X86000000Y-50500000D03*
%TO.N,/STM32H745/HUB_SUSPEND*%
X24050000Y-49750000D03*
X87375000Y-94225000D03*
%TO.N,/STM32H745/H7_USB.DN*%
X89427247Y-75375500D03*
X33500000Y-69625000D03*
%TO.N,/STM32H745/H7_USB.DP*%
X33500000Y-68875000D03*
X89427247Y-74625500D03*
%TO.N,/LTE Card/LTE.~{RESET}*%
X77750000Y-71000000D03*
X109500000Y-40750000D03*
D24*
%TO.N,/Clocks/25MHz*%
X56250000Y-90400000D03*
X51900000Y-89100000D03*
D23*
%TO.N,/Clocks/32768Hz*%
X70250000Y-74500000D03*
X36350000Y-53575000D03*
%TO.N,/GNSS Card/ZED_RXD_3V3*%
X136050000Y-29575000D03*
X136050000Y-32075000D03*
%TO.N,/L4_CAN_TX*%
X33175000Y-51000000D03*
X33125000Y-64450000D03*
%TO.N,Net-(U24-STAT)*%
X32775000Y-24500000D03*
X33650000Y-16450000D03*
D24*
%TO.N,/STM32H745/~{RESET}_H7*%
X24000000Y-45000000D03*
D23*
X32400000Y-62300000D03*
X39250000Y-64400000D03*
D24*
X45850735Y-67049265D03*
D23*
X116475000Y-87300000D03*
X63475000Y-76168180D03*
X64675000Y-72300000D03*
X80650000Y-83000000D03*
X63475000Y-74400000D03*
X30225000Y-61100000D03*
%TO.N,/STM32H745/HUB_H7_INT*%
X27625000Y-55575000D03*
X88750000Y-92250000D03*
%TO.N,/Ethernet/~{RESET}_ETH*%
X45375000Y-75775000D03*
X82750000Y-89450000D03*
%TO.N,/EPS Controller/SPI1.SCK*%
X84500000Y-76800000D03*
X42100000Y-56100000D03*
%TO.N,/EPS Controller/SPI1.MOSI*%
X45900000Y-52650000D03*
X92100000Y-72100000D03*
%TO.N,/EPS Controller/EPS_EEPROM_~{WC}*%
X28800000Y-42000000D03*
X42000000Y-53000000D03*
%TO.N,/EPS Controller/SPI1.MISO*%
X43500000Y-51426000D03*
X85249999Y-76674999D03*
%TO.N,/EPS Controller/SPI1.~{SS}_H7*%
X83737500Y-76862500D03*
X42850000Y-52700000D03*
%TO.N,/EPS Controller/SPI1.REQ*%
X44150000Y-42850000D03*
X57750000Y-76800000D03*
X82525000Y-86725000D03*
X54375000Y-70975000D03*
%TO.N,/EPS Controller/SPI1.GRANT*%
X58450000Y-77400000D03*
X45050000Y-43550000D03*
X55475000Y-70975000D03*
X81750000Y-85925000D03*
D24*
%TO.N,Net-(R43-Pad1)*%
X23250000Y-78365000D03*
%TO.N,Net-(R46-Pad1)*%
X23250000Y-82175000D03*
D23*
%TO.N,/CANBus Transceivers/CAN+*%
X94570500Y-56820500D03*
X96494087Y-58753731D03*
%TO.N,/CANBus Transceivers/CAN-*%
X95720500Y-56820500D03*
X96494087Y-57603731D03*
%TO.N,Net-(D10-Pad2)*%
X150625000Y-21500000D03*
%TO.N,Net-(D39-Pad2)*%
X62900000Y-38900000D03*
X57150000Y-40400000D03*
%TO.N,Net-(D13-Pad2)*%
X150625000Y-23500000D03*
%TO.N,Net-(D17-Pad2)*%
X150625000Y-25500000D03*
D24*
%TO.N,Net-(D32-Pad2)*%
X20500000Y-19750000D03*
X16875000Y-20625000D03*
X34050000Y-23600000D03*
D23*
%TO.N,/EPS Controller/BOOT0_L4*%
X56650000Y-67650000D03*
X32900000Y-49775000D03*
X95150000Y-66550000D03*
X60550000Y-67350000D03*
X34625000Y-58925000D03*
%TO.N,/EPS Controller/L4_SWCLK*%
X33575000Y-45825000D03*
X24800000Y-37650000D03*
%TO.N,/EPS Controller/L4_SWDIO*%
X36250000Y-44800000D03*
X24730000Y-35750000D03*
%TO.N,/L4_CAN_RX*%
X33350000Y-67300000D03*
X33725000Y-50350000D03*
%TO.N,/L4_CAN_STB*%
X37675000Y-65025000D03*
X40375000Y-54675000D03*
%TO.N,/EPS Controller/L4_USB.DP*%
X31625000Y-42301000D03*
X31625000Y-52500000D03*
%TO.N,/EPS Controller/L4_USB.DN*%
X32375000Y-52500000D03*
X32375000Y-42301000D03*
%TO.N,/EPS Controller/SPI1.~{SS}_L4*%
X39000000Y-44450000D03*
X92925000Y-72100000D03*
%TO.N,VSS*%
X46000000Y-8000000D03*
X42000000Y-8000000D03*
X72500000Y-12500000D03*
X74500000Y-12500000D03*
X76500000Y-12500000D03*
X7000000Y-19000000D03*
X82000000Y-8000000D03*
X87100000Y-32550000D03*
X116000000Y-6000000D03*
X120000000Y-6000000D03*
X128000000Y-18000000D03*
X84000000Y-54000000D03*
X143000000Y-74000000D03*
X30000000Y-40000000D03*
X56000000Y-24000000D03*
X57000000Y-23000000D03*
X14000000Y-60000000D03*
X50000000Y-62000000D03*
X48000000Y-60000000D03*
X78000000Y-45000000D03*
X79000000Y-6000000D03*
X79000000Y-8000000D03*
X79000000Y-10000000D03*
X79000000Y-12000000D03*
X79000000Y-14000000D03*
X79000000Y-16000000D03*
X79000000Y-18000000D03*
X79000000Y-20000000D03*
X79000000Y-22000000D03*
X79000000Y-24000000D03*
X79000000Y-26000000D03*
X79000000Y-28000000D03*
X59500000Y-53500000D03*
X68500000Y-22500000D03*
X68500000Y-20500000D03*
X68500000Y-18500000D03*
%TD*%
D27*
%TO.N,/I2C1.SCL*%
X121100000Y-66250000D02*
X118900000Y-64050000D01*
X122350000Y-66250000D02*
X121100000Y-66250000D01*
%TO.N,/GNSS Card/GNSS.TX_RDY*%
X134250000Y-40250000D02*
X135000000Y-39500000D01*
X135000000Y-39500000D02*
X137400000Y-39500000D01*
X137400000Y-39500000D02*
X146700000Y-48800000D01*
X144000000Y-70862500D02*
X144000000Y-81200000D01*
X146700000Y-48800000D02*
X146700000Y-68162500D01*
X146700000Y-68162500D02*
X144000000Y-70862500D01*
X144000000Y-81200000D02*
X129001000Y-96199000D01*
X92600000Y-93600000D02*
X92600000Y-92650000D01*
X129001000Y-96199000D02*
X95199000Y-96199000D01*
X95199000Y-96199000D02*
X92600000Y-93600000D01*
%TO.N,/GNSS Card/GNSS.PWR_EN*%
X143300000Y-40000000D02*
X147600000Y-44300000D01*
X92000000Y-94000000D02*
X92000000Y-92150000D01*
X147600000Y-44300000D02*
X147600000Y-68725000D01*
X147600000Y-68725000D02*
X144500000Y-71825000D01*
X94600000Y-96600000D02*
X92000000Y-94000000D01*
X144500000Y-71825000D02*
X144500000Y-81900000D01*
X144500000Y-81900000D02*
X129800000Y-96600000D01*
X129800000Y-96600000D02*
X94600000Y-96600000D01*
D28*
%TO.N,/STM32H745/VCAP*%
X96425000Y-76250000D02*
X96425000Y-73750000D01*
D27*
%TO.N,/EPS Controller/BOOT0_H7*%
X73675000Y-66525000D02*
X68300000Y-61150000D01*
X73675000Y-67350000D02*
X73675000Y-66525000D01*
%TO.N,/EPS Controller/~{RESET}_L0*%
X20647550Y-33952450D02*
X20650000Y-33950000D01*
X37800000Y-54775000D02*
X37800000Y-53764588D01*
X37400000Y-55175000D02*
X37400000Y-58875000D01*
X37400000Y-58875000D02*
X38100000Y-59575000D01*
X34347943Y-49200000D02*
X32200000Y-49200000D01*
X37800000Y-53764588D02*
X35200000Y-51164588D01*
X35200000Y-50052057D02*
X34347943Y-49200000D01*
X35200000Y-51164588D02*
X35200000Y-50052057D01*
X20647550Y-37647550D02*
X20647550Y-33952450D01*
X32200000Y-49200000D02*
X20647550Y-37647550D01*
X37800000Y-54775000D02*
X37400000Y-55175000D01*
D29*
%TO.N,/GNSS Card/GPS_GPIO_VCCA*%
X136000000Y-50902454D02*
X132550000Y-47452454D01*
X136500000Y-59000000D02*
X136000000Y-58500000D01*
X132550000Y-47452454D02*
X132550000Y-43975000D01*
X136000000Y-58500000D02*
X136000000Y-50902454D01*
D27*
%TO.N,/LTE Card/LTE_SIG_VCCA*%
X112175000Y-37925000D02*
X107250000Y-37925000D01*
X113550000Y-36550000D02*
X112175000Y-37925000D01*
%TO.N,/LTE Card/LTE_GPIO_VCCA*%
X111950000Y-58450000D02*
X112500000Y-59000000D01*
X111950000Y-44525000D02*
X111950000Y-58450000D01*
X112500000Y-43975000D02*
X111950000Y-44525000D01*
%TO.N,/Auxiliary Card/AUX_SIG_VCCA*%
X88175000Y-37925000D02*
X83250000Y-37925000D01*
X89550000Y-36550000D02*
X88175000Y-37925000D01*
D29*
X82100000Y-57150000D02*
X80250000Y-59000000D01*
X83250000Y-37925000D02*
X82100000Y-39075000D01*
X82100000Y-39075000D02*
X82100000Y-57150000D01*
%TO.N,/Auxiliary Card/AUX_GPIO_VCCA*%
X84550000Y-52800000D02*
X85550000Y-53800000D01*
X84550000Y-44000000D02*
X84550000Y-52800000D01*
D28*
%TO.N,GND*%
X12200000Y-58750000D02*
X14250000Y-56700000D01*
X3450000Y-58750000D02*
X12200000Y-58750000D01*
X14250000Y-56700000D02*
X14250000Y-52000000D01*
D27*
%TO.N,/EPS Controller/Battery Charger/REGN*%
X32325000Y-22204690D02*
X35250000Y-19279690D01*
X32325000Y-23050000D02*
X32325000Y-22204690D01*
X35250000Y-19279690D02*
X35250000Y-19000000D01*
%TO.N,/I2C1.SDA*%
X52100000Y-64150000D02*
X52100000Y-64900000D01*
X89450000Y-65650000D02*
X87800000Y-65650000D01*
X69150000Y-78125000D02*
X68800000Y-77775000D01*
X91900000Y-63200000D02*
X89450000Y-65650000D01*
X78525000Y-80375000D02*
X76275000Y-78125000D01*
X12050000Y-30500000D02*
X11300000Y-29750000D01*
X9787056Y-29747000D02*
X9784056Y-29750000D01*
X57100000Y-69900000D02*
X58000000Y-70800000D01*
X10762944Y-29747000D02*
X9787056Y-29747000D01*
X11300000Y-29750000D02*
X10765944Y-29750000D01*
X92250000Y-63200000D02*
X91900000Y-63200000D01*
X76275000Y-78125000D02*
X69150000Y-78125000D01*
X26700000Y-50800000D02*
X26700000Y-50650057D01*
X10765944Y-29750000D02*
X10762944Y-29747000D01*
X52100000Y-64900000D02*
X57100000Y-69900000D01*
X84575000Y-80375000D02*
X78525000Y-80375000D01*
X26700000Y-50650057D02*
X12050000Y-36000057D01*
X85875000Y-79075000D02*
X84575000Y-80375000D01*
X9784056Y-29750000D02*
X8875000Y-29750000D01*
X8875000Y-29750000D02*
X8325000Y-30300000D01*
X12050000Y-36000057D02*
X12050000Y-30500000D01*
%TO.N,/I2C1.SCL*%
X89435412Y-66250000D02*
X88250000Y-66250000D01*
X58850000Y-70800000D02*
X53050000Y-65000000D01*
X92850000Y-63800000D02*
X91885412Y-63800000D01*
X92950000Y-63700000D02*
X92850000Y-63800000D01*
X91885412Y-63800000D02*
X89435412Y-66250000D01*
X76700000Y-77700000D02*
X70075000Y-77700000D01*
X70075000Y-77700000D02*
X68800000Y-76425000D01*
X86475000Y-78125000D02*
X77125000Y-78125000D01*
X25900000Y-50700000D02*
X10275000Y-35075000D01*
X10275000Y-35075000D02*
X10275000Y-33075000D01*
X77125000Y-78125000D02*
X76700000Y-77700000D01*
%TO.N,/STM32H745/H7_SWCLK*%
X103500000Y-71600000D02*
X103500000Y-72625000D01*
X110350000Y-79475000D02*
X110350000Y-85475000D01*
X110350000Y-85475000D02*
X111850000Y-86975000D01*
X103500000Y-72625000D02*
X110350000Y-79475000D01*
%TO.N,/STM32H745/H7_SWDIO*%
X104500000Y-76200000D02*
X103525000Y-76200000D01*
X109125000Y-85064588D02*
X109125000Y-80825000D01*
X111785412Y-87725000D02*
X109125000Y-85064588D01*
X112700000Y-87725000D02*
X111785412Y-87725000D01*
X109125000Y-80825000D02*
X104500000Y-76200000D01*
%TO.N,/EPS Controller/TS*%
X44725000Y-26602963D02*
X44725000Y-31125000D01*
X38250000Y-21250000D02*
X39776000Y-22776000D01*
X39776000Y-22776000D02*
X40898037Y-22776000D01*
X40898037Y-22776000D02*
X44725000Y-26602963D01*
D30*
%TO.N,PACK-*%
X57226000Y-9876000D02*
X54850000Y-7500000D01*
X53750000Y-20000000D02*
X57226000Y-16524000D01*
X57226000Y-16524000D02*
X57226000Y-9876000D01*
D27*
%TO.N,/EPS Controller/Battery Manager/1P*%
X58000000Y-19250000D02*
X58000000Y-9150000D01*
X57250000Y-20000000D02*
X58000000Y-19250000D01*
X58000000Y-9150000D02*
X57250000Y-8400000D01*
%TO.N,/EPS Controller/PG_2V8*%
X42424000Y-41449000D02*
X47563588Y-41449000D01*
X47563588Y-41449000D02*
X49150000Y-43035412D01*
X49150000Y-43035412D02*
X49150000Y-43075000D01*
X42000000Y-41025000D02*
X42424000Y-41449000D01*
D28*
%TO.N,VDD_LDO*%
X98300000Y-72750000D02*
X98300000Y-78675000D01*
X72876000Y-76074000D02*
X81999000Y-76074000D01*
X81999000Y-76074000D02*
X82350000Y-76425000D01*
X72700000Y-76250000D02*
X72876000Y-76074000D01*
D27*
%TO.N,/EPS Controller/PG_1V8*%
X46125000Y-45050000D02*
X45025000Y-46150000D01*
X45477000Y-50000000D02*
X45800000Y-50000000D01*
X58750000Y-40100000D02*
X58750000Y-40525000D01*
X47500000Y-43675000D02*
X54860412Y-43675000D01*
X45025000Y-46150000D02*
X45025000Y-49548000D01*
X61100000Y-37750000D02*
X58750000Y-40100000D01*
X45025000Y-49548000D02*
X45477000Y-50000000D01*
X54860412Y-43675000D02*
X58010412Y-40525000D01*
X58010412Y-40525000D02*
X58750000Y-40525000D01*
%TO.N,/EPS Controller/PG_3V3*%
X69550000Y-24950000D02*
X69550000Y-22650000D01*
X65550000Y-28950000D02*
X69550000Y-24950000D01*
%TO.N,/LTE Card/LTE.PWR_EN*%
X92900000Y-76400000D02*
X86800000Y-76400000D01*
X118500000Y-51500000D02*
X123300000Y-46700000D01*
X109750000Y-66350000D02*
X102950000Y-66350000D01*
X115600000Y-60500000D02*
X109750000Y-66350000D01*
X123300000Y-46700000D02*
X123300000Y-40000000D01*
X86800000Y-76400000D02*
X84600000Y-74200000D01*
X102950000Y-66350000D02*
X92900000Y-76400000D01*
X84600000Y-74200000D02*
X83600000Y-74200000D01*
X118500000Y-57600000D02*
X118500000Y-51500000D01*
%TO.N,/Auxiliary Card/AUX.PWR_EN*%
X95000000Y-52000000D02*
X95000000Y-44300000D01*
X95000000Y-44300000D02*
X99300000Y-40000000D01*
X93050000Y-58650000D02*
X93050000Y-60575000D01*
X91850000Y-57450000D02*
X93050000Y-58650000D01*
X91850000Y-52000000D02*
X91850000Y-57450000D01*
X93050000Y-60575000D02*
X90150000Y-63475000D01*
%TO.N,/GNSS Card/GNSS.PPS*%
X96250000Y-95200000D02*
X93950000Y-92900000D01*
X141700000Y-51250000D02*
X141700000Y-81500000D01*
X137050000Y-40750000D02*
X139200000Y-42900000D01*
X141700000Y-81500000D02*
X128000000Y-95200000D01*
X139200000Y-42900000D02*
X139200000Y-48750000D01*
X139200000Y-48750000D02*
X141700000Y-51250000D01*
X136000000Y-40750000D02*
X137050000Y-40750000D01*
X128000000Y-95200000D02*
X96250000Y-95200000D01*
%TO.N,/GNSS Card/UART4.RX*%
X132650000Y-30575000D02*
X127000000Y-36225000D01*
X102895460Y-67000000D02*
X97250000Y-72645460D01*
X127000000Y-63325000D02*
X123325000Y-67000000D01*
X133350000Y-30575000D02*
X132650000Y-30575000D01*
X97250000Y-72645460D02*
X97250000Y-72900000D01*
X123325000Y-67000000D02*
X102895460Y-67000000D01*
X127000000Y-36225000D02*
X127000000Y-63325000D01*
%TO.N,/Auxiliary Card/AUX.GPIO2*%
X103200000Y-78975000D02*
X103200000Y-82175000D01*
X105000000Y-78000000D02*
X104175000Y-78000000D01*
X108450000Y-70050000D02*
X108450000Y-73300000D01*
X104175000Y-78000000D02*
X103200000Y-78975000D01*
%TO.N,/LTE Card/LTE.NET_STS*%
X102550000Y-65450000D02*
X108517100Y-65450000D01*
X108517100Y-65450000D02*
X111250000Y-62717100D01*
X111250000Y-62717100D02*
X111250000Y-57575000D01*
X84549999Y-72749999D02*
X85725000Y-73925000D01*
X111250000Y-57575000D02*
X111400000Y-57425000D01*
X83550000Y-72749999D02*
X84549999Y-72749999D01*
X94075000Y-73925000D02*
X102550000Y-65450000D01*
X111400000Y-57425000D02*
X111400000Y-40400000D01*
X111400000Y-40400000D02*
X111250000Y-40250000D01*
X85725000Y-73925000D02*
X94075000Y-73925000D01*
%TO.N,/GNSS Card/UART4.TX*%
X128800000Y-52900000D02*
X129500000Y-53600000D01*
X129500000Y-53600000D02*
X129500000Y-61800000D01*
X135750000Y-31575000D02*
X132650000Y-31575000D01*
X128800000Y-35425000D02*
X128800000Y-52900000D01*
X129500000Y-61800000D02*
X123800000Y-67500000D01*
X123800000Y-67500000D02*
X103200000Y-67500000D01*
X136750000Y-30575000D02*
X135750000Y-31575000D01*
X98747411Y-71952589D02*
X98747411Y-71962638D01*
X132650000Y-31575000D02*
X128800000Y-35425000D01*
X103200000Y-67500000D02*
X98747411Y-71952589D01*
%TO.N,/Auxiliary Card/AUX.GPIO1*%
X104250000Y-77250000D02*
X102650000Y-78850000D01*
X102650000Y-81775000D02*
X102275000Y-82150000D01*
X107650000Y-70050000D02*
X107650000Y-73300000D01*
X102650000Y-78850000D02*
X102650000Y-81775000D01*
%TO.N,/RF Interface/LNA_CTRL2*%
X112100000Y-76500000D02*
X115300000Y-73300000D01*
X133150000Y-73300000D02*
X133450000Y-73600000D01*
X115300000Y-73300000D02*
X133150000Y-73300000D01*
%TO.N,/Auxiliary Card/AUX.GPIO3*%
X104900000Y-81300000D02*
X102550000Y-83650000D01*
X104900000Y-79350000D02*
X104900000Y-81300000D01*
X105750000Y-78500000D02*
X104900000Y-79350000D01*
X109250000Y-70050000D02*
X109250000Y-73300000D01*
%TO.N,/LTE Card/LTE.MOD_STS*%
X102400000Y-65000000D02*
X106250000Y-65000000D01*
X86000000Y-73500000D02*
X93900000Y-73500000D01*
X108650000Y-44900000D02*
X110250000Y-43300000D01*
X83150000Y-72100000D02*
X84600000Y-72100000D01*
X110250000Y-43300000D02*
X110250000Y-40250000D01*
X93900000Y-73500000D02*
X102400000Y-65000000D01*
X84600000Y-72100000D02*
X86000000Y-73500000D01*
X83150000Y-72100000D02*
X83226000Y-72024000D01*
X106250000Y-65000000D02*
X108650000Y-62600000D01*
X108650000Y-62600000D02*
X108650000Y-44900000D01*
%TO.N,/GNSS Card/GNSS.INT*%
X95800000Y-95700000D02*
X93200000Y-93100000D01*
X139800000Y-42700000D02*
X139800000Y-48500000D01*
X142200000Y-50900000D02*
X142200000Y-81900000D01*
X139800000Y-48500000D02*
X142200000Y-50900000D01*
X142200000Y-81900000D02*
X128400000Y-95700000D01*
X128400000Y-95700000D02*
X95800000Y-95700000D01*
X137100000Y-40000000D02*
X139800000Y-42700000D01*
X135500000Y-40000000D02*
X137100000Y-40000000D01*
X135250000Y-40250000D02*
X135500000Y-40000000D01*
%TO.N,/LTE Card/LTE.SLEEP*%
X108700000Y-65900000D02*
X113750000Y-60850000D01*
X87025000Y-75950000D02*
X92700000Y-75950000D01*
X102750000Y-65900000D02*
X108700000Y-65900000D01*
X84000000Y-73550000D02*
X84625000Y-73550000D01*
X113750000Y-47050000D02*
X113525000Y-46825000D01*
X92700000Y-75950000D02*
X102750000Y-65900000D01*
X113750000Y-60850000D02*
X113750000Y-47050000D01*
X113525000Y-46825000D02*
X113525000Y-42275000D01*
X113525000Y-42275000D02*
X112000000Y-40750000D01*
X84625000Y-73550000D02*
X87025000Y-75950000D01*
%TO.N,/EPS Controller/~{QON}*%
X40325000Y-44200000D02*
X40175000Y-44350000D01*
X37925000Y-36175000D02*
X39100000Y-36175000D01*
X39100000Y-36175000D02*
X40325000Y-37400000D01*
X40325000Y-37400000D02*
X40325000Y-44200000D01*
%TO.N,/EPS Controller/BAL_ALERT*%
X43175000Y-39682900D02*
X39899000Y-36406900D01*
X39899000Y-29901000D02*
X41400000Y-28400000D01*
X39899000Y-36406900D02*
X39899000Y-29901000D01*
%TO.N,/EPS Controller/~{CE}*%
X39175000Y-37047200D02*
X39175000Y-43425000D01*
X39175000Y-43425000D02*
X39600000Y-43850000D01*
%TO.N,/GNSS Card/GNSS.~{RESET}*%
X140450000Y-81850000D02*
X127600000Y-94700000D01*
X133500000Y-40750000D02*
X133500000Y-47800000D01*
X96700000Y-94700000D02*
X94250000Y-92250000D01*
X133500000Y-47800000D02*
X140450000Y-54750000D01*
X94250000Y-92250000D02*
X94250000Y-89250000D01*
X127600000Y-94700000D02*
X96700000Y-94700000D01*
X140450000Y-54750000D02*
X140450000Y-81850000D01*
%TO.N,/RF Interface/LNA_CTRL1*%
X136550000Y-73600000D02*
X135600000Y-72650000D01*
X114650000Y-72650000D02*
X111100000Y-76200000D01*
X135600000Y-72650000D02*
X114650000Y-72650000D01*
%TO.N,/EPS Controller/EN_2V8*%
X47173000Y-41873000D02*
X48350000Y-43050000D01*
X42000000Y-42025000D02*
X42152000Y-41873000D01*
X42152000Y-41873000D02*
X47173000Y-41873000D01*
%TO.N,/LTE Card/I2C3.SCL*%
X102800000Y-38900000D02*
X105500000Y-36200000D01*
X103600000Y-69125000D02*
X102175000Y-70550000D01*
X106625000Y-36200000D02*
X108825000Y-34000000D01*
X105500000Y-36200000D02*
X106625000Y-36200000D01*
X101100000Y-70550000D02*
X99500000Y-72150000D01*
X104500000Y-63950000D02*
X103450000Y-63950000D01*
X102800000Y-48400000D02*
X102800000Y-38900000D01*
X102175000Y-70550000D02*
X101100000Y-70550000D01*
X103600000Y-68225000D02*
X103600000Y-69125000D01*
X99500000Y-72150000D02*
X99500000Y-76325000D01*
X103450000Y-63950000D02*
X103000000Y-63500000D01*
X103000000Y-48600000D02*
X102800000Y-48400000D01*
X103000000Y-63500000D02*
X103000000Y-48600000D01*
%TO.N,/LTE Card/I2C3.SDA*%
X104600000Y-69000000D02*
X104350000Y-69000000D01*
X105371340Y-68233282D02*
X105366718Y-68233282D01*
X104500000Y-57425000D02*
X104500000Y-48400000D01*
X100450000Y-72900000D02*
X100450000Y-76650000D01*
X100450000Y-76650000D02*
X99500000Y-77600000D01*
X104350000Y-69000000D02*
X100450000Y-72900000D01*
X103900000Y-47800000D02*
X103900000Y-39900000D01*
X103900000Y-39900000D02*
X109800000Y-34000000D01*
X105366718Y-68233282D02*
X104600000Y-69000000D01*
X105700000Y-63950000D02*
X105525000Y-63775000D01*
X99500000Y-77600000D02*
X99500000Y-77675000D01*
X104500000Y-48400000D02*
X103900000Y-47800000D01*
X105525000Y-63775000D02*
X105525000Y-58450000D01*
X105525000Y-58450000D02*
X104500000Y-57425000D01*
%TO.N,/Auxiliary Card/I2C4.SCL*%
X94100000Y-63400000D02*
X94100000Y-58400000D01*
X94100000Y-58400000D02*
X92800000Y-57100000D01*
X92100000Y-65400000D02*
X94100000Y-63400000D01*
X93150000Y-38550000D02*
X92100000Y-37500000D01*
X92006587Y-65400000D02*
X92100000Y-65400000D01*
X93150000Y-53100000D02*
X93150000Y-38550000D01*
X92800000Y-53450000D02*
X93150000Y-53100000D01*
X92800000Y-57100000D02*
X92800000Y-53450000D01*
%TO.N,/Auxiliary Card/I2C4.SDA*%
X92950000Y-36500000D02*
X93150000Y-36700000D01*
X93150000Y-36700000D02*
X93150000Y-37982900D01*
X93201000Y-56901000D02*
X94550000Y-58250000D01*
X93201000Y-53616100D02*
X93201000Y-56901000D01*
X93551000Y-38383900D02*
X93551000Y-53266100D01*
X93150000Y-37982900D02*
X93551000Y-38383900D01*
X93551000Y-53266100D02*
X93201000Y-53616100D01*
X94550000Y-64200000D02*
X92700000Y-66050000D01*
X94550000Y-58250000D02*
X94550000Y-64200000D01*
%TO.N,/GNSS Card/I2C2.SCL*%
X129500000Y-52650000D02*
X129500000Y-38107900D01*
X139950000Y-81350000D02*
X127100000Y-94200000D01*
X132050000Y-62050000D02*
X132050000Y-55200000D01*
X139950000Y-69100000D02*
X139950000Y-81350000D01*
X95325000Y-91485412D02*
X95325000Y-89500000D01*
X133800000Y-33807900D02*
X133800000Y-32575000D01*
X132050000Y-55200000D02*
X129500000Y-52650000D01*
X127100000Y-94200000D02*
X98039588Y-94200000D01*
X129500000Y-38107900D02*
X133800000Y-33807900D01*
X133350000Y-62500000D02*
X139950000Y-69100000D01*
X98039588Y-94200000D02*
X95325000Y-91485412D01*
%TO.N,/GNSS Card/I2C2.SDA*%
X126600000Y-93700000D02*
X138800000Y-81500000D01*
X96250000Y-89500000D02*
X96250000Y-91800000D01*
X138800000Y-69150000D02*
X132700000Y-63050000D01*
X134800000Y-33475000D02*
X134800000Y-32575000D01*
X132700000Y-54925000D02*
X130050000Y-52275000D01*
X132700000Y-63050000D02*
X132700000Y-54925000D01*
X96250000Y-91800000D02*
X98150000Y-93700000D01*
X98150000Y-93700000D02*
X126600000Y-93700000D01*
X130050000Y-52275000D02*
X130050000Y-38225000D01*
X130050000Y-38225000D02*
X134800000Y-33475000D01*
X138800000Y-81500000D02*
X138800000Y-69150000D01*
%TO.N,/STM32H745/~{RESET}_HUB*%
X68775000Y-95700000D02*
X41975000Y-68900000D01*
X28925000Y-58250000D02*
X26675000Y-56000000D01*
X35050000Y-68300000D02*
X30525000Y-68300000D01*
X82200000Y-95700000D02*
X68775000Y-95700000D01*
X88275000Y-93250000D02*
X84650000Y-93250000D01*
X35650000Y-68900000D02*
X35050000Y-68300000D01*
X27421000Y-53604057D02*
X27421000Y-48396000D01*
X41975000Y-68900000D02*
X35650000Y-68900000D01*
X26675000Y-54350057D02*
X27421000Y-53604057D01*
X84650000Y-93250000D02*
X82200000Y-95700000D01*
X28925000Y-66700000D02*
X28925000Y-58250000D01*
X30525000Y-68300000D02*
X28925000Y-66700000D01*
X27421000Y-48396000D02*
X26325000Y-47300000D01*
X26675000Y-56000000D02*
X26675000Y-54350057D01*
%TO.N,/LTE Card/USART3.TX*%
X117500000Y-33900000D02*
X114175000Y-30575000D01*
X116000000Y-66000000D02*
X117500000Y-64500000D01*
X112600000Y-72100000D02*
X116000000Y-68700000D01*
X117500000Y-64500000D02*
X117500000Y-33900000D01*
X112600000Y-73300000D02*
X112600000Y-72100000D01*
%TO.N,/LTE Card/USART3.RX*%
X114600000Y-68700000D02*
X111800000Y-71500000D01*
X117100000Y-63500000D02*
X117100000Y-34900000D01*
X111800000Y-71500000D02*
X111800000Y-73300000D01*
X114600000Y-66000000D02*
X117100000Y-63500000D01*
X117100000Y-34900000D02*
X112775000Y-30575000D01*
X112775000Y-30575000D02*
X110600000Y-30575000D01*
%TO.N,/Auxiliary Card/USART6.RX*%
X94000000Y-53500000D02*
X93650000Y-53850000D01*
X93650000Y-53850000D02*
X93650000Y-56750000D01*
X94950000Y-58050000D02*
X94950000Y-65225000D01*
X94450000Y-70375000D02*
X94450000Y-71425000D01*
X92850000Y-67325000D02*
X92850000Y-68775000D01*
X88525000Y-30575000D02*
X94000000Y-36050000D01*
X92850000Y-68775000D02*
X94450000Y-70375000D01*
X94000000Y-36050000D02*
X94000000Y-53500000D01*
X94950000Y-65225000D02*
X92850000Y-67325000D01*
X93650000Y-56750000D02*
X94950000Y-58050000D01*
X86600000Y-30575000D02*
X88525000Y-30575000D01*
%TO.N,/Auxiliary Card/USART6.TX*%
X91500000Y-37750000D02*
X92750000Y-39000000D01*
X92350000Y-53300000D02*
X92350000Y-57350000D01*
X93526363Y-58526363D02*
X93526363Y-60923637D01*
X90250000Y-64200000D02*
X88200000Y-64200000D01*
X92750000Y-52900000D02*
X92350000Y-53300000D01*
X88200000Y-64200000D02*
X87849997Y-63849997D01*
X91500000Y-34500000D02*
X91500000Y-37750000D01*
X92750000Y-39000000D02*
X92750000Y-52900000D01*
X92350000Y-57350000D02*
X93526363Y-58526363D01*
X89425000Y-32425000D02*
X91500000Y-34500000D01*
X93526363Y-60923637D02*
X90250000Y-64200000D01*
X87849997Y-63849997D02*
X87849997Y-63500000D01*
%TO.N,/EPS Controller/EPS.SCL*%
X43398447Y-25843510D02*
X40953937Y-23399000D01*
X36000000Y-34625000D02*
X35875000Y-34750000D01*
X43398447Y-29051553D02*
X43398447Y-25843510D01*
X33400000Y-38450000D02*
X33400000Y-37325000D01*
X37401000Y-23399000D02*
X36000000Y-24800000D01*
X36000000Y-24800000D02*
X36000000Y-34625000D01*
X43250000Y-29200000D02*
X43398447Y-29051553D01*
X36600000Y-41650000D02*
X33400000Y-38450000D01*
X40953937Y-23399000D02*
X37401000Y-23399000D01*
%TO.N,/EPS Controller/EPS.SDA*%
X37100000Y-24775000D02*
X36750000Y-25125000D01*
X42997447Y-26009610D02*
X42997447Y-27952553D01*
X36750000Y-36950000D02*
X36775000Y-36925000D01*
X41987837Y-25000000D02*
X42997447Y-26009610D01*
X36750000Y-25125000D02*
X36750000Y-36950000D01*
X37325000Y-25000000D02*
X41987837Y-25000000D01*
X42997447Y-27952553D02*
X42350000Y-28600000D01*
X37100000Y-24775000D02*
X37325000Y-25000000D01*
X36775000Y-36925000D02*
X36825000Y-36925000D01*
%TO.N,/EPS Controller/BAT_CHG_~{INT}*%
X34626000Y-25299000D02*
X37925000Y-22000000D01*
X34626000Y-36051000D02*
X34626000Y-25299000D01*
X38150000Y-37600000D02*
X36175000Y-37600000D01*
X36175000Y-37600000D02*
X34626000Y-36051000D01*
%TO.N,/LTE Card/USART3.CTS*%
X101100000Y-74939588D02*
X101100000Y-83250000D01*
X115100000Y-55050000D02*
X115100000Y-34400000D01*
X115100000Y-34400000D02*
X113400000Y-32700000D01*
X102750000Y-71225000D02*
X102750000Y-73289588D01*
X111850000Y-32700000D02*
X111100000Y-33450000D01*
X116300000Y-61700000D02*
X116300000Y-56250000D01*
X101100000Y-83250000D02*
X98925000Y-85425000D01*
X102750000Y-73289588D02*
X101100000Y-74939588D01*
X112000000Y-66000000D02*
X116300000Y-61700000D01*
X111300000Y-69400000D02*
X104575000Y-69400000D01*
X112000000Y-68700000D02*
X111300000Y-69400000D01*
X116300000Y-56250000D02*
X115100000Y-55050000D01*
X104575000Y-69400000D02*
X102750000Y-71225000D01*
X113400000Y-32700000D02*
X111850000Y-32700000D01*
%TO.N,/LTE Card/USART3.RTS*%
X110800000Y-73300000D02*
X110800000Y-71300000D01*
X110500000Y-33117706D02*
X110500000Y-33950000D01*
X110500000Y-33950000D02*
X110550000Y-34000000D01*
X110800000Y-71300000D02*
X113400000Y-68700000D01*
X113700000Y-32200000D02*
X111417706Y-32200000D01*
X115750000Y-34250000D02*
X113700000Y-32200000D01*
X111417706Y-32200000D02*
X110500000Y-33117706D01*
X115750000Y-55000000D02*
X115750000Y-34250000D01*
X116700000Y-55950000D02*
X115750000Y-55000000D01*
X113400000Y-66000000D02*
X116700000Y-62700000D01*
X116700000Y-62700000D02*
X116700000Y-55950000D01*
%TO.N,/Auxiliary Card/USART6.CTS*%
X88600000Y-63050000D02*
X89750000Y-61900000D01*
X87676000Y-32874000D02*
X87100000Y-33450000D01*
X89500000Y-53450000D02*
X89500000Y-40450000D01*
X90650000Y-34950000D02*
X88574000Y-32874000D01*
X89750000Y-61900000D02*
X89750000Y-53700000D01*
X90650000Y-39300000D02*
X90650000Y-34950000D01*
X88600000Y-63500000D02*
X88600000Y-63050000D01*
X89500000Y-40450000D02*
X90650000Y-39300000D01*
X89750000Y-53700000D02*
X89500000Y-53450000D01*
X88574000Y-32874000D02*
X87676000Y-32874000D01*
%TO.N,/Auxiliary Card/USART6.RTS*%
X90200000Y-39050000D02*
X90200000Y-35450000D01*
X88900000Y-46325000D02*
X88900000Y-40350000D01*
X89326000Y-34576000D02*
X87126000Y-34576000D01*
X88900000Y-40350000D02*
X90200000Y-39050000D01*
X87200000Y-68150000D02*
X87200000Y-48025000D01*
X91750000Y-69050000D02*
X88100000Y-69050000D01*
X88100000Y-69050000D02*
X87200000Y-68150000D01*
X93675000Y-71727116D02*
X92800000Y-70852116D01*
X90200000Y-35450000D02*
X89326000Y-34576000D01*
X87200000Y-48025000D02*
X88900000Y-46325000D01*
X92800000Y-70100000D02*
X91750000Y-69050000D01*
X93675000Y-72225000D02*
X93675000Y-71727116D01*
X92800000Y-70852116D02*
X92800000Y-70100000D01*
X87126000Y-34576000D02*
X86550000Y-34000000D01*
%TO.N,/Auxiliary Card/AUX.~{RESET}*%
X91250000Y-57508550D02*
X92500000Y-58758550D01*
X86000000Y-41250000D02*
X85500000Y-40750000D01*
X90150000Y-51275000D02*
X91250000Y-52375000D01*
X90150000Y-50500000D02*
X90150000Y-51275000D01*
X92500000Y-60000000D02*
X89399997Y-63100003D01*
X91250000Y-52375000D02*
X91250000Y-57508550D01*
X92500000Y-58758550D02*
X92500000Y-60000000D01*
X89399997Y-63100003D02*
X89399997Y-63475000D01*
X86000000Y-50500000D02*
X86000000Y-41250000D01*
%TO.N,/STM32H745/HUB_SUSPEND*%
X33475057Y-70650000D02*
X31800000Y-70650000D01*
X87375000Y-94225000D02*
X85275000Y-96325000D01*
X23425000Y-50375000D02*
X24050000Y-49750000D01*
X27400000Y-66250000D02*
X27400000Y-59300000D01*
X68650000Y-96325000D02*
X46250000Y-73925000D01*
X40322943Y-69350000D02*
X34775057Y-69350000D01*
X34775057Y-69350000D02*
X33475057Y-70650000D01*
X27400000Y-59300000D02*
X23425000Y-55325000D01*
X85275000Y-96325000D02*
X68650000Y-96325000D01*
X46250000Y-73925000D02*
X44897943Y-73925000D01*
X31800000Y-70650000D02*
X27400000Y-66250000D01*
X44897943Y-73925000D02*
X40322943Y-69350000D01*
X23425000Y-55325000D02*
X23425000Y-50375000D01*
%TO.N,/LTE Card/LTE.~{RESET}*%
X88250000Y-72850000D02*
X93900000Y-72850000D01*
X107850000Y-42750000D02*
X109500000Y-41100000D01*
X102200000Y-64550000D02*
X106000000Y-64550000D01*
X93900000Y-72850000D02*
X102200000Y-64550000D01*
X106000000Y-64550000D02*
X108050000Y-62500000D01*
X77750000Y-71000000D02*
X80142100Y-71000000D01*
X82450000Y-71500000D02*
X86900000Y-71500000D01*
X80692100Y-71550000D02*
X82400000Y-71550000D01*
X107850000Y-44550000D02*
X107850000Y-42750000D01*
X108050000Y-62500000D02*
X108050000Y-44750000D01*
X109500000Y-41100000D02*
X109500000Y-40750000D01*
X108050000Y-44750000D02*
X107850000Y-44550000D01*
X82400000Y-71550000D02*
X82450000Y-71500000D01*
X86900000Y-71500000D02*
X88250000Y-72850000D01*
X80142100Y-71000000D02*
X80692100Y-71550000D01*
%TO.N,/L4_CAN_TX*%
X33124000Y-64449000D02*
X33124000Y-51051000D01*
X33125000Y-64450000D02*
X33124000Y-64449000D01*
X33124000Y-51051000D02*
X33175000Y-51000000D01*
%TO.N,Net-(U24-STAT)*%
X31749000Y-18351000D02*
X31749000Y-23974000D01*
X31749000Y-23974000D02*
X32275000Y-24500000D01*
X32275000Y-24500000D02*
X32775000Y-24500000D01*
X33650000Y-16450000D02*
X31749000Y-18351000D01*
%TO.N,/STM32H745/~{RESET}_H7*%
X24000000Y-45000000D02*
X24900000Y-45000000D01*
X29876057Y-56301000D02*
X29876057Y-56301057D01*
X28809000Y-54159000D02*
X29350000Y-54700000D01*
X29350000Y-55774943D02*
X29876057Y-56301000D01*
X99175000Y-89000000D02*
X114775000Y-89000000D01*
X80650000Y-83000000D02*
X93175000Y-83000000D01*
X80349000Y-82699000D02*
X80650000Y-83000000D01*
X114775000Y-89000000D02*
X116475000Y-87300000D01*
X64675000Y-72300000D02*
X64675000Y-73200000D01*
X69276000Y-79351000D02*
X72301000Y-79351000D01*
X29876057Y-56301057D02*
X30225000Y-56650000D01*
X75649000Y-82699000D02*
X80349000Y-82699000D01*
X28809000Y-48909000D02*
X28809000Y-54159000D01*
X72301000Y-79351000D02*
X75649000Y-82699000D01*
X64675000Y-73200000D02*
X63475000Y-74400000D01*
X29350000Y-54700000D02*
X29350000Y-55774943D01*
X41899265Y-67049265D02*
X39250000Y-64400000D01*
X30225000Y-56650000D02*
X30225000Y-61100000D01*
X66093180Y-76168180D02*
X69276000Y-79351000D01*
X63475000Y-76168180D02*
X66093180Y-76168180D01*
X45850735Y-67049265D02*
X41899265Y-67049265D01*
X24900000Y-45000000D02*
X28809000Y-48909000D01*
X93175000Y-83000000D02*
X99175000Y-89000000D01*
%TO.N,/STM32H745/HUB_H7_INT*%
X88750000Y-92250000D02*
X84550000Y-92250000D01*
X82400000Y-94400000D02*
X68350000Y-94400000D01*
X42425000Y-68475000D02*
X35900000Y-68475000D01*
X68350000Y-94400000D02*
X42425000Y-68475000D01*
X30900000Y-67900000D02*
X29575000Y-66575000D01*
X29575000Y-66575000D02*
X29575000Y-57525000D01*
X35325000Y-67900000D02*
X30900000Y-67900000D01*
X84550000Y-92250000D02*
X82400000Y-94400000D01*
X29575000Y-57525000D02*
X27625000Y-55575000D01*
X35900000Y-68475000D02*
X35325000Y-67900000D01*
%TO.N,/EPS Controller/SPI1.SCK*%
X56900000Y-75075000D02*
X82775000Y-75075000D01*
X52700000Y-72250000D02*
X54075000Y-72250000D01*
X82775000Y-75075000D02*
X84500000Y-76800000D01*
X42100000Y-61650000D02*
X52700000Y-72250000D01*
X42100000Y-56100000D02*
X42100000Y-61650000D01*
X54075000Y-72250000D02*
X56900000Y-75075000D01*
%TO.N,/EPS Controller/SPI1.MOSI*%
X88750000Y-70100000D02*
X71500000Y-70100000D01*
X71500000Y-70100000D02*
X54050000Y-52650000D01*
X54050000Y-52650000D02*
X45900000Y-52650000D01*
X92100000Y-72100000D02*
X90750000Y-72100000D01*
X90750000Y-72100000D02*
X88750000Y-70100000D01*
%TO.N,/EPS Controller/EPS_EEPROM_~{WC}*%
X28800000Y-42000000D02*
X29851000Y-43051000D01*
X34875943Y-45376000D02*
X38640588Y-45376000D01*
X29851000Y-43051000D02*
X32550943Y-43051000D01*
X40576000Y-51576000D02*
X42000000Y-53000000D01*
X32550943Y-43051000D02*
X34875943Y-45376000D01*
X40576000Y-47311412D02*
X40576000Y-51576000D01*
X38640588Y-45376000D02*
X40576000Y-47311412D01*
%TO.N,/EPS Controller/SPI1.MISO*%
X52875000Y-71575000D02*
X80150000Y-71575000D01*
X43500000Y-51426000D02*
X43500000Y-62200000D01*
X80150000Y-71575000D02*
X85249999Y-76674999D01*
X43500000Y-62200000D02*
X52875000Y-71575000D01*
%TO.N,/EPS Controller/SPI1.~{SS}_H7*%
X42850000Y-54250000D02*
X41500000Y-55600000D01*
X56733900Y-75476000D02*
X82351000Y-75476000D01*
X82351000Y-75476000D02*
X83737500Y-76862500D01*
X42850000Y-52700000D02*
X42850000Y-54250000D01*
X54032900Y-72775000D02*
X56733900Y-75476000D01*
X41500000Y-61850000D02*
X52425000Y-72775000D01*
X41500000Y-55600000D02*
X41500000Y-61850000D01*
X52425000Y-72775000D02*
X54032900Y-72775000D01*
%TO.N,/EPS Controller/SPI1.REQ*%
X74777116Y-83100000D02*
X71900000Y-83100000D01*
X82525000Y-86725000D02*
X82525000Y-85775000D01*
X75727116Y-84050000D02*
X74777116Y-83100000D01*
X65600000Y-76800000D02*
X57750000Y-76800000D01*
X82525000Y-85775000D02*
X80800000Y-84050000D01*
X44150000Y-60750000D02*
X44150000Y-42850000D01*
X71900000Y-83100000D02*
X65600000Y-76800000D01*
X80800000Y-84050000D02*
X75727116Y-84050000D01*
X54375000Y-70975000D02*
X44150000Y-60750000D01*
%TO.N,/EPS Controller/SPI1.GRANT*%
X55475000Y-70975000D02*
X44550000Y-60050000D01*
X44550000Y-60050000D02*
X44550000Y-44050000D01*
X81750000Y-85925000D02*
X81275000Y-85925000D01*
X44550000Y-44050000D02*
X45050000Y-43550000D01*
X73599000Y-85924000D02*
X65075000Y-77400000D01*
X81275000Y-85925000D02*
X81274000Y-85924000D01*
X81274000Y-85924000D02*
X73599000Y-85924000D01*
X65075000Y-77400000D02*
X58450000Y-77400000D01*
%TO.N,/EPS Controller/BOOT0_L4*%
X32900000Y-49775000D02*
X34025000Y-49775000D01*
X34600000Y-50350000D02*
X34600000Y-52285412D01*
X34025000Y-49775000D02*
X34600000Y-50350000D01*
X35376000Y-58174000D02*
X34625000Y-58925000D01*
X35376000Y-53061412D02*
X35376000Y-58174000D01*
X34600000Y-52285412D02*
X35376000Y-53061412D01*
%TO.N,/EPS Controller/L4_SWCLK*%
X24800000Y-37650000D02*
X24800000Y-39950000D01*
X24800000Y-39950000D02*
X30675000Y-45825000D01*
X30675000Y-45825000D02*
X33575000Y-45825000D01*
%TO.N,/EPS Controller/L4_SWDIO*%
X36250000Y-44150000D02*
X30400000Y-38300000D01*
X26300000Y-38300000D02*
X24730000Y-36730000D01*
X30400000Y-38300000D02*
X26300000Y-38300000D01*
X24730000Y-36730000D02*
X24730000Y-35750000D01*
X36250000Y-44800000D02*
X36250000Y-44150000D01*
%TO.N,/L4_CAN_RX*%
X33275057Y-67325000D02*
X32500000Y-66549943D01*
X33350000Y-67300000D02*
X33325000Y-67325000D01*
X33325000Y-67325000D02*
X33275057Y-67325000D01*
X30925000Y-63500000D02*
X30925000Y-52275000D01*
X30925000Y-52275000D02*
X32850000Y-50350000D01*
X32500000Y-66549943D02*
X32500000Y-65075000D01*
X32850000Y-50350000D02*
X33725000Y-50350000D01*
X32500000Y-65075000D02*
X30925000Y-63500000D01*
%TO.N,/L4_CAN_STB*%
X40375000Y-54675000D02*
X40375000Y-62325000D01*
X40375000Y-62325000D02*
X37675000Y-65025000D01*
%TO.N,/EPS Controller/SPI1.~{SS}_L4*%
X90900000Y-71500000D02*
X89050000Y-69650000D01*
X39500000Y-44950000D02*
X39000000Y-44450000D01*
X92925000Y-72100000D02*
X92325000Y-71500000D01*
X72064588Y-69650000D02*
X44688588Y-42274000D01*
X40900000Y-44950000D02*
X39500000Y-44950000D01*
X44688588Y-42274000D02*
X43576000Y-42274000D01*
X43576000Y-42274000D02*
X40900000Y-44950000D01*
X92325000Y-71500000D02*
X90900000Y-71500000D01*
X89050000Y-69650000D02*
X72064588Y-69650000D01*
%TD*%
%TA.AperFunction,Conductor*%
%TO.N,GND*%
G36*
X159618500Y-72992594D02*
G01*
X159617055Y-73007265D01*
X159612398Y-73030677D01*
X159611559Y-73032702D01*
X159611688Y-73033879D01*
X159601170Y-73057784D01*
X159592103Y-73071354D01*
X159571354Y-73092103D01*
X159557784Y-73101170D01*
X159530678Y-73112397D01*
X159507262Y-73117055D01*
X159492595Y-73118500D01*
X157563178Y-73118500D01*
X157392874Y-73152376D01*
X157392872Y-73152377D01*
X157232454Y-73218824D01*
X157088074Y-73315296D01*
X157088071Y-73315298D01*
X156965298Y-73438071D01*
X156965296Y-73438074D01*
X156868824Y-73582454D01*
X156802377Y-73742872D01*
X156802376Y-73742874D01*
X156768500Y-73913178D01*
X156768500Y-74000000D01*
X154150000Y-74000000D01*
X154150000Y-73500554D01*
X154150007Y-73499500D01*
X154152308Y-73335345D01*
X154152774Y-73327979D01*
X154165073Y-73218824D01*
X154189584Y-73001274D01*
X154190992Y-72992985D01*
X154264040Y-72672943D01*
X154266370Y-72664856D01*
X154374787Y-72355018D01*
X154378003Y-72347254D01*
X154520432Y-72051497D01*
X154524500Y-72044135D01*
X154699149Y-71766183D01*
X154704019Y-71759320D01*
X154908688Y-71502673D01*
X154914291Y-71496404D01*
X155146404Y-71264291D01*
X155152673Y-71258688D01*
X155409320Y-71054019D01*
X155416183Y-71049149D01*
X155694135Y-70874500D01*
X155701497Y-70870432D01*
X155997254Y-70728003D01*
X156005018Y-70724787D01*
X156314856Y-70616370D01*
X156322943Y-70614040D01*
X156642985Y-70540992D01*
X156651274Y-70539584D01*
X156977983Y-70502773D01*
X156985335Y-70502308D01*
X157150000Y-70500000D01*
X159618500Y-70500000D01*
X159618500Y-72992594D01*
G37*
%TD.AperFunction*%
%TD*%
%TA.AperFunction,Conductor*%
%TO.N,GND*%
G36*
X8973138Y-63867593D02*
G01*
X8998858Y-63912142D01*
X9000000Y-63925200D01*
X9000000Y-97000000D01*
X5389473Y-97000000D01*
X5421058Y-96882122D01*
X5454500Y-96628105D01*
X5454500Y-96371895D01*
X5421058Y-96117878D01*
X5354746Y-95870398D01*
X5256699Y-95633692D01*
X5128595Y-95411808D01*
X4972624Y-95208543D01*
X4972611Y-95208529D01*
X4791470Y-95027388D01*
X4791455Y-95027374D01*
X4588194Y-94871406D01*
X4366309Y-94743301D01*
X4129605Y-94645255D01*
X4129603Y-94645254D01*
X4129602Y-94645254D01*
X3882122Y-94578942D01*
X3628105Y-94545500D01*
X3371895Y-94545500D01*
X3117878Y-94578942D01*
X3117874Y-94578943D01*
X3117873Y-94578943D01*
X3000000Y-94610527D01*
X3000000Y-92347897D01*
X3018344Y-92347640D01*
X3352915Y-92309943D01*
X3681161Y-92235023D01*
X3998955Y-92123822D01*
X4302300Y-91977739D01*
X4587382Y-91798610D01*
X4850615Y-91588689D01*
X5088689Y-91350615D01*
X5298610Y-91087382D01*
X5477739Y-90802300D01*
X5623822Y-90498955D01*
X5735023Y-90181161D01*
X5809943Y-89852915D01*
X5847640Y-89518344D01*
X5850000Y-89350000D01*
X5850000Y-88850000D01*
X5850000Y-63850000D01*
X8924800Y-63850000D01*
X8973138Y-63867593D01*
G37*
%TD.AperFunction*%
%TD*%
%TA.AperFunction,Conductor*%
%TO.N,GND*%
G36*
X158002684Y-381691D02*
G01*
X158224975Y-397590D01*
X158235589Y-399116D01*
X158450726Y-445917D01*
X158461014Y-448937D01*
X158612203Y-505328D01*
X158667311Y-525882D01*
X158677070Y-530339D01*
X158870304Y-635852D01*
X158879331Y-641653D01*
X159055592Y-773600D01*
X159063700Y-780627D01*
X159219372Y-936299D01*
X159226399Y-944407D01*
X159358346Y-1120668D01*
X159364147Y-1129695D01*
X159469660Y-1322929D01*
X159474117Y-1332688D01*
X159551061Y-1538982D01*
X159554083Y-1549277D01*
X159600882Y-1764407D01*
X159602409Y-1775027D01*
X159618308Y-1997315D01*
X159618500Y-2002680D01*
X159618500Y-3000000D01*
X158389473Y-3000000D01*
X158354746Y-2870398D01*
X158256699Y-2633692D01*
X158128595Y-2411808D01*
X157972624Y-2208543D01*
X157972611Y-2208529D01*
X157791470Y-2027388D01*
X157791455Y-2027374D01*
X157588194Y-1871406D01*
X157366309Y-1743301D01*
X157129605Y-1645255D01*
X157129603Y-1645254D01*
X157129602Y-1645254D01*
X156882122Y-1578942D01*
X156628105Y-1545500D01*
X156371895Y-1545500D01*
X156117878Y-1578942D01*
X156117874Y-1578943D01*
X156117873Y-1578943D01*
X155960978Y-1620983D01*
X155870398Y-1645254D01*
X155870396Y-1645254D01*
X155870395Y-1645255D01*
X155870394Y-1645255D01*
X155633690Y-1743301D01*
X155411805Y-1871406D01*
X155208544Y-2027374D01*
X155208529Y-2027388D01*
X155027388Y-2208529D01*
X155027374Y-2208544D01*
X154871406Y-2411805D01*
X154743301Y-2633690D01*
X154645255Y-2870394D01*
X154645255Y-2870395D01*
X154645254Y-2870398D01*
X154610527Y-3000000D01*
X5447176Y-3000000D01*
X5398838Y-2982407D01*
X5374539Y-2944264D01*
X5354748Y-2870405D01*
X5354747Y-2870403D01*
X5354746Y-2870398D01*
X5256699Y-2633692D01*
X5128595Y-2411808D01*
X4972624Y-2208543D01*
X4972611Y-2208529D01*
X4791470Y-2027388D01*
X4791455Y-2027374D01*
X4588194Y-1871406D01*
X4366309Y-1743301D01*
X4129605Y-1645255D01*
X4129603Y-1645254D01*
X4129602Y-1645254D01*
X3882122Y-1578942D01*
X3628105Y-1545500D01*
X3371895Y-1545500D01*
X3117878Y-1578942D01*
X3117874Y-1578943D01*
X3117873Y-1578943D01*
X2960978Y-1620983D01*
X2870398Y-1645254D01*
X2870396Y-1645254D01*
X2870395Y-1645255D01*
X2870394Y-1645255D01*
X2633690Y-1743301D01*
X2411805Y-1871406D01*
X2208544Y-2027374D01*
X2208529Y-2027388D01*
X2027388Y-2208529D01*
X2027374Y-2208544D01*
X1871406Y-2411805D01*
X1743301Y-2633690D01*
X1645255Y-2870394D01*
X1645255Y-2870395D01*
X1645254Y-2870398D01*
X1610527Y-3000000D01*
X381500Y-3000000D01*
X381500Y-2002680D01*
X381692Y-1997315D01*
X397590Y-1775027D01*
X399117Y-1764407D01*
X445918Y-1549270D01*
X448935Y-1538989D01*
X525883Y-1332684D01*
X530339Y-1322929D01*
X548210Y-1290201D01*
X635856Y-1129688D01*
X641648Y-1120674D01*
X773605Y-944400D01*
X780620Y-936306D01*
X936306Y-780620D01*
X944400Y-773605D01*
X1120674Y-641648D01*
X1129688Y-635856D01*
X1322933Y-530336D01*
X1332684Y-525883D01*
X1538989Y-448935D01*
X1549270Y-445918D01*
X1764412Y-399116D01*
X1775022Y-397590D01*
X1997315Y-381691D01*
X2002680Y-381500D01*
X2054851Y-381500D01*
X157945149Y-381500D01*
X157997320Y-381500D01*
X158002684Y-381691D01*
G37*
%TD.AperFunction*%
%TD*%
%TA.AperFunction,Conductor*%
%TO.N,GND*%
G36*
X3014663Y-36902308D02*
G01*
X3022017Y-36902773D01*
X3348722Y-36939584D01*
X3357017Y-36940993D01*
X3677051Y-37014039D01*
X3685148Y-37016372D01*
X3994975Y-37124785D01*
X4002751Y-37128006D01*
X4298492Y-37270427D01*
X4305873Y-37274506D01*
X4583809Y-37449145D01*
X4590686Y-37454025D01*
X4847316Y-37658680D01*
X4853604Y-37664300D01*
X5085699Y-37896395D01*
X5091319Y-37902683D01*
X5295974Y-38159313D01*
X5300854Y-38166190D01*
X5475493Y-38444126D01*
X5479572Y-38451507D01*
X5621990Y-38747241D01*
X5625217Y-38755032D01*
X5733626Y-39064848D01*
X5735961Y-39072951D01*
X5809004Y-39392972D01*
X5810416Y-39401286D01*
X5847225Y-39727979D01*
X5847691Y-39735345D01*
X5849993Y-39899500D01*
X5850000Y-39900554D01*
X5850000Y-88850000D01*
X5850000Y-89350000D01*
X5847640Y-89518344D01*
X5809943Y-89852915D01*
X5735023Y-90181161D01*
X5623822Y-90498955D01*
X5477739Y-90802300D01*
X5298610Y-91087382D01*
X5088689Y-91350615D01*
X4850615Y-91588689D01*
X4587382Y-91798610D01*
X4302300Y-91977739D01*
X3998955Y-92123822D01*
X3681161Y-92235023D01*
X3352915Y-92309943D01*
X3018344Y-92347640D01*
X2850000Y-92350000D01*
X381500Y-92350000D01*
X381500Y-89857405D01*
X382943Y-89842743D01*
X387602Y-89819318D01*
X398826Y-89792220D01*
X407901Y-89778639D01*
X428639Y-89757901D01*
X442220Y-89748826D01*
X469318Y-89737602D01*
X492743Y-89732943D01*
X507405Y-89731500D01*
X2436822Y-89731500D01*
X2493332Y-89720258D01*
X2607124Y-89697624D01*
X2767547Y-89631175D01*
X2911923Y-89534706D01*
X3034706Y-89411923D01*
X3131175Y-89267547D01*
X3197624Y-89107124D01*
X3231500Y-88936820D01*
X3231500Y-88850000D01*
X3231500Y-88795149D01*
X3231500Y-69099775D01*
X3231500Y-69063180D01*
X3225198Y-69031500D01*
X3205242Y-68931175D01*
X3197624Y-68892876D01*
X3131175Y-68732453D01*
X3034706Y-68588077D01*
X3034703Y-68588074D01*
X3034701Y-68588071D01*
X2911928Y-68465298D01*
X2911925Y-68465296D01*
X2911923Y-68465294D01*
X2767547Y-68368825D01*
X2767545Y-68368824D01*
X2607127Y-68302377D01*
X2607125Y-68302376D01*
X2436822Y-68268500D01*
X2436820Y-68268500D01*
X2400225Y-68268500D01*
X507405Y-68268500D01*
X492736Y-68267055D01*
X469321Y-68262397D01*
X442215Y-68251170D01*
X428642Y-68242100D01*
X407899Y-68221357D01*
X398827Y-68207781D01*
X387602Y-68180679D01*
X382943Y-68157257D01*
X381500Y-68142594D01*
X381500Y-64607405D01*
X382943Y-64592743D01*
X387602Y-64569318D01*
X398826Y-64542220D01*
X407901Y-64528639D01*
X428639Y-64507901D01*
X442220Y-64498826D01*
X469318Y-64487602D01*
X492743Y-64482943D01*
X507405Y-64481500D01*
X2136822Y-64481500D01*
X2193332Y-64470258D01*
X2307124Y-64447624D01*
X2467547Y-64381175D01*
X2611923Y-64284706D01*
X2734706Y-64161923D01*
X2831175Y-64017547D01*
X2897624Y-63857124D01*
X2931500Y-63686820D01*
X2931500Y-63600000D01*
X2931500Y-63545149D01*
X2931500Y-40349775D01*
X2931500Y-40313180D01*
X2925198Y-40281500D01*
X2905242Y-40181175D01*
X2897624Y-40142876D01*
X2831175Y-39982453D01*
X2734706Y-39838077D01*
X2734703Y-39838074D01*
X2734701Y-39838071D01*
X2611928Y-39715298D01*
X2611925Y-39715296D01*
X2611923Y-39715294D01*
X2467547Y-39618825D01*
X2467545Y-39618824D01*
X2307127Y-39552377D01*
X2307125Y-39552376D01*
X2136822Y-39518500D01*
X2136820Y-39518500D01*
X2100225Y-39518500D01*
X507405Y-39518500D01*
X492736Y-39517055D01*
X469321Y-39512397D01*
X442215Y-39501170D01*
X428642Y-39492100D01*
X407899Y-39471357D01*
X398827Y-39457781D01*
X387602Y-39430679D01*
X382943Y-39407257D01*
X381500Y-39392594D01*
X381500Y-36900000D01*
X2850000Y-36900000D01*
X3014663Y-36902308D01*
G37*
%TD.AperFunction*%
%TD*%
%TA.AperFunction,Conductor*%
%TO.N,GND*%
G36*
X154578942Y-3117878D02*
G01*
X154545500Y-3371895D01*
X154545500Y-3628105D01*
X154578942Y-3882122D01*
X154578943Y-3882125D01*
X154578943Y-3882126D01*
X154645255Y-4129604D01*
X154645255Y-4129605D01*
X154743301Y-4366309D01*
X154871406Y-4588194D01*
X155027374Y-4791455D01*
X155027388Y-4791470D01*
X155208529Y-4972611D01*
X155208543Y-4972624D01*
X155411808Y-5128595D01*
X155633692Y-5256699D01*
X155870398Y-5354746D01*
X156117878Y-5421058D01*
X156371895Y-5454500D01*
X156371898Y-5454500D01*
X156628102Y-5454500D01*
X156628105Y-5454500D01*
X156882122Y-5421058D01*
X157000000Y-5389472D01*
X157000000Y-20000000D01*
X148575200Y-20000000D01*
X148526862Y-19982407D01*
X148501142Y-19937858D01*
X148500000Y-19924800D01*
X148500000Y-18174251D01*
X148502562Y-18154788D01*
X148525500Y-18069183D01*
X148525500Y-17930817D01*
X148502562Y-17845209D01*
X148500000Y-17825747D01*
X148500000Y-14174251D01*
X148502562Y-14154788D01*
X148525500Y-14069183D01*
X148525500Y-13930817D01*
X148502562Y-13845209D01*
X148500000Y-13825747D01*
X148500000Y-10174251D01*
X148502562Y-10154788D01*
X148525500Y-10069183D01*
X148525500Y-9930817D01*
X148502562Y-9845209D01*
X148500000Y-9825747D01*
X148500000Y-3000000D01*
X154610527Y-3000000D01*
X154578942Y-3117878D01*
G37*
%TD.AperFunction*%
%TD*%
%TA.AperFunction,Conductor*%
%TO.N,GND*%
G36*
X156741638Y-85442593D02*
G01*
X156767358Y-85487142D01*
X156768500Y-85500200D01*
X156768500Y-90586821D01*
X156802376Y-90757125D01*
X156802377Y-90757127D01*
X156858000Y-90891414D01*
X156868825Y-90917547D01*
X156965294Y-91061923D01*
X156965296Y-91061925D01*
X156965298Y-91061928D01*
X157088071Y-91184701D01*
X157088074Y-91184703D01*
X157088077Y-91184706D01*
X157150000Y-91226081D01*
X157150000Y-94653702D01*
X157129611Y-94645257D01*
X157129604Y-94645255D01*
X157129605Y-94645255D01*
X157129602Y-94645254D01*
X156882122Y-94578942D01*
X156628105Y-94545500D01*
X156371895Y-94545500D01*
X156117878Y-94578942D01*
X156117874Y-94578943D01*
X156117873Y-94578943D01*
X155960978Y-94620983D01*
X155870398Y-94645254D01*
X155870396Y-94645254D01*
X155870395Y-94645255D01*
X155870394Y-94645255D01*
X155633690Y-94743301D01*
X155411805Y-94871406D01*
X155208544Y-95027374D01*
X155208529Y-95027388D01*
X155027388Y-95208529D01*
X155027374Y-95208544D01*
X154871406Y-95411805D01*
X154743301Y-95633690D01*
X154645255Y-95870394D01*
X154645255Y-95870395D01*
X154645254Y-95870398D01*
X154578942Y-96117878D01*
X154545500Y-96371895D01*
X154545500Y-96628105D01*
X154578942Y-96882122D01*
X154578943Y-96882125D01*
X154578943Y-96882126D01*
X154645255Y-97129604D01*
X154645255Y-97129605D01*
X154743301Y-97366309D01*
X154871406Y-97588194D01*
X155027374Y-97791455D01*
X155027388Y-97791470D01*
X155208529Y-97972611D01*
X155208543Y-97972624D01*
X155411808Y-98128595D01*
X155633692Y-98256699D01*
X155870398Y-98354746D01*
X156117878Y-98421058D01*
X156371895Y-98454500D01*
X156371898Y-98454500D01*
X156628102Y-98454500D01*
X156628105Y-98454500D01*
X156882122Y-98421058D01*
X157129602Y-98354746D01*
X157150000Y-98346296D01*
X157150000Y-99618500D01*
X154150000Y-99618500D01*
X154150000Y-85500200D01*
X154167593Y-85451862D01*
X154212142Y-85426142D01*
X154225200Y-85425000D01*
X156693300Y-85425000D01*
X156741638Y-85442593D01*
G37*
%TD.AperFunction*%
%TD*%
%TA.AperFunction,Conductor*%
%TO.N,GND*%
G36*
X3000000Y-94610527D02*
G01*
X2945640Y-94625092D01*
X2870398Y-94645254D01*
X2870395Y-94645255D01*
X2870392Y-94645256D01*
X2633690Y-94743301D01*
X2411805Y-94871406D01*
X2208544Y-95027374D01*
X2208529Y-95027388D01*
X2027388Y-95208529D01*
X2027374Y-95208544D01*
X1871406Y-95411805D01*
X1743301Y-95633690D01*
X1645255Y-95870394D01*
X1645255Y-95870395D01*
X1645254Y-95870398D01*
X1578942Y-96117878D01*
X1545500Y-96371895D01*
X1545500Y-96628105D01*
X1578942Y-96882122D01*
X1578943Y-96882125D01*
X1578943Y-96882126D01*
X1645255Y-97129604D01*
X1645255Y-97129605D01*
X1743301Y-97366309D01*
X1871406Y-97588194D01*
X2027374Y-97791455D01*
X2027388Y-97791470D01*
X2208529Y-97972611D01*
X2208543Y-97972624D01*
X2411808Y-98128595D01*
X2633692Y-98256699D01*
X2870398Y-98354746D01*
X3000000Y-98389472D01*
X3000000Y-99618500D01*
X2002680Y-99618500D01*
X1997315Y-99618308D01*
X1775027Y-99602409D01*
X1764407Y-99600882D01*
X1549277Y-99554083D01*
X1538982Y-99551061D01*
X1332688Y-99474117D01*
X1322929Y-99469660D01*
X1129695Y-99364147D01*
X1120668Y-99358346D01*
X944407Y-99226399D01*
X936299Y-99219372D01*
X780627Y-99063700D01*
X773600Y-99055592D01*
X641653Y-98879331D01*
X635852Y-98870304D01*
X530339Y-98677070D01*
X525882Y-98667311D01*
X448938Y-98461017D01*
X445916Y-98450722D01*
X403708Y-98256698D01*
X399116Y-98235589D01*
X397590Y-98224972D01*
X381692Y-98002684D01*
X381500Y-97997319D01*
X381500Y-89857405D01*
X382943Y-89842743D01*
X387602Y-89819318D01*
X398826Y-89792220D01*
X407901Y-89778639D01*
X428639Y-89757901D01*
X442220Y-89748826D01*
X469318Y-89737602D01*
X492743Y-89732943D01*
X507405Y-89731500D01*
X2436822Y-89731500D01*
X2493332Y-89720258D01*
X2607124Y-89697624D01*
X2767547Y-89631175D01*
X2911923Y-89534706D01*
X3000000Y-89446629D01*
X3000000Y-94610527D01*
G37*
%TD.AperFunction*%
%TA.AperFunction,Conductor*%
G36*
X3000000Y-1610527D02*
G01*
X2945640Y-1625092D01*
X2870398Y-1645254D01*
X2870395Y-1645255D01*
X2870392Y-1645256D01*
X2633690Y-1743301D01*
X2411805Y-1871406D01*
X2208544Y-2027374D01*
X2208529Y-2027388D01*
X2027388Y-2208529D01*
X2027374Y-2208544D01*
X1871406Y-2411805D01*
X1743301Y-2633690D01*
X1645255Y-2870394D01*
X1645255Y-2870395D01*
X1645254Y-2870398D01*
X1578942Y-3117878D01*
X1545500Y-3371895D01*
X1545500Y-3628105D01*
X1578942Y-3882122D01*
X1578943Y-3882125D01*
X1578943Y-3882126D01*
X1645255Y-4129604D01*
X1645255Y-4129605D01*
X1743301Y-4366309D01*
X1871406Y-4588194D01*
X2027374Y-4791455D01*
X2027388Y-4791470D01*
X2208529Y-4972611D01*
X2208543Y-4972624D01*
X2411808Y-5128595D01*
X2633692Y-5256699D01*
X2870398Y-5354746D01*
X2944263Y-5374538D01*
X2986400Y-5404041D01*
X3000000Y-5447175D01*
X3000000Y-68553370D01*
X2911928Y-68465298D01*
X2911925Y-68465296D01*
X2911923Y-68465294D01*
X2767547Y-68368825D01*
X2767545Y-68368824D01*
X2607127Y-68302377D01*
X2607125Y-68302376D01*
X2436822Y-68268500D01*
X2436820Y-68268500D01*
X2400225Y-68268500D01*
X507405Y-68268500D01*
X492736Y-68267055D01*
X469321Y-68262397D01*
X442215Y-68251170D01*
X428642Y-68242100D01*
X407899Y-68221357D01*
X398827Y-68207781D01*
X387602Y-68180679D01*
X382943Y-68157257D01*
X381500Y-68142594D01*
X381500Y-64607405D01*
X382943Y-64592743D01*
X387602Y-64569318D01*
X398826Y-64542220D01*
X407901Y-64528639D01*
X428639Y-64507901D01*
X442220Y-64498826D01*
X469318Y-64487602D01*
X492743Y-64482943D01*
X507405Y-64481500D01*
X2136822Y-64481500D01*
X2193332Y-64470258D01*
X2307124Y-64447624D01*
X2467547Y-64381175D01*
X2611923Y-64284706D01*
X2734706Y-64161923D01*
X2831175Y-64017547D01*
X2897624Y-63857124D01*
X2931500Y-63686820D01*
X2931500Y-63600000D01*
X2931500Y-63545149D01*
X2931500Y-40349775D01*
X2931500Y-40313180D01*
X2925198Y-40281500D01*
X2905242Y-40181175D01*
X2897624Y-40142876D01*
X2831175Y-39982453D01*
X2734706Y-39838077D01*
X2734703Y-39838074D01*
X2734701Y-39838071D01*
X2611928Y-39715298D01*
X2611925Y-39715296D01*
X2611923Y-39715294D01*
X2467547Y-39618825D01*
X2467545Y-39618824D01*
X2307127Y-39552377D01*
X2307125Y-39552376D01*
X2136822Y-39518500D01*
X2136820Y-39518500D01*
X2100225Y-39518500D01*
X507405Y-39518500D01*
X492736Y-39517055D01*
X469321Y-39512397D01*
X442215Y-39501170D01*
X428642Y-39492100D01*
X407899Y-39471357D01*
X398827Y-39457781D01*
X387602Y-39430679D01*
X382943Y-39407257D01*
X381500Y-39392594D01*
X381500Y-2002680D01*
X381692Y-1997315D01*
X397590Y-1775027D01*
X399117Y-1764407D01*
X445918Y-1549270D01*
X448935Y-1538989D01*
X525883Y-1332684D01*
X530339Y-1322929D01*
X548210Y-1290201D01*
X635856Y-1129688D01*
X641648Y-1120674D01*
X773605Y-944400D01*
X780620Y-936306D01*
X936306Y-780620D01*
X944400Y-773605D01*
X1120674Y-641648D01*
X1129688Y-635856D01*
X1322933Y-530336D01*
X1332684Y-525883D01*
X1538989Y-448935D01*
X1549270Y-445918D01*
X1764412Y-399116D01*
X1775022Y-397590D01*
X1997315Y-381691D01*
X2002680Y-381500D01*
X3000000Y-381500D01*
X3000000Y-1610527D01*
G37*
%TD.AperFunction*%
%TD*%
%TA.AperFunction,Conductor*%
%TO.N,GND*%
G36*
X157088071Y-91184701D02*
G01*
X157088074Y-91184703D01*
X157088077Y-91184706D01*
X157232453Y-91281175D01*
X157392876Y-91347624D01*
X157495426Y-91368022D01*
X157563178Y-91381500D01*
X157563180Y-91381500D01*
X157599775Y-91381500D01*
X159445149Y-91381500D01*
X159492595Y-91381500D01*
X159507264Y-91382945D01*
X159512983Y-91384082D01*
X159530677Y-91387601D01*
X159557781Y-91398827D01*
X159571357Y-91407899D01*
X159592100Y-91428642D01*
X159601170Y-91442215D01*
X159612398Y-91469322D01*
X159617055Y-91492734D01*
X159618500Y-91507405D01*
X159618500Y-97997319D01*
X159618308Y-98002684D01*
X159602409Y-98224972D01*
X159600882Y-98235592D01*
X159554083Y-98450722D01*
X159551061Y-98461017D01*
X159474117Y-98667311D01*
X159469660Y-98677070D01*
X159364147Y-98870304D01*
X159358346Y-98879331D01*
X159226399Y-99055592D01*
X159219372Y-99063700D01*
X159063700Y-99219372D01*
X159055592Y-99226399D01*
X158879331Y-99358346D01*
X158870304Y-99364147D01*
X158677070Y-99469660D01*
X158667311Y-99474117D01*
X158461017Y-99551061D01*
X158450722Y-99554083D01*
X158235592Y-99600882D01*
X158224972Y-99602409D01*
X158002685Y-99618308D01*
X157997320Y-99618500D01*
X157000000Y-99618500D01*
X157000000Y-98389472D01*
X157129602Y-98354746D01*
X157366308Y-98256699D01*
X157588192Y-98128595D01*
X157791457Y-97972624D01*
X157972624Y-97791457D01*
X158128595Y-97588192D01*
X158256699Y-97366308D01*
X158354746Y-97129602D01*
X158421058Y-96882122D01*
X158454500Y-96628105D01*
X158454500Y-96371895D01*
X158421058Y-96117878D01*
X158354746Y-95870398D01*
X158256699Y-95633692D01*
X158128595Y-95411808D01*
X157972624Y-95208543D01*
X157972611Y-95208529D01*
X157791470Y-95027388D01*
X157791455Y-95027374D01*
X157588194Y-94871406D01*
X157366309Y-94743301D01*
X157129607Y-94645256D01*
X157129606Y-94645255D01*
X157129602Y-94645254D01*
X157038923Y-94620956D01*
X157000000Y-94610527D01*
X157000000Y-91096630D01*
X157088071Y-91184701D01*
G37*
%TD.AperFunction*%
%TA.AperFunction,Conductor*%
G36*
X158002684Y-381691D02*
G01*
X158224975Y-397590D01*
X158235589Y-399116D01*
X158450726Y-445917D01*
X158461014Y-448937D01*
X158612203Y-505328D01*
X158667311Y-525882D01*
X158677070Y-530339D01*
X158870304Y-635852D01*
X158879331Y-641653D01*
X159055592Y-773600D01*
X159063700Y-780627D01*
X159219372Y-936299D01*
X159226399Y-944407D01*
X159358346Y-1120668D01*
X159364147Y-1129695D01*
X159469660Y-1322929D01*
X159474117Y-1332688D01*
X159551061Y-1538982D01*
X159554083Y-1549277D01*
X159600882Y-1764407D01*
X159602409Y-1775027D01*
X159618308Y-1997315D01*
X159618500Y-2002680D01*
X159618500Y-72992594D01*
X159617055Y-73007265D01*
X159612398Y-73030677D01*
X159601170Y-73057784D01*
X159592103Y-73071354D01*
X159571354Y-73092103D01*
X159557784Y-73101170D01*
X159530678Y-73112397D01*
X159507262Y-73117055D01*
X159492595Y-73118500D01*
X157563178Y-73118500D01*
X157392874Y-73152376D01*
X157392872Y-73152377D01*
X157232454Y-73218824D01*
X157088074Y-73315296D01*
X157088071Y-73315298D01*
X157000000Y-73403369D01*
X157000000Y-64615700D01*
X157017593Y-64567362D01*
X157062142Y-64541642D01*
X157075200Y-64540500D01*
X157158088Y-64540500D01*
X157158092Y-64540500D01*
X157391368Y-64503553D01*
X157615992Y-64430568D01*
X157826433Y-64323343D01*
X158017510Y-64184517D01*
X158184517Y-64017510D01*
X158323343Y-63826433D01*
X158430568Y-63615992D01*
X158503553Y-63391368D01*
X158540500Y-63158092D01*
X158540500Y-62921908D01*
X158503553Y-62688632D01*
X158430568Y-62464008D01*
X158323343Y-62253567D01*
X158184517Y-62062490D01*
X158184515Y-62062488D01*
X158184508Y-62062480D01*
X158017519Y-61895491D01*
X158017511Y-61895484D01*
X157826434Y-61756657D01*
X157615991Y-61649431D01*
X157391372Y-61576448D01*
X157391360Y-61576445D01*
X157158094Y-61539500D01*
X157158092Y-61539500D01*
X157075200Y-61539500D01*
X157026862Y-61521907D01*
X157001142Y-61477358D01*
X157000000Y-61464300D01*
X157000000Y-59535700D01*
X157017593Y-59487362D01*
X157062142Y-59461642D01*
X157075200Y-59460500D01*
X157158088Y-59460500D01*
X157158092Y-59460500D01*
X157391368Y-59423553D01*
X157615992Y-59350568D01*
X157826433Y-59243343D01*
X158017510Y-59104517D01*
X158184517Y-58937510D01*
X158323343Y-58746433D01*
X158430568Y-58535992D01*
X158503553Y-58311368D01*
X158540500Y-58078092D01*
X158540500Y-57841908D01*
X158503553Y-57608632D01*
X158430568Y-57384008D01*
X158323343Y-57173567D01*
X158184517Y-56982490D01*
X158184515Y-56982488D01*
X158184508Y-56982480D01*
X158017519Y-56815491D01*
X158017511Y-56815484D01*
X157826434Y-56676657D01*
X157615991Y-56569431D01*
X157391372Y-56496448D01*
X157391360Y-56496445D01*
X157158094Y-56459500D01*
X157158092Y-56459500D01*
X157075200Y-56459500D01*
X157026862Y-56441907D01*
X157001142Y-56397358D01*
X157000000Y-56384300D01*
X157000000Y-51674251D01*
X157002562Y-51654788D01*
X157025500Y-51569183D01*
X157025500Y-51430817D01*
X157002562Y-51345209D01*
X157000000Y-51325747D01*
X157000000Y-45115700D01*
X157017593Y-45067362D01*
X157062142Y-45041642D01*
X157075200Y-45040500D01*
X157158088Y-45040500D01*
X157158092Y-45040500D01*
X157391368Y-45003553D01*
X157615992Y-44930568D01*
X157826433Y-44823343D01*
X158017510Y-44684517D01*
X158184517Y-44517510D01*
X158323343Y-44326433D01*
X158430568Y-44115992D01*
X158503553Y-43891368D01*
X158540500Y-43658092D01*
X158540500Y-43421908D01*
X158503553Y-43188632D01*
X158430568Y-42964008D01*
X158323343Y-42753567D01*
X158184517Y-42562490D01*
X158184515Y-42562488D01*
X158184508Y-42562480D01*
X158017519Y-42395491D01*
X158017511Y-42395484D01*
X157826434Y-42256657D01*
X157615991Y-42149431D01*
X157391372Y-42076448D01*
X157391360Y-42076445D01*
X157158094Y-42039500D01*
X157158092Y-42039500D01*
X157075200Y-42039500D01*
X157026862Y-42021907D01*
X157001142Y-41977358D01*
X157000000Y-41964300D01*
X157000000Y-40035700D01*
X157017593Y-39987362D01*
X157062142Y-39961642D01*
X157075200Y-39960500D01*
X157158088Y-39960500D01*
X157158092Y-39960500D01*
X157391368Y-39923553D01*
X157615992Y-39850568D01*
X157826433Y-39743343D01*
X158017510Y-39604517D01*
X158184517Y-39437510D01*
X158323343Y-39246433D01*
X158430568Y-39035992D01*
X158503553Y-38811368D01*
X158540500Y-38578092D01*
X158540500Y-38341908D01*
X158503553Y-38108632D01*
X158430568Y-37884008D01*
X158323343Y-37673567D01*
X158184517Y-37482490D01*
X158184515Y-37482488D01*
X158184508Y-37482480D01*
X158017519Y-37315491D01*
X158017511Y-37315484D01*
X157826434Y-37176657D01*
X157615991Y-37069431D01*
X157391372Y-36996448D01*
X157391360Y-36996445D01*
X157158094Y-36959500D01*
X157158092Y-36959500D01*
X157075200Y-36959500D01*
X157026862Y-36941907D01*
X157001142Y-36897358D01*
X157000000Y-36884300D01*
X157000000Y-36174251D01*
X157002562Y-36154788D01*
X157025500Y-36069183D01*
X157025500Y-35930817D01*
X157002562Y-35845209D01*
X157000000Y-35825747D01*
X157000000Y-20000000D01*
X157000000Y-5389472D01*
X157129602Y-5354746D01*
X157366308Y-5256699D01*
X157588192Y-5128595D01*
X157791457Y-4972624D01*
X157972624Y-4791457D01*
X158128595Y-4588192D01*
X158256699Y-4366308D01*
X158354746Y-4129602D01*
X158421058Y-3882122D01*
X158454500Y-3628105D01*
X158454500Y-3371895D01*
X158421058Y-3117878D01*
X158354746Y-2870398D01*
X158256699Y-2633692D01*
X158128595Y-2411808D01*
X157972624Y-2208543D01*
X157972611Y-2208529D01*
X157791470Y-2027388D01*
X157791455Y-2027374D01*
X157588194Y-1871406D01*
X157366309Y-1743301D01*
X157129607Y-1645256D01*
X157129606Y-1645255D01*
X157129602Y-1645254D01*
X157038923Y-1620956D01*
X157000000Y-1610527D01*
X157000000Y-381500D01*
X157945149Y-381500D01*
X157997320Y-381500D01*
X158002684Y-381691D01*
G37*
%TD.AperFunction*%
%TD*%
%TA.AperFunction,Conductor*%
%TO.N,GND*%
G36*
X1645254Y-97129602D02*
G01*
X1645255Y-97129604D01*
X1645255Y-97129605D01*
X1743301Y-97366309D01*
X1871406Y-97588194D01*
X2027374Y-97791455D01*
X2027388Y-97791470D01*
X2208529Y-97972611D01*
X2208543Y-97972624D01*
X2411808Y-98128595D01*
X2633692Y-98256699D01*
X2870398Y-98354746D01*
X3117878Y-98421058D01*
X3371895Y-98454500D01*
X3371898Y-98454500D01*
X3628102Y-98454500D01*
X3628105Y-98454500D01*
X3882122Y-98421058D01*
X4129602Y-98354746D01*
X4366308Y-98256699D01*
X4588192Y-98128595D01*
X4791457Y-97972624D01*
X4972624Y-97791457D01*
X5128595Y-97588192D01*
X5256699Y-97366308D01*
X5354746Y-97129602D01*
X5389473Y-97000000D01*
X154610527Y-97000000D01*
X154645254Y-97129602D01*
X154645255Y-97129604D01*
X154645255Y-97129605D01*
X154743301Y-97366309D01*
X154871406Y-97588194D01*
X155027374Y-97791455D01*
X155027388Y-97791470D01*
X155208529Y-97972611D01*
X155208543Y-97972624D01*
X155411808Y-98128595D01*
X155633692Y-98256699D01*
X155870398Y-98354746D01*
X156117878Y-98421058D01*
X156371895Y-98454500D01*
X156371898Y-98454500D01*
X156628102Y-98454500D01*
X156628105Y-98454500D01*
X156882122Y-98421058D01*
X157129602Y-98354746D01*
X157366308Y-98256699D01*
X157588192Y-98128595D01*
X157791457Y-97972624D01*
X157972624Y-97791457D01*
X158128595Y-97588192D01*
X158256699Y-97366308D01*
X158354746Y-97129602D01*
X158389473Y-97000000D01*
X159618500Y-97000000D01*
X159618500Y-97997319D01*
X159618308Y-98002684D01*
X159602409Y-98224972D01*
X159600882Y-98235592D01*
X159554083Y-98450722D01*
X159551061Y-98461017D01*
X159474117Y-98667311D01*
X159469660Y-98677070D01*
X159364147Y-98870304D01*
X159358346Y-98879331D01*
X159226399Y-99055592D01*
X159219372Y-99063700D01*
X159063700Y-99219372D01*
X159055592Y-99226399D01*
X158879331Y-99358346D01*
X158870304Y-99364147D01*
X158677070Y-99469660D01*
X158667311Y-99474117D01*
X158461017Y-99551061D01*
X158450722Y-99554083D01*
X158235592Y-99600882D01*
X158224972Y-99602409D01*
X158002685Y-99618308D01*
X157997320Y-99618500D01*
X2002680Y-99618500D01*
X1997315Y-99618308D01*
X1775027Y-99602409D01*
X1764407Y-99600882D01*
X1549277Y-99554083D01*
X1538982Y-99551061D01*
X1332688Y-99474117D01*
X1322929Y-99469660D01*
X1129695Y-99364147D01*
X1120668Y-99358346D01*
X944407Y-99226399D01*
X936299Y-99219372D01*
X780627Y-99063700D01*
X773600Y-99055592D01*
X641653Y-98879331D01*
X635852Y-98870304D01*
X530339Y-98677070D01*
X525882Y-98667311D01*
X448938Y-98461017D01*
X445916Y-98450722D01*
X403708Y-98256698D01*
X399116Y-98235589D01*
X397590Y-98224972D01*
X381692Y-98002684D01*
X381500Y-97997319D01*
X381500Y-97000000D01*
X1610527Y-97000000D01*
X1645254Y-97129602D01*
G37*
%TD.AperFunction*%
%TD*%
%TA.AperFunction,Conductor*%
%TO.N,GND*%
G36*
X156768500Y-78999800D02*
G01*
X156750907Y-79048138D01*
X156706358Y-79073858D01*
X156693300Y-79075000D01*
X154225200Y-79075000D01*
X154176862Y-79057407D01*
X154151142Y-79012858D01*
X154150000Y-78999800D01*
X154150000Y-74000000D01*
X156768500Y-74000000D01*
X156768500Y-78999800D01*
G37*
%TD.AperFunction*%
%TD*%
D31*
X0Y-2000000D02*
G75*
G02*
X2000000Y0I2000000J0D01*
G01*
D32*
X122400000Y-58000000D02*
X119600001Y-58000000D01*
X119100000Y-59500000D02*
G75*
G02*
X119600000Y-59000000I500000J0D01*
G01*
D31*
X2550000Y-63600000D02*
X2550000Y-40400000D01*
X2050000Y-39900000D02*
G75*
G02*
X2550000Y-40400000I0J-500000D01*
G01*
X0Y-89850000D02*
G75*
G02*
X500000Y-89350000I500000J0D01*
G01*
D32*
X119600000Y-59000000D02*
X122400000Y-59000000D01*
D31*
X157150000Y-74000000D02*
G75*
G02*
X157650000Y-73500000I500000J0D01*
G01*
D32*
X122400000Y-58000000D02*
G75*
G02*
X123900000Y-59500000I0J-1500000D01*
G01*
D31*
X0Y-89850000D02*
X0Y-98000000D01*
X0Y-64600000D02*
G75*
G02*
X500000Y-64100000I500000J0D01*
G01*
X2000000Y-100000000D02*
X158000000Y-100000000D01*
D32*
X123900000Y-62200000D02*
G75*
G02*
X122900000Y-62200000I-500000J0D01*
G01*
D31*
X500000Y-39900000D02*
G75*
G02*
X0Y-39400000I0J500000D01*
G01*
X159500000Y-91000000D02*
X157650000Y-91000000D01*
X2000000Y-100000000D02*
G75*
G02*
X0Y-98000000I0J2000000D01*
G01*
X2350000Y-68650000D02*
X500000Y-68650000D01*
X159500000Y-73500000D02*
X157650000Y-73500000D01*
D32*
X119100000Y-62200000D02*
G75*
G02*
X118100000Y-62200000I-500000J0D01*
G01*
D31*
X160000000Y-98000000D02*
G75*
G02*
X158000000Y-100000000I-2000000J0D01*
G01*
D32*
X123900000Y-59500000D02*
X123900000Y-62200000D01*
D31*
X160000000Y-91500000D02*
X160000000Y-98000000D01*
X159500000Y-91000000D02*
G75*
G02*
X160000000Y-91500000I0J-500000D01*
G01*
X2050000Y-39900000D02*
X500000Y-39900000D01*
D32*
X122900000Y-59500000D02*
X122900000Y-62200000D01*
X118100000Y-59500000D02*
X118100000Y-62200000D01*
X122400000Y-59000000D02*
G75*
G02*
X122900000Y-59500000I0J-500000D01*
G01*
D31*
X160000000Y-73000000D02*
G75*
G02*
X159500000Y-73500000I-500000J0D01*
G01*
X0Y-68150000D02*
X0Y-64600000D01*
D32*
X118100000Y-59500000D02*
G75*
G02*
X119600001Y-58000000I1500000J0D01*
G01*
D31*
X2850000Y-88850000D02*
G75*
G02*
X2350000Y-89350000I-500000J0D01*
G01*
X157150000Y-74000000D02*
X157150000Y-90500000D01*
X500000Y-68650000D02*
G75*
G02*
X0Y-68150000I0J500000D01*
G01*
X160000000Y-73000000D02*
X160000000Y-2000000D01*
X2850000Y-88850000D02*
X2850000Y-69150000D01*
X2350000Y-89350000D02*
X500000Y-89350000D01*
X158000000Y0D02*
X2000000Y0D01*
X2050000Y-64100000D02*
X500000Y-64100000D01*
X157650000Y-91000000D02*
G75*
G02*
X157150000Y-90500000I0J500000D01*
G01*
X2550000Y-63600000D02*
G75*
G02*
X2050000Y-64100000I-500000J0D01*
G01*
D32*
X119100000Y-59500000D02*
X119100000Y-62200000D01*
D31*
X0Y-39400000D02*
X0Y-2000000D01*
X2350000Y-68650000D02*
G75*
G02*
X2850000Y-69150000I0J-500000D01*
G01*
X158000000Y0D02*
G75*
G02*
X160000000Y-2000000I0J-2000000D01*
G01*
M02*
