%TF.GenerationSoftware,KiCad,Pcbnew,9.0.2*%
%TF.CreationDate,2025-05-15T13:19:03-04:00*%
%TF.ProjectId,mainBoard,6d61696e-426f-4617-9264-2e6b69636164,01*%
%TF.SameCoordinates,Original*%
%TF.FileFunction,AssemblyDrawing,Bot*%
%FSLAX46Y46*%
G04 Gerber Fmt 4.6, Leading zero omitted, Abs format (unit mm)*
G04 Created by KiCad (PCBNEW 9.0.2) date 2025-05-15 13:19:03*
%MOMM*%
%LPD*%
G01*
G04 APERTURE LIST*
%ADD10C,0.050000*%
%ADD11C,0.150000*%
%ADD12C,0.100000*%
%ADD13C,0.120000*%
G04 APERTURE END LIST*
D10*
X83273809Y-110628709D02*
X83226190Y-110628709D01*
X83226190Y-110628709D02*
X83178571Y-110652519D01*
X83178571Y-110652519D02*
X83154761Y-110676328D01*
X83154761Y-110676328D02*
X83130952Y-110723947D01*
X83130952Y-110723947D02*
X83107142Y-110819185D01*
X83107142Y-110819185D02*
X83107142Y-110938233D01*
X83107142Y-110938233D02*
X83130952Y-111033471D01*
X83130952Y-111033471D02*
X83154761Y-111081090D01*
X83154761Y-111081090D02*
X83178571Y-111104900D01*
X83178571Y-111104900D02*
X83226190Y-111128709D01*
X83226190Y-111128709D02*
X83273809Y-111128709D01*
X83273809Y-111128709D02*
X83321428Y-111104900D01*
X83321428Y-111104900D02*
X83345237Y-111081090D01*
X83345237Y-111081090D02*
X83369047Y-111033471D01*
X83369047Y-111033471D02*
X83392856Y-110938233D01*
X83392856Y-110938233D02*
X83392856Y-110819185D01*
X83392856Y-110819185D02*
X83369047Y-110723947D01*
X83369047Y-110723947D02*
X83345237Y-110676328D01*
X83345237Y-110676328D02*
X83321428Y-110652519D01*
X83321428Y-110652519D02*
X83273809Y-110628709D01*
X82607143Y-111128709D02*
X82773809Y-110890614D01*
X82892857Y-111128709D02*
X82892857Y-110628709D01*
X82892857Y-110628709D02*
X82702381Y-110628709D01*
X82702381Y-110628709D02*
X82654762Y-110652519D01*
X82654762Y-110652519D02*
X82630952Y-110676328D01*
X82630952Y-110676328D02*
X82607143Y-110723947D01*
X82607143Y-110723947D02*
X82607143Y-110795376D01*
X82607143Y-110795376D02*
X82630952Y-110842995D01*
X82630952Y-110842995D02*
X82654762Y-110866804D01*
X82654762Y-110866804D02*
X82702381Y-110890614D01*
X82702381Y-110890614D02*
X82892857Y-110890614D01*
X73298809Y-57478709D02*
X73251190Y-57478709D01*
X73251190Y-57478709D02*
X73203571Y-57502519D01*
X73203571Y-57502519D02*
X73179761Y-57526328D01*
X73179761Y-57526328D02*
X73155952Y-57573947D01*
X73155952Y-57573947D02*
X73132142Y-57669185D01*
X73132142Y-57669185D02*
X73132142Y-57788233D01*
X73132142Y-57788233D02*
X73155952Y-57883471D01*
X73155952Y-57883471D02*
X73179761Y-57931090D01*
X73179761Y-57931090D02*
X73203571Y-57954900D01*
X73203571Y-57954900D02*
X73251190Y-57978709D01*
X73251190Y-57978709D02*
X73298809Y-57978709D01*
X73298809Y-57978709D02*
X73346428Y-57954900D01*
X73346428Y-57954900D02*
X73370237Y-57931090D01*
X73370237Y-57931090D02*
X73394047Y-57883471D01*
X73394047Y-57883471D02*
X73417856Y-57788233D01*
X73417856Y-57788233D02*
X73417856Y-57669185D01*
X73417856Y-57669185D02*
X73394047Y-57573947D01*
X73394047Y-57573947D02*
X73370237Y-57526328D01*
X73370237Y-57526328D02*
X73346428Y-57502519D01*
X73346428Y-57502519D02*
X73298809Y-57478709D01*
X72632143Y-57978709D02*
X72798809Y-57740614D01*
X72917857Y-57978709D02*
X72917857Y-57478709D01*
X72917857Y-57478709D02*
X72727381Y-57478709D01*
X72727381Y-57478709D02*
X72679762Y-57502519D01*
X72679762Y-57502519D02*
X72655952Y-57526328D01*
X72655952Y-57526328D02*
X72632143Y-57573947D01*
X72632143Y-57573947D02*
X72632143Y-57645376D01*
X72632143Y-57645376D02*
X72655952Y-57692995D01*
X72655952Y-57692995D02*
X72679762Y-57716804D01*
X72679762Y-57716804D02*
X72727381Y-57740614D01*
X72727381Y-57740614D02*
X72917857Y-57740614D01*
X73298809Y-69978709D02*
X73251190Y-69978709D01*
X73251190Y-69978709D02*
X73203571Y-70002519D01*
X73203571Y-70002519D02*
X73179761Y-70026328D01*
X73179761Y-70026328D02*
X73155952Y-70073947D01*
X73155952Y-70073947D02*
X73132142Y-70169185D01*
X73132142Y-70169185D02*
X73132142Y-70288233D01*
X73132142Y-70288233D02*
X73155952Y-70383471D01*
X73155952Y-70383471D02*
X73179761Y-70431090D01*
X73179761Y-70431090D02*
X73203571Y-70454900D01*
X73203571Y-70454900D02*
X73251190Y-70478709D01*
X73251190Y-70478709D02*
X73298809Y-70478709D01*
X73298809Y-70478709D02*
X73346428Y-70454900D01*
X73346428Y-70454900D02*
X73370237Y-70431090D01*
X73370237Y-70431090D02*
X73394047Y-70383471D01*
X73394047Y-70383471D02*
X73417856Y-70288233D01*
X73417856Y-70288233D02*
X73417856Y-70169185D01*
X73417856Y-70169185D02*
X73394047Y-70073947D01*
X73394047Y-70073947D02*
X73370237Y-70026328D01*
X73370237Y-70026328D02*
X73346428Y-70002519D01*
X73346428Y-70002519D02*
X73298809Y-69978709D01*
X72632143Y-70478709D02*
X72798809Y-70240614D01*
X72917857Y-70478709D02*
X72917857Y-69978709D01*
X72917857Y-69978709D02*
X72727381Y-69978709D01*
X72727381Y-69978709D02*
X72679762Y-70002519D01*
X72679762Y-70002519D02*
X72655952Y-70026328D01*
X72655952Y-70026328D02*
X72632143Y-70073947D01*
X72632143Y-70073947D02*
X72632143Y-70145376D01*
X72632143Y-70145376D02*
X72655952Y-70192995D01*
X72655952Y-70192995D02*
X72679762Y-70216804D01*
X72679762Y-70216804D02*
X72727381Y-70240614D01*
X72727381Y-70240614D02*
X72917857Y-70240614D01*
X73298809Y-75478709D02*
X73251190Y-75478709D01*
X73251190Y-75478709D02*
X73203571Y-75502519D01*
X73203571Y-75502519D02*
X73179761Y-75526328D01*
X73179761Y-75526328D02*
X73155952Y-75573947D01*
X73155952Y-75573947D02*
X73132142Y-75669185D01*
X73132142Y-75669185D02*
X73132142Y-75788233D01*
X73132142Y-75788233D02*
X73155952Y-75883471D01*
X73155952Y-75883471D02*
X73179761Y-75931090D01*
X73179761Y-75931090D02*
X73203571Y-75954900D01*
X73203571Y-75954900D02*
X73251190Y-75978709D01*
X73251190Y-75978709D02*
X73298809Y-75978709D01*
X73298809Y-75978709D02*
X73346428Y-75954900D01*
X73346428Y-75954900D02*
X73370237Y-75931090D01*
X73370237Y-75931090D02*
X73394047Y-75883471D01*
X73394047Y-75883471D02*
X73417856Y-75788233D01*
X73417856Y-75788233D02*
X73417856Y-75669185D01*
X73417856Y-75669185D02*
X73394047Y-75573947D01*
X73394047Y-75573947D02*
X73370237Y-75526328D01*
X73370237Y-75526328D02*
X73346428Y-75502519D01*
X73346428Y-75502519D02*
X73298809Y-75478709D01*
X72632143Y-75978709D02*
X72798809Y-75740614D01*
X72917857Y-75978709D02*
X72917857Y-75478709D01*
X72917857Y-75478709D02*
X72727381Y-75478709D01*
X72727381Y-75478709D02*
X72679762Y-75502519D01*
X72679762Y-75502519D02*
X72655952Y-75526328D01*
X72655952Y-75526328D02*
X72632143Y-75573947D01*
X72632143Y-75573947D02*
X72632143Y-75645376D01*
X72632143Y-75645376D02*
X72655952Y-75692995D01*
X72655952Y-75692995D02*
X72679762Y-75716804D01*
X72679762Y-75716804D02*
X72727381Y-75740614D01*
X72727381Y-75740614D02*
X72917857Y-75740614D01*
X83273809Y-92828709D02*
X83226190Y-92828709D01*
X83226190Y-92828709D02*
X83178571Y-92852519D01*
X83178571Y-92852519D02*
X83154761Y-92876328D01*
X83154761Y-92876328D02*
X83130952Y-92923947D01*
X83130952Y-92923947D02*
X83107142Y-93019185D01*
X83107142Y-93019185D02*
X83107142Y-93138233D01*
X83107142Y-93138233D02*
X83130952Y-93233471D01*
X83130952Y-93233471D02*
X83154761Y-93281090D01*
X83154761Y-93281090D02*
X83178571Y-93304900D01*
X83178571Y-93304900D02*
X83226190Y-93328709D01*
X83226190Y-93328709D02*
X83273809Y-93328709D01*
X83273809Y-93328709D02*
X83321428Y-93304900D01*
X83321428Y-93304900D02*
X83345237Y-93281090D01*
X83345237Y-93281090D02*
X83369047Y-93233471D01*
X83369047Y-93233471D02*
X83392856Y-93138233D01*
X83392856Y-93138233D02*
X83392856Y-93019185D01*
X83392856Y-93019185D02*
X83369047Y-92923947D01*
X83369047Y-92923947D02*
X83345237Y-92876328D01*
X83345237Y-92876328D02*
X83321428Y-92852519D01*
X83321428Y-92852519D02*
X83273809Y-92828709D01*
X82607143Y-93328709D02*
X82773809Y-93090614D01*
X82892857Y-93328709D02*
X82892857Y-92828709D01*
X82892857Y-92828709D02*
X82702381Y-92828709D01*
X82702381Y-92828709D02*
X82654762Y-92852519D01*
X82654762Y-92852519D02*
X82630952Y-92876328D01*
X82630952Y-92876328D02*
X82607143Y-92923947D01*
X82607143Y-92923947D02*
X82607143Y-92995376D01*
X82607143Y-92995376D02*
X82630952Y-93042995D01*
X82630952Y-93042995D02*
X82654762Y-93066804D01*
X82654762Y-93066804D02*
X82702381Y-93090614D01*
X82702381Y-93090614D02*
X82892857Y-93090614D01*
X75273809Y-87978709D02*
X75226190Y-87978709D01*
X75226190Y-87978709D02*
X75178571Y-88002519D01*
X75178571Y-88002519D02*
X75154761Y-88026328D01*
X75154761Y-88026328D02*
X75130952Y-88073947D01*
X75130952Y-88073947D02*
X75107142Y-88169185D01*
X75107142Y-88169185D02*
X75107142Y-88288233D01*
X75107142Y-88288233D02*
X75130952Y-88383471D01*
X75130952Y-88383471D02*
X75154761Y-88431090D01*
X75154761Y-88431090D02*
X75178571Y-88454900D01*
X75178571Y-88454900D02*
X75226190Y-88478709D01*
X75226190Y-88478709D02*
X75273809Y-88478709D01*
X75273809Y-88478709D02*
X75321428Y-88454900D01*
X75321428Y-88454900D02*
X75345237Y-88431090D01*
X75345237Y-88431090D02*
X75369047Y-88383471D01*
X75369047Y-88383471D02*
X75392856Y-88288233D01*
X75392856Y-88288233D02*
X75392856Y-88169185D01*
X75392856Y-88169185D02*
X75369047Y-88073947D01*
X75369047Y-88073947D02*
X75345237Y-88026328D01*
X75345237Y-88026328D02*
X75321428Y-88002519D01*
X75321428Y-88002519D02*
X75273809Y-87978709D01*
X74607143Y-88478709D02*
X74773809Y-88240614D01*
X74892857Y-88478709D02*
X74892857Y-87978709D01*
X74892857Y-87978709D02*
X74702381Y-87978709D01*
X74702381Y-87978709D02*
X74654762Y-88002519D01*
X74654762Y-88002519D02*
X74630952Y-88026328D01*
X74630952Y-88026328D02*
X74607143Y-88073947D01*
X74607143Y-88073947D02*
X74607143Y-88145376D01*
X74607143Y-88145376D02*
X74630952Y-88192995D01*
X74630952Y-88192995D02*
X74654762Y-88216804D01*
X74654762Y-88216804D02*
X74702381Y-88240614D01*
X74702381Y-88240614D02*
X74892857Y-88240614D01*
D11*
%TO.C,R1*%
X167650000Y-126050000D02*
X167650000Y-126600000D01*
X167650000Y-126600000D02*
X168750000Y-126600000D01*
D10*
X168200000Y-126603000D02*
X168200000Y-126047000D01*
X168478000Y-126325000D02*
X167922000Y-126325000D01*
D11*
X168750000Y-126050000D02*
X167650000Y-126050000D01*
X168750000Y-126600000D02*
X168750000Y-126050000D01*
D10*
X168408000Y-126325000D02*
G75*
G02*
X167992000Y-126325000I-208000J0D01*
G01*
X167992000Y-126325000D02*
G75*
G02*
X168408000Y-126325000I208000J0D01*
G01*
D11*
%TO.C,R57*%
X218450000Y-71225000D02*
X218450000Y-71775000D01*
X218450000Y-71775000D02*
X219550000Y-71775000D01*
D10*
X218722000Y-71500000D02*
X219278000Y-71500000D01*
X219000000Y-71222000D02*
X219000000Y-71778000D01*
D11*
X219550000Y-71225000D02*
X218450000Y-71225000D01*
X219550000Y-71775000D02*
X219550000Y-71225000D01*
D10*
X219208000Y-71500000D02*
G75*
G02*
X218792000Y-71500000I-208000J0D01*
G01*
X218792000Y-71500000D02*
G75*
G02*
X219208000Y-71500000I208000J0D01*
G01*
%TO.C,TP60*%
D12*
X100100000Y-94700000D02*
X96900000Y-94700000D01*
X96900000Y-96300000D01*
X100100000Y-96300000D01*
X100100000Y-94700000D01*
D10*
%TO.C,R8*%
X159897000Y-138200000D02*
X160453000Y-138200000D01*
D11*
X159900000Y-137650000D02*
X159900000Y-138750000D01*
X159900000Y-138750000D02*
X160450000Y-138750000D01*
D10*
X160175000Y-138478000D02*
X160175000Y-137922000D01*
D11*
X160450000Y-137650000D02*
X159900000Y-137650000D01*
X160450000Y-138750000D02*
X160450000Y-137650000D01*
D10*
X160383000Y-138200000D02*
G75*
G02*
X159967000Y-138200000I-208000J0D01*
G01*
X159967000Y-138200000D02*
G75*
G02*
X160383000Y-138200000I208000J0D01*
G01*
%TO.C,C58*%
X80325000Y-143600000D02*
X81025000Y-143600000D01*
X80675000Y-143250000D02*
X80675000Y-143950000D01*
D11*
X83075000Y-142500000D02*
X78275000Y-142500000D01*
X78275000Y-144700000D01*
X83075000Y-144700000D01*
X83075000Y-142500000D01*
D10*
X80925000Y-143600000D02*
G75*
G02*
X80425000Y-143600000I-250000J0D01*
G01*
X80425000Y-143600000D02*
G75*
G02*
X80925000Y-143600000I250000J0D01*
G01*
D11*
%TO.C,R52*%
X83225000Y-117950000D02*
X83225000Y-119050000D01*
X83225000Y-119050000D02*
X83775000Y-119050000D01*
D10*
X83500000Y-118222000D02*
X83500000Y-118778000D01*
D11*
X83775000Y-117950000D02*
X83225000Y-117950000D01*
X83775000Y-119050000D02*
X83775000Y-117950000D01*
D10*
X83778000Y-118500000D02*
X83222000Y-118500000D01*
X83708000Y-118500000D02*
G75*
G02*
X83292000Y-118500000I-208000J0D01*
G01*
X83292000Y-118500000D02*
G75*
G02*
X83708000Y-118500000I208000J0D01*
G01*
%TO.C,R4*%
X166397000Y-138200000D02*
X166953000Y-138200000D01*
D11*
X166400000Y-137650000D02*
X166400000Y-138750000D01*
X166400000Y-138750000D02*
X166950000Y-138750000D01*
D10*
X166675000Y-138478000D02*
X166675000Y-137922000D01*
D11*
X166950000Y-137650000D02*
X166400000Y-137650000D01*
X166950000Y-138750000D02*
X166950000Y-137650000D01*
D10*
X166883000Y-138200000D02*
G75*
G02*
X166467000Y-138200000I-208000J0D01*
G01*
X166467000Y-138200000D02*
G75*
G02*
X166883000Y-138200000I208000J0D01*
G01*
D11*
%TO.C,C52*%
X78125000Y-117525000D02*
X78125000Y-118475000D01*
X78125000Y-118475000D02*
X79875000Y-118475000D01*
D10*
X79000000Y-118350000D02*
X79000000Y-117650000D01*
X79350000Y-118000000D02*
X78650000Y-118000000D01*
D11*
X79875000Y-117525000D02*
X78125000Y-117525000D01*
X79875000Y-118475000D02*
X79875000Y-117525000D01*
D10*
X79250000Y-118000000D02*
G75*
G02*
X78750000Y-118000000I-250000J0D01*
G01*
X78750000Y-118000000D02*
G75*
G02*
X79250000Y-118000000I250000J0D01*
G01*
D11*
%TO.C,R31*%
X82450000Y-110625000D02*
X82450000Y-111175000D01*
X82450000Y-111175000D02*
X83550000Y-111175000D01*
D10*
X83000000Y-111178000D02*
X83000000Y-110622000D01*
X83278000Y-110900000D02*
X82722000Y-110900000D01*
D11*
X83550000Y-110625000D02*
X82450000Y-110625000D01*
X83550000Y-111175000D02*
X83550000Y-110625000D01*
D10*
X83208000Y-110900000D02*
G75*
G02*
X82792000Y-110900000I-208000J0D01*
G01*
X82792000Y-110900000D02*
G75*
G02*
X83208000Y-110900000I208000J0D01*
G01*
D11*
%TO.C,R79*%
X72475000Y-57475000D02*
X72475000Y-58025000D01*
X72475000Y-58025000D02*
X73575000Y-58025000D01*
D10*
X72747000Y-57750000D02*
X73303000Y-57750000D01*
X73025000Y-57472000D02*
X73025000Y-58028000D01*
D11*
X73575000Y-57475000D02*
X72475000Y-57475000D01*
X73575000Y-58025000D02*
X73575000Y-57475000D01*
D10*
X73233000Y-57750000D02*
G75*
G02*
X72817000Y-57750000I-208000J0D01*
G01*
X72817000Y-57750000D02*
G75*
G02*
X73233000Y-57750000I208000J0D01*
G01*
D11*
%TO.C,C56*%
X78125000Y-137075000D02*
X78125000Y-138025000D01*
X78125000Y-138025000D02*
X79875000Y-138025000D01*
D10*
X79000000Y-137900000D02*
X79000000Y-137200000D01*
X79350000Y-137550000D02*
X78650000Y-137550000D01*
D11*
X79875000Y-137075000D02*
X78125000Y-137075000D01*
X79875000Y-138025000D02*
X79875000Y-137075000D01*
D10*
X79250000Y-137550000D02*
G75*
G02*
X78750000Y-137550000I-250000J0D01*
G01*
X78750000Y-137550000D02*
G75*
G02*
X79250000Y-137550000I250000J0D01*
G01*
%TO.C,TP72*%
D12*
X93900000Y-75800000D02*
X97100000Y-75800000D01*
X97100000Y-74200000D01*
X93900000Y-74200000D01*
X93900000Y-75800000D01*
%TO.C,TP10*%
X202400000Y-102300000D02*
X205600000Y-102300000D01*
X205600000Y-100700000D01*
X202400000Y-100700000D01*
X202400000Y-102300000D01*
%TO.C,TP26*%
X105400000Y-80300000D02*
X108600000Y-80300000D01*
X108600000Y-78700000D01*
X105400000Y-78700000D01*
X105400000Y-80300000D01*
%TO.C,TP82*%
X120400000Y-58300000D02*
X123600000Y-58300000D01*
X123600000Y-56700000D01*
X120400000Y-56700000D01*
X120400000Y-58300000D01*
D11*
%TO.C,C20*%
X152275000Y-128150000D02*
X152275000Y-130350000D01*
X152275000Y-130350000D02*
X153725000Y-130350000D01*
D10*
X152650000Y-129250000D02*
X153350000Y-129250000D01*
X153000000Y-129600000D02*
X153000000Y-128900000D01*
D11*
X153725000Y-128150000D02*
X152275000Y-128150000D01*
X153725000Y-130350000D02*
X153725000Y-128150000D01*
D10*
X153250000Y-129250000D02*
G75*
G02*
X152750000Y-129250000I-250000J0D01*
G01*
X152750000Y-129250000D02*
G75*
G02*
X153250000Y-129250000I250000J0D01*
G01*
%TO.C,TP37*%
D12*
X103500000Y-89600000D02*
X106700000Y-89600000D01*
X106700000Y-88000000D01*
X103500000Y-88000000D01*
X103500000Y-89600000D01*
D11*
%TO.C,C54*%
X78200000Y-140250000D02*
X78200000Y-142050000D01*
X78200000Y-142050000D02*
X81600000Y-142050000D01*
D10*
X79900000Y-141500000D02*
X79900000Y-140800000D01*
X80250000Y-141150000D02*
X79550000Y-141150000D01*
D11*
X81600000Y-140250000D02*
X78200000Y-140250000D01*
X81600000Y-142050000D02*
X81600000Y-140250000D01*
D10*
X80150000Y-141150000D02*
G75*
G02*
X79650000Y-141150000I-250000J0D01*
G01*
X79650000Y-141150000D02*
G75*
G02*
X80150000Y-141150000I250000J0D01*
G01*
D11*
%TO.C,R28*%
X82375000Y-99250000D02*
X82375000Y-100350000D01*
X82375000Y-100350000D02*
X82925000Y-100350000D01*
D10*
X82650000Y-99522000D02*
X82650000Y-100078000D01*
D11*
X82925000Y-99250000D02*
X82375000Y-99250000D01*
X82925000Y-100350000D02*
X82925000Y-99250000D01*
D10*
X82928000Y-99800000D02*
X82372000Y-99800000D01*
X82858000Y-99800000D02*
G75*
G02*
X82442000Y-99800000I-208000J0D01*
G01*
X82442000Y-99800000D02*
G75*
G02*
X82858000Y-99800000I208000J0D01*
G01*
D11*
%TO.C,R2*%
X167650000Y-127400000D02*
X167650000Y-127950000D01*
X167650000Y-127950000D02*
X168750000Y-127950000D01*
D10*
X168200000Y-127953000D02*
X168200000Y-127397000D01*
X168478000Y-127675000D02*
X167922000Y-127675000D01*
D11*
X168750000Y-127400000D02*
X167650000Y-127400000D01*
X168750000Y-127950000D02*
X168750000Y-127400000D01*
D10*
X168408000Y-127675000D02*
G75*
G02*
X167992000Y-127675000I-208000J0D01*
G01*
X167992000Y-127675000D02*
G75*
G02*
X168408000Y-127675000I208000J0D01*
G01*
D11*
%TO.C,R85*%
X109100000Y-70200000D02*
X109100000Y-70750000D01*
X109100000Y-70750000D02*
X110200000Y-70750000D01*
D10*
X109650000Y-70753000D02*
X109650000Y-70197000D01*
X109928000Y-70475000D02*
X109372000Y-70475000D01*
D11*
X110200000Y-70200000D02*
X109100000Y-70200000D01*
X110200000Y-70750000D02*
X110200000Y-70200000D01*
D10*
X109858000Y-70475000D02*
G75*
G02*
X109442000Y-70475000I-208000J0D01*
G01*
X109442000Y-70475000D02*
G75*
G02*
X109858000Y-70475000I208000J0D01*
G01*
D11*
%TO.C,C107*%
X100825000Y-112175000D02*
X100825000Y-113225000D01*
X100825000Y-113225000D02*
X101375000Y-113225000D01*
D10*
X101100000Y-112422000D02*
X101100000Y-112978000D01*
D11*
X101375000Y-112175000D02*
X100825000Y-112175000D01*
X101375000Y-113225000D02*
X101375000Y-112175000D01*
D10*
X101378000Y-112700000D02*
X100822000Y-112700000D01*
X101308000Y-112700000D02*
G75*
G02*
X100892000Y-112700000I-208000J0D01*
G01*
X100892000Y-112700000D02*
G75*
G02*
X101308000Y-112700000I208000J0D01*
G01*
%TO.C,D7*%
D12*
X83625000Y-103000000D02*
X84875000Y-103000000D01*
X84875000Y-101000000D01*
X83625000Y-101000000D01*
X83625000Y-103000000D01*
D11*
%TO.C,R78*%
X72475000Y-69975000D02*
X72475000Y-70525000D01*
X72475000Y-70525000D02*
X73575000Y-70525000D01*
D10*
X72747000Y-70250000D02*
X73303000Y-70250000D01*
X73025000Y-69972000D02*
X73025000Y-70528000D01*
D11*
X73575000Y-69975000D02*
X72475000Y-69975000D01*
X73575000Y-70525000D02*
X73575000Y-69975000D01*
D10*
X73233000Y-70250000D02*
G75*
G02*
X72817000Y-70250000I-208000J0D01*
G01*
X72817000Y-70250000D02*
G75*
G02*
X73233000Y-70250000I208000J0D01*
G01*
%TO.C,D6*%
D12*
X76500000Y-99625000D02*
X75450000Y-99625000D01*
X75450000Y-100275000D01*
X76500000Y-100275000D01*
X76500000Y-99625000D01*
D11*
%TO.C,R83*%
X109100000Y-71475000D02*
X109100000Y-72025000D01*
X109100000Y-72025000D02*
X110200000Y-72025000D01*
D10*
X109372000Y-71750000D02*
X109928000Y-71750000D01*
X109650000Y-71472000D02*
X109650000Y-72028000D01*
D11*
X110200000Y-71475000D02*
X109100000Y-71475000D01*
X110200000Y-72025000D02*
X110200000Y-71475000D01*
D10*
X109858000Y-71750000D02*
G75*
G02*
X109442000Y-71750000I-208000J0D01*
G01*
X109442000Y-71750000D02*
G75*
G02*
X109858000Y-71750000I208000J0D01*
G01*
%TO.C,TP9*%
D12*
X185200000Y-83900000D02*
X186800000Y-83900000D01*
X186800000Y-87100000D01*
X185200000Y-87100000D01*
X185200000Y-83900000D01*
%TO.C,TP79*%
X117400000Y-63300000D02*
X120600000Y-63300000D01*
X120600000Y-61700000D01*
X117400000Y-61700000D01*
X117400000Y-63300000D01*
D11*
%TO.C,R17*%
X145250000Y-134725000D02*
X145250000Y-135275000D01*
X145250000Y-135275000D02*
X146350000Y-135275000D01*
D10*
X145522000Y-135000000D02*
X146078000Y-135000000D01*
X145800000Y-134722000D02*
X145800000Y-135278000D01*
D11*
X146350000Y-134725000D02*
X145250000Y-134725000D01*
X146350000Y-135275000D02*
X146350000Y-134725000D01*
D10*
X146008000Y-135000000D02*
G75*
G02*
X145592000Y-135000000I-208000J0D01*
G01*
X145592000Y-135000000D02*
G75*
G02*
X146008000Y-135000000I208000J0D01*
G01*
%TO.C,C6*%
X150972000Y-131500000D02*
X151528000Y-131500000D01*
D11*
X150975000Y-130975000D02*
X150975000Y-132025000D01*
X150975000Y-132025000D02*
X151525000Y-132025000D01*
D10*
X151250000Y-131778000D02*
X151250000Y-131222000D01*
D11*
X151525000Y-130975000D02*
X150975000Y-130975000D01*
X151525000Y-132025000D02*
X151525000Y-130975000D01*
D10*
X151458000Y-131500000D02*
G75*
G02*
X151042000Y-131500000I-208000J0D01*
G01*
X151042000Y-131500000D02*
G75*
G02*
X151458000Y-131500000I208000J0D01*
G01*
D12*
X151125000Y-122475000D02*
X151125000Y-123025000D01*
X151275000Y-123025000D02*
G75*
G02*
X151125000Y-123025000I-75000J0D01*
G01*
X151275000Y-123025000D02*
X151275000Y-122475000D01*
X151275000Y-122475000D02*
G75*
G03*
X151125000Y-122475000I-75000J0D01*
G01*
X151200000Y-123100000D02*
X152300000Y-123100000D01*
X152300000Y-122950000D02*
G75*
G02*
X152300000Y-123100000I0J-75000D01*
G01*
X152300000Y-122950000D02*
X151200000Y-122950000D01*
X151200000Y-122950000D02*
G75*
G03*
X151200000Y-123100000I0J-75000D01*
G01*
X151472000Y-122775000D02*
X152028000Y-122775000D01*
X152028000Y-122725000D02*
G75*
G02*
X152028000Y-122775000I0J-25000D01*
G01*
X152028000Y-122725000D02*
X151472000Y-122725000D01*
X151472000Y-122725000D02*
G75*
G03*
X151472000Y-122775000I0J-25000D01*
G01*
X151725000Y-122472000D02*
X151725000Y-123028000D01*
X151775000Y-123028000D02*
G75*
G02*
X151725000Y-123028000I-25000J0D01*
G01*
X151775000Y-123028000D02*
X151775000Y-122472000D01*
X151775000Y-122472000D02*
G75*
G03*
X151725000Y-122472000I-25000J0D01*
G01*
X152300000Y-122400000D02*
X151200000Y-122400000D01*
X151200000Y-122550000D02*
G75*
G02*
X151200000Y-122400000I0J75000D01*
G01*
X151200000Y-122550000D02*
X152300000Y-122550000D01*
X152300000Y-122550000D02*
G75*
G03*
X152300000Y-122400000I0J75000D01*
G01*
X152375000Y-123025000D02*
X152375000Y-122475000D01*
X152225000Y-122475000D02*
G75*
G02*
X152375000Y-122475000I75000J0D01*
G01*
X152225000Y-122475000D02*
X152225000Y-123025000D01*
X152225000Y-123025000D02*
G75*
G03*
X152375000Y-123025000I75000J0D01*
G01*
D10*
%TO.C,R12*%
D12*
X151983000Y-122750000D02*
G75*
G02*
X151517000Y-122750000I-233000J0D01*
G01*
X151517000Y-122750000D02*
G75*
G02*
X151983000Y-122750000I233000J0D01*
G01*
X151933000Y-122750000D02*
G75*
G02*
X151567000Y-122750000I-183000J0D01*
G01*
X151567000Y-122750000D02*
G75*
G02*
X151933000Y-122750000I183000J0D01*
G01*
D11*
%TO.C,R16*%
X167550000Y-131975000D02*
X167550000Y-132525000D01*
X167550000Y-132525000D02*
X168650000Y-132525000D01*
D10*
X167822000Y-132250000D02*
X168378000Y-132250000D01*
X168100000Y-131972000D02*
X168100000Y-132528000D01*
D11*
X168650000Y-131975000D02*
X167550000Y-131975000D01*
X168650000Y-132525000D02*
X168650000Y-131975000D01*
D10*
X168308000Y-132250000D02*
G75*
G02*
X167892000Y-132250000I-208000J0D01*
G01*
X167892000Y-132250000D02*
G75*
G02*
X168308000Y-132250000I208000J0D01*
G01*
%TO.C,TP36*%
D12*
X161900000Y-100700000D02*
X165100000Y-100700000D01*
X165100000Y-99100000D01*
X161900000Y-99100000D01*
X161900000Y-100700000D01*
D11*
%TO.C,C5*%
X150975000Y-126475000D02*
X150975000Y-127525000D01*
X150975000Y-127525000D02*
X151525000Y-127525000D01*
D10*
X151250000Y-126722000D02*
X151250000Y-127278000D01*
D11*
X151525000Y-126475000D02*
X150975000Y-126475000D01*
X151525000Y-127525000D02*
X151525000Y-126475000D01*
D10*
X151528000Y-127000000D02*
X150972000Y-127000000D01*
X151458000Y-127000000D02*
G75*
G02*
X151042000Y-127000000I-208000J0D01*
G01*
X151042000Y-127000000D02*
G75*
G02*
X151458000Y-127000000I208000J0D01*
G01*
%TO.C,J39*%
X127250000Y-68450000D02*
X127250000Y-69150000D01*
X127600000Y-68800000D02*
X126900000Y-68800000D01*
D12*
X129750000Y-66950000D02*
X129250000Y-66260000D01*
X130250000Y-66260000D02*
X129750000Y-66950000D01*
D13*
X132250000Y-66260000D02*
X122250000Y-66260000D01*
X122250000Y-74100000D01*
X132250000Y-74100000D01*
X132250000Y-66260000D01*
D10*
X127500000Y-68800000D02*
G75*
G02*
X127000000Y-68800000I-250000J0D01*
G01*
X127000000Y-68800000D02*
G75*
G02*
X127500000Y-68800000I250000J0D01*
G01*
%TO.C,C137*%
X107672000Y-67300000D02*
X108228000Y-67300000D01*
D11*
X107675000Y-66775000D02*
X107675000Y-67825000D01*
X107675000Y-67825000D02*
X108225000Y-67825000D01*
D10*
X107950000Y-67578000D02*
X107950000Y-67022000D01*
D11*
X108225000Y-66775000D02*
X107675000Y-66775000D01*
X108225000Y-67825000D02*
X108225000Y-66775000D01*
D10*
X108158000Y-67300000D02*
G75*
G02*
X107742000Y-67300000I-208000J0D01*
G01*
X107742000Y-67300000D02*
G75*
G02*
X108158000Y-67300000I208000J0D01*
G01*
D11*
%TO.C,R6*%
X155550000Y-121525000D02*
X155550000Y-122625000D01*
X155550000Y-122625000D02*
X156100000Y-122625000D01*
D10*
X155825000Y-121797000D02*
X155825000Y-122353000D01*
D11*
X156100000Y-121525000D02*
X155550000Y-121525000D01*
X156100000Y-122625000D02*
X156100000Y-121525000D01*
D10*
X156103000Y-122075000D02*
X155547000Y-122075000D01*
X156033000Y-122075000D02*
G75*
G02*
X155617000Y-122075000I-208000J0D01*
G01*
X155617000Y-122075000D02*
G75*
G02*
X156033000Y-122075000I208000J0D01*
G01*
D11*
%TO.C,C134*%
X104275000Y-66775000D02*
X104275000Y-67825000D01*
X104275000Y-67825000D02*
X104825000Y-67825000D01*
D10*
X104550000Y-67022000D02*
X104550000Y-67578000D01*
D11*
X104825000Y-66775000D02*
X104275000Y-66775000D01*
X104825000Y-67825000D02*
X104825000Y-66775000D01*
D10*
X104828000Y-67300000D02*
X104272000Y-67300000D01*
X104758000Y-67300000D02*
G75*
G02*
X104342000Y-67300000I-208000J0D01*
G01*
X104342000Y-67300000D02*
G75*
G02*
X104758000Y-67300000I208000J0D01*
G01*
%TO.C,TP58*%
D12*
X210200000Y-78900000D02*
X211800000Y-78900000D01*
X211800000Y-82100000D01*
X210200000Y-82100000D01*
X210200000Y-78900000D01*
%TO.C,TP47*%
X195900000Y-78300000D02*
X199100000Y-78300000D01*
X199100000Y-76700000D01*
X195900000Y-76700000D01*
X195900000Y-78300000D01*
D11*
%TO.C,R7*%
X156900000Y-121525000D02*
X156900000Y-122625000D01*
X156900000Y-122625000D02*
X157450000Y-122625000D01*
D10*
X157175000Y-121797000D02*
X157175000Y-122353000D01*
D11*
X157450000Y-121525000D02*
X156900000Y-121525000D01*
X157450000Y-122625000D02*
X157450000Y-121525000D01*
D10*
X157453000Y-122075000D02*
X156897000Y-122075000D01*
X157383000Y-122075000D02*
G75*
G02*
X156967000Y-122075000I-208000J0D01*
G01*
X156967000Y-122075000D02*
G75*
G02*
X157383000Y-122075000I208000J0D01*
G01*
D11*
%TO.C,R19*%
X145250000Y-133475000D02*
X145250000Y-134025000D01*
X145250000Y-134025000D02*
X146350000Y-134025000D01*
D10*
X145522000Y-133750000D02*
X146078000Y-133750000D01*
X145800000Y-133472000D02*
X145800000Y-134028000D01*
D11*
X146350000Y-133475000D02*
X145250000Y-133475000D01*
X146350000Y-134025000D02*
X146350000Y-133475000D01*
D10*
X146008000Y-133750000D02*
G75*
G02*
X145592000Y-133750000I-208000J0D01*
G01*
X145592000Y-133750000D02*
G75*
G02*
X146008000Y-133750000I208000J0D01*
G01*
%TO.C,R9*%
X158547000Y-138200000D02*
X159103000Y-138200000D01*
D11*
X158550000Y-137650000D02*
X158550000Y-138750000D01*
X158550000Y-138750000D02*
X159100000Y-138750000D01*
D10*
X158825000Y-138478000D02*
X158825000Y-137922000D01*
D11*
X159100000Y-137650000D02*
X158550000Y-137650000D01*
X159100000Y-138750000D02*
X159100000Y-137650000D01*
D10*
X159033000Y-138200000D02*
G75*
G02*
X158617000Y-138200000I-208000J0D01*
G01*
X158617000Y-138200000D02*
G75*
G02*
X159033000Y-138200000I208000J0D01*
G01*
D11*
%TO.C,R70*%
X72475000Y-75475000D02*
X72475000Y-76025000D01*
X72475000Y-76025000D02*
X73575000Y-76025000D01*
D10*
X72747000Y-75750000D02*
X73303000Y-75750000D01*
X73025000Y-75472000D02*
X73025000Y-76028000D01*
D11*
X73575000Y-75475000D02*
X72475000Y-75475000D01*
X73575000Y-76025000D02*
X73575000Y-75475000D01*
D10*
X73233000Y-75750000D02*
G75*
G02*
X72817000Y-75750000I-208000J0D01*
G01*
X72817000Y-75750000D02*
G75*
G02*
X73233000Y-75750000I208000J0D01*
G01*
D11*
%TO.C,R32*%
X82450000Y-92825000D02*
X82450000Y-93375000D01*
X82450000Y-93375000D02*
X83550000Y-93375000D01*
D10*
X83000000Y-93378000D02*
X83000000Y-92822000D01*
X83278000Y-93100000D02*
X82722000Y-93100000D01*
D11*
X83550000Y-92825000D02*
X82450000Y-92825000D01*
X83550000Y-93375000D02*
X83550000Y-92825000D01*
D10*
X83208000Y-93100000D02*
G75*
G02*
X82792000Y-93100000I-208000J0D01*
G01*
X82792000Y-93100000D02*
G75*
G02*
X83208000Y-93100000I208000J0D01*
G01*
D11*
%TO.C,R20*%
X145250000Y-130975000D02*
X145250000Y-131525000D01*
X145250000Y-131525000D02*
X146350000Y-131525000D01*
D10*
X145522000Y-131250000D02*
X146078000Y-131250000D01*
X145800000Y-130972000D02*
X145800000Y-131528000D01*
D11*
X146350000Y-130975000D02*
X145250000Y-130975000D01*
X146350000Y-131525000D02*
X146350000Y-130975000D01*
D10*
X146008000Y-131250000D02*
G75*
G02*
X145592000Y-131250000I-208000J0D01*
G01*
X145592000Y-131250000D02*
G75*
G02*
X146008000Y-131250000I208000J0D01*
G01*
D12*
%TO.C,J34*%
X94287500Y-109900000D02*
X94287500Y-117500000D01*
X95587500Y-109100000D02*
X95587500Y-109900000D01*
X95587500Y-109900000D02*
X94287500Y-109900000D01*
X95587500Y-117500000D02*
X94287500Y-117500000D01*
X95587500Y-118300000D02*
X95587500Y-117500000D01*
X99137500Y-109100000D02*
X95587500Y-109100000D01*
X99137500Y-109100000D02*
X99537500Y-109100000D01*
X99137500Y-109700000D02*
X99137500Y-117700000D01*
X99137500Y-117700000D02*
X99537500Y-117700000D01*
X99137500Y-118300000D02*
X95587500Y-118300000D01*
X99537500Y-109100000D02*
X99537500Y-109700000D01*
X99537500Y-109700000D02*
X99137500Y-109700000D01*
X99537500Y-117700000D02*
X99537500Y-118300000D01*
X99537500Y-118300000D02*
X99137500Y-118300000D01*
D10*
%TO.C,R50*%
X83722000Y-140500000D02*
X84278000Y-140500000D01*
D11*
X83725000Y-139950000D02*
X83725000Y-141050000D01*
X83725000Y-141050000D02*
X84275000Y-141050000D01*
D10*
X84000000Y-140778000D02*
X84000000Y-140222000D01*
D11*
X84275000Y-139950000D02*
X83725000Y-139950000D01*
X84275000Y-141050000D02*
X84275000Y-139950000D01*
D10*
X84208000Y-140500000D02*
G75*
G02*
X83792000Y-140500000I-208000J0D01*
G01*
X83792000Y-140500000D02*
G75*
G02*
X84208000Y-140500000I208000J0D01*
G01*
D13*
%TO.C,D31*%
X72200000Y-67050000D02*
X75000000Y-67050000D01*
X72200000Y-68950000D02*
X72200000Y-67050000D01*
D10*
X73250000Y-68000000D02*
X73950000Y-68000000D01*
X73600000Y-67650000D02*
X73600000Y-68350000D01*
D13*
X74400000Y-68950000D02*
X72200000Y-68950000D01*
X75000000Y-67050000D02*
X75000000Y-68350000D01*
X75000000Y-68350000D02*
X74400000Y-68950000D01*
D10*
X73850000Y-68000000D02*
G75*
G02*
X73350000Y-68000000I-250000J0D01*
G01*
X73350000Y-68000000D02*
G75*
G02*
X73850000Y-68000000I250000J0D01*
G01*
D12*
%TO.C,D24*%
X72575000Y-81575000D02*
X73825000Y-81575000D01*
X72575000Y-82425000D02*
X72575000Y-81575000D01*
D10*
X72850000Y-82000000D02*
X73550000Y-82000000D01*
X73200000Y-81650000D02*
X73200000Y-82350000D01*
D12*
X73450000Y-82425000D02*
X72575000Y-82425000D01*
X73825000Y-81575000D02*
X73825000Y-82050000D01*
X73825000Y-82050000D02*
X73450000Y-82425000D01*
D10*
X73450000Y-82000000D02*
G75*
G02*
X72950000Y-82000000I-250000J0D01*
G01*
X72950000Y-82000000D02*
G75*
G02*
X73450000Y-82000000I250000J0D01*
G01*
D11*
%TO.C,R18*%
X145250000Y-132225000D02*
X145250000Y-132775000D01*
X145250000Y-132775000D02*
X146350000Y-132775000D01*
D10*
X145522000Y-132500000D02*
X146078000Y-132500000D01*
X145800000Y-132222000D02*
X145800000Y-132778000D01*
D11*
X146350000Y-132225000D02*
X145250000Y-132225000D01*
X146350000Y-132775000D02*
X146350000Y-132225000D01*
D10*
X146008000Y-132500000D02*
G75*
G02*
X145592000Y-132500000I-208000J0D01*
G01*
X145592000Y-132500000D02*
G75*
G02*
X146008000Y-132500000I208000J0D01*
G01*
D12*
%TO.C,D25*%
X72575000Y-79875000D02*
X73825000Y-79875000D01*
X72575000Y-80725000D02*
X72575000Y-79875000D01*
D10*
X72850000Y-80300000D02*
X73550000Y-80300000D01*
X73200000Y-79950000D02*
X73200000Y-80650000D01*
D12*
X73450000Y-80725000D02*
X72575000Y-80725000D01*
X73825000Y-79875000D02*
X73825000Y-80350000D01*
X73825000Y-80350000D02*
X73450000Y-80725000D01*
D10*
X73450000Y-80300000D02*
G75*
G02*
X72950000Y-80300000I-250000J0D01*
G01*
X72950000Y-80300000D02*
G75*
G02*
X73450000Y-80300000I250000J0D01*
G01*
D11*
%TO.C,C33*%
X183800000Y-128975000D02*
X183800000Y-129525000D01*
X183800000Y-129525000D02*
X184850000Y-129525000D01*
D10*
X184047000Y-129250000D02*
X184603000Y-129250000D01*
X184325000Y-128972000D02*
X184325000Y-129528000D01*
D11*
X184850000Y-128975000D02*
X183800000Y-128975000D01*
X184850000Y-129525000D02*
X184850000Y-128975000D01*
D10*
X184533000Y-129250000D02*
G75*
G02*
X184117000Y-129250000I-208000J0D01*
G01*
X184117000Y-129250000D02*
G75*
G02*
X184533000Y-129250000I208000J0D01*
G01*
D11*
%TO.C,R69*%
X74450000Y-87975000D02*
X74450000Y-88525000D01*
X74450000Y-88525000D02*
X75550000Y-88525000D01*
D10*
X74722000Y-88250000D02*
X75278000Y-88250000D01*
X75000000Y-87972000D02*
X75000000Y-88528000D01*
D11*
X75550000Y-87975000D02*
X74450000Y-87975000D01*
X75550000Y-88525000D02*
X75550000Y-87975000D01*
D10*
X75208000Y-88250000D02*
G75*
G02*
X74792000Y-88250000I-208000J0D01*
G01*
X74792000Y-88250000D02*
G75*
G02*
X75208000Y-88250000I208000J0D01*
G01*
%TO.C,TP35*%
D12*
X145400000Y-139800000D02*
X148600000Y-139800000D01*
X148600000Y-138200000D01*
X145400000Y-138200000D01*
X145400000Y-139800000D01*
%TO.C,TP19*%
X113400000Y-114800000D02*
X116600000Y-114800000D01*
X116600000Y-113200000D01*
X113400000Y-113200000D01*
X113400000Y-114800000D01*
%TO.C,D5*%
X187775000Y-124750000D02*
X185275000Y-124750000D01*
X185275000Y-125750000D01*
X187775000Y-125750000D01*
X187775000Y-124750000D01*
%TO.C,TP59*%
X112900000Y-121000000D02*
X109700000Y-121000000D01*
X109700000Y-122600000D01*
X112900000Y-122600000D01*
X112900000Y-121000000D01*
%TO.C,TP71*%
X140400000Y-64800000D02*
X143600000Y-64800000D01*
X143600000Y-63200000D01*
X140400000Y-63200000D01*
X140400000Y-64800000D01*
D10*
%TO.C,C21*%
X150972000Y-129250000D02*
X151528000Y-129250000D01*
D11*
X150975000Y-128725000D02*
X150975000Y-129775000D01*
X150975000Y-129775000D02*
X151525000Y-129775000D01*
D10*
X151250000Y-129528000D02*
X151250000Y-128972000D01*
D11*
X151525000Y-128725000D02*
X150975000Y-128725000D01*
X151525000Y-129775000D02*
X151525000Y-128725000D01*
D10*
X151458000Y-129250000D02*
G75*
G02*
X151042000Y-129250000I-208000J0D01*
G01*
X151042000Y-129250000D02*
G75*
G02*
X151458000Y-129250000I208000J0D01*
G01*
%TO.C,R5*%
X165047000Y-138200000D02*
X165603000Y-138200000D01*
D11*
X165050000Y-137650000D02*
X165050000Y-138750000D01*
X165050000Y-138750000D02*
X165600000Y-138750000D01*
D10*
X165325000Y-138478000D02*
X165325000Y-137922000D01*
D11*
X165600000Y-137650000D02*
X165050000Y-137650000D01*
X165600000Y-138750000D02*
X165600000Y-137650000D01*
D10*
X165533000Y-138200000D02*
G75*
G02*
X165117000Y-138200000I-208000J0D01*
G01*
X165117000Y-138200000D02*
G75*
G02*
X165533000Y-138200000I208000J0D01*
G01*
%TO.C,TP57*%
D12*
X171200000Y-77400000D02*
X172800000Y-77400000D01*
X172800000Y-80600000D01*
X171200000Y-80600000D01*
X171200000Y-77400000D01*
%TO.C,D26*%
X92275000Y-118275000D02*
X93525000Y-118275000D01*
X92275000Y-119125000D02*
X92275000Y-118275000D01*
D10*
X92550000Y-118700000D02*
X93250000Y-118700000D01*
X92900000Y-118350000D02*
X92900000Y-119050000D01*
D12*
X93150000Y-119125000D02*
X92275000Y-119125000D01*
X93525000Y-118275000D02*
X93525000Y-118750000D01*
X93525000Y-118750000D02*
X93150000Y-119125000D01*
D10*
X93150000Y-118700000D02*
G75*
G02*
X92650000Y-118700000I-250000J0D01*
G01*
X92650000Y-118700000D02*
G75*
G02*
X93150000Y-118700000I250000J0D01*
G01*
D11*
%TO.C,R43*%
X85000000Y-142625000D02*
X85000000Y-143175000D01*
X85000000Y-143175000D02*
X86100000Y-143175000D01*
D10*
X85272000Y-142900000D02*
X85828000Y-142900000D01*
X85550000Y-142622000D02*
X85550000Y-143178000D01*
D11*
X86100000Y-142625000D02*
X85000000Y-142625000D01*
X86100000Y-143175000D02*
X86100000Y-142625000D01*
D10*
X85758000Y-142900000D02*
G75*
G02*
X85342000Y-142900000I-208000J0D01*
G01*
X85342000Y-142900000D02*
G75*
G02*
X85758000Y-142900000I208000J0D01*
G01*
D11*
%TO.C,C51*%
X77300000Y-115100000D02*
X77300000Y-116900000D01*
X77300000Y-116900000D02*
X80700000Y-116900000D01*
D10*
X79000000Y-116350000D02*
X79000000Y-115650000D01*
X79350000Y-116000000D02*
X78650000Y-116000000D01*
D11*
X80700000Y-115100000D02*
X77300000Y-115100000D01*
X80700000Y-116900000D02*
X80700000Y-115100000D01*
D10*
X79250000Y-116000000D02*
G75*
G02*
X78750000Y-116000000I-250000J0D01*
G01*
X78750000Y-116000000D02*
G75*
G02*
X79250000Y-116000000I250000J0D01*
G01*
D11*
%TO.C,R65*%
X218450000Y-75225000D02*
X218450000Y-75775000D01*
X218450000Y-75775000D02*
X219550000Y-75775000D01*
D10*
X218722000Y-75500000D02*
X219278000Y-75500000D01*
X219000000Y-75222000D02*
X219000000Y-75778000D01*
D11*
X219550000Y-75225000D02*
X218450000Y-75225000D01*
X219550000Y-75775000D02*
X219550000Y-75225000D01*
D10*
X219208000Y-75500000D02*
G75*
G02*
X218792000Y-75500000I-208000J0D01*
G01*
X218792000Y-75500000D02*
G75*
G02*
X219208000Y-75500000I208000J0D01*
G01*
D11*
%TO.C,R29*%
X75525000Y-102950000D02*
X75525000Y-104050000D01*
X75525000Y-104050000D02*
X76075000Y-104050000D01*
D10*
X75800000Y-103222000D02*
X75800000Y-103778000D01*
D11*
X76075000Y-102950000D02*
X75525000Y-102950000D01*
X76075000Y-104050000D02*
X76075000Y-102950000D01*
D10*
X76078000Y-103500000D02*
X75522000Y-103500000D01*
X76008000Y-103500000D02*
G75*
G02*
X75592000Y-103500000I-208000J0D01*
G01*
X75592000Y-103500000D02*
G75*
G02*
X76008000Y-103500000I208000J0D01*
G01*
D11*
%TO.C,R10*%
X151200000Y-121225000D02*
X151200000Y-121775000D01*
X151200000Y-121775000D02*
X152300000Y-121775000D01*
D10*
X151472000Y-121500000D02*
X152028000Y-121500000D01*
X151750000Y-121222000D02*
X151750000Y-121778000D01*
D11*
X152300000Y-121225000D02*
X151200000Y-121225000D01*
X152300000Y-121775000D02*
X152300000Y-121225000D01*
D10*
X151958000Y-121500000D02*
G75*
G02*
X151542000Y-121500000I-208000J0D01*
G01*
X151542000Y-121500000D02*
G75*
G02*
X151958000Y-121500000I208000J0D01*
G01*
D11*
%TO.C,R61*%
X218450000Y-73225000D02*
X218450000Y-73775000D01*
X218450000Y-73775000D02*
X219550000Y-73775000D01*
D10*
X218722000Y-73500000D02*
X219278000Y-73500000D01*
X219000000Y-73222000D02*
X219000000Y-73778000D01*
D11*
X219550000Y-73225000D02*
X218450000Y-73225000D01*
X219550000Y-73775000D02*
X219550000Y-73225000D01*
D10*
X219208000Y-73500000D02*
G75*
G02*
X218792000Y-73500000I-208000J0D01*
G01*
X218792000Y-73500000D02*
G75*
G02*
X219208000Y-73500000I208000J0D01*
G01*
%TO.C,TP27*%
D12*
X152200000Y-75900000D02*
X153800000Y-75900000D01*
X153800000Y-79100000D01*
X152200000Y-79100000D01*
X152200000Y-75900000D01*
D11*
%TO.C,C53*%
X78125000Y-119225000D02*
X78125000Y-120175000D01*
X78125000Y-120175000D02*
X79875000Y-120175000D01*
D10*
X79000000Y-120050000D02*
X79000000Y-119350000D01*
X79350000Y-119700000D02*
X78650000Y-119700000D01*
D11*
X79875000Y-119225000D02*
X78125000Y-119225000D01*
X79875000Y-120175000D02*
X79875000Y-119225000D01*
D10*
X79250000Y-119700000D02*
G75*
G02*
X78750000Y-119700000I-250000J0D01*
G01*
X78750000Y-119700000D02*
G75*
G02*
X79250000Y-119700000I250000J0D01*
G01*
%TO.C,TP73*%
D12*
X163400000Y-80800000D02*
X166600000Y-80800000D01*
X166600000Y-79200000D01*
X163400000Y-79200000D01*
X163400000Y-80800000D01*
D11*
%TO.C,R46*%
X85000000Y-144025000D02*
X85000000Y-144575000D01*
X85000000Y-144575000D02*
X86100000Y-144575000D01*
D10*
X85272000Y-144300000D02*
X85828000Y-144300000D01*
X85550000Y-144022000D02*
X85550000Y-144578000D01*
D11*
X86100000Y-144025000D02*
X85000000Y-144025000D01*
X86100000Y-144575000D02*
X86100000Y-144025000D01*
D10*
X85758000Y-144300000D02*
G75*
G02*
X85342000Y-144300000I-208000J0D01*
G01*
X85342000Y-144300000D02*
G75*
G02*
X85758000Y-144300000I208000J0D01*
G01*
%TO.C,TP48*%
D12*
X156800000Y-129400000D02*
X158400000Y-129400000D01*
X158400000Y-132600000D01*
X156800000Y-132600000D01*
X156800000Y-129400000D01*
%TO.C,D4*%
X182000000Y-131375000D02*
X184500000Y-131375000D01*
X184500000Y-130375000D01*
X182000000Y-130375000D01*
X182000000Y-131375000D01*
D11*
%TO.C,C55*%
X78125000Y-138725000D02*
X78125000Y-139675000D01*
X78125000Y-139675000D02*
X79875000Y-139675000D01*
D10*
X79000000Y-139550000D02*
X79000000Y-138850000D01*
X79350000Y-139200000D02*
X78650000Y-139200000D01*
D11*
X79875000Y-138725000D02*
X78125000Y-138725000D01*
X79875000Y-139675000D02*
X79875000Y-138725000D01*
D10*
X79250000Y-139200000D02*
G75*
G02*
X78750000Y-139200000I-250000J0D01*
G01*
X78750000Y-139200000D02*
G75*
G02*
X79250000Y-139200000I250000J0D01*
G01*
D11*
%TO.C,R51*%
X81725000Y-117950000D02*
X81725000Y-119050000D01*
X81725000Y-119050000D02*
X82275000Y-119050000D01*
D10*
X82000000Y-118222000D02*
X82000000Y-118778000D01*
D11*
X82275000Y-117950000D02*
X81725000Y-117950000D01*
X82275000Y-119050000D02*
X82275000Y-117950000D01*
D10*
X82278000Y-118500000D02*
X81722000Y-118500000D01*
X82208000Y-118500000D02*
G75*
G02*
X81792000Y-118500000I-208000J0D01*
G01*
X81792000Y-118500000D02*
G75*
G02*
X82208000Y-118500000I208000J0D01*
G01*
D12*
%TO.C,D27*%
X92275000Y-119675000D02*
X93525000Y-119675000D01*
X92275000Y-120525000D02*
X92275000Y-119675000D01*
D10*
X92550000Y-120100000D02*
X93250000Y-120100000D01*
X92900000Y-119750000D02*
X92900000Y-120450000D01*
D12*
X93150000Y-120525000D02*
X92275000Y-120525000D01*
X93525000Y-119675000D02*
X93525000Y-120150000D01*
X93525000Y-120150000D02*
X93150000Y-120525000D01*
D10*
X93150000Y-120100000D02*
G75*
G02*
X92650000Y-120100000I-250000J0D01*
G01*
X92650000Y-120100000D02*
G75*
G02*
X93150000Y-120100000I250000J0D01*
G01*
D11*
%TO.C,R21*%
X145250000Y-129725000D02*
X145250000Y-130275000D01*
X145250000Y-130275000D02*
X146350000Y-130275000D01*
D10*
X145522000Y-130000000D02*
X146078000Y-130000000D01*
X145800000Y-129722000D02*
X145800000Y-130278000D01*
D11*
X146350000Y-129725000D02*
X145250000Y-129725000D01*
X146350000Y-130275000D02*
X146350000Y-129725000D01*
D10*
X146008000Y-130000000D02*
G75*
G02*
X145592000Y-130000000I-208000J0D01*
G01*
X145592000Y-130000000D02*
G75*
G02*
X146008000Y-130000000I208000J0D01*
G01*
%TO.C,TP50*%
D12*
X114200000Y-134400000D02*
X115800000Y-134400000D01*
X115800000Y-137600000D01*
X114200000Y-137600000D01*
X114200000Y-134400000D01*
%TO.C,J38*%
X111800000Y-66500000D02*
X111800000Y-74100000D01*
X112600000Y-66500000D02*
X111800000Y-66500000D01*
X112600000Y-68100000D02*
X112600000Y-66500000D01*
D10*
X115750000Y-70300000D02*
X115750000Y-71000000D01*
X116100000Y-70650000D02*
X115400000Y-70650000D01*
D12*
X116750000Y-68807107D02*
X116250000Y-68100000D01*
X117250000Y-68100000D02*
X116750000Y-68807107D01*
X118900000Y-66500000D02*
X118900000Y-68100000D01*
X118900000Y-68100000D02*
X112600000Y-68100000D01*
X119700000Y-66500000D02*
X118900000Y-66500000D01*
X119700000Y-66500000D02*
X119700000Y-74100000D01*
X119700000Y-74100000D02*
X111800000Y-74100000D01*
D10*
X116000000Y-70650000D02*
G75*
G02*
X115500000Y-70650000I-250000J0D01*
G01*
X115500000Y-70650000D02*
G75*
G02*
X116000000Y-70650000I250000J0D01*
G01*
%TO.C,TP49*%
D12*
X125400000Y-97100000D02*
X128600000Y-97100000D01*
X128600000Y-95500000D01*
X125400000Y-95500000D01*
X125400000Y-97100000D01*
D11*
%TO.C,R80*%
X109100000Y-68925000D02*
X109100000Y-69475000D01*
X109100000Y-69475000D02*
X110200000Y-69475000D01*
D10*
X109650000Y-69478000D02*
X109650000Y-68922000D01*
X109928000Y-69200000D02*
X109372000Y-69200000D01*
D11*
X110200000Y-68925000D02*
X109100000Y-68925000D01*
X110200000Y-69475000D02*
X110200000Y-68925000D01*
D10*
X109858000Y-69200000D02*
G75*
G02*
X109442000Y-69200000I-208000J0D01*
G01*
X109442000Y-69200000D02*
G75*
G02*
X109858000Y-69200000I208000J0D01*
G01*
%TD*%
D12*
X150600000Y-122100000D02*
X152900000Y-123400000D01*
X150600000Y-123400000D02*
X152900000Y-122100000D01*
M02*
