M48
; DRILL file {KiCad 9.0.2} date 2025-05-19T09:59:34-0400
; FORMAT={-:-/ absolute / metric / decimal}
; #@! TF.CreationDate,2025-05-19T09:59:34-04:00
; #@! TF.GenerationSoftware,Kicad,Pcbnew,9.0.2
; #@! TF.FileFunction,Plated,1,6,PTH
FMAT,2
METRIC
; #@! TA.AperFunction,Plated,PTH,ComponentDrill
T1C0.250
; #@! TA.AperFunction,Plated,PTH,ViaDrill
T2C0.254
; #@! TA.AperFunction,Plated,PTH,ViaDrill
T3C0.305
; #@! TA.AperFunction,Plated,PTH,ViaDrill
T4C0.381
; #@! TA.AperFunction,Plated,PTH,ViaDrill
T5C0.508
; #@! TA.AperFunction,Plated,PTH,ComponentDrill
T6C0.530
; #@! TA.AperFunction,Plated,PTH,ComponentDrill
T7C0.900
; #@! TA.AperFunction,Plated,PTH,ComponentDrill
T8C0.950
; #@! TA.AperFunction,Plated,PTH,ComponentDrill
T9C1.100
; #@! TA.AperFunction,Plated,PTH,ComponentDrill
T10C1.250
; #@! TA.AperFunction,Plated,PTH,ComponentDrill
T11C1.300
; #@! TA.AperFunction,Plated,PTH,ComponentDrill
T12C1.400
; #@! TA.AperFunction,Plated,PTH,ComponentDrill
T13C1.700
; #@! TA.AperFunction,Plated,PTH,ComponentDrill
T14C1.800
; #@! TA.AperFunction,Plated,PTH,ComponentDrill
T15C1.850
; #@! TA.AperFunction,Plated,PTH,ComponentDrill
T16C2.000
; #@! TA.AperFunction,Plated,PTH,ComponentDrill
T17C4.200
%
G90
G05
T2
X1.5Y-65.0
X1.5Y-67.0
X1.7Y-6.0
X1.7Y-10.0
X1.7Y-14.0
X1.7Y-22.0
X1.7Y-26.0
X1.7Y-30.0
X1.7Y-34.0
X1.7Y-38.0
X2.5Y-66.0
X2.5Y-90.0
X2.5Y-94.0
X3.5Y-65.0
X3.5Y-67.0
X4.0Y-6.0
X4.0Y-10.0
X4.0Y-14.0
X4.0Y-22.0
X4.0Y-34.0
X4.5Y-40.0
X4.5Y-44.0
X4.5Y-48.0
X4.5Y-52.0
X4.5Y-56.0
X4.5Y-60.0
X4.5Y-64.0
X4.5Y-68.0
X4.5Y-72.0
X4.5Y-76.0
X4.5Y-80.0
X4.5Y-84.0
X4.5Y-88.0
X4.5Y-92.0
X5.0Y-25.0
X5.5Y-65.0
X5.5Y-67.0
X6.0Y-1.7
X6.0Y-4.0
X6.0Y-12.0
X6.0Y-16.0
X6.0Y-24.0
X6.0Y-28.0
X6.0Y-36.0
X6.0Y-98.3
X6.5Y-90.0
X6.5Y-94.0
X6.55Y-52.975
X7.0Y-19.0
X7.0Y-61.0
X7.0Y-63.0
X8.0Y-6.0
X8.0Y-10.0
X8.0Y-14.0
X8.0Y-22.0
X8.0Y-42.0
X8.0Y-62.0
X9.0Y-63.0
X10.0Y-1.7
X10.0Y-4.0
X10.0Y-18.0
X10.0Y-24.0
X10.0Y-28.0
X10.0Y-36.0
X10.0Y-40.0
X10.0Y-62.0
X10.0Y-92.0
X10.0Y-96.0
X10.0Y-98.3
X11.0Y-35.0
X11.0Y-63.0
X12.0Y-6.0
X12.0Y-10.0
X12.0Y-26.0
X12.0Y-38.0
X12.0Y-42.0
X12.0Y-62.0
X14.0Y-1.7
X14.0Y-4.0
X14.0Y-8.0
X14.0Y-12.0
X14.0Y-28.0
X14.0Y-32.0
X14.0Y-36.0
X14.0Y-40.0
X14.0Y-44.0
X14.0Y-60.0
X14.0Y-96.0
X14.0Y-98.3
X16.0Y-6.0
X16.0Y-10.0
X16.0Y-14.0
X16.0Y-26.0
X16.0Y-30.0
X16.0Y-34.0
X16.0Y-38.0
X16.0Y-42.0
X16.0Y-46.0
X16.0Y-50.0
X16.0Y-58.0
X16.0Y-62.0
X16.0Y-66.0
X16.0Y-90.0
X16.5Y-16.75
X16.5Y-18.75
X17.5Y-15.75
X18.0Y-1.7
X18.0Y-4.0
X18.0Y-8.0
X18.0Y-12.0
X18.0Y-60.0
X18.0Y-68.0
X18.0Y-92.0
X18.0Y-96.0
X18.0Y-98.3
X19.0Y-93.0
X19.5Y-15.75
X20.0Y-10.0
X20.0Y-14.0
X20.0Y-62.0
X20.0Y-70.0
X20.0Y-74.0
X20.0Y-78.0
X20.0Y-92.0
X20.41Y-51.06
X20.65Y-33.95
X20.75Y-46.5
X20.94Y-51.59
X21.5Y-15.75
X21.75Y-51.75
X22.0Y-1.7
X22.0Y-8.0
X22.0Y-40.0
X22.0Y-44.0
X22.0Y-60.0
X22.0Y-64.0
X22.0Y-92.0
X22.0Y-98.3
X22.175Y-49.725
X22.5Y-10.75
X22.5Y-12.75
X22.5Y-14.75
X23.0Y-45.0
X23.5Y-9.75
X23.85Y-35.55
X24.0Y-6.0
X24.0Y-30.0
X24.0Y-38.0
X24.0Y-42.0
X24.0Y-53.65
X24.0Y-66.0
X24.0Y-94.0
X24.05Y-49.75
X24.4Y-17.3
X24.5Y-10.75
X24.73Y-35.75
X24.8Y-37.65
X25.0Y-52.65
X25.0Y-53.65
X25.0Y-54.65
X25.0Y-69.0
X25.25Y-46.55
X25.3Y-32.5
X25.5Y-9.75
X25.5Y-35.5
X26.0Y-1.7
X26.0Y-4.0
X26.0Y-8.0
X26.0Y-24.0
X26.0Y-28.0
X26.0Y-32.0
X26.0Y-40.0
X26.0Y-53.65
X26.0Y-62.0
X26.0Y-64.0
X26.0Y-92.0
X26.0Y-96.0
X26.0Y-98.3
X26.325Y-47.3
X26.5Y-10.75
X26.845Y-49.9
X27.0Y-46.0
X27.5Y-9.75
X27.5Y-70.25
X27.625Y-55.575
X28.0Y-6.0
X28.0Y-26.0
X28.0Y-47.0
X28.0Y-94.0
X28.115Y-49.9
X28.25Y-64.2
X28.25Y-65.2
X28.3Y-66.1
X28.5Y-10.75
X28.8Y-42.0
X29.0Y-70.25
X29.3Y-34.05
X29.385Y-49.9
X29.5Y-9.75
X30.0Y-1.7
X30.0Y-4.0
X30.0Y-8.0
X30.0Y-28.0
X30.0Y-40.0
X30.0Y-92.0
X30.0Y-96.0
X30.0Y-98.3
X30.225Y-61.1
X30.325Y-62.2
X30.325Y-63.2
X30.5Y-10.75
X30.5Y-70.25
X30.655Y-49.9
X30.825Y-51.575
X31.0Y-45.0
X31.5Y-9.75
X31.6Y-41.55
X31.625Y-42.301
X31.625Y-52.5
X32.0Y-6.0
X32.0Y-26.0
X32.0Y-34.0
X32.0Y-38.0
X32.0Y-94.0
X32.325Y-23.05
X32.375Y-42.301
X32.375Y-52.5
X32.375Y-56.525
X32.4Y-62.3
X32.402Y-41.551
X32.5Y-10.75
X32.55Y-18.65
X32.55Y-70.05
X32.725Y-23.725
X32.775Y-24.5
X32.9Y-49.775
X33.125Y-64.45
X33.175Y-51.0
X33.35Y-67.3
X33.4Y-37.325
X33.5Y-9.75
X33.5Y-68.875
X33.5Y-69.625
X33.575Y-45.825
X33.65Y-16.45
X33.65Y-47.55
X33.7Y-46.775
X33.7Y-55.275
X33.725Y-50.35
X33.95Y-51.8
X34.0Y-1.7
X34.0Y-4.0
X34.0Y-40.0
X34.0Y-92.0
X34.0Y-96.0
X34.0Y-98.3
X34.05Y-58.15
X34.073Y-35.6
X34.075Y-36.95
X34.125Y-52.625
X34.125Y-53.3
X34.625Y-58.925
X34.75Y-8.25
X34.8Y-53.3
X35.2Y-34.1
X35.35Y-17.9
X35.5Y-65.35
X35.5Y-66.0
X35.5Y-66.65
X35.75Y-13.9
X35.75Y-14.75
X35.85Y-17.65
X35.85Y-18.225
X35.875Y-34.75
X36.0Y-6.0
X36.0Y-24.8
X36.0Y-94.0
X36.2Y-47.55
X36.2Y-48.5
X36.2Y-49.45
X36.2Y-50.4
X36.2Y-51.35
X36.25Y-8.25
X36.25Y-13.5
X36.25Y-14.35
X36.25Y-44.8
X36.35Y-53.575
X36.45Y-75.35
X36.45Y-76.3
X36.45Y-81.7
X36.45Y-82.65
X36.6Y-41.65
X36.6Y-42.5
X36.675Y-17.65
X36.675Y-18.225
X36.75Y-13.9
X36.75Y-14.75
X36.75Y-36.95
X37.1Y-24.775
X37.15Y-47.55
X37.15Y-48.5
X37.15Y-49.45
X37.15Y-50.4
X37.15Y-51.35
X37.175Y-17.925
X37.6Y-36.9
X37.675Y-65.025
X37.75Y-8.25
X37.8Y-54.775
X37.925Y-22.0
X37.925Y-36.175
X38.0Y-1.7
X38.0Y-4.0
X38.0Y-92.0
X38.0Y-96.0
X38.0Y-98.3
X38.1Y-47.55
X38.1Y-48.5
X38.1Y-49.45
X38.1Y-50.4
X38.1Y-51.35
X38.1Y-58.35
X38.1Y-59.575
X38.1Y-61.225
X38.125Y-73.933
X38.125Y-84.067
X38.15Y-37.6
X38.2Y-40.9
X38.35Y-41.65
X38.6Y-40.1
X39.0Y-9.75
X39.0Y-44.45
X39.05Y-47.55
X39.05Y-48.5
X39.05Y-49.45
X39.05Y-50.4
X39.05Y-51.35
X39.075Y-73.933
X39.075Y-84.067
X39.175Y-37.047
X39.25Y-64.4
X39.55Y-62.15
X39.6Y-43.85
X39.728Y-40.075
X40.0Y-6.0
X40.0Y-10.75
X40.0Y-47.55
X40.0Y-48.5
X40.0Y-49.45
X40.0Y-50.4
X40.0Y-51.35
X40.175Y-44.35
X40.375Y-54.675
X40.475Y-31.5
X40.928Y-60.3
X41.0Y-9.75
X41.25Y-30.725
X41.25Y-31.5
X41.25Y-32.275
X41.4Y-28.4
X41.55Y-53.85
X42.0Y-1.7
X42.0Y-4.0
X42.0Y-8.0
X42.0Y-10.75
X42.0Y-41.025
X42.0Y-42.025
X42.0Y-53.0
X42.0Y-92.0
X42.0Y-96.0
X42.0Y-98.3
X42.025Y-31.5
X42.082Y-44.582
X42.1Y-56.1
X42.35Y-28.6
X42.4Y-51.3
X42.85Y-29.85
X42.85Y-52.7
X42.9Y-51.9
X42.9Y-55.2
X42.9Y-56.2
X43.0Y-9.75
X43.0Y-65.0
X43.175Y-39.683
X43.25Y-29.2
X43.45Y-48.15
X43.5Y-51.426
X44.0Y-6.0
X44.0Y-10.75
X44.0Y-38.0
X44.0Y-79.0
X44.0Y-90.0
X44.0Y-94.0
X44.1Y-29.2
X44.15Y-42.85
X44.225Y-18.9
X44.593Y-62.007
X44.95Y-74.975
X45.0Y-9.75
X45.0Y-78.0
X45.0Y-79.0
X45.0Y-80.0
X45.05Y-43.55
X45.2Y-53.2
X45.375Y-75.775
X45.8Y-46.85
X45.8Y-47.475
X45.8Y-48.3
X45.8Y-50.0
X45.825Y-49.25
X45.9Y-51.8
X45.9Y-52.65
X46.0Y-1.7
X46.0Y-4.0
X46.0Y-8.0
X46.0Y-10.75
X46.0Y-36.0
X46.0Y-40.0
X46.0Y-54.0
X46.0Y-79.0
X46.0Y-88.0
X46.0Y-92.0
X46.0Y-96.0
X46.0Y-98.3
X46.125Y-45.05
X47.0Y-9.75
X47.0Y-55.0
X47.1Y-19.5
X47.5Y-43.675
X48.0Y-6.0
X48.0Y-10.75
X48.0Y-38.0
X48.0Y-60.0
X48.1Y-72.975
X48.325Y-86.9
X48.35Y-43.05
X48.825Y-73.275
X49.0Y-9.75
X49.0Y-86.525
X49.0Y-91.0
X49.0Y-93.0
X49.017Y-87.35
X49.15Y-43.075
X49.65Y-46.35
X50.0Y-1.7
X50.0Y-4.0
X50.0Y-10.75
X50.0Y-62.0
X50.0Y-98.3
X50.1Y-41.5
X50.1Y-42.25
X50.1Y-75.3
X50.125Y-45.77
X50.4Y-20.0
X50.75Y-41.0
X50.75Y-72.75
X51.0Y-9.75
X51.0Y-95.0
X51.85Y-86.525
X51.85Y-87.35
X51.875Y-88.225
X51.875Y-89.925
X52.0Y-6.0
X52.0Y-10.75
X52.0Y-38.0
X52.0Y-53.5
X52.1Y-64.15
X52.5Y-41.0
X52.525Y-81.075
X52.975Y-66.975
X53.0Y-9.75
X53.0Y-41.5
X53.0Y-42.25
X53.05Y-65.0
X53.3Y-73.65
X53.3Y-75.0
X53.3Y-77.7
X53.525Y-77.0
X54.0Y-1.7
X54.0Y-4.0
X54.0Y-10.75
X54.0Y-32.0
X54.0Y-36.0
X54.0Y-40.0
X54.0Y-53.5
X54.0Y-60.0
X54.0Y-98.3
X54.1Y-76.35
X54.125Y-75.525
X54.375Y-70.975
X55.0Y-9.75
X55.0Y-23.0
X55.0Y-69.0
X55.475Y-70.975
X56.0Y-6.0
X56.0Y-10.75
X56.0Y-20.0
X56.0Y-24.0
X56.0Y-30.0
X56.0Y-33.0
X56.0Y-38.0
X56.0Y-62.0
X56.25Y-43.1
X56.25Y-89.6
X56.25Y-91.2
X56.65Y-67.65
X57.0Y-23.0
X57.15Y-40.4
X57.25Y-8.4
X57.75Y-76.8
X58.0Y-1.7
X58.0Y-4.0
X58.0Y-8.0
X58.0Y-24.0
X58.0Y-31.0
X58.0Y-36.0
X58.0Y-53.5
X58.0Y-60.0
X58.0Y-64.0
X58.0Y-70.8
X58.0Y-78.0
X58.0Y-80.0
X58.0Y-88.0
X58.0Y-92.0
X58.0Y-98.3
X58.175Y-66.975
X58.45Y-77.4
X58.675Y-41.8
X58.75Y-40.525
X58.85Y-70.8
X59.0Y-20.0
X59.0Y-23.0
X59.0Y-91.0
X59.5Y-53.5
X60.0Y-24.0
X60.0Y-34.0
X60.0Y-62.0
X60.0Y-78.0
X60.0Y-82.0
X60.0Y-94.0
X60.55Y-67.35
X60.6Y-40.25
X60.925Y-69.425
X61.0Y-23.0
X61.0Y-53.5
X61.0Y-91.0
X61.1Y-37.75
X61.45Y-40.35
X61.45Y-40.95
X61.75Y-28.5
X62.0Y-1.7
X62.0Y-4.0
X62.0Y-20.0
X62.0Y-50.0
X62.0Y-52.0
X62.0Y-56.0
X62.0Y-64.0
X62.0Y-84.0
X62.0Y-98.3
X62.025Y-70.85
X62.5Y-53.5
X62.9Y-38.9
X63.0Y-47.0
X63.0Y-52.65
X63.0Y-69.0
X63.0Y-71.0
X63.1Y-86.6
X63.475Y-74.4
X63.475Y-76.168
X63.75Y-28.75
X64.0Y-34.0
X64.0Y-83.75
X64.0Y-94.0
X64.05Y-40.9
X64.1Y-35.65
X64.35Y-48.475
X64.35Y-52.675
X64.4Y-36.75
X64.4Y-40.3
X64.4Y-80.8
X64.5Y-53.5
X64.65Y-33.0
X64.675Y-72.3
X65.0Y-67.0
X65.0Y-82.75
X65.0Y-83.75
X65.0Y-84.75
X65.525Y-70.725
X65.55Y-28.95
X65.65Y-80.8
X65.675Y-65.925
X66.0Y-1.7
X66.0Y-4.0
X66.0Y-36.0
X66.0Y-38.0
X66.0Y-40.0
X66.0Y-42.0
X66.0Y-56.0
X66.0Y-60.0
X66.0Y-83.75
X66.0Y-98.3
X66.25Y-49.375
X67.0Y-58.5
X67.0Y-67.0
X67.0Y-91.0
X67.225Y-69.025
X67.35Y-30.75
X68.075Y-28.825
X68.25Y-29.75
X68.25Y-30.5
X68.25Y-31.25
X68.25Y-32.0
X68.3Y-61.15
X68.5Y-12.5
X68.5Y-16.5
X68.5Y-18.5
X68.5Y-20.5
X68.5Y-22.5
X68.625Y-29.1
X68.675Y-28.0
X68.8Y-24.8
X68.8Y-76.425
X68.8Y-77.775
X68.825Y-65.125
X68.825Y-69.35
X68.95Y-51.6
X68.95Y-52.7
X68.95Y-53.8
X69.0Y-32.1
X69.0Y-58.5
X69.125Y-28.775
X69.5Y-17.5
X69.55Y-22.65
X69.625Y-28.45
X69.75Y-32.1
X69.8Y-69.225
X70.0Y-1.7
X70.0Y-4.0
X70.0Y-34.0
X70.0Y-60.0
X70.0Y-88.0
X70.0Y-98.3
X70.05Y-51.6
X70.05Y-52.7
X70.05Y-53.8
X70.125Y-28.125
X70.25Y-74.5
X70.35Y-84.35
X70.375Y-65.075
X70.5Y-12.5
X70.5Y-32.1
X70.625Y-27.8
X71.0Y-58.5
X71.0Y-71.0
X71.0Y-73.0
X71.0Y-81.0
X71.25Y-32.1
X71.275Y-68.025
X71.5Y-24.05
X72.0Y-23.75
X72.0Y-32.1
X72.0Y-34.0
X72.5Y-12.5
X72.5Y-24.05
X72.75Y-32.1
X73.0Y-58.5
X73.0Y-71.0
X73.0Y-91.0
X73.225Y-52.375
X73.5Y-27.8
X73.5Y-32.1
X73.675Y-67.35
X74.0Y-1.7
X74.0Y-4.0
X74.0Y-28.125
X74.0Y-34.0
X74.0Y-60.0
X74.0Y-98.3
X74.25Y-32.1
X74.475Y-22.925
X74.5Y-12.5
X74.5Y-17.5
X74.5Y-19.5
X74.5Y-28.45
X74.5Y-82.5
X74.5Y-83.75
X75.0Y-28.775
X75.0Y-32.1
X75.0Y-39.0
X75.0Y-43.0
X75.0Y-46.0
X75.0Y-57.0
X75.0Y-58.5
X75.0Y-70.7
X75.075Y-73.5
X75.075Y-74.5
X75.5Y-16.5
X75.5Y-18.5
X75.5Y-29.1
X75.525Y-72.25
X75.75Y-29.75
X75.75Y-30.5
X75.75Y-31.25
X75.75Y-32.0
X76.0Y-47.0
X76.0Y-52.0
X76.0Y-56.0
X76.5Y-12.5
X77.0Y-46.0
X77.0Y-71.0
X77.0Y-83.275
X77.2Y-84.625
X77.25Y-82.025
X77.6Y-81.25
X77.625Y-80.375
X77.75Y-71.0
X78.0Y-1.7
X78.0Y-37.0
X78.0Y-39.0
X78.0Y-41.0
X78.0Y-43.0
X78.0Y-45.0
X78.0Y-98.3
X78.025Y-73.5
X78.025Y-74.5
X78.025Y-86.5
X78.025Y-87.5
X78.65Y-54.05
X79.0Y-4.0
X79.0Y-6.0
X79.0Y-8.0
X79.0Y-10.0
X79.0Y-12.0
X79.0Y-14.0
X79.0Y-16.0
X79.0Y-18.0
X79.0Y-20.0
X79.0Y-22.0
X79.0Y-24.0
X79.0Y-26.0
X79.0Y-28.0
X79.0Y-30.0
X79.0Y-32.0
X79.0Y-34.0
X79.0Y-36.0
X79.0Y-38.0
X79.0Y-40.0
X79.0Y-42.0
X79.0Y-44.0
X79.0Y-46.0
X79.0Y-49.25
X79.75Y-54.05
X80.0Y-50.0
X80.15Y-66.85
X80.475Y-76.7
X80.475Y-77.5
X80.475Y-78.75
X80.475Y-79.75
X80.475Y-81.0
X80.475Y-82.0
X80.525Y-68.6
X80.65Y-83.0
X80.8Y-85.25
X80.975Y-93.825
X81.0Y-92.5
X81.15Y-46.45
X81.25Y-54.05
X81.5Y-68.025
X81.525Y-34.85
X81.525Y-37.15
X81.675Y-89.075
X81.75Y-85.925
X81.75Y-87.75
X81.75Y-93.8
X82.0Y-1.7
X82.0Y-4.0
X82.0Y-8.0
X82.0Y-12.0
X82.0Y-16.0
X82.0Y-20.0
X82.0Y-24.0
X82.0Y-32.0
X82.0Y-36.0
X82.0Y-98.3
X82.333Y-93.2
X82.5Y-68.025
X82.5Y-88.25
X82.525Y-86.725
X82.75Y-56.95
X82.75Y-89.45
X82.825Y-41.825
X82.825Y-43.225
X83.0Y-39.0
X83.0Y-51.0
X83.0Y-91.975
X83.15Y-72.1
X83.25Y-34.075
X83.25Y-37.925
X83.3Y-82.3
X83.5Y-87.25
X83.55Y-72.75
X83.6Y-74.2
X83.737Y-76.862
X84.0Y-6.0
X84.0Y-14.0
X84.0Y-18.0
X84.0Y-30.0
X84.0Y-34.0
X84.0Y-54.0
X84.0Y-68.0
X84.0Y-73.55
X84.0Y-91.975
X84.25Y-57.0
X84.45Y-33.35
X84.5Y-76.8
X84.55Y-41.05
X84.55Y-44.0
X84.825Y-34.0
X84.875Y-63.525
X84.875Y-70.75
X84.95Y-94.05
X85.0Y-95.4
X85.014Y-67.801
X85.25Y-76.675
X85.3Y-36.0
X85.5Y-40.75
X85.5Y-94.8
X85.55Y-40.0
X85.55Y-53.8
X85.75Y-57.0
X85.75Y-67.5
X85.8Y-34.0
X85.875Y-70.75
X85.875Y-79.075
X86.0Y-1.7
X86.0Y-4.0
X86.0Y-16.0
X86.0Y-28.0
X86.0Y-50.5
X86.0Y-52.0
X86.0Y-98.3
X86.2Y-80.0
X86.2Y-82.0
X86.25Y-40.25
X86.25Y-85.5
X86.25Y-87.25
X86.25Y-89.25
X86.475Y-78.125
X86.5Y-72.6
X86.55Y-34.0
X86.55Y-36.0
X86.6Y-30.575
X86.75Y-46.45
X87.05Y-96.425
X87.1Y-32.55
X87.1Y-33.45
X87.1Y-70.75
X87.25Y-40.25
X87.375Y-94.225
X87.5Y-95.7
X87.8Y-36.0
X87.8Y-65.65
X87.85Y-63.5
X87.975Y-96.4
X88.0Y-6.0
X88.0Y-14.0
X88.0Y-18.0
X88.0Y-26.0
X88.0Y-40.75
X88.0Y-53.9
X88.25Y-66.25
X88.25Y-71.5
X88.25Y-94.0
X88.275Y-93.25
X88.3Y-42.525
X88.5Y-68.025
X88.55Y-70.8
X88.6Y-63.5
X88.75Y-92.25
X88.775Y-95.925
X88.825Y-89.5
X89.0Y-79.0
X89.0Y-82.0
X89.0Y-83.75
X89.0Y-95.1
X89.075Y-93.25
X89.4Y-63.475
X89.425Y-32.425
X89.427Y-74.626
X89.427Y-75.376
X89.5Y-68.025
X89.5Y-87.675
X89.55Y-35.75
X90.0Y-1.7
X90.0Y-4.0
X90.0Y-16.0
X90.0Y-28.0
X90.0Y-85.5
X90.0Y-91.975
X90.0Y-98.3
X90.15Y-50.5
X90.15Y-63.475
X90.175Y-89.5
X90.2Y-46.45
X90.75Y-70.525
X91.0Y-83.75
X91.0Y-87.25
X91.0Y-89.25
X91.0Y-91.975
X91.5Y-70.925
X91.85Y-52.0
X92.0Y-6.0
X92.0Y-10.0
X92.0Y-22.0
X92.0Y-26.0
X92.0Y-30.0
X92.0Y-82.0
X92.0Y-85.5
X92.0Y-88.25
X92.0Y-92.15
X92.007Y-65.4
X92.05Y-64.5
X92.1Y-37.5
X92.1Y-72.1
X92.125Y-44.5
X92.15Y-46.55
X92.175Y-70.5
X92.25Y-63.2
X92.25Y-79.0
X92.6Y-92.65
X92.7Y-66.05
X92.925Y-72.1
X92.95Y-36.5
X92.95Y-63.7
X93.0Y-83.75
X93.0Y-87.25
X93.0Y-89.25
X93.2Y-93.1
X93.5Y-68.025
X93.5Y-70.7
X93.675Y-72.225
X93.95Y-92.9
X94.0Y-1.7
X94.0Y-4.0
X94.0Y-8.0
X94.0Y-24.0
X94.0Y-28.0
X94.0Y-32.0
X94.0Y-85.5
X94.0Y-88.25
X94.0Y-98.3
X94.25Y-89.25
X94.45Y-71.425
X94.5Y-68.025
X94.57Y-56.82
X94.65Y-34.0
X94.65Y-38.5
X94.775Y-77.675
X95.0Y-52.0
X95.0Y-76.25
X95.0Y-91.975
X95.15Y-66.55
X95.25Y-54.05
X95.25Y-79.0
X95.25Y-82.0
X95.325Y-89.5
X95.6Y-38.825
X95.625Y-77.2
X95.721Y-56.82
X95.75Y-64.5
X96.0Y-6.0
X96.0Y-26.0
X96.0Y-34.0
X96.0Y-50.0
X96.0Y-52.0
X96.0Y-87.675
X96.25Y-85.25
X96.25Y-89.5
X96.375Y-34.875
X96.494Y-57.604
X96.494Y-58.754
X96.5Y-56.75
X96.5Y-59.525
X96.55Y-54.1
X96.925Y-35.125
X97.05Y-83.65
X97.2Y-64.65
X97.25Y-72.9
X97.25Y-81.0
X97.25Y-91.975
X97.65Y-84.65
X97.675Y-77.0
X97.85Y-62.5
X98.0Y-1.7
X98.0Y-4.0
X98.0Y-8.0
X98.0Y-24.0
X98.0Y-28.0
X98.0Y-32.0
X98.0Y-39.275
X98.0Y-40.0
X98.0Y-52.0
X98.0Y-98.3
X98.25Y-91.975
X98.5Y-62.5
X98.747Y-71.963
X98.925Y-85.425
X99.0Y-87.75
X99.15Y-62.5
X99.25Y-78.75
X99.25Y-80.25
X99.3Y-33.0
X99.3Y-40.0
X99.325Y-83.675
X99.45Y-82.25
X99.5Y-76.325
X99.5Y-77.675
X100.0Y-6.0
X100.0Y-26.0
X100.0Y-30.0
X100.0Y-42.0
X100.05Y-65.9
X100.35Y-62.125
X100.65Y-64.625
X100.75Y-33.425
X100.75Y-39.575
X101.0Y-93.0
X101.4Y-64.55
X101.675Y-35.7
X101.675Y-37.3
X101.95Y-79.075
X101.95Y-80.0
X101.975Y-72.25
X101.975Y-73.25
X101.975Y-81.0
X101.975Y-85.0
X101.975Y-86.0
X102.0Y-1.7
X102.0Y-4.0
X102.0Y-8.0
X102.0Y-24.0
X102.0Y-32.0
X102.0Y-40.0
X102.0Y-44.0
X102.0Y-52.0
X102.0Y-98.3
X102.25Y-57.0
X102.25Y-77.075
X102.275Y-82.15
X102.525Y-76.2
X102.55Y-83.65
X102.9Y-68.6
X103.2Y-82.175
X103.5Y-36.5
X103.5Y-71.6
X103.525Y-76.2
X103.6Y-68.225
X103.625Y-62.875
X103.75Y-49.25
X103.75Y-56.975
X103.75Y-89.875
X103.75Y-90.7
X103.75Y-91.5
X104.0Y-6.0
X104.0Y-26.0
X104.0Y-30.0
X104.0Y-34.0
X104.25Y-77.25
X104.475Y-74.5
X104.475Y-78.65
X104.5Y-63.125
X104.5Y-63.95
X104.5Y-68.2
X105.0Y-78.0
X105.15Y-46.45
X105.25Y-56.975
X105.371Y-68.233
X105.525Y-34.85
X105.525Y-37.15
X105.7Y-63.95
X105.75Y-78.5
X106.0Y-1.7
X106.0Y-4.0
X106.0Y-8.0
X106.0Y-24.0
X106.0Y-28.0
X106.0Y-32.0
X106.0Y-50.0
X106.0Y-52.0
X106.0Y-54.0
X106.0Y-68.6
X106.0Y-92.0
X106.0Y-98.3
X106.45Y-73.925
X106.625Y-68.075
X106.75Y-56.95
X106.825Y-41.8
X106.825Y-43.2
X106.85Y-70.05
X106.925Y-68.825
X107.25Y-34.075
X107.25Y-37.925
X107.25Y-54.1
X107.65Y-70.05
X107.65Y-73.3
X108.0Y-6.0
X108.0Y-14.0
X108.0Y-18.0
X108.0Y-26.0
X108.0Y-30.0
X108.0Y-34.0
X108.0Y-90.0
X108.0Y-92.0
X108.45Y-70.05
X108.45Y-73.3
X108.55Y-41.025
X108.55Y-43.975
X108.825Y-34.0
X109.25Y-70.05
X109.25Y-73.3
X109.3Y-33.4
X109.3Y-36.0
X109.5Y-40.75
X109.55Y-40.0
X109.75Y-56.95
X109.775Y-79.888
X109.8Y-34.0
X109.85Y-71.688
X110.0Y-1.7
X110.0Y-4.0
X110.0Y-16.0
X110.0Y-28.0
X110.0Y-50.0
X110.0Y-52.0
X110.0Y-54.0
X110.0Y-98.3
X110.05Y-70.05
X110.25Y-40.25
X110.55Y-34.0
X110.55Y-36.0
X110.6Y-30.575
X110.75Y-39.7
X110.75Y-46.45
X110.75Y-56.95
X110.8Y-73.3
X111.025Y-78.75
X111.1Y-33.45
X111.1Y-76.2
X111.175Y-68.7
X111.2Y-66.0
X111.25Y-40.25
X111.25Y-82.95
X111.8Y-36.0
X111.8Y-73.3
X111.85Y-86.975
X112.0Y-6.0
X112.0Y-14.0
X112.0Y-18.0
X112.0Y-26.0
X112.0Y-40.75
X112.0Y-66.0
X112.0Y-68.7
X112.1Y-76.5
X112.125Y-78.75
X112.125Y-82.275
X112.3Y-42.5
X112.5Y-43.975
X112.6Y-73.3
X112.7Y-66.4
X112.7Y-68.1
X112.7Y-87.725
X112.75Y-56.95
X113.0Y-51.0
X113.225Y-78.75
X113.4Y-66.0
X113.4Y-68.7
X113.5Y-76.6
X113.5Y-86.825
X113.55Y-35.75
X113.55Y-36.55
X113.575Y-72.825
X113.65Y-88.375
X114.0Y-1.7
X114.0Y-4.0
X114.0Y-16.0
X114.0Y-28.0
X114.0Y-38.0
X114.0Y-98.3
X114.15Y-72.325
X114.175Y-30.575
X114.2Y-46.45
X114.25Y-82.287
X114.325Y-76.65
X114.6Y-66.0
X114.6Y-68.7
X114.725Y-74.7
X115.0Y-81.0
X115.0Y-92.275
X115.025Y-81.925
X115.3Y-66.4
X115.3Y-68.1
X115.425Y-76.65
X115.425Y-78.725
X115.525Y-74.1
X115.6Y-60.5
X116.0Y-6.0
X116.0Y-10.0
X116.0Y-14.0
X116.0Y-18.0
X116.0Y-22.0
X116.0Y-26.0
X116.0Y-30.0
X116.0Y-66.0
X116.0Y-68.7
X116.0Y-84.0
X116.35Y-88.375
X116.475Y-87.3
X116.5Y-45.5
X116.5Y-46.625
X116.525Y-78.75
X116.8Y-66.0
X116.85Y-68.65
X117.625Y-76.65
X118.0Y-1.7
X118.0Y-4.0
X118.0Y-8.0
X118.0Y-12.0
X118.0Y-16.0
X118.0Y-20.0
X118.0Y-24.0
X118.0Y-82.0
X118.0Y-98.3
X118.5Y-26.25
X118.5Y-39.0
X118.5Y-57.6
X118.725Y-76.65
X118.9Y-64.05
X119.25Y-57.0
X119.475Y-76.625
X119.6Y-38.85
X120.0Y-6.0
X120.0Y-10.0
X120.0Y-14.0
X120.0Y-18.0
X120.0Y-22.0
X120.0Y-30.0
X120.0Y-34.0
X120.0Y-40.0
X120.0Y-42.0
X120.0Y-72.0
X120.0Y-76.0
X120.0Y-80.0
X120.0Y-84.0
X120.0Y-88.0
X120.0Y-92.0
X120.375Y-34.875
X120.75Y-57.0
X120.925Y-35.125
X121.15Y-71.688
X122.0Y-1.7
X122.0Y-4.0
X122.0Y-8.0
X122.0Y-12.0
X122.0Y-16.0
X122.0Y-20.0
X122.0Y-24.0
X122.0Y-28.0
X122.0Y-32.0
X122.0Y-39.275
X122.0Y-40.0
X122.0Y-44.0
X122.0Y-52.0
X122.0Y-64.35
X122.0Y-74.0
X122.0Y-78.0
X122.0Y-82.0
X122.0Y-86.0
X122.0Y-90.0
X122.0Y-98.3
X122.35Y-66.25
X123.0Y-64.35
X123.2Y-66.2
X123.3Y-33.0
X123.3Y-40.0
X123.5Y-68.4
X123.75Y-79.888
X124.0Y-6.0
X124.0Y-10.0
X124.0Y-14.0
X124.0Y-18.0
X124.0Y-22.0
X124.0Y-30.0
X124.0Y-42.0
X124.0Y-46.0
X124.0Y-50.0
X124.0Y-54.0
X124.0Y-58.0
X124.0Y-72.0
X124.4Y-68.3
X124.5Y-74.0
X124.5Y-75.0
X124.5Y-76.0
X124.5Y-77.0
X124.5Y-78.0
X124.5Y-79.0
X124.5Y-80.0
X124.5Y-81.0
X124.5Y-82.0
X124.5Y-83.0
X124.5Y-84.0
X124.5Y-85.0
X124.5Y-86.0
X124.5Y-87.0
X124.5Y-88.0
X124.5Y-89.0
X124.5Y-90.0
X124.5Y-91.0
X124.5Y-92.0
X124.5Y-93.0
X124.75Y-33.425
X124.75Y-39.575
X125.5Y-74.0
X125.5Y-89.0
X125.675Y-37.3
X125.7Y-35.7
X125.75Y-75.6
X125.75Y-87.725
X126.0Y-1.7
X126.0Y-4.0
X126.0Y-8.0
X126.0Y-12.0
X126.0Y-16.0
X126.0Y-20.0
X126.0Y-24.0
X126.0Y-32.0
X126.0Y-38.0
X126.0Y-40.0
X126.0Y-44.0
X126.0Y-98.3
X126.25Y-56.9
X126.5Y-74.0
X126.5Y-89.0
X127.15Y-65.45
X127.15Y-66.45
X127.225Y-74.65
X127.225Y-88.675
X127.5Y-74.0
X127.75Y-49.25
X127.75Y-56.9
X128.0Y-6.0
X128.0Y-10.0
X128.0Y-14.0
X128.0Y-18.0
X128.0Y-22.0
X128.0Y-30.0
X128.0Y-34.0
X128.0Y-38.0
X128.0Y-42.0
X128.0Y-46.0
X128.0Y-62.0
X128.0Y-66.0
X128.0Y-89.0
X128.5Y-74.0
X128.7Y-75.6
X128.7Y-87.725
X128.9Y-56.9
X129.0Y-89.0
X129.5Y-74.0
X130.0Y-1.7
X130.0Y-4.0
X130.0Y-8.0
X130.0Y-12.0
X130.0Y-16.0
X130.0Y-20.0
X130.0Y-24.0
X130.0Y-28.0
X130.0Y-32.0
X130.0Y-36.0
X130.0Y-85.0
X130.0Y-86.0
X130.0Y-87.0
X130.0Y-88.0
X130.0Y-89.0
X130.0Y-98.3
X130.25Y-74.5
X130.25Y-75.5
X130.25Y-76.5
X130.25Y-77.5
X130.25Y-78.5
X130.25Y-79.5
X130.3Y-81.66
X130.75Y-56.9
X130.825Y-41.8
X130.825Y-43.2
X131.0Y-51.0
X131.2Y-62.0
X131.275Y-78.05
X131.325Y-33.875
X131.325Y-35.275
X132.0Y-6.0
X132.0Y-14.0
X132.0Y-18.0
X132.0Y-30.0
X132.0Y-70.0
X132.0Y-96.0
X132.05Y-62.05
X132.2Y-32.95
X132.275Y-78.05
X132.3Y-79.4
X132.4Y-63.8
X132.55Y-41.025
X132.55Y-43.975
X132.55Y-74.475
X132.55Y-75.25
X132.65Y-65.45
X132.65Y-66.45
X132.7Y-63.05
X132.75Y-54.1
X133.05Y-33.1
X133.05Y-36.05
X133.35Y-30.575
X133.35Y-62.5
X133.45Y-73.6
X133.5Y-40.75
X133.625Y-80.175
X133.75Y-54.15
X133.8Y-32.575
X134.0Y-1.7
X134.0Y-4.0
X134.0Y-16.0
X134.0Y-28.0
X134.0Y-68.0
X134.0Y-94.0
X134.0Y-98.3
X134.2Y-62.4
X134.25Y-40.25
X134.625Y-80.175
X134.75Y-46.45
X134.8Y-32.575
X135.0Y-57.0
X135.25Y-38.5
X135.25Y-40.25
X135.25Y-54.15
X135.7Y-78.0
X135.7Y-83.475
X135.9Y-28.85
X136.0Y-6.0
X136.0Y-14.0
X136.0Y-18.0
X136.0Y-40.75
X136.0Y-62.0
X136.0Y-92.0
X136.0Y-96.0
X136.05Y-29.575
X136.05Y-32.075
X136.3Y-42.5
X136.55Y-73.6
X136.7Y-31.45
X136.75Y-30.575
X136.75Y-54.15
X136.8Y-34.575
X137.0Y-57.0
X137.45Y-74.75
X137.875Y-38.775
X137.875Y-43.75
X137.875Y-47.0
X138.0Y-1.7
X138.0Y-4.0
X138.0Y-16.0
X138.0Y-28.0
X138.0Y-32.0
X138.0Y-36.0
X138.0Y-64.0
X138.0Y-76.0
X138.0Y-80.0
X138.0Y-90.0
X138.0Y-94.0
X138.0Y-98.3
X138.15Y-65.45
X138.15Y-66.45
X138.225Y-73.025
X138.7Y-37.75
X139.0Y-51.0
X139.0Y-57.0
X139.375Y-74.0
X139.6Y-38.85
X140.0Y-6.0
X140.0Y-10.0
X140.0Y-14.0
X140.0Y-18.0
X140.0Y-22.0
X140.0Y-88.0
X140.0Y-92.0
X140.0Y-96.0
X140.375Y-34.875
X140.5Y-25.5
X140.5Y-46.6
X140.925Y-35.125
X141.0Y-53.0
X141.05Y-74.05
X141.1Y-77.81
X141.1Y-79.19
X142.0Y-1.7
X142.0Y-8.0
X142.0Y-12.0
X142.0Y-16.0
X142.0Y-20.0
X142.0Y-28.0
X142.0Y-39.275
X142.0Y-40.0
X142.0Y-86.0
X142.0Y-90.0
X142.0Y-94.0
X142.0Y-98.3
X143.0Y-71.0
X143.0Y-74.0
X143.25Y-54.15
X143.3Y-33.0
X143.3Y-40.0
X143.65Y-65.45
X143.65Y-66.45
X143.675Y-21.0
X143.675Y-23.5
X143.675Y-26.0
X144.0Y-10.0
X144.0Y-14.0
X144.0Y-18.0
X144.0Y-30.0
X144.0Y-42.0
X144.0Y-50.0
X144.0Y-58.0
X144.0Y-62.0
X144.0Y-88.0
X144.0Y-92.0
X144.75Y-33.425
X144.75Y-39.575
X144.75Y-54.15
X145.5Y-74.0
X145.675Y-35.7
X145.675Y-37.3
X146.0Y-1.7
X146.0Y-8.0
X146.0Y-12.0
X146.0Y-16.0
X146.0Y-28.0
X146.0Y-32.0
X146.0Y-40.0
X146.0Y-44.0
X146.0Y-52.0
X146.0Y-60.0
X146.0Y-68.0
X146.0Y-90.0
X146.0Y-98.3
X146.5Y-74.0
X147.0Y-71.0
X147.5Y-74.0
X148.0Y-10.0
X148.0Y-14.0
X148.0Y-18.0
X148.0Y-30.0
X148.0Y-34.0
X148.0Y-38.0
X148.0Y-42.0
X148.0Y-80.0
X148.0Y-84.0
X148.0Y-88.0
X148.0Y-92.0
X148.0Y-96.0
X148.5Y-74.0
X149.0Y-19.0
X149.5Y-36.0
X149.5Y-37.0
X149.5Y-38.0
X149.5Y-39.0
X149.5Y-40.0
X149.5Y-41.0
X149.5Y-42.0
X149.5Y-43.0
X149.5Y-44.0
X149.5Y-45.0
X149.5Y-47.0
X149.5Y-48.0
X149.5Y-49.0
X149.5Y-50.0
X149.5Y-51.0
X149.5Y-52.0
X149.5Y-53.0
X149.5Y-54.0
X149.5Y-55.0
X149.5Y-56.0
X149.5Y-57.0
X149.5Y-58.0
X149.5Y-59.0
X149.5Y-60.0
X149.5Y-61.0
X149.5Y-62.0
X149.5Y-63.0
X149.5Y-64.0
X149.5Y-65.0
X149.5Y-66.0
X149.5Y-67.0
X149.5Y-68.0
X149.5Y-69.0
X149.5Y-70.0
X149.5Y-71.0
X149.5Y-72.0
X149.5Y-73.0
X149.5Y-74.0
X150.0Y-1.7
X150.0Y-4.0
X150.0Y-12.0
X150.0Y-28.0
X150.0Y-32.0
X150.0Y-78.0
X150.0Y-86.0
X150.0Y-90.0
X150.0Y-94.0
X150.0Y-98.3
X150.5Y-36.0
X150.625Y-21.5
X150.625Y-23.5
X150.625Y-25.5
X151.0Y-55.0
X151.0Y-75.0
X151.5Y-36.0
X152.0Y-6.0
X152.0Y-10.0
X152.0Y-14.0
X152.0Y-18.0
X152.0Y-22.0
X152.0Y-26.0
X152.0Y-30.0
X152.0Y-34.0
X152.0Y-47.0
X152.0Y-48.0
X152.0Y-49.0
X152.0Y-50.0
X152.0Y-51.0
X152.0Y-66.5
X152.0Y-67.5
X152.0Y-68.5
X152.0Y-69.5
X152.0Y-70.5
X152.0Y-88.0
X152.0Y-92.0
X152.0Y-96.0
X152.5Y-36.0
X152.5Y-46.5
X152.5Y-51.5
X152.5Y-66.0
X152.5Y-71.0
X153.0Y-53.0
X153.0Y-73.0
X153.025Y-50.55
X153.025Y-70.05
X153.5Y-36.0
X153.5Y-46.5
X153.5Y-51.5
X153.5Y-66.0
X153.5Y-71.0
X154.0Y-1.7
X154.0Y-4.0
X154.0Y-12.0
X154.0Y-24.0
X154.0Y-28.0
X154.0Y-32.0
X154.0Y-82.0
X154.0Y-98.3
X154.5Y-36.0
X154.5Y-51.5
X154.5Y-71.0
X155.0Y-19.0
X155.0Y-55.0
X155.0Y-59.0
X155.5Y-36.0
X155.5Y-51.5
X155.5Y-74.0
X155.5Y-78.0
X155.5Y-86.5
X155.5Y-90.5
X155.975Y-50.55
X155.975Y-70.05
X156.0Y-6.0
X156.0Y-14.0
X156.0Y-22.0
X156.0Y-26.0
X156.0Y-30.0
X156.0Y-34.0
X156.0Y-80.0
X156.0Y-84.0
X156.5Y-36.0
X156.5Y-51.5
X158.3Y-6.0
X158.3Y-10.0
X158.3Y-14.0
X158.3Y-18.0
X158.3Y-22.0
X158.3Y-26.0
X158.3Y-30.0
X158.3Y-34.0
X158.3Y-42.0
X158.3Y-46.0
X158.3Y-50.0
X158.3Y-54.0
X158.3Y-60.0
X158.3Y-66.0
X158.3Y-70.0
T3
X12.0Y-67.15
X13.5Y-67.15
X13.675Y-48.375
X14.25Y-52.0
X14.8Y-91.05
X15.4Y-54.25
X15.4Y-55.25
X16.875Y-20.625
X18.9Y-56.05
X19.5Y-88.75
X19.5Y-89.75
X19.6Y-24.65
X19.95Y-55.5
X20.45Y-58.325
X20.5Y-19.75
X20.5Y-20.65
X21.025Y-56.825
X21.7Y-50.85
X22.725Y-51.75
X22.775Y-57.5
X23.05Y-43.05
X23.25Y-78.365
X23.25Y-82.175
X23.438Y-56.262
X24.0Y-45.0
X24.05Y-19.85
X25.45Y-21.6
X25.9Y-50.7
X26.325Y-21.6
X26.7Y-50.8
X26.85Y-40.7
X27.2Y-21.6
X27.75Y-54.125
X27.85Y-40.7
X28.075Y-21.6
X28.725Y-55.75
X28.95Y-21.6
X29.825Y-21.6
X30.125Y-55.7
X30.7Y-21.6
X31.825Y-65.5
X31.825Y-66.5
X32.5Y-21.0
X32.85Y-47.35
X33.3Y-65.5
X33.3Y-66.5
X33.5Y-18.75
X33.6Y-27.2
X33.675Y-45.05
X34.05Y-23.6
X34.4Y-45.75
X34.75Y-75.825
X34.75Y-79.0
X34.75Y-82.175
X34.8Y-70.175
X34.85Y-23.65
X34.914Y-44.284
X35.25Y-19.0
X35.75Y-87.75
X35.783Y-19.596
X35.9Y-67.6
X36.55Y-80.75
X36.9Y-67.625
X37.0Y-19.0
X38.0Y-70.125
X38.25Y-21.25
X38.35Y-24.375
X38.4Y-79.0
X38.6Y-54.85
X38.95Y-18.675
X39.0Y-16.5
X39.35Y-24.0
X39.6Y-54.85
X39.725Y-18.375
X40.1Y-67.7
X40.825Y-67.7
X40.9Y-22.175
X41.45Y-26.925
X41.45Y-27.625
X41.525Y-67.7
X41.75Y-83.825
X42.025Y-45.525
X42.025Y-46.2
X42.225Y-67.7
X42.396Y-26.259
X43.475Y-45.825
X44.725Y-31.125
X44.95Y-72.975
X45.851Y-67.049
X46.175Y-68.825
X46.525Y-68.25
X46.6Y-49.3
X46.6Y-50.0
X46.6Y-50.7
X46.6Y-51.35
X46.9Y-68.825
X46.95Y-51.9
X47.3Y-49.3
X47.3Y-50.0
X47.3Y-50.7
X47.3Y-51.35
X47.35Y-22.25
X47.625Y-68.825
X47.9Y-19.075
X48.0Y-28.75
X48.1Y-82.25
X48.7Y-36.4
X48.7Y-37.1
X48.8Y-83.75
X48.95Y-70.875
X49.119Y-79.792
X49.15Y-19.85
X49.525Y-36.4
X49.525Y-37.1
X49.675Y-70.875
X49.75Y-78.425
X50.35Y-36.4
X50.35Y-37.1
X50.5Y-25.55
X51.175Y-36.4
X51.175Y-37.1
X51.9Y-89.1
X52.0Y-36.4
X52.0Y-37.1
X53.025Y-70.875
X54.75Y-29.125
X54.85Y-7.5
X56.25Y-29.125
X56.25Y-90.4
X59.25Y-18.3
X59.95Y-18.3
X60.65Y-18.3
X60.7Y-76.15
X61.0Y-17.65
X61.0Y-81.35
X61.35Y-17.0
X61.35Y-18.3
X61.6Y-70.1
X61.7Y-17.65
X62.0Y-79.6
X62.05Y-17.0
X62.05Y-18.3
X62.05Y-74.225
X62.05Y-78.2
X62.4Y-17.65
X62.75Y-17.0
X62.75Y-18.3
X66.0Y-43.0
X66.0Y-43.8
X66.0Y-44.6
X66.0Y-45.4
X66.125Y-54.575
X66.8Y-43.0
X66.8Y-43.8
X66.8Y-44.6
X66.8Y-45.4
X66.825Y-28.75
X66.905Y-89.2
X67.3Y-54.4
X67.3Y-56.05
X68.75Y-73.6
X69.05Y-55.3
X69.55Y-19.675
X69.95Y-55.3
X70.1Y-73.45
X70.25Y-76.75
X70.825Y-86.35
X70.825Y-87.35
X71.125Y-89.3
X71.125Y-91.2
X71.5Y-78.75
X71.85Y-72.75
X72.7Y-76.25
X72.85Y-51.575
X73.75Y-37.25
X73.75Y-57.1
X74.35Y-88.175
X75.05Y-48.95
X75.325Y-28.0
X76.65Y-91.2
X77.175Y-29.0
X77.25Y-90.75
X78.05Y-76.875
X78.2Y-52.65
X81.05Y-70.708
X81.225Y-73.55
X82.35Y-76.425
X82.525Y-70.708
X83.0Y-77.25
X83.0Y-81.25
X83.3Y-85.225
X85.275Y-75.825
X89.55Y-36.55
X95.225Y-83.15
X96.425Y-73.75
X96.425Y-76.25
X97.0Y-39.3
X97.8Y-66.15
X98.0Y-64.7
X98.3Y-72.75
X98.3Y-78.675
X98.3Y-89.25
X99.0Y-64.7
X99.2Y-66.15
X100.075Y-91.925
X101.9Y-69.9
X104.2Y-81.15
X105.6Y-81.15
X121.0Y-39.3
X126.175Y-81.675
X127.75Y-52.65
X141.0Y-39.3
X142.85Y-77.125
X142.85Y-78.5
T4
X35.0Y-13.5
X35.0Y-14.25
X37.5Y-13.5
X37.5Y-14.25
X40.825Y-18.975
T5
X10.7Y-68.0
X10.7Y-69.7
X10.7Y-87.55
X10.7Y-89.2
X11.8Y-66.0
X12.7Y-89.7
X12.7Y-91.15
X14.45Y-43.1
X14.45Y-60.9
X38.625Y-32.0
X41.0Y-34.0
X41.9Y-76.5
X42.45Y-34.0
X43.1Y-82.5
X53.75Y-20.0
X53.75Y-30.0
X57.25Y-20.0
X57.25Y-30.0
X60.75Y-20.0
X60.75Y-30.0
T6
X8.05Y-46.65
X8.05Y-47.75
X8.05Y-48.85
X8.05Y-49.95
X8.05Y-51.45
X8.05Y-52.55
X8.05Y-54.05
X8.05Y-55.15
X8.05Y-56.25
X8.05Y-57.35
X8.85Y-50.7
X8.85Y-53.3
X9.375Y-47.05
X9.375Y-48.15
X9.375Y-49.25
X9.375Y-54.75
X9.375Y-55.85
X9.375Y-56.95
X9.9Y-50.325
X9.9Y-53.675
X10.67Y-46.275
X10.67Y-47.375
X10.67Y-48.475
X10.67Y-49.575
X10.67Y-51.075
X10.67Y-52.925
X10.67Y-54.425
X10.67Y-55.525
X10.67Y-56.625
X10.67Y-57.725
T7
X10.5Y-72.47
X10.5Y-75.01
X10.5Y-82.99
X10.5Y-85.53
X14.5Y-74.56
X14.5Y-77.1
X14.5Y-79.64
X14.5Y-82.18
X17.04Y-75.83
X17.04Y-78.37
X17.04Y-80.91
X17.04Y-83.45
T9
X45.99Y-55.8
X48.53Y-55.8
X51.07Y-55.8
X53.61Y-55.8
X65.44Y-47.5
X67.98Y-47.5
X70.52Y-47.5
X73.06Y-47.5
X77.71Y-59.0
X80.25Y-59.0
X82.79Y-59.0
X85.96Y-59.0
X88.5Y-59.0
X91.04Y-59.0
X101.71Y-59.0
X104.25Y-59.0
X106.79Y-59.0
X109.96Y-59.0
X112.5Y-59.0
X115.04Y-59.0
X125.71Y-59.0
X128.25Y-59.0
X130.79Y-59.0
X133.96Y-59.0
X136.5Y-59.0
X139.04Y-59.0
T11
X8.325Y-12.3
X8.325Y-15.7
X8.325Y-30.3
X8.325Y-33.7
X10.275Y-12.925
X10.275Y-15.075
X10.275Y-30.925
X10.275Y-33.075
T12
X154.5Y-41.0
X154.5Y-60.5
T13
X146.21Y-79.71
X146.21Y-84.79
X148.75Y-82.25
X151.29Y-79.71
X151.29Y-84.79
X151.96Y-38.46
X151.96Y-43.54
X151.96Y-57.96
X151.96Y-63.04
X157.04Y-38.46
X157.04Y-43.54
X157.04Y-57.96
X157.04Y-63.04
T14
X69.9Y-10.2
X74.1Y-10.2
T15
X149.92Y-9.05
X149.92Y-16.55
X154.92Y-9.05
X154.92Y-16.55
T16
X6.5Y-74.0
X6.5Y-84.0
T17
X87.5Y-10.0
X87.5Y-22.0
X111.5Y-10.0
X111.5Y-22.0
X135.5Y-10.0
X135.5Y-22.0
T1
X22.625Y-5.7G85X20.375Y-5.7
G05
X22.625Y-94.3G85X20.375Y-94.3
G05
X145.625Y-5.7G85X143.375Y-5.7
G05
X145.625Y-94.3G85X143.375Y-94.3
G05
T8
X10.475Y-43.1G85X8.275Y-43.1
G05
X10.475Y-60.9G85X8.275Y-60.9
G05
T10
X7.95Y-7.75G85X9.7Y-7.75
G05
X7.95Y-20.25G85X9.7Y-20.25
G05
X7.95Y-25.75G85X9.7Y-25.75
G05
X7.95Y-38.25G85X9.7Y-38.25
G05
M30
