%TF.GenerationSoftware,KiCad,Pcbnew,9.0.2*%
%TF.CreationDate,2025-05-19T09:59:28-04:00*%
%TF.ProjectId,mainBoard,6d61696e-426f-4617-9264-2e6b69636164,01*%
%TF.SameCoordinates,PX42c1d80PY2faf080*%
%TF.FileFunction,Paste,Bot*%
%TF.FilePolarity,Positive*%
%FSLAX46Y46*%
G04 Gerber Fmt 4.6, Leading zero omitted, Abs format (unit mm)*
G04 Created by KiCad (PCBNEW 9.0.2) date 2025-05-19 09:59:28*
%MOMM*%
%LPD*%
G01*
G04 APERTURE LIST*
G04 Aperture macros list*
%AMRoundRect*
0 Rectangle with rounded corners*
0 $1 Rounding radius*
0 $2 $3 $4 $5 $6 $7 $8 $9 X,Y pos of 4 corners*
0 Add a 4 corners polygon primitive as box body*
4,1,4,$2,$3,$4,$5,$6,$7,$8,$9,$2,$3,0*
0 Add four circle primitives for the rounded corners*
1,1,$1+$1,$2,$3*
1,1,$1+$1,$4,$5*
1,1,$1+$1,$6,$7*
1,1,$1+$1,$8,$9*
0 Add four rect primitives between the rounded corners*
20,1,$1+$1,$2,$3,$4,$5,0*
20,1,$1+$1,$4,$5,$6,$7,0*
20,1,$1+$1,$6,$7,$8,$9,0*
20,1,$1+$1,$8,$9,$2,$3,0*%
G04 Aperture macros list end*
%ADD10RoundRect,0.150000X-0.150000X-0.150000X0.150000X-0.150000X0.150000X0.150000X-0.150000X0.150000X0*%
%ADD11RoundRect,0.150000X0.150000X0.150000X-0.150000X0.150000X-0.150000X-0.150000X0.150000X-0.150000X0*%
%ADD12RoundRect,0.300000X1.575000X0.700000X-1.575000X0.700000X-1.575000X-0.700000X1.575000X-0.700000X0*%
%ADD13RoundRect,0.150000X-0.150000X0.150000X-0.150000X-0.150000X0.150000X-0.150000X0.150000X0.150000X0*%
%ADD14RoundRect,0.250000X0.625000X0.950000X-0.625000X0.950000X-0.625000X-0.950000X0.625000X-0.950000X0*%
%ADD15RoundRect,0.150000X0.150000X-0.150000X0.150000X0.150000X-0.150000X0.150000X-0.150000X-0.150000X0*%
%ADD16RoundRect,0.200000X-0.200000X-0.250000X0.200000X-0.250000X0.200000X0.250000X-0.200000X0.250000X0*%
%ADD17RoundRect,0.300000X-1.575000X-0.700000X1.575000X-0.700000X1.575000X0.700000X-1.575000X0.700000X0*%
%ADD18RoundRect,0.275000X-0.375000X0.275000X-0.375000X-0.275000X0.375000X-0.275000X0.375000X0.275000X0*%
%ADD19RoundRect,0.300000X-0.300000X-0.550000X0.300000X-0.550000X0.300000X0.550000X-0.300000X0.550000X0*%
%ADD20RoundRect,0.125000X0.175000X-0.125000X0.175000X0.125000X-0.175000X0.125000X-0.175000X-0.125000X0*%
%ADD21RoundRect,0.060000X-0.415000X-0.140000X0.415000X-0.140000X0.415000X0.140000X-0.415000X0.140000X0*%
%ADD22RoundRect,0.050000X0.100000X0.200000X-0.100000X0.200000X-0.100000X-0.200000X0.100000X-0.200000X0*%
%ADD23RoundRect,0.030000X0.120000X0.220000X-0.120000X0.220000X-0.120000X-0.220000X0.120000X-0.220000X0*%
%ADD24RoundRect,0.300000X-0.700000X1.575000X-0.700000X-1.575000X0.700000X-1.575000X0.700000X1.575000X0*%
%ADD25RoundRect,0.125000X-0.175000X0.125000X-0.175000X-0.125000X0.175000X-0.125000X0.175000X0.125000X0*%
%ADD26RoundRect,0.250000X0.650000X1.700000X-0.650000X1.700000X-0.650000X-1.700000X0.650000X-1.700000X0*%
%ADD27RoundRect,0.250000X0.400000X2.000000X-0.400000X2.000000X-0.400000X-2.000000X0.400000X-2.000000X0*%
%ADD28RoundRect,0.050000X0.600000X-0.950000X0.600000X0.950000X-0.600000X0.950000X-0.600000X-0.950000X0*%
%ADD29RoundRect,0.050000X0.450000X-0.150000X0.450000X0.150000X-0.450000X0.150000X-0.450000X-0.150000X0*%
%ADD30RoundRect,0.150000X0.450000X0.450000X-0.450000X0.450000X-0.450000X-0.450000X0.450000X-0.450000X0*%
%ADD31RoundRect,0.150000X0.150000X0.200000X-0.150000X0.200000X-0.150000X-0.200000X0.150000X-0.200000X0*%
%ADD32RoundRect,0.125000X0.125000X0.175000X-0.125000X0.175000X-0.125000X-0.175000X0.125000X-0.175000X0*%
%ADD33RoundRect,0.050000X0.075000X0.262500X-0.075000X0.262500X-0.075000X-0.262500X0.075000X-0.262500X0*%
%ADD34RoundRect,0.050000X0.175000X0.300000X-0.175000X0.300000X-0.175000X-0.300000X0.175000X-0.300000X0*%
%ADD35RoundRect,0.050000X0.175000X0.237500X-0.175000X0.237500X-0.175000X-0.237500X0.175000X-0.237500X0*%
%ADD36RoundRect,0.050000X-0.075000X-0.262500X0.075000X-0.262500X0.075000X0.262500X-0.075000X0.262500X0*%
%ADD37RoundRect,0.050000X-0.175000X-0.300000X0.175000X-0.300000X0.175000X0.300000X-0.175000X0.300000X0*%
%ADD38RoundRect,0.050000X-0.175000X-0.237500X0.175000X-0.237500X0.175000X0.237500X-0.175000X0.237500X0*%
%ADD39RoundRect,0.250000X0.500000X1.450000X-0.500000X1.450000X-0.500000X-1.450000X0.500000X-1.450000X0*%
%ADD40RoundRect,0.250000X0.250000X1.500000X-0.250000X1.500000X-0.250000X-1.500000X0.250000X-1.500000X0*%
%TA.AperFunction,Profile*%
%ADD41C,0.050000*%
%TD*%
%TA.AperFunction,Profile*%
%ADD42C,0.100000*%
%TD*%
G04 APERTURE END LIST*
D10*
%TO.C,R1*%
X97675000Y-76325000D03*
X98725000Y-76325000D03*
%TD*%
D11*
%TO.C,R57*%
X149525000Y-21500000D03*
X148475000Y-21500000D03*
%TD*%
D12*
%TO.C,TP60*%
X28500000Y-45500000D03*
%TD*%
D13*
%TO.C,R8*%
X90175000Y-87675000D03*
X90175000Y-88725000D03*
%TD*%
D14*
%TO.C,C58*%
X13300000Y-93600000D03*
X8050000Y-93600000D03*
%TD*%
D15*
%TO.C,R52*%
X13500000Y-69025000D03*
X13500000Y-67975000D03*
%TD*%
D13*
%TO.C,R4*%
X96675000Y-87675000D03*
X96675000Y-88725000D03*
%TD*%
D16*
%TO.C,C52*%
X8300000Y-68000000D03*
X9700000Y-68000000D03*
%TD*%
D10*
%TO.C,R31*%
X12475000Y-60900000D03*
X13525000Y-60900000D03*
%TD*%
D11*
%TO.C,R79*%
X3550000Y-7750000D03*
X2500000Y-7750000D03*
%TD*%
D16*
%TO.C,C56*%
X8300000Y-87550000D03*
X9700000Y-87550000D03*
%TD*%
D17*
%TO.C,TP72*%
X25500000Y-25000000D03*
%TD*%
%TO.C,TP10*%
X134000000Y-51500000D03*
%TD*%
%TO.C,TP26*%
X37000000Y-29500000D03*
%TD*%
%TO.C,TP82*%
X52000000Y-7500000D03*
%TD*%
D18*
%TO.C,C20*%
X83000000Y-78300000D03*
X83000000Y-80200000D03*
%TD*%
D17*
%TO.C,TP37*%
X35100000Y-38800000D03*
%TD*%
D19*
%TO.C,C54*%
X8300000Y-91150000D03*
X11500000Y-91150000D03*
%TD*%
D15*
%TO.C,R28*%
X12650000Y-50325000D03*
X12650000Y-49275000D03*
%TD*%
D10*
%TO.C,R2*%
X97675000Y-77675000D03*
X98725000Y-77675000D03*
%TD*%
%TO.C,R85*%
X39125000Y-20475000D03*
X40175000Y-20475000D03*
%TD*%
D20*
%TO.C,C107*%
X31100000Y-63200000D03*
X31100000Y-62200000D03*
%TD*%
D21*
%TO.C,D7*%
X13150000Y-52650000D03*
X13150000Y-51350000D03*
X15350000Y-52000000D03*
%TD*%
D11*
%TO.C,R78*%
X3550000Y-20250000D03*
X2500000Y-20250000D03*
%TD*%
D22*
%TO.C,D6*%
X6325000Y-49950000D03*
D23*
X5625000Y-49950000D03*
%TD*%
D11*
%TO.C,R83*%
X40175000Y-21750000D03*
X39125000Y-21750000D03*
%TD*%
D24*
%TO.C,TP9*%
X116000000Y-35500000D03*
%TD*%
D17*
%TO.C,TP79*%
X49000000Y-12500000D03*
%TD*%
D11*
%TO.C,R17*%
X76325000Y-85000000D03*
X75275000Y-85000000D03*
%TD*%
D25*
%TO.C,C6*%
X81250000Y-81000000D03*
X81250000Y-82000000D03*
%TD*%
D11*
%TO.C,R12*%
X82275000Y-72750000D03*
X81225000Y-72750000D03*
%TD*%
%TO.C,R16*%
X98625000Y-82250000D03*
X97575000Y-82250000D03*
%TD*%
D17*
%TO.C,TP36*%
X93500000Y-49900000D03*
%TD*%
D20*
%TO.C,C5*%
X81250000Y-77500000D03*
X81250000Y-76500000D03*
%TD*%
D26*
%TO.C,J39*%
X62950000Y-22350000D03*
X51550000Y-22350000D03*
D27*
X59750000Y-15550000D03*
X57250000Y-15550000D03*
X54750000Y-15550000D03*
%TD*%
D25*
%TO.C,C137*%
X37950000Y-16800000D03*
X37950000Y-17800000D03*
%TD*%
D15*
%TO.C,R6*%
X85825000Y-72600000D03*
X85825000Y-71550000D03*
%TD*%
D20*
%TO.C,C134*%
X34550000Y-17800000D03*
X34550000Y-16800000D03*
%TD*%
D24*
%TO.C,TP58*%
X141000000Y-30500000D03*
%TD*%
D17*
%TO.C,TP47*%
X127500000Y-27500000D03*
%TD*%
D15*
%TO.C,R7*%
X87175000Y-72600000D03*
X87175000Y-71550000D03*
%TD*%
D11*
%TO.C,R19*%
X76325000Y-83750000D03*
X75275000Y-83750000D03*
%TD*%
D13*
%TO.C,R9*%
X88825000Y-87675000D03*
X88825000Y-88725000D03*
%TD*%
D11*
%TO.C,R70*%
X3550000Y-25750000D03*
X2500000Y-25750000D03*
%TD*%
D10*
%TO.C,R32*%
X12475000Y-43100000D03*
X13525000Y-43100000D03*
%TD*%
D11*
%TO.C,R20*%
X76325000Y-81250000D03*
X75275000Y-81250000D03*
%TD*%
D28*
%TO.C,J34*%
X26637500Y-68000000D03*
X26637500Y-59400000D03*
D29*
X29337500Y-65200000D03*
X29337500Y-64200000D03*
X29337500Y-63200000D03*
X29337500Y-62200000D03*
%TD*%
D13*
%TO.C,R50*%
X14000000Y-89975000D03*
X14000000Y-91025000D03*
%TD*%
D30*
%TO.C,D31*%
X5000000Y-18000000D03*
X2200000Y-18000000D03*
%TD*%
D31*
%TO.C,D24*%
X3900000Y-32000000D03*
X2500000Y-32000000D03*
%TD*%
D11*
%TO.C,R18*%
X76325000Y-82500000D03*
X75275000Y-82500000D03*
%TD*%
D31*
%TO.C,D25*%
X3900000Y-30300000D03*
X2500000Y-30300000D03*
%TD*%
D32*
%TO.C,C33*%
X114825000Y-79250000D03*
X113825000Y-79250000D03*
%TD*%
D11*
%TO.C,R69*%
X5525000Y-38250000D03*
X4475000Y-38250000D03*
%TD*%
D12*
%TO.C,TP35*%
X112500000Y-63500000D03*
%TD*%
D17*
%TO.C,TP19*%
X45000000Y-64000000D03*
%TD*%
D33*
%TO.C,D5*%
X117525000Y-75637500D03*
X117025000Y-75637500D03*
D34*
X116525000Y-75600000D03*
D33*
X116025000Y-75637500D03*
X115525000Y-75637500D03*
X115525000Y-74862500D03*
X116025000Y-74862500D03*
D35*
X116525000Y-74837500D03*
D33*
X117025000Y-74862500D03*
X117525000Y-74862500D03*
%TD*%
D12*
%TO.C,TP59*%
X41300000Y-71800000D03*
%TD*%
D17*
%TO.C,TP71*%
X72000000Y-14000000D03*
%TD*%
D25*
%TO.C,C21*%
X81250000Y-78750000D03*
X81250000Y-79750000D03*
%TD*%
D13*
%TO.C,R5*%
X95325000Y-87675000D03*
X95325000Y-88725000D03*
%TD*%
D24*
%TO.C,TP57*%
X102000000Y-29000000D03*
%TD*%
D31*
%TO.C,D26*%
X23600000Y-68700000D03*
X22200000Y-68700000D03*
%TD*%
D11*
%TO.C,R43*%
X16075000Y-92900000D03*
X15025000Y-92900000D03*
%TD*%
D19*
%TO.C,C51*%
X7400000Y-66000000D03*
X10600000Y-66000000D03*
%TD*%
D11*
%TO.C,R65*%
X149525000Y-25500000D03*
X148475000Y-25500000D03*
%TD*%
D15*
%TO.C,R29*%
X5800000Y-54025000D03*
X5800000Y-52975000D03*
%TD*%
D11*
%TO.C,R10*%
X82275000Y-71500000D03*
X81225000Y-71500000D03*
%TD*%
%TO.C,R61*%
X149525000Y-23500000D03*
X148475000Y-23500000D03*
%TD*%
D24*
%TO.C,TP27*%
X83000000Y-27500000D03*
%TD*%
D16*
%TO.C,C53*%
X8300000Y-69700000D03*
X9700000Y-69700000D03*
%TD*%
D17*
%TO.C,TP73*%
X95000000Y-30000000D03*
%TD*%
D11*
%TO.C,R46*%
X16075000Y-94300000D03*
X15025000Y-94300000D03*
%TD*%
D24*
%TO.C,TP48*%
X87600000Y-81000000D03*
%TD*%
D36*
%TO.C,D4*%
X112250000Y-80487500D03*
X112750000Y-80487500D03*
D37*
X113250000Y-80525000D03*
D36*
X113750000Y-80487500D03*
X114250000Y-80487500D03*
X114250000Y-81262500D03*
X113750000Y-81262500D03*
D38*
X113250000Y-81287500D03*
D36*
X112750000Y-81262500D03*
X112250000Y-81262500D03*
%TD*%
D16*
%TO.C,C55*%
X8300000Y-89200000D03*
X9700000Y-89200000D03*
%TD*%
D15*
%TO.C,R51*%
X12000000Y-69025000D03*
X12000000Y-67975000D03*
%TD*%
D31*
%TO.C,D27*%
X23600000Y-70100000D03*
X22200000Y-70100000D03*
%TD*%
D11*
%TO.C,R21*%
X76325000Y-80000000D03*
X75275000Y-80000000D03*
%TD*%
D24*
%TO.C,TP50*%
X45000000Y-86000000D03*
%TD*%
D39*
%TO.C,J38*%
X49100000Y-22600000D03*
X42400000Y-22600000D03*
D40*
X46750000Y-16850000D03*
X44750000Y-16850000D03*
%TD*%
D17*
%TO.C,TP49*%
X57000000Y-46300000D03*
%TD*%
D10*
%TO.C,R80*%
X39125000Y-19200000D03*
X40175000Y-19200000D03*
%TD*%
D41*
X0Y-2000000D02*
G75*
G02*
X2000000Y0I2000000J0D01*
G01*
D42*
X122400000Y-58000000D02*
X119600001Y-58000000D01*
X119100000Y-59500000D02*
G75*
G02*
X119600000Y-59000000I500000J0D01*
G01*
D41*
X2550000Y-63600000D02*
X2550000Y-40400000D01*
X2050000Y-39900000D02*
G75*
G02*
X2550000Y-40400000I0J-500000D01*
G01*
X0Y-89850000D02*
G75*
G02*
X500000Y-89350000I500000J0D01*
G01*
D42*
X119600000Y-59000000D02*
X122400000Y-59000000D01*
D41*
X157150000Y-74000000D02*
G75*
G02*
X157650000Y-73500000I500000J0D01*
G01*
D42*
X122400000Y-58000000D02*
G75*
G02*
X123900000Y-59500000I0J-1500000D01*
G01*
D41*
X0Y-89850000D02*
X0Y-98000000D01*
X0Y-64600000D02*
G75*
G02*
X500000Y-64100000I500000J0D01*
G01*
X2000000Y-100000000D02*
X158000000Y-100000000D01*
D42*
X123900000Y-62200000D02*
G75*
G02*
X122900000Y-62200000I-500000J0D01*
G01*
D41*
X500000Y-39900000D02*
G75*
G02*
X0Y-39400000I0J500000D01*
G01*
X159500000Y-91000000D02*
X157650000Y-91000000D01*
X2000000Y-100000000D02*
G75*
G02*
X0Y-98000000I0J2000000D01*
G01*
X2350000Y-68650000D02*
X500000Y-68650000D01*
X159500000Y-73500000D02*
X157650000Y-73500000D01*
D42*
X119100000Y-62200000D02*
G75*
G02*
X118100000Y-62200000I-500000J0D01*
G01*
D41*
X160000000Y-98000000D02*
G75*
G02*
X158000000Y-100000000I-2000000J0D01*
G01*
D42*
X123900000Y-59500000D02*
X123900000Y-62200000D01*
D41*
X160000000Y-91500000D02*
X160000000Y-98000000D01*
X159500000Y-91000000D02*
G75*
G02*
X160000000Y-91500000I0J-500000D01*
G01*
X2050000Y-39900000D02*
X500000Y-39900000D01*
D42*
X122900000Y-59500000D02*
X122900000Y-62200000D01*
X118100000Y-59500000D02*
X118100000Y-62200000D01*
X122400000Y-59000000D02*
G75*
G02*
X122900000Y-59500000I0J-500000D01*
G01*
D41*
X160000000Y-73000000D02*
G75*
G02*
X159500000Y-73500000I-500000J0D01*
G01*
X0Y-68150000D02*
X0Y-64600000D01*
D42*
X118100000Y-59500000D02*
G75*
G02*
X119600001Y-58000000I1500000J0D01*
G01*
D41*
X2850000Y-88850000D02*
G75*
G02*
X2350000Y-89350000I-500000J0D01*
G01*
X157150000Y-74000000D02*
X157150000Y-90500000D01*
X500000Y-68650000D02*
G75*
G02*
X0Y-68150000I0J500000D01*
G01*
X160000000Y-73000000D02*
X160000000Y-2000000D01*
X2850000Y-88850000D02*
X2850000Y-69150000D01*
X2350000Y-89350000D02*
X500000Y-89350000D01*
X158000000Y0D02*
X2000000Y0D01*
X2050000Y-64100000D02*
X500000Y-64100000D01*
X157650000Y-91000000D02*
G75*
G02*
X157150000Y-90500000I0J500000D01*
G01*
X2550000Y-63600000D02*
G75*
G02*
X2050000Y-64100000I-500000J0D01*
G01*
D42*
X119100000Y-59500000D02*
X119100000Y-62200000D01*
D41*
X0Y-39400000D02*
X0Y-2000000D01*
X2350000Y-68650000D02*
G75*
G02*
X2850000Y-69150000I0J-500000D01*
G01*
X158000000Y0D02*
G75*
G02*
X160000000Y-2000000I0J-2000000D01*
G01*
M02*
