%TF.GenerationSoftware,KiCad,Pcbnew,9.0.2*%
%TF.CreationDate,2025-05-19T10:14:33-04:00*%
%TF.ProjectId,lps28dfwBreakoutBoard,6c707332-3864-4667-9742-7265616b6f75,rev?*%
%TF.SameCoordinates,Original*%
%TF.FileFunction,Copper,L1,Top*%
%TF.FilePolarity,Positive*%
%FSLAX46Y46*%
G04 Gerber Fmt 4.6, Leading zero omitted, Abs format (unit mm)*
G04 Created by KiCad (PCBNEW 9.0.2) date 2025-05-19 10:14:33*
%MOMM*%
%LPD*%
G01*
G04 APERTURE LIST*
G04 Aperture macros list*
%AMRoundRect*
0 Rectangle with rounded corners*
0 $1 Rounding radius*
0 $2 $3 $4 $5 $6 $7 $8 $9 X,Y pos of 4 corners*
0 Add a 4 corners polygon primitive as box body*
4,1,4,$2,$3,$4,$5,$6,$7,$8,$9,$2,$3,0*
0 Add four circle primitives for the rounded corners*
1,1,$1+$1,$2,$3*
1,1,$1+$1,$4,$5*
1,1,$1+$1,$6,$7*
1,1,$1+$1,$8,$9*
0 Add four rect primitives between the rounded corners*
20,1,$1+$1,$2,$3,$4,$5,0*
20,1,$1+$1,$4,$5,$6,$7,0*
20,1,$1+$1,$6,$7,$8,$9,0*
20,1,$1+$1,$8,$9,$2,$3,0*%
G04 Aperture macros list end*
%TA.AperFunction,ComponentPad*%
%ADD10C,3.140000*%
%TD*%
%TA.AperFunction,SMDPad,CuDef*%
%ADD11RoundRect,0.050000X-0.673900X-0.153200X0.673900X-0.153200X0.673900X0.153200X-0.673900X0.153200X0*%
%TD*%
%TA.AperFunction,SMDPad,CuDef*%
%ADD12RoundRect,0.050000X-0.153200X0.419900X-0.153200X-0.419900X0.153200X-0.419900X0.153200X0.419900X0*%
%TD*%
%TA.AperFunction,SMDPad,CuDef*%
%ADD13RoundRect,0.050000X-0.419900X0.419900X-0.419900X-0.419900X0.419900X-0.419900X0.419900X0.419900X0*%
%TD*%
%TA.AperFunction,ViaPad*%
%ADD14C,0.600000*%
%TD*%
%TA.AperFunction,Conductor*%
%ADD15C,0.300000*%
%TD*%
%TA.AperFunction,Conductor*%
%ADD16C,0.200000*%
%TD*%
G04 APERTURE END LIST*
D10*
%TO.P,REF\u002A\u002A,*%
%TO.N,*%
X129540000Y-114300000D03*
%TD*%
%TO.P,REF\u002A\u002A,*%
%TO.N,*%
X149860000Y-101600000D03*
%TD*%
D11*
%TO.P,U1,1,SDA*%
%TO.N,/SDA*%
X139700000Y-106832400D03*
D12*
%TO.P,U1,2,SA0*%
%TO.N,/ADDR0*%
X138582400Y-107375000D03*
%TO.P,U1,3,SCL*%
%TO.N,/SCL*%
X138582400Y-108525000D03*
D11*
%TO.P,U1,4,INT_DRDY*%
%TO.N,unconnected-(U1-INT_DRDY-Pad4)*%
X139700000Y-109067600D03*
D12*
%TO.P,U1,5,GND*%
%TO.N,VSS*%
X140817600Y-108525000D03*
%TO.P,U1,6,VDD*%
%TO.N,+3V3*%
X140817600Y-107375000D03*
D13*
%TO.P,U1,7,LID*%
%TO.N,VSS*%
X139700000Y-107950000D03*
%TD*%
D10*
%TO.P,REF\u002A\u002A,*%
%TO.N,*%
X129540000Y-101600000D03*
%TD*%
%TO.P,REF\u002A\u002A,*%
%TO.N,*%
X149860000Y-114300000D03*
%TD*%
D14*
%TO.N,+3V3*%
X141732000Y-107569000D03*
%TO.N,VSS*%
X142494000Y-108915200D03*
X144018000Y-108915200D03*
X141986000Y-109728000D03*
X143205200Y-108915200D03*
X141986000Y-110591600D03*
X136652000Y-105537000D03*
%TO.N,/SDA*%
X139319000Y-106045000D03*
%TO.N,/SCL*%
X137160000Y-109855000D03*
%TO.N,/ADDR0*%
X137998200Y-105486200D03*
%TD*%
D15*
%TO.N,+3V3*%
X141538000Y-107375000D02*
X141732000Y-107569000D01*
X140817600Y-107375000D02*
X141538000Y-107375000D01*
D16*
%TO.N,/SDA*%
X139319000Y-106045000D02*
X139700000Y-106426000D01*
X139700000Y-106426000D02*
X139700000Y-106832400D01*
%TO.N,/SCL*%
X137160000Y-109855000D02*
X137541000Y-109855000D01*
X137541000Y-109855000D02*
X138582400Y-108813600D01*
X138582400Y-108813600D02*
X138582400Y-108525000D01*
%TO.N,/ADDR0*%
X137998200Y-105486200D02*
X138582400Y-106070400D01*
X138582400Y-106070400D02*
X138582400Y-107375000D01*
%TD*%
%TA.AperFunction,Conductor*%
%TO.N,VSS*%
G36*
X149862264Y-99441637D02*
G01*
X149883836Y-99442941D01*
X150115650Y-99456964D01*
X150124645Y-99458056D01*
X150372098Y-99503403D01*
X150380893Y-99505571D01*
X150621070Y-99580413D01*
X150629561Y-99583633D01*
X150858958Y-99686876D01*
X150866996Y-99691095D01*
X151082279Y-99821238D01*
X151089752Y-99826397D01*
X151287771Y-99981536D01*
X151294568Y-99987558D01*
X151472441Y-100165431D01*
X151478463Y-100172228D01*
X151633602Y-100370247D01*
X151638761Y-100377720D01*
X151768904Y-100593003D01*
X151773124Y-100601044D01*
X151876366Y-100830438D01*
X151879586Y-100838929D01*
X151954425Y-101079095D01*
X151956598Y-101087912D01*
X152001941Y-101335343D01*
X152003036Y-101344357D01*
X152018363Y-101597735D01*
X152018500Y-101602276D01*
X152018500Y-114297723D01*
X152018363Y-114302264D01*
X152003036Y-114555642D01*
X152001941Y-114564656D01*
X151956598Y-114812087D01*
X151954425Y-114820904D01*
X151879586Y-115061070D01*
X151876366Y-115069561D01*
X151773124Y-115298955D01*
X151768904Y-115306996D01*
X151638761Y-115522279D01*
X151633602Y-115529752D01*
X151478463Y-115727771D01*
X151472441Y-115734568D01*
X151294568Y-115912441D01*
X151287771Y-115918463D01*
X151089752Y-116073602D01*
X151082279Y-116078761D01*
X150866996Y-116208904D01*
X150858955Y-116213124D01*
X150629561Y-116316366D01*
X150621070Y-116319586D01*
X150380904Y-116394425D01*
X150372087Y-116396598D01*
X150124656Y-116441941D01*
X150115642Y-116443036D01*
X149862265Y-116458363D01*
X149857724Y-116458500D01*
X129542276Y-116458500D01*
X129537735Y-116458363D01*
X129284357Y-116443036D01*
X129275343Y-116441941D01*
X129027912Y-116396598D01*
X129019095Y-116394425D01*
X128778929Y-116319586D01*
X128770438Y-116316366D01*
X128541044Y-116213124D01*
X128533003Y-116208904D01*
X128317720Y-116078761D01*
X128310247Y-116073602D01*
X128112228Y-115918463D01*
X128105431Y-115912441D01*
X127927558Y-115734568D01*
X127921536Y-115727771D01*
X127911852Y-115715411D01*
X127766397Y-115529752D01*
X127761238Y-115522279D01*
X127631095Y-115306996D01*
X127626875Y-115298955D01*
X127523633Y-115069561D01*
X127520413Y-115061070D01*
X127460977Y-114870333D01*
X127445571Y-114820893D01*
X127443403Y-114812098D01*
X127398056Y-114564645D01*
X127396964Y-114555650D01*
X127381637Y-114302263D01*
X127381500Y-114297723D01*
X127381500Y-114183955D01*
X127769500Y-114183955D01*
X127769500Y-114416045D01*
X127799794Y-114646149D01*
X127846619Y-114820904D01*
X127859864Y-114870332D01*
X127859864Y-114870333D01*
X127948680Y-115084753D01*
X128064725Y-115285750D01*
X128206006Y-115469871D01*
X128206018Y-115469885D01*
X128370114Y-115633981D01*
X128370121Y-115633987D01*
X128370123Y-115633989D01*
X128554252Y-115775276D01*
X128755248Y-115891320D01*
X128969670Y-115980137D01*
X129193851Y-116040206D01*
X129423955Y-116070500D01*
X129423958Y-116070500D01*
X129656042Y-116070500D01*
X129656045Y-116070500D01*
X129886149Y-116040206D01*
X130110330Y-115980137D01*
X130324752Y-115891320D01*
X130525748Y-115775276D01*
X130709877Y-115633989D01*
X130873989Y-115469877D01*
X131015276Y-115285748D01*
X131131320Y-115084752D01*
X131220137Y-114870330D01*
X131280206Y-114646149D01*
X131310500Y-114416045D01*
X131310500Y-114183955D01*
X148089500Y-114183955D01*
X148089500Y-114416045D01*
X148119794Y-114646149D01*
X148166619Y-114820904D01*
X148179864Y-114870332D01*
X148179864Y-114870333D01*
X148268680Y-115084753D01*
X148384725Y-115285750D01*
X148526006Y-115469871D01*
X148526018Y-115469885D01*
X148690114Y-115633981D01*
X148690121Y-115633987D01*
X148690123Y-115633989D01*
X148874252Y-115775276D01*
X149075248Y-115891320D01*
X149289670Y-115980137D01*
X149513851Y-116040206D01*
X149743955Y-116070500D01*
X149743958Y-116070500D01*
X149976042Y-116070500D01*
X149976045Y-116070500D01*
X150206149Y-116040206D01*
X150430330Y-115980137D01*
X150644752Y-115891320D01*
X150845748Y-115775276D01*
X151029877Y-115633989D01*
X151193989Y-115469877D01*
X151335276Y-115285748D01*
X151451320Y-115084752D01*
X151540137Y-114870330D01*
X151600206Y-114646149D01*
X151630500Y-114416045D01*
X151630500Y-114183955D01*
X151600206Y-113953851D01*
X151540137Y-113729670D01*
X151451320Y-113515248D01*
X151335276Y-113314252D01*
X151193989Y-113130123D01*
X151193987Y-113130121D01*
X151193981Y-113130114D01*
X151029885Y-112966018D01*
X151029871Y-112966006D01*
X150845750Y-112824725D01*
X150644753Y-112708680D01*
X150430333Y-112619864D01*
X150430331Y-112619863D01*
X150430330Y-112619863D01*
X150206149Y-112559794D01*
X149976045Y-112529500D01*
X149743955Y-112529500D01*
X149513851Y-112559794D01*
X149513847Y-112559795D01*
X149513846Y-112559795D01*
X149371723Y-112597877D01*
X149289670Y-112619863D01*
X149289668Y-112619863D01*
X149289667Y-112619864D01*
X149289666Y-112619864D01*
X149075246Y-112708680D01*
X148874249Y-112824725D01*
X148690128Y-112966006D01*
X148690114Y-112966018D01*
X148526018Y-113130114D01*
X148526006Y-113130128D01*
X148384725Y-113314249D01*
X148268680Y-113515246D01*
X148179864Y-113729666D01*
X148179864Y-113729667D01*
X148179863Y-113729670D01*
X148119794Y-113953851D01*
X148089500Y-114183955D01*
X131310500Y-114183955D01*
X131280206Y-113953851D01*
X131220137Y-113729670D01*
X131131320Y-113515248D01*
X131015276Y-113314252D01*
X130873989Y-113130123D01*
X130873987Y-113130121D01*
X130873981Y-113130114D01*
X130709885Y-112966018D01*
X130709871Y-112966006D01*
X130525750Y-112824725D01*
X130324753Y-112708680D01*
X130110333Y-112619864D01*
X130110331Y-112619863D01*
X130110330Y-112619863D01*
X129886149Y-112559794D01*
X129656045Y-112529500D01*
X129423955Y-112529500D01*
X129193851Y-112559794D01*
X129193847Y-112559795D01*
X129193846Y-112559795D01*
X129051723Y-112597877D01*
X128969670Y-112619863D01*
X128969668Y-112619863D01*
X128969667Y-112619864D01*
X128969666Y-112619864D01*
X128755246Y-112708680D01*
X128554249Y-112824725D01*
X128370128Y-112966006D01*
X128370114Y-112966018D01*
X128206018Y-113130114D01*
X128206006Y-113130128D01*
X128064725Y-113314249D01*
X127948680Y-113515246D01*
X127859864Y-113729666D01*
X127859864Y-113729667D01*
X127859863Y-113729670D01*
X127799794Y-113953851D01*
X127769500Y-114183955D01*
X127381500Y-114183955D01*
X127381500Y-109785027D01*
X136628500Y-109785027D01*
X136628500Y-109924973D01*
X136655665Y-110026356D01*
X136664721Y-110060152D01*
X136734693Y-110181346D01*
X136734697Y-110181352D01*
X136833647Y-110280302D01*
X136833650Y-110280304D01*
X136833652Y-110280306D01*
X136954849Y-110350279D01*
X137090027Y-110386500D01*
X137090030Y-110386500D01*
X137229970Y-110386500D01*
X137229973Y-110386500D01*
X137365151Y-110350279D01*
X137486348Y-110280306D01*
X137585306Y-110181348D01*
X137588250Y-110176247D01*
X137627650Y-110143179D01*
X137633904Y-110141206D01*
X137656989Y-110135021D01*
X137725511Y-110095460D01*
X137781460Y-110039511D01*
X138603545Y-109217426D01*
X138618421Y-109210488D01*
X138630999Y-109199935D01*
X138647166Y-109197084D01*
X138650165Y-109195686D01*
X138656719Y-109195400D01*
X138703924Y-109195400D01*
X138752262Y-109212993D01*
X138777679Y-109255928D01*
X138790134Y-109318539D01*
X138790135Y-109318543D01*
X138845498Y-109401401D01*
X138928356Y-109456764D01*
X138928358Y-109456765D01*
X138928360Y-109456766D01*
X138952715Y-109461610D01*
X139001424Y-109471300D01*
X139001426Y-109471300D01*
X140398576Y-109471300D01*
X140435107Y-109464033D01*
X140471640Y-109456766D01*
X140554501Y-109401401D01*
X140609866Y-109318540D01*
X140624400Y-109245474D01*
X140624400Y-108889726D01*
X140609866Y-108816660D01*
X140609865Y-108816658D01*
X140609864Y-108816656D01*
X140554501Y-108733798D01*
X140471643Y-108678435D01*
X140471638Y-108678433D01*
X140398576Y-108663900D01*
X140398574Y-108663900D01*
X139061300Y-108663900D01*
X139012962Y-108646307D01*
X138987242Y-108601758D01*
X138986100Y-108588700D01*
X138986100Y-108080424D01*
X138971566Y-108007362D01*
X138971566Y-108007361D01*
X138971566Y-108007360D01*
X138961154Y-107991778D01*
X138948928Y-107941814D01*
X138961154Y-107908222D01*
X138971566Y-107892640D01*
X138986100Y-107819574D01*
X138986100Y-107311300D01*
X139003693Y-107262962D01*
X139048242Y-107237242D01*
X139061300Y-107236100D01*
X140338700Y-107236100D01*
X140387038Y-107253693D01*
X140412758Y-107298242D01*
X140413900Y-107311300D01*
X140413900Y-107819575D01*
X140428433Y-107892638D01*
X140428435Y-107892643D01*
X140483798Y-107975501D01*
X140566656Y-108030864D01*
X140566658Y-108030865D01*
X140566660Y-108030866D01*
X140591015Y-108035710D01*
X140639724Y-108045400D01*
X140639726Y-108045400D01*
X140995476Y-108045400D01*
X141032007Y-108038133D01*
X141068540Y-108030866D01*
X141151401Y-107975501D01*
X141194800Y-107910548D01*
X141236280Y-107880133D01*
X141287610Y-107883496D01*
X141310499Y-107899154D01*
X141405647Y-107994302D01*
X141405650Y-107994304D01*
X141405652Y-107994306D01*
X141526849Y-108064279D01*
X141662027Y-108100500D01*
X141662030Y-108100500D01*
X141801970Y-108100500D01*
X141801973Y-108100500D01*
X141937151Y-108064279D01*
X142058348Y-107994306D01*
X142157306Y-107895348D01*
X142227279Y-107774151D01*
X142263500Y-107638973D01*
X142263500Y-107499027D01*
X142227279Y-107363849D01*
X142157306Y-107242652D01*
X142157304Y-107242650D01*
X142157302Y-107242647D01*
X142058352Y-107143697D01*
X142058346Y-107143693D01*
X141937152Y-107073721D01*
X141903356Y-107064665D01*
X141801973Y-107037500D01*
X141662027Y-107037500D01*
X141662019Y-107037500D01*
X141657152Y-107038140D01*
X141627888Y-107036220D01*
X141584144Y-107024500D01*
X141296500Y-107024500D01*
X141248162Y-107006907D01*
X141222442Y-106962358D01*
X141221300Y-106949300D01*
X141221300Y-106930424D01*
X141206766Y-106857361D01*
X141206764Y-106857356D01*
X141151401Y-106774498D01*
X141068543Y-106719135D01*
X141068538Y-106719133D01*
X140995476Y-106704600D01*
X140995474Y-106704600D01*
X140696076Y-106704600D01*
X140647738Y-106687007D01*
X140622321Y-106644072D01*
X140618347Y-106624100D01*
X140609866Y-106581460D01*
X140609864Y-106581457D01*
X140609864Y-106581456D01*
X140554501Y-106498598D01*
X140471643Y-106443235D01*
X140471638Y-106443233D01*
X140398576Y-106428700D01*
X140398574Y-106428700D01*
X140069527Y-106428700D01*
X140021189Y-106411107D01*
X139996889Y-106372965D01*
X139980021Y-106310011D01*
X139940460Y-106241489D01*
X139884511Y-106185540D01*
X139872470Y-106173499D01*
X139850730Y-106126879D01*
X139850885Y-106119902D01*
X139850500Y-106119902D01*
X139850500Y-105975029D01*
X139850500Y-105975027D01*
X139814279Y-105839849D01*
X139744306Y-105718652D01*
X139744304Y-105718650D01*
X139744302Y-105718647D01*
X139645352Y-105619697D01*
X139645346Y-105619693D01*
X139524152Y-105549721D01*
X139490356Y-105540665D01*
X139388973Y-105513500D01*
X139249027Y-105513500D01*
X139167920Y-105535232D01*
X139113847Y-105549721D01*
X138992653Y-105619693D01*
X138992647Y-105619697D01*
X138893697Y-105718647D01*
X138893695Y-105718650D01*
X138855554Y-105784711D01*
X138816148Y-105817775D01*
X138764708Y-105817775D01*
X138737255Y-105800284D01*
X138551670Y-105614699D01*
X138529930Y-105568079D01*
X138530085Y-105561102D01*
X138529700Y-105561102D01*
X138529700Y-105416229D01*
X138529700Y-105416227D01*
X138493479Y-105281049D01*
X138423506Y-105159852D01*
X138423504Y-105159850D01*
X138423502Y-105159847D01*
X138324552Y-105060897D01*
X138324546Y-105060893D01*
X138203352Y-104990921D01*
X138169556Y-104981865D01*
X138068173Y-104954700D01*
X137928227Y-104954700D01*
X137847120Y-104976432D01*
X137793047Y-104990921D01*
X137671853Y-105060893D01*
X137671847Y-105060897D01*
X137572897Y-105159847D01*
X137572893Y-105159853D01*
X137502921Y-105281047D01*
X137484810Y-105348638D01*
X137466700Y-105416227D01*
X137466700Y-105556173D01*
X137493865Y-105657556D01*
X137502921Y-105691352D01*
X137572893Y-105812546D01*
X137572897Y-105812552D01*
X137671847Y-105911502D01*
X137671850Y-105911504D01*
X137671852Y-105911506D01*
X137793049Y-105981479D01*
X137928227Y-106017700D01*
X137928230Y-106017700D01*
X138073102Y-106017700D01*
X138073102Y-106020381D01*
X138113884Y-106029392D01*
X138126699Y-106039670D01*
X138259874Y-106172845D01*
X138281614Y-106219465D01*
X138281900Y-106226019D01*
X138281900Y-106712052D01*
X138264307Y-106760390D01*
X138248850Y-106774246D01*
X138248600Y-106774496D01*
X138193235Y-106857356D01*
X138193233Y-106857361D01*
X138178700Y-106930424D01*
X138178700Y-107819575D01*
X138193233Y-107892638D01*
X138193235Y-107892643D01*
X138203645Y-107908222D01*
X138215871Y-107958187D01*
X138203645Y-107991778D01*
X138193235Y-108007356D01*
X138193233Y-108007361D01*
X138178700Y-108080424D01*
X138178700Y-108761180D01*
X138161107Y-108809518D01*
X138156674Y-108814354D01*
X137562010Y-109409017D01*
X137515390Y-109430757D01*
X137471236Y-109420968D01*
X137365153Y-109359721D01*
X137311079Y-109345232D01*
X137229973Y-109323500D01*
X137090027Y-109323500D01*
X137008920Y-109345232D01*
X136954847Y-109359721D01*
X136833653Y-109429693D01*
X136833647Y-109429697D01*
X136734697Y-109528647D01*
X136734693Y-109528653D01*
X136664721Y-109649847D01*
X136646610Y-109717438D01*
X136628500Y-109785027D01*
X127381500Y-109785027D01*
X127381500Y-101602276D01*
X127381637Y-101597736D01*
X127388519Y-101483955D01*
X127769500Y-101483955D01*
X127769500Y-101716045D01*
X127799794Y-101946149D01*
X127799795Y-101946152D01*
X127799795Y-101946153D01*
X127859864Y-102170332D01*
X127859864Y-102170333D01*
X127948680Y-102384753D01*
X128064725Y-102585750D01*
X128206006Y-102769871D01*
X128206018Y-102769885D01*
X128370114Y-102933981D01*
X128370121Y-102933987D01*
X128370123Y-102933989D01*
X128554252Y-103075276D01*
X128755248Y-103191320D01*
X128969670Y-103280137D01*
X129193851Y-103340206D01*
X129423955Y-103370500D01*
X129423958Y-103370500D01*
X129656042Y-103370500D01*
X129656045Y-103370500D01*
X129886149Y-103340206D01*
X130110330Y-103280137D01*
X130324752Y-103191320D01*
X130525748Y-103075276D01*
X130709877Y-102933989D01*
X130873989Y-102769877D01*
X131015276Y-102585748D01*
X131131320Y-102384752D01*
X131220137Y-102170330D01*
X131280206Y-101946149D01*
X131310500Y-101716045D01*
X131310500Y-101483955D01*
X148089500Y-101483955D01*
X148089500Y-101716045D01*
X148119794Y-101946149D01*
X148119795Y-101946152D01*
X148119795Y-101946153D01*
X148179864Y-102170332D01*
X148179864Y-102170333D01*
X148268680Y-102384753D01*
X148384725Y-102585750D01*
X148526006Y-102769871D01*
X148526018Y-102769885D01*
X148690114Y-102933981D01*
X148690121Y-102933987D01*
X148690123Y-102933989D01*
X148874252Y-103075276D01*
X149075248Y-103191320D01*
X149289670Y-103280137D01*
X149513851Y-103340206D01*
X149743955Y-103370500D01*
X149743958Y-103370500D01*
X149976042Y-103370500D01*
X149976045Y-103370500D01*
X150206149Y-103340206D01*
X150430330Y-103280137D01*
X150644752Y-103191320D01*
X150845748Y-103075276D01*
X151029877Y-102933989D01*
X151193989Y-102769877D01*
X151335276Y-102585748D01*
X151451320Y-102384752D01*
X151540137Y-102170330D01*
X151600206Y-101946149D01*
X151630500Y-101716045D01*
X151630500Y-101483955D01*
X151600206Y-101253851D01*
X151540137Y-101029670D01*
X151451320Y-100815248D01*
X151335276Y-100614252D01*
X151193989Y-100430123D01*
X151193987Y-100430121D01*
X151193981Y-100430114D01*
X151029885Y-100266018D01*
X151029871Y-100266006D01*
X150845750Y-100124725D01*
X150644753Y-100008680D01*
X150430333Y-99919864D01*
X150430331Y-99919863D01*
X150430330Y-99919863D01*
X150206149Y-99859794D01*
X149976045Y-99829500D01*
X149743955Y-99829500D01*
X149513851Y-99859794D01*
X149513847Y-99859795D01*
X149513846Y-99859795D01*
X149371723Y-99897877D01*
X149289670Y-99919863D01*
X149289668Y-99919863D01*
X149289667Y-99919864D01*
X149289666Y-99919864D01*
X149075246Y-100008680D01*
X148874249Y-100124725D01*
X148690128Y-100266006D01*
X148690114Y-100266018D01*
X148526018Y-100430114D01*
X148526006Y-100430128D01*
X148384725Y-100614249D01*
X148268680Y-100815246D01*
X148179864Y-101029666D01*
X148179864Y-101029667D01*
X148179863Y-101029670D01*
X148119794Y-101253851D01*
X148089500Y-101483955D01*
X131310500Y-101483955D01*
X131280206Y-101253851D01*
X131220137Y-101029670D01*
X131131320Y-100815248D01*
X131015276Y-100614252D01*
X130873989Y-100430123D01*
X130873987Y-100430121D01*
X130873981Y-100430114D01*
X130709885Y-100266018D01*
X130709871Y-100266006D01*
X130525750Y-100124725D01*
X130324753Y-100008680D01*
X130110333Y-99919864D01*
X130110331Y-99919863D01*
X130110330Y-99919863D01*
X129886149Y-99859794D01*
X129656045Y-99829500D01*
X129423955Y-99829500D01*
X129193851Y-99859794D01*
X129193847Y-99859795D01*
X129193846Y-99859795D01*
X129051723Y-99897877D01*
X128969670Y-99919863D01*
X128969668Y-99919863D01*
X128969667Y-99919864D01*
X128969666Y-99919864D01*
X128755246Y-100008680D01*
X128554249Y-100124725D01*
X128370128Y-100266006D01*
X128370114Y-100266018D01*
X128206018Y-100430114D01*
X128206006Y-100430128D01*
X128064725Y-100614249D01*
X127948680Y-100815246D01*
X127859864Y-101029666D01*
X127859864Y-101029667D01*
X127859863Y-101029670D01*
X127799794Y-101253851D01*
X127769500Y-101483955D01*
X127388519Y-101483955D01*
X127388943Y-101476953D01*
X127391424Y-101435932D01*
X127396964Y-101344347D01*
X127398056Y-101335355D01*
X127443404Y-101087897D01*
X127445570Y-101079110D01*
X127520415Y-100838923D01*
X127523633Y-100830438D01*
X127626879Y-100601034D01*
X127631089Y-100593012D01*
X127761243Y-100377712D01*
X127766391Y-100370254D01*
X127921542Y-100172220D01*
X127927550Y-100165439D01*
X128105439Y-99987550D01*
X128112220Y-99981542D01*
X128310254Y-99826391D01*
X128317712Y-99821243D01*
X128533012Y-99691089D01*
X128541034Y-99686879D01*
X128770443Y-99583630D01*
X128778923Y-99580415D01*
X129019110Y-99505570D01*
X129027897Y-99503404D01*
X129275355Y-99458056D01*
X129284347Y-99456964D01*
X129518104Y-99442824D01*
X129537736Y-99441637D01*
X129542276Y-99441500D01*
X129594851Y-99441500D01*
X149805149Y-99441500D01*
X149857724Y-99441500D01*
X149862264Y-99441637D01*
G37*
%TD.AperFunction*%
%TD*%
M02*
