%TF.GenerationSoftware,KiCad,Pcbnew,9.0.2*%
%TF.CreationDate,2025-05-19T10:14:34-04:00*%
%TF.ProjectId,lps28dfwBreakoutBoard,6c707332-3864-4667-9742-7265616b6f75,rev?*%
%TF.SameCoordinates,Original*%
%TF.FileFunction,AssemblyDrawing,Bot*%
%FSLAX46Y46*%
G04 Gerber Fmt 4.6, Leading zero omitted, Abs format (unit mm)*
G04 Created by KiCad (PCBNEW 9.0.2) date 2025-05-19 10:14:34*
%MOMM*%
%LPD*%
G01*
G04 APERTURE LIST*
%ADD10C,0.150000*%
%ADD11C,0.050000*%
%ADD12C,0.100000*%
G04 APERTURE END LIST*
D10*
%TO.C,R2*%
X136102000Y-107421000D02*
X136102000Y-107971000D01*
X136102000Y-107971000D02*
X137202000Y-107971000D01*
D11*
X136652000Y-107974000D02*
X136652000Y-107418000D01*
X136930000Y-107696000D02*
X136374000Y-107696000D01*
D10*
X137202000Y-107421000D02*
X136102000Y-107421000D01*
X137202000Y-107971000D02*
X137202000Y-107421000D01*
D11*
X136860000Y-107696000D02*
G75*
G02*
X136444000Y-107696000I-208000J0D01*
G01*
X136444000Y-107696000D02*
G75*
G02*
X136860000Y-107696000I208000J0D01*
G01*
D10*
%TO.C,R1*%
X136102000Y-106151000D02*
X136102000Y-106701000D01*
X136102000Y-106701000D02*
X137202000Y-106701000D01*
D11*
X136374000Y-106426000D02*
X136930000Y-106426000D01*
X136652000Y-106148000D02*
X136652000Y-106704000D01*
D10*
X137202000Y-106151000D02*
X136102000Y-106151000D01*
X137202000Y-106701000D02*
X137202000Y-106151000D01*
D11*
X136860000Y-106426000D02*
G75*
G02*
X136444000Y-106426000I-208000J0D01*
G01*
X136444000Y-106426000D02*
G75*
G02*
X136860000Y-106426000I208000J0D01*
G01*
D10*
%TO.C,C1*%
X143543000Y-106313000D02*
X143543000Y-108063000D01*
X143543000Y-108063000D02*
X144493000Y-108063000D01*
D11*
X143668000Y-107188000D02*
X144368000Y-107188000D01*
X144018000Y-107538000D02*
X144018000Y-106838000D01*
D10*
X144493000Y-106313000D02*
X143543000Y-106313000D01*
X144493000Y-108063000D02*
X144493000Y-106313000D01*
D11*
X144268000Y-107188000D02*
G75*
G02*
X143768000Y-107188000I-250000J0D01*
G01*
X143768000Y-107188000D02*
G75*
G02*
X144268000Y-107188000I250000J0D01*
G01*
%TO.C,C2*%
X142216000Y-107569000D02*
X142772000Y-107569000D01*
D10*
X142219000Y-107044000D02*
X142219000Y-108094000D01*
X142219000Y-108094000D02*
X142769000Y-108094000D01*
D11*
X142494000Y-107847000D02*
X142494000Y-107291000D01*
D10*
X142769000Y-107044000D02*
X142219000Y-107044000D01*
X142769000Y-108094000D02*
X142769000Y-107044000D01*
D11*
X142702000Y-107569000D02*
G75*
G02*
X142286000Y-107569000I-208000J0D01*
G01*
X142286000Y-107569000D02*
G75*
G02*
X142702000Y-107569000I208000J0D01*
G01*
D10*
%TO.C,R3*%
X136102000Y-108691000D02*
X136102000Y-109241000D01*
X136102000Y-109241000D02*
X137202000Y-109241000D01*
D11*
X136652000Y-109244000D02*
X136652000Y-108688000D01*
X136930000Y-108966000D02*
X136374000Y-108966000D01*
D10*
X137202000Y-108691000D02*
X136102000Y-108691000D01*
X137202000Y-109241000D02*
X137202000Y-108691000D01*
D11*
X136860000Y-108966000D02*
G75*
G02*
X136444000Y-108966000I-208000J0D01*
G01*
X136444000Y-108966000D02*
G75*
G02*
X136860000Y-108966000I208000J0D01*
G01*
D12*
%TO.C,J1*%
X135100000Y-110500000D02*
X135700000Y-110500000D01*
X135100000Y-110900000D02*
X135100000Y-110500000D01*
X135100000Y-110900000D02*
X135100000Y-114450000D01*
X135100000Y-114450000D02*
X135900000Y-114450000D01*
X135700000Y-110500000D02*
X135700000Y-110900000D01*
X135700000Y-110900000D02*
X143700000Y-110900000D01*
X135900000Y-114450000D02*
X135900000Y-115750000D01*
X135900000Y-115750000D02*
X143500000Y-115750000D01*
X143500000Y-114450000D02*
X143500000Y-115750000D01*
X143700000Y-110500000D02*
X144300000Y-110500000D01*
X143700000Y-110900000D02*
X143700000Y-110500000D01*
X144300000Y-110500000D02*
X144300000Y-110900000D01*
X144300000Y-110900000D02*
X144300000Y-114450000D01*
X144300000Y-114450000D02*
X143500000Y-114450000D01*
%TD*%
M02*
