%TF.GenerationSoftware,KiCad,Pcbnew,9.0.2*%
%TF.CreationDate,2025-05-19T10:14:33-04:00*%
%TF.ProjectId,lps28dfwBreakoutBoard,6c707332-3864-4667-9742-7265616b6f75,rev?*%
%TF.SameCoordinates,Original*%
%TF.FileFunction,Copper,L2,Bot*%
%TF.FilePolarity,Positive*%
%FSLAX46Y46*%
G04 Gerber Fmt 4.6, Leading zero omitted, Abs format (unit mm)*
G04 Created by KiCad (PCBNEW 9.0.2) date 2025-05-19 10:14:33*
%MOMM*%
%LPD*%
G01*
G04 APERTURE LIST*
G04 Aperture macros list*
%AMRoundRect*
0 Rectangle with rounded corners*
0 $1 Rounding radius*
0 $2 $3 $4 $5 $6 $7 $8 $9 X,Y pos of 4 corners*
0 Add a 4 corners polygon primitive as box body*
4,1,4,$2,$3,$4,$5,$6,$7,$8,$9,$2,$3,0*
0 Add four circle primitives for the rounded corners*
1,1,$1+$1,$2,$3*
1,1,$1+$1,$4,$5*
1,1,$1+$1,$6,$7*
1,1,$1+$1,$8,$9*
0 Add four rect primitives between the rounded corners*
20,1,$1+$1,$2,$3,$4,$5,0*
20,1,$1+$1,$4,$5,$6,$7,0*
20,1,$1+$1,$6,$7,$8,$9,0*
20,1,$1+$1,$8,$9,$2,$3,0*%
%AMFreePoly0*
4,1,6,1.000000,0.000000,0.500000,-0.750000,-0.500000,-0.750000,-0.500000,0.750000,0.500000,0.750000,1.000000,0.000000,1.000000,0.000000,$1*%
%AMFreePoly1*
4,1,6,0.500000,-0.750000,-0.650000,-0.750000,-0.150000,0.000000,-0.650000,0.750000,0.500000,0.750000,0.500000,-0.750000,0.500000,-0.750000,$1*%
G04 Aperture macros list end*
%TA.AperFunction,ComponentPad*%
%ADD10C,3.140000*%
%TD*%
%TA.AperFunction,SMDPad,CuDef*%
%ADD11RoundRect,0.150000X-0.150000X-0.150000X0.150000X-0.150000X0.150000X0.150000X-0.150000X0.150000X0*%
%TD*%
%TA.AperFunction,SMDPad,CuDef*%
%ADD12RoundRect,0.150000X0.150000X0.150000X-0.150000X0.150000X-0.150000X-0.150000X0.150000X-0.150000X0*%
%TD*%
%TA.AperFunction,SMDPad,CuDef*%
%ADD13RoundRect,0.200000X-0.250000X0.200000X-0.250000X-0.200000X0.250000X-0.200000X0.250000X0.200000X0*%
%TD*%
%TA.AperFunction,SMDPad,CuDef*%
%ADD14FreePoly0,180.000000*%
%TD*%
%TA.AperFunction,SMDPad,CuDef*%
%ADD15FreePoly1,180.000000*%
%TD*%
%TA.AperFunction,SMDPad,CuDef*%
%ADD16RoundRect,0.125000X-0.175000X0.125000X-0.175000X-0.125000X0.175000X-0.125000X0.175000X0.125000X0*%
%TD*%
%TA.AperFunction,SMDPad,CuDef*%
%ADD17RoundRect,0.050000X0.950000X0.600000X-0.950000X0.600000X-0.950000X-0.600000X0.950000X-0.600000X0*%
%TD*%
%TA.AperFunction,SMDPad,CuDef*%
%ADD18RoundRect,0.050000X0.150000X0.450000X-0.150000X0.450000X-0.150000X-0.450000X0.150000X-0.450000X0*%
%TD*%
%TA.AperFunction,ViaPad*%
%ADD19C,0.600000*%
%TD*%
%TA.AperFunction,Conductor*%
%ADD20C,0.300000*%
%TD*%
%TA.AperFunction,Conductor*%
%ADD21C,0.200000*%
%TD*%
G04 APERTURE END LIST*
D10*
%TO.P,REF\u002A\u002A,*%
%TO.N,*%
X129540000Y-114300000D03*
%TD*%
%TO.P,REF\u002A\u002A,*%
%TO.N,*%
X149860000Y-101600000D03*
%TD*%
%TO.P,REF\u002A\u002A,*%
%TO.N,*%
X129540000Y-101600000D03*
%TD*%
%TO.P,REF\u002A\u002A,*%
%TO.N,*%
X149860000Y-114300000D03*
%TD*%
D11*
%TO.P,R2,1*%
%TO.N,+3V3*%
X136127000Y-107696000D03*
%TO.P,R2,2*%
%TO.N,/SDA*%
X137177000Y-107696000D03*
%TD*%
D12*
%TO.P,R1,1*%
%TO.N,/ADDR0*%
X137177000Y-106426000D03*
%TO.P,R1,2*%
%TO.N,VSS*%
X136127000Y-106426000D03*
%TD*%
D13*
%TO.P,C1,1*%
%TO.N,+3V3*%
X144018000Y-106488000D03*
%TO.P,C1,2*%
%TO.N,VSS*%
X144018000Y-107888000D03*
%TD*%
D14*
%TO.P,JP1,1*%
%TO.N,+3V3*%
X140425000Y-104521000D03*
D15*
%TO.P,JP1,2*%
%TO.N,/ADDR0*%
X138975000Y-104521000D03*
%TD*%
D16*
%TO.P,C2,1*%
%TO.N,+3V3*%
X142494000Y-107069000D03*
%TO.P,C2,2*%
%TO.N,VSS*%
X142494000Y-108069000D03*
%TD*%
D11*
%TO.P,R3,1*%
%TO.N,+3V3*%
X136127000Y-108966000D03*
%TO.P,R3,2*%
%TO.N,/SCL*%
X137177000Y-108966000D03*
%TD*%
D17*
%TO.P,J1,*%
%TO.N,*%
X144000000Y-113400000D03*
X135400000Y-113400000D03*
D18*
%TO.P,J1,1*%
%TO.N,VSS*%
X141200000Y-110700000D03*
%TO.P,J1,2*%
%TO.N,+3V3*%
X140200000Y-110700000D03*
%TO.P,J1,3*%
%TO.N,/SDA*%
X139200000Y-110700000D03*
%TO.P,J1,4*%
%TO.N,/SCL*%
X138200000Y-110700000D03*
%TD*%
D19*
%TO.N,+3V3*%
X141732000Y-107569000D03*
%TO.N,VSS*%
X142494000Y-108915200D03*
X144018000Y-108915200D03*
X141986000Y-109728000D03*
X143205200Y-108915200D03*
X141986000Y-110591600D03*
X136652000Y-105537000D03*
%TO.N,/SDA*%
X139319000Y-106045000D03*
%TO.N,/SCL*%
X137160000Y-109855000D03*
%TO.N,/ADDR0*%
X137998200Y-105486200D03*
%TD*%
D20*
%TO.N,+3V3*%
X140200000Y-109990000D02*
X140716000Y-109474000D01*
X141732000Y-107569000D02*
X141732000Y-106045000D01*
X141224000Y-109474000D02*
X141732000Y-108966000D01*
X140200000Y-110700000D02*
X140200000Y-109990000D01*
X140081000Y-103124000D02*
X140425000Y-103468000D01*
X142494000Y-107069000D02*
X143437000Y-107069000D01*
X141732000Y-108966000D02*
X141732000Y-107569000D01*
X140716000Y-109474000D02*
X141224000Y-109474000D01*
X135255000Y-105537000D02*
X137668000Y-103124000D01*
X136127000Y-108966000D02*
X136127000Y-107696000D01*
X141732000Y-106045000D02*
X140425000Y-104738000D01*
X135255000Y-106824000D02*
X135255000Y-105537000D01*
X143437000Y-107069000D02*
X144018000Y-106488000D01*
X140425000Y-104738000D02*
X140425000Y-104521000D01*
X140425000Y-103468000D02*
X140425000Y-104521000D01*
X136127000Y-107696000D02*
X135255000Y-106824000D01*
X141732000Y-107069000D02*
X142494000Y-107069000D01*
X137668000Y-103124000D02*
X140081000Y-103124000D01*
D21*
%TO.N,/SDA*%
X137922000Y-108441000D02*
X137177000Y-107696000D01*
X139200000Y-110700000D02*
X139200000Y-110371000D01*
X137922000Y-109093000D02*
X137922000Y-108441000D01*
X138828000Y-106045000D02*
X137177000Y-107696000D01*
X139200000Y-110371000D02*
X137922000Y-109093000D01*
X139319000Y-106045000D02*
X138828000Y-106045000D01*
%TO.N,/SCL*%
X138200000Y-110700000D02*
X138200000Y-109989000D01*
X137177000Y-109838000D02*
X137160000Y-109855000D01*
X138200000Y-109989000D02*
X137177000Y-108966000D01*
X137177000Y-108966000D02*
X137177000Y-109838000D01*
%TO.N,/ADDR0*%
X138975000Y-104902000D02*
X138975000Y-105009000D01*
X137287000Y-106316000D02*
X137287000Y-106299000D01*
X137998200Y-105486200D02*
X137998200Y-105604800D01*
X138150600Y-105333800D02*
X138506200Y-105333800D01*
X137998200Y-105604800D02*
X137177000Y-106426000D01*
X138506200Y-105333800D02*
X138684000Y-105156000D01*
X137998200Y-105486200D02*
X138150600Y-105333800D01*
%TD*%
%TA.AperFunction,Conductor*%
%TO.N,VSS*%
G36*
X138350633Y-103492093D02*
G01*
X138376353Y-103536642D01*
X138367420Y-103587300D01*
X138349178Y-103608496D01*
X138346872Y-103610334D01*
X138289851Y-103681836D01*
X138289851Y-103681837D01*
X138269500Y-103771000D01*
X138269500Y-103771001D01*
X138269500Y-103771003D01*
X138269500Y-104910643D01*
X138251907Y-104958981D01*
X138207358Y-104984701D01*
X138174838Y-104983281D01*
X138068173Y-104954700D01*
X137928227Y-104954700D01*
X137847120Y-104976432D01*
X137793047Y-104990921D01*
X137671853Y-105060893D01*
X137671847Y-105060897D01*
X137572897Y-105159847D01*
X137572893Y-105159853D01*
X137502921Y-105281047D01*
X137484810Y-105348638D01*
X137466700Y-105416227D01*
X137466700Y-105556173D01*
X137487634Y-105634300D01*
X137488251Y-105636602D01*
X137483767Y-105687846D01*
X137468788Y-105709239D01*
X137274555Y-105903474D01*
X137227934Y-105925214D01*
X137221380Y-105925500D01*
X136993731Y-105925500D01*
X136925606Y-105935427D01*
X136820514Y-105986803D01*
X136737803Y-106069514D01*
X136686427Y-106174606D01*
X136676500Y-106242731D01*
X136676500Y-106609268D01*
X136686427Y-106677393D01*
X136737803Y-106782485D01*
X136820514Y-106865196D01*
X136820515Y-106865196D01*
X136820517Y-106865198D01*
X136925607Y-106916573D01*
X136975536Y-106923847D01*
X136993731Y-106926499D01*
X136993736Y-106926499D01*
X136993740Y-106926500D01*
X136993742Y-106926500D01*
X137339981Y-106926500D01*
X137388319Y-106944093D01*
X137414039Y-106988642D01*
X137405106Y-107039300D01*
X137393155Y-107054874D01*
X137274555Y-107173474D01*
X137227935Y-107195214D01*
X137221381Y-107195500D01*
X136993731Y-107195500D01*
X136925606Y-107205427D01*
X136820514Y-107256803D01*
X136737803Y-107339514D01*
X136719559Y-107376834D01*
X136682523Y-107412533D01*
X136631205Y-107416074D01*
X136589618Y-107385800D01*
X136584441Y-107376834D01*
X136578092Y-107363847D01*
X136566198Y-107339517D01*
X136566196Y-107339515D01*
X136566196Y-107339514D01*
X136483485Y-107256803D01*
X136483483Y-107256802D01*
X136378393Y-107205427D01*
X136310268Y-107195500D01*
X136310260Y-107195500D01*
X136153330Y-107195500D01*
X136104992Y-107177907D01*
X136100156Y-107173474D01*
X135627526Y-106700844D01*
X135605786Y-106654224D01*
X135605500Y-106647670D01*
X135605500Y-105713329D01*
X135623093Y-105664991D01*
X135627526Y-105660155D01*
X137791155Y-103496526D01*
X137837775Y-103474786D01*
X137844329Y-103474500D01*
X138302295Y-103474500D01*
X138350633Y-103492093D01*
G37*
%TD.AperFunction*%
%TA.AperFunction,Conductor*%
G36*
X149862264Y-99441637D02*
G01*
X149883836Y-99442941D01*
X150115650Y-99456964D01*
X150124645Y-99458056D01*
X150372098Y-99503403D01*
X150380893Y-99505571D01*
X150621070Y-99580413D01*
X150629561Y-99583633D01*
X150858958Y-99686876D01*
X150866996Y-99691095D01*
X151082279Y-99821238D01*
X151089752Y-99826397D01*
X151287771Y-99981536D01*
X151294568Y-99987558D01*
X151472441Y-100165431D01*
X151478463Y-100172228D01*
X151633602Y-100370247D01*
X151638761Y-100377720D01*
X151768904Y-100593003D01*
X151773124Y-100601044D01*
X151876366Y-100830438D01*
X151879586Y-100838929D01*
X151954425Y-101079095D01*
X151956598Y-101087912D01*
X152001941Y-101335343D01*
X152003036Y-101344357D01*
X152018363Y-101597735D01*
X152018500Y-101602276D01*
X152018500Y-114297723D01*
X152018363Y-114302264D01*
X152003036Y-114555642D01*
X152001941Y-114564656D01*
X151956598Y-114812087D01*
X151954425Y-114820904D01*
X151879586Y-115061070D01*
X151876366Y-115069561D01*
X151773124Y-115298955D01*
X151768904Y-115306996D01*
X151638761Y-115522279D01*
X151633602Y-115529752D01*
X151478463Y-115727771D01*
X151472441Y-115734568D01*
X151294568Y-115912441D01*
X151287771Y-115918463D01*
X151089752Y-116073602D01*
X151082279Y-116078761D01*
X150866996Y-116208904D01*
X150858955Y-116213124D01*
X150629561Y-116316366D01*
X150621070Y-116319586D01*
X150380904Y-116394425D01*
X150372087Y-116396598D01*
X150124656Y-116441941D01*
X150115642Y-116443036D01*
X149862265Y-116458363D01*
X149857724Y-116458500D01*
X129542276Y-116458500D01*
X129537735Y-116458363D01*
X129284357Y-116443036D01*
X129275343Y-116441941D01*
X129027912Y-116396598D01*
X129019095Y-116394425D01*
X128778929Y-116319586D01*
X128770438Y-116316366D01*
X128541044Y-116213124D01*
X128533003Y-116208904D01*
X128317720Y-116078761D01*
X128310247Y-116073602D01*
X128112228Y-115918463D01*
X128105431Y-115912441D01*
X127927558Y-115734568D01*
X127921536Y-115727771D01*
X127911852Y-115715411D01*
X127766397Y-115529752D01*
X127761238Y-115522279D01*
X127631095Y-115306996D01*
X127626875Y-115298955D01*
X127523633Y-115069561D01*
X127520413Y-115061070D01*
X127460977Y-114870333D01*
X127445571Y-114820893D01*
X127443403Y-114812098D01*
X127398056Y-114564645D01*
X127396964Y-114555650D01*
X127381637Y-114302263D01*
X127381500Y-114297723D01*
X127381500Y-114183955D01*
X127769500Y-114183955D01*
X127769500Y-114416045D01*
X127799794Y-114646149D01*
X127846619Y-114820904D01*
X127859864Y-114870332D01*
X127859864Y-114870333D01*
X127948680Y-115084753D01*
X128064725Y-115285750D01*
X128206006Y-115469871D01*
X128206018Y-115469885D01*
X128370114Y-115633981D01*
X128370121Y-115633987D01*
X128370123Y-115633989D01*
X128554252Y-115775276D01*
X128755248Y-115891320D01*
X128969670Y-115980137D01*
X129193851Y-116040206D01*
X129423955Y-116070500D01*
X129423958Y-116070500D01*
X129656042Y-116070500D01*
X129656045Y-116070500D01*
X129886149Y-116040206D01*
X130110330Y-115980137D01*
X130324752Y-115891320D01*
X130525748Y-115775276D01*
X130709877Y-115633989D01*
X130873989Y-115469877D01*
X131015276Y-115285748D01*
X131131320Y-115084752D01*
X131220137Y-114870330D01*
X131280206Y-114646149D01*
X131310500Y-114416045D01*
X131310500Y-114183955D01*
X131280206Y-113953851D01*
X131220137Y-113729670D01*
X131131320Y-113515248D01*
X131015276Y-113314252D01*
X130873989Y-113130123D01*
X130873987Y-113130121D01*
X130873981Y-113130114D01*
X130709885Y-112966018D01*
X130709871Y-112966006D01*
X130534308Y-112831292D01*
X130525750Y-112824725D01*
X130440184Y-112775324D01*
X134199500Y-112775324D01*
X134199500Y-114024675D01*
X134214033Y-114097738D01*
X134214035Y-114097743D01*
X134269398Y-114180601D01*
X134352256Y-114235964D01*
X134352258Y-114235965D01*
X134352260Y-114235966D01*
X134376615Y-114240810D01*
X134425324Y-114250500D01*
X134425326Y-114250500D01*
X136374676Y-114250500D01*
X136411207Y-114243233D01*
X136447740Y-114235966D01*
X136530601Y-114180601D01*
X136585966Y-114097740D01*
X136600500Y-114024674D01*
X136600500Y-112775326D01*
X136600500Y-112775324D01*
X142799500Y-112775324D01*
X142799500Y-114024675D01*
X142814033Y-114097738D01*
X142814035Y-114097743D01*
X142869398Y-114180601D01*
X142952256Y-114235964D01*
X142952258Y-114235965D01*
X142952260Y-114235966D01*
X142976615Y-114240810D01*
X143025324Y-114250500D01*
X143025326Y-114250500D01*
X144974676Y-114250500D01*
X145011207Y-114243233D01*
X145047740Y-114235966D01*
X145125581Y-114183955D01*
X148089500Y-114183955D01*
X148089500Y-114416045D01*
X148119794Y-114646149D01*
X148166619Y-114820904D01*
X148179864Y-114870332D01*
X148179864Y-114870333D01*
X148268680Y-115084753D01*
X148384725Y-115285750D01*
X148526006Y-115469871D01*
X148526018Y-115469885D01*
X148690114Y-115633981D01*
X148690121Y-115633987D01*
X148690123Y-115633989D01*
X148874252Y-115775276D01*
X149075248Y-115891320D01*
X149289670Y-115980137D01*
X149513851Y-116040206D01*
X149743955Y-116070500D01*
X149743958Y-116070500D01*
X149976042Y-116070500D01*
X149976045Y-116070500D01*
X150206149Y-116040206D01*
X150430330Y-115980137D01*
X150644752Y-115891320D01*
X150845748Y-115775276D01*
X151029877Y-115633989D01*
X151193989Y-115469877D01*
X151335276Y-115285748D01*
X151451320Y-115084752D01*
X151540137Y-114870330D01*
X151600206Y-114646149D01*
X151630500Y-114416045D01*
X151630500Y-114183955D01*
X151600206Y-113953851D01*
X151540137Y-113729670D01*
X151451320Y-113515248D01*
X151335276Y-113314252D01*
X151193989Y-113130123D01*
X151193987Y-113130121D01*
X151193981Y-113130114D01*
X151029885Y-112966018D01*
X151029871Y-112966006D01*
X150845750Y-112824725D01*
X150644753Y-112708680D01*
X150430333Y-112619864D01*
X150430331Y-112619863D01*
X150430330Y-112619863D01*
X150206149Y-112559794D01*
X149976045Y-112529500D01*
X149743955Y-112529500D01*
X149513851Y-112559794D01*
X149513847Y-112559795D01*
X149513846Y-112559795D01*
X149371723Y-112597877D01*
X149289670Y-112619863D01*
X149289668Y-112619863D01*
X149289667Y-112619864D01*
X149289666Y-112619864D01*
X149075246Y-112708680D01*
X148874249Y-112824725D01*
X148690128Y-112966006D01*
X148690114Y-112966018D01*
X148526018Y-113130114D01*
X148526006Y-113130128D01*
X148384725Y-113314249D01*
X148268680Y-113515246D01*
X148179864Y-113729666D01*
X148179864Y-113729667D01*
X148179863Y-113729670D01*
X148119794Y-113953851D01*
X148089500Y-114183955D01*
X145125581Y-114183955D01*
X145130601Y-114180601D01*
X145185966Y-114097740D01*
X145200500Y-114024674D01*
X145200500Y-112775326D01*
X145185966Y-112702260D01*
X145185965Y-112702258D01*
X145185964Y-112702256D01*
X145130601Y-112619398D01*
X145047743Y-112564035D01*
X145047738Y-112564033D01*
X144974676Y-112549500D01*
X144974674Y-112549500D01*
X143025326Y-112549500D01*
X143025324Y-112549500D01*
X142952261Y-112564033D01*
X142952256Y-112564035D01*
X142869398Y-112619398D01*
X142814035Y-112702256D01*
X142814033Y-112702261D01*
X142799500Y-112775324D01*
X136600500Y-112775324D01*
X136585966Y-112702260D01*
X136585965Y-112702258D01*
X136585964Y-112702256D01*
X136530601Y-112619398D01*
X136447743Y-112564035D01*
X136447738Y-112564033D01*
X136374676Y-112549500D01*
X136374674Y-112549500D01*
X134425326Y-112549500D01*
X134425324Y-112549500D01*
X134352261Y-112564033D01*
X134352256Y-112564035D01*
X134269398Y-112619398D01*
X134214035Y-112702256D01*
X134214033Y-112702261D01*
X134199500Y-112775324D01*
X130440184Y-112775324D01*
X130324753Y-112708680D01*
X130110333Y-112619864D01*
X130110331Y-112619863D01*
X130110330Y-112619863D01*
X129886149Y-112559794D01*
X129656045Y-112529500D01*
X129423955Y-112529500D01*
X129193851Y-112559794D01*
X129193847Y-112559795D01*
X129193846Y-112559795D01*
X129051723Y-112597877D01*
X128969670Y-112619863D01*
X128969668Y-112619863D01*
X128969667Y-112619864D01*
X128969666Y-112619864D01*
X128755246Y-112708680D01*
X128554249Y-112824725D01*
X128370128Y-112966006D01*
X128370114Y-112966018D01*
X128206018Y-113130114D01*
X128206006Y-113130128D01*
X128064725Y-113314249D01*
X127948680Y-113515246D01*
X127859864Y-113729666D01*
X127859864Y-113729667D01*
X127859863Y-113729670D01*
X127799794Y-113953851D01*
X127769500Y-114183955D01*
X127381500Y-114183955D01*
X127381500Y-105490856D01*
X134904500Y-105490856D01*
X134904500Y-105490858D01*
X134904500Y-106870144D01*
X134919600Y-106926497D01*
X134919600Y-106926499D01*
X134919601Y-106926499D01*
X134919601Y-106926500D01*
X134928386Y-106959288D01*
X134928388Y-106959291D01*
X134928389Y-106959294D01*
X134974529Y-107039210D01*
X134974533Y-107039216D01*
X135604474Y-107669156D01*
X135626214Y-107715776D01*
X135626500Y-107722330D01*
X135626500Y-107879268D01*
X135636427Y-107947393D01*
X135687803Y-108052485D01*
X135754474Y-108119156D01*
X135776214Y-108165776D01*
X135776500Y-108172330D01*
X135776500Y-108489670D01*
X135758907Y-108538008D01*
X135754474Y-108542844D01*
X135687803Y-108609514D01*
X135636427Y-108714606D01*
X135626500Y-108782731D01*
X135626500Y-109149268D01*
X135636427Y-109217393D01*
X135687803Y-109322485D01*
X135770514Y-109405196D01*
X135770515Y-109405196D01*
X135770517Y-109405198D01*
X135875607Y-109456573D01*
X135925536Y-109463847D01*
X135943731Y-109466499D01*
X135943736Y-109466499D01*
X135943740Y-109466500D01*
X135943742Y-109466500D01*
X136310258Y-109466500D01*
X136310260Y-109466500D01*
X136310264Y-109466499D01*
X136310268Y-109466499D01*
X136319946Y-109465088D01*
X136378393Y-109456573D01*
X136483483Y-109405198D01*
X136566198Y-109322483D01*
X136584441Y-109285165D01*
X136621476Y-109249467D01*
X136672794Y-109245925D01*
X136711719Y-109272491D01*
X136716269Y-109278436D01*
X136737802Y-109322483D01*
X136789676Y-109374357D01*
X136792702Y-109378311D01*
X136799003Y-109398388D01*
X136807897Y-109417459D01*
X136806558Y-109422455D01*
X136808107Y-109427390D01*
X136800029Y-109446820D01*
X136794583Y-109467146D01*
X136788630Y-109474240D01*
X136788361Y-109474888D01*
X136787875Y-109475139D01*
X136786158Y-109477187D01*
X136734694Y-109528651D01*
X136734693Y-109528653D01*
X136664721Y-109649847D01*
X136646610Y-109717438D01*
X136628500Y-109785027D01*
X136628500Y-109924973D01*
X136649057Y-110001692D01*
X136664721Y-110060152D01*
X136734693Y-110181346D01*
X136734697Y-110181352D01*
X136833647Y-110280302D01*
X136833650Y-110280304D01*
X136833652Y-110280306D01*
X136954849Y-110350279D01*
X137090027Y-110386500D01*
X137090030Y-110386500D01*
X137229970Y-110386500D01*
X137229973Y-110386500D01*
X137365151Y-110350279D01*
X137486348Y-110280306D01*
X137585306Y-110181348D01*
X137655279Y-110060151D01*
X137661910Y-110035403D01*
X137669514Y-110024542D01*
X137672947Y-110011733D01*
X137683807Y-110004128D01*
X137691412Y-109993267D01*
X137704220Y-109989834D01*
X137715084Y-109982228D01*
X137728292Y-109983383D01*
X137741099Y-109979952D01*
X137753117Y-109985556D01*
X137766328Y-109986712D01*
X137787714Y-110001687D01*
X137787718Y-110001689D01*
X137787721Y-110001692D01*
X137820164Y-110034135D01*
X137841904Y-110080755D01*
X137829517Y-110129087D01*
X137814035Y-110152256D01*
X137814033Y-110152261D01*
X137799500Y-110225324D01*
X137799500Y-111174675D01*
X137814033Y-111247738D01*
X137814035Y-111247743D01*
X137869398Y-111330601D01*
X137952256Y-111385964D01*
X137952258Y-111385965D01*
X137952260Y-111385966D01*
X137976615Y-111390810D01*
X138025324Y-111400500D01*
X138025326Y-111400500D01*
X138374676Y-111400500D01*
X138411207Y-111393233D01*
X138447740Y-111385966D01*
X138530601Y-111330601D01*
X138585966Y-111247740D01*
X138600500Y-111174674D01*
X138600500Y-110378019D01*
X138608242Y-110356746D01*
X138614100Y-110334886D01*
X138616916Y-110332913D01*
X138618093Y-110329681D01*
X138637698Y-110318361D01*
X138656237Y-110305381D01*
X138659663Y-110305680D01*
X138662642Y-110303961D01*
X138684935Y-110307892D01*
X138707481Y-110309865D01*
X138711304Y-110312542D01*
X138713300Y-110312894D01*
X138728874Y-110324845D01*
X138777474Y-110373445D01*
X138799214Y-110420065D01*
X138799500Y-110426619D01*
X138799500Y-111174675D01*
X138814033Y-111247738D01*
X138814035Y-111247743D01*
X138869398Y-111330601D01*
X138952256Y-111385964D01*
X138952258Y-111385965D01*
X138952260Y-111385966D01*
X138976615Y-111390810D01*
X139025324Y-111400500D01*
X139025326Y-111400500D01*
X139374676Y-111400500D01*
X139411207Y-111393233D01*
X139447740Y-111385966D01*
X139530601Y-111330601D01*
X139585966Y-111247740D01*
X139600500Y-111174674D01*
X139600500Y-110225326D01*
X139585966Y-110152260D01*
X139585965Y-110152258D01*
X139585964Y-110152256D01*
X139530601Y-110069398D01*
X139447743Y-110014035D01*
X139447738Y-110014033D01*
X139374676Y-109999500D01*
X139374674Y-109999500D01*
X139284619Y-109999500D01*
X139236281Y-109981907D01*
X139231445Y-109977474D01*
X138244526Y-108990555D01*
X138222786Y-108943935D01*
X138222500Y-108937381D01*
X138222500Y-108401439D01*
X138202020Y-108325009D01*
X138193660Y-108310529D01*
X138162460Y-108256489D01*
X138106511Y-108200540D01*
X137699526Y-107793555D01*
X137692588Y-107778678D01*
X137682035Y-107766101D01*
X137679184Y-107749933D01*
X137677786Y-107746935D01*
X137677500Y-107740381D01*
X137677500Y-107651618D01*
X137695093Y-107603280D01*
X137699515Y-107598455D01*
X138856984Y-106440985D01*
X138903603Y-106419246D01*
X138953290Y-106432560D01*
X138963331Y-106440986D01*
X138992647Y-106470302D01*
X138992650Y-106470304D01*
X138992652Y-106470306D01*
X139113849Y-106540279D01*
X139249027Y-106576500D01*
X139249030Y-106576500D01*
X139388970Y-106576500D01*
X139388973Y-106576500D01*
X139524151Y-106540279D01*
X139645348Y-106470306D01*
X139744306Y-106371348D01*
X139814279Y-106250151D01*
X139850500Y-106114973D01*
X139850500Y-105975027D01*
X139814279Y-105839849D01*
X139744306Y-105718652D01*
X139744304Y-105718650D01*
X139744302Y-105718647D01*
X139645352Y-105619697D01*
X139645349Y-105619695D01*
X139645348Y-105619694D01*
X139629237Y-105610392D01*
X139596174Y-105570987D01*
X139596174Y-105519547D01*
X139629240Y-105480142D01*
X139639172Y-105475343D01*
X139646008Y-105472638D01*
X139698085Y-105463065D01*
X139738793Y-105435925D01*
X139746206Y-105432993D01*
X139764423Y-105432488D01*
X139782136Y-105428173D01*
X139790813Y-105431756D01*
X139797626Y-105431568D01*
X139805528Y-105437834D01*
X139820758Y-105444124D01*
X139835837Y-105456149D01*
X139925000Y-105476500D01*
X140636670Y-105476500D01*
X140685008Y-105494093D01*
X140689844Y-105498526D01*
X141359474Y-106168156D01*
X141381214Y-106214776D01*
X141381500Y-106221330D01*
X141381500Y-107136697D01*
X141363907Y-107185035D01*
X141359474Y-107189871D01*
X141306697Y-107242647D01*
X141306693Y-107242653D01*
X141236721Y-107363847D01*
X141223676Y-107412533D01*
X141200500Y-107499027D01*
X141200500Y-107638973D01*
X141222836Y-107722330D01*
X141236721Y-107774152D01*
X141291906Y-107869734D01*
X141306694Y-107895348D01*
X141359474Y-107948128D01*
X141381214Y-107994747D01*
X141381500Y-108001302D01*
X141381500Y-108789670D01*
X141363907Y-108838008D01*
X141359474Y-108842844D01*
X141100844Y-109101474D01*
X141054224Y-109123214D01*
X141047670Y-109123500D01*
X140669856Y-109123500D01*
X140616369Y-109137831D01*
X140580710Y-109147386D01*
X140500789Y-109193529D01*
X140500783Y-109193533D01*
X139919533Y-109774783D01*
X139919529Y-109774789D01*
X139890829Y-109824500D01*
X139873386Y-109854710D01*
X139873386Y-109854712D01*
X139849500Y-109943856D01*
X139849500Y-109943858D01*
X139849500Y-110076368D01*
X139836827Y-110118146D01*
X139814035Y-110152256D01*
X139814033Y-110152261D01*
X139799500Y-110225324D01*
X139799500Y-111174675D01*
X139814033Y-111247738D01*
X139814035Y-111247743D01*
X139869398Y-111330601D01*
X139952256Y-111385964D01*
X139952258Y-111385965D01*
X139952260Y-111385966D01*
X139976615Y-111390810D01*
X140025324Y-111400500D01*
X140025326Y-111400500D01*
X140374676Y-111400500D01*
X140411207Y-111393233D01*
X140447740Y-111385966D01*
X140530601Y-111330601D01*
X140585966Y-111247740D01*
X140600500Y-111174674D01*
X140600500Y-110225326D01*
X140585966Y-110152260D01*
X140585964Y-110152257D01*
X140585089Y-110147857D01*
X140592913Y-110097016D01*
X140605666Y-110080014D01*
X140839157Y-109846525D01*
X140885777Y-109824786D01*
X140892331Y-109824500D01*
X141270141Y-109824500D01*
X141270144Y-109824500D01*
X141359288Y-109800614D01*
X141379217Y-109789108D01*
X141439212Y-109754470D01*
X142012469Y-109181213D01*
X142058614Y-109101288D01*
X142071435Y-109053438D01*
X142082500Y-109012144D01*
X142082500Y-108001302D01*
X142100093Y-107952964D01*
X142104515Y-107948138D01*
X142157306Y-107895348D01*
X142227279Y-107774151D01*
X142263500Y-107638973D01*
X142263500Y-107594699D01*
X142281093Y-107546361D01*
X142325642Y-107520641D01*
X142338690Y-107519499D01*
X142707138Y-107519499D01*
X142754545Y-107513259D01*
X142858579Y-107464747D01*
X142881799Y-107441527D01*
X142928419Y-107419786D01*
X142934974Y-107419500D01*
X143483141Y-107419500D01*
X143483144Y-107419500D01*
X143572288Y-107395614D01*
X143593133Y-107383579D01*
X143652212Y-107349470D01*
X143891156Y-107110524D01*
X143937777Y-107088785D01*
X143944331Y-107088499D01*
X144299513Y-107088499D01*
X144299518Y-107088499D01*
X144307646Y-107087211D01*
X144393301Y-107073647D01*
X144393302Y-107073646D01*
X144393304Y-107073646D01*
X144506342Y-107016050D01*
X144596050Y-106926342D01*
X144653646Y-106813304D01*
X144668500Y-106719519D01*
X144668499Y-106256482D01*
X144661894Y-106214776D01*
X144653647Y-106162698D01*
X144629328Y-106114970D01*
X144596050Y-106049658D01*
X144596049Y-106049657D01*
X144596048Y-106049655D01*
X144506344Y-105959951D01*
X144393305Y-105902354D01*
X144349524Y-105895420D01*
X144299519Y-105887500D01*
X144299517Y-105887500D01*
X143736487Y-105887500D01*
X143736475Y-105887501D01*
X143642698Y-105902352D01*
X143529655Y-105959951D01*
X143439951Y-106049655D01*
X143382354Y-106162694D01*
X143367500Y-106256478D01*
X143367500Y-106611668D01*
X143361885Y-106627094D01*
X143360455Y-106643448D01*
X143351039Y-106656895D01*
X143349907Y-106660006D01*
X143345475Y-106664842D01*
X143313844Y-106696474D01*
X143267224Y-106718214D01*
X143260669Y-106718500D01*
X142934974Y-106718500D01*
X142886636Y-106700907D01*
X142881799Y-106696473D01*
X142858582Y-106673255D01*
X142858575Y-106673250D01*
X142754549Y-106624742D01*
X142754543Y-106624740D01*
X142719619Y-106620142D01*
X142707139Y-106618500D01*
X142707137Y-106618500D01*
X142280864Y-106618500D01*
X142233453Y-106624741D01*
X142189481Y-106645246D01*
X142138237Y-106649730D01*
X142096100Y-106620225D01*
X142082500Y-106577092D01*
X142082500Y-105998858D01*
X142082500Y-105998856D01*
X142058614Y-105909712D01*
X142054366Y-105902354D01*
X142018278Y-105839847D01*
X142012470Y-105829787D01*
X141152526Y-104969843D01*
X141130786Y-104923223D01*
X141130500Y-104916669D01*
X141130500Y-103771001D01*
X141125348Y-103725274D01*
X141125348Y-103725272D01*
X141085666Y-103642873D01*
X141085664Y-103642871D01*
X141014163Y-103585851D01*
X140925000Y-103565500D01*
X140924996Y-103565500D01*
X140850700Y-103565500D01*
X140802362Y-103547907D01*
X140776642Y-103503358D01*
X140775500Y-103490300D01*
X140775500Y-103421858D01*
X140775500Y-103421856D01*
X140751614Y-103332712D01*
X140721260Y-103280137D01*
X140705469Y-103252786D01*
X140296216Y-102843533D01*
X140296210Y-102843529D01*
X140216289Y-102797386D01*
X140194002Y-102791414D01*
X140127144Y-102773500D01*
X137621856Y-102773500D01*
X137575202Y-102786000D01*
X137532713Y-102797385D01*
X137469668Y-102833785D01*
X137452792Y-102843529D01*
X137452783Y-102843534D01*
X134974533Y-105321783D01*
X134974529Y-105321789D01*
X134944754Y-105373362D01*
X134928386Y-105401710D01*
X134928386Y-105401712D01*
X134904500Y-105490856D01*
X127381500Y-105490856D01*
X127381500Y-101602276D01*
X127381637Y-101597736D01*
X127388519Y-101483955D01*
X127769500Y-101483955D01*
X127769500Y-101716045D01*
X127799794Y-101946149D01*
X127799795Y-101946152D01*
X127799795Y-101946153D01*
X127859864Y-102170332D01*
X127859864Y-102170333D01*
X127948680Y-102384753D01*
X128064725Y-102585750D01*
X128206006Y-102769871D01*
X128206018Y-102769885D01*
X128370114Y-102933981D01*
X128370121Y-102933987D01*
X128370123Y-102933989D01*
X128554252Y-103075276D01*
X128755248Y-103191320D01*
X128969670Y-103280137D01*
X129193851Y-103340206D01*
X129423955Y-103370500D01*
X129423958Y-103370500D01*
X129656042Y-103370500D01*
X129656045Y-103370500D01*
X129886149Y-103340206D01*
X130110330Y-103280137D01*
X130324752Y-103191320D01*
X130525748Y-103075276D01*
X130709877Y-102933989D01*
X130873989Y-102769877D01*
X131015276Y-102585748D01*
X131131320Y-102384752D01*
X131220137Y-102170330D01*
X131280206Y-101946149D01*
X131310500Y-101716045D01*
X131310500Y-101483955D01*
X148089500Y-101483955D01*
X148089500Y-101716045D01*
X148119794Y-101946149D01*
X148119795Y-101946152D01*
X148119795Y-101946153D01*
X148179864Y-102170332D01*
X148179864Y-102170333D01*
X148268680Y-102384753D01*
X148384725Y-102585750D01*
X148526006Y-102769871D01*
X148526018Y-102769885D01*
X148690114Y-102933981D01*
X148690121Y-102933987D01*
X148690123Y-102933989D01*
X148874252Y-103075276D01*
X149075248Y-103191320D01*
X149289670Y-103280137D01*
X149513851Y-103340206D01*
X149743955Y-103370500D01*
X149743958Y-103370500D01*
X149976042Y-103370500D01*
X149976045Y-103370500D01*
X150206149Y-103340206D01*
X150430330Y-103280137D01*
X150644752Y-103191320D01*
X150845748Y-103075276D01*
X151029877Y-102933989D01*
X151193989Y-102769877D01*
X151335276Y-102585748D01*
X151451320Y-102384752D01*
X151540137Y-102170330D01*
X151600206Y-101946149D01*
X151630500Y-101716045D01*
X151630500Y-101483955D01*
X151600206Y-101253851D01*
X151540137Y-101029670D01*
X151451320Y-100815248D01*
X151335276Y-100614252D01*
X151193989Y-100430123D01*
X151193987Y-100430121D01*
X151193981Y-100430114D01*
X151029885Y-100266018D01*
X151029871Y-100266006D01*
X150845750Y-100124725D01*
X150644753Y-100008680D01*
X150430333Y-99919864D01*
X150430331Y-99919863D01*
X150430330Y-99919863D01*
X150206149Y-99859794D01*
X149976045Y-99829500D01*
X149743955Y-99829500D01*
X149513851Y-99859794D01*
X149513847Y-99859795D01*
X149513846Y-99859795D01*
X149371723Y-99897877D01*
X149289670Y-99919863D01*
X149289668Y-99919863D01*
X149289667Y-99919864D01*
X149289666Y-99919864D01*
X149075246Y-100008680D01*
X148874249Y-100124725D01*
X148690128Y-100266006D01*
X148690114Y-100266018D01*
X148526018Y-100430114D01*
X148526006Y-100430128D01*
X148384725Y-100614249D01*
X148268680Y-100815246D01*
X148179864Y-101029666D01*
X148179864Y-101029667D01*
X148179863Y-101029670D01*
X148119794Y-101253851D01*
X148089500Y-101483955D01*
X131310500Y-101483955D01*
X131280206Y-101253851D01*
X131220137Y-101029670D01*
X131131320Y-100815248D01*
X131015276Y-100614252D01*
X130873989Y-100430123D01*
X130873987Y-100430121D01*
X130873981Y-100430114D01*
X130709885Y-100266018D01*
X130709871Y-100266006D01*
X130525750Y-100124725D01*
X130324753Y-100008680D01*
X130110333Y-99919864D01*
X130110331Y-99919863D01*
X130110330Y-99919863D01*
X129886149Y-99859794D01*
X129656045Y-99829500D01*
X129423955Y-99829500D01*
X129193851Y-99859794D01*
X129193847Y-99859795D01*
X129193846Y-99859795D01*
X129051723Y-99897877D01*
X128969670Y-99919863D01*
X128969668Y-99919863D01*
X128969667Y-99919864D01*
X128969666Y-99919864D01*
X128755246Y-100008680D01*
X128554249Y-100124725D01*
X128370128Y-100266006D01*
X128370114Y-100266018D01*
X128206018Y-100430114D01*
X128206006Y-100430128D01*
X128064725Y-100614249D01*
X127948680Y-100815246D01*
X127859864Y-101029666D01*
X127859864Y-101029667D01*
X127859863Y-101029670D01*
X127799794Y-101253851D01*
X127769500Y-101483955D01*
X127388519Y-101483955D01*
X127388943Y-101476953D01*
X127391424Y-101435932D01*
X127396964Y-101344347D01*
X127398056Y-101335355D01*
X127443404Y-101087897D01*
X127445570Y-101079110D01*
X127520415Y-100838923D01*
X127523633Y-100830438D01*
X127626879Y-100601034D01*
X127631089Y-100593012D01*
X127761243Y-100377712D01*
X127766391Y-100370254D01*
X127921542Y-100172220D01*
X127927550Y-100165439D01*
X128105439Y-99987550D01*
X128112220Y-99981542D01*
X128310254Y-99826391D01*
X128317712Y-99821243D01*
X128533012Y-99691089D01*
X128541034Y-99686879D01*
X128770443Y-99583630D01*
X128778923Y-99580415D01*
X129019110Y-99505570D01*
X129027897Y-99503404D01*
X129275355Y-99458056D01*
X129284347Y-99456964D01*
X129518104Y-99442824D01*
X129537736Y-99441637D01*
X129542276Y-99441500D01*
X129594851Y-99441500D01*
X149805149Y-99441500D01*
X149857724Y-99441500D01*
X149862264Y-99441637D01*
G37*
%TD.AperFunction*%
%TD*%
M02*
