%TF.GenerationSoftware,KiCad,Pcbnew,9.0.2*%
%TF.CreationDate,2025-05-19T10:14:33-04:00*%
%TF.ProjectId,lps28dfwBreakoutBoard,6c707332-3864-4667-9742-7265616b6f75,rev?*%
%TF.SameCoordinates,Original*%
%TF.FileFunction,Legend,Top*%
%TF.FilePolarity,Positive*%
%FSLAX46Y46*%
G04 Gerber Fmt 4.6, Leading zero omitted, Abs format (unit mm)*
G04 Created by KiCad (PCBNEW 9.0.2) date 2025-05-19 10:14:33*
%MOMM*%
%LPD*%
G01*
G04 APERTURE LIST*
%ADD10C,0.150000*%
%ADD11C,0.152400*%
%ADD12C,0.100000*%
G04 APERTURE END LIST*
D10*
%TO.C,REF\u002A\u002A*%
X131790000Y-114300000D02*
G75*
G02*
X127290000Y-114300000I-2250000J0D01*
G01*
X127290000Y-114300000D02*
G75*
G02*
X131790000Y-114300000I2250000J0D01*
G01*
X152110000Y-101600000D02*
G75*
G02*
X147610000Y-101600000I-2250000J0D01*
G01*
X147610000Y-101600000D02*
G75*
G02*
X152110000Y-101600000I2250000J0D01*
G01*
D11*
%TO.C,U1*%
X138099800Y-106349800D02*
X138099800Y-106724402D01*
X138099800Y-109175598D02*
X138099800Y-109550200D01*
X138099800Y-109550200D02*
X138795403Y-109550200D01*
X138795403Y-106349800D02*
X138099800Y-106349800D01*
X140604597Y-109550200D02*
X141300200Y-109550200D01*
X141300200Y-106349800D02*
X140604597Y-106349800D01*
X141300200Y-106724402D02*
X141300200Y-106349800D01*
X141300200Y-109550200D02*
X141300200Y-109175598D01*
D12*
X139700000Y-105950000D02*
X139450000Y-105700000D01*
X139950000Y-105700000D01*
X139700000Y-105950000D01*
G36*
X139700000Y-105950000D02*
G01*
X139450000Y-105700000D01*
X139950000Y-105700000D01*
X139700000Y-105950000D01*
G37*
D10*
%TO.C,REF\u002A\u002A*%
X131790000Y-101600000D02*
G75*
G02*
X127290000Y-101600000I-2250000J0D01*
G01*
X127290000Y-101600000D02*
G75*
G02*
X131790000Y-101600000I2250000J0D01*
G01*
X152110000Y-114300000D02*
G75*
G02*
X147610000Y-114300000I-2250000J0D01*
G01*
X147610000Y-114300000D02*
G75*
G02*
X152110000Y-114300000I2250000J0D01*
G01*
%TD*%
M02*
