%TF.GenerationSoftware,KiCad,Pcbnew,8.0.6-8.0.6-0~ubuntu24.04.1*%
%TF.CreationDate,2024-12-03T16:30:12-05:00*%
%TF.ProjectId,powerSupplyBoard,706f7765-7253-4757-9070-6c79426f6172,01*%
%TF.SameCoordinates,Original*%
%TF.FileFunction,Copper,L1,Top*%
%TF.FilePolarity,Positive*%
%FSLAX46Y46*%
G04 Gerber Fmt 4.6, Leading zero omitted, Abs format (unit mm)*
G04 Created by KiCad (PCBNEW 8.0.6-8.0.6-0~ubuntu24.04.1) date 2024-12-03 16:30:12*
%MOMM*%
%LPD*%
G01*
G04 APERTURE LIST*
G04 Aperture macros list*
%AMRoundRect*
0 Rectangle with rounded corners*
0 $1 Rounding radius*
0 $2 $3 $4 $5 $6 $7 $8 $9 X,Y pos of 4 corners*
0 Add a 4 corners polygon primitive as box body*
4,1,4,$2,$3,$4,$5,$6,$7,$8,$9,$2,$3,0*
0 Add four circle primitives for the rounded corners*
1,1,$1+$1,$2,$3*
1,1,$1+$1,$4,$5*
1,1,$1+$1,$6,$7*
1,1,$1+$1,$8,$9*
0 Add four rect primitives between the rounded corners*
20,1,$1+$1,$2,$3,$4,$5,0*
20,1,$1+$1,$4,$5,$6,$7,0*
20,1,$1+$1,$6,$7,$8,$9,0*
20,1,$1+$1,$8,$9,$2,$3,0*%
%AMFreePoly0*
4,1,27,0.419134,0.596194,0.435355,0.585355,0.446194,0.569134,0.450000,0.550000,0.450000,-0.050000,0.446194,-0.069134,0.435355,-0.085355,0.419134,-0.096194,0.400000,-0.100000,-0.400000,-0.100000,-0.419134,-0.096194,-0.435355,-0.085355,-0.446194,-0.069134,-0.450000,-0.050000,-0.450000,0.050000,-0.446194,0.069134,-0.435355,0.085355,-0.419134,0.096194,-0.400000,0.100000,0.250000,0.100000,
0.250000,0.550000,0.253806,0.569134,0.264645,0.585355,0.280866,0.596194,0.300000,0.600000,0.400000,0.600000,0.419134,0.596194,0.419134,0.596194,$1*%
%AMFreePoly1*
4,1,27,0.419134,0.096194,0.435355,0.085355,0.446194,0.069134,0.450000,0.050000,0.450000,-0.550000,0.446194,-0.569134,0.435355,-0.585355,0.419134,-0.596194,0.400000,-0.600000,0.300000,-0.600000,0.280866,-0.596194,0.264645,-0.585355,0.253806,-0.569134,0.250000,-0.550000,0.250000,-0.100000,-0.400000,-0.100000,-0.419134,-0.096194,-0.435355,-0.085355,-0.446194,-0.069134,-0.450000,-0.050000,
-0.450000,0.050000,-0.446194,0.069134,-0.435355,0.085355,-0.419134,0.096194,-0.400000,0.100000,0.400000,0.100000,0.419134,0.096194,0.419134,0.096194,$1*%
%AMFreePoly2*
4,1,27,0.419134,0.096194,0.435355,0.085355,0.446194,0.069134,0.450000,0.050000,0.450000,-0.050000,0.446194,-0.069134,0.435355,-0.085355,0.419134,-0.096194,0.400000,-0.100000,-0.250000,-0.100000,-0.250000,-0.550000,-0.253806,-0.569134,-0.264645,-0.585355,-0.280866,-0.596194,-0.300000,-0.600000,-0.400000,-0.600000,-0.419134,-0.596194,-0.435355,-0.585355,-0.446194,-0.569134,-0.450000,-0.550000,
-0.450000,0.050000,-0.446194,0.069134,-0.435355,0.085355,-0.419134,0.096194,-0.400000,0.100000,0.400000,0.100000,0.419134,0.096194,0.419134,0.096194,$1*%
%AMFreePoly3*
4,1,27,-0.280866,0.596194,-0.264645,0.585355,-0.253806,0.569134,-0.250000,0.550000,-0.250000,0.100000,0.400000,0.100000,0.419134,0.096194,0.435355,0.085355,0.446194,0.069134,0.450000,0.050000,0.450000,-0.050000,0.446194,-0.069134,0.435355,-0.085355,0.419134,-0.096194,0.400000,-0.100000,-0.400000,-0.100000,-0.419134,-0.096194,-0.435355,-0.085355,-0.446194,-0.069134,-0.450000,-0.050000,
-0.450000,0.550000,-0.446194,0.569134,-0.435355,0.585355,-0.419134,0.596194,-0.400000,0.600000,-0.300000,0.600000,-0.280866,0.596194,-0.280866,0.596194,$1*%
%AMFreePoly4*
4,1,17,-0.725000,0.950000,-0.575000,0.950000,-0.575000,1.360000,-0.075000,1.360000,-0.075000,0.950000,0.075000,0.950000,0.075000,1.360000,0.575000,1.360000,0.575000,0.950000,0.725000,0.950000,0.725000,1.360000,1.225000,1.360000,1.225000,-0.950000,-1.225000,-0.950000,-1.225000,1.360000,-0.725000,1.360000,-0.725000,0.950000,-0.725000,0.950000,$1*%
G04 Aperture macros list end*
%TA.AperFunction,SMDPad,CuDef*%
%ADD10RoundRect,0.275880X0.274120X-0.674120X0.274120X0.674120X-0.274120X0.674120X-0.274120X-0.674120X0*%
%TD*%
%TA.AperFunction,SMDPad,CuDef*%
%ADD11RoundRect,0.137500X-0.152500X0.137500X-0.152500X-0.137500X0.152500X-0.137500X0.152500X0.137500X0*%
%TD*%
%TA.AperFunction,SMDPad,CuDef*%
%ADD12RoundRect,0.145000X-0.145000X0.155000X-0.145000X-0.155000X0.145000X-0.155000X0.145000X0.155000X0*%
%TD*%
%TA.AperFunction,SMDPad,CuDef*%
%ADD13RoundRect,0.217750X-0.267250X0.217750X-0.267250X-0.217750X0.267250X-0.217750X0.267250X0.217750X0*%
%TD*%
%TA.AperFunction,SMDPad,CuDef*%
%ADD14RoundRect,0.217750X0.267250X-0.217750X0.267250X0.217750X-0.267250X0.217750X-0.267250X-0.217750X0*%
%TD*%
%TA.AperFunction,SMDPad,CuDef*%
%ADD15RoundRect,0.275000X0.350000X-0.275000X0.350000X0.275000X-0.350000X0.275000X-0.350000X-0.275000X0*%
%TD*%
%TA.AperFunction,SMDPad,CuDef*%
%ADD16RoundRect,0.137500X0.137500X0.152500X-0.137500X0.152500X-0.137500X-0.152500X0.137500X-0.152500X0*%
%TD*%
%TA.AperFunction,SMDPad,CuDef*%
%ADD17RoundRect,0.145000X0.155000X0.145000X-0.155000X0.145000X-0.155000X-0.145000X0.155000X-0.145000X0*%
%TD*%
%TA.AperFunction,SMDPad,CuDef*%
%ADD18RoundRect,0.137500X0.152500X-0.137500X0.152500X0.137500X-0.152500X0.137500X-0.152500X-0.137500X0*%
%TD*%
%TA.AperFunction,SMDPad,CuDef*%
%ADD19RoundRect,0.145000X0.145000X-0.155000X0.145000X0.155000X-0.145000X0.155000X-0.145000X-0.155000X0*%
%TD*%
%TA.AperFunction,SMDPad,CuDef*%
%ADD20RoundRect,0.217750X0.217750X0.267250X-0.217750X0.267250X-0.217750X-0.267250X0.217750X-0.267250X0*%
%TD*%
%TA.AperFunction,SMDPad,CuDef*%
%ADD21RoundRect,0.291250X-0.616250X0.291250X-0.616250X-0.291250X0.616250X-0.291250X0.616250X0.291250X0*%
%TD*%
%TA.AperFunction,ComponentPad*%
%ADD22O,2.100000X1.300000*%
%TD*%
%TA.AperFunction,ComponentPad*%
%ADD23C,1.500000*%
%TD*%
%TA.AperFunction,SMDPad,CuDef*%
%ADD24RoundRect,0.137500X-0.137500X-0.152500X0.137500X-0.152500X0.137500X0.152500X-0.137500X0.152500X0*%
%TD*%
%TA.AperFunction,SMDPad,CuDef*%
%ADD25RoundRect,0.145000X-0.155000X-0.145000X0.155000X-0.145000X0.155000X0.145000X-0.155000X0.145000X0*%
%TD*%
%TA.AperFunction,SMDPad,CuDef*%
%ADD26RoundRect,0.150000X-0.150000X0.425000X-0.150000X-0.425000X0.150000X-0.425000X0.150000X0.425000X0*%
%TD*%
%TA.AperFunction,SMDPad,CuDef*%
%ADD27RoundRect,0.075000X-0.075000X0.500000X-0.075000X-0.500000X0.075000X-0.500000X0.075000X0.500000X0*%
%TD*%
%TA.AperFunction,ComponentPad*%
%ADD28O,1.000000X2.200000*%
%TD*%
%TA.AperFunction,SMDPad,CuDef*%
%ADD29RoundRect,0.250000X-1.153000X0.432500X-1.153000X-0.432500X1.153000X-0.432500X1.153000X0.432500X0*%
%TD*%
%TA.AperFunction,SMDPad,CuDef*%
%ADD30C,1.000000*%
%TD*%
%TA.AperFunction,SMDPad,CuDef*%
%ADD31RoundRect,0.275000X-0.350000X0.275000X-0.350000X-0.275000X0.350000X-0.275000X0.350000X0.275000X0*%
%TD*%
%TA.AperFunction,SMDPad,CuDef*%
%ADD32RoundRect,0.291250X0.616250X-0.291250X0.616250X0.291250X-0.616250X0.291250X-0.616250X-0.291250X0*%
%TD*%
%TA.AperFunction,SMDPad,CuDef*%
%ADD33RoundRect,0.145000X0.145000X-0.167500X0.145000X0.167500X-0.145000X0.167500X-0.145000X-0.167500X0*%
%TD*%
%TA.AperFunction,SMDPad,CuDef*%
%ADD34RoundRect,0.087500X0.237500X0.087500X-0.237500X0.087500X-0.237500X-0.087500X0.237500X-0.087500X0*%
%TD*%
%TA.AperFunction,SMDPad,CuDef*%
%ADD35RoundRect,0.050000X0.775000X1.125000X-0.775000X1.125000X-0.775000X-1.125000X0.775000X-1.125000X0*%
%TD*%
%TA.AperFunction,SMDPad,CuDef*%
%ADD36RoundRect,0.062500X-0.187500X0.062500X-0.187500X-0.062500X0.187500X-0.062500X0.187500X0.062500X0*%
%TD*%
%TA.AperFunction,SMDPad,CuDef*%
%ADD37RoundRect,0.217750X-0.217750X-0.267250X0.217750X-0.267250X0.217750X0.267250X-0.217750X0.267250X0*%
%TD*%
%TA.AperFunction,ComponentPad*%
%ADD38O,2.000000X4.500000*%
%TD*%
%TA.AperFunction,ComponentPad*%
%ADD39O,4.250000X2.000000*%
%TD*%
%TA.AperFunction,SMDPad,CuDef*%
%ADD40RoundRect,0.087500X-0.127500X-0.087500X0.127500X-0.087500X0.127500X0.087500X-0.127500X0.087500X0*%
%TD*%
%TA.AperFunction,SMDPad,CuDef*%
%ADD41RoundRect,0.275000X-0.275000X-0.350000X0.275000X-0.350000X0.275000X0.350000X-0.275000X0.350000X0*%
%TD*%
%TA.AperFunction,SMDPad,CuDef*%
%ADD42RoundRect,0.087500X-0.242500X-0.087500X0.242500X-0.087500X0.242500X0.087500X-0.242500X0.087500X0*%
%TD*%
%TA.AperFunction,SMDPad,CuDef*%
%ADD43FreePoly0,180.000000*%
%TD*%
%TA.AperFunction,SMDPad,CuDef*%
%ADD44RoundRect,0.050000X0.250000X0.050000X-0.250000X0.050000X-0.250000X-0.050000X0.250000X-0.050000X0*%
%TD*%
%TA.AperFunction,SMDPad,CuDef*%
%ADD45FreePoly1,180.000000*%
%TD*%
%TA.AperFunction,SMDPad,CuDef*%
%ADD46RoundRect,0.050000X-0.050000X0.250000X-0.050000X-0.250000X0.050000X-0.250000X0.050000X0.250000X0*%
%TD*%
%TA.AperFunction,SMDPad,CuDef*%
%ADD47FreePoly2,180.000000*%
%TD*%
%TA.AperFunction,SMDPad,CuDef*%
%ADD48RoundRect,0.050000X-0.300000X-0.050000X0.300000X-0.050000X0.300000X0.050000X-0.300000X0.050000X0*%
%TD*%
%TA.AperFunction,SMDPad,CuDef*%
%ADD49RoundRect,0.050000X-0.275000X-0.050000X0.275000X-0.050000X0.275000X0.050000X-0.275000X0.050000X0*%
%TD*%
%TA.AperFunction,SMDPad,CuDef*%
%ADD50RoundRect,0.050000X-0.290000X-0.050000X0.290000X-0.050000X0.290000X0.050000X-0.290000X0.050000X0*%
%TD*%
%TA.AperFunction,SMDPad,CuDef*%
%ADD51RoundRect,0.050000X-0.250000X-0.050000X0.250000X-0.050000X0.250000X0.050000X-0.250000X0.050000X0*%
%TD*%
%TA.AperFunction,SMDPad,CuDef*%
%ADD52FreePoly3,180.000000*%
%TD*%
%TA.AperFunction,SMDPad,CuDef*%
%ADD53RoundRect,0.050000X0.050000X-0.450000X0.050000X0.450000X-0.050000X0.450000X-0.050000X-0.450000X0*%
%TD*%
%TA.AperFunction,SMDPad,CuDef*%
%ADD54RoundRect,0.050000X0.050000X-0.425000X0.050000X0.425000X-0.050000X0.425000X-0.050000X-0.425000X0*%
%TD*%
%TA.AperFunction,ComponentPad*%
%ADD55R,2.000000X2.000000*%
%TD*%
%TA.AperFunction,ComponentPad*%
%ADD56C,2.000000*%
%TD*%
%TA.AperFunction,SMDPad,CuDef*%
%ADD57RoundRect,0.150000X-0.150000X0.200000X-0.150000X-0.200000X0.150000X-0.200000X0.150000X0.200000X0*%
%TD*%
%TA.AperFunction,SMDPad,CuDef*%
%ADD58RoundRect,0.250000X-0.525000X2.550000X-0.525000X-2.550000X0.525000X-2.550000X0.525000X2.550000X0*%
%TD*%
%TA.AperFunction,ComponentPad*%
%ADD59C,2.750000*%
%TD*%
%TA.AperFunction,SMDPad,CuDef*%
%ADD60RoundRect,0.275000X0.275000X0.350000X-0.275000X0.350000X-0.275000X-0.350000X0.275000X-0.350000X0*%
%TD*%
%TA.AperFunction,SMDPad,CuDef*%
%ADD61RoundRect,0.250000X0.250000X1.500000X-0.250000X1.500000X-0.250000X-1.500000X0.250000X-1.500000X0*%
%TD*%
%TA.AperFunction,SMDPad,CuDef*%
%ADD62RoundRect,0.250000X0.500000X1.450000X-0.500000X1.450000X-0.500000X-1.450000X0.500000X-1.450000X0*%
%TD*%
%TA.AperFunction,SMDPad,CuDef*%
%ADD63RoundRect,0.137500X-0.137500X0.262500X-0.137500X-0.262500X0.137500X-0.262500X0.137500X0.262500X0*%
%TD*%
%TA.AperFunction,SMDPad,CuDef*%
%ADD64RoundRect,0.278750X-0.278750X-0.453750X0.278750X-0.453750X0.278750X0.453750X-0.278750X0.453750X0*%
%TD*%
%TA.AperFunction,SMDPad,CuDef*%
%ADD65RoundRect,0.087500X0.127500X0.087500X-0.127500X0.087500X-0.127500X-0.087500X0.127500X-0.087500X0*%
%TD*%
%TA.AperFunction,SMDPad,CuDef*%
%ADD66RoundRect,0.087500X0.242500X0.087500X-0.242500X0.087500X-0.242500X-0.087500X0.242500X-0.087500X0*%
%TD*%
%TA.AperFunction,SMDPad,CuDef*%
%ADD67RoundRect,0.050000X-0.100000X-0.050000X0.100000X-0.050000X0.100000X0.050000X-0.100000X0.050000X0*%
%TD*%
%TA.AperFunction,SMDPad,CuDef*%
%ADD68RoundRect,0.050000X0.050000X-0.100000X0.050000X0.100000X-0.050000X0.100000X-0.050000X-0.100000X0*%
%TD*%
%TA.AperFunction,SMDPad,CuDef*%
%ADD69RoundRect,0.100000X-0.100000X-0.100000X0.100000X-0.100000X0.100000X0.100000X-0.100000X0.100000X0*%
%TD*%
%TA.AperFunction,SMDPad,CuDef*%
%ADD70RoundRect,0.278750X0.278750X0.453750X-0.278750X0.453750X-0.278750X-0.453750X0.278750X-0.453750X0*%
%TD*%
%TA.AperFunction,SMDPad,CuDef*%
%ADD71RoundRect,0.150000X-0.200000X-0.150000X0.200000X-0.150000X0.200000X0.150000X-0.200000X0.150000X0*%
%TD*%
%TA.AperFunction,SMDPad,CuDef*%
%ADD72RoundRect,0.250000X0.432500X1.153000X-0.432500X1.153000X-0.432500X-1.153000X0.432500X-1.153000X0*%
%TD*%
%TA.AperFunction,SMDPad,CuDef*%
%ADD73RoundRect,0.250000X0.700000X-0.250000X0.700000X0.250000X-0.700000X0.250000X-0.700000X-0.250000X0*%
%TD*%
%TA.AperFunction,SMDPad,CuDef*%
%ADD74C,0.787400*%
%TD*%
%TA.AperFunction,SMDPad,CuDef*%
%ADD75RoundRect,0.507500X1.142500X0.507500X-1.142500X0.507500X-1.142500X-0.507500X1.142500X-0.507500X0*%
%TD*%
%TA.AperFunction,SMDPad,CuDef*%
%ADD76RoundRect,0.190000X0.660000X0.190000X-0.660000X0.190000X-0.660000X-0.190000X0.660000X-0.190000X0*%
%TD*%
%TA.AperFunction,SMDPad,CuDef*%
%ADD77RoundRect,0.250000X2.000000X-0.400000X2.000000X0.400000X-2.000000X0.400000X-2.000000X-0.400000X0*%
%TD*%
%TA.AperFunction,SMDPad,CuDef*%
%ADD78RoundRect,0.250000X1.700000X-0.650000X1.700000X0.650000X-1.700000X0.650000X-1.700000X-0.650000X0*%
%TD*%
%TA.AperFunction,SMDPad,CuDef*%
%ADD79RoundRect,0.190000X0.190000X0.205000X-0.190000X0.205000X-0.190000X-0.205000X0.190000X-0.205000X0*%
%TD*%
%TA.AperFunction,SMDPad,CuDef*%
%ADD80R,0.630000X0.500000*%
%TD*%
%TA.AperFunction,SMDPad,CuDef*%
%ADD81FreePoly4,90.000000*%
%TD*%
%TA.AperFunction,SMDPad,CuDef*%
%ADD82RoundRect,0.250000X-0.250000X0.525000X-0.250000X-0.525000X0.250000X-0.525000X0.250000X0.525000X0*%
%TD*%
%TA.AperFunction,SMDPad,CuDef*%
%ADD83RoundRect,0.291250X-0.291250X-0.616250X0.291250X-0.616250X0.291250X0.616250X-0.291250X0.616250X0*%
%TD*%
%TA.AperFunction,SMDPad,CuDef*%
%ADD84RoundRect,0.050000X-0.650000X0.650000X-0.650000X-0.650000X0.650000X-0.650000X0.650000X0.650000X0*%
%TD*%
%TA.AperFunction,SMDPad,CuDef*%
%ADD85RoundRect,0.145000X-0.167500X-0.145000X0.167500X-0.145000X0.167500X0.145000X-0.167500X0.145000X0*%
%TD*%
%TA.AperFunction,SMDPad,CuDef*%
%ADD86RoundRect,0.075000X0.075000X-0.225000X0.075000X0.225000X-0.075000X0.225000X-0.075000X-0.225000X0*%
%TD*%
%TA.AperFunction,SMDPad,CuDef*%
%ADD87RoundRect,0.075000X-0.225000X-0.075000X0.225000X-0.075000X0.225000X0.075000X-0.225000X0.075000X0*%
%TD*%
%TA.AperFunction,SMDPad,CuDef*%
%ADD88RoundRect,0.075000X0.225000X0.075000X-0.225000X0.075000X-0.225000X-0.075000X0.225000X-0.075000X0*%
%TD*%
%TA.AperFunction,SMDPad,CuDef*%
%ADD89RoundRect,0.250000X-1.475000X1.475000X-1.475000X-1.475000X1.475000X-1.475000X1.475000X1.475000X0*%
%TD*%
%TA.AperFunction,ViaPad*%
%ADD90C,0.600000*%
%TD*%
%TA.AperFunction,ViaPad*%
%ADD91C,0.750000*%
%TD*%
%TA.AperFunction,ViaPad*%
%ADD92C,0.500000*%
%TD*%
%TA.AperFunction,ViaPad*%
%ADD93C,1.000000*%
%TD*%
%TA.AperFunction,Conductor*%
%ADD94C,0.200000*%
%TD*%
%TA.AperFunction,Conductor*%
%ADD95C,0.250000*%
%TD*%
%TA.AperFunction,Conductor*%
%ADD96C,0.500000*%
%TD*%
%TA.AperFunction,Conductor*%
%ADD97C,0.300000*%
%TD*%
%TA.AperFunction,Conductor*%
%ADD98C,0.600000*%
%TD*%
%TA.AperFunction,Conductor*%
%ADD99C,0.450000*%
%TD*%
%TA.AperFunction,Conductor*%
%ADD100C,0.350000*%
%TD*%
%TA.AperFunction,Conductor*%
%ADD101C,0.750000*%
%TD*%
%TA.AperFunction,Conductor*%
%ADD102C,0.700000*%
%TD*%
G04 APERTURE END LIST*
D10*
%TO.P,Y1,1,1*%
%TO.N,Net-(U2-PC14-OSC32_IN)*%
X117350000Y-106500000D03*
%TO.P,Y1,2,2*%
%TO.N,Net-(U2-PC15-OSC32_OUT)*%
X119850000Y-106500000D03*
%TD*%
D11*
%TO.P,R28,1*%
%TO.N,BAT+*%
X156550000Y-106410000D03*
D12*
%TO.P,R28,2*%
%TO.N,Net-(Q3-Pad3)*%
X156550000Y-107365000D03*
%TD*%
D13*
%TO.P,C9,1*%
%TO.N,Net-(U2-PC15-OSC32_OUT)*%
X119850000Y-108650000D03*
%TO.P,C9,2*%
%TO.N,VSS*%
X119850000Y-110150000D03*
%TD*%
D14*
%TO.P,C38,1*%
%TO.N,Net-(C37-Pad2)*%
X160700000Y-102150000D03*
%TO.P,C38,2*%
%TO.N,PACK+*%
X160700000Y-100650000D03*
%TD*%
D15*
%TO.P,D3,1*%
%TO.N,Net-(D3-Pad1)*%
X152100000Y-125650000D03*
%TO.P,D3,2*%
%TO.N,Net-(U3-STAT)*%
X152100000Y-127550000D03*
%TD*%
D16*
%TO.P,R10,1*%
%TO.N,Net-(U3-PROG)*%
X146590000Y-111700000D03*
D17*
%TO.P,R10,2*%
%TO.N,AGND*%
X145635000Y-111700000D03*
%TD*%
D14*
%TO.P,C37,1*%
%TO.N,BAT+*%
X160700000Y-105150000D03*
%TO.P,C37,2*%
%TO.N,Net-(C37-Pad2)*%
X160700000Y-103650000D03*
%TD*%
D18*
%TO.P,R11,1*%
%TO.N,/Battery Charger/BATP*%
X140000000Y-111690000D03*
D19*
%TO.P,R11,2*%
%TO.N,BAT+*%
X140000000Y-110735000D03*
%TD*%
D13*
%TO.P,C10,1*%
%TO.N,/NRST*%
X112500000Y-125250000D03*
%TO.P,C10,2*%
%TO.N,VSS*%
X112500000Y-126750000D03*
%TD*%
D20*
%TO.P,C6,1*%
%TO.N,+3V3*%
X114150000Y-102400000D03*
%TO.P,C6,2*%
%TO.N,VSS*%
X112650000Y-102400000D03*
%TD*%
%TO.P,C34,1*%
%TO.N,GND*%
X154150000Y-96900000D03*
%TO.P,C34,2*%
%TO.N,+3V3*%
X152650000Y-96900000D03*
%TD*%
D21*
%TO.P,C23,1*%
%TO.N,/Battery Charger/PMID*%
X149700000Y-119425000D03*
%TO.P,C23,2*%
%TO.N,GND*%
X149700000Y-122375000D03*
%TD*%
D18*
%TO.P,R17,1*%
%TO.N,/Battery Manager/1P*%
X160700000Y-99290000D03*
D19*
%TO.P,R17,2*%
%TO.N,/Battery Manager/VC1*%
X160700000Y-98335000D03*
%TD*%
D22*
%TO.P,SW1,*%
%TO.N,*%
X114000000Y-106900000D03*
X114000000Y-115100000D03*
D23*
%TO.P,SW1,1*%
%TO.N,+3V3*%
X114000000Y-109000000D03*
%TO.P,SW1,2*%
%TO.N,Net-(R5-Pad2)*%
X114000000Y-111000000D03*
%TO.P,SW1,3*%
%TO.N,VSS*%
X114000000Y-113000000D03*
%TD*%
D24*
%TO.P,R13,1*%
%TO.N,/Battery Charger/ILIM_HZ*%
X147110000Y-109400000D03*
D25*
%TO.P,R13,2*%
%TO.N,AGND*%
X148065000Y-109400000D03*
%TD*%
D18*
%TO.P,R27,1*%
%TO.N,BAT+*%
X159300000Y-105190000D03*
D19*
%TO.P,R27,2*%
%TO.N,Net-(Q2-Pad3)*%
X159300000Y-104235000D03*
%TD*%
D26*
%TO.P,J1,A1,GND*%
%TO.N,VSS*%
X119200000Y-90075000D03*
%TO.P,J1,A4,VBUS*%
%TO.N,/VUSB*%
X118400000Y-90075000D03*
D27*
%TO.P,J1,A5,CC1*%
%TO.N,/CC1*%
X117250000Y-90075000D03*
%TO.P,J1,A6,D+*%
%TO.N,/D_P*%
X116250000Y-90075000D03*
%TO.P,J1,A7,D-*%
%TO.N,/D_N*%
X115750000Y-90075000D03*
%TO.P,J1,A8,SBUS1*%
%TO.N,unconnected-(J1-SBUS1-PadA8)*%
X114750000Y-90075000D03*
D26*
%TO.P,J1,A9,VBUS*%
%TO.N,/VUSB*%
X113600000Y-90075000D03*
%TO.P,J1,A12,GND*%
%TO.N,VSS*%
X112800000Y-90075000D03*
%TO.P,J1,B1,GND*%
X112800000Y-90075000D03*
%TO.P,J1,B4,VBUS*%
%TO.N,/VUSB*%
X113600000Y-90075000D03*
D27*
%TO.P,J1,B5,CC2*%
%TO.N,/CC2*%
X114250000Y-90075000D03*
%TO.P,J1,B6,D+*%
%TO.N,/D_P*%
X115250000Y-90075000D03*
%TO.P,J1,B7,D-*%
%TO.N,/D_N*%
X116750000Y-90075000D03*
%TO.P,J1,B8,SBUS2*%
%TO.N,unconnected-(J1-SBUS2-PadB8)*%
X117750000Y-90075000D03*
D26*
%TO.P,J1,B9,VBUS*%
%TO.N,/VUSB*%
X118400000Y-90075000D03*
%TO.P,J1,B12,GND*%
%TO.N,VSS*%
X119200000Y-90075000D03*
D28*
%TO.P,J1,S1,SHIELD*%
X120320000Y-89500000D03*
X120320000Y-85500000D03*
X111680000Y-89500000D03*
X111680000Y-85500000D03*
%TD*%
D29*
%TO.P,NT2,1*%
%TO.N,BAT-*%
X143000000Y-88959000D03*
%TO.P,NT2,2*%
%TO.N,GND*%
X143000000Y-93941000D03*
%TD*%
D18*
%TO.P,R29,1*%
%TO.N,Net-(Q2-Pad3)*%
X159300000Y-103090000D03*
D19*
%TO.P,R29,2*%
%TO.N,/Battery Manager/CHG*%
X159300000Y-102135000D03*
%TD*%
D16*
%TO.P,R25,1*%
%TO.N,/Battery Manager/SMBD*%
X147790000Y-104000000D03*
D17*
%TO.P,R25,2*%
%TO.N,Net-(U6-SDA_B)*%
X146835000Y-104000000D03*
%TD*%
D16*
%TO.P,R26,1*%
%TO.N,/Battery Manager/SMBC*%
X147790000Y-105200000D03*
D17*
%TO.P,R26,2*%
%TO.N,Net-(U6-SCL_B)*%
X146835000Y-105200000D03*
%TD*%
D30*
%TO.P,TP3,1,1*%
%TO.N,/SCL*%
X122400000Y-108900000D03*
%TD*%
D21*
%TO.P,C29,1*%
%TO.N,/Battery Charger/SYS*%
X140300000Y-119425000D03*
%TO.P,C29,2*%
%TO.N,GND*%
X140300000Y-122375000D03*
%TD*%
D14*
%TO.P,C13,1*%
%TO.N,VBUS*%
X149100000Y-117000000D03*
%TO.P,C13,2*%
%TO.N,GND*%
X149100000Y-115500000D03*
%TD*%
D31*
%TO.P,D1,1*%
%TO.N,Net-(D1-Pad1)*%
X123000000Y-88200000D03*
%TO.P,D1,2*%
%TO.N,VSS*%
X123000000Y-86300000D03*
%TD*%
D30*
%TO.P,TP6,1,1*%
%TO.N,/Battery Charger/BAT*%
X141850000Y-117050000D03*
%TD*%
D21*
%TO.P,C21,1*%
%TO.N,/Battery Charger/PMID*%
X152100000Y-119425000D03*
%TO.P,C21,2*%
%TO.N,GND*%
X152100000Y-122375000D03*
%TD*%
D32*
%TO.P,C26,1*%
%TO.N,/Battery Charger/BAT*%
X137750000Y-116925000D03*
%TO.P,C26,2*%
%TO.N,GND*%
X137750000Y-113975000D03*
%TD*%
D18*
%TO.P,R12,1*%
%TO.N,/Battery Charger/REGN*%
X145050000Y-109190000D03*
D19*
%TO.P,R12,2*%
%TO.N,/Battery Charger/ILIM_HZ*%
X145050000Y-108235000D03*
%TD*%
D16*
%TO.P,R36,1*%
%TO.N,Net-(Q5-Pad1)*%
X156290000Y-94900000D03*
D17*
%TO.P,R36,2*%
%TO.N,GND*%
X155335000Y-94900000D03*
%TD*%
D33*
%TO.P,C17,1*%
%TO.N,/Battery Charger/BATP*%
X141250000Y-111637000D03*
%TO.P,C17,2*%
%TO.N,GND*%
X141250000Y-110763000D03*
%TD*%
D11*
%TO.P,R2,1*%
%TO.N,/CC2*%
X114250000Y-91560000D03*
D12*
%TO.P,R2,2*%
%TO.N,VSS*%
X114250000Y-92515000D03*
%TD*%
D34*
%TO.P,U4,1,OUT*%
%TO.N,+1V8*%
X144225000Y-103125000D03*
%TO.P,U4,2,NC*%
%TO.N,unconnected-(U4-NC-Pad2)*%
X144225000Y-102475000D03*
%TO.P,U4,3,NC*%
%TO.N,unconnected-(U4-ADJ-Pad3)*%
X144225000Y-101825000D03*
%TO.P,U4,4,GND*%
%TO.N,GND*%
X144225000Y-101175000D03*
%TO.P,U4,5,EN*%
%TO.N,Net-(U4-EN)*%
X141575000Y-101175000D03*
%TO.P,U4,6,NC*%
%TO.N,unconnected-(U4-NC-Pad6)*%
X141575000Y-101825000D03*
%TO.P,U4,7,PG*%
%TO.N,Net-(U4-PG)*%
X141575000Y-102475000D03*
%TO.P,U4,8,IN*%
%TO.N,+3V3*%
X141575000Y-103125000D03*
D35*
%TO.P,U4,9,GND*%
%TO.N,GND*%
X142900000Y-102150000D03*
%TD*%
D36*
%TO.P,TH1,1*%
%TO.N,/Battery Manager/BAT*%
X158100000Y-101975000D03*
%TO.P,TH1,2*%
%TO.N,/Battery Manager/PTC*%
X158100000Y-102625000D03*
%TD*%
D37*
%TO.P,C5,1*%
%TO.N,+3V3*%
X121650000Y-96400000D03*
%TO.P,C5,2*%
%TO.N,VSS*%
X123150000Y-96400000D03*
%TD*%
D32*
%TO.P,C12,1*%
%TO.N,VBUS*%
X155200000Y-116975000D03*
%TO.P,C12,2*%
%TO.N,GND*%
X155200000Y-114025000D03*
%TD*%
D14*
%TO.P,C36,1*%
%TO.N,/Battery Manager/BAT*%
X149700000Y-105150000D03*
%TO.P,C36,2*%
%TO.N,/Battery Manager/PTC*%
X149700000Y-103650000D03*
%TD*%
D38*
%TO.P,J3,1*%
%TO.N,Net-(F1-Pad1)*%
X160300000Y-125500000D03*
%TO.P,J3,2*%
%TO.N,GND*%
X166300000Y-125500000D03*
D39*
%TO.P,J3,3*%
X163300000Y-120800000D03*
%TD*%
D40*
%TO.P,Q4,1*%
%TO.N,Net-(Q2-Pad1)*%
X155250000Y-101750000D03*
%TO.P,Q4,2*%
X155250000Y-101100000D03*
%TO.P,Q4,3*%
%TO.N,Net-(Q4-Pad3)*%
X155250000Y-100450000D03*
%TO.P,Q4,4*%
%TO.N,PACK+*%
X157150000Y-100450000D03*
%TO.P,Q4,5*%
%TO.N,Net-(Q2-Pad1)*%
X157150000Y-101100000D03*
%TO.P,Q4,6*%
X157150000Y-101750000D03*
D41*
%TO.P,Q4,7*%
X156200000Y-101385000D03*
D42*
%TO.P,Q4,8*%
%TO.N,PACK+*%
X156200000Y-100325000D03*
%TD*%
D43*
%TO.P,U3,1,STAT*%
%TO.N,Net-(U3-STAT)*%
X146750000Y-117600000D03*
D44*
%TO.P,U3,2,VBUS*%
%TO.N,VBUS*%
X146900000Y-117200000D03*
%TO.P,U3,3,VBUS*%
X146900000Y-116800000D03*
%TO.P,U3,4,BTST1*%
%TO.N,Net-(U3-BTST1)*%
X146900000Y-116400000D03*
%TO.P,U3,5,REGN*%
%TO.N,/Battery Charger/REGN*%
X146900000Y-116000000D03*
%TO.P,U3,6,D+*%
%TO.N,unconnected-(U3-D+-Pad6)*%
X146900000Y-115600000D03*
%TO.P,U3,7,D-*%
%TO.N,unconnected-(U3-D--Pad7)*%
X146900000Y-115200000D03*
%TO.P,U3,8,VAC2*%
%TO.N,VBUS*%
X146900000Y-114800000D03*
D45*
%TO.P,U3,9,VAC1*%
X146750000Y-114400000D03*
D46*
%TO.P,U3,10,ACDRV2*%
%TO.N,AGND*%
X146000000Y-114100000D03*
%TO.P,U3,11,ACDRV1*%
X145600000Y-114100000D03*
%TO.P,U3,12,~{QON}*%
%TO.N,/~{QON}*%
X145200000Y-114100000D03*
%TO.P,U3,13,~{CE}*%
%TO.N,/~{CE}*%
X144800000Y-114100000D03*
%TO.P,U3,14,SCL*%
%TO.N,/SCL*%
X144400000Y-114100000D03*
%TO.P,U3,15,SDA*%
%TO.N,/SDA*%
X144000000Y-114100000D03*
D47*
%TO.P,U3,16,TS*%
%TO.N,/TS*%
X143250000Y-114400000D03*
D48*
%TO.P,U3,17,ILIM_HZ*%
%TO.N,/Battery Charger/ILIM_HZ*%
X143150000Y-114800000D03*
D49*
%TO.P,U3,18,BATP*%
%TO.N,/Battery Charger/BATP*%
X143125000Y-115200000D03*
D50*
%TO.P,U3,19,BTST2*%
%TO.N,Net-(U3-BTST2)*%
X143137500Y-115600000D03*
D51*
%TO.P,U3,20,PROG*%
%TO.N,Net-(U3-PROG)*%
X143100000Y-116000000D03*
%TO.P,U3,21,~{INT}*%
%TO.N,/BAT_CHG_INT*%
X143100000Y-116400000D03*
%TO.P,U3,22,BAT*%
%TO.N,/Battery Charger/BAT*%
X143100000Y-116800000D03*
%TO.P,U3,23,BAT*%
X143100000Y-117200000D03*
D52*
%TO.P,U3,24,SDRV*%
%TO.N,/Battery Charger/SDRV*%
X143250000Y-117600000D03*
D53*
%TO.P,U3,25,SYS*%
%TO.N,/Battery Charger/SYS*%
X144100000Y-117700000D03*
%TO.P,U3,26,SW2*%
%TO.N,Net-(U3-SW2)*%
X144550000Y-117700000D03*
%TO.P,U3,27,GND*%
%TO.N,VSS*%
X145000000Y-117700000D03*
%TO.P,U3,28,SW1*%
%TO.N,Net-(U3-SW1)*%
X145450000Y-117700000D03*
D54*
%TO.P,U3,29,PMID*%
%TO.N,/Battery Charger/PMID*%
X145900000Y-117725000D03*
%TD*%
D21*
%TO.P,C22,1*%
%TO.N,/Battery Charger/SYS*%
X137900000Y-119425000D03*
%TO.P,C22,2*%
%TO.N,GND*%
X137900000Y-122375000D03*
%TD*%
D30*
%TO.P,TP5,1,1*%
%TO.N,VBUS*%
X151000000Y-116600000D03*
%TD*%
D24*
%TO.P,R18,1*%
%TO.N,+3V3*%
X139610000Y-101175000D03*
D25*
%TO.P,R18,2*%
%TO.N,Net-(U4-EN)*%
X140565000Y-101175000D03*
%TD*%
D24*
%TO.P,R8,1*%
%TO.N,+3V3*%
X121510000Y-107600000D03*
D25*
%TO.P,R8,2*%
%TO.N,/BAT_CHG_INT*%
X122465000Y-107600000D03*
%TD*%
D11*
%TO.P,R34,1*%
%TO.N,Net-(Q4-Pad3)*%
X154000000Y-101610000D03*
D12*
%TO.P,R34,2*%
%TO.N,/Battery Manager/DSG*%
X154000000Y-102565000D03*
%TD*%
D21*
%TO.P,C25,1*%
%TO.N,/Battery Charger/PMID*%
X154500000Y-119425000D03*
%TO.P,C25,2*%
%TO.N,GND*%
X154500000Y-122375000D03*
%TD*%
D55*
%TO.P,J7,1*%
%TO.N,PACK-*%
X169950000Y-87500000D03*
D56*
%TO.P,J7,2*%
%TO.N,PACK+*%
X169950000Y-92500000D03*
%TD*%
D57*
%TO.P,Q3,1*%
%TO.N,Net-(Q3-Pad1)*%
X155050000Y-106200000D03*
%TO.P,Q3,2*%
%TO.N,Net-(Q2-Pad1)*%
X153150000Y-106200000D03*
%TO.P,Q3,3*%
%TO.N,Net-(Q3-Pad3)*%
X154100000Y-108200000D03*
%TD*%
D24*
%TO.P,R3,1*%
%TO.N,/VUSB*%
X122045000Y-90600000D03*
D25*
%TO.P,R3,2*%
%TO.N,Net-(D1-Pad1)*%
X123000000Y-90600000D03*
%TD*%
D20*
%TO.P,C4,1*%
%TO.N,+3V3*%
X117550000Y-104400000D03*
%TO.P,C4,2*%
%TO.N,VSS*%
X116050000Y-104400000D03*
%TD*%
D18*
%TO.P,R37,1*%
%TO.N,PACK+*%
X155200000Y-99290000D03*
D19*
%TO.P,R37,2*%
%TO.N,/Battery Manager/PACK*%
X155200000Y-98335000D03*
%TD*%
D58*
%TO.P,L1,1*%
%TO.N,Net-(U3-SW1)*%
X147025000Y-127500000D03*
%TO.P,L1,2*%
%TO.N,Net-(U3-SW2)*%
X142975000Y-127500000D03*
%TD*%
D37*
%TO.P,C18,1*%
%TO.N,/Battery Charger/SYS*%
X142750000Y-119400000D03*
%TO.P,C18,2*%
%TO.N,GND*%
X144250000Y-119400000D03*
%TD*%
D59*
%TO.P,J6,1*%
%TO.N,BAT+*%
X160107500Y-116800000D03*
%TO.P,J6,2*%
%TO.N,BAT-*%
X160107500Y-112600000D03*
%TD*%
D16*
%TO.P,R5,1*%
%TO.N,Net-(U2-BOOT0)*%
X113890000Y-104300000D03*
D17*
%TO.P,R5,2*%
%TO.N,Net-(R5-Pad2)*%
X112935000Y-104300000D03*
%TD*%
D16*
%TO.P,R31,1*%
%TO.N,Net-(Q3-Pad1)*%
X154090000Y-105000000D03*
D17*
%TO.P,R31,2*%
%TO.N,Net-(Q2-Pad1)*%
X153135000Y-105000000D03*
%TD*%
D60*
%TO.P,D2,1*%
%TO.N,Net-(D2-Pad1)*%
X120650000Y-92600000D03*
%TO.P,D2,2*%
%TO.N,VSS*%
X122550000Y-92600000D03*
%TD*%
D30*
%TO.P,TP4,1,1*%
%TO.N,/SDA*%
X122500000Y-116800000D03*
%TD*%
D61*
%TO.P,J4,1,1*%
%TO.N,/TS*%
X136200000Y-93750000D03*
%TO.P,J4,2,2*%
%TO.N,AGND*%
X134200000Y-93750000D03*
D62*
%TO.P,J4,MP*%
%TO.N,unconnected-(J4-PadMP)*%
X138550000Y-88000000D03*
%TO.N,unconnected-(J4-PadMP)_1*%
X131850000Y-88000000D03*
%TD*%
D63*
%TO.P,U1,1,VIN*%
%TO.N,/VUSB*%
X114350000Y-95900000D03*
%TO.P,U1,2,GND*%
%TO.N,VSS*%
X112450000Y-95900000D03*
%TO.P,U1,3,EN*%
%TO.N,/VUSB*%
X112450000Y-98300000D03*
%TO.P,U1,4,NC*%
%TO.N,unconnected-(U1-NC-Pad4)*%
X113400000Y-98300000D03*
%TO.P,U1,5,VOUT*%
%TO.N,+3V3*%
X114350000Y-98300000D03*
%TD*%
D30*
%TO.P,TP1,1,1*%
%TO.N,/VUSB*%
X111300000Y-92800000D03*
%TD*%
D11*
%TO.P,R22,1*%
%TO.N,Net-(R20-Pad2)*%
X149750000Y-94210000D03*
D12*
%TO.P,R22,2*%
%TO.N,/Battery Manager/SRN*%
X149750000Y-95165000D03*
%TD*%
D24*
%TO.P,R6,1*%
%TO.N,+3V3*%
X121500000Y-115350000D03*
D25*
%TO.P,R6,2*%
%TO.N,/SDA*%
X122455000Y-115350000D03*
%TD*%
D14*
%TO.P,C31,1*%
%TO.N,/Battery Manager/VC1*%
X151200000Y-95250000D03*
%TO.P,C31,2*%
%TO.N,GND*%
X151200000Y-93750000D03*
%TD*%
D21*
%TO.P,C20,1*%
%TO.N,/Battery Charger/SYS*%
X133100000Y-119425000D03*
%TO.P,C20,2*%
%TO.N,GND*%
X133100000Y-122375000D03*
%TD*%
D14*
%TO.P,C33,1*%
%TO.N,+1V8*%
X145500000Y-102100000D03*
%TO.P,C33,2*%
%TO.N,GND*%
X145500000Y-100600000D03*
%TD*%
D64*
%TO.P,C1,1*%
%TO.N,/VUSB*%
X112550000Y-94100000D03*
%TO.P,C1,2*%
%TO.N,VSS*%
X114250000Y-94100000D03*
%TD*%
D65*
%TO.P,Q2,1*%
%TO.N,Net-(Q2-Pad1)*%
X157150000Y-102835000D03*
%TO.P,Q2,2*%
X157150000Y-103485000D03*
%TO.P,Q2,3*%
%TO.N,Net-(Q2-Pad3)*%
X157150000Y-104135000D03*
%TO.P,Q2,4*%
%TO.N,BAT+*%
X155250000Y-104135000D03*
%TO.P,Q2,5*%
%TO.N,Net-(Q2-Pad1)*%
X155250000Y-103485000D03*
%TO.P,Q2,6*%
X155250000Y-102835000D03*
D60*
%TO.P,Q2,7*%
X156200000Y-103200000D03*
D66*
%TO.P,Q2,8*%
%TO.N,BAT+*%
X156200000Y-104260000D03*
%TD*%
D24*
%TO.P,R32,1*%
%TO.N,+3V3*%
X142510000Y-106700000D03*
D25*
%TO.P,R32,2*%
%TO.N,Net-(U6-EN)*%
X143465000Y-106700000D03*
%TD*%
D67*
%TO.P,U6,1,VCC_A*%
%TO.N,+3V3*%
X143750000Y-104600000D03*
%TO.P,U6,2,SCL_A*%
%TO.N,/SCL*%
X143750000Y-105100000D03*
%TO.P,U6,3,SDA_A*%
%TO.N,/SDA*%
X143750000Y-105600000D03*
D68*
%TO.P,U6,4,GND*%
%TO.N,VSS*%
X144300000Y-105650000D03*
D67*
%TO.P,U6,5,EN*%
%TO.N,Net-(U6-EN)*%
X144850000Y-105600000D03*
%TO.P,U6,6,SDA_B*%
%TO.N,Net-(U6-SDA_B)*%
X144850000Y-105100000D03*
%TO.P,U6,7,SCL_B*%
%TO.N,Net-(U6-SCL_B)*%
X144850000Y-104600000D03*
D68*
%TO.P,U6,8,VCC_B*%
%TO.N,+1V8*%
X144300000Y-104550000D03*
D69*
%TO.P,U6,9,PAD*%
%TO.N,VSS*%
X144300000Y-105100000D03*
%TD*%
D37*
%TO.P,C3,1*%
%TO.N,+3V3*%
X121650000Y-94700000D03*
%TO.P,C3,2*%
%TO.N,VSS*%
X123150000Y-94700000D03*
%TD*%
D11*
%TO.P,R9,1*%
%TO.N,/Battery Charger/REGN*%
X154300000Y-124710000D03*
D12*
%TO.P,R9,2*%
%TO.N,Net-(D3-Pad1)*%
X154300000Y-125665000D03*
%TD*%
D70*
%TO.P,C2,1*%
%TO.N,+3V3*%
X114300000Y-100200000D03*
%TO.P,C2,2*%
%TO.N,VSS*%
X112600000Y-100200000D03*
%TD*%
D71*
%TO.P,Q5,1*%
%TO.N,Net-(Q5-Pad1)*%
X156400000Y-97050000D03*
%TO.P,Q5,2*%
%TO.N,PACK+*%
X156400000Y-98950000D03*
%TO.P,Q5,3*%
%TO.N,Net-(Q4-Pad3)*%
X158400000Y-98000000D03*
%TD*%
D16*
%TO.P,R14,1*%
%TO.N,/Battery Charger/REGN*%
X144490000Y-110500000D03*
D17*
%TO.P,R14,2*%
%TO.N,/TS*%
X143535000Y-110500000D03*
%TD*%
D32*
%TO.P,C28,1*%
%TO.N,/Battery Charger/BAT*%
X140150000Y-116925000D03*
%TO.P,C28,2*%
%TO.N,GND*%
X140150000Y-113975000D03*
%TD*%
D72*
%TO.P,NT1,1*%
%TO.N,GND*%
X139182000Y-98200000D03*
%TO.P,NT1,2*%
%TO.N,AGND*%
X134200000Y-98200000D03*
%TD*%
D21*
%TO.P,C27,1*%
%TO.N,/Battery Charger/SYS*%
X130750000Y-119425000D03*
%TO.P,C27,2*%
%TO.N,GND*%
X130750000Y-122375000D03*
%TD*%
D73*
%TO.P,F1,1*%
%TO.N,Net-(F1-Pad1)*%
X157550000Y-121900000D03*
%TO.P,F1,2*%
%TO.N,VBUS*%
X157550000Y-118900000D03*
%TD*%
D11*
%TO.P,R35,1*%
%TO.N,PACK+*%
X154000000Y-99510000D03*
D12*
%TO.P,R35,2*%
%TO.N,Net-(Q4-Pad3)*%
X154000000Y-100465000D03*
%TD*%
D74*
%TO.P,J2,1,VCC*%
%TO.N,+3V3*%
X122040000Y-126465000D03*
%TO.P,J2,2,SWDIO*%
%TO.N,/SWDIO*%
X120770000Y-126465000D03*
%TO.P,J2,3,GND*%
%TO.N,VSS*%
X119500000Y-126465000D03*
%TO.P,J2,4,SWDCLK*%
%TO.N,/SWDCLK*%
X118230000Y-126465000D03*
%TO.P,J2,5,GND*%
%TO.N,VSS*%
X116960000Y-126465000D03*
%TO.P,J2,6,SWO*%
%TO.N,unconnected-(J2-SWO-Pad6)*%
X116960000Y-127735000D03*
%TO.P,J2,7,KEY*%
%TO.N,unconnected-(J2-KEY-Pad7)*%
X118230000Y-127735000D03*
%TO.P,J2,8,NC*%
%TO.N,unconnected-(J2-NC-Pad8)*%
X119500000Y-127735000D03*
%TO.P,J2,9,GNDDet*%
%TO.N,VSS*%
X120770000Y-127735000D03*
%TO.P,J2,10,nRESET*%
%TO.N,/NRST*%
X122040000Y-127735000D03*
%TD*%
D75*
%TO.P,R20,1*%
%TO.N,PACK-*%
X152225000Y-90235000D03*
D76*
%TO.P,R20,2*%
%TO.N,Net-(R20-Pad2)*%
X153025000Y-88330000D03*
D75*
%TO.P,R20,3*%
%TO.N,BAT-*%
X147275000Y-88965000D03*
D76*
%TO.P,R20,4*%
%TO.N,Net-(R20-Pad4)*%
X146475000Y-90870000D03*
%TD*%
D77*
%TO.P,J5,1,1*%
%TO.N,BAT+*%
X165450000Y-105200000D03*
%TO.P,J5,2,2*%
%TO.N,/Battery Manager/1P*%
X165450000Y-102700000D03*
%TO.P,J5,3,3*%
%TO.N,BAT-*%
X165450000Y-100200000D03*
D78*
%TO.P,J5,MP*%
%TO.N,unconnected-(J5-PadMP)_1*%
X172250000Y-108400000D03*
%TO.N,unconnected-(J5-PadMP)*%
X172250000Y-97000000D03*
%TD*%
D13*
%TO.P,C8,1*%
%TO.N,Net-(U2-PC14-OSC32_IN)*%
X117350000Y-108650000D03*
%TO.P,C8,2*%
%TO.N,VSS*%
X117350000Y-110150000D03*
%TD*%
D79*
%TO.P,D4,1*%
%TO.N,BAT+*%
X153655000Y-109450000D03*
%TO.P,D4,2*%
%TO.N,/Battery Manager/BAT*%
X150045000Y-109450000D03*
%TD*%
D30*
%TO.P,TP7,1,1*%
%TO.N,BAT+*%
X162050000Y-107900000D03*
%TD*%
D18*
%TO.P,R23,1*%
%TO.N,/SYS_PRES*%
X124950000Y-99690000D03*
D19*
%TO.P,R23,2*%
%TO.N,Net-(R23-Pad2)*%
X124950000Y-98735000D03*
%TD*%
D20*
%TO.P,C32,1*%
%TO.N,+3V3*%
X140450000Y-104050000D03*
%TO.P,C32,2*%
%TO.N,GND*%
X138950000Y-104050000D03*
%TD*%
D80*
%TO.P,Q1,1*%
%TO.N,/Battery Charger/BAT*%
X136000000Y-116950000D03*
%TO.P,Q1,2*%
X136000000Y-116300000D03*
%TO.P,Q1,3*%
X136000000Y-115650000D03*
%TO.P,Q1,4*%
%TO.N,/Battery Charger/SDRV*%
X136000000Y-115000000D03*
D81*
%TO.P,Q1,5*%
%TO.N,BAT+*%
X134175000Y-115975000D03*
%TO.P,Q1,6*%
X134175000Y-115975000D03*
%TO.P,Q1,7*%
X134175000Y-115975000D03*
%TO.P,Q1,8*%
X134175000Y-115975000D03*
%TD*%
D14*
%TO.P,C39,1*%
%TO.N,PACK+*%
X164050000Y-92500000D03*
%TO.P,C39,2*%
%TO.N,Net-(C39-Pad2)*%
X164050000Y-91000000D03*
%TD*%
D37*
%TO.P,C35,1*%
%TO.N,/Battery Manager/SRP*%
X148250000Y-96700000D03*
%TO.P,C35,2*%
%TO.N,/Battery Manager/SRN*%
X149750000Y-96700000D03*
%TD*%
D11*
%TO.P,R4,1*%
%TO.N,Net-(D2-Pad1)*%
X120300000Y-95460000D03*
D12*
%TO.P,R4,2*%
%TO.N,Net-(U2-PA9)*%
X120300000Y-96415000D03*
%TD*%
D82*
%TO.P,SW2,1*%
%TO.N,/NRST*%
X115600000Y-117250000D03*
%TO.P,SW2,2*%
X115600000Y-122500000D03*
%TO.P,SW2,3*%
%TO.N,VSS*%
X112400000Y-117250000D03*
%TO.P,SW2,4*%
X112400000Y-122500000D03*
%TD*%
D83*
%TO.P,C14,1*%
%TO.N,/Battery Charger/REGN*%
X148025000Y-112000000D03*
%TO.P,C14,2*%
%TO.N,GND*%
X150975000Y-112000000D03*
%TD*%
D46*
%TO.P,U5,1,PBI*%
%TO.N,+3V3*%
X151400000Y-98100000D03*
%TO.P,U5,2,VC4*%
%TO.N,/Battery Manager/VC4*%
X151000000Y-98100000D03*
%TO.P,U5,3,VC3*%
%TO.N,/Battery Manager/VC1*%
X150600000Y-98100000D03*
%TO.P,U5,4,VC2*%
X150200000Y-98100000D03*
%TO.P,U5,5,VC1*%
X149800000Y-98100000D03*
%TO.P,U5,6,SRN*%
%TO.N,/Battery Manager/SRN*%
X149400000Y-98100000D03*
%TO.P,U5,7,NC*%
%TO.N,unconnected-(U5-NC-Pad7)*%
X149000000Y-98100000D03*
%TO.P,U5,8,SRP*%
%TO.N,/Battery Manager/SRP*%
X148600000Y-98100000D03*
D44*
%TO.P,U5,9,VSS*%
%TO.N,VSS*%
X148100000Y-98600000D03*
%TO.P,U5,10,TS1*%
%TO.N,/TS*%
X148100000Y-99000000D03*
%TO.P,U5,11,TS2*%
%TO.N,VSS*%
X148100000Y-99400000D03*
%TO.P,U5,12,TS3*%
X148100000Y-99800000D03*
%TO.P,U5,13,TS4*%
X148100000Y-100200000D03*
%TO.P,U5,14,NC*%
%TO.N,unconnected-(U5-NC-Pad14)*%
X148100000Y-100600000D03*
%TO.P,U5,15,BTP_INT*%
%TO.N,/BTP_INT*%
X148100000Y-101000000D03*
%TO.P,U5,16,~{PRES}/~{SHUTDN}*%
%TO.N,Net-(U5-~{PRES}{slash}~{SHUTDN})*%
X148100000Y-101400000D03*
D46*
%TO.P,U5,17,~{DISP}*%
%TO.N,VSS*%
X148600000Y-101900000D03*
%TO.P,U5,18,SMBD*%
%TO.N,/Battery Manager/SMBD*%
X149000000Y-101900000D03*
%TO.P,U5,19,SMBC*%
%TO.N,/Battery Manager/SMBC*%
X149400000Y-101900000D03*
%TO.P,U5,20,LEDCNTLA*%
%TO.N,unconnected-(U5-LEDCNTLA-Pad20)*%
X149800000Y-101900000D03*
%TO.P,U5,21,LEDCNTLB*%
%TO.N,unconnected-(U5-LEDCNTLB-Pad21)*%
X150200000Y-101900000D03*
%TO.P,U5,22,LEDCNTLC*%
%TO.N,unconnected-(U5-LEDCNTLC-Pad22)*%
X150600000Y-101900000D03*
%TO.P,U5,23,PTC*%
%TO.N,/Battery Manager/PTC*%
X151000000Y-101900000D03*
%TO.P,U5,24,PTCEN*%
%TO.N,/Battery Manager/BAT*%
X151400000Y-101900000D03*
D51*
%TO.P,U5,25,FUSE*%
%TO.N,VSS*%
X151900000Y-101400000D03*
%TO.P,U5,26,VCC*%
%TO.N,VCC*%
X151900000Y-101000000D03*
%TO.P,U5,27,PACK*%
%TO.N,/Battery Manager/PACK*%
X151900000Y-100600000D03*
%TO.P,U5,28,DSG*%
%TO.N,/Battery Manager/DSG*%
X151900000Y-100200000D03*
%TO.P,U5,29,NC*%
%TO.N,unconnected-(U5-NC-Pad29)*%
X151900000Y-99800000D03*
%TO.P,U5,30,PCHG*%
%TO.N,/Battery Manager/PCHG*%
X151900000Y-99400000D03*
%TO.P,U5,31,CHG*%
%TO.N,/Battery Manager/CHG*%
X151900000Y-99000000D03*
%TO.P,U5,32,BAT*%
%TO.N,/Battery Manager/BAT*%
X151900000Y-98600000D03*
D84*
%TO.P,U5,33,PAD*%
%TO.N,VSS*%
X150000000Y-100000000D03*
%TD*%
D16*
%TO.P,R33,1*%
%TO.N,Net-(Q2-Pad1)*%
X154090000Y-103800000D03*
D17*
%TO.P,R33,2*%
%TO.N,VCC*%
X153135000Y-103800000D03*
%TD*%
D11*
%TO.P,R16,1*%
%TO.N,BAT+*%
X156550000Y-108610000D03*
D12*
%TO.P,R16,2*%
%TO.N,/Battery Manager/VC4*%
X156550000Y-109565000D03*
%TD*%
D14*
%TO.P,C30,1*%
%TO.N,/Battery Manager/VC4*%
X153400000Y-95250000D03*
%TO.P,C30,2*%
%TO.N,/Battery Manager/VC1*%
X153400000Y-93750000D03*
%TD*%
D24*
%TO.P,R7,1*%
%TO.N,+3V3*%
X121510000Y-114100000D03*
D25*
%TO.P,R7,2*%
%TO.N,/SCL*%
X122465000Y-114100000D03*
%TD*%
D21*
%TO.P,C24,1*%
%TO.N,/Battery Charger/SYS*%
X135500000Y-119425000D03*
%TO.P,C24,2*%
%TO.N,GND*%
X135500000Y-122375000D03*
%TD*%
D24*
%TO.P,R15,1*%
%TO.N,/TS*%
X143510000Y-111700000D03*
D25*
%TO.P,R15,2*%
%TO.N,AGND*%
X144465000Y-111700000D03*
%TD*%
D14*
%TO.P,C40,1*%
%TO.N,Net-(C39-Pad2)*%
X164050000Y-89000000D03*
%TO.P,C40,2*%
%TO.N,PACK-*%
X164050000Y-87500000D03*
%TD*%
D85*
%TO.P,C7,1*%
%TO.N,+3V3*%
X120563000Y-104000000D03*
%TO.P,C7,2*%
%TO.N,VSS*%
X121437000Y-104000000D03*
%TD*%
D11*
%TO.P,R1,1*%
%TO.N,/CC1*%
X117250000Y-91560000D03*
D12*
%TO.P,R1,2*%
%TO.N,VSS*%
X117250000Y-92515000D03*
%TD*%
D30*
%TO.P,TP2,1,1*%
%TO.N,+3V3*%
X119100000Y-94000000D03*
%TD*%
D18*
%TO.P,R30,1*%
%TO.N,Net-(Q3-Pad1)*%
X151700000Y-107690000D03*
D19*
%TO.P,R30,2*%
%TO.N,/Battery Manager/PCHG*%
X151700000Y-106735000D03*
%TD*%
D24*
%TO.P,R19,1*%
%TO.N,+1V8*%
X139610000Y-102475000D03*
D25*
%TO.P,R19,2*%
%TO.N,Net-(U4-PG)*%
X140565000Y-102475000D03*
%TD*%
D11*
%TO.P,R21,1*%
%TO.N,Net-(R20-Pad4)*%
X148250000Y-94210000D03*
D12*
%TO.P,R21,2*%
%TO.N,/Battery Manager/SRP*%
X148250000Y-95165000D03*
%TD*%
D20*
%TO.P,C19,1*%
%TO.N,/Battery Charger/PMID*%
X147250000Y-119400000D03*
%TO.P,C19,2*%
%TO.N,GND*%
X145750000Y-119400000D03*
%TD*%
D18*
%TO.P,R24,1*%
%TO.N,Net-(R23-Pad2)*%
X124950000Y-97590000D03*
D19*
%TO.P,R24,2*%
%TO.N,Net-(U5-~{PRES}{slash}~{SHUTDN})*%
X124950000Y-96635000D03*
%TD*%
D86*
%TO.P,U2,1,VDD*%
%TO.N,+3V3*%
X117900000Y-102550000D03*
%TO.P,U2,2,PC14-OSC32_IN*%
%TO.N,Net-(U2-PC14-OSC32_IN)*%
X118400000Y-102550000D03*
%TO.P,U2,3,PC15-OSC32_OUT*%
%TO.N,Net-(U2-PC15-OSC32_OUT)*%
X118900000Y-102550000D03*
%TO.P,U2,4,NRST*%
%TO.N,/NRST*%
X119400000Y-102550000D03*
%TO.P,U2,5,VDDA/VREF-*%
%TO.N,+3V3*%
X119900000Y-102550000D03*
%TO.P,U2,6,PA0*%
%TO.N,unconnected-(U2-PA0-Pad6)*%
X120400000Y-102550000D03*
%TO.P,U2,7,PA1*%
%TO.N,unconnected-(U2-PA1-Pad7)*%
X120900000Y-102550000D03*
%TO.P,U2,8,USART2_TX*%
%TO.N,unconnected-(U2-PA2-Pad8)*%
X121400000Y-102550000D03*
D87*
%TO.P,U2,9,USART2_RX*%
%TO.N,unconnected-(U2-PA3-Pad9)*%
X122000000Y-101950000D03*
%TO.P,U2,10,PA4*%
%TO.N,unconnected-(U2-PA4-Pad10)*%
X122000000Y-101450000D03*
%TO.P,U2,11,PA5*%
%TO.N,/BTP_INT*%
X122000000Y-100950000D03*
%TO.P,U2,12,PA6*%
%TO.N,/BAT_CHG_INT*%
X122000000Y-100450000D03*
%TO.P,U2,13,PA7*%
%TO.N,/~{QON}*%
X122000000Y-99950000D03*
%TO.P,U2,14,PB0*%
%TO.N,/~{CE}*%
X122000000Y-99450000D03*
%TO.P,U2,15,PB1*%
%TO.N,/SYS_PRES*%
X122000000Y-98950000D03*
%TO.P,U2,16,VSS*%
%TO.N,VSS*%
X122000000Y-98450000D03*
D86*
%TO.P,U2,17,VDD*%
%TO.N,+3V3*%
X121400000Y-97850000D03*
%TO.P,U2,18,PA8*%
%TO.N,unconnected-(U2-PA8-Pad18)*%
X120900000Y-97850000D03*
%TO.P,U2,19,PA9*%
%TO.N,Net-(U2-PA9)*%
X120400000Y-97850000D03*
%TO.P,U2,20,PA10*%
%TO.N,unconnected-(U2-PA10-Pad20)*%
X119900000Y-97850000D03*
%TO.P,U2,21,USB_DM*%
%TO.N,/D_N*%
X119400000Y-97850000D03*
%TO.P,U2,22,USB_DP*%
%TO.N,/D_P*%
X118900000Y-97850000D03*
%TO.P,U2,23,PA13(JTMS-SWDIO)*%
%TO.N,/SWDIO*%
X118400000Y-97850000D03*
%TO.P,U2,24,PA14(JTCK-SWCLK)*%
%TO.N,/SWDCLK*%
X117900000Y-97850000D03*
D88*
%TO.P,U2,25,PA15*%
%TO.N,unconnected-(U2-PA15-Pad25)*%
X117300000Y-98450000D03*
%TO.P,U2,26,PB3*%
%TO.N,unconnected-(U2-PB3-Pad26)*%
X117300000Y-98950000D03*
%TO.P,U2,27,PB4*%
%TO.N,unconnected-(U2-PB4-Pad27)*%
X117300000Y-99450000D03*
%TO.P,U2,28,PB5*%
%TO.N,unconnected-(U2-PB5-Pad28)*%
X117300000Y-99950000D03*
%TO.P,U2,29,I2C1_SCL*%
%TO.N,/SCL*%
X117300000Y-100450000D03*
%TO.P,U2,30,I2C1_SDA*%
%TO.N,/SDA*%
X117300000Y-100950000D03*
%TO.P,U2,31,BOOT0*%
%TO.N,Net-(U2-BOOT0)*%
X117300000Y-101450000D03*
%TO.P,U2,32,VSS*%
%TO.N,VSS*%
X117300000Y-101950000D03*
D89*
%TO.P,U2,33,VSS*%
X119700000Y-100200000D03*
%TD*%
D32*
%TO.P,C11,1*%
%TO.N,VBUS*%
X152800000Y-116975000D03*
%TO.P,C11,2*%
%TO.N,GND*%
X152800000Y-114025000D03*
%TD*%
D90*
%TO.N,VSS*%
X112400000Y-118575000D03*
D91*
X123150000Y-97600000D03*
D92*
X118350000Y-110150000D03*
X120060000Y-125900000D03*
D91*
X111400000Y-95900000D03*
D90*
X112400000Y-121200000D03*
D92*
X124100000Y-86300000D03*
X147400000Y-98200000D03*
X150000000Y-100000000D03*
D91*
X116050000Y-105500000D03*
D92*
X120950000Y-101500000D03*
X147300000Y-99800000D03*
X112500000Y-128000000D03*
D91*
X122300000Y-104000000D03*
D92*
X123850000Y-92600000D03*
X147425000Y-102475000D03*
D91*
X113350000Y-101400000D03*
D92*
X122850000Y-98350000D03*
X119650000Y-101500000D03*
X120950000Y-100200000D03*
X116700000Y-102350000D03*
X118350000Y-98900000D03*
X116320000Y-127100000D03*
X118350000Y-101500000D03*
X120100000Y-128500000D03*
X119650000Y-100200000D03*
X119650000Y-98900000D03*
X120950000Y-98900000D03*
X118350000Y-100200000D03*
X145000000Y-118550000D03*
X152100000Y-102400000D03*
X118900000Y-110150000D03*
D93*
X115444972Y-94794543D03*
D92*
X113250000Y-92500000D03*
X116350000Y-92500000D03*
X144300000Y-106300000D03*
D91*
%TO.N,GND*%
X152200000Y-91900000D03*
X153800000Y-91900000D03*
X147000000Y-91900000D03*
X150700000Y-91900000D03*
X147000000Y-93900000D03*
X147000000Y-92900000D03*
D93*
%TO.N,+3V3*%
X116100000Y-95800000D03*
X121550000Y-105250000D03*
X117900000Y-94000000D03*
X115650000Y-102400000D03*
D92*
X137975000Y-103125000D03*
X147300000Y-95900000D03*
X145000000Y-98225000D03*
X153400000Y-96200000D03*
D91*
%TO.N,VBUS*%
X150400000Y-117500000D03*
X147190000Y-113530000D03*
D93*
%TO.N,AGND*%
X148050000Y-107750000D03*
X135200000Y-89950000D03*
X146150000Y-110650000D03*
D91*
%TO.N,BAT+*%
X139000000Y-111300000D03*
D93*
X132000000Y-115400000D03*
X166000000Y-106700000D03*
X128100000Y-116700000D03*
X164800000Y-106700000D03*
X164800000Y-107900000D03*
X129400000Y-116700000D03*
X129400000Y-115400000D03*
X167200000Y-107900000D03*
X130700000Y-116700000D03*
X132000000Y-116700000D03*
X163600000Y-106700000D03*
D91*
X135027298Y-111725000D03*
D93*
X128100000Y-115400000D03*
X163600000Y-107900000D03*
X130700000Y-115400000D03*
X166000000Y-107900000D03*
X167200000Y-106700000D03*
D92*
%TO.N,Net-(D2-Pad1)*%
X120300000Y-94700000D03*
X119700000Y-92600000D03*
%TO.N,/BAT_CHG_INT*%
X141700000Y-116000000D03*
X123600000Y-111500000D03*
%TO.N,/~{QON}*%
X124300000Y-111500000D03*
X145200000Y-115200000D03*
%TO.N,/SCL*%
X122200000Y-113150000D03*
X142791402Y-105150000D03*
X115500000Y-99200000D03*
X122200000Y-110500000D03*
X144900000Y-112600000D03*
%TO.N,/SDA*%
X122900000Y-109900000D03*
X144156587Y-112506587D03*
X123300000Y-113600000D03*
X115500000Y-100300000D03*
X142050000Y-105750000D03*
%TO.N,/~{CE}*%
X125000000Y-111500000D03*
X145125000Y-113331219D03*
%TO.N,/SWDCLK*%
X115500000Y-97850000D03*
X111450000Y-97850000D03*
X116700000Y-117450000D03*
X114200000Y-117450000D03*
%TO.N,/SWDIO*%
X111450000Y-97050000D03*
X116200000Y-97050000D03*
X111500000Y-116300000D03*
X116700000Y-116300000D03*
%TO.N,/TS*%
X136200000Y-96300000D03*
X143535000Y-109565000D03*
X147300000Y-99000000D03*
%TO.N,/Battery Charger/REGN*%
X152900000Y-124500000D03*
X148025000Y-110525000D03*
%TO.N,/Battery Charger/ILIM_HZ*%
X147300000Y-108525000D03*
X142350000Y-114000000D03*
%TO.N,Net-(U3-BTST1)*%
X148037999Y-116037999D03*
D93*
%TO.N,Net-(U3-SW1)*%
X147025000Y-123050000D03*
D92*
X145550000Y-116150000D03*
D93*
X147025000Y-122000000D03*
D92*
X145550000Y-116700000D03*
%TO.N,Net-(U3-BTST2)*%
X141711091Y-115288909D03*
D93*
%TO.N,Net-(U3-SW2)*%
X142975000Y-122000000D03*
D92*
X144450000Y-116150000D03*
D93*
X142975000Y-123050000D03*
D92*
X144450000Y-116700000D03*
D91*
%TO.N,/Battery Manager/VC4*%
X154450000Y-94750000D03*
X156500000Y-110500000D03*
%TO.N,/Battery Manager/VC1*%
X161735000Y-98335000D03*
X154750000Y-93750000D03*
D92*
%TO.N,+1V8*%
X138800000Y-102475000D03*
X143600000Y-103950000D03*
%TO.N,Net-(U3-STAT)*%
X147750000Y-118150000D03*
D91*
X150300000Y-126000000D03*
D93*
%TO.N,BAT-*%
X164800000Y-98600000D03*
X148600000Y-85900000D03*
X166000000Y-98600000D03*
X167200000Y-98600000D03*
X146000000Y-85900000D03*
X146000000Y-87200000D03*
X164800000Y-97400000D03*
X163600000Y-97400000D03*
X147300000Y-87200000D03*
X148600000Y-87200000D03*
X166000000Y-97400000D03*
X163600000Y-98600000D03*
X167200000Y-97400000D03*
X147300000Y-85900000D03*
D92*
%TO.N,Net-(U2-BOOT0)*%
X115350000Y-101450000D03*
X113900000Y-103500000D03*
%TO.N,Net-(U3-PROG)*%
X146900000Y-112600000D03*
X144500000Y-115000000D03*
%TO.N,Net-(U5-~{PRES}{slash}~{SHUTDN})*%
X124225000Y-97125000D03*
X147350000Y-101725000D03*
%TO.N,Net-(U6-SCL_B)*%
X145600000Y-105800000D03*
X145600000Y-104400000D03*
%TO.N,/BTP_INT*%
X122500000Y-106400000D03*
X146675000Y-101025000D03*
%TO.N,/Battery Charger/SDRV*%
X136050000Y-114200000D03*
X142150000Y-118100000D03*
%TO.N,/Battery Manager/PTC*%
X158100000Y-103300000D03*
X150500000Y-102850000D03*
%TO.N,/Battery Manager/BAT*%
X158100000Y-101300000D03*
X151400000Y-102900000D03*
X153400000Y-97700000D03*
%TO.N,/Battery Manager/CHG*%
X152788909Y-98788909D03*
X159100000Y-101150000D03*
%TO.N,/Battery Manager/PCHG*%
X152675000Y-99650000D03*
X152445646Y-103008713D03*
%TO.N,/Battery Manager/PACK*%
X152836090Y-100749999D03*
X154400000Y-98700000D03*
%TD*%
D94*
%TO.N,VSS*%
X145000000Y-117700000D02*
X145000000Y-118550000D01*
X112400000Y-122525000D02*
X112400000Y-121200000D01*
D95*
X120770000Y-127830000D02*
X120100000Y-128500000D01*
D96*
X113350000Y-101400000D02*
X112650000Y-101400000D01*
D94*
X112400000Y-117275000D02*
X112400000Y-118575000D01*
X147800000Y-98600000D02*
X148100000Y-98600000D01*
D96*
X112800000Y-90075000D02*
X112255000Y-90075000D01*
X112550000Y-100250000D02*
X112600000Y-100200000D01*
D95*
X117250000Y-101950000D02*
X117100000Y-101950000D01*
D94*
X148100000Y-99800000D02*
X147300000Y-99800000D01*
D96*
X119745000Y-90075000D02*
X120320000Y-89500000D01*
X112255000Y-90075000D02*
X111680000Y-89500000D01*
X114350000Y-94100000D02*
X114250000Y-94000000D01*
X115444972Y-94794543D02*
X114944543Y-94794543D01*
D95*
X116320000Y-127100000D02*
X116920000Y-126500000D01*
D96*
X112450000Y-95900000D02*
X111400000Y-95900000D01*
D94*
X113265000Y-92515000D02*
X113250000Y-92500000D01*
X144300000Y-105100000D02*
X144300000Y-105650000D01*
D96*
X114250000Y-93650000D02*
X114250000Y-94000000D01*
D97*
X122300000Y-104000000D02*
X121437000Y-104000000D01*
D94*
X118350000Y-110150000D02*
X117350000Y-110150000D01*
X144300000Y-105650000D02*
X144300000Y-106300000D01*
X118900000Y-110150000D02*
X119850000Y-110150000D01*
D96*
X112550000Y-101300000D02*
X112550000Y-100250000D01*
X114944543Y-94794543D02*
X114250000Y-94100000D01*
D94*
X117250000Y-92515000D02*
X116365000Y-92515000D01*
D96*
X119200000Y-90075000D02*
X119745000Y-90075000D01*
D94*
X148000000Y-101900000D02*
X148600000Y-101900000D01*
D96*
X112650000Y-101400000D02*
X112550000Y-101300000D01*
D95*
X121950000Y-98450000D02*
X122750000Y-98450000D01*
D94*
X151900000Y-102200000D02*
X151900000Y-101400000D01*
X147425000Y-102475000D02*
X148000000Y-101900000D01*
D95*
X120060000Y-125900000D02*
X119500000Y-126460000D01*
D97*
X116050000Y-104400000D02*
X116050000Y-105500000D01*
D95*
X122750000Y-98450000D02*
X122850000Y-98350000D01*
D94*
X147400000Y-98200000D02*
X147800000Y-98600000D01*
X152100000Y-102400000D02*
X151900000Y-102200000D01*
D95*
X120770000Y-127770000D02*
X120770000Y-127830000D01*
X123000000Y-86300000D02*
X124100000Y-86300000D01*
D94*
X116365000Y-92515000D02*
X116350000Y-92500000D01*
X114250000Y-92515000D02*
X113265000Y-92515000D01*
D96*
X123150000Y-94700000D02*
X123150000Y-96400000D01*
D95*
X119500000Y-126460000D02*
X119500000Y-126465000D01*
D96*
X112550000Y-101300000D02*
X112550000Y-102400000D01*
D95*
X116920000Y-126500000D02*
X116960000Y-126500000D01*
X117100000Y-101950000D02*
X116700000Y-102350000D01*
X123850000Y-92600000D02*
X122550000Y-92600000D01*
D97*
X123150000Y-96400000D02*
X123150000Y-97600000D01*
D94*
X112500000Y-126750000D02*
X112500000Y-128000000D01*
D96*
%TO.N,+3V3*%
X117550000Y-104275000D02*
X115675000Y-102400000D01*
D94*
X152650000Y-96900000D02*
X152700000Y-96900000D01*
D97*
X117550000Y-104400000D02*
X117900000Y-104050000D01*
D96*
X117900000Y-94000000D02*
X120950000Y-94000000D01*
D95*
X115100000Y-105900000D02*
X115100000Y-102400000D01*
D96*
X114350000Y-102200000D02*
X114150000Y-102400000D01*
X114350000Y-98300000D02*
X114350000Y-102200000D01*
D95*
X137975000Y-103125000D02*
X140450000Y-103125000D01*
X114000000Y-109000000D02*
X115400000Y-107600000D01*
D96*
X120563000Y-104448487D02*
X120563000Y-104000000D01*
D95*
X140450000Y-103125000D02*
X141575000Y-103125000D01*
X141800000Y-106700000D02*
X142510000Y-106700000D01*
D94*
X141000000Y-104600000D02*
X140450000Y-104050000D01*
D96*
X121550000Y-105250000D02*
X121364513Y-105250000D01*
D94*
X145000000Y-98225000D02*
X145000000Y-98200000D01*
X151400000Y-98100000D02*
X152100000Y-98100000D01*
D96*
X116100000Y-95800000D02*
X114350000Y-97550000D01*
X114350000Y-97550000D02*
X114350000Y-98300000D01*
D95*
X140450000Y-105350000D02*
X141800000Y-106700000D01*
X138925000Y-101175000D02*
X139610000Y-101175000D01*
D96*
X115650000Y-102400000D02*
X115100000Y-102400000D01*
D95*
X121500000Y-125925000D02*
X121500000Y-105300000D01*
D97*
X119900000Y-103337000D02*
X120563000Y-104000000D01*
D96*
X120950000Y-94000000D02*
X121650000Y-94700000D01*
D94*
X145000000Y-98200000D02*
X147300000Y-95900000D01*
D95*
X137975000Y-103125000D02*
X137975000Y-102125000D01*
D94*
X152100000Y-98100000D02*
X152650000Y-97550000D01*
D96*
X121650000Y-94700000D02*
X121650000Y-96400000D01*
D94*
X152700000Y-96900000D02*
X153400000Y-96200000D01*
D97*
X121400000Y-96650000D02*
X121650000Y-96400000D01*
D94*
X143750000Y-104600000D02*
X141000000Y-104600000D01*
D95*
X140450000Y-104050000D02*
X140450000Y-103125000D01*
D94*
X152650000Y-97550000D02*
X152650000Y-96900000D01*
D95*
X122040000Y-126465000D02*
X121500000Y-125925000D01*
D96*
X115675000Y-102400000D02*
X115650000Y-102400000D01*
D97*
X121400000Y-97850000D02*
X121400000Y-96650000D01*
D95*
X137975000Y-102125000D02*
X138925000Y-101175000D01*
X115400000Y-106200000D02*
X115100000Y-105900000D01*
D96*
X121364513Y-105250000D02*
X120563000Y-104448487D01*
D97*
X119900000Y-102550000D02*
X119900000Y-103337000D01*
D96*
X114150000Y-102400000D02*
X115100000Y-102400000D01*
D95*
X121500000Y-105300000D02*
X121550000Y-105250000D01*
D97*
X117900000Y-104050000D02*
X117900000Y-102550000D01*
D95*
X140450000Y-104050000D02*
X140450000Y-105350000D01*
X115400000Y-107600000D02*
X115400000Y-106200000D01*
D96*
X117550000Y-104400000D02*
X117550000Y-104275000D01*
D95*
%TO.N,/NRST*%
X122040000Y-127735000D02*
X122040000Y-127770000D01*
X114500000Y-130200000D02*
X114500000Y-125300000D01*
X119800000Y-105200000D02*
X119400000Y-104800000D01*
D94*
X112500000Y-125250000D02*
X114450000Y-125250000D01*
D95*
X118110000Y-131700000D02*
X116000000Y-131700000D01*
X119400000Y-104800000D02*
X119400000Y-102550000D01*
X114500000Y-125300000D02*
X115600000Y-124200000D01*
X115600000Y-115750000D02*
X120800000Y-110550000D01*
X116000000Y-131700000D02*
X114500000Y-130200000D01*
X120400000Y-105200000D02*
X119800000Y-105200000D01*
X120800000Y-110550000D02*
X120800000Y-105600000D01*
D94*
X114450000Y-125250000D02*
X114500000Y-125300000D01*
D95*
X120800000Y-105600000D02*
X120400000Y-105200000D01*
X115600000Y-124200000D02*
X115600000Y-115750000D01*
X122040000Y-127770000D02*
X118110000Y-131700000D01*
D94*
%TO.N,Net-(U2-PC14-OSC32_IN)*%
X118400000Y-105100000D02*
X117350000Y-106150000D01*
X118400000Y-102550000D02*
X118400000Y-105100000D01*
X117350000Y-106500000D02*
X117350000Y-108650000D01*
X117350000Y-106150000D02*
X117350000Y-106500000D01*
D98*
%TO.N,AGND*%
X134200000Y-98200000D02*
X134200000Y-93750000D01*
X146150000Y-110650000D02*
X145635000Y-111165000D01*
X145635000Y-111165000D02*
X145635000Y-111700000D01*
D94*
X145600000Y-114100000D02*
X145600000Y-113700000D01*
D98*
X148065000Y-107765000D02*
X148065000Y-109400000D01*
D94*
X145995000Y-113695000D02*
X145995000Y-114100000D01*
X145600000Y-113700000D02*
X145800000Y-113500000D01*
X145800000Y-111865000D02*
X145635000Y-111700000D01*
X145800000Y-113500000D02*
X145995000Y-113695000D01*
D98*
X134200000Y-93750000D02*
X134200000Y-90950000D01*
D99*
X145800000Y-113500000D02*
X145800000Y-111865000D01*
D98*
X134200000Y-90950000D02*
X135200000Y-89950000D01*
X144465000Y-111700000D02*
X145635000Y-111700000D01*
X148050000Y-107750000D02*
X148065000Y-107765000D01*
D95*
%TO.N,Net-(D1-Pad1)*%
X123000000Y-90600000D02*
X123000000Y-88200000D01*
D100*
%TO.N,BAT+*%
X163600000Y-107900000D02*
X162050000Y-107900000D01*
D97*
X134175000Y-115975000D02*
X134175000Y-112577298D01*
X139000000Y-111235000D02*
X139500000Y-110735000D01*
X139000000Y-111300000D02*
X139000000Y-111235000D01*
X134900000Y-115250000D02*
X134175000Y-115975000D01*
X139500000Y-110735000D02*
X140000000Y-110735000D01*
X134175000Y-112577298D02*
X135027298Y-111725000D01*
D95*
%TO.N,Net-(D2-Pad1)*%
X119700000Y-92600000D02*
X120650000Y-92600000D01*
X120300000Y-95460000D02*
X120300000Y-94700000D01*
D94*
%TO.N,Net-(D3-Pad1)*%
X154300000Y-125665000D02*
X152115000Y-125665000D01*
X152115000Y-125665000D02*
X152100000Y-125650000D01*
%TO.N,/CC2*%
X114250000Y-91560000D02*
X114250000Y-90075000D01*
%TO.N,/CC1*%
X117250000Y-91560000D02*
X117250000Y-90075000D01*
%TO.N,/D_N*%
X116750000Y-90682410D02*
X116482410Y-90950000D01*
X119400000Y-97850000D02*
X119400000Y-96981800D01*
X119400000Y-96981800D02*
X115725000Y-93306800D01*
X116750000Y-90075000D02*
X116750000Y-90682410D01*
X115725000Y-90962501D02*
X115750000Y-90937501D01*
X115750000Y-90937501D02*
X115750000Y-90075000D01*
X116482410Y-90950000D02*
X115737501Y-90950000D01*
X115725000Y-93306800D02*
X115725000Y-90962501D01*
%TO.N,/D_P*%
X118900000Y-97118200D02*
X115250000Y-93468200D01*
X118900000Y-97850000D02*
X118900000Y-97118200D01*
X115982410Y-89200000D02*
X115500000Y-89200000D01*
X115500000Y-89200000D02*
X115250000Y-89450000D01*
X115250000Y-93468200D02*
X115250000Y-90075000D01*
X116250000Y-90075000D02*
X116250000Y-89467590D01*
X116250000Y-89467590D02*
X115982410Y-89200000D01*
X115250000Y-89450000D02*
X115250000Y-90075000D01*
%TO.N,/BAT_CHG_INT*%
X123500000Y-107600000D02*
X122465000Y-107600000D01*
X142500000Y-116400000D02*
X143100000Y-116400000D01*
X142100000Y-116000000D02*
X142500000Y-116400000D01*
X123600000Y-101200000D02*
X122850000Y-100450000D01*
X122850000Y-100450000D02*
X121950000Y-100450000D01*
X141700000Y-116000000D02*
X142100000Y-116000000D01*
X123600000Y-111500000D02*
X123600000Y-101200000D01*
%TO.N,/~{QON}*%
X123350000Y-99950000D02*
X121950000Y-99950000D01*
X124300000Y-100900000D02*
X123350000Y-99950000D01*
X145200000Y-114100000D02*
X145200000Y-115200000D01*
X124300000Y-111500000D02*
X124300000Y-100900000D01*
%TO.N,/SCL*%
X144900000Y-112600000D02*
X144400000Y-113100000D01*
X122200000Y-113835000D02*
X122465000Y-114100000D01*
X122200000Y-110500000D02*
X122200000Y-113150000D01*
X144400000Y-113100000D02*
X144400000Y-114100000D01*
X122200000Y-113150000D02*
X122200000Y-113835000D01*
X122200000Y-110500000D02*
X122200000Y-109100000D01*
X122200000Y-109100000D02*
X122400000Y-108900000D01*
D95*
X116750000Y-100450000D02*
X117300000Y-100450000D01*
D94*
X142841402Y-105100000D02*
X143750000Y-105100000D01*
X142791402Y-105150000D02*
X142841402Y-105100000D01*
D95*
X115500000Y-99200000D02*
X116750000Y-100450000D01*
D94*
%TO.N,/SDA*%
X144000000Y-112663174D02*
X144156587Y-112506587D01*
X122500000Y-115350000D02*
X122500000Y-116800000D01*
D95*
X116150000Y-100950000D02*
X117300000Y-100950000D01*
D94*
X143600000Y-105750000D02*
X143750000Y-105600000D01*
X123300000Y-114550000D02*
X122500000Y-115350000D01*
D95*
X115500000Y-100300000D02*
X116150000Y-100950000D01*
D94*
X144000000Y-112900000D02*
X144000000Y-112663174D01*
X123300000Y-113600000D02*
X123300000Y-114550000D01*
X142050000Y-105750000D02*
X143600000Y-105750000D01*
X123300000Y-113600000D02*
X122900000Y-113200000D01*
X144000000Y-112900000D02*
X144000000Y-114100000D01*
X122900000Y-113200000D02*
X122900000Y-109900000D01*
%TO.N,/~{CE}*%
X123750000Y-99450000D02*
X121950000Y-99450000D01*
X125000000Y-111500000D02*
X125000000Y-100700000D01*
X144800000Y-113656219D02*
X144800000Y-114100000D01*
X125000000Y-100700000D02*
X123750000Y-99450000D01*
X145125000Y-113331219D02*
X144800000Y-113656219D01*
D101*
%TO.N,Net-(F1-Pad1)*%
X157550000Y-121900000D02*
X157550000Y-124400000D01*
X158650000Y-125500000D02*
X160300000Y-125500000D01*
X157550000Y-124400000D02*
X158650000Y-125500000D01*
D95*
%TO.N,/SWDCLK*%
X119200000Y-125495000D02*
X118230000Y-126465000D01*
X119200000Y-119950000D02*
X119200000Y-125495000D01*
X114200000Y-117400000D02*
X111450000Y-114650000D01*
X114200000Y-117450000D02*
X114200000Y-117400000D01*
X117900000Y-97850000D02*
X115500000Y-97850000D01*
X116700000Y-117450000D02*
X119200000Y-119950000D01*
X111450000Y-114650000D02*
X111450000Y-97850000D01*
%TO.N,/SWDIO*%
X120770000Y-120170000D02*
X120770000Y-126465000D01*
X111500000Y-116300000D02*
X110850000Y-115650000D01*
X116700000Y-116300000D02*
X116900000Y-116300000D01*
X111436827Y-97050000D02*
X111450000Y-97050000D01*
X116900000Y-116300000D02*
X120770000Y-120170000D01*
X110850000Y-97636827D02*
X111436827Y-97050000D01*
X117932410Y-97050000D02*
X118100000Y-97050000D01*
X118400000Y-97350000D02*
X118400000Y-97850000D01*
X110850000Y-115650000D02*
X110850000Y-97636827D01*
X118100000Y-97050000D02*
X118400000Y-97350000D01*
X117917764Y-97050000D02*
X116200000Y-97050000D01*
D94*
X117917764Y-97050000D02*
X117932410Y-97050000D01*
%TO.N,/TS*%
X143535000Y-111675000D02*
X143510000Y-111700000D01*
X148100000Y-99000000D02*
X147300000Y-99000000D01*
D95*
X136200000Y-93750000D02*
X136200000Y-96300000D01*
D94*
X143535000Y-109565000D02*
X143535000Y-110500000D01*
X143600000Y-113700000D02*
X143200000Y-113300000D01*
X143200000Y-113300000D02*
X143200000Y-112010000D01*
X143535000Y-110500000D02*
X143535000Y-111675000D01*
X143600000Y-114100000D02*
X143600000Y-113700000D01*
X143200000Y-112010000D02*
X143510000Y-111700000D01*
%TO.N,Net-(Q4-Pad3)*%
X157100000Y-97700000D02*
X157400000Y-98000000D01*
X154000000Y-100465000D02*
X153300000Y-99765000D01*
X154000000Y-100465000D02*
X154000000Y-101610000D01*
X154600000Y-97700000D02*
X157100000Y-97700000D01*
X155250000Y-100450000D02*
X154015000Y-100450000D01*
X157400000Y-98000000D02*
X158400000Y-98000000D01*
X153300000Y-99765000D02*
X153300000Y-99000000D01*
X153300000Y-99000000D02*
X154600000Y-97700000D01*
X154015000Y-100450000D02*
X154000000Y-100465000D01*
%TO.N,/Battery Charger/REGN*%
X145050000Y-109190000D02*
X145890000Y-109190000D01*
X145890000Y-109190000D02*
X147225000Y-110525000D01*
X153110000Y-124710000D02*
X154300000Y-124710000D01*
X148025000Y-115273180D02*
X147298180Y-116000000D01*
X147298180Y-116000000D02*
X146900000Y-116000000D01*
X148025000Y-112000000D02*
X148025000Y-115273180D01*
X144490000Y-109750000D02*
X145050000Y-109190000D01*
X152900000Y-124500000D02*
X153110000Y-124710000D01*
X147225000Y-110525000D02*
X148025000Y-110525000D01*
X144490000Y-110500000D02*
X144490000Y-109750000D01*
X148025000Y-110525000D02*
X148025000Y-112000000D01*
%TO.N,/Battery Charger/ILIM_HZ*%
X143150000Y-114800000D02*
X142600000Y-114800000D01*
X142600000Y-114800000D02*
X142350000Y-114550000D01*
D95*
X147300000Y-108525000D02*
X147250000Y-108575000D01*
X147250000Y-108575000D02*
X147250000Y-109360000D01*
D94*
X142350000Y-114550000D02*
X142350000Y-114000000D01*
D95*
X147250000Y-109360000D02*
X147110000Y-109500000D01*
D94*
X145050000Y-108235000D02*
X145945000Y-108235000D01*
X145945000Y-108235000D02*
X147110000Y-109400000D01*
D96*
%TO.N,/VUSB*%
X112550000Y-91900000D02*
X112550000Y-92800000D01*
X114447316Y-88500000D02*
X113600000Y-89347316D01*
X118400000Y-89405458D02*
X117494542Y-88500000D01*
X118400000Y-90075000D02*
X118400000Y-89405458D01*
X114286892Y-95900000D02*
X112550000Y-94163108D01*
X113600000Y-90075000D02*
X113600000Y-90850000D01*
D95*
X111300000Y-92800000D02*
X112550000Y-92800000D01*
D96*
X112550000Y-92800000D02*
X112550000Y-94000000D01*
X112550000Y-94100000D02*
X112550000Y-94000000D01*
X112550000Y-94163108D02*
X112550000Y-94100000D01*
X112450000Y-97800000D02*
X112450000Y-98300000D01*
D95*
X121445000Y-91200000D02*
X118800000Y-91200000D01*
X118290000Y-90185000D02*
X118400000Y-90075000D01*
D96*
X114350000Y-95900000D02*
X114286892Y-95900000D01*
D95*
X122045000Y-90600000D02*
X121445000Y-91200000D01*
X118800000Y-91200000D02*
X118400000Y-90800000D01*
D96*
X113600000Y-90850000D02*
X112550000Y-91900000D01*
X117494542Y-88500000D02*
X114447316Y-88500000D01*
D95*
X118400000Y-90800000D02*
X118400000Y-90075000D01*
D96*
X113600000Y-89347316D02*
X113600000Y-90075000D01*
X114350000Y-95900000D02*
X112450000Y-97800000D01*
D94*
%TO.N,Net-(U2-PC15-OSC32_OUT)*%
X118900000Y-105200000D02*
X119850000Y-106150000D01*
X119850000Y-106150000D02*
X119850000Y-106500000D01*
X118900000Y-102550000D02*
X118900000Y-105200000D01*
X119850000Y-106500000D02*
X119850000Y-108650000D01*
%TO.N,Net-(U3-BTST1)*%
X147675998Y-116400000D02*
X146900000Y-116400000D01*
X148037999Y-116037999D02*
X147675998Y-116400000D01*
D102*
%TO.N,PACK-*%
X169950000Y-87500000D02*
X164050000Y-87500000D01*
X162700000Y-87500000D02*
X159965000Y-90235000D01*
X159965000Y-90235000D02*
X152225000Y-90235000D01*
X164050000Y-87500000D02*
X162700000Y-87500000D01*
D96*
%TO.N,Net-(U3-SW1)*%
X147025000Y-122025000D02*
X147025000Y-122000000D01*
D94*
X145450000Y-116800000D02*
X145550000Y-116700000D01*
D101*
X147025000Y-127500000D02*
X147025000Y-123050000D01*
X147025000Y-123050000D02*
X147025000Y-122025000D01*
D94*
X145450000Y-117700000D02*
X145450000Y-116800000D01*
%TO.N,Net-(U3-BTST2)*%
X141806066Y-115288909D02*
X142117157Y-115600000D01*
X141711091Y-115288909D02*
X141806066Y-115288909D01*
X142117157Y-115600000D02*
X143137500Y-115600000D01*
D101*
%TO.N,Net-(U3-SW2)*%
X142975000Y-123050000D02*
X142975000Y-122025000D01*
D94*
X144550000Y-116800000D02*
X144450000Y-116700000D01*
D101*
X142975000Y-127500000D02*
X142975000Y-123050000D01*
D94*
X144550000Y-117700000D02*
X144550000Y-116800000D01*
D96*
X142975000Y-122025000D02*
X142975000Y-122000000D01*
D100*
%TO.N,/Battery Manager/VC4*%
X156500000Y-109565000D02*
X156500000Y-110500000D01*
X151300000Y-97400000D02*
X151750000Y-96950000D01*
X151750000Y-96100000D02*
X152600000Y-95250000D01*
X154450000Y-94750000D02*
X153900000Y-94750000D01*
X153900000Y-94750000D02*
X153400000Y-95250000D01*
X151750000Y-96950000D02*
X151750000Y-96100000D01*
D94*
X151300000Y-97400000D02*
X151000000Y-97700000D01*
D100*
X152600000Y-95250000D02*
X153350000Y-95250000D01*
D94*
X151000000Y-97700000D02*
X151000000Y-98100000D01*
D100*
%TO.N,/Battery Manager/VC1*%
X151200000Y-96550000D02*
X151200000Y-95250000D01*
X154750000Y-93750000D02*
X153400000Y-93750000D01*
X150600000Y-97150000D02*
X150600000Y-97300000D01*
X153050000Y-93750000D02*
X151550000Y-95250000D01*
X150600000Y-97150000D02*
X151200000Y-96550000D01*
X153400000Y-93750000D02*
X153050000Y-93750000D01*
X161735000Y-98335000D02*
X160700000Y-98335000D01*
D94*
X150600000Y-98100000D02*
X150600000Y-97300000D01*
D100*
X151550000Y-95250000D02*
X151200000Y-95250000D01*
D94*
%TO.N,+1V8*%
X144300000Y-103950000D02*
X144300000Y-103200000D01*
X144300000Y-103200000D02*
X144225000Y-103125000D01*
X139610000Y-102475000D02*
X138800000Y-102475000D01*
X145500000Y-102100000D02*
X145500000Y-102800000D01*
X145150000Y-103125000D02*
X144225000Y-103125000D01*
X145175000Y-103125000D02*
X145150000Y-103125000D01*
X144300000Y-104550000D02*
X144300000Y-103950000D01*
X145500000Y-102800000D02*
X145175000Y-103125000D01*
X143600000Y-103950000D02*
X144300000Y-103950000D01*
D102*
%TO.N,PACK+*%
X169950000Y-92500000D02*
X164050000Y-92500000D01*
X164050000Y-92500000D02*
X159600000Y-96950000D01*
D94*
X154000000Y-99510000D02*
X154110000Y-99400000D01*
X154110000Y-99400000D02*
X155090000Y-99400000D01*
D102*
X159600000Y-96950000D02*
X159600000Y-98500000D01*
D94*
X155090000Y-99400000D02*
X155200000Y-99290000D01*
D102*
%TO.N,Net-(C39-Pad2)*%
X164050000Y-90950000D02*
X164050000Y-89000000D01*
D95*
%TO.N,Net-(U3-STAT)*%
X150300000Y-126000000D02*
X150550000Y-126000000D01*
D94*
X147200000Y-117600000D02*
X147750000Y-118150000D01*
X146750000Y-117600000D02*
X147200000Y-117600000D01*
D95*
X150550000Y-126000000D02*
X152100000Y-127550000D01*
D102*
%TO.N,BAT-*%
X143006000Y-88965000D02*
X143000000Y-88959000D01*
X147275000Y-88965000D02*
X143006000Y-88965000D01*
D100*
%TO.N,/Battery Manager/1P*%
X161380000Y-99290000D02*
X160700000Y-99290000D01*
X162300000Y-102000000D02*
X162300000Y-100210000D01*
X163000000Y-102700000D02*
X162300000Y-102000000D01*
X165450000Y-102700000D02*
X163000000Y-102700000D01*
X162300000Y-100210000D02*
X161380000Y-99290000D01*
D94*
%TO.N,Net-(Q3-Pad1)*%
X152910000Y-107690000D02*
X154400000Y-106200000D01*
X154090000Y-105000000D02*
X154090000Y-105890000D01*
X151700000Y-107690000D02*
X152910000Y-107690000D01*
X154400000Y-106200000D02*
X155050000Y-106200000D01*
X154090000Y-105890000D02*
X154400000Y-106200000D01*
%TO.N,Net-(Q3-Pad3)*%
X155665000Y-108200000D02*
X156500000Y-107365000D01*
X154100000Y-108200000D02*
X155665000Y-108200000D01*
D95*
%TO.N,Net-(Q2-Pad3)*%
X159300000Y-103090000D02*
X159300000Y-104235000D01*
X157150000Y-104135000D02*
X159200000Y-104135000D01*
X159200000Y-104135000D02*
X159300000Y-104235000D01*
D94*
%TO.N,Net-(Q5-Pad1)*%
X156290000Y-94900000D02*
X156290000Y-96940000D01*
X156290000Y-96940000D02*
X156400000Y-97050000D01*
%TO.N,Net-(U2-PA9)*%
X120400000Y-96515000D02*
X120300000Y-96415000D01*
X120400000Y-97850000D02*
X120400000Y-96515000D01*
D95*
%TO.N,Net-(R5-Pad2)*%
X112425000Y-109425000D02*
X112425000Y-104810000D01*
X114000000Y-111000000D02*
X112425000Y-109425000D01*
X112425000Y-104810000D02*
X112935000Y-104300000D01*
%TO.N,Net-(U2-BOOT0)*%
X113900000Y-104290000D02*
X113890000Y-104300000D01*
X113900000Y-103500000D02*
X113900000Y-104290000D01*
X115350000Y-101450000D02*
X117300000Y-101450000D01*
D94*
%TO.N,Net-(U3-PROG)*%
X144500000Y-115000000D02*
X144500000Y-115073860D01*
X146590000Y-112290000D02*
X146900000Y-112600000D01*
X146590000Y-111700000D02*
X146590000Y-112290000D01*
X143573860Y-116000000D02*
X143100000Y-116000000D01*
X144500000Y-115073860D02*
X143573860Y-116000000D01*
%TO.N,Net-(U4-EN)*%
X141575000Y-101175000D02*
X140565000Y-101175000D01*
%TO.N,Net-(U4-PG)*%
X141575000Y-102475000D02*
X140565000Y-102475000D01*
%TO.N,/SYS_PRES*%
X124210000Y-98950000D02*
X124950000Y-99690000D01*
X122000000Y-98950000D02*
X121950000Y-98950000D01*
X122000000Y-98950000D02*
X124210000Y-98950000D01*
D95*
%TO.N,Net-(R23-Pad2)*%
X124950000Y-98735000D02*
X124950000Y-97590000D01*
D94*
%TO.N,Net-(U5-~{PRES}{slash}~{SHUTDN})*%
X124715000Y-96635000D02*
X124225000Y-97125000D01*
X147350000Y-101725000D02*
X147675000Y-101400000D01*
X147675000Y-101400000D02*
X148100000Y-101400000D01*
X124950000Y-96635000D02*
X124715000Y-96635000D01*
%TO.N,Net-(U6-SDA_B)*%
X146835000Y-104000000D02*
X145735000Y-105100000D01*
X145735000Y-105100000D02*
X144850000Y-105100000D01*
%TO.N,Net-(U6-SCL_B)*%
X145600000Y-104400000D02*
X145400000Y-104600000D01*
X145600000Y-105800000D02*
X146200000Y-105200000D01*
X146200000Y-105200000D02*
X146835000Y-105200000D01*
X145400000Y-104600000D02*
X144850000Y-104600000D01*
%TO.N,Net-(Q2-Pad1)*%
X153135000Y-104882500D02*
X153135000Y-105000000D01*
X154090000Y-103927500D02*
X153135000Y-104882500D01*
X153150000Y-106200000D02*
X153150000Y-105015000D01*
X154090000Y-103800000D02*
X154090000Y-103927500D01*
X153150000Y-105015000D02*
X153135000Y-105000000D01*
X154405000Y-103485000D02*
X154090000Y-103800000D01*
X155250000Y-103485000D02*
X154405000Y-103485000D01*
%TO.N,Net-(U6-EN)*%
X144850000Y-105600000D02*
X144850000Y-106527818D01*
X144527818Y-106850000D02*
X143615000Y-106850000D01*
X143615000Y-106850000D02*
X143465000Y-106700000D01*
X144850000Y-106527818D02*
X144527818Y-106850000D01*
%TO.N,VCC*%
X153135000Y-103800000D02*
X153135000Y-102635000D01*
X151900000Y-101000000D02*
X152308273Y-101000000D01*
X153135000Y-102635000D02*
X152700000Y-102200000D01*
X152700000Y-101391727D02*
X152700000Y-102200000D01*
X152308273Y-101000000D02*
X152700000Y-101391727D01*
%TO.N,/BTP_INT*%
X146675000Y-101025000D02*
X146700000Y-101000000D01*
X123100000Y-101400000D02*
X122650000Y-100950000D01*
X122650000Y-100950000D02*
X121950000Y-100950000D01*
X146700000Y-101000000D02*
X148100000Y-101000000D01*
X123100000Y-105800000D02*
X123100000Y-101400000D01*
X122500000Y-106400000D02*
X123100000Y-105800000D01*
D97*
%TO.N,/Battery Charger/BATP*%
X140000000Y-111690000D02*
X140010000Y-111700000D01*
D94*
X141650000Y-114450000D02*
X142400000Y-115200000D01*
D100*
X141263000Y-113238280D02*
X141263000Y-111700000D01*
X141650000Y-113625280D02*
X141263000Y-113238280D01*
X141650000Y-114450000D02*
X141650000Y-113625280D01*
D94*
X142400000Y-115200000D02*
X143125000Y-115200000D01*
D97*
X140010000Y-111700000D02*
X141250000Y-111700000D01*
D94*
%TO.N,/Battery Charger/SYS*%
X142901910Y-119400000D02*
X142750000Y-119400000D01*
X144100000Y-117700000D02*
X144100000Y-118201910D01*
X144100000Y-118201910D02*
X142901910Y-119400000D01*
%TO.N,/Battery Charger/PMID*%
X145900000Y-118201910D02*
X147098090Y-119400000D01*
X147098090Y-119400000D02*
X147250000Y-119400000D01*
X145900000Y-117725000D02*
X145900000Y-118201910D01*
%TO.N,/Battery Charger/SDRV*%
X136050000Y-114200000D02*
X136050000Y-115000000D01*
X142650000Y-117600000D02*
X143250000Y-117600000D01*
X142150000Y-118100000D02*
X142650000Y-117600000D01*
%TO.N,/Battery Manager/SRN*%
X149400000Y-98100000D02*
X149400000Y-97050000D01*
X149400000Y-97050000D02*
X149750000Y-96700000D01*
D96*
X149750000Y-95165000D02*
X149750000Y-96700000D01*
%TO.N,/Battery Manager/SRP*%
X148250000Y-95165000D02*
X148250000Y-96700000D01*
D94*
X148600000Y-98100000D02*
X148600000Y-97050000D01*
X148600000Y-97050000D02*
X148250000Y-96700000D01*
D95*
%TO.N,/Battery Manager/PTC*%
X158100000Y-103300000D02*
X158100000Y-102625000D01*
D94*
X151000000Y-101900000D02*
X151000000Y-102350000D01*
X151000000Y-102350000D02*
X150500000Y-102850000D01*
X150500000Y-102850000D02*
X149700000Y-103650000D01*
D95*
%TO.N,/Battery Manager/BAT*%
X151100000Y-103200000D02*
X151400000Y-102900000D01*
X149800000Y-109205000D02*
X150045000Y-109450000D01*
D94*
X153400000Y-97700000D02*
X153100000Y-97700000D01*
X152200000Y-98600000D02*
X151900000Y-98600000D01*
D95*
X158100000Y-101975000D02*
X158100000Y-101300000D01*
D94*
X153100000Y-97700000D02*
X152200000Y-98600000D01*
D95*
X149800000Y-105250000D02*
X149800000Y-109205000D01*
X149700000Y-105150000D02*
X149800000Y-105250000D01*
X151100000Y-103750000D02*
X151100000Y-103200000D01*
D94*
X151400000Y-102900000D02*
X151400000Y-101900000D01*
D95*
X149700000Y-105150000D02*
X151100000Y-103750000D01*
D94*
%TO.N,/Battery Manager/SMBD*%
X148400000Y-102900000D02*
X148400000Y-103800000D01*
X149000000Y-101900000D02*
X149000000Y-102300000D01*
X149000000Y-102300000D02*
X148400000Y-102900000D01*
X148400000Y-103800000D02*
X148200000Y-104000000D01*
X148200000Y-104000000D02*
X147790000Y-104000000D01*
%TO.N,/Battery Manager/SMBC*%
X148200000Y-105200000D02*
X147790000Y-105200000D01*
X148800000Y-104600000D02*
X148200000Y-105200000D01*
X148800000Y-103065686D02*
X148800000Y-104600000D01*
X149400000Y-101900000D02*
X149400000Y-102465686D01*
X149400000Y-102465686D02*
X148800000Y-103065686D01*
D95*
%TO.N,/Battery Manager/CHG*%
X159300000Y-101350000D02*
X159100000Y-101150000D01*
X159300000Y-102135000D02*
X159300000Y-101350000D01*
D94*
X152577818Y-99000000D02*
X151900000Y-99000000D01*
X152788909Y-98788909D02*
X152577818Y-99000000D01*
%TO.N,/Battery Manager/PCHG*%
X151700000Y-103754359D02*
X151700000Y-106735000D01*
X152675000Y-99650000D02*
X152425000Y-99400000D01*
X152425000Y-99400000D02*
X151900000Y-99400000D01*
X152445646Y-103008713D02*
X151700000Y-103754359D01*
%TO.N,/Battery Manager/DSG*%
X153400000Y-101965000D02*
X153400000Y-100500000D01*
X153400000Y-100500000D02*
X153100000Y-100200000D01*
X153100000Y-100200000D02*
X151900000Y-100200000D01*
X154000000Y-102565000D02*
X153400000Y-101965000D01*
%TO.N,/Battery Manager/PACK*%
X152686091Y-100600000D02*
X151900000Y-100600000D01*
X154765000Y-98335000D02*
X154400000Y-98700000D01*
X155200000Y-98335000D02*
X154765000Y-98335000D01*
X152836090Y-100749999D02*
X152686091Y-100600000D01*
D96*
%TO.N,Net-(R20-Pad2)*%
X149750000Y-94210000D02*
X149750000Y-89250000D01*
X150670000Y-88330000D02*
X153025000Y-88330000D01*
X149750000Y-89250000D02*
X150670000Y-88330000D01*
%TO.N,Net-(R20-Pad4)*%
X147672500Y-90870000D02*
X146475000Y-90870000D01*
X148250000Y-94210000D02*
X148250000Y-91447500D01*
X148250000Y-91447500D02*
X147672500Y-90870000D01*
%TD*%
%TA.AperFunction,Conductor*%
%TO.N,/Battery Charger/PMID*%
G36*
X147532499Y-118609922D02*
G01*
X147538263Y-118613626D01*
X147538268Y-118613629D01*
X147554197Y-118618306D01*
X147677461Y-118654499D01*
X147677463Y-118654500D01*
X147677464Y-118654500D01*
X147822537Y-118654500D01*
X147822537Y-118654499D01*
X147961732Y-118613629D01*
X147964274Y-118611994D01*
X147967501Y-118609922D01*
X148001291Y-118600000D01*
X155587500Y-118600000D01*
X155631694Y-118618306D01*
X155650000Y-118662500D01*
X155650000Y-120637500D01*
X155631694Y-120681694D01*
X155587500Y-120700000D01*
X148608437Y-120700000D01*
X148591865Y-120697763D01*
X148533432Y-120681694D01*
X147843427Y-120491942D01*
X146645928Y-120162630D01*
X146608169Y-120133261D01*
X146600000Y-120102367D01*
X146600000Y-118662500D01*
X146618306Y-118618306D01*
X146662500Y-118600000D01*
X147498709Y-118600000D01*
X147532499Y-118609922D01*
G37*
%TD.AperFunction*%
%TD*%
%TA.AperFunction,Conductor*%
%TO.N,VBUS*%
G36*
X147631694Y-113168306D02*
G01*
X147650000Y-113212500D01*
X147650000Y-114837500D01*
X147631694Y-114881694D01*
X147587500Y-114900000D01*
X147350847Y-114900000D01*
X147325602Y-114894674D01*
X147220926Y-114848454D01*
X147201825Y-114846238D01*
X147195460Y-114845500D01*
X146604540Y-114845500D01*
X146599447Y-114846090D01*
X146579073Y-114848454D01*
X146474398Y-114894674D01*
X146449153Y-114900000D01*
X146362500Y-114900000D01*
X146318306Y-114881694D01*
X146300000Y-114837500D01*
X146300000Y-114550847D01*
X146305326Y-114525602D01*
X146351545Y-114420926D01*
X146351545Y-114420925D01*
X146351546Y-114420923D01*
X146354500Y-114395460D01*
X146354500Y-113804540D01*
X146351546Y-113779077D01*
X146351544Y-113779074D01*
X146351054Y-113774845D01*
X146349500Y-113763205D01*
X146349500Y-113648329D01*
X146349499Y-113648323D01*
X146336661Y-113600415D01*
X146325341Y-113558168D01*
X146308373Y-113528777D01*
X146300000Y-113497528D01*
X146300000Y-113212500D01*
X146318306Y-113168306D01*
X146362500Y-113150000D01*
X147587500Y-113150000D01*
X147631694Y-113168306D01*
G37*
%TD.AperFunction*%
%TD*%
%TA.AperFunction,Conductor*%
%TO.N,PACK+*%
G36*
X158009295Y-98506811D02*
G01*
X158073445Y-98539498D01*
X158168166Y-98554500D01*
X158168168Y-98554500D01*
X158631832Y-98554500D01*
X158631834Y-98554500D01*
X158726555Y-98539498D01*
X158790704Y-98506811D01*
X158819079Y-98500000D01*
X159937500Y-98500000D01*
X159981694Y-98518306D01*
X160000000Y-98562500D01*
X160000000Y-100000000D01*
X161337500Y-100000000D01*
X161381694Y-100018306D01*
X161400000Y-100062500D01*
X161400000Y-101337500D01*
X161381694Y-101381694D01*
X161337500Y-101400000D01*
X160041213Y-101400000D01*
X159997019Y-101381694D01*
X159983766Y-101362120D01*
X159920706Y-101214982D01*
X159700000Y-100700000D01*
X159699999Y-100700000D01*
X159351291Y-100700000D01*
X159317501Y-100690078D01*
X159311736Y-100686373D01*
X159311727Y-100686369D01*
X159172538Y-100645500D01*
X159172536Y-100645500D01*
X159027464Y-100645500D01*
X159027462Y-100645500D01*
X158888272Y-100686369D01*
X158888263Y-100686373D01*
X158882499Y-100690078D01*
X158848709Y-100700000D01*
X157430439Y-100700000D01*
X157404025Y-100694144D01*
X157367381Y-100677056D01*
X157317582Y-100670500D01*
X157317576Y-100670500D01*
X156982424Y-100670500D01*
X156982419Y-100670500D01*
X156932618Y-100677056D01*
X156932617Y-100677057D01*
X156930668Y-100677966D01*
X156929294Y-100678025D01*
X156928028Y-100678395D01*
X156927937Y-100678084D01*
X156882878Y-100680046D01*
X156854463Y-100659085D01*
X156852932Y-100657066D01*
X156736955Y-100569118D01*
X156736950Y-100569115D01*
X156601546Y-100515719D01*
X156516462Y-100505501D01*
X156516458Y-100505500D01*
X156516452Y-100505500D01*
X155883548Y-100505500D01*
X155883541Y-100505500D01*
X155883537Y-100505501D01*
X155798452Y-100515719D01*
X155797306Y-100516009D01*
X155796735Y-100515925D01*
X155794476Y-100516197D01*
X155794402Y-100515584D01*
X155749975Y-100509083D01*
X155721403Y-100470718D01*
X155719500Y-100455412D01*
X155719500Y-100322430D01*
X155719500Y-100322424D01*
X155712943Y-100272618D01*
X155705855Y-100257419D01*
X155700000Y-100231006D01*
X155700000Y-100100000D01*
X155624550Y-100100000D01*
X155580356Y-100081694D01*
X155576691Y-100078029D01*
X155467381Y-100027056D01*
X155417582Y-100020500D01*
X155417576Y-100020500D01*
X155082424Y-100020500D01*
X155082417Y-100020500D01*
X155032618Y-100027056D01*
X154923308Y-100078029D01*
X154918827Y-100081167D01*
X154917866Y-100079794D01*
X154879950Y-100095500D01*
X154762500Y-100095500D01*
X154718306Y-100077194D01*
X154700000Y-100033000D01*
X154700000Y-99141029D01*
X154718306Y-99096835D01*
X154728715Y-99088448D01*
X154733773Y-99085197D01*
X154733772Y-99085197D01*
X154733775Y-99085196D01*
X154828777Y-98975558D01*
X154858839Y-98909729D01*
X154893848Y-98877135D01*
X154925468Y-98873964D01*
X154994663Y-98884923D01*
X155023558Y-98889500D01*
X155023560Y-98889500D01*
X155376440Y-98889500D01*
X155376442Y-98889500D01*
X155469991Y-98874683D01*
X155582747Y-98817231D01*
X155582750Y-98817227D01*
X155586725Y-98814341D01*
X155587770Y-98815779D01*
X155625866Y-98800000D01*
X155699999Y-98800000D01*
X155700000Y-98800000D01*
X155881446Y-98527831D01*
X155921192Y-98501214D01*
X155933449Y-98500000D01*
X157980921Y-98500000D01*
X158009295Y-98506811D01*
G37*
%TD.AperFunction*%
%TD*%
%TA.AperFunction,Conductor*%
%TO.N,Net-(U3-SW1)*%
G36*
X147736686Y-121518306D02*
G01*
X147754776Y-121557310D01*
X147999784Y-124497408D01*
X148000000Y-124502598D01*
X148000000Y-130437500D01*
X147981694Y-130481694D01*
X147937500Y-130500000D01*
X146112500Y-130500000D01*
X146068306Y-130481694D01*
X146050000Y-130437500D01*
X146050000Y-121562500D01*
X146068306Y-121518306D01*
X146112500Y-121500000D01*
X147692492Y-121500000D01*
X147736686Y-121518306D01*
G37*
%TD.AperFunction*%
%TD*%
%TA.AperFunction,Conductor*%
%TO.N,BAT-*%
G36*
X158606694Y-112819678D02*
G01*
X158623088Y-112848529D01*
X158683912Y-113088716D01*
X158683913Y-113088720D01*
X158783767Y-113316366D01*
X158783768Y-113316368D01*
X158814207Y-113362960D01*
X158814208Y-113362961D01*
X159263339Y-112913830D01*
X159309930Y-113026310D01*
X159408424Y-113173717D01*
X159533783Y-113299076D01*
X159681190Y-113397570D01*
X159793669Y-113444160D01*
X159344940Y-113892889D01*
X159502885Y-113978364D01*
X159502892Y-113978367D01*
X159738009Y-114059083D01*
X159838498Y-114075852D01*
X159879077Y-114101183D01*
X159889859Y-114147787D01*
X159864528Y-114188366D01*
X159828211Y-114200000D01*
X158562500Y-114200000D01*
X158518306Y-114181694D01*
X158500000Y-114137500D01*
X158500000Y-112863872D01*
X158518306Y-112819678D01*
X158562500Y-112801372D01*
X158606694Y-112819678D01*
G37*
%TD.AperFunction*%
%TA.AperFunction,Conductor*%
G36*
X169981694Y-96818306D02*
G01*
X170000000Y-96862500D01*
X170000000Y-112737500D01*
X169981694Y-112781694D01*
X169937500Y-112800000D01*
X166600000Y-112800000D01*
X165418708Y-114178174D01*
X165376048Y-114199816D01*
X165371254Y-114200000D01*
X160386789Y-114200000D01*
X160342595Y-114181694D01*
X160324289Y-114137500D01*
X160342595Y-114093306D01*
X160376502Y-114075852D01*
X160476990Y-114059083D01*
X160712107Y-113978367D01*
X160712108Y-113978366D01*
X160870058Y-113892888D01*
X160421330Y-113444160D01*
X160533810Y-113397570D01*
X160681217Y-113299076D01*
X160806576Y-113173717D01*
X160905070Y-113026310D01*
X160951660Y-112913830D01*
X161400790Y-113362960D01*
X161400791Y-113362960D01*
X161431228Y-113316373D01*
X161431230Y-113316370D01*
X161531086Y-113088720D01*
X161531091Y-113088705D01*
X161592110Y-112847748D01*
X161592112Y-112847738D01*
X161612640Y-112600000D01*
X161592112Y-112352261D01*
X161592110Y-112352251D01*
X161531091Y-112111294D01*
X161531086Y-112111279D01*
X161431232Y-111883633D01*
X161431231Y-111883631D01*
X161400791Y-111837038D01*
X161400790Y-111837038D01*
X160951660Y-112286168D01*
X160905070Y-112173690D01*
X160806576Y-112026283D01*
X160681217Y-111900924D01*
X160533810Y-111802430D01*
X160421329Y-111755839D01*
X160870059Y-111307110D01*
X160712113Y-111221634D01*
X160476990Y-111140916D01*
X160231791Y-111100000D01*
X159983209Y-111100000D01*
X159738009Y-111140916D01*
X159502884Y-111221635D01*
X159344940Y-111307109D01*
X159344940Y-111307110D01*
X159793669Y-111755839D01*
X159681190Y-111802430D01*
X159533783Y-111900924D01*
X159408424Y-112026283D01*
X159309930Y-112173690D01*
X159263339Y-112286168D01*
X158814208Y-111837037D01*
X158783765Y-111883636D01*
X158683913Y-112111279D01*
X158683908Y-112111294D01*
X158623087Y-112351470D01*
X158594493Y-112389818D01*
X158547157Y-112396714D01*
X158508809Y-112368120D01*
X158500000Y-112336127D01*
X158500000Y-109022000D01*
X158518306Y-108977806D01*
X158562500Y-108959500D01*
X167837500Y-108959500D01*
X167837501Y-108959500D01*
X167936807Y-108939746D01*
X167981001Y-108921440D01*
X168065187Y-108865189D01*
X168121440Y-108781001D01*
X168138578Y-108739626D01*
X168139626Y-108737409D01*
X168139746Y-108736807D01*
X168139747Y-108736806D01*
X168159500Y-108637500D01*
X168159500Y-104462499D01*
X168139746Y-104363193D01*
X168121440Y-104318999D01*
X168065189Y-104234813D01*
X168065186Y-104234810D01*
X167981002Y-104178561D01*
X167980998Y-104178558D01*
X167939652Y-104161432D01*
X167934105Y-104158809D01*
X167933035Y-104158237D01*
X167902690Y-104121258D01*
X167900000Y-104103118D01*
X167900000Y-103348416D01*
X167903941Y-103326574D01*
X167913853Y-103300000D01*
X167948040Y-103208342D01*
X167954500Y-103148255D01*
X167954499Y-102251746D01*
X167948040Y-102191658D01*
X167903941Y-102073425D01*
X167900000Y-102051583D01*
X167900000Y-101100000D01*
X163062500Y-101100000D01*
X163018306Y-101081694D01*
X163000000Y-101037500D01*
X163000000Y-96862500D01*
X163018306Y-96818306D01*
X163062500Y-96800000D01*
X169937500Y-96800000D01*
X169981694Y-96818306D01*
G37*
%TD.AperFunction*%
%TD*%
%TA.AperFunction,Conductor*%
%TO.N,/Battery Charger/BAT*%
G36*
X136517474Y-115458737D02*
G01*
X136900000Y-115650000D01*
X140187855Y-115650000D01*
X140211259Y-115654547D01*
X141164591Y-116039546D01*
X141198714Y-116073068D01*
X141203050Y-116088602D01*
X141210957Y-116143595D01*
X141271222Y-116275556D01*
X141271225Y-116275561D01*
X141366226Y-116385198D01*
X141452028Y-116440339D01*
X141488268Y-116463629D01*
X141627461Y-116504499D01*
X141627463Y-116504500D01*
X141627464Y-116504500D01*
X141772537Y-116504500D01*
X141772537Y-116504499D01*
X141911732Y-116463629D01*
X141961016Y-116431954D01*
X142008090Y-116423461D01*
X142039000Y-116440339D01*
X142214141Y-116615479D01*
X142214146Y-116615485D01*
X142216329Y-116617668D01*
X142282332Y-116683671D01*
X142363168Y-116730341D01*
X142405415Y-116741661D01*
X142453323Y-116754499D01*
X142453329Y-116754500D01*
X143337500Y-116754500D01*
X143381694Y-116772806D01*
X143400000Y-116817000D01*
X143400000Y-117178000D01*
X143381694Y-117222194D01*
X143337500Y-117240500D01*
X142850000Y-117240500D01*
X142803705Y-117245059D01*
X142802288Y-117245199D01*
X142796163Y-117245500D01*
X142603323Y-117245500D01*
X142513170Y-117269658D01*
X142513165Y-117269660D01*
X142481333Y-117288037D01*
X142481334Y-117288038D01*
X142478435Y-117289711D01*
X142475121Y-117291625D01*
X142443869Y-117300000D01*
X142000000Y-117300000D01*
X141315440Y-117740074D01*
X141281643Y-117750000D01*
X135762500Y-117750000D01*
X135718306Y-117731694D01*
X135700000Y-117687500D01*
X135700000Y-115566999D01*
X135718306Y-115522805D01*
X135762497Y-115504499D01*
X136340066Y-115504499D01*
X136414301Y-115489734D01*
X136454800Y-115462672D01*
X136501715Y-115453340D01*
X136517474Y-115458737D01*
G37*
%TD.AperFunction*%
%TD*%
%TA.AperFunction,Conductor*%
%TO.N,Net-(U3-SW2)*%
G36*
X143931694Y-121518306D02*
G01*
X143950000Y-121562500D01*
X143950000Y-130437500D01*
X143931694Y-130481694D01*
X143887500Y-130500000D01*
X142062500Y-130500000D01*
X142018306Y-130481694D01*
X142000000Y-130437500D01*
X142000000Y-124502598D01*
X142000216Y-124497408D01*
X142245224Y-121557310D01*
X142267137Y-121514788D01*
X142307508Y-121500000D01*
X143887500Y-121500000D01*
X143931694Y-121518306D01*
G37*
%TD.AperFunction*%
%TD*%
%TA.AperFunction,Conductor*%
%TO.N,VSS*%
G36*
X148381694Y-99372806D02*
G01*
X148400000Y-99417000D01*
X148400000Y-100183000D01*
X148381694Y-100227194D01*
X148337500Y-100245500D01*
X147804540Y-100245500D01*
X147799447Y-100246090D01*
X147779073Y-100248454D01*
X147674398Y-100294674D01*
X147649153Y-100300000D01*
X147162500Y-100300000D01*
X147118306Y-100281694D01*
X147100000Y-100237500D01*
X147100000Y-99550563D01*
X147118306Y-99506369D01*
X147162500Y-99488063D01*
X147180105Y-99490594D01*
X147210640Y-99499560D01*
X147227463Y-99504500D01*
X147227464Y-99504500D01*
X147372537Y-99504500D01*
X147372537Y-99504499D01*
X147511732Y-99463629D01*
X147633775Y-99385196D01*
X147641682Y-99376071D01*
X147684458Y-99354659D01*
X147688916Y-99354500D01*
X148337500Y-99354500D01*
X148381694Y-99372806D01*
G37*
%TD.AperFunction*%
%TD*%
%TA.AperFunction,Conductor*%
%TO.N,BAT+*%
G36*
X135181694Y-114618306D02*
G01*
X135200000Y-114662500D01*
X135200000Y-117437500D01*
X135181694Y-117481694D01*
X135137500Y-117500000D01*
X127362500Y-117500000D01*
X127318306Y-117481694D01*
X127300000Y-117437500D01*
X127300000Y-114662500D01*
X127318306Y-114618306D01*
X127362500Y-114600000D01*
X135137500Y-114600000D01*
X135181694Y-114618306D01*
G37*
%TD.AperFunction*%
%TD*%
%TA.AperFunction,Conductor*%
%TO.N,BAT-*%
G36*
X149081694Y-85418306D02*
G01*
X149100000Y-85462500D01*
X149100000Y-89937500D01*
X149081694Y-89981694D01*
X149037500Y-90000000D01*
X145562500Y-90000000D01*
X145518306Y-89981694D01*
X145500000Y-89937500D01*
X145500000Y-85462500D01*
X145518306Y-85418306D01*
X145562500Y-85400000D01*
X149037500Y-85400000D01*
X149081694Y-85418306D01*
G37*
%TD.AperFunction*%
%TD*%
%TA.AperFunction,Conductor*%
%TO.N,Net-(C37-Pad2)*%
G36*
X161381694Y-101677806D02*
G01*
X161400000Y-101722000D01*
X161400000Y-104237500D01*
X161381694Y-104281694D01*
X161337500Y-104300000D01*
X160062500Y-104300000D01*
X160018306Y-104281694D01*
X160000000Y-104237500D01*
X160000000Y-101722000D01*
X160018306Y-101677806D01*
X160062500Y-101659500D01*
X161337500Y-101659500D01*
X161381694Y-101677806D01*
G37*
%TD.AperFunction*%
%TD*%
%TA.AperFunction,Conductor*%
%TO.N,BAT+*%
G36*
X155000496Y-103901199D02*
G01*
X155026138Y-103906299D01*
X155031416Y-103907592D01*
X155032611Y-103907939D01*
X155032618Y-103907943D01*
X155034748Y-103908223D01*
X155035860Y-103908370D01*
X155039879Y-103909033D01*
X155092500Y-103919500D01*
X155401257Y-103919500D01*
X155426780Y-103924949D01*
X155731849Y-104061427D01*
X155783639Y-104078332D01*
X155795049Y-104080768D01*
X155809152Y-104083779D01*
X155809153Y-104083779D01*
X155809162Y-104083781D01*
X155863343Y-104089500D01*
X155863348Y-104089500D01*
X156536652Y-104089500D01*
X156536657Y-104089500D01*
X156590838Y-104083781D01*
X156604949Y-104080768D01*
X156651990Y-104089441D01*
X156679122Y-104128837D01*
X156680500Y-104141890D01*
X156680500Y-104262582D01*
X156687056Y-104312379D01*
X156687056Y-104312380D01*
X156687057Y-104312382D01*
X156694144Y-104327581D01*
X156700000Y-104353993D01*
X156700000Y-104700000D01*
X158874134Y-104700000D01*
X158912229Y-104715779D01*
X158913275Y-104714341D01*
X158917252Y-104717230D01*
X158917253Y-104717231D01*
X159030009Y-104774683D01*
X159123558Y-104789500D01*
X159123560Y-104789500D01*
X159476440Y-104789500D01*
X159476442Y-104789500D01*
X159569991Y-104774683D01*
X159682747Y-104717231D01*
X159682750Y-104717227D01*
X159686725Y-104714341D01*
X159687770Y-104715779D01*
X159725866Y-104700000D01*
X159799999Y-104700000D01*
X159800000Y-104700000D01*
X159890244Y-104564633D01*
X159929988Y-104538018D01*
X159954438Y-104538005D01*
X159963193Y-104539746D01*
X159963194Y-104539747D01*
X160062500Y-104559500D01*
X161337500Y-104559500D01*
X161337501Y-104559500D01*
X161436807Y-104539746D01*
X161481001Y-104521440D01*
X161565187Y-104465189D01*
X161590185Y-104427776D01*
X161629959Y-104401201D01*
X161642152Y-104400000D01*
X167837500Y-104400000D01*
X167881694Y-104418306D01*
X167900000Y-104462500D01*
X167900000Y-108637500D01*
X167881694Y-108681694D01*
X167837500Y-108700000D01*
X157050000Y-108700000D01*
X157001341Y-108764879D01*
X156830086Y-108993217D01*
X156788925Y-109017589D01*
X156770309Y-109017448D01*
X156726443Y-109010500D01*
X156726442Y-109010500D01*
X156373558Y-109010500D01*
X156373556Y-109010500D01*
X156373546Y-109010501D01*
X156280011Y-109025316D01*
X156280007Y-109025317D01*
X156167252Y-109082769D01*
X156163275Y-109085659D01*
X156162229Y-109084220D01*
X156124134Y-109100000D01*
X155100000Y-109100000D01*
X154218306Y-109981694D01*
X154174112Y-110000000D01*
X153162500Y-110000000D01*
X153118306Y-109981694D01*
X153100000Y-109937500D01*
X153100000Y-108962500D01*
X153118306Y-108918306D01*
X153162500Y-108900000D01*
X154199999Y-108900000D01*
X154200000Y-108900000D01*
X154425221Y-108764866D01*
X154428962Y-108762795D01*
X154490723Y-108731326D01*
X154499685Y-108722363D01*
X154511713Y-108712972D01*
X154685155Y-108608907D01*
X154717311Y-108600000D01*
X155800000Y-108600000D01*
X155854649Y-108508917D01*
X155876994Y-108486946D01*
X155882668Y-108483671D01*
X156248033Y-108118306D01*
X156292227Y-108100000D01*
X157050000Y-108100000D01*
X157050000Y-107718251D01*
X157056811Y-107689879D01*
X157079683Y-107644991D01*
X157094500Y-107551442D01*
X157094500Y-107178558D01*
X157079683Y-107085009D01*
X157068765Y-107063581D01*
X157056812Y-107040121D01*
X157050000Y-107011747D01*
X157050000Y-106900000D01*
X156975866Y-106900000D01*
X156937770Y-106884220D01*
X156936725Y-106885659D01*
X156932747Y-106882769D01*
X156819992Y-106825317D01*
X156819988Y-106825316D01*
X156726453Y-106810501D01*
X156726443Y-106810500D01*
X156726442Y-106810500D01*
X156373558Y-106810500D01*
X156373556Y-106810500D01*
X156373546Y-106810501D01*
X156280011Y-106825316D01*
X156280007Y-106825317D01*
X156167252Y-106882769D01*
X156163275Y-106885659D01*
X156162229Y-106884220D01*
X156124134Y-106900000D01*
X156112500Y-106900000D01*
X156068306Y-106881694D01*
X156050000Y-106837500D01*
X156050000Y-105600000D01*
X155265168Y-105600000D01*
X155255392Y-105599231D01*
X155231837Y-105595500D01*
X155231834Y-105595500D01*
X154868166Y-105595500D01*
X154868155Y-105595500D01*
X154867391Y-105595560D01*
X154867206Y-105595500D01*
X154865710Y-105595500D01*
X154865710Y-105595013D01*
X154821900Y-105580769D01*
X154800192Y-105538143D01*
X154800000Y-105533252D01*
X154800000Y-103962500D01*
X154818306Y-103918306D01*
X154862500Y-103900000D01*
X154988311Y-103900000D01*
X155000496Y-103901199D01*
G37*
%TD.AperFunction*%
%TD*%
%TA.AperFunction,Conductor*%
%TO.N,/Battery Manager/VC1*%
G36*
X150627194Y-97818306D02*
G01*
X150645500Y-97862500D01*
X150645500Y-98337500D01*
X150627194Y-98381694D01*
X150583000Y-98400000D01*
X149817000Y-98400000D01*
X149772806Y-98381694D01*
X149754500Y-98337500D01*
X149754500Y-97862500D01*
X149772806Y-97818306D01*
X149817000Y-97800000D01*
X150583000Y-97800000D01*
X150627194Y-97818306D01*
G37*
%TD.AperFunction*%
%TD*%
%TA.AperFunction,Conductor*%
%TO.N,/Battery Charger/SYS*%
G36*
X142070761Y-118602532D02*
G01*
X142077463Y-118604500D01*
X142077464Y-118604500D01*
X142222536Y-118604500D01*
X142229239Y-118602532D01*
X142246848Y-118600000D01*
X143337500Y-118600000D01*
X143381694Y-118618306D01*
X143400000Y-118662500D01*
X143400000Y-120103839D01*
X143381694Y-120148033D01*
X143355880Y-120163575D01*
X141458983Y-120747236D01*
X141440603Y-120750000D01*
X129662500Y-120750000D01*
X129618306Y-120731694D01*
X129600000Y-120687500D01*
X129600000Y-118662500D01*
X129618306Y-118618306D01*
X129662500Y-118600000D01*
X142053152Y-118600000D01*
X142070761Y-118602532D01*
G37*
%TD.AperFunction*%
%TD*%
%TA.AperFunction,Conductor*%
%TO.N,VBUS*%
G36*
X158681694Y-115618306D02*
G01*
X158700000Y-115662500D01*
X158700000Y-115960534D01*
X158690790Y-115993190D01*
X158652843Y-116055115D01*
X158651115Y-116057935D01*
X158559516Y-116279077D01*
X158552959Y-116294906D01*
X158493084Y-116544304D01*
X158493083Y-116544308D01*
X158472961Y-116799995D01*
X158472961Y-116800004D01*
X158493083Y-117055691D01*
X158493084Y-117055695D01*
X158551288Y-117298134D01*
X158552961Y-117305100D01*
X158651115Y-117542065D01*
X158690790Y-117606809D01*
X158700000Y-117639464D01*
X158700000Y-119537500D01*
X158681694Y-119581694D01*
X158637500Y-119600000D01*
X156462500Y-119600000D01*
X156418306Y-119581694D01*
X156400000Y-119537500D01*
X156400000Y-117900000D01*
X148229330Y-117900000D01*
X148185136Y-117881694D01*
X148181885Y-117877662D01*
X148181704Y-117877820D01*
X148165265Y-117858848D01*
X148150000Y-117817920D01*
X148150000Y-117700000D01*
X147400000Y-117299999D01*
X147392536Y-117298134D01*
X147392952Y-117296468D01*
X147374883Y-117291627D01*
X147336834Y-117269660D01*
X147336829Y-117269658D01*
X147246676Y-117245500D01*
X147246671Y-117245500D01*
X147203837Y-117245500D01*
X147197712Y-117245199D01*
X147196294Y-117245059D01*
X147150000Y-117240500D01*
X146662500Y-117240500D01*
X146618306Y-117222194D01*
X146600000Y-117178000D01*
X146600000Y-116817000D01*
X146618306Y-116772806D01*
X146662500Y-116754500D01*
X147722669Y-116754500D01*
X147722674Y-116754499D01*
X147749458Y-116747321D01*
X147812830Y-116730341D01*
X147893666Y-116683671D01*
X148016532Y-116560805D01*
X148060726Y-116542499D01*
X148110536Y-116542499D01*
X148110536Y-116542498D01*
X148249731Y-116501628D01*
X148295534Y-116472191D01*
X148371772Y-116423197D01*
X148459832Y-116321571D01*
X148502607Y-116300159D01*
X148507066Y-116300000D01*
X149600000Y-116300000D01*
X151690379Y-115603207D01*
X151710143Y-115600000D01*
X158637500Y-115600000D01*
X158681694Y-115618306D01*
G37*
%TD.AperFunction*%
%TD*%
%TA.AperFunction,Conductor*%
%TO.N,GND*%
G36*
X163528007Y-88116965D02*
G01*
X163554097Y-88136496D01*
X163554098Y-88136496D01*
X163554099Y-88136497D01*
X163617715Y-88160224D01*
X163681334Y-88183953D01*
X163717659Y-88187858D01*
X163759644Y-88210783D01*
X163773121Y-88256680D01*
X163750196Y-88298665D01*
X163717660Y-88312142D01*
X163681333Y-88316047D01*
X163681329Y-88316048D01*
X163554099Y-88363502D01*
X163554095Y-88363505D01*
X163445385Y-88444885D01*
X163364005Y-88553595D01*
X163364002Y-88553599D01*
X163316547Y-88680832D01*
X163310500Y-88737073D01*
X163310500Y-89262910D01*
X163310501Y-89262927D01*
X163316547Y-89319165D01*
X163316548Y-89319170D01*
X163364002Y-89446400D01*
X163364003Y-89446402D01*
X163364004Y-89446403D01*
X163433034Y-89538616D01*
X163445500Y-89576070D01*
X163445500Y-90423928D01*
X163433034Y-90461383D01*
X163364005Y-90553595D01*
X163364002Y-90553599D01*
X163316547Y-90680832D01*
X163310500Y-90737073D01*
X163310500Y-91262910D01*
X163310501Y-91262927D01*
X163316547Y-91319165D01*
X163316548Y-91319170D01*
X163364002Y-91446400D01*
X163364003Y-91446402D01*
X163364004Y-91446403D01*
X163445385Y-91555115D01*
X163554097Y-91636496D01*
X163554098Y-91636496D01*
X163554099Y-91636497D01*
X163607649Y-91656470D01*
X163681334Y-91683953D01*
X163717659Y-91687858D01*
X163759644Y-91710783D01*
X163773121Y-91756680D01*
X163750196Y-91798665D01*
X163717660Y-91812142D01*
X163681333Y-91816047D01*
X163681329Y-91816048D01*
X163554099Y-91863502D01*
X163554095Y-91863505D01*
X163445385Y-91944885D01*
X163364005Y-92053595D01*
X163364002Y-92053599D01*
X163316547Y-92180832D01*
X163310500Y-92237073D01*
X163310500Y-92358719D01*
X163292194Y-92402913D01*
X159228828Y-96466280D01*
X159116284Y-96578822D01*
X159116281Y-96578826D01*
X159036695Y-96716672D01*
X159036694Y-96716676D01*
X158995501Y-96870409D01*
X158995500Y-96870417D01*
X158995500Y-97522563D01*
X158977194Y-97566757D01*
X158933000Y-97585063D01*
X158888806Y-97566757D01*
X158840723Y-97518674D01*
X158726555Y-97460502D01*
X158631835Y-97445500D01*
X158631834Y-97445500D01*
X158168166Y-97445500D01*
X158168164Y-97445500D01*
X158073444Y-97460502D01*
X158073443Y-97460502D01*
X157959276Y-97518674D01*
X157868673Y-97609277D01*
X157867606Y-97611373D01*
X157866404Y-97612399D01*
X157865779Y-97613260D01*
X157865572Y-97613109D01*
X157831232Y-97642440D01*
X157811917Y-97645500D01*
X157572727Y-97645500D01*
X157528533Y-97627194D01*
X157317668Y-97416329D01*
X157289383Y-97399999D01*
X157236832Y-97369659D01*
X157236829Y-97369658D01*
X157146676Y-97345500D01*
X157146671Y-97345500D01*
X157059675Y-97345500D01*
X157015481Y-97327194D01*
X156997175Y-97283000D01*
X156997945Y-97273222D01*
X157004498Y-97231845D01*
X157004500Y-97231831D01*
X157004500Y-96868168D01*
X157004500Y-96868166D01*
X156989498Y-96773445D01*
X156931326Y-96659277D01*
X156840723Y-96568674D01*
X156777818Y-96536622D01*
X156726556Y-96510502D01*
X156726550Y-96510501D01*
X156697221Y-96505855D01*
X156656436Y-96480860D01*
X156644500Y-96444125D01*
X156644500Y-95415760D01*
X156662806Y-95371566D01*
X156695889Y-95338483D01*
X156748588Y-95285784D01*
X156804961Y-95175145D01*
X156819500Y-95083349D01*
X156819499Y-94716652D01*
X156804961Y-94624855D01*
X156748588Y-94514216D01*
X156660784Y-94426412D01*
X156660783Y-94426411D01*
X156550149Y-94370040D01*
X156550139Y-94370037D01*
X156458362Y-94355501D01*
X156458350Y-94355500D01*
X156458349Y-94355500D01*
X156458347Y-94355500D01*
X156121655Y-94355500D01*
X156121650Y-94355501D01*
X156029853Y-94370039D01*
X155919216Y-94426411D01*
X155831411Y-94514216D01*
X155775040Y-94624850D01*
X155775037Y-94624860D01*
X155760501Y-94716637D01*
X155760500Y-94716652D01*
X155760500Y-95083344D01*
X155760501Y-95083349D01*
X155775039Y-95175146D01*
X155831411Y-95285783D01*
X155917194Y-95371566D01*
X155935500Y-95415760D01*
X155935500Y-96566563D01*
X155917194Y-96610757D01*
X155868674Y-96659276D01*
X155810502Y-96773443D01*
X155810502Y-96773444D01*
X155795500Y-96868164D01*
X155795500Y-97231831D01*
X155795501Y-97231845D01*
X155802055Y-97273222D01*
X155790889Y-97319736D01*
X155750103Y-97344730D01*
X155740325Y-97345500D01*
X154553323Y-97345500D01*
X154463170Y-97369658D01*
X154463164Y-97369660D01*
X154410614Y-97399999D01*
X154410615Y-97400000D01*
X154382331Y-97416329D01*
X154010737Y-97787922D01*
X153966543Y-97806228D01*
X153922349Y-97787922D01*
X153904043Y-97743728D01*
X153904678Y-97734844D01*
X153909688Y-97700000D01*
X153889042Y-97556404D01*
X153828777Y-97424442D01*
X153828774Y-97424438D01*
X153733773Y-97314801D01*
X153611736Y-97236373D01*
X153611727Y-97236369D01*
X153472538Y-97195500D01*
X153472536Y-97195500D01*
X153402500Y-97195500D01*
X153358306Y-97177194D01*
X153340000Y-97133000D01*
X153339999Y-96787226D01*
X153358304Y-96743033D01*
X153378533Y-96722805D01*
X153422726Y-96704500D01*
X153472537Y-96704500D01*
X153472537Y-96704499D01*
X153611732Y-96663629D01*
X153657535Y-96634192D01*
X153733773Y-96585198D01*
X153739293Y-96578828D01*
X153828777Y-96475558D01*
X153889042Y-96343596D01*
X153909688Y-96200000D01*
X153889042Y-96056404D01*
X153851624Y-95974471D01*
X153849917Y-95926670D01*
X153882513Y-95891659D01*
X153886614Y-95889960D01*
X153895903Y-95886496D01*
X154004615Y-95805115D01*
X154085996Y-95696403D01*
X154133453Y-95569166D01*
X154139500Y-95512919D01*
X154139499Y-95400982D01*
X154157804Y-95356789D01*
X154201998Y-95338483D01*
X154221457Y-95342050D01*
X154221467Y-95342010D01*
X154222129Y-95342173D01*
X154224168Y-95342547D01*
X154225132Y-95342912D01*
X154225137Y-95342915D01*
X154373565Y-95379500D01*
X154526435Y-95379500D01*
X154674863Y-95342915D01*
X154810223Y-95271873D01*
X154924648Y-95170501D01*
X155011488Y-95044692D01*
X155065697Y-94901756D01*
X155065698Y-94901752D01*
X155084123Y-94750002D01*
X155084123Y-94749997D01*
X155065698Y-94598247D01*
X155065697Y-94598243D01*
X155025932Y-94493395D01*
X155011488Y-94455308D01*
X154984875Y-94416752D01*
X154974836Y-94369981D01*
X155000808Y-94329811D01*
X155007252Y-94325915D01*
X155110223Y-94271873D01*
X155224648Y-94170501D01*
X155311488Y-94044692D01*
X155365697Y-93901756D01*
X155365698Y-93901752D01*
X155384123Y-93750002D01*
X155384123Y-93749997D01*
X155365698Y-93598247D01*
X155365697Y-93598243D01*
X155311488Y-93455308D01*
X155224650Y-93329501D01*
X155224646Y-93329497D01*
X155110222Y-93228126D01*
X154974865Y-93157086D01*
X154974864Y-93157085D01*
X154974863Y-93157085D01*
X154835791Y-93122806D01*
X154826436Y-93120500D01*
X154826435Y-93120500D01*
X154673565Y-93120500D01*
X154673563Y-93120500D01*
X154576457Y-93144435D01*
X154525137Y-93157085D01*
X154525136Y-93157085D01*
X154525134Y-93157086D01*
X154389777Y-93228126D01*
X154313780Y-93295455D01*
X154304590Y-93303597D01*
X154303252Y-93304782D01*
X154261807Y-93320500D01*
X154129934Y-93320500D01*
X154085740Y-93302194D01*
X154079907Y-93295463D01*
X154004615Y-93194885D01*
X153895903Y-93113504D01*
X153895902Y-93113503D01*
X153895900Y-93113502D01*
X153768667Y-93066047D01*
X153712419Y-93060000D01*
X153087589Y-93060000D01*
X153087572Y-93060001D01*
X153031334Y-93066047D01*
X153031329Y-93066048D01*
X152904099Y-93113502D01*
X152904095Y-93113505D01*
X152795385Y-93194885D01*
X152714005Y-93303595D01*
X152714002Y-93303599D01*
X152666547Y-93430832D01*
X152660500Y-93487073D01*
X152660500Y-93506207D01*
X152642194Y-93550401D01*
X151639225Y-94553369D01*
X151595031Y-94571675D01*
X151573187Y-94567733D01*
X151568668Y-94566047D01*
X151512419Y-94560000D01*
X150887589Y-94560000D01*
X150887572Y-94560001D01*
X150831334Y-94566047D01*
X150831329Y-94566048D01*
X150704099Y-94613502D01*
X150704095Y-94613505D01*
X150595385Y-94694885D01*
X150514005Y-94803595D01*
X150514002Y-94803599D01*
X150466547Y-94930832D01*
X150460500Y-94987073D01*
X150460500Y-95512910D01*
X150460501Y-95512927D01*
X150466547Y-95569165D01*
X150466548Y-95569170D01*
X150514002Y-95696400D01*
X150514003Y-95696402D01*
X150514004Y-95696403D01*
X150595385Y-95805115D01*
X150704097Y-95886496D01*
X150729842Y-95896098D01*
X150764852Y-95928693D01*
X150770500Y-95954657D01*
X150770500Y-96346206D01*
X150752194Y-96390400D01*
X150546693Y-96595901D01*
X150502499Y-96614207D01*
X150458305Y-96595901D01*
X150439999Y-96551707D01*
X150439999Y-96387588D01*
X150439998Y-96387572D01*
X150438334Y-96372095D01*
X150433953Y-96331334D01*
X150417476Y-96287158D01*
X150386497Y-96204099D01*
X150386496Y-96204098D01*
X150386496Y-96204097D01*
X150305115Y-96095385D01*
X150305110Y-96095381D01*
X150279544Y-96076241D01*
X150255136Y-96035101D01*
X150254500Y-96026208D01*
X150254500Y-95509420D01*
X150261312Y-95481045D01*
X150279683Y-95444991D01*
X150294500Y-95351442D01*
X150294500Y-94978558D01*
X150279683Y-94885009D01*
X150222231Y-94772253D01*
X150171369Y-94721391D01*
X150153063Y-94677197D01*
X150171369Y-94633003D01*
X150190870Y-94613502D01*
X150223588Y-94580784D01*
X150279961Y-94470145D01*
X150279962Y-94470139D01*
X150294498Y-94378362D01*
X150294498Y-94378361D01*
X150294500Y-94378349D01*
X150294499Y-94041652D01*
X150279961Y-93949855D01*
X150279959Y-93949851D01*
X150261312Y-93913252D01*
X150254500Y-93884879D01*
X150254500Y-91053599D01*
X150272806Y-91009405D01*
X150317000Y-90991099D01*
X150361194Y-91009405D01*
X150376328Y-91033940D01*
X150387192Y-91066728D01*
X150480705Y-91218336D01*
X150480706Y-91218337D01*
X150606663Y-91344294D01*
X150758273Y-91437808D01*
X150927361Y-91493837D01*
X150927362Y-91493837D01*
X150927365Y-91493838D01*
X151004157Y-91501683D01*
X151031730Y-91504500D01*
X151031732Y-91504500D01*
X153418268Y-91504500D01*
X153418270Y-91504500D01*
X153456680Y-91500575D01*
X153522634Y-91493838D01*
X153522636Y-91493837D01*
X153522639Y-91493837D01*
X153691727Y-91437808D01*
X153843337Y-91344294D01*
X153969294Y-91218337D01*
X154062808Y-91066727D01*
X154118837Y-90897639D01*
X154119040Y-90895650D01*
X154119410Y-90894963D01*
X154119553Y-90894299D01*
X154119746Y-90894340D01*
X154141741Y-90853545D01*
X154181217Y-90839500D01*
X160044582Y-90839500D01*
X160044583Y-90839500D01*
X160044584Y-90839500D01*
X160198328Y-90798304D01*
X160336172Y-90718720D01*
X160448720Y-90606172D01*
X162932086Y-88122806D01*
X162976280Y-88104500D01*
X163490553Y-88104500D01*
X163528007Y-88116965D01*
G37*
%TD.AperFunction*%
%TA.AperFunction,Conductor*%
G36*
X175502044Y-82881634D02*
G01*
X175772432Y-82899356D01*
X175780536Y-82900422D01*
X176044301Y-82952888D01*
X176052176Y-82954999D01*
X176276985Y-83031311D01*
X176306832Y-83041443D01*
X176314385Y-83044571D01*
X176555578Y-83163514D01*
X176562658Y-83167602D01*
X176786255Y-83317005D01*
X176792740Y-83321981D01*
X176994933Y-83499299D01*
X177000700Y-83505066D01*
X177168507Y-83696414D01*
X177178017Y-83707258D01*
X177182994Y-83713744D01*
X177332397Y-83937341D01*
X177336485Y-83944421D01*
X177455428Y-84185614D01*
X177458556Y-84193167D01*
X177544997Y-84447812D01*
X177547113Y-84455709D01*
X177599576Y-84719462D01*
X177600643Y-84727567D01*
X177618366Y-84997955D01*
X177618500Y-85002043D01*
X177618500Y-129997956D01*
X177618366Y-130002044D01*
X177600643Y-130272432D01*
X177599576Y-130280537D01*
X177547113Y-130544290D01*
X177544997Y-130552187D01*
X177458556Y-130806832D01*
X177455428Y-130814385D01*
X177336485Y-131055578D01*
X177332397Y-131062658D01*
X177182994Y-131286255D01*
X177178017Y-131292741D01*
X177000707Y-131494926D01*
X176994926Y-131500707D01*
X176792741Y-131678017D01*
X176786255Y-131682994D01*
X176562658Y-131832397D01*
X176555578Y-131836485D01*
X176314385Y-131955428D01*
X176306832Y-131958556D01*
X176052187Y-132044997D01*
X176044290Y-132047113D01*
X175780537Y-132099576D01*
X175772432Y-132100643D01*
X175502044Y-132118366D01*
X175497956Y-132118500D01*
X125562500Y-132118500D01*
X125518306Y-132100194D01*
X125500000Y-132056000D01*
X125500000Y-130437500D01*
X141740499Y-130437500D01*
X141760253Y-130536806D01*
X141773197Y-130568053D01*
X141778560Y-130581001D01*
X141806685Y-130623094D01*
X141834810Y-130665186D01*
X141834813Y-130665189D01*
X141876905Y-130693313D01*
X141918999Y-130721440D01*
X141960365Y-130738574D01*
X141962588Y-130739626D01*
X141963193Y-130739746D01*
X141963194Y-130739747D01*
X142062500Y-130759500D01*
X143887500Y-130759500D01*
X143887501Y-130759500D01*
X143986807Y-130739746D01*
X144031001Y-130721440D01*
X144115187Y-130665189D01*
X144171440Y-130581001D01*
X144188578Y-130539626D01*
X144189626Y-130537409D01*
X144189746Y-130536807D01*
X144189747Y-130536806D01*
X144209500Y-130437500D01*
X145790499Y-130437500D01*
X145810253Y-130536806D01*
X145823197Y-130568053D01*
X145828560Y-130581001D01*
X145856685Y-130623094D01*
X145884810Y-130665186D01*
X145884813Y-130665189D01*
X145926905Y-130693313D01*
X145968999Y-130721440D01*
X146010365Y-130738574D01*
X146012588Y-130739626D01*
X146013193Y-130739746D01*
X146013194Y-130739747D01*
X146112500Y-130759500D01*
X147937500Y-130759500D01*
X147937501Y-130759500D01*
X148036807Y-130739746D01*
X148081001Y-130721440D01*
X148165187Y-130665189D01*
X148221440Y-130581001D01*
X148238578Y-130539626D01*
X148239626Y-130537409D01*
X148239746Y-130536807D01*
X148239747Y-130536806D01*
X148259500Y-130437500D01*
X148259500Y-125999997D01*
X149665877Y-125999997D01*
X149665877Y-126000000D01*
X149684301Y-126151752D01*
X149684302Y-126151756D01*
X149738511Y-126294691D01*
X149825349Y-126420498D01*
X149825353Y-126420502D01*
X149863728Y-126454499D01*
X149939777Y-126521873D01*
X150075137Y-126592915D01*
X150223565Y-126629500D01*
X150376435Y-126629500D01*
X150524863Y-126592915D01*
X150537495Y-126586284D01*
X150585131Y-126581953D01*
X150610736Y-126597430D01*
X151202194Y-127188888D01*
X151220500Y-127233082D01*
X151220500Y-127866445D01*
X151220501Y-127866462D01*
X151230719Y-127951546D01*
X151284115Y-128086950D01*
X151284118Y-128086955D01*
X151319756Y-128133951D01*
X151372067Y-128202933D01*
X151463032Y-128271913D01*
X151488044Y-128290881D01*
X151488049Y-128290884D01*
X151555751Y-128317582D01*
X151623455Y-128344281D01*
X151708548Y-128354500D01*
X151708555Y-128354500D01*
X152491445Y-128354500D01*
X152491452Y-128354500D01*
X152576545Y-128344281D01*
X152711953Y-128290883D01*
X152827933Y-128202933D01*
X152915883Y-128086953D01*
X152969281Y-127951545D01*
X152979500Y-127866452D01*
X152979500Y-127233548D01*
X152969281Y-127148455D01*
X152915883Y-127013047D01*
X152827933Y-126897067D01*
X152758951Y-126844756D01*
X152711955Y-126809118D01*
X152711950Y-126809115D01*
X152576546Y-126755719D01*
X152491462Y-126745501D01*
X152491458Y-126745500D01*
X152491452Y-126745500D01*
X152491445Y-126745500D01*
X151858082Y-126745500D01*
X151813888Y-126727194D01*
X151646151Y-126559457D01*
X151627845Y-126515263D01*
X151646151Y-126471069D01*
X151690345Y-126452763D01*
X151697798Y-126453209D01*
X151708539Y-126454499D01*
X151708540Y-126454499D01*
X151708548Y-126454500D01*
X151708555Y-126454500D01*
X152491445Y-126454500D01*
X152491452Y-126454500D01*
X152576545Y-126444281D01*
X152711953Y-126390883D01*
X152827933Y-126302933D01*
X152915883Y-126186953D01*
X152948080Y-126105308D01*
X152966313Y-126059072D01*
X152999555Y-126024674D01*
X153024455Y-126019500D01*
X153769981Y-126019500D01*
X153814175Y-126037806D01*
X153825669Y-126053626D01*
X153827769Y-126057747D01*
X153917253Y-126147231D01*
X154030009Y-126204683D01*
X154123558Y-126219500D01*
X154123560Y-126219500D01*
X154476440Y-126219500D01*
X154476442Y-126219500D01*
X154569991Y-126204683D01*
X154682747Y-126147231D01*
X154772231Y-126057747D01*
X154829683Y-125944991D01*
X154844500Y-125851442D01*
X154844500Y-125478558D01*
X154829683Y-125385009D01*
X154772231Y-125272253D01*
X154721369Y-125221391D01*
X154703063Y-125177197D01*
X154721369Y-125133003D01*
X154741328Y-125113044D01*
X154773588Y-125080784D01*
X154829961Y-124970145D01*
X154844500Y-124878349D01*
X154844499Y-124541652D01*
X154829961Y-124449855D01*
X154773588Y-124339216D01*
X154685784Y-124251412D01*
X154685783Y-124251411D01*
X154575149Y-124195040D01*
X154575139Y-124195037D01*
X154483362Y-124180501D01*
X154483350Y-124180500D01*
X154483349Y-124180500D01*
X154483347Y-124180500D01*
X154116655Y-124180500D01*
X154116650Y-124180501D01*
X154024853Y-124195039D01*
X153914216Y-124251411D01*
X153828434Y-124337194D01*
X153784240Y-124355500D01*
X153428795Y-124355500D01*
X153384601Y-124337194D01*
X153371943Y-124318963D01*
X153328777Y-124224442D01*
X153303300Y-124195040D01*
X153233773Y-124114801D01*
X153111736Y-124036373D01*
X153111727Y-124036369D01*
X152972538Y-123995500D01*
X152972536Y-123995500D01*
X152827464Y-123995500D01*
X152827462Y-123995500D01*
X152688272Y-124036369D01*
X152688263Y-124036373D01*
X152566226Y-124114801D01*
X152471225Y-124224438D01*
X152471222Y-124224443D01*
X152410958Y-124356402D01*
X152410957Y-124356405D01*
X152390312Y-124500000D01*
X152410957Y-124643594D01*
X152410958Y-124643597D01*
X152462764Y-124757037D01*
X152464471Y-124804842D01*
X152431875Y-124839852D01*
X152405912Y-124845500D01*
X151708548Y-124845500D01*
X151708541Y-124845500D01*
X151708537Y-124845501D01*
X151623453Y-124855719D01*
X151488049Y-124909115D01*
X151488044Y-124909118D01*
X151372067Y-124997067D01*
X151284118Y-125113044D01*
X151284115Y-125113049D01*
X151230719Y-125248453D01*
X151220501Y-125333537D01*
X151220500Y-125333554D01*
X151220500Y-125966453D01*
X151221791Y-125977205D01*
X151208882Y-126023266D01*
X151167185Y-126046709D01*
X151121124Y-126033800D01*
X151115542Y-126028848D01*
X150913427Y-125826733D01*
X150899184Y-125804704D01*
X150861488Y-125705308D01*
X150861487Y-125705306D01*
X150774650Y-125579501D01*
X150774646Y-125579497D01*
X150660222Y-125478126D01*
X150524865Y-125407086D01*
X150524864Y-125407085D01*
X150524863Y-125407085D01*
X150424988Y-125382467D01*
X150376436Y-125370500D01*
X150376435Y-125370500D01*
X150223565Y-125370500D01*
X150223563Y-125370500D01*
X150126457Y-125394435D01*
X150075137Y-125407085D01*
X150075136Y-125407085D01*
X150075134Y-125407086D01*
X149939777Y-125478126D01*
X149825353Y-125579497D01*
X149825349Y-125579501D01*
X149738511Y-125705308D01*
X149684302Y-125848243D01*
X149684301Y-125848247D01*
X149665877Y-125999997D01*
X148259500Y-125999997D01*
X148259500Y-124502598D01*
X148259276Y-124491807D01*
X148259060Y-124486617D01*
X148258388Y-124475858D01*
X148018878Y-121601737D01*
X156345500Y-121601737D01*
X156345500Y-122198246D01*
X156345501Y-122198263D01*
X156351960Y-122258343D01*
X156402656Y-122394263D01*
X156402657Y-122394265D01*
X156402658Y-122394267D01*
X156489596Y-122510404D01*
X156605733Y-122597342D01*
X156741658Y-122648040D01*
X156801745Y-122654500D01*
X156858000Y-122654499D01*
X156902193Y-122672804D01*
X156920500Y-122716998D01*
X156920500Y-124462001D01*
X156944691Y-124583619D01*
X156944693Y-124583626D01*
X156992144Y-124698181D01*
X156992146Y-124698184D01*
X157005161Y-124717663D01*
X157005165Y-124717668D01*
X157061034Y-124801282D01*
X157150895Y-124891143D01*
X157150905Y-124891152D01*
X158159452Y-125899699D01*
X158159481Y-125899730D01*
X158204740Y-125944988D01*
X158248717Y-125988965D01*
X158294416Y-126019500D01*
X158351819Y-126057856D01*
X158417005Y-126084857D01*
X158466373Y-126105306D01*
X158466375Y-126105306D01*
X158466381Y-126105309D01*
X158588000Y-126129500D01*
X158712001Y-126129500D01*
X158983000Y-126129500D01*
X159027194Y-126147806D01*
X159045500Y-126192000D01*
X159045500Y-126848728D01*
X159045501Y-126848744D01*
X159076389Y-127043760D01*
X159076389Y-127043761D01*
X159137409Y-127231562D01*
X159137410Y-127231564D01*
X159227056Y-127407502D01*
X159343122Y-127567254D01*
X159482745Y-127706877D01*
X159642497Y-127822943D01*
X159642499Y-127822944D01*
X159818439Y-127912591D01*
X160006237Y-127973610D01*
X160088437Y-127986629D01*
X160201255Y-128004498D01*
X160201261Y-128004498D01*
X160201269Y-128004500D01*
X160201271Y-128004500D01*
X160398729Y-128004500D01*
X160398731Y-128004500D01*
X160593763Y-127973610D01*
X160781561Y-127912591D01*
X160957501Y-127822944D01*
X161117252Y-127706879D01*
X161256879Y-127567252D01*
X161372944Y-127407501D01*
X161462591Y-127231561D01*
X161523610Y-127043763D01*
X161554500Y-126848731D01*
X161554500Y-124151269D01*
X161551440Y-124131949D01*
X164800000Y-124131949D01*
X164800000Y-125000000D01*
X165800000Y-125000000D01*
X165800000Y-126000000D01*
X164800000Y-126000000D01*
X164800000Y-126868050D01*
X164800001Y-126868066D01*
X164836934Y-127101248D01*
X164836934Y-127101249D01*
X164909895Y-127325798D01*
X164909899Y-127325806D01*
X165017084Y-127536168D01*
X165155870Y-127727191D01*
X165322808Y-127894129D01*
X165513831Y-128032915D01*
X165724193Y-128140100D01*
X165724201Y-128140104D01*
X165800000Y-128164733D01*
X165800000Y-126815826D01*
X165834075Y-126942993D01*
X165899901Y-127057007D01*
X165992993Y-127150099D01*
X166107007Y-127215925D01*
X166234174Y-127250000D01*
X166365826Y-127250000D01*
X166492993Y-127215925D01*
X166607007Y-127150099D01*
X166700099Y-127057007D01*
X166765925Y-126942993D01*
X166800000Y-126815826D01*
X166800000Y-128164732D01*
X166875798Y-128140104D01*
X166875806Y-128140100D01*
X167086168Y-128032915D01*
X167277191Y-127894129D01*
X167444129Y-127727191D01*
X167582915Y-127536168D01*
X167690100Y-127325806D01*
X167690104Y-127325798D01*
X167763065Y-127101249D01*
X167763065Y-127101248D01*
X167799998Y-126868066D01*
X167800000Y-126868050D01*
X167800000Y-126000000D01*
X166800000Y-126000000D01*
X166800000Y-125000000D01*
X167800000Y-125000000D01*
X167800000Y-124131949D01*
X167799998Y-124131933D01*
X167763065Y-123898751D01*
X167763065Y-123898750D01*
X167690104Y-123674201D01*
X167690100Y-123674193D01*
X167582915Y-123463831D01*
X167444129Y-123272808D01*
X167277191Y-123105870D01*
X167086168Y-122967084D01*
X166875807Y-122859899D01*
X166875798Y-122859895D01*
X166800000Y-122835266D01*
X166800000Y-124184174D01*
X166765925Y-124057007D01*
X166700099Y-123942993D01*
X166607007Y-123849901D01*
X166492993Y-123784075D01*
X166365826Y-123750000D01*
X166234174Y-123750000D01*
X166107007Y-123784075D01*
X165992993Y-123849901D01*
X165899901Y-123942993D01*
X165834075Y-124057007D01*
X165800000Y-124184174D01*
X165800000Y-122835266D01*
X165724201Y-122859895D01*
X165724192Y-122859899D01*
X165513831Y-122967084D01*
X165322808Y-123105870D01*
X165155870Y-123272808D01*
X165017084Y-123463831D01*
X164909899Y-123674193D01*
X164909895Y-123674201D01*
X164836934Y-123898750D01*
X164836934Y-123898751D01*
X164800001Y-124131933D01*
X164800000Y-124131949D01*
X161551440Y-124131949D01*
X161551437Y-124131933D01*
X161536302Y-124036369D01*
X161523610Y-123956237D01*
X161462591Y-123768439D01*
X161372944Y-123592499D01*
X161256879Y-123432748D01*
X161256877Y-123432745D01*
X161117254Y-123293122D01*
X160957502Y-123177056D01*
X160781564Y-123087410D01*
X160781562Y-123087409D01*
X160593761Y-123026389D01*
X160398744Y-122995501D01*
X160398732Y-122995500D01*
X160398731Y-122995500D01*
X160201269Y-122995500D01*
X160201267Y-122995500D01*
X160201255Y-122995501D01*
X160006239Y-123026389D01*
X160006238Y-123026389D01*
X159818437Y-123087409D01*
X159818435Y-123087410D01*
X159642497Y-123177056D01*
X159482745Y-123293122D01*
X159343122Y-123432745D01*
X159227056Y-123592497D01*
X159137410Y-123768435D01*
X159137409Y-123768437D01*
X159076389Y-123956238D01*
X159076389Y-123956239D01*
X159045501Y-124151255D01*
X159045500Y-124151271D01*
X159045500Y-124808000D01*
X159027194Y-124852194D01*
X158983000Y-124870500D01*
X158936635Y-124870500D01*
X158892441Y-124852194D01*
X158197806Y-124157559D01*
X158179500Y-124113365D01*
X158179500Y-122716999D01*
X158197806Y-122672805D01*
X158242000Y-122654499D01*
X158298247Y-122654499D01*
X158298254Y-122654499D01*
X158358342Y-122648040D01*
X158494267Y-122597342D01*
X158610404Y-122510404D01*
X158697342Y-122394267D01*
X158748040Y-122258342D01*
X158754500Y-122198255D01*
X158754499Y-121601746D01*
X158748040Y-121541658D01*
X158697342Y-121405733D01*
X158610404Y-121289596D01*
X158494267Y-121202658D01*
X158494265Y-121202657D01*
X158494263Y-121202656D01*
X158358343Y-121151960D01*
X158298255Y-121145500D01*
X156801753Y-121145500D01*
X156801736Y-121145501D01*
X156741656Y-121151960D01*
X156605736Y-121202656D01*
X156605731Y-121202659D01*
X156489596Y-121289596D01*
X156402659Y-121405731D01*
X156402656Y-121405736D01*
X156351960Y-121541656D01*
X156345500Y-121601737D01*
X148018878Y-121601737D01*
X148013380Y-121535760D01*
X147994177Y-121463194D01*
X147990188Y-121448121D01*
X147972102Y-121409128D01*
X147972099Y-121409123D01*
X147972099Y-121409122D01*
X147920181Y-121334813D01*
X147920178Y-121334811D01*
X147835994Y-121278561D01*
X147835990Y-121278558D01*
X147794641Y-121261431D01*
X147792406Y-121260374D01*
X147772100Y-121256335D01*
X147692492Y-121240500D01*
X146112499Y-121240500D01*
X146096023Y-121243777D01*
X146013193Y-121260253D01*
X145969001Y-121278559D01*
X145968997Y-121278561D01*
X145884813Y-121334810D01*
X145884810Y-121334813D01*
X145828561Y-121418997D01*
X145828560Y-121418998D01*
X145811431Y-121460351D01*
X145810374Y-121462585D01*
X145790500Y-121562499D01*
X145790500Y-130437500D01*
X145790499Y-130437500D01*
X144209500Y-130437500D01*
X144209500Y-121562499D01*
X144189746Y-121463193D01*
X144171440Y-121418999D01*
X144115189Y-121334813D01*
X144115188Y-121334812D01*
X144115186Y-121334810D01*
X144031002Y-121278561D01*
X144030998Y-121278558D01*
X143989649Y-121261431D01*
X143987414Y-121260374D01*
X143967108Y-121256335D01*
X143887500Y-121240500D01*
X142307508Y-121240500D01*
X142307500Y-121240500D01*
X142218256Y-121256331D01*
X142218244Y-121256335D01*
X142177886Y-121271118D01*
X142177878Y-121271122D01*
X142099513Y-121316690D01*
X142036473Y-121395902D01*
X142036464Y-121395917D01*
X142014551Y-121438438D01*
X141986619Y-121535761D01*
X141741610Y-124475872D01*
X141740940Y-124486593D01*
X141740724Y-124491785D01*
X141740500Y-124502619D01*
X141740500Y-130437500D01*
X141740499Y-130437500D01*
X125500000Y-130437500D01*
X125500000Y-117437500D01*
X127040499Y-117437500D01*
X127060253Y-117536806D01*
X127062432Y-117542066D01*
X127078560Y-117581001D01*
X127078561Y-117581002D01*
X127134810Y-117665186D01*
X127134813Y-117665189D01*
X127168206Y-117687501D01*
X127218999Y-117721440D01*
X127260365Y-117738574D01*
X127262588Y-117739626D01*
X127263193Y-117739746D01*
X127263194Y-117739747D01*
X127362500Y-117759500D01*
X135137500Y-117759500D01*
X135137501Y-117759500D01*
X135236807Y-117739746D01*
X135281001Y-117721440D01*
X135349974Y-117675353D01*
X135396889Y-117666022D01*
X135436663Y-117692598D01*
X135445995Y-117715127D01*
X135460253Y-117786806D01*
X135464643Y-117797403D01*
X135478560Y-117831001D01*
X135478561Y-117831002D01*
X135534810Y-117915186D01*
X135534813Y-117915189D01*
X135576905Y-117943313D01*
X135618999Y-117971440D01*
X135660365Y-117988574D01*
X135662588Y-117989626D01*
X135663193Y-117989746D01*
X135663194Y-117989747D01*
X135762500Y-118009500D01*
X141281638Y-118009500D01*
X141281643Y-118009500D01*
X141354768Y-117998984D01*
X141388565Y-117989058D01*
X141455767Y-117958360D01*
X141567009Y-117886846D01*
X141614081Y-117878346D01*
X141653378Y-117905622D01*
X141661879Y-117952696D01*
X141660990Y-117956179D01*
X141640312Y-118100000D01*
X141660957Y-118243594D01*
X141660958Y-118243596D01*
X141664813Y-118252037D01*
X141666521Y-118299841D01*
X141633925Y-118334852D01*
X141607961Y-118340500D01*
X129662499Y-118340500D01*
X129646023Y-118343777D01*
X129563193Y-118360253D01*
X129519001Y-118378559D01*
X129518997Y-118378561D01*
X129434813Y-118434810D01*
X129434810Y-118434813D01*
X129378561Y-118518997D01*
X129378560Y-118518998D01*
X129361431Y-118560351D01*
X129360374Y-118562585D01*
X129340500Y-118662499D01*
X129340500Y-120687500D01*
X129340499Y-120687500D01*
X129360253Y-120786806D01*
X129373197Y-120818053D01*
X129378560Y-120831001D01*
X129378561Y-120831002D01*
X129434810Y-120915186D01*
X129434813Y-120915189D01*
X129459831Y-120931905D01*
X129518999Y-120971440D01*
X129560365Y-120988574D01*
X129562588Y-120989626D01*
X129563193Y-120989746D01*
X129563194Y-120989747D01*
X129662500Y-121009500D01*
X141440590Y-121009500D01*
X141440603Y-121009500D01*
X141479193Y-121006615D01*
X141479213Y-121006612D01*
X141497561Y-121003853D01*
X141497564Y-121003852D01*
X141497573Y-121003851D01*
X141535298Y-120995261D01*
X143432195Y-120411600D01*
X143489731Y-120385891D01*
X143515545Y-120370349D01*
X143565187Y-120331528D01*
X143621440Y-120247340D01*
X143638578Y-120205965D01*
X143639626Y-120203748D01*
X143639746Y-120203146D01*
X143639747Y-120203145D01*
X143659500Y-120103839D01*
X143659500Y-119169636D01*
X143677805Y-119125443D01*
X144345129Y-118458118D01*
X144389322Y-118439813D01*
X144414564Y-118445138D01*
X144429077Y-118451546D01*
X144439426Y-118452746D01*
X144481216Y-118476022D01*
X144494309Y-118522030D01*
X144494089Y-118523723D01*
X144490312Y-118549998D01*
X144490312Y-118550000D01*
X144492209Y-118563193D01*
X144510957Y-118693594D01*
X144510958Y-118693597D01*
X144571222Y-118825556D01*
X144571225Y-118825561D01*
X144666226Y-118935198D01*
X144788263Y-119013626D01*
X144788268Y-119013629D01*
X144927461Y-119054499D01*
X144927463Y-119054500D01*
X144927464Y-119054500D01*
X145072537Y-119054500D01*
X145072537Y-119054499D01*
X145211732Y-119013629D01*
X145257535Y-118984192D01*
X145333773Y-118935198D01*
X145428774Y-118825561D01*
X145428777Y-118825558D01*
X145489042Y-118693596D01*
X145509688Y-118550000D01*
X145505910Y-118523724D01*
X145517740Y-118477375D01*
X145558879Y-118452966D01*
X145560530Y-118452751D01*
X145570923Y-118451546D01*
X145585431Y-118445139D01*
X145633250Y-118444032D01*
X145654870Y-118458119D01*
X146322194Y-119125443D01*
X146340500Y-119169636D01*
X146340500Y-120102367D01*
X146347397Y-120155436D01*
X146349122Y-120168705D01*
X146349125Y-120168720D01*
X146357287Y-120199588D01*
X146357290Y-120199595D01*
X146357291Y-120199598D01*
X146382589Y-120261534D01*
X146448848Y-120338096D01*
X146448849Y-120338097D01*
X146448852Y-120338100D01*
X146486603Y-120367462D01*
X146486607Y-120367465D01*
X146577120Y-120412841D01*
X147575881Y-120687500D01*
X147774619Y-120742153D01*
X148464624Y-120931905D01*
X148523064Y-120947976D01*
X148545231Y-120952498D01*
X148557151Y-120954931D01*
X148573723Y-120957168D01*
X148608426Y-120959499D01*
X148608428Y-120959500D01*
X148608437Y-120959500D01*
X155587500Y-120959500D01*
X155587501Y-120959500D01*
X155686807Y-120939746D01*
X155731001Y-120921440D01*
X155815187Y-120865189D01*
X155871440Y-120781001D01*
X155888578Y-120739626D01*
X155889626Y-120737409D01*
X155889746Y-120736807D01*
X155889747Y-120736806D01*
X155909500Y-120637500D01*
X155909500Y-120300000D01*
X160760266Y-120300000D01*
X162234174Y-120300000D01*
X162107007Y-120334075D01*
X161992993Y-120399901D01*
X161899901Y-120492993D01*
X161834075Y-120607007D01*
X161800000Y-120734174D01*
X161800000Y-120865826D01*
X161834075Y-120992993D01*
X161899901Y-121107007D01*
X161992993Y-121200099D01*
X162107007Y-121265925D01*
X162234174Y-121300000D01*
X160760267Y-121300000D01*
X160784895Y-121375798D01*
X160784899Y-121375806D01*
X160892084Y-121586168D01*
X161030870Y-121777191D01*
X161197808Y-121944129D01*
X161388831Y-122082915D01*
X161599193Y-122190100D01*
X161599201Y-122190104D01*
X161823750Y-122263065D01*
X162056933Y-122299998D01*
X162056949Y-122300000D01*
X162800000Y-122300000D01*
X162800000Y-121300000D01*
X163800000Y-121300000D01*
X163800000Y-122300000D01*
X164543051Y-122300000D01*
X164543066Y-122299998D01*
X164776248Y-122263065D01*
X164776249Y-122263065D01*
X165000798Y-122190104D01*
X165000806Y-122190100D01*
X165211168Y-122082915D01*
X165402191Y-121944129D01*
X165569129Y-121777191D01*
X165707915Y-121586168D01*
X165815100Y-121375806D01*
X165815104Y-121375798D01*
X165839733Y-121300000D01*
X164365826Y-121300000D01*
X164492993Y-121265925D01*
X164607007Y-121200099D01*
X164700099Y-121107007D01*
X164765925Y-120992993D01*
X164800000Y-120865826D01*
X164800000Y-120734174D01*
X164765925Y-120607007D01*
X164700099Y-120492993D01*
X164607007Y-120399901D01*
X164492993Y-120334075D01*
X164365826Y-120300000D01*
X165839733Y-120300000D01*
X165815104Y-120224201D01*
X165815100Y-120224193D01*
X165707915Y-120013831D01*
X165569129Y-119822808D01*
X165402191Y-119655870D01*
X165211168Y-119517084D01*
X165000806Y-119409899D01*
X165000798Y-119409895D01*
X164776249Y-119336934D01*
X164543066Y-119300001D01*
X164543051Y-119300000D01*
X163800000Y-119300000D01*
X163800000Y-120300000D01*
X162800000Y-120300000D01*
X162800000Y-119300000D01*
X162056949Y-119300000D01*
X162056933Y-119300001D01*
X161823751Y-119336934D01*
X161823750Y-119336934D01*
X161599201Y-119409895D01*
X161599193Y-119409899D01*
X161388831Y-119517084D01*
X161197808Y-119655870D01*
X161030870Y-119822808D01*
X160892084Y-120013831D01*
X160784899Y-120224193D01*
X160784895Y-120224201D01*
X160760266Y-120300000D01*
X155909500Y-120300000D01*
X155909500Y-118662499D01*
X155889746Y-118563193D01*
X155871440Y-118518999D01*
X155815189Y-118434813D01*
X155815186Y-118434810D01*
X155731002Y-118378561D01*
X155730998Y-118378558D01*
X155689649Y-118361431D01*
X155687414Y-118360374D01*
X155658084Y-118354540D01*
X155587500Y-118340500D01*
X148304427Y-118340500D01*
X148260233Y-118322194D01*
X148241927Y-118278000D01*
X148242563Y-118269105D01*
X148250615Y-118213105D01*
X148275025Y-118171966D01*
X148312479Y-118159500D01*
X156078000Y-118159500D01*
X156122194Y-118177806D01*
X156140500Y-118222000D01*
X156140500Y-119537500D01*
X156140499Y-119537500D01*
X156160253Y-119636806D01*
X156168150Y-119655870D01*
X156178560Y-119681001D01*
X156206685Y-119723094D01*
X156234810Y-119765186D01*
X156234813Y-119765189D01*
X156276905Y-119793313D01*
X156318999Y-119821440D01*
X156360365Y-119838574D01*
X156362588Y-119839626D01*
X156363193Y-119839746D01*
X156363194Y-119839747D01*
X156462500Y-119859500D01*
X158637500Y-119859500D01*
X158637501Y-119859500D01*
X158736807Y-119839746D01*
X158781001Y-119821440D01*
X158865187Y-119765189D01*
X158921440Y-119681001D01*
X158938578Y-119639626D01*
X158939626Y-119637409D01*
X158939746Y-119636807D01*
X158939747Y-119636806D01*
X158959500Y-119537500D01*
X158959500Y-118098022D01*
X158977806Y-118053828D01*
X159022000Y-118035522D01*
X159062588Y-118050496D01*
X159146742Y-118122370D01*
X159365435Y-118256385D01*
X159602400Y-118354539D01*
X159851802Y-118414415D01*
X159851804Y-118414415D01*
X159851808Y-118414416D01*
X160107496Y-118434539D01*
X160107500Y-118434539D01*
X160107504Y-118434539D01*
X160363191Y-118414416D01*
X160363193Y-118414415D01*
X160363198Y-118414415D01*
X160612600Y-118354539D01*
X160849565Y-118256385D01*
X161068258Y-118122370D01*
X161263294Y-117955794D01*
X161429870Y-117760758D01*
X161563885Y-117542065D01*
X161662039Y-117305100D01*
X161721915Y-117055698D01*
X161722689Y-117045875D01*
X161742039Y-116800004D01*
X161742039Y-116799995D01*
X161721916Y-116544308D01*
X161721915Y-116544304D01*
X161716302Y-116520925D01*
X161662039Y-116294900D01*
X161563885Y-116057935D01*
X161429870Y-115839242D01*
X161363745Y-115761819D01*
X161263294Y-115644205D01*
X161099767Y-115504541D01*
X161068258Y-115477630D01*
X161068256Y-115477628D01*
X161068254Y-115477627D01*
X160933847Y-115395263D01*
X160849565Y-115343615D01*
X160612600Y-115245461D01*
X160612594Y-115245459D01*
X160612593Y-115245459D01*
X160363195Y-115185584D01*
X160363191Y-115185583D01*
X160107504Y-115165461D01*
X160107496Y-115165461D01*
X159851808Y-115185583D01*
X159851804Y-115185584D01*
X159602406Y-115245459D01*
X159602402Y-115245460D01*
X159602400Y-115245461D01*
X159365435Y-115343615D01*
X159365433Y-115343616D01*
X159146745Y-115477627D01*
X159033071Y-115574713D01*
X158987577Y-115589494D01*
X158944955Y-115567777D01*
X158934739Y-115551105D01*
X158921441Y-115519001D01*
X158921440Y-115519000D01*
X158921440Y-115518999D01*
X158865189Y-115434813D01*
X158865186Y-115434810D01*
X158798870Y-115390500D01*
X158781001Y-115378560D01*
X158781000Y-115378559D01*
X158780998Y-115378558D01*
X158739649Y-115361431D01*
X158737414Y-115360374D01*
X158720572Y-115357024D01*
X158637500Y-115340500D01*
X151710143Y-115340500D01*
X151710130Y-115340500D01*
X151668596Y-115343848D01*
X151668561Y-115343852D01*
X151648829Y-115347053D01*
X151648821Y-115347055D01*
X151608331Y-115357020D01*
X151608322Y-115357022D01*
X149567511Y-116037293D01*
X149547747Y-116040500D01*
X148602203Y-116040500D01*
X148558009Y-116022194D01*
X148540339Y-115986894D01*
X148528498Y-115904541D01*
X148527041Y-115894403D01*
X148466776Y-115762441D01*
X148466773Y-115762437D01*
X148371772Y-115652800D01*
X148300012Y-115606683D01*
X148272730Y-115567390D01*
X148281224Y-115520315D01*
X148289609Y-115509910D01*
X148308668Y-115490851D01*
X148308668Y-115490850D01*
X148308671Y-115490848D01*
X148316302Y-115477630D01*
X148355341Y-115410012D01*
X148373967Y-115340500D01*
X148379499Y-115319856D01*
X148379500Y-115319850D01*
X148379500Y-113214978D01*
X148397806Y-113170784D01*
X148434551Y-113152924D01*
X148446679Y-113151468D01*
X148586242Y-113096431D01*
X148705782Y-113005782D01*
X148796431Y-112886242D01*
X148851468Y-112746679D01*
X148862000Y-112658977D01*
X148861999Y-111341024D01*
X148851468Y-111253321D01*
X148796431Y-111113758D01*
X148705782Y-110994218D01*
X148609826Y-110921453D01*
X148586244Y-110903570D01*
X148586242Y-110903569D01*
X148541140Y-110885783D01*
X148495421Y-110867753D01*
X148461025Y-110834512D01*
X148460209Y-110786683D01*
X148461491Y-110783664D01*
X148514042Y-110668596D01*
X148534688Y-110525000D01*
X148514042Y-110381404D01*
X148453777Y-110249442D01*
X148453774Y-110249438D01*
X148358773Y-110139801D01*
X148232972Y-110058954D01*
X148234152Y-110057117D01*
X148206538Y-110027455D01*
X148208247Y-109979650D01*
X148243259Y-109947056D01*
X148255315Y-109943886D01*
X148344991Y-109929683D01*
X148457747Y-109872231D01*
X148547231Y-109782747D01*
X148604683Y-109669991D01*
X148619500Y-109576442D01*
X148619500Y-109223558D01*
X148619500Y-108273412D01*
X148637806Y-108229218D01*
X148643624Y-108223400D01*
X148734082Y-108079437D01*
X148790237Y-107918954D01*
X148809274Y-107750000D01*
X148790237Y-107581046D01*
X148734082Y-107420563D01*
X148714624Y-107389596D01*
X148643625Y-107276601D01*
X148523398Y-107156374D01*
X148379443Y-107065921D01*
X148379439Y-107065919D01*
X148379438Y-107065918D01*
X148379437Y-107065918D01*
X148218954Y-107009763D01*
X148218950Y-107009762D01*
X148050000Y-106990726D01*
X147881049Y-107009762D01*
X147881045Y-107009763D01*
X147720560Y-107065919D01*
X147720556Y-107065921D01*
X147576601Y-107156374D01*
X147456374Y-107276601D01*
X147365921Y-107420556D01*
X147365919Y-107420560D01*
X147309763Y-107581045D01*
X147309762Y-107581049D01*
X147290726Y-107750000D01*
X147309762Y-107918950D01*
X147309763Y-107918954D01*
X147316203Y-107937358D01*
X147313520Y-107985118D01*
X147277852Y-108016993D01*
X147257210Y-108020500D01*
X147227462Y-108020500D01*
X147088272Y-108061369D01*
X147088263Y-108061373D01*
X146966226Y-108139801D01*
X146871225Y-108249438D01*
X146871222Y-108249443D01*
X146810958Y-108381402D01*
X146810957Y-108381405D01*
X146801296Y-108448600D01*
X146776886Y-108489739D01*
X146730537Y-108501569D01*
X146695238Y-108483899D01*
X146162668Y-107951329D01*
X146138469Y-107937358D01*
X146081832Y-107904659D01*
X146081829Y-107904658D01*
X145991676Y-107880500D01*
X145991671Y-107880500D01*
X145580019Y-107880500D01*
X145535825Y-107862194D01*
X145524331Y-107846374D01*
X145522231Y-107842253D01*
X145432746Y-107752768D01*
X145319992Y-107695317D01*
X145319988Y-107695316D01*
X145226453Y-107680501D01*
X145226443Y-107680500D01*
X145226442Y-107680500D01*
X144873558Y-107680500D01*
X144873556Y-107680500D01*
X144873546Y-107680501D01*
X144780011Y-107695316D01*
X144780007Y-107695317D01*
X144667253Y-107752768D01*
X144577768Y-107842253D01*
X144520317Y-107955007D01*
X144520316Y-107955011D01*
X144505501Y-108048546D01*
X144505500Y-108048560D01*
X144505500Y-108421439D01*
X144505501Y-108421453D01*
X144520316Y-108514988D01*
X144520317Y-108514992D01*
X144577768Y-108627746D01*
X144628630Y-108678608D01*
X144646936Y-108722802D01*
X144628631Y-108766995D01*
X144576411Y-108819216D01*
X144520040Y-108929850D01*
X144520037Y-108929860D01*
X144505501Y-109021637D01*
X144505500Y-109021653D01*
X144505500Y-109207272D01*
X144487194Y-109251466D01*
X144272332Y-109466329D01*
X144206329Y-109532331D01*
X144159480Y-109613477D01*
X144121529Y-109642597D01*
X144074103Y-109636354D01*
X144044983Y-109598403D01*
X144043490Y-109573331D01*
X144044688Y-109565000D01*
X144024042Y-109421404D01*
X143963777Y-109289442D01*
X143959936Y-109285009D01*
X143868773Y-109179801D01*
X143746736Y-109101373D01*
X143746727Y-109101369D01*
X143607538Y-109060500D01*
X143607536Y-109060500D01*
X143462464Y-109060500D01*
X143462462Y-109060500D01*
X143323272Y-109101369D01*
X143323263Y-109101373D01*
X143201226Y-109179801D01*
X143106225Y-109289438D01*
X143106222Y-109289443D01*
X143045958Y-109421402D01*
X143045957Y-109421405D01*
X143025312Y-109565000D01*
X143045957Y-109708594D01*
X143045958Y-109708597D01*
X143106222Y-109840556D01*
X143106225Y-109840561D01*
X143165234Y-109908660D01*
X143180500Y-109949589D01*
X143180500Y-109969980D01*
X143162194Y-110014174D01*
X143146380Y-110025665D01*
X143142254Y-110027767D01*
X143052768Y-110117253D01*
X142995317Y-110230007D01*
X142995316Y-110230011D01*
X142980501Y-110323546D01*
X142980500Y-110323560D01*
X142980500Y-110676439D01*
X142980501Y-110676453D01*
X142995316Y-110769988D01*
X142995317Y-110769992D01*
X143052768Y-110882746D01*
X143052769Y-110882747D01*
X143142253Y-110972231D01*
X143146372Y-110974330D01*
X143177440Y-111010702D01*
X143180500Y-111030018D01*
X143180500Y-111167076D01*
X143162194Y-111211270D01*
X143146378Y-111222762D01*
X143139216Y-111226411D01*
X143139216Y-111226412D01*
X143051411Y-111314216D01*
X142995040Y-111424850D01*
X142995037Y-111424860D01*
X142980501Y-111516637D01*
X142980500Y-111516653D01*
X142980500Y-111702271D01*
X142962195Y-111746464D01*
X142916329Y-111792331D01*
X142869659Y-111873168D01*
X142869658Y-111873170D01*
X142845500Y-111963323D01*
X142845500Y-113346676D01*
X142864164Y-113416326D01*
X142869659Y-113436832D01*
X142907280Y-113501994D01*
X142916329Y-113517668D01*
X143222194Y-113823533D01*
X143240500Y-113867727D01*
X143240500Y-113978000D01*
X143222194Y-114022194D01*
X143178000Y-114040500D01*
X142919668Y-114040500D01*
X142875474Y-114022194D01*
X142857804Y-113986895D01*
X142839042Y-113856405D01*
X142839041Y-113856402D01*
X142820044Y-113814804D01*
X142778777Y-113724442D01*
X142777668Y-113723162D01*
X142683773Y-113614801D01*
X142561736Y-113536373D01*
X142561727Y-113536369D01*
X142422538Y-113495500D01*
X142422536Y-113495500D01*
X142277464Y-113495500D01*
X142277462Y-113495500D01*
X142137159Y-113536696D01*
X142089598Y-113531583D01*
X142059583Y-113494336D01*
X142059181Y-113492904D01*
X142050230Y-113459499D01*
X142050229Y-113459497D01*
X142037143Y-113436832D01*
X142018222Y-113404060D01*
X141993686Y-113361561D01*
X141710806Y-113078681D01*
X141692500Y-113034487D01*
X141692500Y-112097866D01*
X141710806Y-112053672D01*
X141722231Y-112042247D01*
X141779683Y-111929491D01*
X141794500Y-111835942D01*
X141794500Y-111438058D01*
X141779683Y-111344509D01*
X141722231Y-111231753D01*
X141632747Y-111142269D01*
X141632746Y-111142268D01*
X141519992Y-111084817D01*
X141519988Y-111084816D01*
X141426453Y-111070001D01*
X141426443Y-111070000D01*
X141426442Y-111070000D01*
X141073558Y-111070000D01*
X141073556Y-111070000D01*
X141073546Y-111070001D01*
X140980011Y-111084816D01*
X140980007Y-111084817D01*
X140867253Y-111142268D01*
X140777769Y-111231752D01*
X140776049Y-111235128D01*
X140766779Y-111253323D01*
X140762676Y-111261375D01*
X140726301Y-111292441D01*
X140706988Y-111295500D01*
X140475760Y-111295500D01*
X140431566Y-111277194D01*
X140421369Y-111266997D01*
X140403063Y-111222803D01*
X140421369Y-111178609D01*
X140444478Y-111155500D01*
X140472231Y-111127747D01*
X140529683Y-111014991D01*
X140544500Y-110921442D01*
X140544500Y-110548558D01*
X140529683Y-110455009D01*
X140472231Y-110342253D01*
X140382747Y-110252769D01*
X140382746Y-110252768D01*
X140269992Y-110195317D01*
X140269988Y-110195316D01*
X140176453Y-110180501D01*
X140176443Y-110180500D01*
X140176442Y-110180500D01*
X139823558Y-110180500D01*
X139823556Y-110180500D01*
X139823546Y-110180501D01*
X139730011Y-110195316D01*
X139730007Y-110195317D01*
X139617253Y-110252768D01*
X139557828Y-110312194D01*
X139513634Y-110330500D01*
X139446747Y-110330500D01*
X139446746Y-110330500D01*
X139446740Y-110330501D01*
X139343872Y-110358064D01*
X139343863Y-110358068D01*
X139251634Y-110411317D01*
X139251625Y-110411324D01*
X139010757Y-110652194D01*
X138966563Y-110670500D01*
X138923563Y-110670500D01*
X138826457Y-110694435D01*
X138775137Y-110707085D01*
X138775136Y-110707085D01*
X138775134Y-110707086D01*
X138639777Y-110778126D01*
X138525353Y-110879497D01*
X138525351Y-110879500D01*
X138438511Y-111005308D01*
X138384302Y-111148243D01*
X138384301Y-111148247D01*
X138365877Y-111299997D01*
X138365877Y-111300002D01*
X138384301Y-111451752D01*
X138384302Y-111451756D01*
X138438511Y-111594691D01*
X138525349Y-111720498D01*
X138525353Y-111720502D01*
X138530435Y-111725004D01*
X138639777Y-111821873D01*
X138775137Y-111892915D01*
X138923565Y-111929500D01*
X139076435Y-111929500D01*
X139224863Y-111892915D01*
X139360223Y-111821873D01*
X139360222Y-111821873D01*
X139363571Y-111820116D01*
X139364291Y-111821489D01*
X139405960Y-111812538D01*
X139446134Y-111838504D01*
X139456434Y-111864239D01*
X139470039Y-111950146D01*
X139526411Y-112060783D01*
X139614216Y-112148588D01*
X139724850Y-112204959D01*
X139724852Y-112204959D01*
X139724855Y-112204961D01*
X139724858Y-112204961D01*
X139724860Y-112204962D01*
X139816637Y-112219498D01*
X139816639Y-112219498D01*
X139816651Y-112219500D01*
X140183348Y-112219499D01*
X140275145Y-112204961D01*
X140385784Y-112148588D01*
X140411566Y-112122806D01*
X140455760Y-112104500D01*
X140771000Y-112104500D01*
X140815194Y-112122806D01*
X140833500Y-112167000D01*
X140833500Y-113294829D01*
X140862769Y-113404059D01*
X140862771Y-113404064D01*
X140869851Y-113416326D01*
X140869852Y-113416329D01*
X140914063Y-113492904D01*
X140919314Y-113501999D01*
X140919318Y-113502003D01*
X141202194Y-113784879D01*
X141220500Y-113829073D01*
X141220500Y-114506549D01*
X141249770Y-114615781D01*
X141249772Y-114615786D01*
X141306312Y-114713715D01*
X141306319Y-114713724D01*
X141386275Y-114793680D01*
X141386279Y-114793683D01*
X141386281Y-114793685D01*
X141386283Y-114793686D01*
X141389528Y-114796176D01*
X141387937Y-114798249D01*
X141412075Y-114829747D01*
X141405801Y-114877169D01*
X141385486Y-114898462D01*
X141377316Y-114903712D01*
X141377315Y-114903713D01*
X141282316Y-115013347D01*
X141282313Y-115013352D01*
X141222049Y-115145311D01*
X141222048Y-115145314D01*
X141201403Y-115288909D01*
X141222048Y-115432503D01*
X141222049Y-115432506D01*
X141282313Y-115564465D01*
X141282316Y-115564470D01*
X141310612Y-115597125D01*
X141325719Y-115642512D01*
X141310613Y-115678983D01*
X141271223Y-115724441D01*
X141265860Y-115736184D01*
X141230847Y-115768778D01*
X141185605Y-115768170D01*
X140308432Y-115413928D01*
X140308427Y-115413926D01*
X140308416Y-115413922D01*
X140308413Y-115413921D01*
X140260755Y-115399811D01*
X140237349Y-115395263D01*
X140220849Y-115393675D01*
X140187855Y-115390500D01*
X140187849Y-115390500D01*
X136976015Y-115390500D01*
X136948064Y-115383902D01*
X136633530Y-115226635D01*
X136633526Y-115226633D01*
X136607843Y-115215871D01*
X136574159Y-115181908D01*
X136569499Y-115158228D01*
X136569499Y-114724935D01*
X136569498Y-114724931D01*
X136567267Y-114713715D01*
X136554734Y-114650699D01*
X136531406Y-114615786D01*
X136498484Y-114566515D01*
X136494848Y-114564086D01*
X136468274Y-114524311D01*
X136476999Y-114478323D01*
X136478772Y-114475563D01*
X136478777Y-114475558D01*
X136539042Y-114343596D01*
X136559688Y-114200000D01*
X136539042Y-114056404D01*
X136478777Y-113924442D01*
X136478774Y-113924438D01*
X136383773Y-113814801D01*
X136261736Y-113736373D01*
X136261727Y-113736369D01*
X136122538Y-113695500D01*
X136122536Y-113695500D01*
X135977464Y-113695500D01*
X135977462Y-113695500D01*
X135838272Y-113736369D01*
X135838263Y-113736373D01*
X135716226Y-113814801D01*
X135621225Y-113924438D01*
X135621222Y-113924443D01*
X135560958Y-114056402D01*
X135560957Y-114056405D01*
X135540312Y-114200000D01*
X135560957Y-114343594D01*
X135560958Y-114343597D01*
X135602967Y-114435583D01*
X135604674Y-114483387D01*
X135580839Y-114513512D01*
X135517536Y-114555811D01*
X135470620Y-114565144D01*
X135430846Y-114538569D01*
X135425069Y-114527761D01*
X135423640Y-114524311D01*
X135421440Y-114518999D01*
X135365189Y-114434813D01*
X135365186Y-114434810D01*
X135301450Y-114392224D01*
X135281001Y-114378560D01*
X135281000Y-114378559D01*
X135280998Y-114378558D01*
X135239649Y-114361431D01*
X135237414Y-114360374D01*
X135170449Y-114347054D01*
X135137500Y-114340500D01*
X134642000Y-114340500D01*
X134597806Y-114322194D01*
X134579500Y-114278000D01*
X134579500Y-112770735D01*
X134597806Y-112726541D01*
X134951541Y-112372806D01*
X134995735Y-112354500D01*
X135103733Y-112354500D01*
X135252161Y-112317915D01*
X135387521Y-112246873D01*
X135501946Y-112145501D01*
X135588786Y-112019692D01*
X135642995Y-111876756D01*
X135642996Y-111876752D01*
X135661421Y-111725002D01*
X135661421Y-111724997D01*
X135642996Y-111573247D01*
X135642995Y-111573243D01*
X135588786Y-111430308D01*
X135501948Y-111304501D01*
X135501944Y-111304497D01*
X135387520Y-111203126D01*
X135252163Y-111132086D01*
X135252162Y-111132085D01*
X135252161Y-111132085D01*
X135147809Y-111106364D01*
X135103734Y-111095500D01*
X135103733Y-111095500D01*
X134950863Y-111095500D01*
X134950861Y-111095500D01*
X134872545Y-111114804D01*
X134802435Y-111132085D01*
X134802434Y-111132085D01*
X134802432Y-111132086D01*
X134667075Y-111203126D01*
X134552651Y-111304497D01*
X134552647Y-111304501D01*
X134465809Y-111430308D01*
X134411600Y-111573243D01*
X134411599Y-111573247D01*
X134393175Y-111724996D01*
X134393175Y-111725004D01*
X134396227Y-111750144D01*
X134383381Y-111796222D01*
X134378377Y-111801870D01*
X133926631Y-112253618D01*
X133851324Y-112328924D01*
X133851317Y-112328932D01*
X133798068Y-112421161D01*
X133798064Y-112421170D01*
X133770501Y-112524038D01*
X133770500Y-112524046D01*
X133770500Y-114278000D01*
X133752194Y-114322194D01*
X133708000Y-114340500D01*
X127362499Y-114340500D01*
X127346945Y-114343594D01*
X127263193Y-114360253D01*
X127219001Y-114378559D01*
X127218997Y-114378561D01*
X127134813Y-114434810D01*
X127134810Y-114434813D01*
X127078561Y-114518997D01*
X127078560Y-114518998D01*
X127061431Y-114560351D01*
X127060374Y-114562585D01*
X127040500Y-114662499D01*
X127040500Y-117437500D01*
X127040499Y-117437500D01*
X125500000Y-117437500D01*
X125500000Y-111571852D01*
X125500636Y-111562957D01*
X125509688Y-111500000D01*
X125502751Y-111451752D01*
X125500636Y-111437040D01*
X125500000Y-111428146D01*
X125500000Y-103125000D01*
X137465312Y-103125000D01*
X137485957Y-103268594D01*
X137485958Y-103268597D01*
X137546222Y-103400556D01*
X137546225Y-103400561D01*
X137641226Y-103510198D01*
X137757890Y-103585173D01*
X137763268Y-103588629D01*
X137902461Y-103629499D01*
X137902463Y-103629500D01*
X137902464Y-103629500D01*
X138047537Y-103629500D01*
X138047537Y-103629499D01*
X138186732Y-103588629D01*
X138247485Y-103549585D01*
X138302200Y-103514422D01*
X138335990Y-103504500D01*
X139741986Y-103504500D01*
X139786180Y-103522806D01*
X139804486Y-103567000D01*
X139800545Y-103588840D01*
X139794705Y-103604498D01*
X139766047Y-103681332D01*
X139760000Y-103737573D01*
X139760000Y-104362410D01*
X139760001Y-104362427D01*
X139766047Y-104418665D01*
X139766048Y-104418670D01*
X139813502Y-104545900D01*
X139813503Y-104545902D01*
X139813504Y-104545903D01*
X139894885Y-104654615D01*
X139977524Y-104716478D01*
X139995596Y-104730007D01*
X140003597Y-104735996D01*
X140029843Y-104745785D01*
X140064852Y-104778379D01*
X140070500Y-104804343D01*
X140070500Y-105296196D01*
X140070499Y-105296214D01*
X140070499Y-105399967D01*
X140090644Y-105475143D01*
X140090644Y-105475144D01*
X140096361Y-105496479D01*
X140096361Y-105496481D01*
X140096362Y-105496482D01*
X140140975Y-105573755D01*
X140146325Y-105583020D01*
X140146328Y-105583024D01*
X140220536Y-105657232D01*
X140220550Y-105657244D01*
X141494136Y-106930830D01*
X141494141Y-106930836D01*
X141496324Y-106933019D01*
X141566981Y-107003676D01*
X141653518Y-107053638D01*
X141653521Y-107053639D01*
X141712581Y-107069463D01*
X141750038Y-107079500D01*
X141849962Y-107079500D01*
X142019240Y-107079500D01*
X142063434Y-107097806D01*
X142139216Y-107173588D01*
X142249850Y-107229959D01*
X142249852Y-107229959D01*
X142249855Y-107229961D01*
X142249858Y-107229961D01*
X142249860Y-107229962D01*
X142341637Y-107244498D01*
X142341639Y-107244498D01*
X142341651Y-107244500D01*
X142678348Y-107244499D01*
X142770145Y-107229961D01*
X142880784Y-107173588D01*
X142933003Y-107121369D01*
X142977197Y-107103063D01*
X143021391Y-107121369D01*
X143072253Y-107172231D01*
X143185009Y-107229683D01*
X143278558Y-107244500D01*
X143278560Y-107244500D01*
X143651440Y-107244500D01*
X143651442Y-107244500D01*
X143744991Y-107229683D01*
X143761122Y-107221463D01*
X143781047Y-107211312D01*
X143809421Y-107204500D01*
X144574489Y-107204500D01*
X144574494Y-107204499D01*
X144601278Y-107197321D01*
X144664650Y-107180341D01*
X144745486Y-107133671D01*
X145133671Y-106745486D01*
X145180341Y-106664650D01*
X145204500Y-106574489D01*
X145204500Y-106481147D01*
X145204500Y-106259988D01*
X145222806Y-106215794D01*
X145267000Y-106197488D01*
X145300790Y-106207410D01*
X145388263Y-106263626D01*
X145388268Y-106263629D01*
X145527461Y-106304499D01*
X145527463Y-106304500D01*
X145527464Y-106304500D01*
X145672537Y-106304500D01*
X145672537Y-106304499D01*
X145811732Y-106263629D01*
X145875437Y-106222688D01*
X145933773Y-106185198D01*
X145933775Y-106185196D01*
X146028777Y-106075558D01*
X146089042Y-105943596D01*
X146108130Y-105810835D01*
X146125797Y-105775540D01*
X146291486Y-105609852D01*
X146335680Y-105591546D01*
X146379874Y-105609852D01*
X146442253Y-105672231D01*
X146555009Y-105729683D01*
X146648558Y-105744500D01*
X146648560Y-105744500D01*
X147021440Y-105744500D01*
X147021442Y-105744500D01*
X147114991Y-105729683D01*
X147227747Y-105672231D01*
X147278609Y-105621369D01*
X147322803Y-105603063D01*
X147366997Y-105621369D01*
X147419216Y-105673588D01*
X147529850Y-105729959D01*
X147529852Y-105729959D01*
X147529855Y-105729961D01*
X147529858Y-105729961D01*
X147529860Y-105729962D01*
X147621637Y-105744498D01*
X147621639Y-105744498D01*
X147621651Y-105744500D01*
X147958348Y-105744499D01*
X148050145Y-105729961D01*
X148160784Y-105673588D01*
X148248588Y-105585784D01*
X148254718Y-105573752D01*
X148291088Y-105542686D01*
X148294196Y-105541764D01*
X148336832Y-105530341D01*
X148417668Y-105483671D01*
X148853808Y-105047530D01*
X148898000Y-105029225D01*
X148942194Y-105047531D01*
X148960500Y-105091725D01*
X148960500Y-105412910D01*
X148960501Y-105412927D01*
X148966547Y-105469165D01*
X148966548Y-105469170D01*
X149014002Y-105596400D01*
X149014003Y-105596402D01*
X149014004Y-105596403D01*
X149095385Y-105705115D01*
X149204097Y-105786496D01*
X149204098Y-105786496D01*
X149204099Y-105786497D01*
X149267715Y-105810224D01*
X149331334Y-105833953D01*
X149364681Y-105837538D01*
X149406665Y-105860463D01*
X149420500Y-105899680D01*
X149420500Y-109130278D01*
X149416993Y-109150920D01*
X149413316Y-109161426D01*
X149413315Y-109161431D01*
X149412301Y-109172253D01*
X149410500Y-109191458D01*
X149410500Y-109708542D01*
X149411465Y-109718836D01*
X149413315Y-109738568D01*
X149413315Y-109738569D01*
X149413316Y-109738571D01*
X149424436Y-109770349D01*
X149457572Y-109865048D01*
X149481054Y-109896864D01*
X149537141Y-109972859D01*
X149609703Y-110026412D01*
X149644951Y-110052427D01*
X149644952Y-110052427D01*
X149644953Y-110052428D01*
X149771429Y-110096684D01*
X149801458Y-110099500D01*
X149801462Y-110099500D01*
X150288538Y-110099500D01*
X150288542Y-110099500D01*
X150318571Y-110096684D01*
X150445047Y-110052428D01*
X150552859Y-109972859D01*
X150632428Y-109865047D01*
X150676684Y-109738571D01*
X150679500Y-109708542D01*
X150679500Y-109191458D01*
X150676684Y-109161429D01*
X150632428Y-109034953D01*
X150622868Y-109022000D01*
X150595191Y-108984499D01*
X150552859Y-108927141D01*
X150498953Y-108887356D01*
X150445048Y-108847572D01*
X150363387Y-108818998D01*
X150318571Y-108803316D01*
X150318569Y-108803315D01*
X150318568Y-108803315D01*
X150298836Y-108801465D01*
X150288542Y-108800500D01*
X150288538Y-108800500D01*
X150242000Y-108800500D01*
X150197806Y-108782194D01*
X150179500Y-108738000D01*
X150179500Y-105830060D01*
X150197806Y-105785866D01*
X150204539Y-105780030D01*
X150304615Y-105705115D01*
X150385996Y-105596403D01*
X150433453Y-105469166D01*
X150439500Y-105412919D01*
X150439499Y-104973081D01*
X150457804Y-104928889D01*
X151238806Y-104147888D01*
X151283000Y-104129582D01*
X151327194Y-104147888D01*
X151345500Y-104192082D01*
X151345500Y-106200401D01*
X151327194Y-106244595D01*
X151319738Y-106250963D01*
X151317254Y-106252767D01*
X151227768Y-106342253D01*
X151170317Y-106455007D01*
X151170316Y-106455011D01*
X151155501Y-106548546D01*
X151155500Y-106548560D01*
X151155500Y-106921439D01*
X151155501Y-106921453D01*
X151170316Y-107014988D01*
X151170317Y-107014992D01*
X151227768Y-107127746D01*
X151278630Y-107178608D01*
X151296936Y-107222802D01*
X151278631Y-107266995D01*
X151226411Y-107319216D01*
X151170040Y-107429850D01*
X151170037Y-107429860D01*
X151155501Y-107521637D01*
X151155500Y-107521652D01*
X151155500Y-107858344D01*
X151155501Y-107858349D01*
X151170039Y-107950146D01*
X151226411Y-108060783D01*
X151314216Y-108148588D01*
X151424850Y-108204959D01*
X151424852Y-108204959D01*
X151424855Y-108204961D01*
X151424858Y-108204961D01*
X151424860Y-108204962D01*
X151516637Y-108219498D01*
X151516639Y-108219498D01*
X151516651Y-108219500D01*
X151883348Y-108219499D01*
X151975145Y-108204961D01*
X152085784Y-108148588D01*
X152171566Y-108062806D01*
X152215760Y-108044500D01*
X152956671Y-108044500D01*
X152956676Y-108044499D01*
X152983460Y-108037321D01*
X153046832Y-108020341D01*
X153127668Y-107973671D01*
X154471458Y-106629879D01*
X154515651Y-106611574D01*
X154559845Y-106629880D01*
X154566215Y-106637337D01*
X154568672Y-106640719D01*
X154568674Y-106640723D01*
X154659277Y-106731326D01*
X154773445Y-106789498D01*
X154868166Y-106804500D01*
X154868168Y-106804500D01*
X155231832Y-106804500D01*
X155231834Y-106804500D01*
X155326555Y-106789498D01*
X155440723Y-106731326D01*
X155531326Y-106640723D01*
X155589498Y-106526555D01*
X155604500Y-106431834D01*
X155604500Y-105968166D01*
X155598737Y-105931778D01*
X155609903Y-105885264D01*
X155650689Y-105860270D01*
X155660467Y-105859500D01*
X155728000Y-105859500D01*
X155772194Y-105877806D01*
X155790500Y-105922000D01*
X155790500Y-106837500D01*
X155790499Y-106837500D01*
X155810253Y-106936806D01*
X155823197Y-106968053D01*
X155828560Y-106981001D01*
X155828561Y-106981002D01*
X155884810Y-107065186D01*
X155884813Y-107065189D01*
X155911091Y-107082747D01*
X155968999Y-107121440D01*
X155969006Y-107121443D01*
X155971703Y-107122885D01*
X155970838Y-107124502D01*
X156000739Y-107154393D01*
X156005500Y-107178320D01*
X156005500Y-107332273D01*
X155987194Y-107376467D01*
X155536467Y-107827194D01*
X155492273Y-107845500D01*
X154663559Y-107845500D01*
X154619365Y-107827194D01*
X154607871Y-107811374D01*
X154581326Y-107759277D01*
X154490723Y-107668674D01*
X154376555Y-107610502D01*
X154281835Y-107595500D01*
X154281834Y-107595500D01*
X153918166Y-107595500D01*
X153918164Y-107595500D01*
X153823444Y-107610502D01*
X153823443Y-107610502D01*
X153709276Y-107668674D01*
X153618674Y-107759276D01*
X153560502Y-107873443D01*
X153560502Y-107873444D01*
X153545500Y-107968164D01*
X153545500Y-108431835D01*
X153560502Y-108526555D01*
X153560503Y-108526559D01*
X153572257Y-108549626D01*
X153576010Y-108597314D01*
X153544943Y-108633688D01*
X153516569Y-108640500D01*
X153162499Y-108640500D01*
X153146023Y-108643777D01*
X153063193Y-108660253D01*
X153019001Y-108678559D01*
X153018997Y-108678561D01*
X152934813Y-108734810D01*
X152934810Y-108734813D01*
X152878561Y-108818997D01*
X152878560Y-108818998D01*
X152861431Y-108860351D01*
X152860374Y-108862585D01*
X152840500Y-108962499D01*
X152840500Y-109937500D01*
X152840499Y-109937500D01*
X152860253Y-110036806D01*
X152868024Y-110055566D01*
X152878560Y-110081001D01*
X152902783Y-110117253D01*
X152934810Y-110165186D01*
X152934813Y-110165189D01*
X152976905Y-110193313D01*
X153018999Y-110221440D01*
X153060365Y-110238574D01*
X153062588Y-110239626D01*
X153063193Y-110239746D01*
X153063194Y-110239747D01*
X153162500Y-110259500D01*
X154174112Y-110259500D01*
X154174113Y-110259500D01*
X154273419Y-110239746D01*
X154317613Y-110221440D01*
X154401800Y-110165188D01*
X155189182Y-109377806D01*
X155233376Y-109359500D01*
X155943000Y-109359500D01*
X155987194Y-109377806D01*
X156005500Y-109422000D01*
X156005500Y-109751439D01*
X156005501Y-109751453D01*
X156020316Y-109844988D01*
X156020316Y-109844989D01*
X156020316Y-109844990D01*
X156020317Y-109844991D01*
X156063611Y-109929960D01*
X156063688Y-109930110D01*
X156070500Y-109958485D01*
X156070500Y-110011372D01*
X156052194Y-110055566D01*
X156049445Y-110058154D01*
X156025353Y-110079497D01*
X156025349Y-110079501D01*
X155938511Y-110205308D01*
X155884302Y-110348243D01*
X155884301Y-110348247D01*
X155865877Y-110499997D01*
X155865877Y-110500002D01*
X155884301Y-110651752D01*
X155884302Y-110651756D01*
X155938511Y-110794691D01*
X156025349Y-110920498D01*
X156025353Y-110920502D01*
X156083742Y-110972230D01*
X156139777Y-111021873D01*
X156275137Y-111092915D01*
X156423565Y-111129500D01*
X156576435Y-111129500D01*
X156724863Y-111092915D01*
X156860223Y-111021873D01*
X156974648Y-110920501D01*
X157061488Y-110794692D01*
X157115697Y-110651756D01*
X157115698Y-110651752D01*
X157134123Y-110500002D01*
X157134123Y-110499997D01*
X157115698Y-110348247D01*
X157115697Y-110348243D01*
X157061488Y-110205308D01*
X157000708Y-110117253D01*
X156974648Y-110079499D01*
X156974647Y-110079498D01*
X156973948Y-110078485D01*
X156963908Y-110031715D01*
X156981188Y-109998789D01*
X157022231Y-109957747D01*
X157079683Y-109844991D01*
X157094500Y-109751442D01*
X157094500Y-109378558D01*
X157079683Y-109285009D01*
X157039088Y-109205336D01*
X157035335Y-109157648D01*
X157044771Y-109139468D01*
X157161000Y-108984498D01*
X157202162Y-108960128D01*
X157211000Y-108959500D01*
X158178000Y-108959500D01*
X158222194Y-108977806D01*
X158240500Y-109022000D01*
X158240500Y-112336125D01*
X158249809Y-112405009D01*
X158258621Y-112437011D01*
X158258623Y-112437017D01*
X158285884Y-112500952D01*
X158285888Y-112500960D01*
X158333456Y-112553715D01*
X158349456Y-112598795D01*
X158335828Y-112629458D01*
X158338233Y-112631065D01*
X158278561Y-112720369D01*
X158278560Y-112720370D01*
X158261431Y-112761723D01*
X158260374Y-112763957D01*
X158240500Y-112863871D01*
X158240500Y-114137500D01*
X158240499Y-114137500D01*
X158260253Y-114236806D01*
X158273197Y-114268053D01*
X158278560Y-114281001D01*
X158278561Y-114281002D01*
X158334810Y-114365186D01*
X158334813Y-114365189D01*
X158375274Y-114392224D01*
X158418999Y-114421440D01*
X158460365Y-114438574D01*
X158462588Y-114439626D01*
X158463193Y-114439746D01*
X158463194Y-114439747D01*
X158562500Y-114459500D01*
X159828208Y-114459500D01*
X159828211Y-114459500D01*
X159907378Y-114447129D01*
X159943695Y-114435495D01*
X160015316Y-114399561D01*
X160058942Y-114353142D01*
X160102547Y-114333476D01*
X160147287Y-114350403D01*
X160156449Y-114361220D01*
X160159098Y-114365185D01*
X160159102Y-114365189D01*
X160199563Y-114392224D01*
X160243288Y-114421440D01*
X160284654Y-114438574D01*
X160286877Y-114439626D01*
X160287482Y-114439746D01*
X160287483Y-114439747D01*
X160386789Y-114459500D01*
X165371280Y-114459500D01*
X165376429Y-114459400D01*
X165381207Y-114459309D01*
X165386001Y-114459125D01*
X165395953Y-114458551D01*
X165478262Y-114435494D01*
X165493449Y-114431240D01*
X165493449Y-114431239D01*
X165493452Y-114431239D01*
X165536112Y-114409597D01*
X165571651Y-114381680D01*
X165617713Y-114368777D01*
X165659408Y-114392224D01*
X165672312Y-114438286D01*
X165672223Y-114438989D01*
X165653000Y-114584999D01*
X165653000Y-114815000D01*
X165683020Y-115043023D01*
X165683020Y-115043024D01*
X165742543Y-115265167D01*
X165742544Y-115265171D01*
X165742546Y-115265176D01*
X165788010Y-115374935D01*
X165830558Y-115477657D01*
X165830559Y-115477660D01*
X165945554Y-115676837D01*
X165945556Y-115676840D01*
X165982082Y-115724442D01*
X166054639Y-115819001D01*
X166085566Y-115859305D01*
X166248195Y-116021934D01*
X166430660Y-116161944D01*
X166629839Y-116276940D01*
X166842324Y-116364954D01*
X166908323Y-116382638D01*
X167064475Y-116424479D01*
X167064477Y-116424479D01*
X167064480Y-116424480D01*
X167292504Y-116454500D01*
X167292510Y-116454500D01*
X167522490Y-116454500D01*
X167522496Y-116454500D01*
X167750520Y-116424480D01*
X167972676Y-116364954D01*
X168185161Y-116276940D01*
X168384340Y-116161944D01*
X168566805Y-116021934D01*
X168729434Y-115859305D01*
X168869444Y-115676840D01*
X168984440Y-115477661D01*
X169072454Y-115265176D01*
X169131980Y-115043020D01*
X169162000Y-114814996D01*
X169162000Y-114585004D01*
X169131980Y-114356980D01*
X169129320Y-114347054D01*
X169072456Y-114134832D01*
X169072454Y-114134824D01*
X168984440Y-113922339D01*
X168869444Y-113723160D01*
X168729434Y-113540695D01*
X168566805Y-113378066D01*
X168566801Y-113378063D01*
X168566799Y-113378061D01*
X168384337Y-113238054D01*
X168277076Y-113176127D01*
X168247956Y-113138176D01*
X168254199Y-113090750D01*
X168292150Y-113061630D01*
X168308326Y-113059500D01*
X169937500Y-113059500D01*
X169937501Y-113059500D01*
X170036807Y-113039746D01*
X170081001Y-113021440D01*
X170165187Y-112965189D01*
X170221440Y-112881001D01*
X170238578Y-112839626D01*
X170239626Y-112837409D01*
X170239746Y-112836807D01*
X170239747Y-112836806D01*
X170259500Y-112737500D01*
X170259500Y-109570115D01*
X170277806Y-109525921D01*
X170322000Y-109507615D01*
X170343841Y-109511555D01*
X170441658Y-109548040D01*
X170501745Y-109554500D01*
X173998254Y-109554499D01*
X174058342Y-109548040D01*
X174194267Y-109497342D01*
X174310404Y-109410404D01*
X174397342Y-109294267D01*
X174448040Y-109158342D01*
X174454500Y-109098255D01*
X174454499Y-107701746D01*
X174448040Y-107641658D01*
X174397342Y-107505733D01*
X174310404Y-107389596D01*
X174194267Y-107302658D01*
X174194265Y-107302657D01*
X174194263Y-107302656D01*
X174058343Y-107251960D01*
X173998255Y-107245500D01*
X170501753Y-107245500D01*
X170501736Y-107245501D01*
X170441654Y-107251960D01*
X170343841Y-107288443D01*
X170296037Y-107286736D01*
X170263441Y-107251725D01*
X170259500Y-107229884D01*
X170259500Y-98170115D01*
X170277806Y-98125921D01*
X170322000Y-98107615D01*
X170343841Y-98111555D01*
X170441658Y-98148040D01*
X170501745Y-98154500D01*
X173998254Y-98154499D01*
X174058342Y-98148040D01*
X174194267Y-98097342D01*
X174310404Y-98010404D01*
X174397342Y-97894267D01*
X174448040Y-97758342D01*
X174454500Y-97698255D01*
X174454499Y-96301746D01*
X174448040Y-96241658D01*
X174397342Y-96105733D01*
X174310404Y-95989596D01*
X174194267Y-95902658D01*
X174194265Y-95902657D01*
X174194263Y-95902656D01*
X174058343Y-95851960D01*
X173998255Y-95845500D01*
X170501753Y-95845500D01*
X170501736Y-95845501D01*
X170441656Y-95851960D01*
X170305736Y-95902656D01*
X170305731Y-95902659D01*
X170189596Y-95989596D01*
X170102659Y-96105731D01*
X170102656Y-96105736D01*
X170051960Y-96241656D01*
X170045500Y-96301737D01*
X170045500Y-96485826D01*
X170027194Y-96530020D01*
X169983000Y-96548326D01*
X169970807Y-96547125D01*
X169937500Y-96540500D01*
X163062499Y-96540500D01*
X163046023Y-96543777D01*
X162963193Y-96560253D01*
X162919001Y-96578559D01*
X162918997Y-96578561D01*
X162834813Y-96634810D01*
X162834810Y-96634813D01*
X162778561Y-96718997D01*
X162778560Y-96718998D01*
X162761431Y-96760351D01*
X162760374Y-96762585D01*
X162740500Y-96862499D01*
X162740500Y-99892207D01*
X162722194Y-99936401D01*
X162678000Y-99954707D01*
X162633806Y-99936401D01*
X162563719Y-99866315D01*
X161768599Y-99071194D01*
X161750293Y-99027000D01*
X161768599Y-98982806D01*
X161807877Y-98966535D01*
X161807686Y-98964955D01*
X161811428Y-98964500D01*
X161811435Y-98964500D01*
X161959863Y-98927915D01*
X162095223Y-98856873D01*
X162209648Y-98755501D01*
X162296488Y-98629692D01*
X162350697Y-98486756D01*
X162350698Y-98486752D01*
X162369123Y-98335002D01*
X162369123Y-98334997D01*
X162350698Y-98183247D01*
X162350697Y-98183243D01*
X162296488Y-98040308D01*
X162209650Y-97914501D01*
X162209646Y-97914497D01*
X162095222Y-97813126D01*
X161959865Y-97742086D01*
X161959864Y-97742085D01*
X161959863Y-97742085D01*
X161822572Y-97708245D01*
X161811436Y-97705500D01*
X161811435Y-97705500D01*
X161658565Y-97705500D01*
X161658563Y-97705500D01*
X161570551Y-97727194D01*
X161510137Y-97742085D01*
X161510136Y-97742085D01*
X161510134Y-97742086D01*
X161374777Y-97813126D01*
X161288252Y-97889782D01*
X161246807Y-97905500D01*
X161161366Y-97905500D01*
X161117172Y-97887194D01*
X161082746Y-97852768D01*
X160969992Y-97795317D01*
X160969988Y-97795316D01*
X160876453Y-97780501D01*
X160876443Y-97780500D01*
X160876442Y-97780500D01*
X160523558Y-97780500D01*
X160523556Y-97780500D01*
X160523546Y-97780501D01*
X160430011Y-97795316D01*
X160430007Y-97795317D01*
X160317253Y-97852768D01*
X160311194Y-97858828D01*
X160267000Y-97877134D01*
X160222806Y-97858828D01*
X160204500Y-97814634D01*
X160204500Y-97226279D01*
X160222805Y-97182086D01*
X164196586Y-93208304D01*
X164240780Y-93189999D01*
X164362411Y-93189999D01*
X164362418Y-93189999D01*
X164418666Y-93183953D01*
X164545903Y-93136496D01*
X164571992Y-93116965D01*
X164609447Y-93104500D01*
X168809278Y-93104500D01*
X168853472Y-93122806D01*
X168860475Y-93131152D01*
X168985326Y-93309458D01*
X169140541Y-93464673D01*
X169199858Y-93506207D01*
X169320354Y-93590579D01*
X169320355Y-93590579D01*
X169320357Y-93590581D01*
X169469221Y-93659996D01*
X169519297Y-93683347D01*
X169519302Y-93683348D01*
X169519304Y-93683349D01*
X169731318Y-93740159D01*
X169731319Y-93740159D01*
X169731326Y-93740161D01*
X169911736Y-93755944D01*
X169949998Y-93759292D01*
X169950000Y-93759292D01*
X169950002Y-93759292D01*
X169985185Y-93756213D01*
X170168674Y-93740161D01*
X170380703Y-93683347D01*
X170563208Y-93598244D01*
X170579642Y-93590581D01*
X170579642Y-93590580D01*
X170579646Y-93590579D01*
X170759457Y-93464674D01*
X170914674Y-93309457D01*
X171040579Y-93129646D01*
X171133347Y-92930703D01*
X171190161Y-92718674D01*
X171209292Y-92500000D01*
X171190161Y-92281326D01*
X171178305Y-92237081D01*
X171133349Y-92069304D01*
X171133348Y-92069302D01*
X171133347Y-92069297D01*
X171049552Y-91889596D01*
X171040581Y-91870357D01*
X171040579Y-91870355D01*
X171040579Y-91870354D01*
X170928846Y-91710783D01*
X170914673Y-91690541D01*
X170759458Y-91535326D01*
X170580377Y-91409933D01*
X170579646Y-91409421D01*
X170579644Y-91409420D01*
X170579642Y-91409418D01*
X170380708Y-91316655D01*
X170380695Y-91316650D01*
X170168681Y-91259840D01*
X170168675Y-91259839D01*
X169950002Y-91240708D01*
X169949998Y-91240708D01*
X169731324Y-91259839D01*
X169731318Y-91259840D01*
X169519304Y-91316650D01*
X169519291Y-91316655D01*
X169320357Y-91409418D01*
X169320355Y-91409420D01*
X169140541Y-91535326D01*
X168985326Y-91690541D01*
X168860475Y-91868848D01*
X168820131Y-91894550D01*
X168809278Y-91895500D01*
X164609447Y-91895500D01*
X164571992Y-91883034D01*
X164545903Y-91863504D01*
X164545902Y-91863503D01*
X164545900Y-91863502D01*
X164418668Y-91816047D01*
X164382338Y-91812141D01*
X164340354Y-91789215D01*
X164326878Y-91743317D01*
X164349804Y-91701333D01*
X164382339Y-91687857D01*
X164418666Y-91683953D01*
X164545903Y-91636496D01*
X164654615Y-91555115D01*
X164735996Y-91446403D01*
X164783453Y-91319166D01*
X164789500Y-91262919D01*
X164789499Y-90737082D01*
X164783453Y-90680834D01*
X164756855Y-90609523D01*
X164735997Y-90553599D01*
X164735996Y-90553598D01*
X164735996Y-90553597D01*
X164673381Y-90469953D01*
X164666966Y-90461383D01*
X164654500Y-90423928D01*
X164654500Y-89576070D01*
X164666965Y-89538616D01*
X164735996Y-89446403D01*
X164783453Y-89319166D01*
X164789500Y-89262919D01*
X164789499Y-88737082D01*
X164783453Y-88680834D01*
X164754634Y-88603568D01*
X164735997Y-88553599D01*
X164735996Y-88553598D01*
X164735996Y-88553597D01*
X164654615Y-88444885D01*
X164545903Y-88363504D01*
X164545902Y-88363503D01*
X164545900Y-88363502D01*
X164418668Y-88316047D01*
X164382338Y-88312141D01*
X164340354Y-88289215D01*
X164326878Y-88243317D01*
X164349804Y-88201333D01*
X164382339Y-88187857D01*
X164418666Y-88183953D01*
X164545903Y-88136496D01*
X164571992Y-88116965D01*
X164609447Y-88104500D01*
X168633001Y-88104500D01*
X168677195Y-88122806D01*
X168695501Y-88167000D01*
X168695501Y-88525068D01*
X168710265Y-88599299D01*
X168710267Y-88599303D01*
X168766515Y-88683484D01*
X168850697Y-88739733D01*
X168850699Y-88739734D01*
X168924933Y-88754500D01*
X170975066Y-88754499D01*
X171049301Y-88739734D01*
X171133484Y-88683484D01*
X171189734Y-88599301D01*
X171204500Y-88525067D01*
X171204499Y-86474934D01*
X171189734Y-86400699D01*
X171189732Y-86400696D01*
X171133484Y-86316515D01*
X171049302Y-86260266D01*
X171049300Y-86260265D01*
X170975067Y-86245500D01*
X168924935Y-86245500D01*
X168924931Y-86245501D01*
X168850700Y-86260265D01*
X168850696Y-86260267D01*
X168766515Y-86316515D01*
X168710266Y-86400697D01*
X168710265Y-86400699D01*
X168695500Y-86474932D01*
X168695500Y-86833000D01*
X168677194Y-86877194D01*
X168633000Y-86895500D01*
X164609447Y-86895500D01*
X164571992Y-86883034D01*
X164545904Y-86863505D01*
X164545900Y-86863502D01*
X164418667Y-86816047D01*
X164362419Y-86810000D01*
X163737589Y-86810000D01*
X163737572Y-86810001D01*
X163681334Y-86816047D01*
X163681329Y-86816048D01*
X163554099Y-86863502D01*
X163554095Y-86863505D01*
X163528008Y-86883034D01*
X163490553Y-86895500D01*
X162779583Y-86895500D01*
X162620416Y-86895500D01*
X162620414Y-86895500D01*
X162620409Y-86895501D01*
X162466676Y-86936694D01*
X162466672Y-86936695D01*
X162328826Y-87016281D01*
X162328822Y-87016284D01*
X159732914Y-89612194D01*
X159688720Y-89630500D01*
X154181217Y-89630500D01*
X154137023Y-89612194D01*
X154119670Y-89575675D01*
X154119553Y-89575701D01*
X154119446Y-89575205D01*
X154119040Y-89574349D01*
X154118837Y-89572362D01*
X154114192Y-89558343D01*
X154062808Y-89403273D01*
X153969294Y-89251663D01*
X153843337Y-89125706D01*
X153843336Y-89125705D01*
X153758251Y-89073224D01*
X153730247Y-89034442D01*
X153737867Y-88987218D01*
X153770417Y-88961037D01*
X153895047Y-88917428D01*
X154002859Y-88837859D01*
X154082428Y-88730047D01*
X154126684Y-88603571D01*
X154129500Y-88573542D01*
X154129500Y-88086458D01*
X154126684Y-88056429D01*
X154082428Y-87929953D01*
X154002859Y-87822141D01*
X153948953Y-87782356D01*
X153895048Y-87742572D01*
X153831809Y-87720444D01*
X153768571Y-87698316D01*
X153768569Y-87698315D01*
X153768568Y-87698315D01*
X153748836Y-87696465D01*
X153738542Y-87695500D01*
X152311458Y-87695500D01*
X152301976Y-87696389D01*
X152281431Y-87698315D01*
X152281429Y-87698316D01*
X152154951Y-87742572D01*
X152059138Y-87813287D01*
X152022024Y-87825500D01*
X150603581Y-87825500D01*
X150603580Y-87825500D01*
X150603574Y-87825501D01*
X150475270Y-87859880D01*
X150475264Y-87859883D01*
X150360233Y-87926297D01*
X150360224Y-87926304D01*
X149466194Y-88820335D01*
X149422000Y-88838641D01*
X149377806Y-88820335D01*
X149359500Y-88776141D01*
X149359500Y-85462499D01*
X149339746Y-85363193D01*
X149338569Y-85360351D01*
X149321440Y-85318999D01*
X149265189Y-85234813D01*
X149265186Y-85234810D01*
X149181002Y-85178561D01*
X149180998Y-85178558D01*
X149139649Y-85161431D01*
X149137414Y-85160374D01*
X149037500Y-85140500D01*
X145562499Y-85140500D01*
X145546023Y-85143777D01*
X145463193Y-85160253D01*
X145419001Y-85178559D01*
X145418997Y-85178561D01*
X145334813Y-85234810D01*
X145334810Y-85234813D01*
X145278561Y-85318997D01*
X145278560Y-85318998D01*
X145261431Y-85360351D01*
X145260374Y-85362585D01*
X145240500Y-85462499D01*
X145240500Y-88298000D01*
X145222194Y-88342194D01*
X145178000Y-88360500D01*
X144672928Y-88360500D01*
X144628734Y-88342194D01*
X144614370Y-88319844D01*
X144600342Y-88282233D01*
X144513404Y-88166096D01*
X144397267Y-88079158D01*
X144397265Y-88079157D01*
X144397263Y-88079156D01*
X144261343Y-88028460D01*
X144201255Y-88022000D01*
X141798753Y-88022000D01*
X141798736Y-88022001D01*
X141738656Y-88028460D01*
X141602736Y-88079156D01*
X141602731Y-88079159D01*
X141486596Y-88166096D01*
X141399659Y-88282231D01*
X141399656Y-88282236D01*
X141348960Y-88418156D01*
X141342500Y-88478237D01*
X141342500Y-89439746D01*
X141342501Y-89439763D01*
X141348960Y-89499843D01*
X141399656Y-89635763D01*
X141399657Y-89635765D01*
X141399658Y-89635767D01*
X141486596Y-89751904D01*
X141602733Y-89838842D01*
X141738658Y-89889540D01*
X141798745Y-89896000D01*
X144201254Y-89895999D01*
X144261342Y-89889540D01*
X144397267Y-89838842D01*
X144513404Y-89751904D01*
X144600342Y-89635767D01*
X144609894Y-89610158D01*
X144642490Y-89575148D01*
X144668453Y-89569500D01*
X145178000Y-89569500D01*
X145222194Y-89587806D01*
X145240500Y-89632000D01*
X145240500Y-89937500D01*
X145240499Y-89937500D01*
X145260253Y-90036806D01*
X145273197Y-90068053D01*
X145278560Y-90081001D01*
X145278561Y-90081002D01*
X145334810Y-90165186D01*
X145334813Y-90165189D01*
X145354500Y-90178343D01*
X145418999Y-90221440D01*
X145460365Y-90238574D01*
X145462588Y-90239626D01*
X145463193Y-90239746D01*
X145463194Y-90239747D01*
X145481839Y-90243455D01*
X145521612Y-90270030D01*
X145530945Y-90316946D01*
X145506762Y-90355040D01*
X145497140Y-90362141D01*
X145417572Y-90469951D01*
X145373316Y-90596429D01*
X145373315Y-90596431D01*
X145370500Y-90626461D01*
X145370500Y-91113538D01*
X145373315Y-91143568D01*
X145373315Y-91143569D01*
X145373316Y-91143571D01*
X145395010Y-91205569D01*
X145417572Y-91270048D01*
X145453824Y-91319167D01*
X145497141Y-91377859D01*
X145539902Y-91409418D01*
X145604951Y-91457427D01*
X145604952Y-91457427D01*
X145604953Y-91457428D01*
X145731429Y-91501684D01*
X145761458Y-91504500D01*
X145761462Y-91504500D01*
X147188538Y-91504500D01*
X147188542Y-91504500D01*
X147218571Y-91501684D01*
X147345047Y-91457428D01*
X147417657Y-91403838D01*
X147464082Y-91392325D01*
X147498962Y-91409933D01*
X147727194Y-91638164D01*
X147745500Y-91682358D01*
X147745500Y-93884879D01*
X147738688Y-93913252D01*
X147720040Y-93949851D01*
X147720037Y-93949859D01*
X147705501Y-94041637D01*
X147705500Y-94041652D01*
X147705500Y-94378344D01*
X147705501Y-94378349D01*
X147720039Y-94470146D01*
X147776411Y-94580783D01*
X147828631Y-94633003D01*
X147846937Y-94677197D01*
X147828631Y-94721391D01*
X147777768Y-94772253D01*
X147720317Y-94885007D01*
X147720316Y-94885011D01*
X147705501Y-94978546D01*
X147705500Y-94978560D01*
X147705500Y-95351443D01*
X147720614Y-95446868D01*
X147709447Y-95493382D01*
X147668660Y-95518376D01*
X147625093Y-95509223D01*
X147511736Y-95436373D01*
X147511727Y-95436369D01*
X147372538Y-95395500D01*
X147372536Y-95395500D01*
X147227464Y-95395500D01*
X147227462Y-95395500D01*
X147088272Y-95436369D01*
X147088263Y-95436373D01*
X146966226Y-95514801D01*
X146871225Y-95624438D01*
X146871222Y-95624443D01*
X146810958Y-95756402D01*
X146810957Y-95756405D01*
X146791870Y-95889160D01*
X146774200Y-95924459D01*
X144996467Y-97702194D01*
X144952273Y-97720500D01*
X144927462Y-97720500D01*
X144788272Y-97761369D01*
X144788263Y-97761373D01*
X144666226Y-97839801D01*
X144571225Y-97949438D01*
X144571222Y-97949443D01*
X144510958Y-98081402D01*
X144510957Y-98081405D01*
X144490312Y-98225000D01*
X144510957Y-98368594D01*
X144510958Y-98368597D01*
X144571222Y-98500556D01*
X144571225Y-98500561D01*
X144666226Y-98610198D01*
X144769127Y-98676328D01*
X144788268Y-98688629D01*
X144927461Y-98729499D01*
X144927463Y-98729500D01*
X144927464Y-98729500D01*
X145072537Y-98729500D01*
X145072537Y-98729499D01*
X145211732Y-98688629D01*
X145257535Y-98659192D01*
X145333773Y-98610198D01*
X145333775Y-98610196D01*
X145428777Y-98500558D01*
X145489042Y-98368596D01*
X145509688Y-98225000D01*
X145509688Y-98224998D01*
X145509688Y-98220529D01*
X145511557Y-98220529D01*
X145521763Y-98180478D01*
X145527610Y-98173727D01*
X147278533Y-96422806D01*
X147322727Y-96404500D01*
X147372537Y-96404500D01*
X147372537Y-96404499D01*
X147479892Y-96372978D01*
X147527453Y-96378091D01*
X147557468Y-96415338D01*
X147560000Y-96432946D01*
X147560000Y-97012410D01*
X147560001Y-97012427D01*
X147566047Y-97068665D01*
X147566048Y-97068670D01*
X147613502Y-97195900D01*
X147613503Y-97195902D01*
X147613504Y-97195903D01*
X147694885Y-97304615D01*
X147803597Y-97385996D01*
X147803598Y-97385996D01*
X147803599Y-97385997D01*
X147841140Y-97399999D01*
X147930834Y-97433453D01*
X147987081Y-97439500D01*
X148183000Y-97439499D01*
X148227194Y-97457805D01*
X148245500Y-97501999D01*
X148245500Y-98183000D01*
X148227194Y-98227194D01*
X148183000Y-98245500D01*
X147972726Y-98245500D01*
X147928532Y-98227194D01*
X147925799Y-98224461D01*
X147908129Y-98189162D01*
X147889042Y-98056404D01*
X147828777Y-97924442D01*
X147828774Y-97924438D01*
X147733773Y-97814801D01*
X147611736Y-97736373D01*
X147611727Y-97736369D01*
X147472538Y-97695500D01*
X147472536Y-97695500D01*
X147327464Y-97695500D01*
X147327462Y-97695500D01*
X147188272Y-97736369D01*
X147188263Y-97736373D01*
X147066226Y-97814801D01*
X146971225Y-97924438D01*
X146971222Y-97924443D01*
X146910958Y-98056402D01*
X146910957Y-98056405D01*
X146890312Y-98200000D01*
X146910957Y-98343594D01*
X146910958Y-98343597D01*
X146971222Y-98475556D01*
X146971225Y-98475561D01*
X146999700Y-98508423D01*
X147014807Y-98553810D01*
X146993395Y-98596586D01*
X146986257Y-98601930D01*
X146966223Y-98614805D01*
X146871225Y-98724438D01*
X146871222Y-98724443D01*
X146810958Y-98856402D01*
X146810957Y-98856405D01*
X146790312Y-99000000D01*
X146810957Y-99143594D01*
X146810958Y-99143597D01*
X146871222Y-99275556D01*
X146871225Y-99275561D01*
X146893763Y-99301571D01*
X146908870Y-99346958D01*
X146898497Y-99377221D01*
X146878563Y-99407056D01*
X146878560Y-99407061D01*
X146861431Y-99448414D01*
X146860374Y-99450648D01*
X146840500Y-99550562D01*
X146840500Y-99578120D01*
X146834852Y-99604083D01*
X146810958Y-99656402D01*
X146810957Y-99656405D01*
X146790312Y-99800000D01*
X146810957Y-99943595D01*
X146834852Y-99995915D01*
X146840500Y-100021879D01*
X146840500Y-100237500D01*
X146840499Y-100237500D01*
X146860253Y-100336806D01*
X146873197Y-100368053D01*
X146878560Y-100381001D01*
X146906341Y-100422579D01*
X146930805Y-100459191D01*
X146940137Y-100506107D01*
X146913561Y-100545881D01*
X146866645Y-100555213D01*
X146861230Y-100553882D01*
X146747538Y-100520500D01*
X146747536Y-100520500D01*
X146602464Y-100520500D01*
X146602462Y-100520500D01*
X146463272Y-100561369D01*
X146463263Y-100561373D01*
X146341226Y-100639801D01*
X146246225Y-100749438D01*
X146246222Y-100749443D01*
X146185958Y-100881402D01*
X146185957Y-100881405D01*
X146165312Y-101025000D01*
X146185957Y-101168594D01*
X146185958Y-101168597D01*
X146246222Y-101300556D01*
X146246225Y-101300561D01*
X146341226Y-101410198D01*
X146463263Y-101488626D01*
X146463268Y-101488629D01*
X146594573Y-101527183D01*
X146602461Y-101529499D01*
X146602463Y-101529500D01*
X146602464Y-101529500D01*
X146747536Y-101529500D01*
X146780435Y-101519840D01*
X146827997Y-101524953D01*
X146858012Y-101562199D01*
X146859908Y-101588702D01*
X146842120Y-101712426D01*
X146840312Y-101725000D01*
X146843778Y-101749111D01*
X146860957Y-101868594D01*
X146860958Y-101868597D01*
X146921222Y-102000556D01*
X146921225Y-102000561D01*
X147009424Y-102102348D01*
X147024531Y-102147736D01*
X147009426Y-102184204D01*
X146996225Y-102199439D01*
X146996223Y-102199441D01*
X146935957Y-102331405D01*
X146915312Y-102475000D01*
X146935957Y-102618594D01*
X146935958Y-102618597D01*
X146996222Y-102750556D01*
X146996225Y-102750561D01*
X147091226Y-102860198D01*
X147213263Y-102938626D01*
X147213268Y-102938629D01*
X147298718Y-102963719D01*
X147352461Y-102979499D01*
X147352463Y-102979500D01*
X147352464Y-102979500D01*
X147497537Y-102979500D01*
X147497537Y-102979499D01*
X147636732Y-102938629D01*
X147682535Y-102909192D01*
X147758773Y-102860198D01*
X147767610Y-102850000D01*
X147853777Y-102750558D01*
X147914042Y-102618596D01*
X147933130Y-102485835D01*
X147950797Y-102450540D01*
X148128533Y-102272806D01*
X148172727Y-102254500D01*
X148222555Y-102254500D01*
X148266749Y-102272806D01*
X148279728Y-102291752D01*
X148294437Y-102325065D01*
X148294438Y-102325066D01*
X148339822Y-102370450D01*
X148358128Y-102414644D01*
X148339822Y-102458838D01*
X148182332Y-102616329D01*
X148116329Y-102682331D01*
X148069659Y-102763168D01*
X148069658Y-102763170D01*
X148045500Y-102853323D01*
X148045500Y-103396124D01*
X148027194Y-103440318D01*
X147983000Y-103458624D01*
X147973226Y-103457855D01*
X147958352Y-103455500D01*
X147621655Y-103455500D01*
X147621650Y-103455501D01*
X147529853Y-103470039D01*
X147419216Y-103526411D01*
X147366995Y-103578631D01*
X147322801Y-103596936D01*
X147278608Y-103578630D01*
X147227746Y-103527768D01*
X147114992Y-103470317D01*
X147114988Y-103470316D01*
X147021453Y-103455501D01*
X147021443Y-103455500D01*
X147021442Y-103455500D01*
X146648558Y-103455500D01*
X146648556Y-103455500D01*
X146648546Y-103455501D01*
X146555011Y-103470316D01*
X146555007Y-103470317D01*
X146442253Y-103527768D01*
X146352768Y-103617253D01*
X146295317Y-103730007D01*
X146295316Y-103730011D01*
X146280501Y-103823546D01*
X146280500Y-103823560D01*
X146280500Y-104027272D01*
X146262194Y-104071466D01*
X146148998Y-104184661D01*
X146104804Y-104202967D01*
X146060610Y-104184661D01*
X146047952Y-104166430D01*
X146043662Y-104157037D01*
X146028777Y-104124442D01*
X146028772Y-104124436D01*
X145933773Y-104014801D01*
X145811736Y-103936373D01*
X145811727Y-103936369D01*
X145672538Y-103895500D01*
X145672536Y-103895500D01*
X145527464Y-103895500D01*
X145527462Y-103895500D01*
X145388272Y-103936369D01*
X145388263Y-103936373D01*
X145266226Y-104014801D01*
X145171226Y-104124436D01*
X145171222Y-104124442D01*
X145132624Y-104208963D01*
X145097614Y-104241559D01*
X145075772Y-104245500D01*
X144717000Y-104245500D01*
X144672806Y-104227194D01*
X144654500Y-104183000D01*
X144654500Y-103542000D01*
X144672806Y-103497806D01*
X144717000Y-103479500D01*
X145221671Y-103479500D01*
X145221676Y-103479499D01*
X145254557Y-103470688D01*
X145311832Y-103455341D01*
X145392668Y-103408671D01*
X145714105Y-103087232D01*
X145714112Y-103087227D01*
X145733339Y-103068000D01*
X145783671Y-103017668D01*
X145830341Y-102936832D01*
X145848626Y-102868592D01*
X145854499Y-102846676D01*
X145854500Y-102846670D01*
X145854500Y-102832631D01*
X145872806Y-102788437D01*
X145895158Y-102774072D01*
X145995900Y-102736497D01*
X145995899Y-102736497D01*
X145995903Y-102736496D01*
X146104615Y-102655115D01*
X146185996Y-102546403D01*
X146233453Y-102419166D01*
X146239500Y-102362919D01*
X146239499Y-101837082D01*
X146233453Y-101780834D01*
X146205154Y-101704961D01*
X146185997Y-101653599D01*
X146185996Y-101653598D01*
X146185996Y-101653597D01*
X146104615Y-101544885D01*
X145995903Y-101463504D01*
X145995902Y-101463503D01*
X145995900Y-101463502D01*
X145868667Y-101416047D01*
X145812419Y-101410000D01*
X145187589Y-101410000D01*
X145187572Y-101410001D01*
X145131334Y-101416047D01*
X145131329Y-101416048D01*
X145004099Y-101463502D01*
X145004095Y-101463505D01*
X144895384Y-101544885D01*
X144868384Y-101580953D01*
X144827245Y-101605361D01*
X144780895Y-101593530D01*
X144761707Y-101569911D01*
X144746972Y-101538311D01*
X144746970Y-101538309D01*
X144746970Y-101538308D01*
X144661691Y-101453029D01*
X144552381Y-101402056D01*
X144502582Y-101395500D01*
X144502576Y-101395500D01*
X143947424Y-101395500D01*
X143947417Y-101395500D01*
X143897618Y-101402056D01*
X143788308Y-101453029D01*
X143703029Y-101538308D01*
X143652056Y-101647618D01*
X143645500Y-101697417D01*
X143645500Y-101952582D01*
X143652056Y-102002381D01*
X143703031Y-102111696D01*
X143704757Y-102114161D01*
X143705278Y-102116513D01*
X143705339Y-102116644D01*
X143705310Y-102116657D01*
X143715103Y-102160864D01*
X143704757Y-102185839D01*
X143703031Y-102188303D01*
X143652056Y-102297618D01*
X143645500Y-102347417D01*
X143645500Y-102602582D01*
X143652056Y-102652381D01*
X143703031Y-102761696D01*
X143704757Y-102764161D01*
X143705278Y-102766513D01*
X143705339Y-102766644D01*
X143705310Y-102766657D01*
X143715103Y-102810864D01*
X143704757Y-102835839D01*
X143703031Y-102838303D01*
X143652056Y-102947618D01*
X143645500Y-102997417D01*
X143645500Y-103252582D01*
X143652056Y-103302381D01*
X143677333Y-103356586D01*
X143679420Y-103404376D01*
X143647103Y-103439644D01*
X143620689Y-103445500D01*
X143527462Y-103445500D01*
X143388272Y-103486369D01*
X143388263Y-103486373D01*
X143266226Y-103564801D01*
X143171225Y-103674438D01*
X143171222Y-103674443D01*
X143110958Y-103806402D01*
X143110957Y-103806405D01*
X143090312Y-103950000D01*
X143110957Y-104093594D01*
X143110958Y-104093597D01*
X143139930Y-104157037D01*
X143141637Y-104204842D01*
X143109041Y-104239852D01*
X143083078Y-104245500D01*
X141202499Y-104245500D01*
X141158305Y-104227194D01*
X141139999Y-104183000D01*
X141139999Y-103737588D01*
X141139998Y-103737572D01*
X141139185Y-103730007D01*
X141133953Y-103681334D01*
X141110052Y-103617253D01*
X141103122Y-103598672D01*
X141104829Y-103550867D01*
X141139839Y-103518271D01*
X141187644Y-103519978D01*
X141187952Y-103520120D01*
X141247618Y-103547943D01*
X141297424Y-103554500D01*
X141297430Y-103554500D01*
X141852570Y-103554500D01*
X141852576Y-103554500D01*
X141902382Y-103547943D01*
X142011689Y-103496972D01*
X142096972Y-103411689D01*
X142147943Y-103302382D01*
X142154500Y-103252576D01*
X142154500Y-102997424D01*
X142147943Y-102947618D01*
X142096972Y-102838311D01*
X142096970Y-102838309D01*
X142096970Y-102838308D01*
X142095245Y-102835844D01*
X142094723Y-102833489D01*
X142094661Y-102833356D01*
X142094690Y-102833342D01*
X142084895Y-102789142D01*
X142095245Y-102764156D01*
X142096970Y-102761691D01*
X142096972Y-102761689D01*
X142147943Y-102652382D01*
X142154500Y-102602576D01*
X142154500Y-102347424D01*
X142147943Y-102297618D01*
X142096972Y-102188311D01*
X142096970Y-102188309D01*
X142096970Y-102188308D01*
X142095245Y-102185844D01*
X142094723Y-102183489D01*
X142094661Y-102183356D01*
X142094690Y-102183342D01*
X142084895Y-102139142D01*
X142095245Y-102114156D01*
X142096970Y-102111691D01*
X142096972Y-102111689D01*
X142147943Y-102002382D01*
X142154500Y-101952576D01*
X142154500Y-101697424D01*
X142147943Y-101647618D01*
X142096972Y-101538311D01*
X142096970Y-101538309D01*
X142096970Y-101538308D01*
X142095245Y-101535844D01*
X142094723Y-101533489D01*
X142094661Y-101533356D01*
X142094690Y-101533342D01*
X142084895Y-101489142D01*
X142095245Y-101464156D01*
X142096970Y-101461691D01*
X142096972Y-101461689D01*
X142147943Y-101352382D01*
X142154500Y-101302576D01*
X142154500Y-101047424D01*
X142147943Y-100997618D01*
X142096972Y-100888311D01*
X142096970Y-100888309D01*
X142096970Y-100888308D01*
X142011691Y-100803029D01*
X141902381Y-100752056D01*
X141852582Y-100745500D01*
X141852576Y-100745500D01*
X141297424Y-100745500D01*
X141297417Y-100745500D01*
X141247618Y-100752056D01*
X141138308Y-100803029D01*
X141133827Y-100806167D01*
X141132021Y-100803587D01*
X141097550Y-100817807D01*
X141053383Y-100799436D01*
X141047408Y-100792430D01*
X140957746Y-100702768D01*
X140844992Y-100645317D01*
X140844988Y-100645316D01*
X140751453Y-100630501D01*
X140751443Y-100630500D01*
X140751442Y-100630500D01*
X140378558Y-100630500D01*
X140378556Y-100630500D01*
X140378546Y-100630501D01*
X140285011Y-100645316D01*
X140285007Y-100645317D01*
X140172253Y-100702768D01*
X140121391Y-100753631D01*
X140077197Y-100771937D01*
X140033003Y-100753631D01*
X139980783Y-100701411D01*
X139870149Y-100645040D01*
X139870139Y-100645037D01*
X139778362Y-100630501D01*
X139778350Y-100630500D01*
X139778349Y-100630500D01*
X139778347Y-100630500D01*
X139441655Y-100630500D01*
X139441650Y-100630501D01*
X139349853Y-100645039D01*
X139239216Y-100701411D01*
X139163434Y-100777194D01*
X139119240Y-100795500D01*
X138978803Y-100795500D01*
X138978787Y-100795499D01*
X138974962Y-100795499D01*
X138875038Y-100795499D01*
X138875032Y-100795499D01*
X138808565Y-100813311D01*
X138808564Y-100813311D01*
X138778521Y-100821360D01*
X138778518Y-100821361D01*
X138691979Y-100871325D01*
X138691976Y-100871328D01*
X138621324Y-100941981D01*
X137741981Y-101821324D01*
X137671328Y-101891976D01*
X137671325Y-101891979D01*
X137621362Y-101978516D01*
X137621362Y-101978519D01*
X137595499Y-102075032D01*
X137595499Y-102179993D01*
X137595500Y-102180006D01*
X137595500Y-102769261D01*
X137580235Y-102810189D01*
X137546223Y-102849441D01*
X137546221Y-102849444D01*
X137485958Y-102981402D01*
X137485957Y-102981405D01*
X137465312Y-103125000D01*
X125500000Y-103125000D01*
X125500000Y-96998737D01*
X133263000Y-96998737D01*
X133263000Y-99401246D01*
X133263001Y-99401263D01*
X133269460Y-99461343D01*
X133320156Y-99597263D01*
X133320157Y-99597265D01*
X133320158Y-99597267D01*
X133407096Y-99713404D01*
X133523233Y-99800342D01*
X133659158Y-99851040D01*
X133719245Y-99857500D01*
X134680754Y-99857499D01*
X134740842Y-99851040D01*
X134876767Y-99800342D01*
X134992904Y-99713404D01*
X135079842Y-99597267D01*
X135130540Y-99461342D01*
X135137000Y-99401255D01*
X135136999Y-96998746D01*
X135130540Y-96938658D01*
X135079842Y-96802733D01*
X134992904Y-96686596D01*
X134876767Y-96599658D01*
X134876765Y-96599657D01*
X134876763Y-96599656D01*
X134795158Y-96569218D01*
X134760148Y-96536622D01*
X134754500Y-96510659D01*
X134754500Y-95683537D01*
X134772806Y-95639343D01*
X134779534Y-95633511D01*
X134810404Y-95610404D01*
X134897342Y-95494267D01*
X134948040Y-95358342D01*
X134954500Y-95298255D01*
X134954499Y-92201746D01*
X134954498Y-92201737D01*
X135445500Y-92201737D01*
X135445500Y-95298246D01*
X135445501Y-95298263D01*
X135451960Y-95358343D01*
X135502656Y-95494263D01*
X135502657Y-95494265D01*
X135502658Y-95494267D01*
X135589596Y-95610404D01*
X135705733Y-95697342D01*
X135705735Y-95697342D01*
X135705737Y-95697344D01*
X135779841Y-95724983D01*
X135814852Y-95757578D01*
X135820500Y-95783542D01*
X135820500Y-95944261D01*
X135805235Y-95985189D01*
X135771223Y-96024441D01*
X135771221Y-96024444D01*
X135710958Y-96156402D01*
X135710957Y-96156405D01*
X135690312Y-96300000D01*
X135710957Y-96443594D01*
X135710958Y-96443597D01*
X135771222Y-96575556D01*
X135771225Y-96575561D01*
X135866226Y-96685198D01*
X135987591Y-96763194D01*
X135988268Y-96763629D01*
X136127461Y-96804499D01*
X136127463Y-96804500D01*
X136127464Y-96804500D01*
X136272537Y-96804500D01*
X136272537Y-96804499D01*
X136411732Y-96763629D01*
X136503738Y-96704500D01*
X136533773Y-96685198D01*
X136552463Y-96663629D01*
X136628777Y-96575558D01*
X136689042Y-96443596D01*
X136709688Y-96300000D01*
X136689042Y-96156404D01*
X136628777Y-96024442D01*
X136623532Y-96018389D01*
X136594765Y-95985189D01*
X136579500Y-95944261D01*
X136579500Y-95783542D01*
X136597806Y-95739348D01*
X136620159Y-95724983D01*
X136694262Y-95697344D01*
X136694262Y-95697343D01*
X136694267Y-95697342D01*
X136810404Y-95610404D01*
X136897342Y-95494267D01*
X136948040Y-95358342D01*
X136954500Y-95298255D01*
X136954499Y-92201746D01*
X136948040Y-92141658D01*
X136897342Y-92005733D01*
X136810404Y-91889596D01*
X136694267Y-91802658D01*
X136694265Y-91802657D01*
X136694263Y-91802656D01*
X136558343Y-91751960D01*
X136498255Y-91745500D01*
X135901753Y-91745500D01*
X135901736Y-91745501D01*
X135841656Y-91751960D01*
X135705736Y-91802656D01*
X135705731Y-91802659D01*
X135589596Y-91889596D01*
X135502659Y-92005731D01*
X135502656Y-92005736D01*
X135451960Y-92141656D01*
X135445500Y-92201737D01*
X134954498Y-92201737D01*
X134948040Y-92141658D01*
X134897342Y-92005733D01*
X134810404Y-91889596D01*
X134810403Y-91889595D01*
X134779544Y-91866494D01*
X134755136Y-91825355D01*
X134754500Y-91816461D01*
X134754500Y-91205569D01*
X134772806Y-91161375D01*
X134943082Y-90991099D01*
X135212606Y-90721574D01*
X135249799Y-90703662D01*
X135368954Y-90690237D01*
X135529437Y-90634082D01*
X135673400Y-90543624D01*
X135793624Y-90423400D01*
X135884082Y-90279437D01*
X135940237Y-90118954D01*
X135959274Y-89950000D01*
X135940237Y-89781046D01*
X135884082Y-89620563D01*
X135878823Y-89612194D01*
X135793625Y-89476601D01*
X135673398Y-89356374D01*
X135529443Y-89265921D01*
X135529439Y-89265919D01*
X135529438Y-89265918D01*
X135529437Y-89265918D01*
X135368954Y-89209763D01*
X135368950Y-89209762D01*
X135200000Y-89190726D01*
X135031049Y-89209762D01*
X135031045Y-89209763D01*
X134870560Y-89265919D01*
X134870556Y-89265921D01*
X134726601Y-89356374D01*
X134606374Y-89476601D01*
X134515921Y-89620556D01*
X134515920Y-89620557D01*
X134459762Y-89781046D01*
X134446336Y-89900198D01*
X134428423Y-89937393D01*
X133859531Y-90506287D01*
X133859529Y-90506289D01*
X133756293Y-90609523D01*
X133756290Y-90609527D01*
X133683287Y-90735971D01*
X133683286Y-90735974D01*
X133645501Y-90876992D01*
X133645500Y-90877000D01*
X133645500Y-91816461D01*
X133627194Y-91860655D01*
X133620456Y-91866494D01*
X133589596Y-91889595D01*
X133502659Y-92005731D01*
X133502656Y-92005736D01*
X133451960Y-92141656D01*
X133445500Y-92201737D01*
X133445500Y-95298246D01*
X133445501Y-95298263D01*
X133451960Y-95358343D01*
X133502656Y-95494263D01*
X133502657Y-95494265D01*
X133502658Y-95494267D01*
X133589596Y-95610404D01*
X133620455Y-95633504D01*
X133644864Y-95674641D01*
X133645500Y-95683537D01*
X133645500Y-96510659D01*
X133627194Y-96554853D01*
X133604842Y-96569218D01*
X133523236Y-96599656D01*
X133523231Y-96599659D01*
X133407096Y-96686596D01*
X133320159Y-96802731D01*
X133320156Y-96802736D01*
X133269460Y-96938656D01*
X133263000Y-96998737D01*
X125500000Y-96998737D01*
X125500000Y-86501737D01*
X130845500Y-86501737D01*
X130845500Y-89498246D01*
X130845501Y-89498263D01*
X130851960Y-89558343D01*
X130902656Y-89694263D01*
X130902657Y-89694265D01*
X130902658Y-89694267D01*
X130989596Y-89810404D01*
X131105733Y-89897342D01*
X131241658Y-89948040D01*
X131301745Y-89954500D01*
X132398254Y-89954499D01*
X132458342Y-89948040D01*
X132594267Y-89897342D01*
X132710404Y-89810404D01*
X132797342Y-89694267D01*
X132848040Y-89558342D01*
X132854500Y-89498255D01*
X132854499Y-86501746D01*
X132854498Y-86501737D01*
X137545500Y-86501737D01*
X137545500Y-89498246D01*
X137545501Y-89498263D01*
X137551960Y-89558343D01*
X137602656Y-89694263D01*
X137602657Y-89694265D01*
X137602658Y-89694267D01*
X137689596Y-89810404D01*
X137805733Y-89897342D01*
X137941658Y-89948040D01*
X138001745Y-89954500D01*
X139098254Y-89954499D01*
X139158342Y-89948040D01*
X139294267Y-89897342D01*
X139410404Y-89810404D01*
X139497342Y-89694267D01*
X139548040Y-89558342D01*
X139554500Y-89498255D01*
X139554499Y-86501746D01*
X139548040Y-86441658D01*
X139497342Y-86305733D01*
X139410404Y-86189596D01*
X139294267Y-86102658D01*
X139294265Y-86102657D01*
X139294263Y-86102656D01*
X139158343Y-86051960D01*
X139098255Y-86045500D01*
X138001753Y-86045500D01*
X138001736Y-86045501D01*
X137941656Y-86051960D01*
X137805736Y-86102656D01*
X137805731Y-86102659D01*
X137689596Y-86189596D01*
X137602659Y-86305731D01*
X137602656Y-86305736D01*
X137551960Y-86441656D01*
X137545500Y-86501737D01*
X132854498Y-86501737D01*
X132848040Y-86441658D01*
X132797342Y-86305733D01*
X132710404Y-86189596D01*
X132594267Y-86102658D01*
X132594265Y-86102657D01*
X132594263Y-86102656D01*
X132458343Y-86051960D01*
X132398255Y-86045500D01*
X131301753Y-86045500D01*
X131301736Y-86045501D01*
X131241656Y-86051960D01*
X131105736Y-86102656D01*
X131105731Y-86102659D01*
X130989596Y-86189596D01*
X130902659Y-86305731D01*
X130902656Y-86305736D01*
X130851960Y-86441656D01*
X130845500Y-86501737D01*
X125500000Y-86501737D01*
X125500000Y-82944000D01*
X125518306Y-82899806D01*
X125562500Y-82881500D01*
X175445149Y-82881500D01*
X175497956Y-82881500D01*
X175502044Y-82881634D01*
G37*
%TD.AperFunction*%
%TD*%
%TA.AperFunction,Conductor*%
%TO.N,Net-(Q2-Pad1)*%
G36*
X156504638Y-100765445D02*
G01*
X156529440Y-100768424D01*
X156544911Y-100772334D01*
X156600582Y-100794287D01*
X156615421Y-100802630D01*
X156693549Y-100861877D01*
X156699681Y-100867190D01*
X156700415Y-100867914D01*
X156728830Y-100888875D01*
X156794095Y-100923886D01*
X156894167Y-100939300D01*
X156939226Y-100937338D01*
X156939225Y-100937337D01*
X156940426Y-100937285D01*
X156940427Y-100937286D01*
X156941801Y-100937227D01*
X156942005Y-100937218D01*
X156942005Y-100937217D01*
X156944326Y-100937115D01*
X156944372Y-100937113D01*
X156946002Y-100937042D01*
X156946288Y-100937132D01*
X156948621Y-100936928D01*
X156958346Y-100936504D01*
X156961167Y-100935036D01*
X156966486Y-100934335D01*
X156966487Y-100934336D01*
X156995360Y-100930534D01*
X157003517Y-100930000D01*
X157286009Y-100930000D01*
X157306098Y-100933317D01*
X157327589Y-100940612D01*
X157363554Y-100972151D01*
X157370000Y-100999795D01*
X157370000Y-103597500D01*
X157351694Y-103641694D01*
X157307500Y-103660000D01*
X156930000Y-103660000D01*
X156562180Y-103824551D01*
X156536657Y-103830000D01*
X155863343Y-103830000D01*
X155837820Y-103824551D01*
X155470000Y-103660000D01*
X155092500Y-103660000D01*
X155048306Y-103641694D01*
X155030000Y-103597500D01*
X155030000Y-100982500D01*
X155048306Y-100938306D01*
X155092500Y-100920000D01*
X155470000Y-100920000D01*
X155805720Y-100778643D01*
X155822499Y-100774196D01*
X155825494Y-100773835D01*
X155825498Y-100773836D01*
X155826477Y-100773718D01*
X155829392Y-100773367D01*
X155829393Y-100773368D01*
X155895359Y-100765445D01*
X155902811Y-100765000D01*
X156497187Y-100765000D01*
X156504638Y-100765445D01*
G37*
%TD.AperFunction*%
%TD*%
%TA.AperFunction,Conductor*%
%TO.N,Net-(U3-SW1)*%
G36*
X145931694Y-115918306D02*
G01*
X145950000Y-115962500D01*
X145950000Y-116887500D01*
X145931694Y-116931694D01*
X145887500Y-116950000D01*
X145212500Y-116950000D01*
X145168306Y-116931694D01*
X145150000Y-116887500D01*
X145150000Y-115962500D01*
X145168306Y-115918306D01*
X145212500Y-115900000D01*
X145887500Y-115900000D01*
X145931694Y-115918306D01*
G37*
%TD.AperFunction*%
%TD*%
%TA.AperFunction,Conductor*%
%TO.N,Net-(U3-SW2)*%
G36*
X144831694Y-115918306D02*
G01*
X144850000Y-115962500D01*
X144850000Y-116887500D01*
X144831694Y-116931694D01*
X144787500Y-116950000D01*
X144234957Y-116950000D01*
X144225621Y-116948752D01*
X144225593Y-116948996D01*
X144220923Y-116948454D01*
X144195460Y-116945500D01*
X144112500Y-116945500D01*
X144068306Y-116927194D01*
X144050000Y-116883000D01*
X144050000Y-116051087D01*
X144068306Y-116006893D01*
X144156893Y-115918306D01*
X144201087Y-115900000D01*
X144787500Y-115900000D01*
X144831694Y-115918306D01*
G37*
%TD.AperFunction*%
%TD*%
M02*
