%TF.GenerationSoftware,KiCad,Pcbnew,8.0.6+1*%
%TF.CreationDate,2024-11-21T12:35:33-05:00*%
%TF.ProjectId,powerSupplyBoard,706f7765-7253-4757-9070-6c79426f6172,01*%
%TF.SameCoordinates,Original*%
%TF.FileFunction,Soldermask,Bot*%
%TF.FilePolarity,Negative*%
%FSLAX46Y46*%
G04 Gerber Fmt 4.6, Leading zero omitted, Abs format (unit mm)*
G04 Created by KiCad (PCBNEW 8.0.6+1) date 2024-11-21 12:35:33*
%MOMM*%
%LPD*%
G01*
G04 APERTURE LIST*
G04 APERTURE END LIST*
G36*
X117650676Y-128457615D02*
G01*
X117704564Y-128457615D01*
X117751971Y-128466477D01*
X117801166Y-128470781D01*
X117861550Y-128486961D01*
X117919961Y-128497880D01*
X117959578Y-128513227D01*
X118001064Y-128524344D01*
X118063866Y-128553629D01*
X118124292Y-128577038D01*
X118155481Y-128596349D01*
X118188630Y-128611807D01*
X118251166Y-128655595D01*
X118310598Y-128692394D01*
X118333377Y-128713160D01*
X118358154Y-128730509D01*
X118417421Y-128789776D01*
X118472536Y-128840020D01*
X118487559Y-128859914D01*
X118504490Y-128876845D01*
X118557301Y-128952267D01*
X118604590Y-129014888D01*
X118613062Y-129031902D01*
X118623191Y-129046368D01*
X118666319Y-129138856D01*
X118702264Y-129211044D01*
X118705838Y-129223606D01*
X118710656Y-129233938D01*
X118741021Y-129347264D01*
X118762231Y-129421807D01*
X118762884Y-129428854D01*
X118764218Y-129433833D01*
X118778960Y-129602343D01*
X118782450Y-129640000D01*
X118778960Y-129677659D01*
X118764218Y-129846166D01*
X118762884Y-129851143D01*
X118762231Y-129858193D01*
X118741015Y-129932757D01*
X118710655Y-130046064D01*
X118705838Y-130056393D01*
X118702264Y-130068956D01*
X118666319Y-130141143D01*
X118623192Y-130233630D01*
X118613063Y-130248095D01*
X118604590Y-130265112D01*
X118557293Y-130327742D01*
X118504490Y-130403154D01*
X118487563Y-130420080D01*
X118472536Y-130439980D01*
X118417410Y-130490233D01*
X118358154Y-130549490D01*
X118333382Y-130566835D01*
X118310598Y-130587606D01*
X118251153Y-130624412D01*
X118188630Y-130668192D01*
X118155487Y-130683646D01*
X118124292Y-130702962D01*
X118063853Y-130726375D01*
X118001064Y-130755655D01*
X117959587Y-130766768D01*
X117919961Y-130782120D01*
X117861537Y-130793041D01*
X117801166Y-130809218D01*
X117751981Y-130813521D01*
X117704564Y-130822385D01*
X117650665Y-130822385D01*
X117595000Y-130827255D01*
X117539335Y-130822385D01*
X117485436Y-130822385D01*
X117438018Y-130813521D01*
X117388833Y-130809218D01*
X117328458Y-130793040D01*
X117270039Y-130782120D01*
X117230415Y-130766769D01*
X117188935Y-130755655D01*
X117126140Y-130726373D01*
X117065708Y-130702962D01*
X117034515Y-130683648D01*
X117001369Y-130668192D01*
X116938837Y-130624407D01*
X116879402Y-130587606D01*
X116856620Y-130566838D01*
X116831845Y-130549490D01*
X116772578Y-130490223D01*
X116717464Y-130439980D01*
X116702440Y-130420085D01*
X116685509Y-130403154D01*
X116632692Y-130327724D01*
X116585410Y-130265112D01*
X116576939Y-130248100D01*
X116566807Y-130233630D01*
X116523665Y-130141111D01*
X116487736Y-130068956D01*
X116484163Y-130056398D01*
X116479344Y-130046064D01*
X116448967Y-129932696D01*
X116427769Y-129858193D01*
X116427116Y-129851149D01*
X116425781Y-129846166D01*
X116411021Y-129677466D01*
X116407550Y-129640000D01*
X116411021Y-129602536D01*
X116425781Y-129433833D01*
X116427116Y-129428849D01*
X116427769Y-129421807D01*
X116448960Y-129347324D01*
X116479343Y-129233938D01*
X116484163Y-129223600D01*
X116487736Y-129211044D01*
X116523665Y-129138888D01*
X116566808Y-129046368D01*
X116576940Y-129031897D01*
X116585410Y-129014888D01*
X116632684Y-128952286D01*
X116685509Y-128876845D01*
X116702443Y-128859910D01*
X116717464Y-128840020D01*
X116772567Y-128789786D01*
X116831845Y-128730509D01*
X116856625Y-128713157D01*
X116879402Y-128692394D01*
X116938827Y-128655599D01*
X117001368Y-128611808D01*
X117034518Y-128596349D01*
X117065708Y-128577038D01*
X117126133Y-128553629D01*
X117188938Y-128524343D01*
X117230424Y-128513226D01*
X117270039Y-128497880D01*
X117328445Y-128486961D01*
X117388833Y-128470781D01*
X117438029Y-128466476D01*
X117485436Y-128457615D01*
X117539323Y-128457615D01*
X117595000Y-128452744D01*
X117650676Y-128457615D01*
G37*
G36*
X123365676Y-128457615D02*
G01*
X123419564Y-128457615D01*
X123466971Y-128466477D01*
X123516166Y-128470781D01*
X123576550Y-128486961D01*
X123634961Y-128497880D01*
X123674578Y-128513227D01*
X123716064Y-128524344D01*
X123778866Y-128553629D01*
X123839292Y-128577038D01*
X123870481Y-128596349D01*
X123903630Y-128611807D01*
X123966166Y-128655595D01*
X124025598Y-128692394D01*
X124048377Y-128713160D01*
X124073154Y-128730509D01*
X124132421Y-128789776D01*
X124187536Y-128840020D01*
X124202559Y-128859914D01*
X124219490Y-128876845D01*
X124272301Y-128952267D01*
X124319590Y-129014888D01*
X124328062Y-129031902D01*
X124338191Y-129046368D01*
X124381319Y-129138856D01*
X124417264Y-129211044D01*
X124420838Y-129223606D01*
X124425656Y-129233938D01*
X124456021Y-129347264D01*
X124477231Y-129421807D01*
X124477884Y-129428854D01*
X124479218Y-129433833D01*
X124493960Y-129602343D01*
X124497450Y-129640000D01*
X124493960Y-129677659D01*
X124479218Y-129846166D01*
X124477884Y-129851143D01*
X124477231Y-129858193D01*
X124456015Y-129932757D01*
X124425655Y-130046064D01*
X124420838Y-130056393D01*
X124417264Y-130068956D01*
X124381319Y-130141143D01*
X124338192Y-130233630D01*
X124328063Y-130248095D01*
X124319590Y-130265112D01*
X124272293Y-130327742D01*
X124219490Y-130403154D01*
X124202563Y-130420080D01*
X124187536Y-130439980D01*
X124132410Y-130490233D01*
X124073154Y-130549490D01*
X124048382Y-130566835D01*
X124025598Y-130587606D01*
X123966153Y-130624412D01*
X123903630Y-130668192D01*
X123870487Y-130683646D01*
X123839292Y-130702962D01*
X123778853Y-130726375D01*
X123716064Y-130755655D01*
X123674587Y-130766768D01*
X123634961Y-130782120D01*
X123576537Y-130793041D01*
X123516166Y-130809218D01*
X123466981Y-130813521D01*
X123419564Y-130822385D01*
X123365665Y-130822385D01*
X123310000Y-130827255D01*
X123254335Y-130822385D01*
X123200436Y-130822385D01*
X123153018Y-130813521D01*
X123103833Y-130809218D01*
X123043458Y-130793040D01*
X122985039Y-130782120D01*
X122945415Y-130766769D01*
X122903935Y-130755655D01*
X122841140Y-130726373D01*
X122780708Y-130702962D01*
X122749515Y-130683648D01*
X122716369Y-130668192D01*
X122653837Y-130624407D01*
X122594402Y-130587606D01*
X122571620Y-130566838D01*
X122546845Y-130549490D01*
X122487578Y-130490223D01*
X122432464Y-130439980D01*
X122417440Y-130420085D01*
X122400509Y-130403154D01*
X122347692Y-130327724D01*
X122300410Y-130265112D01*
X122291939Y-130248100D01*
X122281807Y-130233630D01*
X122238665Y-130141111D01*
X122202736Y-130068956D01*
X122199163Y-130056398D01*
X122194344Y-130046064D01*
X122163967Y-129932696D01*
X122142769Y-129858193D01*
X122142116Y-129851149D01*
X122140781Y-129846166D01*
X122126021Y-129677466D01*
X122122550Y-129640000D01*
X122126021Y-129602536D01*
X122140781Y-129433833D01*
X122142116Y-129428849D01*
X122142769Y-129421807D01*
X122163960Y-129347324D01*
X122194343Y-129233938D01*
X122199163Y-129223600D01*
X122202736Y-129211044D01*
X122238665Y-129138888D01*
X122281808Y-129046368D01*
X122291940Y-129031897D01*
X122300410Y-129014888D01*
X122347684Y-128952286D01*
X122400509Y-128876845D01*
X122417443Y-128859910D01*
X122432464Y-128840020D01*
X122487567Y-128789786D01*
X122546845Y-128730509D01*
X122571625Y-128713157D01*
X122594402Y-128692394D01*
X122653827Y-128655599D01*
X122716368Y-128611808D01*
X122749518Y-128596349D01*
X122780708Y-128577038D01*
X122841133Y-128553629D01*
X122903938Y-128524343D01*
X122945424Y-128513226D01*
X122985039Y-128497880D01*
X123043445Y-128486961D01*
X123103833Y-128470781D01*
X123153029Y-128466476D01*
X123200436Y-128457615D01*
X123254323Y-128457615D01*
X123310000Y-128452744D01*
X123365676Y-128457615D01*
G37*
G36*
X115724969Y-127625741D02*
G01*
X115760489Y-127625741D01*
X115789362Y-127634219D01*
X115818079Y-127638000D01*
X115856653Y-127653977D01*
X115895755Y-127665459D01*
X115916392Y-127678721D01*
X115937431Y-127687436D01*
X115975978Y-127717015D01*
X116014353Y-127741677D01*
X116026726Y-127755956D01*
X116039919Y-127766080D01*
X116074131Y-127810665D01*
X116106673Y-127848221D01*
X116112147Y-127860208D01*
X116118563Y-127868569D01*
X116143889Y-127929713D01*
X116165237Y-127976458D01*
X116166292Y-127983800D01*
X116167999Y-127987920D01*
X116180103Y-128079854D01*
X116185300Y-128116000D01*
X116180102Y-128152148D01*
X116167999Y-128244079D01*
X116166292Y-128248197D01*
X116165237Y-128255542D01*
X116143887Y-128302291D01*
X116118563Y-128363431D01*
X116112147Y-128371791D01*
X116106673Y-128383779D01*
X116074127Y-128421339D01*
X116039919Y-128465919D01*
X116026728Y-128476040D01*
X116014353Y-128490323D01*
X115975970Y-128514990D01*
X115937431Y-128544563D01*
X115916396Y-128553275D01*
X115895755Y-128566541D01*
X115856645Y-128578024D01*
X115818079Y-128593999D01*
X115789369Y-128597778D01*
X115760489Y-128606259D01*
X115724961Y-128606259D01*
X115690000Y-128610862D01*
X115655039Y-128606259D01*
X115619511Y-128606259D01*
X115590631Y-128597779D01*
X115561920Y-128593999D01*
X115523351Y-128578023D01*
X115484245Y-128566541D01*
X115463605Y-128553276D01*
X115442568Y-128544563D01*
X115404023Y-128514986D01*
X115365647Y-128490323D01*
X115353273Y-128476042D01*
X115340080Y-128465919D01*
X115305863Y-128421328D01*
X115273327Y-128383779D01*
X115267854Y-128371794D01*
X115261436Y-128363431D01*
X115236101Y-128302267D01*
X115214763Y-128255542D01*
X115213707Y-128248201D01*
X115212000Y-128244079D01*
X115199885Y-128152066D01*
X115194700Y-128116000D01*
X115199885Y-128079936D01*
X115212000Y-127987920D01*
X115213707Y-127983796D01*
X115214763Y-127976458D01*
X115236099Y-127929737D01*
X115261436Y-127868569D01*
X115267854Y-127860204D01*
X115273327Y-127848221D01*
X115305860Y-127810675D01*
X115340080Y-127766080D01*
X115353275Y-127755954D01*
X115365647Y-127741677D01*
X115404019Y-127717016D01*
X115442569Y-127687436D01*
X115463608Y-127678721D01*
X115484245Y-127665459D01*
X115523344Y-127653978D01*
X115561920Y-127638000D01*
X115590637Y-127634219D01*
X115619511Y-127625741D01*
X115655031Y-127625741D01*
X115690000Y-127621137D01*
X115724969Y-127625741D01*
G37*
G36*
X160590285Y-123293060D02*
G01*
X160771397Y-123368079D01*
X160934393Y-123476990D01*
X161073010Y-123615607D01*
X161181921Y-123778603D01*
X161256940Y-123959715D01*
X161295185Y-124151983D01*
X161300000Y-124250000D01*
X161300000Y-126750000D01*
X161295185Y-126848017D01*
X161256940Y-127040285D01*
X161181921Y-127221397D01*
X161073010Y-127384393D01*
X160934393Y-127523010D01*
X160771397Y-127631921D01*
X160590285Y-127706940D01*
X160398017Y-127745185D01*
X160201983Y-127745185D01*
X160009715Y-127706940D01*
X159828603Y-127631921D01*
X159665607Y-127523010D01*
X159526990Y-127384393D01*
X159418079Y-127221397D01*
X159343060Y-127040285D01*
X159304815Y-126848017D01*
X159300000Y-126750000D01*
X159300000Y-124250000D01*
X159304815Y-124151983D01*
X159343060Y-123959715D01*
X159418079Y-123778603D01*
X159526990Y-123615607D01*
X159665607Y-123476990D01*
X159828603Y-123368079D01*
X160009715Y-123293060D01*
X160201983Y-123254815D01*
X160398017Y-123254815D01*
X160590285Y-123293060D01*
G37*
G36*
X166590285Y-123293060D02*
G01*
X166771397Y-123368079D01*
X166934393Y-123476990D01*
X167073010Y-123615607D01*
X167181921Y-123778603D01*
X167256940Y-123959715D01*
X167295185Y-124151983D01*
X167300000Y-124250000D01*
X167300000Y-126750000D01*
X167295185Y-126848017D01*
X167256940Y-127040285D01*
X167181921Y-127221397D01*
X167073010Y-127384393D01*
X166934393Y-127523010D01*
X166771397Y-127631921D01*
X166590285Y-127706940D01*
X166398017Y-127745185D01*
X166201983Y-127745185D01*
X166009715Y-127706940D01*
X165828603Y-127631921D01*
X165665607Y-127523010D01*
X165526990Y-127384393D01*
X165418079Y-127221397D01*
X165343060Y-127040285D01*
X165304815Y-126848017D01*
X165300000Y-126750000D01*
X165300000Y-124250000D01*
X165304815Y-124151983D01*
X165343060Y-123959715D01*
X165418079Y-123778603D01*
X165526990Y-123615607D01*
X165665607Y-123476990D01*
X165828603Y-123368079D01*
X166009715Y-123293060D01*
X166201983Y-123254815D01*
X166398017Y-123254815D01*
X166590285Y-123293060D01*
G37*
G36*
X123344969Y-126609741D02*
G01*
X123380489Y-126609741D01*
X123409362Y-126618219D01*
X123438079Y-126622000D01*
X123476653Y-126637977D01*
X123515755Y-126649459D01*
X123536392Y-126662721D01*
X123557431Y-126671436D01*
X123595978Y-126701015D01*
X123634353Y-126725677D01*
X123646726Y-126739956D01*
X123659919Y-126750080D01*
X123694131Y-126794665D01*
X123726673Y-126832221D01*
X123732147Y-126844208D01*
X123738563Y-126852569D01*
X123763889Y-126913713D01*
X123785237Y-126960458D01*
X123786292Y-126967800D01*
X123787999Y-126971920D01*
X123800103Y-127063854D01*
X123805300Y-127100000D01*
X123800102Y-127136148D01*
X123787999Y-127228079D01*
X123786292Y-127232197D01*
X123785237Y-127239542D01*
X123763887Y-127286291D01*
X123738563Y-127347431D01*
X123732147Y-127355791D01*
X123726673Y-127367779D01*
X123694127Y-127405339D01*
X123659919Y-127449919D01*
X123646728Y-127460040D01*
X123634353Y-127474323D01*
X123595970Y-127498990D01*
X123557431Y-127528563D01*
X123536396Y-127537275D01*
X123515755Y-127550541D01*
X123476645Y-127562024D01*
X123438079Y-127577999D01*
X123409369Y-127581778D01*
X123380489Y-127590259D01*
X123344961Y-127590259D01*
X123310000Y-127594862D01*
X123275039Y-127590259D01*
X123239511Y-127590259D01*
X123210631Y-127581779D01*
X123181920Y-127577999D01*
X123143351Y-127562023D01*
X123104245Y-127550541D01*
X123083605Y-127537276D01*
X123062568Y-127528563D01*
X123024023Y-127498986D01*
X122985647Y-127474323D01*
X122973273Y-127460042D01*
X122960080Y-127449919D01*
X122925863Y-127405328D01*
X122893327Y-127367779D01*
X122887854Y-127355794D01*
X122881436Y-127347431D01*
X122856101Y-127286267D01*
X122834763Y-127239542D01*
X122833707Y-127232201D01*
X122832000Y-127228079D01*
X122819885Y-127136066D01*
X122814700Y-127100000D01*
X122819885Y-127063936D01*
X122832000Y-126971920D01*
X122833707Y-126967796D01*
X122834763Y-126960458D01*
X122856099Y-126913737D01*
X122881436Y-126852569D01*
X122887854Y-126844204D01*
X122893327Y-126832221D01*
X122925860Y-126794675D01*
X122960080Y-126750080D01*
X122973275Y-126739954D01*
X122985647Y-126725677D01*
X123024019Y-126701016D01*
X123062569Y-126671436D01*
X123083608Y-126662721D01*
X123104245Y-126649459D01*
X123143344Y-126637978D01*
X123181920Y-126622000D01*
X123210637Y-126618219D01*
X123239511Y-126609741D01*
X123275031Y-126609741D01*
X123310000Y-126605137D01*
X123344969Y-126609741D01*
G37*
G36*
X115724969Y-125593741D02*
G01*
X115760489Y-125593741D01*
X115789362Y-125602219D01*
X115818079Y-125606000D01*
X115856653Y-125621977D01*
X115895755Y-125633459D01*
X115916392Y-125646721D01*
X115937431Y-125655436D01*
X115975978Y-125685015D01*
X116014353Y-125709677D01*
X116026726Y-125723956D01*
X116039919Y-125734080D01*
X116074131Y-125778665D01*
X116106673Y-125816221D01*
X116112147Y-125828208D01*
X116118563Y-125836569D01*
X116143889Y-125897713D01*
X116165237Y-125944458D01*
X116166292Y-125951800D01*
X116167999Y-125955920D01*
X116180103Y-126047854D01*
X116185300Y-126084000D01*
X116180102Y-126120148D01*
X116167999Y-126212079D01*
X116166292Y-126216197D01*
X116165237Y-126223542D01*
X116143887Y-126270291D01*
X116118563Y-126331431D01*
X116112147Y-126339791D01*
X116106673Y-126351779D01*
X116074127Y-126389339D01*
X116039919Y-126433919D01*
X116026728Y-126444040D01*
X116014353Y-126458323D01*
X115975970Y-126482990D01*
X115937431Y-126512563D01*
X115916396Y-126521275D01*
X115895755Y-126534541D01*
X115856645Y-126546024D01*
X115818079Y-126561999D01*
X115789369Y-126565778D01*
X115760489Y-126574259D01*
X115724961Y-126574259D01*
X115690000Y-126578862D01*
X115655039Y-126574259D01*
X115619511Y-126574259D01*
X115590631Y-126565779D01*
X115561920Y-126561999D01*
X115523351Y-126546023D01*
X115484245Y-126534541D01*
X115463605Y-126521276D01*
X115442568Y-126512563D01*
X115404023Y-126482986D01*
X115365647Y-126458323D01*
X115353273Y-126444042D01*
X115340080Y-126433919D01*
X115305863Y-126389328D01*
X115273327Y-126351779D01*
X115267854Y-126339794D01*
X115261436Y-126331431D01*
X115236101Y-126270267D01*
X115214763Y-126223542D01*
X115213707Y-126216201D01*
X115212000Y-126212079D01*
X115199885Y-126120066D01*
X115194700Y-126084000D01*
X115199885Y-126047936D01*
X115212000Y-125955920D01*
X115213707Y-125951796D01*
X115214763Y-125944458D01*
X115236099Y-125897737D01*
X115261436Y-125836569D01*
X115267854Y-125828204D01*
X115273327Y-125816221D01*
X115305860Y-125778675D01*
X115340080Y-125734080D01*
X115353275Y-125723954D01*
X115365647Y-125709677D01*
X115404019Y-125685016D01*
X115442569Y-125655436D01*
X115463608Y-125646721D01*
X115484245Y-125633459D01*
X115523344Y-125621978D01*
X115561920Y-125606000D01*
X115590637Y-125602219D01*
X115619511Y-125593741D01*
X115655031Y-125593741D01*
X115690000Y-125589137D01*
X115724969Y-125593741D01*
G37*
G36*
X117650676Y-123377615D02*
G01*
X117704564Y-123377615D01*
X117751971Y-123386477D01*
X117801166Y-123390781D01*
X117861550Y-123406961D01*
X117919961Y-123417880D01*
X117959578Y-123433227D01*
X118001064Y-123444344D01*
X118063866Y-123473629D01*
X118124292Y-123497038D01*
X118155481Y-123516349D01*
X118188630Y-123531807D01*
X118251166Y-123575595D01*
X118310598Y-123612394D01*
X118333377Y-123633160D01*
X118358154Y-123650509D01*
X118417421Y-123709776D01*
X118472536Y-123760020D01*
X118487559Y-123779914D01*
X118504490Y-123796845D01*
X118557301Y-123872267D01*
X118604590Y-123934888D01*
X118613062Y-123951902D01*
X118623191Y-123966368D01*
X118666319Y-124058856D01*
X118702264Y-124131044D01*
X118705838Y-124143606D01*
X118710656Y-124153938D01*
X118741021Y-124267264D01*
X118762231Y-124341807D01*
X118762884Y-124348854D01*
X118764218Y-124353833D01*
X118778960Y-124522343D01*
X118782450Y-124560000D01*
X118778960Y-124597659D01*
X118764218Y-124766166D01*
X118762884Y-124771143D01*
X118762231Y-124778193D01*
X118741015Y-124852757D01*
X118710655Y-124966064D01*
X118705838Y-124976393D01*
X118702264Y-124988956D01*
X118666319Y-125061143D01*
X118623192Y-125153630D01*
X118613063Y-125168095D01*
X118604590Y-125185112D01*
X118557293Y-125247742D01*
X118504490Y-125323154D01*
X118487563Y-125340080D01*
X118472536Y-125359980D01*
X118417410Y-125410233D01*
X118358154Y-125469490D01*
X118333382Y-125486835D01*
X118310598Y-125507606D01*
X118251153Y-125544412D01*
X118188630Y-125588192D01*
X118155487Y-125603646D01*
X118124292Y-125622962D01*
X118063853Y-125646375D01*
X118001064Y-125675655D01*
X117959587Y-125686768D01*
X117919961Y-125702120D01*
X117861537Y-125713041D01*
X117801166Y-125729218D01*
X117751981Y-125733521D01*
X117704564Y-125742385D01*
X117650665Y-125742385D01*
X117595000Y-125747255D01*
X117539335Y-125742385D01*
X117485436Y-125742385D01*
X117438018Y-125733521D01*
X117388833Y-125729218D01*
X117328458Y-125713040D01*
X117270039Y-125702120D01*
X117230415Y-125686769D01*
X117188935Y-125675655D01*
X117126140Y-125646373D01*
X117065708Y-125622962D01*
X117034515Y-125603648D01*
X117001369Y-125588192D01*
X116938837Y-125544407D01*
X116879402Y-125507606D01*
X116856620Y-125486838D01*
X116831845Y-125469490D01*
X116772578Y-125410223D01*
X116717464Y-125359980D01*
X116702440Y-125340085D01*
X116685509Y-125323154D01*
X116632692Y-125247724D01*
X116585410Y-125185112D01*
X116576939Y-125168100D01*
X116566807Y-125153630D01*
X116523665Y-125061111D01*
X116487736Y-124988956D01*
X116484163Y-124976398D01*
X116479344Y-124966064D01*
X116448967Y-124852696D01*
X116427769Y-124778193D01*
X116427116Y-124771149D01*
X116425781Y-124766166D01*
X116411021Y-124597466D01*
X116407550Y-124560000D01*
X116411021Y-124522536D01*
X116425781Y-124353833D01*
X116427116Y-124348849D01*
X116427769Y-124341807D01*
X116448960Y-124267324D01*
X116479343Y-124153938D01*
X116484163Y-124143600D01*
X116487736Y-124131044D01*
X116523665Y-124058888D01*
X116566808Y-123966368D01*
X116576940Y-123951897D01*
X116585410Y-123934888D01*
X116632684Y-123872286D01*
X116685509Y-123796845D01*
X116702443Y-123779910D01*
X116717464Y-123760020D01*
X116772567Y-123709786D01*
X116831845Y-123650509D01*
X116856625Y-123633157D01*
X116879402Y-123612394D01*
X116938827Y-123575599D01*
X117001368Y-123531808D01*
X117034518Y-123516349D01*
X117065708Y-123497038D01*
X117126133Y-123473629D01*
X117188938Y-123444343D01*
X117230424Y-123433226D01*
X117270039Y-123417880D01*
X117328445Y-123406961D01*
X117388833Y-123390781D01*
X117438029Y-123386476D01*
X117485436Y-123377615D01*
X117539323Y-123377615D01*
X117595000Y-123372744D01*
X117650676Y-123377615D01*
G37*
G36*
X123365676Y-123377615D02*
G01*
X123419564Y-123377615D01*
X123466971Y-123386477D01*
X123516166Y-123390781D01*
X123576550Y-123406961D01*
X123634961Y-123417880D01*
X123674578Y-123433227D01*
X123716064Y-123444344D01*
X123778866Y-123473629D01*
X123839292Y-123497038D01*
X123870481Y-123516349D01*
X123903630Y-123531807D01*
X123966166Y-123575595D01*
X124025598Y-123612394D01*
X124048377Y-123633160D01*
X124073154Y-123650509D01*
X124132421Y-123709776D01*
X124187536Y-123760020D01*
X124202559Y-123779914D01*
X124219490Y-123796845D01*
X124272301Y-123872267D01*
X124319590Y-123934888D01*
X124328062Y-123951902D01*
X124338191Y-123966368D01*
X124381319Y-124058856D01*
X124417264Y-124131044D01*
X124420838Y-124143606D01*
X124425656Y-124153938D01*
X124456021Y-124267264D01*
X124477231Y-124341807D01*
X124477884Y-124348854D01*
X124479218Y-124353833D01*
X124493960Y-124522343D01*
X124497450Y-124560000D01*
X124493960Y-124597659D01*
X124479218Y-124766166D01*
X124477884Y-124771143D01*
X124477231Y-124778193D01*
X124456015Y-124852757D01*
X124425655Y-124966064D01*
X124420838Y-124976393D01*
X124417264Y-124988956D01*
X124381319Y-125061143D01*
X124338192Y-125153630D01*
X124328063Y-125168095D01*
X124319590Y-125185112D01*
X124272293Y-125247742D01*
X124219490Y-125323154D01*
X124202563Y-125340080D01*
X124187536Y-125359980D01*
X124132410Y-125410233D01*
X124073154Y-125469490D01*
X124048382Y-125486835D01*
X124025598Y-125507606D01*
X123966153Y-125544412D01*
X123903630Y-125588192D01*
X123870487Y-125603646D01*
X123839292Y-125622962D01*
X123778853Y-125646375D01*
X123716064Y-125675655D01*
X123674587Y-125686768D01*
X123634961Y-125702120D01*
X123576537Y-125713041D01*
X123516166Y-125729218D01*
X123466981Y-125733521D01*
X123419564Y-125742385D01*
X123365665Y-125742385D01*
X123310000Y-125747255D01*
X123254335Y-125742385D01*
X123200436Y-125742385D01*
X123153018Y-125733521D01*
X123103833Y-125729218D01*
X123043458Y-125713040D01*
X122985039Y-125702120D01*
X122945415Y-125686769D01*
X122903935Y-125675655D01*
X122841140Y-125646373D01*
X122780708Y-125622962D01*
X122749515Y-125603648D01*
X122716369Y-125588192D01*
X122653837Y-125544407D01*
X122594402Y-125507606D01*
X122571620Y-125486838D01*
X122546845Y-125469490D01*
X122487578Y-125410223D01*
X122432464Y-125359980D01*
X122417440Y-125340085D01*
X122400509Y-125323154D01*
X122347692Y-125247724D01*
X122300410Y-125185112D01*
X122291939Y-125168100D01*
X122281807Y-125153630D01*
X122238665Y-125061111D01*
X122202736Y-124988956D01*
X122199163Y-124976398D01*
X122194344Y-124966064D01*
X122163967Y-124852696D01*
X122142769Y-124778193D01*
X122142116Y-124771149D01*
X122140781Y-124766166D01*
X122126021Y-124597466D01*
X122122550Y-124560000D01*
X122126021Y-124522536D01*
X122140781Y-124353833D01*
X122142116Y-124348849D01*
X122142769Y-124341807D01*
X122163960Y-124267324D01*
X122194343Y-124153938D01*
X122199163Y-124143600D01*
X122202736Y-124131044D01*
X122238665Y-124058888D01*
X122281808Y-123966368D01*
X122291940Y-123951897D01*
X122300410Y-123934888D01*
X122347684Y-123872286D01*
X122400509Y-123796845D01*
X122417443Y-123779910D01*
X122432464Y-123760020D01*
X122487567Y-123709786D01*
X122546845Y-123650509D01*
X122571625Y-123633157D01*
X122594402Y-123612394D01*
X122653827Y-123575599D01*
X122716368Y-123531808D01*
X122749518Y-123516349D01*
X122780708Y-123497038D01*
X122841133Y-123473629D01*
X122903938Y-123444343D01*
X122945424Y-123433226D01*
X122985039Y-123417880D01*
X123043445Y-123406961D01*
X123103833Y-123390781D01*
X123153029Y-123386476D01*
X123200436Y-123377615D01*
X123254323Y-123377615D01*
X123310000Y-123372744D01*
X123365676Y-123377615D01*
G37*
G36*
X164523017Y-119804815D02*
G01*
X164715285Y-119843060D01*
X164896397Y-119918079D01*
X165059393Y-120026990D01*
X165198010Y-120165607D01*
X165306921Y-120328603D01*
X165381940Y-120509715D01*
X165420185Y-120701983D01*
X165420185Y-120898017D01*
X165381940Y-121090285D01*
X165306921Y-121271397D01*
X165198010Y-121434393D01*
X165059393Y-121573010D01*
X164896397Y-121681921D01*
X164715285Y-121756940D01*
X164523017Y-121795185D01*
X164425000Y-121800000D01*
X164423749Y-121800000D01*
X162176251Y-121800000D01*
X162175000Y-121800000D01*
X162076983Y-121795185D01*
X161884715Y-121756940D01*
X161703603Y-121681921D01*
X161540607Y-121573010D01*
X161401990Y-121434393D01*
X161293079Y-121271397D01*
X161218060Y-121090285D01*
X161179815Y-120898017D01*
X161179815Y-120701983D01*
X161218060Y-120509715D01*
X161293079Y-120328603D01*
X161401990Y-120165607D01*
X161540607Y-120026990D01*
X161703603Y-119918079D01*
X161884715Y-119843060D01*
X162076983Y-119804815D01*
X162175000Y-119800000D01*
X164425000Y-119800000D01*
X164523017Y-119804815D01*
G37*
G36*
X158745616Y-114897818D02*
G01*
X158796879Y-114903766D01*
X158814392Y-114911499D01*
X158837171Y-114916030D01*
X158861557Y-114932324D01*
X158882288Y-114941478D01*
X158896446Y-114955636D01*
X158918277Y-114970223D01*
X158932863Y-114992053D01*
X158947021Y-115006211D01*
X158956173Y-115026939D01*
X158972470Y-115051329D01*
X158977001Y-115074109D01*
X158984733Y-115091620D01*
X158990678Y-115142872D01*
X158991500Y-115147000D01*
X158991500Y-117453000D01*
X158990678Y-117457128D01*
X158984733Y-117508379D01*
X158977001Y-117525888D01*
X158972470Y-117548671D01*
X158956172Y-117573062D01*
X158947021Y-117593788D01*
X158932865Y-117607943D01*
X158918277Y-117629777D01*
X158896443Y-117644365D01*
X158882288Y-117658521D01*
X158861562Y-117667672D01*
X158837171Y-117683970D01*
X158814388Y-117688501D01*
X158796879Y-117696233D01*
X158745629Y-117702178D01*
X158741500Y-117703000D01*
X157876500Y-117703000D01*
X157872373Y-117702179D01*
X157821120Y-117696233D01*
X157803609Y-117688501D01*
X157780829Y-117683970D01*
X157756439Y-117667673D01*
X157735711Y-117658521D01*
X157721553Y-117644363D01*
X157699723Y-117629777D01*
X157685136Y-117607946D01*
X157670978Y-117593788D01*
X157661824Y-117573057D01*
X157645530Y-117548671D01*
X157640999Y-117525892D01*
X157633266Y-117508379D01*
X157627318Y-117457117D01*
X157626500Y-117453000D01*
X157626500Y-115147000D01*
X157627318Y-115142885D01*
X157633266Y-115091620D01*
X157640999Y-115074105D01*
X157645530Y-115051329D01*
X157661823Y-115026944D01*
X157670978Y-115006211D01*
X157685138Y-114992050D01*
X157699723Y-114970223D01*
X157721550Y-114955638D01*
X157735711Y-114941478D01*
X157756444Y-114932323D01*
X157780829Y-114916030D01*
X157803605Y-114911499D01*
X157821120Y-114903766D01*
X157872384Y-114897818D01*
X157876500Y-114897000D01*
X158741500Y-114897000D01*
X158745616Y-114897818D01*
G37*
G36*
X163727616Y-114897818D02*
G01*
X163778879Y-114903766D01*
X163796392Y-114911499D01*
X163819171Y-114916030D01*
X163843557Y-114932324D01*
X163864288Y-114941478D01*
X163878446Y-114955636D01*
X163900277Y-114970223D01*
X163914863Y-114992053D01*
X163929021Y-115006211D01*
X163938173Y-115026939D01*
X163954470Y-115051329D01*
X163959001Y-115074109D01*
X163966733Y-115091620D01*
X163972678Y-115142872D01*
X163973500Y-115147000D01*
X163973500Y-117453000D01*
X163972678Y-117457128D01*
X163966733Y-117508379D01*
X163959001Y-117525888D01*
X163954470Y-117548671D01*
X163938172Y-117573062D01*
X163929021Y-117593788D01*
X163914865Y-117607943D01*
X163900277Y-117629777D01*
X163878443Y-117644365D01*
X163864288Y-117658521D01*
X163843562Y-117667672D01*
X163819171Y-117683970D01*
X163796388Y-117688501D01*
X163778879Y-117696233D01*
X163727629Y-117702178D01*
X163723500Y-117703000D01*
X162858500Y-117703000D01*
X162854373Y-117702179D01*
X162803120Y-117696233D01*
X162785609Y-117688501D01*
X162762829Y-117683970D01*
X162738439Y-117667673D01*
X162717711Y-117658521D01*
X162703553Y-117644363D01*
X162681723Y-117629777D01*
X162667136Y-117607946D01*
X162652978Y-117593788D01*
X162643824Y-117573057D01*
X162627530Y-117548671D01*
X162622999Y-117525892D01*
X162615266Y-117508379D01*
X162609318Y-117457117D01*
X162608500Y-117453000D01*
X162608500Y-115147000D01*
X162609318Y-115142885D01*
X162615266Y-115091620D01*
X162622999Y-115074105D01*
X162627530Y-115051329D01*
X162643823Y-115026944D01*
X162652978Y-115006211D01*
X162667138Y-114992050D01*
X162681723Y-114970223D01*
X162703550Y-114955638D01*
X162717711Y-114941478D01*
X162738444Y-114932323D01*
X162762829Y-114916030D01*
X162785605Y-114911499D01*
X162803120Y-114903766D01*
X162854384Y-114897818D01*
X162858500Y-114897000D01*
X163723500Y-114897000D01*
X163727616Y-114897818D01*
G37*
G36*
X143500489Y-117035537D02*
G01*
X143547530Y-117066970D01*
X143578963Y-117114011D01*
X143590000Y-117169500D01*
X143590000Y-117504500D01*
X143578963Y-117559989D01*
X143547530Y-117607030D01*
X143500489Y-117638463D01*
X143445000Y-117649500D01*
X143155000Y-117649500D01*
X143099511Y-117638463D01*
X143052470Y-117607030D01*
X143021037Y-117559989D01*
X143010000Y-117504500D01*
X143010000Y-117169500D01*
X143021037Y-117114011D01*
X143052470Y-117066970D01*
X143099511Y-117035537D01*
X143155000Y-117024500D01*
X143445000Y-117024500D01*
X143500489Y-117035537D01*
G37*
G36*
X146900489Y-117035537D02*
G01*
X146947530Y-117066970D01*
X146978963Y-117114011D01*
X146990000Y-117169500D01*
X146990000Y-117504500D01*
X146978963Y-117559989D01*
X146947530Y-117607030D01*
X146900489Y-117638463D01*
X146845000Y-117649500D01*
X146555000Y-117649500D01*
X146499511Y-117638463D01*
X146452470Y-117607030D01*
X146421037Y-117559989D01*
X146410000Y-117504500D01*
X146410000Y-117169500D01*
X146421037Y-117114011D01*
X146452470Y-117066970D01*
X146499511Y-117035537D01*
X146555000Y-117024500D01*
X146845000Y-117024500D01*
X146900489Y-117035537D01*
G37*
G36*
X143500489Y-116161537D02*
G01*
X143547530Y-116192970D01*
X143578963Y-116240011D01*
X143590000Y-116295500D01*
X143590000Y-116630500D01*
X143578963Y-116685989D01*
X143547530Y-116733030D01*
X143500489Y-116764463D01*
X143445000Y-116775500D01*
X143155000Y-116775500D01*
X143099511Y-116764463D01*
X143052470Y-116733030D01*
X143021037Y-116685989D01*
X143010000Y-116630500D01*
X143010000Y-116295500D01*
X143021037Y-116240011D01*
X143052470Y-116192970D01*
X143099511Y-116161537D01*
X143155000Y-116150500D01*
X143445000Y-116150500D01*
X143500489Y-116161537D01*
G37*
G36*
X146900489Y-116161537D02*
G01*
X146947530Y-116192970D01*
X146978963Y-116240011D01*
X146990000Y-116295500D01*
X146990000Y-116630500D01*
X146978963Y-116685989D01*
X146947530Y-116733030D01*
X146900489Y-116764463D01*
X146845000Y-116775500D01*
X146555000Y-116775500D01*
X146499511Y-116764463D01*
X146452470Y-116733030D01*
X146421037Y-116685989D01*
X146410000Y-116630500D01*
X146410000Y-116295500D01*
X146421037Y-116240011D01*
X146452470Y-116192970D01*
X146499511Y-116161537D01*
X146555000Y-116150500D01*
X146845000Y-116150500D01*
X146900489Y-116161537D01*
G37*
G36*
X114463711Y-114453130D02*
G01*
X114588685Y-114477989D01*
X114706408Y-114526751D01*
X114812356Y-114597543D01*
X114902457Y-114687644D01*
X114973249Y-114793592D01*
X115022011Y-114911315D01*
X115046870Y-115036289D01*
X115046870Y-115163711D01*
X115022011Y-115288685D01*
X114973249Y-115406408D01*
X114902457Y-115512356D01*
X114812356Y-115602457D01*
X114706408Y-115673249D01*
X114588685Y-115722011D01*
X114463711Y-115746870D01*
X114400000Y-115750000D01*
X114398749Y-115750000D01*
X113601251Y-115750000D01*
X113600000Y-115750000D01*
X113536289Y-115746870D01*
X113411315Y-115722011D01*
X113293592Y-115673249D01*
X113187644Y-115602457D01*
X113097543Y-115512356D01*
X113026751Y-115406408D01*
X112977989Y-115288685D01*
X112953130Y-115163711D01*
X112953130Y-115036289D01*
X112977989Y-114911315D01*
X113026751Y-114793592D01*
X113097543Y-114687644D01*
X113187644Y-114597543D01*
X113293592Y-114526751D01*
X113411315Y-114477989D01*
X113536289Y-114453130D01*
X113600000Y-114450000D01*
X114400000Y-114450000D01*
X114463711Y-114453130D01*
G37*
G36*
X154950579Y-114431075D02*
G01*
X155021223Y-114478277D01*
X155068425Y-114548921D01*
X155085000Y-114632250D01*
X155085000Y-115067750D01*
X155068425Y-115151079D01*
X155021223Y-115221723D01*
X154950579Y-115268925D01*
X154867250Y-115285500D01*
X154332750Y-115285500D01*
X154249421Y-115268925D01*
X154178777Y-115221723D01*
X154131575Y-115151079D01*
X154115000Y-115067750D01*
X154115000Y-114632250D01*
X154131575Y-114548921D01*
X154178777Y-114478277D01*
X154249421Y-114431075D01*
X154332750Y-114414500D01*
X154867250Y-114414500D01*
X154950579Y-114431075D01*
G37*
G36*
X156750579Y-114431075D02*
G01*
X156821223Y-114478277D01*
X156868425Y-114548921D01*
X156885000Y-114632250D01*
X156885000Y-115067750D01*
X156868425Y-115151079D01*
X156821223Y-115221723D01*
X156750579Y-115268925D01*
X156667250Y-115285500D01*
X156132750Y-115285500D01*
X156049421Y-115268925D01*
X155978777Y-115221723D01*
X155931575Y-115151079D01*
X155915000Y-115067750D01*
X155915000Y-114632250D01*
X155931575Y-114548921D01*
X155978777Y-114478277D01*
X156049421Y-114431075D01*
X156132750Y-114414500D01*
X156667250Y-114414500D01*
X156750579Y-114431075D01*
G37*
G36*
X158205119Y-113825467D02*
G01*
X158249727Y-113855273D01*
X158279533Y-113899881D01*
X158290000Y-113952500D01*
X158290000Y-114227500D01*
X158279533Y-114280119D01*
X158249727Y-114324727D01*
X158205119Y-114354533D01*
X158152500Y-114365000D01*
X157847500Y-114365000D01*
X157794881Y-114354533D01*
X157750273Y-114324727D01*
X157720467Y-114280119D01*
X157710000Y-114227500D01*
X157710000Y-113952500D01*
X157720467Y-113899881D01*
X157750273Y-113855273D01*
X157794881Y-113825467D01*
X157847500Y-113815000D01*
X158152500Y-113815000D01*
X158205119Y-113825467D01*
G37*
G36*
X154950579Y-112931075D02*
G01*
X155021223Y-112978277D01*
X155068425Y-113048921D01*
X155085000Y-113132250D01*
X155085000Y-113567750D01*
X155068425Y-113651079D01*
X155021223Y-113721723D01*
X154950579Y-113768925D01*
X154867250Y-113785500D01*
X154332750Y-113785500D01*
X154249421Y-113768925D01*
X154178777Y-113721723D01*
X154131575Y-113651079D01*
X154115000Y-113567750D01*
X154115000Y-113132250D01*
X154131575Y-113048921D01*
X154178777Y-112978277D01*
X154249421Y-112931075D01*
X154332750Y-112914500D01*
X154867250Y-112914500D01*
X154950579Y-112931075D01*
G37*
G36*
X156750579Y-112931075D02*
G01*
X156821223Y-112978277D01*
X156868425Y-113048921D01*
X156885000Y-113132250D01*
X156885000Y-113567750D01*
X156868425Y-113651079D01*
X156821223Y-113721723D01*
X156750579Y-113768925D01*
X156667250Y-113785500D01*
X156132750Y-113785500D01*
X156049421Y-113768925D01*
X155978777Y-113721723D01*
X155931575Y-113651079D01*
X155915000Y-113567750D01*
X155915000Y-113132250D01*
X155931575Y-113048921D01*
X155978777Y-112978277D01*
X156049421Y-112931075D01*
X156132750Y-112914500D01*
X156667250Y-112914500D01*
X156750579Y-112931075D01*
G37*
G36*
X114166891Y-112268804D02*
G01*
X114325413Y-112324273D01*
X114467617Y-112413626D01*
X114586374Y-112532383D01*
X114675727Y-112674587D01*
X114731196Y-112833109D01*
X114750000Y-113000000D01*
X114731196Y-113166891D01*
X114675727Y-113325413D01*
X114586374Y-113467617D01*
X114467617Y-113586374D01*
X114325413Y-113675727D01*
X114166891Y-113731196D01*
X114000000Y-113750000D01*
X113833109Y-113731196D01*
X113674587Y-113675727D01*
X113532383Y-113586374D01*
X113413626Y-113467617D01*
X113324273Y-113325413D01*
X113268804Y-113166891D01*
X113250000Y-113000000D01*
X113268804Y-112833109D01*
X113324273Y-112674587D01*
X113413626Y-112532383D01*
X113532383Y-112413626D01*
X113674587Y-112324273D01*
X113833109Y-112268804D01*
X114000000Y-112250000D01*
X114166891Y-112268804D01*
G37*
G36*
X158200489Y-112846037D02*
G01*
X158247530Y-112877470D01*
X158278963Y-112924511D01*
X158290000Y-112980000D01*
X158290000Y-113290000D01*
X158278963Y-113345489D01*
X158247530Y-113392530D01*
X158200489Y-113423963D01*
X158145000Y-113435000D01*
X157855000Y-113435000D01*
X157799511Y-113423963D01*
X157752470Y-113392530D01*
X157721037Y-113345489D01*
X157710000Y-113290000D01*
X157710000Y-112980000D01*
X157721037Y-112924511D01*
X157752470Y-112877470D01*
X157799511Y-112846037D01*
X157855000Y-112835000D01*
X158145000Y-112835000D01*
X158200489Y-112846037D01*
G37*
G36*
X151445489Y-112721037D02*
G01*
X151492530Y-112752470D01*
X151523963Y-112799511D01*
X151535000Y-112855000D01*
X151535000Y-113145000D01*
X151523963Y-113200489D01*
X151492530Y-113247530D01*
X151445489Y-113278963D01*
X151390000Y-113290000D01*
X151080000Y-113290000D01*
X151024511Y-113278963D01*
X150977470Y-113247530D01*
X150946037Y-113200489D01*
X150935000Y-113145000D01*
X150935000Y-112855000D01*
X150946037Y-112799511D01*
X150977470Y-112752470D01*
X151024511Y-112721037D01*
X151080000Y-112710000D01*
X151390000Y-112710000D01*
X151445489Y-112721037D01*
G37*
G36*
X152380119Y-112720467D02*
G01*
X152424727Y-112750273D01*
X152454533Y-112794881D01*
X152465000Y-112847500D01*
X152465000Y-113152500D01*
X152454533Y-113205119D01*
X152424727Y-113249727D01*
X152380119Y-113279533D01*
X152327500Y-113290000D01*
X152052500Y-113290000D01*
X151999881Y-113279533D01*
X151955273Y-113249727D01*
X151925467Y-113205119D01*
X151915000Y-113152500D01*
X151915000Y-112847500D01*
X151925467Y-112794881D01*
X151955273Y-112750273D01*
X151999881Y-112720467D01*
X152052500Y-112710000D01*
X152327500Y-112710000D01*
X152380119Y-112720467D01*
G37*
G36*
X152407403Y-111461418D02*
G01*
X152456066Y-111493934D01*
X152488582Y-111542597D01*
X152500000Y-111600000D01*
X152500000Y-112000000D01*
X152488582Y-112057403D01*
X152456066Y-112106066D01*
X152407403Y-112138582D01*
X152350000Y-112150000D01*
X152050000Y-112150000D01*
X151992597Y-112138582D01*
X151943934Y-112106066D01*
X151911418Y-112057403D01*
X151900000Y-112000000D01*
X151900000Y-111600000D01*
X151911418Y-111542597D01*
X151943934Y-111493934D01*
X151992597Y-111461418D01*
X152050000Y-111450000D01*
X152350000Y-111450000D01*
X152407403Y-111461418D01*
G37*
G36*
X114166891Y-110268804D02*
G01*
X114325413Y-110324273D01*
X114467617Y-110413626D01*
X114586374Y-110532383D01*
X114675727Y-110674587D01*
X114731196Y-110833109D01*
X114750000Y-111000000D01*
X114731196Y-111166891D01*
X114675727Y-111325413D01*
X114586374Y-111467617D01*
X114467617Y-111586374D01*
X114325413Y-111675727D01*
X114166891Y-111731196D01*
X114000000Y-111750000D01*
X113833109Y-111731196D01*
X113674587Y-111675727D01*
X113532383Y-111586374D01*
X113413626Y-111467617D01*
X113324273Y-111325413D01*
X113268804Y-111166891D01*
X113250000Y-111000000D01*
X113268804Y-110833109D01*
X113324273Y-110674587D01*
X113413626Y-110532383D01*
X113532383Y-110413626D01*
X113674587Y-110324273D01*
X113833109Y-110268804D01*
X114000000Y-110250000D01*
X114166891Y-110268804D01*
G37*
G36*
X155950489Y-111026037D02*
G01*
X155997530Y-111057470D01*
X156028963Y-111104511D01*
X156040000Y-111160000D01*
X156040000Y-111470000D01*
X156028963Y-111525489D01*
X155997530Y-111572530D01*
X155950489Y-111603963D01*
X155895000Y-111615000D01*
X155605000Y-111615000D01*
X155549511Y-111603963D01*
X155502470Y-111572530D01*
X155471037Y-111525489D01*
X155460000Y-111470000D01*
X155460000Y-111160000D01*
X155471037Y-111104511D01*
X155502470Y-111057470D01*
X155549511Y-111026037D01*
X155605000Y-111015000D01*
X155895000Y-111015000D01*
X155950489Y-111026037D01*
G37*
G36*
X149957403Y-110911418D02*
G01*
X150006066Y-110943934D01*
X150038582Y-110992597D01*
X150050000Y-111050000D01*
X150050000Y-111350000D01*
X150038582Y-111407403D01*
X150006066Y-111456066D01*
X149957403Y-111488582D01*
X149900000Y-111500000D01*
X149500000Y-111500000D01*
X149442597Y-111488582D01*
X149393934Y-111456066D01*
X149361418Y-111407403D01*
X149350000Y-111350000D01*
X149350000Y-111050000D01*
X149361418Y-110992597D01*
X149393934Y-110943934D01*
X149442597Y-110911418D01*
X149500000Y-110900000D01*
X149900000Y-110900000D01*
X149957403Y-110911418D01*
G37*
G36*
X155955119Y-110095467D02*
G01*
X155999727Y-110125273D01*
X156029533Y-110169881D01*
X156040000Y-110222500D01*
X156040000Y-110497500D01*
X156029533Y-110550119D01*
X155999727Y-110594727D01*
X155955119Y-110624533D01*
X155902500Y-110635000D01*
X155597500Y-110635000D01*
X155544881Y-110624533D01*
X155500273Y-110594727D01*
X155470467Y-110550119D01*
X155460000Y-110497500D01*
X155460000Y-110222500D01*
X155470467Y-110169881D01*
X155500273Y-110125273D01*
X155544881Y-110095467D01*
X155597500Y-110085000D01*
X155902500Y-110085000D01*
X155955119Y-110095467D01*
G37*
G36*
X151457403Y-109461418D02*
G01*
X151506066Y-109493934D01*
X151538582Y-109542597D01*
X151550000Y-109600000D01*
X151550000Y-110000000D01*
X151538582Y-110057403D01*
X151506066Y-110106066D01*
X151457403Y-110138582D01*
X151400000Y-110150000D01*
X151100000Y-110150000D01*
X151042597Y-110138582D01*
X150993934Y-110106066D01*
X150961418Y-110057403D01*
X150950000Y-110000000D01*
X150950000Y-109600000D01*
X150961418Y-109542597D01*
X150993934Y-109493934D01*
X151042597Y-109461418D01*
X151100000Y-109450000D01*
X151400000Y-109450000D01*
X151457403Y-109461418D01*
G37*
G36*
X153357403Y-109461418D02*
G01*
X153406066Y-109493934D01*
X153438582Y-109542597D01*
X153450000Y-109600000D01*
X153450000Y-110000000D01*
X153438582Y-110057403D01*
X153406066Y-110106066D01*
X153357403Y-110138582D01*
X153300000Y-110150000D01*
X153000000Y-110150000D01*
X152942597Y-110138582D01*
X152893934Y-110106066D01*
X152861418Y-110057403D01*
X152850000Y-110000000D01*
X152850000Y-109600000D01*
X152861418Y-109542597D01*
X152893934Y-109493934D01*
X152942597Y-109461418D01*
X153000000Y-109450000D01*
X153300000Y-109450000D01*
X153357403Y-109461418D01*
G37*
G36*
X149957403Y-109511418D02*
G01*
X150006066Y-109543934D01*
X150038582Y-109592597D01*
X150050000Y-109650000D01*
X150050000Y-109950000D01*
X150038582Y-110007403D01*
X150006066Y-110056066D01*
X149957403Y-110088582D01*
X149900000Y-110100000D01*
X149500000Y-110100000D01*
X149442597Y-110088582D01*
X149393934Y-110056066D01*
X149361418Y-110007403D01*
X149350000Y-109950000D01*
X149350000Y-109650000D01*
X149361418Y-109592597D01*
X149393934Y-109543934D01*
X149442597Y-109511418D01*
X149500000Y-109500000D01*
X149900000Y-109500000D01*
X149957403Y-109511418D01*
G37*
G36*
X114166891Y-108268804D02*
G01*
X114325413Y-108324273D01*
X114467617Y-108413626D01*
X114586374Y-108532383D01*
X114675727Y-108674587D01*
X114731196Y-108833109D01*
X114750000Y-109000000D01*
X114731196Y-109166891D01*
X114675727Y-109325413D01*
X114586374Y-109467617D01*
X114467617Y-109586374D01*
X114325413Y-109675727D01*
X114166891Y-109731196D01*
X114000000Y-109750000D01*
X113833109Y-109731196D01*
X113674587Y-109675727D01*
X113532383Y-109586374D01*
X113413626Y-109467617D01*
X113324273Y-109325413D01*
X113268804Y-109166891D01*
X113250000Y-109000000D01*
X113268804Y-108833109D01*
X113324273Y-108674587D01*
X113413626Y-108532383D01*
X113532383Y-108413626D01*
X113674587Y-108324273D01*
X113833109Y-108268804D01*
X114000000Y-108250000D01*
X114166891Y-108268804D01*
G37*
G36*
X151457403Y-108261418D02*
G01*
X151506066Y-108293934D01*
X151538582Y-108342597D01*
X151550000Y-108400000D01*
X151550000Y-108800000D01*
X151538582Y-108857403D01*
X151506066Y-108906066D01*
X151457403Y-108938582D01*
X151400000Y-108950000D01*
X151100000Y-108950000D01*
X151042597Y-108938582D01*
X150993934Y-108906066D01*
X150961418Y-108857403D01*
X150950000Y-108800000D01*
X150950000Y-108400000D01*
X150961418Y-108342597D01*
X150993934Y-108293934D01*
X151042597Y-108261418D01*
X151100000Y-108250000D01*
X151400000Y-108250000D01*
X151457403Y-108261418D01*
G37*
G36*
X153357403Y-108261418D02*
G01*
X153406066Y-108293934D01*
X153438582Y-108342597D01*
X153450000Y-108400000D01*
X153450000Y-108800000D01*
X153438582Y-108857403D01*
X153406066Y-108906066D01*
X153357403Y-108938582D01*
X153300000Y-108950000D01*
X153000000Y-108950000D01*
X152942597Y-108938582D01*
X152893934Y-108906066D01*
X152861418Y-108857403D01*
X152850000Y-108800000D01*
X152850000Y-108400000D01*
X152861418Y-108342597D01*
X152893934Y-108293934D01*
X152942597Y-108261418D01*
X153000000Y-108250000D01*
X153300000Y-108250000D01*
X153357403Y-108261418D01*
G37*
G36*
X139945616Y-105297818D02*
G01*
X139996879Y-105303766D01*
X140014392Y-105311499D01*
X140037171Y-105316030D01*
X140061557Y-105332324D01*
X140082288Y-105341478D01*
X140096446Y-105355636D01*
X140118277Y-105370223D01*
X140132863Y-105392053D01*
X140147021Y-105406211D01*
X140156173Y-105426939D01*
X140172470Y-105451329D01*
X140177001Y-105474109D01*
X140184733Y-105491620D01*
X140190678Y-105542872D01*
X140191500Y-105547000D01*
X140191500Y-107853000D01*
X140190678Y-107857128D01*
X140184733Y-107908379D01*
X140177001Y-107925888D01*
X140172470Y-107948671D01*
X140156172Y-107973062D01*
X140147021Y-107993788D01*
X140132865Y-108007943D01*
X140118277Y-108029777D01*
X140096443Y-108044365D01*
X140082288Y-108058521D01*
X140061562Y-108067672D01*
X140037171Y-108083970D01*
X140014388Y-108088501D01*
X139996879Y-108096233D01*
X139945629Y-108102178D01*
X139941500Y-108103000D01*
X139076500Y-108103000D01*
X139072373Y-108102179D01*
X139021120Y-108096233D01*
X139003609Y-108088501D01*
X138980829Y-108083970D01*
X138956439Y-108067673D01*
X138935711Y-108058521D01*
X138921553Y-108044363D01*
X138899723Y-108029777D01*
X138885136Y-108007946D01*
X138870978Y-107993788D01*
X138861824Y-107973057D01*
X138845530Y-107948671D01*
X138840999Y-107925892D01*
X138833266Y-107908379D01*
X138827318Y-107857117D01*
X138826500Y-107853000D01*
X138826500Y-105547000D01*
X138827318Y-105542885D01*
X138833266Y-105491620D01*
X138840999Y-105474105D01*
X138845530Y-105451329D01*
X138861823Y-105426944D01*
X138870978Y-105406211D01*
X138885138Y-105392050D01*
X138899723Y-105370223D01*
X138921550Y-105355638D01*
X138935711Y-105341478D01*
X138956444Y-105332323D01*
X138980829Y-105316030D01*
X139003605Y-105311499D01*
X139021120Y-105303766D01*
X139072384Y-105297818D01*
X139076500Y-105297000D01*
X139941500Y-105297000D01*
X139945616Y-105297818D01*
G37*
G36*
X144927616Y-105297818D02*
G01*
X144978879Y-105303766D01*
X144996392Y-105311499D01*
X145019171Y-105316030D01*
X145043557Y-105332324D01*
X145064288Y-105341478D01*
X145078446Y-105355636D01*
X145100277Y-105370223D01*
X145114863Y-105392053D01*
X145129021Y-105406211D01*
X145138173Y-105426939D01*
X145154470Y-105451329D01*
X145159001Y-105474109D01*
X145166733Y-105491620D01*
X145172678Y-105542872D01*
X145173500Y-105547000D01*
X145173500Y-107853000D01*
X145172678Y-107857128D01*
X145166733Y-107908379D01*
X145159001Y-107925888D01*
X145154470Y-107948671D01*
X145138172Y-107973062D01*
X145129021Y-107993788D01*
X145114865Y-108007943D01*
X145100277Y-108029777D01*
X145078443Y-108044365D01*
X145064288Y-108058521D01*
X145043562Y-108067672D01*
X145019171Y-108083970D01*
X144996388Y-108088501D01*
X144978879Y-108096233D01*
X144927629Y-108102178D01*
X144923500Y-108103000D01*
X144058500Y-108103000D01*
X144054373Y-108102179D01*
X144003120Y-108096233D01*
X143985609Y-108088501D01*
X143962829Y-108083970D01*
X143938439Y-108067673D01*
X143917711Y-108058521D01*
X143903553Y-108044363D01*
X143881723Y-108029777D01*
X143867136Y-108007946D01*
X143852978Y-107993788D01*
X143843824Y-107973057D01*
X143827530Y-107948671D01*
X143822999Y-107925892D01*
X143815266Y-107908379D01*
X143809318Y-107857117D01*
X143808500Y-107853000D01*
X143808500Y-105547000D01*
X143809318Y-105542885D01*
X143815266Y-105491620D01*
X143822999Y-105474105D01*
X143827530Y-105451329D01*
X143843823Y-105426944D01*
X143852978Y-105406211D01*
X143867138Y-105392050D01*
X143881723Y-105370223D01*
X143903550Y-105355638D01*
X143917711Y-105341478D01*
X143938444Y-105332323D01*
X143962829Y-105316030D01*
X143985605Y-105311499D01*
X144003120Y-105303766D01*
X144054384Y-105297818D01*
X144058500Y-105297000D01*
X144923500Y-105297000D01*
X144927616Y-105297818D01*
G37*
G36*
X158500489Y-107176037D02*
G01*
X158547530Y-107207470D01*
X158578963Y-107254511D01*
X158590000Y-107310000D01*
X158590000Y-107620000D01*
X158578963Y-107675489D01*
X158547530Y-107722530D01*
X158500489Y-107753963D01*
X158445000Y-107765000D01*
X158155000Y-107765000D01*
X158099511Y-107753963D01*
X158052470Y-107722530D01*
X158021037Y-107675489D01*
X158010000Y-107620000D01*
X158010000Y-107310000D01*
X158021037Y-107254511D01*
X158052470Y-107207470D01*
X158099511Y-107176037D01*
X158155000Y-107165000D01*
X158445000Y-107165000D01*
X158500489Y-107176037D01*
G37*
G36*
X159800489Y-107135537D02*
G01*
X159847530Y-107166970D01*
X159878963Y-107214011D01*
X159890000Y-107269500D01*
X159890000Y-107604500D01*
X159878963Y-107659989D01*
X159847530Y-107707030D01*
X159800489Y-107738463D01*
X159745000Y-107749500D01*
X159455000Y-107749500D01*
X159399511Y-107738463D01*
X159352470Y-107707030D01*
X159321037Y-107659989D01*
X159310000Y-107604500D01*
X159310000Y-107269500D01*
X159321037Y-107214011D01*
X159352470Y-107166970D01*
X159399511Y-107135537D01*
X159455000Y-107124500D01*
X159745000Y-107124500D01*
X159800489Y-107135537D01*
G37*
G36*
X114463711Y-106253130D02*
G01*
X114588685Y-106277989D01*
X114706408Y-106326751D01*
X114812356Y-106397543D01*
X114902457Y-106487644D01*
X114973249Y-106593592D01*
X115022011Y-106711315D01*
X115046870Y-106836289D01*
X115046870Y-106963711D01*
X115022011Y-107088685D01*
X114973249Y-107206408D01*
X114902457Y-107312356D01*
X114812356Y-107402457D01*
X114706408Y-107473249D01*
X114588685Y-107522011D01*
X114463711Y-107546870D01*
X114400000Y-107550000D01*
X114398749Y-107550000D01*
X113601251Y-107550000D01*
X113600000Y-107550000D01*
X113536289Y-107546870D01*
X113411315Y-107522011D01*
X113293592Y-107473249D01*
X113187644Y-107402457D01*
X113097543Y-107312356D01*
X113026751Y-107206408D01*
X112977989Y-107088685D01*
X112953130Y-106963711D01*
X112953130Y-106836289D01*
X112977989Y-106711315D01*
X113026751Y-106593592D01*
X113097543Y-106487644D01*
X113187644Y-106397543D01*
X113293592Y-106326751D01*
X113411315Y-106277989D01*
X113536289Y-106253130D01*
X113600000Y-106250000D01*
X114400000Y-106250000D01*
X114463711Y-106253130D01*
G37*
G36*
X152407403Y-106261418D02*
G01*
X152456066Y-106293934D01*
X152488582Y-106342597D01*
X152500000Y-106400000D01*
X152500000Y-106800000D01*
X152488582Y-106857403D01*
X152456066Y-106906066D01*
X152407403Y-106938582D01*
X152350000Y-106950000D01*
X152050000Y-106950000D01*
X151992597Y-106938582D01*
X151943934Y-106906066D01*
X151911418Y-106857403D01*
X151900000Y-106800000D01*
X151900000Y-106400000D01*
X151911418Y-106342597D01*
X151943934Y-106293934D01*
X151992597Y-106261418D01*
X152050000Y-106250000D01*
X152350000Y-106250000D01*
X152407403Y-106261418D01*
G37*
G36*
X159800489Y-106261537D02*
G01*
X159847530Y-106292970D01*
X159878963Y-106340011D01*
X159890000Y-106395500D01*
X159890000Y-106730500D01*
X159878963Y-106785989D01*
X159847530Y-106833030D01*
X159800489Y-106864463D01*
X159745000Y-106875500D01*
X159455000Y-106875500D01*
X159399511Y-106864463D01*
X159352470Y-106833030D01*
X159321037Y-106785989D01*
X159310000Y-106730500D01*
X159310000Y-106395500D01*
X159321037Y-106340011D01*
X159352470Y-106292970D01*
X159399511Y-106261537D01*
X159455000Y-106250500D01*
X159745000Y-106250500D01*
X159800489Y-106261537D01*
G37*
G36*
X158505119Y-106245467D02*
G01*
X158549727Y-106275273D01*
X158579533Y-106319881D01*
X158590000Y-106372500D01*
X158590000Y-106647500D01*
X158579533Y-106700119D01*
X158549727Y-106744727D01*
X158505119Y-106774533D01*
X158452500Y-106785000D01*
X158147500Y-106785000D01*
X158094881Y-106774533D01*
X158050273Y-106744727D01*
X158020467Y-106700119D01*
X158010000Y-106647500D01*
X158010000Y-106372500D01*
X158020467Y-106319881D01*
X158050273Y-106275273D01*
X158094881Y-106245467D01*
X158147500Y-106235000D01*
X158452500Y-106235000D01*
X158505119Y-106245467D01*
G37*
G36*
X155057403Y-105461418D02*
G01*
X155106066Y-105493934D01*
X155138582Y-105542597D01*
X155150000Y-105600000D01*
X155150000Y-106000000D01*
X155138582Y-106057403D01*
X155106066Y-106106066D01*
X155057403Y-106138582D01*
X155000000Y-106150000D01*
X154700000Y-106150000D01*
X154642597Y-106138582D01*
X154593934Y-106106066D01*
X154561418Y-106057403D01*
X154550000Y-106000000D01*
X154550000Y-105600000D01*
X154561418Y-105542597D01*
X154593934Y-105493934D01*
X154642597Y-105461418D01*
X154700000Y-105450000D01*
X155000000Y-105450000D01*
X155057403Y-105461418D01*
G37*
G36*
X156957403Y-105461418D02*
G01*
X157006066Y-105493934D01*
X157038582Y-105542597D01*
X157050000Y-105600000D01*
X157050000Y-106000000D01*
X157038582Y-106057403D01*
X157006066Y-106106066D01*
X156957403Y-106138582D01*
X156900000Y-106150000D01*
X156600000Y-106150000D01*
X156542597Y-106138582D01*
X156493934Y-106106066D01*
X156461418Y-106057403D01*
X156450000Y-106000000D01*
X156450000Y-105600000D01*
X156461418Y-105542597D01*
X156493934Y-105493934D01*
X156542597Y-105461418D01*
X156600000Y-105450000D01*
X156900000Y-105450000D01*
X156957403Y-105461418D01*
G37*
G36*
X152400489Y-104976037D02*
G01*
X152447530Y-105007470D01*
X152478963Y-105054511D01*
X152490000Y-105110000D01*
X152490000Y-105420000D01*
X152478963Y-105475489D01*
X152447530Y-105522530D01*
X152400489Y-105553963D01*
X152345000Y-105565000D01*
X152055000Y-105565000D01*
X151999511Y-105553963D01*
X151952470Y-105522530D01*
X151921037Y-105475489D01*
X151910000Y-105420000D01*
X151910000Y-105110000D01*
X151921037Y-105054511D01*
X151952470Y-105007470D01*
X151999511Y-104976037D01*
X152055000Y-104965000D01*
X152345000Y-104965000D01*
X152400489Y-104976037D01*
G37*
G36*
X153605119Y-105025467D02*
G01*
X153649727Y-105055273D01*
X153679533Y-105099881D01*
X153690000Y-105152500D01*
X153690000Y-105427500D01*
X153679533Y-105480119D01*
X153649727Y-105524727D01*
X153605119Y-105554533D01*
X153552500Y-105565000D01*
X153247500Y-105565000D01*
X153194881Y-105554533D01*
X153150273Y-105524727D01*
X153120467Y-105480119D01*
X153110000Y-105427500D01*
X153110000Y-105152500D01*
X153120467Y-105099881D01*
X153150273Y-105055273D01*
X153194881Y-105025467D01*
X153247500Y-105015000D01*
X153552500Y-105015000D01*
X153605119Y-105025467D01*
G37*
G36*
X158500489Y-104976037D02*
G01*
X158547530Y-105007470D01*
X158578963Y-105054511D01*
X158590000Y-105110000D01*
X158590000Y-105420000D01*
X158578963Y-105475489D01*
X158547530Y-105522530D01*
X158500489Y-105553963D01*
X158445000Y-105565000D01*
X158155000Y-105565000D01*
X158099511Y-105553963D01*
X158052470Y-105522530D01*
X158021037Y-105475489D01*
X158010000Y-105420000D01*
X158010000Y-105110000D01*
X158021037Y-105054511D01*
X158052470Y-105007470D01*
X158099511Y-104976037D01*
X158155000Y-104965000D01*
X158445000Y-104965000D01*
X158500489Y-104976037D01*
G37*
G36*
X153600489Y-104046037D02*
G01*
X153647530Y-104077470D01*
X153678963Y-104124511D01*
X153690000Y-104180000D01*
X153690000Y-104490000D01*
X153678963Y-104545489D01*
X153647530Y-104592530D01*
X153600489Y-104623963D01*
X153545000Y-104635000D01*
X153255000Y-104635000D01*
X153199511Y-104623963D01*
X153152470Y-104592530D01*
X153121037Y-104545489D01*
X153110000Y-104490000D01*
X153110000Y-104180000D01*
X153121037Y-104124511D01*
X153152470Y-104077470D01*
X153199511Y-104046037D01*
X153255000Y-104035000D01*
X153545000Y-104035000D01*
X153600489Y-104046037D01*
G37*
G36*
X152405119Y-104045467D02*
G01*
X152449727Y-104075273D01*
X152479533Y-104119881D01*
X152490000Y-104172500D01*
X152490000Y-104447500D01*
X152479533Y-104500119D01*
X152449727Y-104544727D01*
X152405119Y-104574533D01*
X152352500Y-104585000D01*
X152047500Y-104585000D01*
X151994881Y-104574533D01*
X151950273Y-104544727D01*
X151920467Y-104500119D01*
X151910000Y-104447500D01*
X151910000Y-104172500D01*
X151920467Y-104119881D01*
X151950273Y-104075273D01*
X151994881Y-104045467D01*
X152047500Y-104035000D01*
X152352500Y-104035000D01*
X152405119Y-104045467D01*
G37*
G36*
X158505119Y-104045467D02*
G01*
X158549727Y-104075273D01*
X158579533Y-104119881D01*
X158590000Y-104172500D01*
X158590000Y-104447500D01*
X158579533Y-104500119D01*
X158549727Y-104544727D01*
X158505119Y-104574533D01*
X158452500Y-104585000D01*
X158147500Y-104585000D01*
X158094881Y-104574533D01*
X158050273Y-104544727D01*
X158020467Y-104500119D01*
X158010000Y-104447500D01*
X158010000Y-104172500D01*
X158020467Y-104119881D01*
X158050273Y-104075273D01*
X158094881Y-104045467D01*
X158147500Y-104035000D01*
X158452500Y-104035000D01*
X158505119Y-104045467D01*
G37*
G36*
X156007403Y-103461418D02*
G01*
X156056066Y-103493934D01*
X156088582Y-103542597D01*
X156100000Y-103600000D01*
X156100000Y-104000000D01*
X156088582Y-104057403D01*
X156056066Y-104106066D01*
X156007403Y-104138582D01*
X155950000Y-104150000D01*
X155650000Y-104150000D01*
X155592597Y-104138582D01*
X155543934Y-104106066D01*
X155511418Y-104057403D01*
X155500000Y-104000000D01*
X155500000Y-103600000D01*
X155511418Y-103542597D01*
X155543934Y-103493934D01*
X155592597Y-103461418D01*
X155650000Y-103450000D01*
X155950000Y-103450000D01*
X156007403Y-103461418D01*
G37*
G36*
X170095090Y-91519215D02*
G01*
X170282683Y-91576120D01*
X170455570Y-91668530D01*
X170607107Y-91792893D01*
X170731470Y-91944430D01*
X170823880Y-92117317D01*
X170880785Y-92304910D01*
X170900000Y-92500000D01*
X170880785Y-92695090D01*
X170823880Y-92882683D01*
X170731470Y-93055570D01*
X170607107Y-93207107D01*
X170455570Y-93331470D01*
X170282683Y-93423880D01*
X170095090Y-93480785D01*
X169900000Y-93500000D01*
X169704910Y-93480785D01*
X169517317Y-93423880D01*
X169344430Y-93331470D01*
X169192893Y-93207107D01*
X169068530Y-93055570D01*
X168976120Y-92882683D01*
X168919215Y-92695090D01*
X168900000Y-92500000D01*
X168919215Y-92304910D01*
X168976120Y-92117317D01*
X169068530Y-91944430D01*
X169192893Y-91792893D01*
X169344430Y-91668530D01*
X169517317Y-91576120D01*
X169704910Y-91519215D01*
X169900000Y-91500000D01*
X170095090Y-91519215D01*
G37*
G36*
X111871342Y-88438060D02*
G01*
X111984381Y-88503323D01*
X112076677Y-88595619D01*
X112141940Y-88708658D01*
X112175722Y-88834737D01*
X112180000Y-88900000D01*
X112180000Y-90100000D01*
X112175722Y-90165263D01*
X112141940Y-90291342D01*
X112076677Y-90404381D01*
X111984381Y-90496677D01*
X111871342Y-90561940D01*
X111745263Y-90595722D01*
X111614737Y-90595722D01*
X111488658Y-90561940D01*
X111375619Y-90496677D01*
X111283323Y-90404381D01*
X111218060Y-90291342D01*
X111184278Y-90165263D01*
X111180000Y-90100000D01*
X111180000Y-88900000D01*
X111184278Y-88834737D01*
X111218060Y-88708658D01*
X111283323Y-88595619D01*
X111375619Y-88503323D01*
X111488658Y-88438060D01*
X111614737Y-88404278D01*
X111745263Y-88404278D01*
X111871342Y-88438060D01*
G37*
G36*
X120511342Y-88438060D02*
G01*
X120624381Y-88503323D01*
X120716677Y-88595619D01*
X120781940Y-88708658D01*
X120815722Y-88834737D01*
X120820000Y-88900000D01*
X120820000Y-90100000D01*
X120815722Y-90165263D01*
X120781940Y-90291342D01*
X120716677Y-90404381D01*
X120624381Y-90496677D01*
X120511342Y-90561940D01*
X120385263Y-90595722D01*
X120254737Y-90595722D01*
X120128658Y-90561940D01*
X120015619Y-90496677D01*
X119923323Y-90404381D01*
X119858060Y-90291342D01*
X119824278Y-90165263D01*
X119820000Y-90100000D01*
X119820000Y-88900000D01*
X119824278Y-88834737D01*
X119858060Y-88708658D01*
X119923323Y-88595619D01*
X120015619Y-88503323D01*
X120128658Y-88438060D01*
X120254737Y-88404278D01*
X120385263Y-88404278D01*
X120511342Y-88438060D01*
G37*
G36*
X170900000Y-88500000D02*
G01*
X168900000Y-88500000D01*
X168900000Y-86500000D01*
X170900000Y-86500000D01*
X170900000Y-88500000D01*
G37*
G36*
X111871342Y-84438060D02*
G01*
X111984381Y-84503323D01*
X112076677Y-84595619D01*
X112141940Y-84708658D01*
X112175722Y-84834737D01*
X112180000Y-84900000D01*
X112180000Y-86100000D01*
X112175722Y-86165263D01*
X112141940Y-86291342D01*
X112076677Y-86404381D01*
X111984381Y-86496677D01*
X111871342Y-86561940D01*
X111745263Y-86595722D01*
X111614737Y-86595722D01*
X111488658Y-86561940D01*
X111375619Y-86496677D01*
X111283323Y-86404381D01*
X111218060Y-86291342D01*
X111184278Y-86165263D01*
X111180000Y-86100000D01*
X111180000Y-84900000D01*
X111184278Y-84834737D01*
X111218060Y-84708658D01*
X111283323Y-84595619D01*
X111375619Y-84503323D01*
X111488658Y-84438060D01*
X111614737Y-84404278D01*
X111745263Y-84404278D01*
X111871342Y-84438060D01*
G37*
G36*
X120511342Y-84438060D02*
G01*
X120624381Y-84503323D01*
X120716677Y-84595619D01*
X120781940Y-84708658D01*
X120815722Y-84834737D01*
X120820000Y-84900000D01*
X120820000Y-86100000D01*
X120815722Y-86165263D01*
X120781940Y-86291342D01*
X120716677Y-86404381D01*
X120624381Y-86496677D01*
X120511342Y-86561940D01*
X120385263Y-86595722D01*
X120254737Y-86595722D01*
X120128658Y-86561940D01*
X120015619Y-86496677D01*
X119923323Y-86404381D01*
X119858060Y-86291342D01*
X119824278Y-86165263D01*
X119820000Y-86100000D01*
X119820000Y-84900000D01*
X119824278Y-84834737D01*
X119858060Y-84708658D01*
X119923323Y-84595619D01*
X120015619Y-84503323D01*
X120128658Y-84438060D01*
X120254737Y-84404278D01*
X120385263Y-84404278D01*
X120511342Y-84438060D01*
G37*
M02*
