M48
; DRILL file {KiCad 8.0.8+1} date 2025-01-21T14:06:54-0500
; FORMAT={-:-/ absolute / inch / decimal}
; #@! TF.CreationDate,2025-01-21T14:06:54-05:00
; #@! TF.GenerationSoftware,Kicad,Pcbnew,8.0.8+1
; #@! TF.FileFunction,Plated,1,4,PTH
FMAT,2
INCH
; #@! TA.AperFunction,Plated,PTH,ViaDrill
T1C0.0108
; #@! TA.AperFunction,Plated,PTH,ViaDrill
T2C0.0118
; #@! TA.AperFunction,Plated,PTH,ViaDrill
T3C0.0138
; #@! TA.AperFunction,Plated,PTH,ViaDrill
T4C0.0177
; #@! TA.AperFunction,Plated,PTH,ComponentDrill
T5C0.0236
; #@! TA.AperFunction,Plated,PTH,ComponentDrill
T6C0.0276
; #@! TA.AperFunction,Plated,PTH,ComponentDrill
T7C0.0354
; #@! TA.AperFunction,Plated,PTH,ComponentDrill
T8C0.0394
; #@! TA.AperFunction,Plated,PTH,ComponentDrill
T9C0.0512
; #@! TA.AperFunction,Plated,PTH,ComponentDrill
T10C0.0709
%
G90
G05
T1
X4.3878Y-3.8209
X4.3878Y-3.8524
X4.4252Y-4.689
X4.4252Y-4.7244
X4.4843Y-4.0748
X4.4986Y-3.6305
X4.5413Y-3.9941
X4.5472Y-3.8524
X4.5472Y-3.8976
X4.5472Y-3.9488
X4.5748Y-3.8209
X4.5795Y-5.0039
X4.5945Y-4.0295
X4.6207Y-3.6305
X4.6496Y-4.7874
X4.6594Y-3.8937
X4.6594Y-3.9449
X4.6594Y-3.9961
X4.6594Y-4.3366
X4.6811Y-4.3366
X4.6929Y-4.7559
X4.7106Y-3.8937
X4.7106Y-3.9449
X4.7106Y-3.9961
X4.7126Y-3.6457
X4.7268Y-4.9567
X4.7283Y-5.0591
X4.7362Y-3.7283
X4.7547Y-4.8602
X4.7618Y-3.8937
X4.7618Y-3.9449
X4.7618Y-3.9961
X4.811Y-4.3504
X4.811Y-4.4685
X4.8366Y-3.872
X4.8386Y-4.0236
X4.8386Y-4.3268
X4.8622Y-4.4882
X4.8661Y-4.3898
X4.876Y-3.6457
X4.8907Y-3.8238
X4.8937Y-4.3898
X4.9016Y-3.3976
X4.9213Y-4.3898
X5.0512Y-4.0531
X5.0512Y-4.0846
X5.0512Y-4.1378
X5.0512Y-4.1693
X5.3327Y-4.5039
X5.3976Y-3.9921
X5.3976Y-4.1004
X5.4134Y-4.0433
X5.4921Y-3.7382
X5.4921Y-3.7854
X5.5197Y-3.8986
X5.5787Y-4.5669
X5.5792Y-4.5389
X5.5965Y-4.6496
X5.6043Y-4.4882
X5.6319Y-3.6122
X5.6398Y-3.999
X5.651Y-4.3136
X5.6555Y-4.4419
X5.6565Y-3.8986
X5.6624Y-3.7293
X5.6654Y-4.1368
X5.6693Y-4.5276
X5.6752Y-3.876
X5.6811Y-4.4291
X5.687Y-4.5728
X5.687Y-4.5945
X5.689Y-4.0197
X5.7087Y-4.6673
X5.7136Y-4.4619
X5.7164Y-4.549
X5.7283Y-3.6378
X5.7303Y-4.5728
X5.7303Y-4.5945
X5.7352Y-4.0256
X5.7677Y-3.7933
X5.7756Y-3.689
X5.7805Y-4.436
X5.7835Y-3.999
X5.8051Y-4.3366
X5.8071Y-3.6614
X5.8169Y-4.6516
X5.8278Y-4.3583
X5.8283Y-4.5684
X5.8297Y-3.69
X5.8307Y-3.8967
X5.9488Y-4.2205
X6.0551Y-5.0472
X6.1043Y-4.315
X6.1801Y-4.1112
X6.2205Y-4.5098
T2
X4.4252Y-4.6535
X4.4252Y-4.7559
T3
X4.2913Y-3.622
X4.2913Y-3.7795
X4.2913Y-3.937
X4.2913Y-4.0945
X4.2913Y-4.252
X4.2913Y-4.4094
X4.2913Y-4.5669
X4.2913Y-4.7244
X4.2913Y-4.8819
X4.3858Y-3.7756
X4.4291Y-5.1575
X4.5472Y-4.3307
X4.5689Y-4.1535
X4.6063Y-3.3858
X4.6654Y-4.5472
X4.7441Y-4.7047
X4.7638Y-5.1575
X4.815Y-4.0945
X4.8484Y-3.8425
X4.8622Y-4.7047
X4.9016Y-3.5236
X4.9016Y-3.6811
X4.9764Y-3.6142
X4.9764Y-3.7008
X4.9764Y-3.9606
X4.9764Y-4.1102
X5.0197Y-3.3858
X5.0984Y-3.3071
X5.0984Y-3.4646
X5.1457Y-4.9016
X5.1457Y-4.9488
X5.1772Y-3.3858
X5.1772Y-3.5433
X5.1772Y-3.7008
X5.1929Y-4.9016
X5.1929Y-4.9488
X5.2402Y-4.9016
X5.2402Y-4.9488
X5.2559Y-3.3071
X5.2559Y-3.4646
X5.2559Y-3.622
X5.2559Y-3.7795
X5.2756Y-3.9567
X5.2825Y-4.4154
X5.2874Y-4.9016
X5.2874Y-4.9488
X5.3346Y-3.3858
X5.3346Y-3.5433
X5.3346Y-3.7008
X5.3346Y-3.8976
X5.3346Y-4.9016
X5.3346Y-4.9488
X5.3819Y-4.9016
X5.3819Y-4.9488
X5.4134Y-3.3071
X5.4134Y-3.4646
X5.4134Y-3.622
X5.4134Y-3.8189
X5.4134Y-3.8976
X5.4291Y-4.9016
X5.4291Y-4.9488
X5.4764Y-4.9016
X5.4764Y-4.9488
X5.4803Y-4.378
X5.4921Y-3.3858
X5.4921Y-3.5433
X5.5098Y-4.2815
X5.5197Y-3.9665
X5.5236Y-4.9016
X5.5236Y-4.9488
X5.5709Y-3.3071
X5.5709Y-3.4646
X5.6024Y-4.3858
X5.6496Y-3.3858
X5.6496Y-3.5433
X5.6496Y-4.2618
X5.7283Y-3.3071
X5.7283Y-3.4646
X5.7949Y-4.4697
X5.8071Y-3.3858
X5.8071Y-3.5433
X5.8268Y-4.6102
X5.8858Y-3.3071
X5.8858Y-3.4646
X5.8858Y-3.622
X5.8858Y-4.4094
X5.8898Y-4.0315
X5.8937Y-4.9016
X5.8937Y-4.9488
X5.9055Y-4.3071
X5.9163Y-4.0039
X5.9173Y-4.4646
X5.9213Y-4.1654
X5.937Y-5.0315
X5.9488Y-4.4961
X5.9646Y-3.5433
X5.9754Y-4.0039
X5.9882Y-4.9016
X5.9961Y-4.4449
X6.0354Y-3.8307
X6.0354Y-4.4449
X6.0433Y-3.3071
X6.0433Y-3.4646
X6.0433Y-3.622
X6.0728Y-3.9291
X6.0827Y-4.9016
X6.0827Y-4.9488
X6.0906Y-4.4449
X6.1102Y-3.9291
X6.1299Y-4.4449
X6.1476Y-3.9291
X6.1614Y-4.3189
X6.2008Y-3.3071
X6.2559Y-4.0748
X6.2559Y-4.1339
X6.2559Y-4.1929
X6.2638Y-3.9272
X6.3012Y-3.9272
X6.3051Y-4.0748
X6.3051Y-4.1339
X6.3051Y-4.1929
X6.3583Y-4.5669
X6.3583Y-4.7244
X6.3583Y-4.8819
X6.3642Y-3.7677
X6.3642Y-3.8071
X6.3642Y-3.8465
X6.4035Y-3.7677
X6.4035Y-3.8071
X6.4035Y-3.8465
X6.4232Y-3.9035
X6.437Y-4.6457
X6.437Y-4.8031
X6.4429Y-3.7677
X6.4429Y-3.8071
X6.4429Y-3.8465
X6.4823Y-3.7677
X6.4823Y-3.8071
X6.4823Y-3.8465
X6.4823Y-3.9035
X6.4823Y-3.9626
X6.5157Y-3.3071
X6.5157Y-4.252
X6.5157Y-4.5669
X6.5157Y-4.7244
X6.5157Y-4.8819
X6.5945Y-4.2913
X6.5945Y-4.6457
X6.5945Y-4.8031
X6.5945Y-5.1181
X6.6732Y-3.3071
X6.6732Y-4.252
X6.6732Y-4.5669
X6.6732Y-4.8819
X6.6732Y-5.0394
X6.6969Y-3.5551
X6.752Y-4.2913
X6.752Y-4.6457
X6.752Y-4.9606
X6.752Y-5.1181
X6.8307Y-3.3071
X6.8307Y-4.252
X6.8307Y-4.7244
X6.9094Y-3.8583
X6.9094Y-4.1732
X6.9094Y-4.3307
X6.9094Y-4.6457
X6.9094Y-4.8031
X6.9094Y-5.1181
X6.9882Y-3.4646
X6.9882Y-3.622
X6.9882Y-3.937
X6.9882Y-4.0945
X6.9882Y-4.252
X6.9882Y-4.4094
X6.9882Y-4.5669
X6.9882Y-4.7244
X6.9882Y-4.8819
X6.9882Y-5.0394
X7.0669Y-3.5433
X7.0669Y-3.7008
X7.0669Y-3.8583
X7.0669Y-4.0157
X7.0669Y-4.1732
X7.0669Y-4.4882
X7.0669Y-4.8031
X7.0669Y-4.9606
X7.0669Y-5.1181
X7.1457Y-3.4646
X7.1457Y-3.622
X7.1457Y-3.937
X7.1457Y-4.0945
X7.1457Y-4.252
X7.1457Y-4.5669
X7.1457Y-4.7244
X7.1457Y-4.8819
X7.1457Y-5.0394
T4
X4.4094Y-3.9882
X4.5451Y-3.7321
X4.5531Y-4.0315
X4.5709Y-3.7717
X4.6417Y-3.7008
X4.7854Y-4.1437
X5.1457Y-4.5433
X5.1457Y-4.5945
X5.2047Y-4.5433
X5.2047Y-4.5945
X5.6604Y-4.8031
X5.6604Y-4.8445
X5.7343Y-4.3563
X5.7569Y-4.8031
X5.7569Y-4.8504
X5.8642Y-4.3425
X6.1929Y-4.4508
T7
X4.4882Y-4.2913
X4.4882Y-4.3701
X4.4882Y-4.4488
T9
X5.0512Y-3.5394
X5.248Y-3.5394
T10
X6.5984Y-3.9606
X6.5984Y-4.126
T5
G00X4.4362Y-3.3533
M15
G01X4.4362Y-3.3061
M16
G05
G00X4.4362Y-3.5108
M15
G01X4.4362Y-3.4636
M16
G05
G00X4.7764Y-3.3533
M15
G01X4.7764Y-3.3061
M16
G05
G00X4.7764Y-3.5108
M15
G01X4.7764Y-3.4636
M16
G05
T6
G00X4.5039Y-4.2087
M15
G01X4.4724Y-4.2087
M16
G05
G00X4.5039Y-4.5315
M15
G01X4.4724Y-4.5315
M16
G05
T8
G00X6.6063Y-4.9902
M15
G01X6.6063Y-4.8917
M16
G05
G00X6.7638Y-4.7559
M15
G01X6.685Y-4.7559
M16
G05
G00X6.8425Y-4.9902
M15
G01X6.8425Y-4.8917
M16
G05
M30
