%TF.GenerationSoftware,KiCad,Pcbnew,8.0.6-8.0.6-0~ubuntu24.04.1*%
%TF.CreationDate,2024-12-03T16:30:12-05:00*%
%TF.ProjectId,powerSupplyBoard,706f7765-7253-4757-9070-6c79426f6172,01*%
%TF.SameCoordinates,Original*%
%TF.FileFunction,Soldermask,Top*%
%TF.FilePolarity,Negative*%
%FSLAX46Y46*%
G04 Gerber Fmt 4.6, Leading zero omitted, Abs format (unit mm)*
G04 Created by KiCad (PCBNEW 8.0.6-8.0.6-0~ubuntu24.04.1) date 2024-12-03 16:30:12*
%MOMM*%
%LPD*%
G01*
G04 APERTURE LIST*
G04 Aperture macros list*
%AMRoundRect*
0 Rectangle with rounded corners*
0 $1 Rounding radius*
0 $2 $3 $4 $5 $6 $7 $8 $9 X,Y pos of 4 corners*
0 Add a 4 corners polygon primitive as box body*
4,1,4,$2,$3,$4,$5,$6,$7,$8,$9,$2,$3,0*
0 Add four circle primitives for the rounded corners*
1,1,$1+$1,$2,$3*
1,1,$1+$1,$4,$5*
1,1,$1+$1,$6,$7*
1,1,$1+$1,$8,$9*
0 Add four rect primitives between the rounded corners*
20,1,$1+$1,$2,$3,$4,$5,0*
20,1,$1+$1,$4,$5,$6,$7,0*
20,1,$1+$1,$6,$7,$8,$9,0*
20,1,$1+$1,$8,$9,$2,$3,0*%
%AMFreePoly0*
4,1,27,0.419134,0.596194,0.435355,0.585355,0.446194,0.569134,0.450000,0.550000,0.450000,-0.050000,0.446194,-0.069134,0.435355,-0.085355,0.419134,-0.096194,0.400000,-0.100000,-0.400000,-0.100000,-0.419134,-0.096194,-0.435355,-0.085355,-0.446194,-0.069134,-0.450000,-0.050000,-0.450000,0.050000,-0.446194,0.069134,-0.435355,0.085355,-0.419134,0.096194,-0.400000,0.100000,0.250000,0.100000,
0.250000,0.550000,0.253806,0.569134,0.264645,0.585355,0.280866,0.596194,0.300000,0.600000,0.400000,0.600000,0.419134,0.596194,0.419134,0.596194,$1*%
%AMFreePoly1*
4,1,27,0.419134,0.096194,0.435355,0.085355,0.446194,0.069134,0.450000,0.050000,0.450000,-0.550000,0.446194,-0.569134,0.435355,-0.585355,0.419134,-0.596194,0.400000,-0.600000,0.300000,-0.600000,0.280866,-0.596194,0.264645,-0.585355,0.253806,-0.569134,0.250000,-0.550000,0.250000,-0.100000,-0.400000,-0.100000,-0.419134,-0.096194,-0.435355,-0.085355,-0.446194,-0.069134,-0.450000,-0.050000,
-0.450000,0.050000,-0.446194,0.069134,-0.435355,0.085355,-0.419134,0.096194,-0.400000,0.100000,0.400000,0.100000,0.419134,0.096194,0.419134,0.096194,$1*%
%AMFreePoly2*
4,1,27,0.419134,0.096194,0.435355,0.085355,0.446194,0.069134,0.450000,0.050000,0.450000,-0.050000,0.446194,-0.069134,0.435355,-0.085355,0.419134,-0.096194,0.400000,-0.100000,-0.250000,-0.100000,-0.250000,-0.550000,-0.253806,-0.569134,-0.264645,-0.585355,-0.280866,-0.596194,-0.300000,-0.600000,-0.400000,-0.600000,-0.419134,-0.596194,-0.435355,-0.585355,-0.446194,-0.569134,-0.450000,-0.550000,
-0.450000,0.050000,-0.446194,0.069134,-0.435355,0.085355,-0.419134,0.096194,-0.400000,0.100000,0.400000,0.100000,0.419134,0.096194,0.419134,0.096194,$1*%
%AMFreePoly3*
4,1,27,-0.280866,0.596194,-0.264645,0.585355,-0.253806,0.569134,-0.250000,0.550000,-0.250000,0.100000,0.400000,0.100000,0.419134,0.096194,0.435355,0.085355,0.446194,0.069134,0.450000,0.050000,0.450000,-0.050000,0.446194,-0.069134,0.435355,-0.085355,0.419134,-0.096194,0.400000,-0.100000,-0.400000,-0.100000,-0.419134,-0.096194,-0.435355,-0.085355,-0.446194,-0.069134,-0.450000,-0.050000,
-0.450000,0.550000,-0.446194,0.569134,-0.435355,0.585355,-0.419134,0.596194,-0.400000,0.600000,-0.300000,0.600000,-0.280866,0.596194,-0.280866,0.596194,$1*%
%AMFreePoly4*
4,1,17,-0.725000,0.950000,-0.575000,0.950000,-0.575000,1.360000,-0.075000,1.360000,-0.075000,0.950000,0.075000,0.950000,0.075000,1.360000,0.575000,1.360000,0.575000,0.950000,0.725000,0.950000,0.725000,1.360000,1.225000,1.360000,1.225000,-0.950000,-1.225000,-0.950000,-1.225000,1.360000,-0.725000,1.360000,-0.725000,0.950000,-0.725000,0.950000,$1*%
G04 Aperture macros list end*
%ADD10RoundRect,0.275880X0.274120X-0.674120X0.274120X0.674120X-0.274120X0.674120X-0.274120X-0.674120X0*%
%ADD11RoundRect,0.137500X-0.152500X0.137500X-0.152500X-0.137500X0.152500X-0.137500X0.152500X0.137500X0*%
%ADD12RoundRect,0.145000X-0.145000X0.155000X-0.145000X-0.155000X0.145000X-0.155000X0.145000X0.155000X0*%
%ADD13RoundRect,0.217750X-0.267250X0.217750X-0.267250X-0.217750X0.267250X-0.217750X0.267250X0.217750X0*%
%ADD14RoundRect,0.217750X0.267250X-0.217750X0.267250X0.217750X-0.267250X0.217750X-0.267250X-0.217750X0*%
%ADD15RoundRect,0.275000X0.350000X-0.275000X0.350000X0.275000X-0.350000X0.275000X-0.350000X-0.275000X0*%
%ADD16RoundRect,0.137500X0.137500X0.152500X-0.137500X0.152500X-0.137500X-0.152500X0.137500X-0.152500X0*%
%ADD17RoundRect,0.145000X0.155000X0.145000X-0.155000X0.145000X-0.155000X-0.145000X0.155000X-0.145000X0*%
%ADD18RoundRect,0.137500X0.152500X-0.137500X0.152500X0.137500X-0.152500X0.137500X-0.152500X-0.137500X0*%
%ADD19RoundRect,0.145000X0.145000X-0.155000X0.145000X0.155000X-0.145000X0.155000X-0.145000X-0.155000X0*%
%ADD20RoundRect,0.217750X0.217750X0.267250X-0.217750X0.267250X-0.217750X-0.267250X0.217750X-0.267250X0*%
%ADD21RoundRect,0.291250X-0.616250X0.291250X-0.616250X-0.291250X0.616250X-0.291250X0.616250X0.291250X0*%
%ADD22O,2.100000X1.300000*%
%ADD23C,1.500000*%
%ADD24RoundRect,0.137500X-0.137500X-0.152500X0.137500X-0.152500X0.137500X0.152500X-0.137500X0.152500X0*%
%ADD25RoundRect,0.145000X-0.155000X-0.145000X0.155000X-0.145000X0.155000X0.145000X-0.155000X0.145000X0*%
%ADD26RoundRect,0.150000X-0.150000X0.425000X-0.150000X-0.425000X0.150000X-0.425000X0.150000X0.425000X0*%
%ADD27RoundRect,0.075000X-0.075000X0.500000X-0.075000X-0.500000X0.075000X-0.500000X0.075000X0.500000X0*%
%ADD28O,1.000000X2.200000*%
%ADD29RoundRect,0.250000X-1.153000X0.432500X-1.153000X-0.432500X1.153000X-0.432500X1.153000X0.432500X0*%
%ADD30C,1.000000*%
%ADD31RoundRect,0.275000X-0.350000X0.275000X-0.350000X-0.275000X0.350000X-0.275000X0.350000X0.275000X0*%
%ADD32RoundRect,0.291250X0.616250X-0.291250X0.616250X0.291250X-0.616250X0.291250X-0.616250X-0.291250X0*%
%ADD33RoundRect,0.145000X0.145000X-0.167500X0.145000X0.167500X-0.145000X0.167500X-0.145000X-0.167500X0*%
%ADD34RoundRect,0.087500X0.237500X0.087500X-0.237500X0.087500X-0.237500X-0.087500X0.237500X-0.087500X0*%
%ADD35RoundRect,0.050000X0.775000X1.125000X-0.775000X1.125000X-0.775000X-1.125000X0.775000X-1.125000X0*%
%ADD36RoundRect,0.062500X-0.187500X0.062500X-0.187500X-0.062500X0.187500X-0.062500X0.187500X0.062500X0*%
%ADD37RoundRect,0.217750X-0.217750X-0.267250X0.217750X-0.267250X0.217750X0.267250X-0.217750X0.267250X0*%
%ADD38O,2.000000X4.500000*%
%ADD39O,4.250000X2.000000*%
%ADD40RoundRect,0.087500X-0.127500X-0.087500X0.127500X-0.087500X0.127500X0.087500X-0.127500X0.087500X0*%
%ADD41RoundRect,0.275000X-0.275000X-0.350000X0.275000X-0.350000X0.275000X0.350000X-0.275000X0.350000X0*%
%ADD42RoundRect,0.087500X-0.242500X-0.087500X0.242500X-0.087500X0.242500X0.087500X-0.242500X0.087500X0*%
%ADD43FreePoly0,180.000000*%
%ADD44RoundRect,0.050000X0.250000X0.050000X-0.250000X0.050000X-0.250000X-0.050000X0.250000X-0.050000X0*%
%ADD45FreePoly1,180.000000*%
%ADD46RoundRect,0.050000X-0.050000X0.250000X-0.050000X-0.250000X0.050000X-0.250000X0.050000X0.250000X0*%
%ADD47FreePoly2,180.000000*%
%ADD48RoundRect,0.050000X-0.300000X-0.050000X0.300000X-0.050000X0.300000X0.050000X-0.300000X0.050000X0*%
%ADD49RoundRect,0.050000X-0.275000X-0.050000X0.275000X-0.050000X0.275000X0.050000X-0.275000X0.050000X0*%
%ADD50RoundRect,0.050000X-0.290000X-0.050000X0.290000X-0.050000X0.290000X0.050000X-0.290000X0.050000X0*%
%ADD51RoundRect,0.050000X-0.250000X-0.050000X0.250000X-0.050000X0.250000X0.050000X-0.250000X0.050000X0*%
%ADD52FreePoly3,180.000000*%
%ADD53RoundRect,0.050000X0.050000X-0.450000X0.050000X0.450000X-0.050000X0.450000X-0.050000X-0.450000X0*%
%ADD54RoundRect,0.050000X0.050000X-0.425000X0.050000X0.425000X-0.050000X0.425000X-0.050000X-0.425000X0*%
%ADD55R,2.000000X2.000000*%
%ADD56C,2.000000*%
%ADD57RoundRect,0.150000X-0.150000X0.200000X-0.150000X-0.200000X0.150000X-0.200000X0.150000X0.200000X0*%
%ADD58RoundRect,0.250000X-0.525000X2.550000X-0.525000X-2.550000X0.525000X-2.550000X0.525000X2.550000X0*%
%ADD59C,3.000000*%
%ADD60C,2.750000*%
%ADD61RoundRect,0.275000X0.275000X0.350000X-0.275000X0.350000X-0.275000X-0.350000X0.275000X-0.350000X0*%
%ADD62RoundRect,0.250000X0.250000X1.500000X-0.250000X1.500000X-0.250000X-1.500000X0.250000X-1.500000X0*%
%ADD63RoundRect,0.250000X0.500000X1.450000X-0.500000X1.450000X-0.500000X-1.450000X0.500000X-1.450000X0*%
%ADD64RoundRect,0.137500X-0.137500X0.262500X-0.137500X-0.262500X0.137500X-0.262500X0.137500X0.262500X0*%
%ADD65RoundRect,0.278750X-0.278750X-0.453750X0.278750X-0.453750X0.278750X0.453750X-0.278750X0.453750X0*%
%ADD66RoundRect,0.087500X0.127500X0.087500X-0.127500X0.087500X-0.127500X-0.087500X0.127500X-0.087500X0*%
%ADD67RoundRect,0.087500X0.242500X0.087500X-0.242500X0.087500X-0.242500X-0.087500X0.242500X-0.087500X0*%
%ADD68RoundRect,0.050000X-0.100000X-0.050000X0.100000X-0.050000X0.100000X0.050000X-0.100000X0.050000X0*%
%ADD69RoundRect,0.050000X0.050000X-0.100000X0.050000X0.100000X-0.050000X0.100000X-0.050000X-0.100000X0*%
%ADD70RoundRect,0.100000X-0.100000X-0.100000X0.100000X-0.100000X0.100000X0.100000X-0.100000X0.100000X0*%
%ADD71RoundRect,0.278750X0.278750X0.453750X-0.278750X0.453750X-0.278750X-0.453750X0.278750X-0.453750X0*%
%ADD72RoundRect,0.150000X-0.200000X-0.150000X0.200000X-0.150000X0.200000X0.150000X-0.200000X0.150000X0*%
%ADD73RoundRect,0.250000X0.432500X1.153000X-0.432500X1.153000X-0.432500X-1.153000X0.432500X-1.153000X0*%
%ADD74RoundRect,0.250000X0.700000X-0.250000X0.700000X0.250000X-0.700000X0.250000X-0.700000X-0.250000X0*%
%ADD75C,2.374900*%
%ADD76C,0.990600*%
%ADD77C,0.787400*%
%ADD78RoundRect,0.507500X1.142500X0.507500X-1.142500X0.507500X-1.142500X-0.507500X1.142500X-0.507500X0*%
%ADD79RoundRect,0.190000X0.660000X0.190000X-0.660000X0.190000X-0.660000X-0.190000X0.660000X-0.190000X0*%
%ADD80RoundRect,0.250000X2.000000X-0.400000X2.000000X0.400000X-2.000000X0.400000X-2.000000X-0.400000X0*%
%ADD81RoundRect,0.250000X1.700000X-0.650000X1.700000X0.650000X-1.700000X0.650000X-1.700000X-0.650000X0*%
%ADD82RoundRect,0.190000X0.190000X0.205000X-0.190000X0.205000X-0.190000X-0.205000X0.190000X-0.205000X0*%
%ADD83R,0.630000X0.500000*%
%ADD84FreePoly4,90.000000*%
%ADD85RoundRect,0.250000X-0.250000X0.525000X-0.250000X-0.525000X0.250000X-0.525000X0.250000X0.525000X0*%
%ADD86RoundRect,0.291250X-0.291250X-0.616250X0.291250X-0.616250X0.291250X0.616250X-0.291250X0.616250X0*%
%ADD87RoundRect,0.050000X-0.650000X0.650000X-0.650000X-0.650000X0.650000X-0.650000X0.650000X0.650000X0*%
%ADD88RoundRect,0.145000X-0.167500X-0.145000X0.167500X-0.145000X0.167500X0.145000X-0.167500X0.145000X0*%
%ADD89RoundRect,0.075000X0.075000X-0.225000X0.075000X0.225000X-0.075000X0.225000X-0.075000X-0.225000X0*%
%ADD90RoundRect,0.075000X-0.225000X-0.075000X0.225000X-0.075000X0.225000X0.075000X-0.225000X0.075000X0*%
%ADD91RoundRect,0.075000X0.225000X0.075000X-0.225000X0.075000X-0.225000X-0.075000X0.225000X-0.075000X0*%
%ADD92RoundRect,0.250000X-1.475000X1.475000X-1.475000X-1.475000X1.475000X-1.475000X1.475000X1.475000X0*%
G04 APERTURE END LIST*
D10*
%TO.C,Y1*%
X117350000Y-106500000D03*
X119850000Y-106500000D03*
%TD*%
D11*
%TO.C,R28*%
X156550000Y-106410000D03*
D12*
X156550000Y-107365000D03*
%TD*%
D13*
%TO.C,C9*%
X119850000Y-108650000D03*
X119850000Y-110150000D03*
%TD*%
D14*
%TO.C,C38*%
X160700000Y-102150000D03*
X160700000Y-100650000D03*
%TD*%
D15*
%TO.C,D3*%
X152100000Y-125650000D03*
X152100000Y-127550000D03*
%TD*%
D16*
%TO.C,R10*%
X146590000Y-111700000D03*
D17*
X145635000Y-111700000D03*
%TD*%
D14*
%TO.C,C37*%
X160700000Y-105150000D03*
X160700000Y-103650000D03*
%TD*%
D18*
%TO.C,R11*%
X140000000Y-111690000D03*
D19*
X140000000Y-110735000D03*
%TD*%
D13*
%TO.C,C10*%
X112500000Y-125250000D03*
X112500000Y-126750000D03*
%TD*%
D20*
%TO.C,C6*%
X114150000Y-102400000D03*
X112650000Y-102400000D03*
%TD*%
%TO.C,C34*%
X154150000Y-96900000D03*
X152650000Y-96900000D03*
%TD*%
D21*
%TO.C,C23*%
X149700000Y-119425000D03*
X149700000Y-122375000D03*
%TD*%
D18*
%TO.C,R17*%
X160700000Y-99290000D03*
D19*
X160700000Y-98335000D03*
%TD*%
D22*
%TO.C,SW1*%
X114000000Y-106900000D03*
X114000000Y-115100000D03*
D23*
X114000000Y-109000000D03*
X114000000Y-111000000D03*
X114000000Y-113000000D03*
%TD*%
D24*
%TO.C,R13*%
X147110000Y-109400000D03*
D25*
X148065000Y-109400000D03*
%TD*%
D18*
%TO.C,R27*%
X159300000Y-105190000D03*
D19*
X159300000Y-104235000D03*
%TD*%
D26*
%TO.C,J1*%
X119200000Y-90075000D03*
X118400000Y-90075000D03*
D27*
X117250000Y-90075000D03*
X116250000Y-90075000D03*
X115750000Y-90075000D03*
X114750000Y-90075000D03*
D26*
X113600000Y-90075000D03*
X112800000Y-90075000D03*
X112800000Y-90075000D03*
X113600000Y-90075000D03*
D27*
X114250000Y-90075000D03*
X115250000Y-90075000D03*
X116750000Y-90075000D03*
X117750000Y-90075000D03*
D26*
X118400000Y-90075000D03*
X119200000Y-90075000D03*
D28*
X120320000Y-89500000D03*
X120320000Y-85500000D03*
X111680000Y-89500000D03*
X111680000Y-85500000D03*
%TD*%
D29*
%TO.C,NT2*%
X143000000Y-88959000D03*
X143000000Y-93941000D03*
%TD*%
D18*
%TO.C,R29*%
X159300000Y-103090000D03*
D19*
X159300000Y-102135000D03*
%TD*%
D16*
%TO.C,R25*%
X147790000Y-104000000D03*
D17*
X146835000Y-104000000D03*
%TD*%
D16*
%TO.C,R26*%
X147790000Y-105200000D03*
D17*
X146835000Y-105200000D03*
%TD*%
D30*
%TO.C,TP3*%
X122400000Y-108900000D03*
%TD*%
D21*
%TO.C,C29*%
X140300000Y-119425000D03*
X140300000Y-122375000D03*
%TD*%
D14*
%TO.C,C13*%
X149100000Y-117000000D03*
X149100000Y-115500000D03*
%TD*%
D31*
%TO.C,D1*%
X123000000Y-88200000D03*
X123000000Y-86300000D03*
%TD*%
D30*
%TO.C,TP6*%
X141850000Y-117050000D03*
%TD*%
D21*
%TO.C,C21*%
X152100000Y-119425000D03*
X152100000Y-122375000D03*
%TD*%
D32*
%TO.C,C26*%
X137750000Y-116925000D03*
X137750000Y-113975000D03*
%TD*%
D18*
%TO.C,R12*%
X145050000Y-109190000D03*
D19*
X145050000Y-108235000D03*
%TD*%
D16*
%TO.C,R36*%
X156290000Y-94900000D03*
D17*
X155335000Y-94900000D03*
%TD*%
D33*
%TO.C,C17*%
X141250000Y-111637000D03*
X141250000Y-110763000D03*
%TD*%
D11*
%TO.C,R2*%
X114250000Y-91560000D03*
D12*
X114250000Y-92515000D03*
%TD*%
D34*
%TO.C,U4*%
X144225000Y-103125000D03*
X144225000Y-102475000D03*
X144225000Y-101825000D03*
X144225000Y-101175000D03*
X141575000Y-101175000D03*
X141575000Y-101825000D03*
X141575000Y-102475000D03*
X141575000Y-103125000D03*
D35*
X142900000Y-102150000D03*
%TD*%
D36*
%TO.C,TH1*%
X158100000Y-101975000D03*
X158100000Y-102625000D03*
%TD*%
D37*
%TO.C,C5*%
X121650000Y-96400000D03*
X123150000Y-96400000D03*
%TD*%
D32*
%TO.C,C12*%
X155200000Y-116975000D03*
X155200000Y-114025000D03*
%TD*%
D14*
%TO.C,C36*%
X149700000Y-105150000D03*
X149700000Y-103650000D03*
%TD*%
D38*
%TO.C,J3*%
X160300000Y-125500000D03*
X166300000Y-125500000D03*
D39*
X163300000Y-120800000D03*
%TD*%
D40*
%TO.C,Q4*%
X155250000Y-101750000D03*
X155250000Y-101100000D03*
X155250000Y-100450000D03*
X157150000Y-100450000D03*
X157150000Y-101100000D03*
X157150000Y-101750000D03*
D41*
X156200000Y-101385000D03*
D42*
X156200000Y-100325000D03*
%TD*%
D43*
%TO.C,U3*%
X146750000Y-117600000D03*
D44*
X146900000Y-117200000D03*
X146900000Y-116800000D03*
X146900000Y-116400000D03*
X146900000Y-116000000D03*
X146900000Y-115600000D03*
X146900000Y-115200000D03*
X146900000Y-114800000D03*
D45*
X146750000Y-114400000D03*
D46*
X146000000Y-114100000D03*
X145600000Y-114100000D03*
X145200000Y-114100000D03*
X144800000Y-114100000D03*
X144400000Y-114100000D03*
X144000000Y-114100000D03*
D47*
X143250000Y-114400000D03*
D48*
X143150000Y-114800000D03*
D49*
X143125000Y-115200000D03*
D50*
X143137500Y-115600000D03*
D51*
X143100000Y-116000000D03*
X143100000Y-116400000D03*
X143100000Y-116800000D03*
X143100000Y-117200000D03*
D52*
X143250000Y-117600000D03*
D53*
X144100000Y-117700000D03*
X144550000Y-117700000D03*
X145000000Y-117700000D03*
X145450000Y-117700000D03*
D54*
X145900000Y-117725000D03*
%TD*%
D21*
%TO.C,C22*%
X137900000Y-119425000D03*
X137900000Y-122375000D03*
%TD*%
D30*
%TO.C,TP5*%
X151000000Y-116600000D03*
%TD*%
D24*
%TO.C,R18*%
X139610000Y-101175000D03*
D25*
X140565000Y-101175000D03*
%TD*%
D24*
%TO.C,R8*%
X121510000Y-107600000D03*
D25*
X122465000Y-107600000D03*
%TD*%
D11*
%TO.C,R34*%
X154000000Y-101610000D03*
D12*
X154000000Y-102565000D03*
%TD*%
D21*
%TO.C,C25*%
X154500000Y-119425000D03*
X154500000Y-122375000D03*
%TD*%
D55*
%TO.C,J7*%
X169950000Y-87500000D03*
D56*
X169950000Y-92500000D03*
%TD*%
D57*
%TO.C,Q3*%
X155050000Y-106200000D03*
X153150000Y-106200000D03*
X154100000Y-108200000D03*
%TD*%
D24*
%TO.C,R3*%
X122045000Y-90600000D03*
D25*
X123000000Y-90600000D03*
%TD*%
D20*
%TO.C,C4*%
X117550000Y-104400000D03*
X116050000Y-104400000D03*
%TD*%
D18*
%TO.C,R37*%
X155200000Y-99290000D03*
D19*
X155200000Y-98335000D03*
%TD*%
D58*
%TO.C,L1*%
X147025000Y-127500000D03*
X142975000Y-127500000D03*
%TD*%
D37*
%TO.C,C18*%
X142750000Y-119400000D03*
X144250000Y-119400000D03*
%TD*%
D59*
%TO.C,J6*%
X167407500Y-114700000D03*
D60*
X160107500Y-116800000D03*
X160107500Y-112600000D03*
%TD*%
D16*
%TO.C,R5*%
X113890000Y-104300000D03*
D17*
X112935000Y-104300000D03*
%TD*%
D16*
%TO.C,R31*%
X154090000Y-105000000D03*
D17*
X153135000Y-105000000D03*
%TD*%
D61*
%TO.C,D2*%
X120650000Y-92600000D03*
X122550000Y-92600000D03*
%TD*%
D30*
%TO.C,TP4*%
X122500000Y-116800000D03*
%TD*%
D62*
%TO.C,J4*%
X136200000Y-93750000D03*
X134200000Y-93750000D03*
D63*
X138550000Y-88000000D03*
X131850000Y-88000000D03*
%TD*%
D64*
%TO.C,U1*%
X114350000Y-95900000D03*
X112450000Y-95900000D03*
X112450000Y-98300000D03*
X113400000Y-98300000D03*
X114350000Y-98300000D03*
%TD*%
D30*
%TO.C,TP1*%
X111300000Y-92800000D03*
%TD*%
D11*
%TO.C,R22*%
X149750000Y-94210000D03*
D12*
X149750000Y-95165000D03*
%TD*%
D24*
%TO.C,R6*%
X121500000Y-115350000D03*
D25*
X122455000Y-115350000D03*
%TD*%
D14*
%TO.C,C31*%
X151200000Y-95250000D03*
X151200000Y-93750000D03*
%TD*%
D21*
%TO.C,C20*%
X133100000Y-119425000D03*
X133100000Y-122375000D03*
%TD*%
D14*
%TO.C,C33*%
X145500000Y-102100000D03*
X145500000Y-100600000D03*
%TD*%
D65*
%TO.C,C1*%
X112550000Y-94100000D03*
X114250000Y-94100000D03*
%TD*%
D66*
%TO.C,Q2*%
X157150000Y-102835000D03*
X157150000Y-103485000D03*
X157150000Y-104135000D03*
X155250000Y-104135000D03*
X155250000Y-103485000D03*
X155250000Y-102835000D03*
D61*
X156200000Y-103200000D03*
D67*
X156200000Y-104260000D03*
%TD*%
D24*
%TO.C,R32*%
X142510000Y-106700000D03*
D25*
X143465000Y-106700000D03*
%TD*%
D68*
%TO.C,U6*%
X143750000Y-104600000D03*
X143750000Y-105100000D03*
X143750000Y-105600000D03*
D69*
X144300000Y-105650000D03*
D68*
X144850000Y-105600000D03*
X144850000Y-105100000D03*
X144850000Y-104600000D03*
D69*
X144300000Y-104550000D03*
D70*
X144300000Y-105100000D03*
%TD*%
D37*
%TO.C,C3*%
X121650000Y-94700000D03*
X123150000Y-94700000D03*
%TD*%
D11*
%TO.C,R9*%
X154300000Y-124710000D03*
D12*
X154300000Y-125665000D03*
%TD*%
D71*
%TO.C,C2*%
X114300000Y-100200000D03*
X112600000Y-100200000D03*
%TD*%
D72*
%TO.C,Q5*%
X156400000Y-97050000D03*
X156400000Y-98950000D03*
X158400000Y-98000000D03*
%TD*%
D16*
%TO.C,R14*%
X144490000Y-110500000D03*
D17*
X143535000Y-110500000D03*
%TD*%
D32*
%TO.C,C28*%
X140150000Y-116925000D03*
X140150000Y-113975000D03*
%TD*%
D73*
%TO.C,NT1*%
X139182000Y-98200000D03*
X134200000Y-98200000D03*
%TD*%
D21*
%TO.C,C27*%
X130750000Y-119425000D03*
X130750000Y-122375000D03*
%TD*%
D74*
%TO.C,F1*%
X157550000Y-121900000D03*
X157550000Y-118900000D03*
%TD*%
D11*
%TO.C,R35*%
X154000000Y-99510000D03*
D12*
X154000000Y-100465000D03*
%TD*%
D75*
%TO.C,J2*%
X123310000Y-129640000D03*
D76*
X123310000Y-127100000D03*
D75*
X123310000Y-124560000D03*
X117595000Y-129640000D03*
X117595000Y-124560000D03*
D76*
X115690000Y-128116000D03*
X115690000Y-126084000D03*
D77*
X122040000Y-126465000D03*
X120770000Y-126465000D03*
X119500000Y-126465000D03*
X118230000Y-126465000D03*
X116960000Y-126465000D03*
X116960000Y-127735000D03*
X118230000Y-127735000D03*
X119500000Y-127735000D03*
X120770000Y-127735000D03*
X122040000Y-127735000D03*
%TD*%
D78*
%TO.C,R20*%
X152225000Y-90235000D03*
D79*
X153025000Y-88330000D03*
D78*
X147275000Y-88965000D03*
D79*
X146475000Y-90870000D03*
%TD*%
D80*
%TO.C,J5*%
X165450000Y-105200000D03*
X165450000Y-102700000D03*
X165450000Y-100200000D03*
D81*
X172250000Y-108400000D03*
X172250000Y-97000000D03*
%TD*%
D13*
%TO.C,C8*%
X117350000Y-108650000D03*
X117350000Y-110150000D03*
%TD*%
D82*
%TO.C,D4*%
X153655000Y-109450000D03*
X150045000Y-109450000D03*
%TD*%
D30*
%TO.C,TP7*%
X162050000Y-107900000D03*
%TD*%
D18*
%TO.C,R23*%
X124950000Y-99690000D03*
D19*
X124950000Y-98735000D03*
%TD*%
D20*
%TO.C,C32*%
X140450000Y-104050000D03*
X138950000Y-104050000D03*
%TD*%
D83*
%TO.C,Q1*%
X136000000Y-116950000D03*
X136000000Y-116300000D03*
X136000000Y-115650000D03*
X136000000Y-115000000D03*
D84*
X134175000Y-115975000D03*
X134175000Y-115975000D03*
X134175000Y-115975000D03*
X134175000Y-115975000D03*
%TD*%
D14*
%TO.C,C39*%
X164050000Y-92500000D03*
X164050000Y-91000000D03*
%TD*%
D37*
%TO.C,C35*%
X148250000Y-96700000D03*
X149750000Y-96700000D03*
%TD*%
D11*
%TO.C,R4*%
X120300000Y-95460000D03*
D12*
X120300000Y-96415000D03*
%TD*%
D85*
%TO.C,SW2*%
X115600000Y-117250000D03*
X115600000Y-122500000D03*
X112400000Y-117250000D03*
X112400000Y-122500000D03*
%TD*%
D86*
%TO.C,C14*%
X148025000Y-112000000D03*
X150975000Y-112000000D03*
%TD*%
D46*
%TO.C,U5*%
X151400000Y-98100000D03*
X151000000Y-98100000D03*
X150600000Y-98100000D03*
X150200000Y-98100000D03*
X149800000Y-98100000D03*
X149400000Y-98100000D03*
X149000000Y-98100000D03*
X148600000Y-98100000D03*
D44*
X148100000Y-98600000D03*
X148100000Y-99000000D03*
X148100000Y-99400000D03*
X148100000Y-99800000D03*
X148100000Y-100200000D03*
X148100000Y-100600000D03*
X148100000Y-101000000D03*
X148100000Y-101400000D03*
D46*
X148600000Y-101900000D03*
X149000000Y-101900000D03*
X149400000Y-101900000D03*
X149800000Y-101900000D03*
X150200000Y-101900000D03*
X150600000Y-101900000D03*
X151000000Y-101900000D03*
X151400000Y-101900000D03*
D51*
X151900000Y-101400000D03*
X151900000Y-101000000D03*
X151900000Y-100600000D03*
X151900000Y-100200000D03*
X151900000Y-99800000D03*
X151900000Y-99400000D03*
X151900000Y-99000000D03*
X151900000Y-98600000D03*
D87*
X150000000Y-100000000D03*
%TD*%
D16*
%TO.C,R33*%
X154090000Y-103800000D03*
D17*
X153135000Y-103800000D03*
%TD*%
D11*
%TO.C,R16*%
X156550000Y-108610000D03*
D12*
X156550000Y-109565000D03*
%TD*%
D14*
%TO.C,C30*%
X153400000Y-95250000D03*
X153400000Y-93750000D03*
%TD*%
D24*
%TO.C,R7*%
X121510000Y-114100000D03*
D25*
X122465000Y-114100000D03*
%TD*%
D21*
%TO.C,C24*%
X135500000Y-119425000D03*
X135500000Y-122375000D03*
%TD*%
D24*
%TO.C,R15*%
X143510000Y-111700000D03*
D25*
X144465000Y-111700000D03*
%TD*%
D14*
%TO.C,C40*%
X164050000Y-89000000D03*
X164050000Y-87500000D03*
%TD*%
D88*
%TO.C,C7*%
X120563000Y-104000000D03*
X121437000Y-104000000D03*
%TD*%
D11*
%TO.C,R1*%
X117250000Y-91560000D03*
D12*
X117250000Y-92515000D03*
%TD*%
D30*
%TO.C,TP2*%
X119100000Y-94000000D03*
%TD*%
D18*
%TO.C,R30*%
X151700000Y-107690000D03*
D19*
X151700000Y-106735000D03*
%TD*%
D24*
%TO.C,R19*%
X139610000Y-102475000D03*
D25*
X140565000Y-102475000D03*
%TD*%
D11*
%TO.C,R21*%
X148250000Y-94210000D03*
D12*
X148250000Y-95165000D03*
%TD*%
D20*
%TO.C,C19*%
X147250000Y-119400000D03*
X145750000Y-119400000D03*
%TD*%
D18*
%TO.C,R24*%
X124950000Y-97590000D03*
D19*
X124950000Y-96635000D03*
%TD*%
D89*
%TO.C,U2*%
X117900000Y-102550000D03*
X118400000Y-102550000D03*
X118900000Y-102550000D03*
X119400000Y-102550000D03*
X119900000Y-102550000D03*
X120400000Y-102550000D03*
X120900000Y-102550000D03*
X121400000Y-102550000D03*
D90*
X122000000Y-101950000D03*
X122000000Y-101450000D03*
X122000000Y-100950000D03*
X122000000Y-100450000D03*
X122000000Y-99950000D03*
X122000000Y-99450000D03*
X122000000Y-98950000D03*
X122000000Y-98450000D03*
D89*
X121400000Y-97850000D03*
X120900000Y-97850000D03*
X120400000Y-97850000D03*
X119900000Y-97850000D03*
X119400000Y-97850000D03*
X118900000Y-97850000D03*
X118400000Y-97850000D03*
X117900000Y-97850000D03*
D91*
X117300000Y-98450000D03*
X117300000Y-98950000D03*
X117300000Y-99450000D03*
X117300000Y-99950000D03*
X117300000Y-100450000D03*
X117300000Y-100950000D03*
X117300000Y-101450000D03*
X117300000Y-101950000D03*
D92*
X119700000Y-100200000D03*
%TD*%
D32*
%TO.C,C11*%
X152800000Y-116975000D03*
X152800000Y-114025000D03*
%TD*%
M02*
