%TF.GenerationSoftware,KiCad,Pcbnew,8.0.8+1*%
%TF.CreationDate,2025-01-21T14:06:51-05:00*%
%TF.ProjectId,powerSupplyBoard,706f7765-7253-4757-9070-6c79426f6172,02*%
%TF.SameCoordinates,Original*%
%TF.FileFunction,Legend,Bot*%
%TF.FilePolarity,Positive*%
%FSLAX46Y46*%
G04 Gerber Fmt 4.6, Leading zero omitted, Abs format (unit mm)*
G04 Created by KiCad (PCBNEW 8.0.8+1) date 2025-01-21 14:06:51*
%MOMM*%
%LPD*%
G01*
G04 APERTURE LIST*
%ADD10C,0.200000*%
%ADD11C,0.120000*%
G04 APERTURE END LIST*
D10*
G36*
X157415526Y-128883949D02*
G01*
X157174947Y-128883949D01*
X157053314Y-129332623D01*
X156932414Y-128883949D01*
X156690369Y-128883949D01*
X156690369Y-129900000D01*
X156864026Y-129900000D01*
X156864026Y-129092288D01*
X156971981Y-129530216D01*
X157132693Y-129530216D01*
X157241869Y-129092288D01*
X157241869Y-129900000D01*
X157415526Y-129900000D01*
X157415526Y-128883949D01*
G37*
G36*
X156253190Y-129119734D02*
G01*
X156301989Y-129124208D01*
X156350383Y-129131856D01*
X156394161Y-129141897D01*
X156442592Y-129156745D01*
X156491311Y-129175575D01*
X156491311Y-129347522D01*
X156454041Y-129329250D01*
X156408383Y-129310275D01*
X156358443Y-129293789D01*
X156320492Y-129284580D01*
X156268508Y-129276989D01*
X156219469Y-129274738D01*
X156199230Y-129275298D01*
X156149615Y-129281821D01*
X156137488Y-129284924D01*
X156094661Y-129308688D01*
X156085257Y-129319816D01*
X156073167Y-129368039D01*
X156073167Y-129399790D01*
X156211897Y-129399790D01*
X156246335Y-129400447D01*
X156296619Y-129403893D01*
X156345254Y-129410293D01*
X156364777Y-129413928D01*
X156412522Y-129427397D01*
X156459071Y-129448394D01*
X156468274Y-129453767D01*
X156508753Y-129486554D01*
X156538206Y-129526064D01*
X156552256Y-129556566D01*
X156563836Y-129604508D01*
X156567271Y-129655757D01*
X156567199Y-129663561D01*
X156562676Y-129714986D01*
X156548891Y-129766887D01*
X156525917Y-129811461D01*
X156493753Y-129848709D01*
X156489114Y-129852826D01*
X156448807Y-129881059D01*
X156402820Y-129900926D01*
X156351155Y-129912429D01*
X156301290Y-129915631D01*
X156266424Y-129914043D01*
X156216645Y-129905709D01*
X156169887Y-129890230D01*
X156144357Y-129877666D01*
X156102091Y-129847201D01*
X156069015Y-129810851D01*
X156059734Y-129857257D01*
X156040927Y-129900000D01*
X155842602Y-129900000D01*
X155848264Y-129891461D01*
X155866049Y-129845533D01*
X155869010Y-129831273D01*
X155875575Y-129781297D01*
X155875695Y-129779325D01*
X155877529Y-129729762D01*
X155877517Y-129723988D01*
X155876796Y-129674808D01*
X155876442Y-129656069D01*
X155876063Y-129605198D01*
X155875902Y-129571462D01*
X155875611Y-129553907D01*
X156073167Y-129553907D01*
X156073182Y-129557143D01*
X156077303Y-129608716D01*
X156087822Y-129656734D01*
X156106069Y-129700780D01*
X156137647Y-129741486D01*
X156142153Y-129745538D01*
X156186025Y-129768542D01*
X156235833Y-129774947D01*
X156280051Y-129769244D01*
X156323028Y-129745150D01*
X156346292Y-129708941D01*
X156354047Y-129660397D01*
X156349719Y-129621918D01*
X156323272Y-129578087D01*
X156295728Y-129560909D01*
X156246335Y-129546824D01*
X156202844Y-129542266D01*
X156153035Y-129540474D01*
X156073167Y-129540474D01*
X156073167Y-129553907D01*
X155875611Y-129553907D01*
X155875086Y-129522156D01*
X155874706Y-129504703D01*
X155874109Y-129454012D01*
X155874873Y-129418853D01*
X155879269Y-129366841D01*
X155888886Y-129314568D01*
X155905372Y-129264235D01*
X155931691Y-129217749D01*
X155967995Y-129180382D01*
X156009664Y-129154326D01*
X156049476Y-129138618D01*
X156102146Y-129126311D01*
X156155971Y-129120140D01*
X156208478Y-129118422D01*
X156253190Y-129119734D01*
G37*
G36*
X155249336Y-129242254D02*
G01*
X155268635Y-129213231D01*
X155306541Y-129171752D01*
X155349706Y-129142124D01*
X155398130Y-129124348D01*
X155451813Y-129118422D01*
X155483248Y-129120075D01*
X155534090Y-129130919D01*
X155579626Y-129151885D01*
X155619856Y-129182971D01*
X155654779Y-129224180D01*
X155676029Y-129259232D01*
X155696774Y-129306585D01*
X155712333Y-129359708D01*
X155721337Y-129408384D01*
X155726740Y-129461068D01*
X155728541Y-129517759D01*
X155727400Y-129562925D01*
X155722764Y-129615894D01*
X155714562Y-129664987D01*
X155700014Y-129718783D01*
X155680330Y-129766997D01*
X155655512Y-129809630D01*
X155636320Y-129834474D01*
X155598528Y-129869980D01*
X155555383Y-129895342D01*
X155506885Y-129910559D01*
X155453035Y-129915631D01*
X155411096Y-129912441D01*
X155358673Y-129897256D01*
X155313590Y-129869565D01*
X155275846Y-129829368D01*
X155249336Y-129784961D01*
X155229552Y-129900000D01*
X155049790Y-129900000D01*
X155049790Y-129517027D01*
X155249336Y-129517027D01*
X155249673Y-129536757D01*
X155254729Y-129591467D01*
X155267461Y-129644371D01*
X155287682Y-129688974D01*
X155300280Y-129707549D01*
X155338782Y-129741112D01*
X155389532Y-129753454D01*
X155412203Y-129751161D01*
X155458358Y-129727980D01*
X155490404Y-129688241D01*
X155501310Y-129666765D01*
X155517577Y-129617229D01*
X155525895Y-129565143D01*
X155528261Y-129512875D01*
X155527942Y-129493037D01*
X155523961Y-129444081D01*
X155512589Y-129390958D01*
X155491869Y-129342882D01*
X155479759Y-129324939D01*
X155442075Y-129292521D01*
X155391485Y-129280600D01*
X155364324Y-129283697D01*
X155320579Y-129305883D01*
X155287927Y-129345324D01*
X155276809Y-129366518D01*
X155260227Y-129415166D01*
X155251748Y-129466087D01*
X155249336Y-129517027D01*
X155049790Y-129517027D01*
X155049790Y-128837055D01*
X155249336Y-128837055D01*
X155249336Y-129242254D01*
G37*
G36*
X154639706Y-129040265D02*
G01*
X154660222Y-129019748D01*
X154660222Y-128826308D01*
X154639706Y-128805792D01*
X154480460Y-128805792D01*
X154459943Y-128826308D01*
X154459943Y-129019748D01*
X154480460Y-129040265D01*
X154639706Y-129040265D01*
G37*
G36*
X154392776Y-129900000D02*
G01*
X154443366Y-129897441D01*
X154495290Y-129887987D01*
X154545272Y-129868654D01*
X154585271Y-129840222D01*
X154597696Y-129827215D01*
X154625051Y-129784946D01*
X154642576Y-129738518D01*
X154654116Y-129683279D01*
X154659245Y-129628917D01*
X154660222Y-129589078D01*
X154660222Y-129296231D01*
X154822155Y-129296231D01*
X154822155Y-129134054D01*
X154459943Y-129134054D01*
X154459943Y-129576622D01*
X154457176Y-129625995D01*
X154445307Y-129675775D01*
X154431611Y-129700697D01*
X154390633Y-129729665D01*
X154340945Y-129737786D01*
X154336845Y-129737822D01*
X154176866Y-129737822D01*
X154176866Y-129900000D01*
X154392776Y-129900000D01*
G37*
G36*
X153689601Y-129915631D02*
G01*
X153738957Y-129914008D01*
X153790306Y-129909140D01*
X153843646Y-129901025D01*
X153898979Y-129889665D01*
X153946611Y-129877719D01*
X153975854Y-129869469D01*
X153975854Y-129698011D01*
X153925362Y-129724157D01*
X153874818Y-129744894D01*
X153824222Y-129760221D01*
X153773575Y-129770139D01*
X153722877Y-129774647D01*
X153705966Y-129774947D01*
X153651053Y-129770962D01*
X153600270Y-129754125D01*
X153568478Y-129715654D01*
X153565037Y-129691660D01*
X153583859Y-129644674D01*
X153598499Y-129632554D01*
X153643806Y-129611427D01*
X153693334Y-129597344D01*
X153712804Y-129592986D01*
X153768003Y-129580530D01*
X153819638Y-129566322D01*
X153874499Y-129542948D01*
X153918604Y-129513337D01*
X153951951Y-129477489D01*
X153977768Y-129426238D01*
X153987450Y-129376668D01*
X153988310Y-129355094D01*
X153983212Y-129301360D01*
X153967916Y-129254221D01*
X153938520Y-129209073D01*
X153906733Y-129179727D01*
X153861228Y-129152906D01*
X153813872Y-129135724D01*
X153759481Y-129124409D01*
X153707259Y-129119380D01*
X153669573Y-129118422D01*
X153620523Y-129120115D01*
X153568511Y-129125725D01*
X153550139Y-129128681D01*
X153501628Y-129138950D01*
X153451746Y-129153090D01*
X153428261Y-129160921D01*
X153428261Y-129335554D01*
X153472718Y-129308191D01*
X153519095Y-129285835D01*
X153543300Y-129276936D01*
X153591799Y-129264748D01*
X153641982Y-129259385D01*
X153656629Y-129259106D01*
X153706994Y-129262371D01*
X153754705Y-129275354D01*
X153761897Y-129278890D01*
X153795861Y-129314395D01*
X153798778Y-129332135D01*
X153775882Y-129376265D01*
X153764095Y-129384891D01*
X153718727Y-129405957D01*
X153670997Y-129420234D01*
X153652476Y-129424703D01*
X153587508Y-129440334D01*
X153536263Y-129455340D01*
X153487480Y-129476856D01*
X153444289Y-129506518D01*
X153427040Y-129523621D01*
X153398256Y-129567301D01*
X153382456Y-129614623D01*
X153376680Y-129663412D01*
X153376482Y-129675052D01*
X153381374Y-129731438D01*
X153396052Y-129780305D01*
X153428159Y-129830817D01*
X153475555Y-129869583D01*
X153524480Y-129892137D01*
X153583190Y-129907173D01*
X153633643Y-129913517D01*
X153689601Y-129915631D01*
G37*
G36*
X152879408Y-129120140D02*
G01*
X152929829Y-129127772D01*
X152982100Y-129143658D01*
X153029657Y-129167271D01*
X153053798Y-129183526D01*
X153092742Y-129217774D01*
X153125891Y-129258436D01*
X153153244Y-129305512D01*
X153158509Y-129316817D01*
X153176170Y-129364651D01*
X153188398Y-129416667D01*
X153194639Y-129465612D01*
X153196719Y-129517759D01*
X153196677Y-129525345D01*
X153194033Y-129576653D01*
X153185973Y-129631454D01*
X153172539Y-129682165D01*
X153153733Y-129728785D01*
X153139334Y-129755660D01*
X153108940Y-129799077D01*
X153072788Y-129836117D01*
X153030878Y-129866782D01*
X152994652Y-129885816D01*
X152943989Y-129903419D01*
X152895095Y-129912578D01*
X152842567Y-129915631D01*
X152802599Y-129913914D01*
X152752621Y-129906281D01*
X152700921Y-129890396D01*
X152654012Y-129866782D01*
X152630082Y-129850510D01*
X152591427Y-129816139D01*
X152558452Y-129775239D01*
X152531158Y-129727808D01*
X152525893Y-129716410D01*
X152508231Y-129668164D01*
X152496004Y-129615675D01*
X152489763Y-129566266D01*
X152487817Y-129517027D01*
X152687961Y-129517027D01*
X152688610Y-129543500D01*
X152694814Y-129597959D01*
X152707587Y-129645347D01*
X152729483Y-129689706D01*
X152748967Y-129714545D01*
X152792719Y-129744489D01*
X152841834Y-129753454D01*
X152871527Y-129750392D01*
X152919229Y-129728457D01*
X152954675Y-129689462D01*
X152966707Y-129668315D01*
X152984653Y-129619581D01*
X152993830Y-129568379D01*
X152996440Y-129517027D01*
X152995788Y-129490557D01*
X152989547Y-129436135D01*
X152976699Y-129388822D01*
X152954675Y-129344591D01*
X152931960Y-129316595D01*
X152891019Y-129289598D01*
X152841834Y-129280600D01*
X152812165Y-129283638D01*
X152764631Y-129305406D01*
X152729483Y-129344103D01*
X152717521Y-129365069D01*
X152699680Y-129413726D01*
X152690557Y-129465186D01*
X152687961Y-129517027D01*
X152487817Y-129517027D01*
X152487682Y-129513607D01*
X152487724Y-129505978D01*
X152490338Y-129454439D01*
X152498307Y-129399546D01*
X152511588Y-129348927D01*
X152530181Y-129302581D01*
X152544285Y-129275877D01*
X152574212Y-129232858D01*
X152609973Y-129196330D01*
X152651569Y-129166294D01*
X152687510Y-129147641D01*
X152737909Y-129130390D01*
X152786666Y-129121414D01*
X152839148Y-129118422D01*
X152879408Y-129120140D01*
G37*
G36*
X152304012Y-129134054D02*
G01*
X152124737Y-129134054D01*
X152104954Y-129251046D01*
X152082414Y-129203971D01*
X152050120Y-129166731D01*
X152031925Y-129152861D01*
X151986502Y-129130563D01*
X151937919Y-129120070D01*
X151906629Y-129118422D01*
X151856574Y-129122987D01*
X151807890Y-129139033D01*
X151767281Y-129166633D01*
X151744696Y-129191451D01*
X151717894Y-129237744D01*
X151701435Y-129287879D01*
X151692718Y-129338684D01*
X151689307Y-129395964D01*
X151689252Y-129404675D01*
X151689252Y-129900000D01*
X151888310Y-129900000D01*
X151888310Y-129435205D01*
X151891023Y-129385069D01*
X151902323Y-129336035D01*
X151911269Y-129317725D01*
X151949489Y-129285820D01*
X151981855Y-129280600D01*
X152030717Y-129291387D01*
X152068309Y-129323748D01*
X152072469Y-129329692D01*
X152093502Y-129375425D01*
X152103399Y-129428016D01*
X152104954Y-129463293D01*
X152104954Y-129900000D01*
X152304012Y-129900000D01*
X152304012Y-129134054D01*
G37*
G36*
X150245044Y-129915631D02*
G01*
X150304375Y-129912316D01*
X150359328Y-129902369D01*
X150409905Y-129885792D01*
X150456105Y-129862585D01*
X150497928Y-129832746D01*
X150535374Y-129796276D01*
X150549127Y-129779832D01*
X150578965Y-129736197D01*
X150602027Y-129691746D01*
X150621495Y-129642388D01*
X150628994Y-129618876D01*
X150641390Y-129568638D01*
X150650243Y-129513913D01*
X150655085Y-129462346D01*
X150657216Y-129407344D01*
X150657326Y-129390997D01*
X150655617Y-129329154D01*
X150650488Y-129271120D01*
X150641939Y-129216894D01*
X150629971Y-129166477D01*
X150614584Y-129119869D01*
X150590541Y-129066964D01*
X150561156Y-129020011D01*
X150547906Y-129002896D01*
X150511458Y-128964126D01*
X150470502Y-128931927D01*
X150425038Y-128906299D01*
X150375066Y-128887243D01*
X150320586Y-128874757D01*
X150261598Y-128868843D01*
X150236740Y-128868318D01*
X150184880Y-128871301D01*
X150134875Y-128880249D01*
X150112421Y-128886392D01*
X150065054Y-128904134D01*
X150020589Y-128927197D01*
X150001046Y-128939637D01*
X150001046Y-129163852D01*
X150034488Y-129127261D01*
X150074671Y-129095993D01*
X150098010Y-129082763D01*
X150143923Y-129065368D01*
X150193947Y-129056841D01*
X150218422Y-129055896D01*
X150272507Y-129061086D01*
X150319233Y-129076657D01*
X150363006Y-129106581D01*
X150390613Y-129138939D01*
X150415404Y-129186383D01*
X150431285Y-129236412D01*
X150440582Y-129285619D01*
X150445894Y-129340665D01*
X150447278Y-129390997D01*
X150445942Y-129440428D01*
X150440813Y-129494833D01*
X150431837Y-129543880D01*
X150416503Y-129594330D01*
X150392567Y-129643056D01*
X150361268Y-129681155D01*
X150327354Y-129706071D01*
X150281024Y-129723223D01*
X150232588Y-129728053D01*
X150204744Y-129726831D01*
X150178610Y-129721946D01*
X150156140Y-129714863D01*
X150140997Y-129705338D01*
X150140997Y-129515073D01*
X150279238Y-129515073D01*
X150279238Y-129352896D01*
X149964654Y-129352896D01*
X149964654Y-129811828D01*
X150006003Y-129844089D01*
X150050123Y-129870347D01*
X150092637Y-129889009D01*
X150139856Y-129903479D01*
X150165177Y-129908792D01*
X150216213Y-129914823D01*
X150245044Y-129915631D01*
G37*
G36*
X149356489Y-129900000D02*
G01*
X149406996Y-129897415D01*
X149458844Y-129887866D01*
X149508769Y-129868338D01*
X149548741Y-129839621D01*
X149561164Y-129826482D01*
X149588520Y-129783786D01*
X149606044Y-129736884D01*
X149617585Y-129681077D01*
X149622714Y-129626154D01*
X149623691Y-129585903D01*
X149623691Y-128999232D01*
X149826656Y-128999232D01*
X149826656Y-128837055D01*
X149423412Y-128837055D01*
X149423412Y-129574912D01*
X149420645Y-129624825D01*
X149408775Y-129675091D01*
X149395079Y-129700209D01*
X149354223Y-129729558D01*
X149304428Y-129737786D01*
X149300313Y-129737822D01*
X149140334Y-129737822D01*
X149140334Y-129900000D01*
X149356489Y-129900000D01*
G37*
G36*
X148631899Y-129118619D02*
G01*
X148684268Y-129122402D01*
X148732571Y-129131001D01*
X148782793Y-129146724D01*
X148827703Y-129168736D01*
X148857834Y-129188938D01*
X148897524Y-129224586D01*
X148930606Y-129266647D01*
X148954465Y-129309420D01*
X148959582Y-129320838D01*
X148976748Y-129368931D01*
X148988632Y-129420901D01*
X148994697Y-129469556D01*
X148996719Y-129521179D01*
X148995113Y-129567699D01*
X148988586Y-129621879D01*
X148977038Y-129671646D01*
X148956553Y-129725541D01*
X148928838Y-129773083D01*
X148893893Y-129814270D01*
X148859446Y-129843471D01*
X148812002Y-129871979D01*
X148757895Y-129893359D01*
X148707715Y-129905733D01*
X148652908Y-129913156D01*
X148593474Y-129915631D01*
X148575065Y-129915404D01*
X148520217Y-129911998D01*
X148465935Y-129904505D01*
X148412219Y-129892924D01*
X148359071Y-129877256D01*
X148306489Y-129857501D01*
X148306489Y-129677250D01*
X148323973Y-129686478D01*
X148376312Y-129710589D01*
X148428479Y-129729342D01*
X148480474Y-129742738D01*
X148532297Y-129750775D01*
X148583949Y-129753454D01*
X148621312Y-129751994D01*
X148675418Y-129743073D01*
X148726869Y-129721664D01*
X148763620Y-129688577D01*
X148785671Y-129643812D01*
X148793021Y-129587369D01*
X148274249Y-129587369D01*
X148274249Y-129505547D01*
X148274290Y-129498355D01*
X148276875Y-129449570D01*
X148279658Y-129431053D01*
X148475994Y-129431053D01*
X148791067Y-129431053D01*
X148787872Y-129409272D01*
X148771807Y-129360230D01*
X148741974Y-129319678D01*
X148725187Y-129306398D01*
X148677269Y-129286095D01*
X148626447Y-129280600D01*
X148608839Y-129281195D01*
X148558886Y-129291353D01*
X148515072Y-129318702D01*
X148501792Y-129334261D01*
X148481489Y-129380449D01*
X148475994Y-129431053D01*
X148279658Y-129431053D01*
X148284751Y-129397165D01*
X148297879Y-129348331D01*
X148316259Y-129303070D01*
X148330233Y-129276828D01*
X148359656Y-129234281D01*
X148394565Y-129197762D01*
X148434961Y-129167271D01*
X148464625Y-129150670D01*
X148512856Y-129132209D01*
X148565570Y-129121475D01*
X148616189Y-129118422D01*
X148631899Y-129118619D01*
G37*
G36*
X148117201Y-130025052D02*
G01*
X148095219Y-130025052D01*
X148074703Y-130025052D01*
X148024677Y-130023893D01*
X147994102Y-130021388D01*
X147947551Y-130005721D01*
X147943788Y-130003070D01*
X147912586Y-129964762D01*
X147908617Y-129957152D01*
X147888333Y-129910955D01*
X147872469Y-129869225D01*
X148163607Y-129134054D01*
X147953070Y-129134054D01*
X147777947Y-129626448D01*
X147610641Y-129134054D01*
X147400104Y-129134054D01*
X147717864Y-129975959D01*
X147737592Y-130022335D01*
X147760873Y-130065718D01*
X147768178Y-130077564D01*
X147799333Y-130117449D01*
X147836928Y-130149177D01*
X147842428Y-130152791D01*
X147888434Y-130173302D01*
X147939605Y-130181116D01*
X147951604Y-130181367D01*
X148117201Y-130181367D01*
X148117201Y-130025052D01*
G37*
G36*
X146827843Y-129242254D02*
G01*
X146847142Y-129213231D01*
X146885047Y-129171752D01*
X146928212Y-129142124D01*
X146976637Y-129124348D01*
X147030320Y-129118422D01*
X147061755Y-129120075D01*
X147112597Y-129130919D01*
X147158133Y-129151885D01*
X147198362Y-129182971D01*
X147233286Y-129224180D01*
X147254536Y-129259232D01*
X147275281Y-129306585D01*
X147290840Y-129359708D01*
X147299844Y-129408384D01*
X147305246Y-129461068D01*
X147307047Y-129517759D01*
X147305906Y-129562925D01*
X147301271Y-129615894D01*
X147293069Y-129664987D01*
X147278520Y-129718783D01*
X147258837Y-129766997D01*
X147234019Y-129809630D01*
X147214827Y-129834474D01*
X147177034Y-129869980D01*
X147133890Y-129895342D01*
X147085392Y-129910559D01*
X147031541Y-129915631D01*
X146989603Y-129912441D01*
X146937180Y-129897256D01*
X146892096Y-129869565D01*
X146854353Y-129829368D01*
X146827843Y-129784961D01*
X146808059Y-129900000D01*
X146628296Y-129900000D01*
X146628296Y-129517027D01*
X146827843Y-129517027D01*
X146828180Y-129536757D01*
X146833235Y-129591467D01*
X146845967Y-129644371D01*
X146866189Y-129688974D01*
X146878786Y-129707549D01*
X146917288Y-129741112D01*
X146968038Y-129753454D01*
X146990710Y-129751161D01*
X147036865Y-129727980D01*
X147068910Y-129688241D01*
X147079817Y-129666765D01*
X147096084Y-129617229D01*
X147104402Y-129565143D01*
X147106768Y-129512875D01*
X147106448Y-129493037D01*
X147102468Y-129444081D01*
X147091095Y-129390958D01*
X147070376Y-129342882D01*
X147058265Y-129324939D01*
X147020582Y-129292521D01*
X146969992Y-129280600D01*
X146942831Y-129283697D01*
X146899085Y-129305883D01*
X146866433Y-129345324D01*
X146855316Y-129366518D01*
X146838734Y-129415166D01*
X146830255Y-129466087D01*
X146827843Y-129517027D01*
X146628296Y-129517027D01*
X146628296Y-128837055D01*
X146827843Y-128837055D01*
X146827843Y-129242254D01*
G37*
G36*
X146198429Y-129915631D02*
G01*
X146248529Y-129911067D01*
X146297375Y-129895020D01*
X146338260Y-129867421D01*
X146361095Y-129842602D01*
X146388132Y-129796151D01*
X146404737Y-129746070D01*
X146413531Y-129695461D01*
X146416972Y-129638519D01*
X146417026Y-129629867D01*
X146417026Y-129134054D01*
X146216747Y-129134054D01*
X146216747Y-129600069D01*
X146213433Y-129652196D01*
X146198702Y-129704922D01*
X146163716Y-129743867D01*
X146122469Y-129753454D01*
X146074295Y-129742989D01*
X146035330Y-129708757D01*
X146033321Y-129705826D01*
X146012605Y-129660683D01*
X146002856Y-129607921D01*
X146001325Y-129572226D01*
X146001325Y-129134054D01*
X145801046Y-129134054D01*
X145801046Y-129900000D01*
X145981541Y-129900000D01*
X146001325Y-129784961D01*
X146022245Y-129829368D01*
X146056007Y-129869565D01*
X146099843Y-129897256D01*
X146153753Y-129912441D01*
X146198429Y-129915631D01*
G37*
G36*
X145519434Y-129134054D02*
G01*
X145339183Y-129134054D01*
X145319155Y-129249581D01*
X145292811Y-129206934D01*
X145257743Y-129172049D01*
X145229518Y-129153105D01*
X145181169Y-129131970D01*
X145131720Y-129121166D01*
X145087613Y-129118422D01*
X145036164Y-129121952D01*
X144987149Y-129132543D01*
X144940566Y-129150193D01*
X144931541Y-129154570D01*
X144931541Y-129347278D01*
X144972137Y-129315046D01*
X145019185Y-129293362D01*
X145072687Y-129282228D01*
X145105198Y-129280600D01*
X145156322Y-129284511D01*
X145205120Y-129297850D01*
X145246126Y-129320655D01*
X145280839Y-129355494D01*
X145304012Y-129400294D01*
X145313049Y-129435694D01*
X145317445Y-129478681D01*
X145319073Y-129527631D01*
X145319155Y-129544382D01*
X145319155Y-129900000D01*
X145519434Y-129900000D01*
X145519434Y-129134054D01*
G37*
G36*
X144463100Y-129119734D02*
G01*
X144511898Y-129124208D01*
X144560292Y-129131856D01*
X144604070Y-129141897D01*
X144652501Y-129156745D01*
X144701220Y-129175575D01*
X144701220Y-129347522D01*
X144663950Y-129329250D01*
X144618292Y-129310275D01*
X144568352Y-129293789D01*
X144530401Y-129284580D01*
X144478418Y-129276989D01*
X144429378Y-129274738D01*
X144409139Y-129275298D01*
X144359525Y-129281821D01*
X144347397Y-129284924D01*
X144304570Y-129308688D01*
X144295167Y-129319816D01*
X144283077Y-129368039D01*
X144283077Y-129399790D01*
X144421807Y-129399790D01*
X144456245Y-129400447D01*
X144506528Y-129403893D01*
X144555163Y-129410293D01*
X144574686Y-129413928D01*
X144622431Y-129427397D01*
X144668980Y-129448394D01*
X144678184Y-129453767D01*
X144718663Y-129486554D01*
X144748115Y-129526064D01*
X144762165Y-129556566D01*
X144773745Y-129604508D01*
X144777180Y-129655757D01*
X144777108Y-129663561D01*
X144772585Y-129714986D01*
X144758801Y-129766887D01*
X144735826Y-129811461D01*
X144703663Y-129848709D01*
X144699024Y-129852826D01*
X144658716Y-129881059D01*
X144612730Y-129900926D01*
X144561065Y-129912429D01*
X144511199Y-129915631D01*
X144476334Y-129914043D01*
X144426554Y-129905709D01*
X144379797Y-129890230D01*
X144354266Y-129877666D01*
X144312000Y-129847201D01*
X144278924Y-129810851D01*
X144269643Y-129857257D01*
X144250837Y-129900000D01*
X144052511Y-129900000D01*
X144058173Y-129891461D01*
X144075959Y-129845533D01*
X144078919Y-129831273D01*
X144085484Y-129781297D01*
X144085604Y-129779325D01*
X144087438Y-129729762D01*
X144087427Y-129723988D01*
X144086705Y-129674808D01*
X144086351Y-129656069D01*
X144085973Y-129605198D01*
X144085811Y-129571462D01*
X144085521Y-129553907D01*
X144283077Y-129553907D01*
X144283091Y-129557143D01*
X144287212Y-129608716D01*
X144297731Y-129656734D01*
X144315978Y-129700780D01*
X144347557Y-129741486D01*
X144352062Y-129745538D01*
X144395934Y-129768542D01*
X144445742Y-129774947D01*
X144489961Y-129769244D01*
X144532937Y-129745150D01*
X144556201Y-129708941D01*
X144563956Y-129660397D01*
X144559628Y-129621918D01*
X144533181Y-129578087D01*
X144505637Y-129560909D01*
X144456245Y-129546824D01*
X144412753Y-129542266D01*
X144362944Y-129540474D01*
X144283077Y-129540474D01*
X144283077Y-129553907D01*
X144085521Y-129553907D01*
X144084996Y-129522156D01*
X144084615Y-129504703D01*
X144084019Y-129454012D01*
X144084782Y-129418853D01*
X144089178Y-129366841D01*
X144098795Y-129314568D01*
X144115282Y-129264235D01*
X144141600Y-129217749D01*
X144177904Y-129180382D01*
X144219573Y-129154326D01*
X144259385Y-129138618D01*
X144312056Y-129126311D01*
X144365881Y-129120140D01*
X144418387Y-129118422D01*
X144463100Y-129119734D01*
G37*
G36*
X143098987Y-128883949D02*
G01*
X142858408Y-128883949D01*
X142736775Y-129332623D01*
X142615875Y-128883949D01*
X142373830Y-128883949D01*
X142373830Y-129900000D01*
X142547487Y-129900000D01*
X142547487Y-129092288D01*
X142655442Y-129530216D01*
X142816154Y-129530216D01*
X142925331Y-129092288D01*
X142925331Y-129900000D01*
X143098987Y-129900000D01*
X143098987Y-128883949D01*
G37*
G36*
X141936652Y-129119734D02*
G01*
X141985450Y-129124208D01*
X142033844Y-129131856D01*
X142077622Y-129141897D01*
X142126053Y-129156745D01*
X142174772Y-129175575D01*
X142174772Y-129347522D01*
X142137502Y-129329250D01*
X142091844Y-129310275D01*
X142041904Y-129293789D01*
X142003953Y-129284580D01*
X141951970Y-129276989D01*
X141902930Y-129274738D01*
X141882691Y-129275298D01*
X141833077Y-129281821D01*
X141820949Y-129284924D01*
X141778122Y-129308688D01*
X141768719Y-129319816D01*
X141756629Y-129368039D01*
X141756629Y-129399790D01*
X141895358Y-129399790D01*
X141929797Y-129400447D01*
X141980080Y-129403893D01*
X142028715Y-129410293D01*
X142048238Y-129413928D01*
X142095983Y-129427397D01*
X142142532Y-129448394D01*
X142151736Y-129453767D01*
X142192215Y-129486554D01*
X142221667Y-129526064D01*
X142235717Y-129556566D01*
X142247297Y-129604508D01*
X142250732Y-129655757D01*
X142250660Y-129663561D01*
X142246137Y-129714986D01*
X142232353Y-129766887D01*
X142209378Y-129811461D01*
X142177215Y-129848709D01*
X142172576Y-129852826D01*
X142132268Y-129881059D01*
X142086282Y-129900926D01*
X142034617Y-129912429D01*
X141984751Y-129915631D01*
X141949886Y-129914043D01*
X141900106Y-129905709D01*
X141853349Y-129890230D01*
X141827818Y-129877666D01*
X141785552Y-129847201D01*
X141752476Y-129810851D01*
X141743195Y-129857257D01*
X141724389Y-129900000D01*
X141526063Y-129900000D01*
X141531725Y-129891461D01*
X141549511Y-129845533D01*
X141552471Y-129831273D01*
X141559036Y-129781297D01*
X141559156Y-129779325D01*
X141560990Y-129729762D01*
X141560979Y-129723988D01*
X141560257Y-129674808D01*
X141559903Y-129656069D01*
X141559525Y-129605198D01*
X141559363Y-129571462D01*
X141559073Y-129553907D01*
X141756629Y-129553907D01*
X141756643Y-129557143D01*
X141760764Y-129608716D01*
X141771283Y-129656734D01*
X141789530Y-129700780D01*
X141821109Y-129741486D01*
X141825614Y-129745538D01*
X141869486Y-129768542D01*
X141919294Y-129774947D01*
X141963513Y-129769244D01*
X142006489Y-129745150D01*
X142029753Y-129708941D01*
X142037508Y-129660397D01*
X142033180Y-129621918D01*
X142006733Y-129578087D01*
X141979189Y-129560909D01*
X141929797Y-129546824D01*
X141886305Y-129542266D01*
X141836496Y-129540474D01*
X141756629Y-129540474D01*
X141756629Y-129553907D01*
X141559073Y-129553907D01*
X141558548Y-129522156D01*
X141558167Y-129504703D01*
X141557571Y-129454012D01*
X141558334Y-129418853D01*
X141562730Y-129366841D01*
X141572347Y-129314568D01*
X141588834Y-129264235D01*
X141615152Y-129217749D01*
X141651456Y-129180382D01*
X141693125Y-129154326D01*
X141732937Y-129138618D01*
X141785608Y-129126311D01*
X141839433Y-129120140D01*
X141891939Y-129118422D01*
X141936652Y-129119734D01*
G37*
G36*
X141057361Y-129915631D02*
G01*
X141106717Y-129914008D01*
X141158066Y-129909140D01*
X141211406Y-129901025D01*
X141266738Y-129889665D01*
X141314371Y-129877719D01*
X141343614Y-129869469D01*
X141343614Y-129698011D01*
X141293121Y-129724157D01*
X141242578Y-129744894D01*
X141191982Y-129760221D01*
X141141335Y-129770139D01*
X141090637Y-129774647D01*
X141073726Y-129774947D01*
X141018813Y-129770962D01*
X140968029Y-129754125D01*
X140936238Y-129715654D01*
X140932797Y-129691660D01*
X140951619Y-129644674D01*
X140966259Y-129632554D01*
X141011566Y-129611427D01*
X141061094Y-129597344D01*
X141080564Y-129592986D01*
X141135763Y-129580530D01*
X141187398Y-129566322D01*
X141242259Y-129542948D01*
X141286364Y-129513337D01*
X141319711Y-129477489D01*
X141345528Y-129426238D01*
X141355210Y-129376668D01*
X141356070Y-129355094D01*
X141350972Y-129301360D01*
X141335676Y-129254221D01*
X141306280Y-129209073D01*
X141274493Y-129179727D01*
X141228988Y-129152906D01*
X141181632Y-129135724D01*
X141127240Y-129124409D01*
X141075019Y-129119380D01*
X141037333Y-129118422D01*
X140988283Y-129120115D01*
X140936270Y-129125725D01*
X140917899Y-129128681D01*
X140869388Y-129138950D01*
X140819506Y-129153090D01*
X140796021Y-129160921D01*
X140796021Y-129335554D01*
X140840477Y-129308191D01*
X140886855Y-129285835D01*
X140911060Y-129276936D01*
X140959559Y-129264748D01*
X141009742Y-129259385D01*
X141024389Y-129259106D01*
X141074754Y-129262371D01*
X141122465Y-129275354D01*
X141129657Y-129278890D01*
X141163621Y-129314395D01*
X141166538Y-129332135D01*
X141143642Y-129376265D01*
X141131855Y-129384891D01*
X141086487Y-129405957D01*
X141038757Y-129420234D01*
X141020236Y-129424703D01*
X140955268Y-129440334D01*
X140904023Y-129455340D01*
X140855240Y-129476856D01*
X140812049Y-129506518D01*
X140794800Y-129523621D01*
X140766016Y-129567301D01*
X140750216Y-129614623D01*
X140744439Y-129663412D01*
X140744242Y-129675052D01*
X140749134Y-129731438D01*
X140763812Y-129780305D01*
X140795919Y-129830817D01*
X140843315Y-129869583D01*
X140892240Y-129892137D01*
X140950950Y-129907173D01*
X141001403Y-129913517D01*
X141057361Y-129915631D01*
G37*
G36*
X140065980Y-129900000D02*
G01*
X140119347Y-129898580D01*
X140172086Y-129893589D01*
X140221621Y-129883829D01*
X140242811Y-129877285D01*
X140288637Y-129853229D01*
X140324194Y-129815242D01*
X140333425Y-129798639D01*
X140349649Y-129751000D01*
X140357448Y-129702328D01*
X140360022Y-129651548D01*
X140360048Y-129645498D01*
X140360048Y-129296231D01*
X140555442Y-129296231D01*
X140555442Y-129134054D01*
X140360048Y-129134054D01*
X140360048Y-128925715D01*
X140159769Y-128837055D01*
X140159769Y-129134054D01*
X139897940Y-129134054D01*
X139897940Y-129296231D01*
X140159769Y-129296231D01*
X140159769Y-129645987D01*
X140150728Y-129694233D01*
X140134123Y-129716329D01*
X140087105Y-129735283D01*
X140051813Y-129737822D01*
X139897940Y-129737822D01*
X139897940Y-129900000D01*
X140065980Y-129900000D01*
G37*
G36*
X139368256Y-129118619D02*
G01*
X139420626Y-129122402D01*
X139468928Y-129131001D01*
X139519150Y-129146724D01*
X139564061Y-129168736D01*
X139594191Y-129188938D01*
X139633881Y-129224586D01*
X139666963Y-129266647D01*
X139690823Y-129309420D01*
X139695939Y-129320838D01*
X139713105Y-129368931D01*
X139724989Y-129420901D01*
X139731055Y-129469556D01*
X139733077Y-129521179D01*
X139731470Y-129567699D01*
X139724943Y-129621879D01*
X139713395Y-129671646D01*
X139692910Y-129725541D01*
X139665195Y-129773083D01*
X139630250Y-129814270D01*
X139595804Y-129843471D01*
X139548359Y-129871979D01*
X139494252Y-129893359D01*
X139444072Y-129905733D01*
X139389266Y-129913156D01*
X139329832Y-129915631D01*
X139311423Y-129915404D01*
X139256574Y-129911998D01*
X139202292Y-129904505D01*
X139148577Y-129892924D01*
X139095428Y-129877256D01*
X139042846Y-129857501D01*
X139042846Y-129677250D01*
X139060331Y-129686478D01*
X139112669Y-129710589D01*
X139164836Y-129729342D01*
X139216831Y-129742738D01*
X139268655Y-129750775D01*
X139320306Y-129753454D01*
X139357670Y-129751994D01*
X139411775Y-129743073D01*
X139463226Y-129721664D01*
X139499977Y-129688577D01*
X139522028Y-129643812D01*
X139529378Y-129587369D01*
X139010606Y-129587369D01*
X139010606Y-129505547D01*
X139010647Y-129498355D01*
X139013232Y-129449570D01*
X139016015Y-129431053D01*
X139212351Y-129431053D01*
X139527424Y-129431053D01*
X139524229Y-129409272D01*
X139508164Y-129360230D01*
X139478331Y-129319678D01*
X139461544Y-129306398D01*
X139413626Y-129286095D01*
X139362804Y-129280600D01*
X139345196Y-129281195D01*
X139295243Y-129291353D01*
X139251430Y-129318702D01*
X139238149Y-129334261D01*
X139217846Y-129380449D01*
X139212351Y-129431053D01*
X139016015Y-129431053D01*
X139021109Y-129397165D01*
X139034237Y-129348331D01*
X139052616Y-129303070D01*
X139066591Y-129276828D01*
X139096013Y-129234281D01*
X139130922Y-129197762D01*
X139171318Y-129167271D01*
X139200982Y-129150670D01*
X139249213Y-129132209D01*
X139301927Y-129121475D01*
X139352546Y-129118422D01*
X139368256Y-129118619D01*
G37*
G36*
X138782239Y-129134054D02*
G01*
X138601988Y-129134054D01*
X138581960Y-129249581D01*
X138555616Y-129206934D01*
X138520548Y-129172049D01*
X138492323Y-129153105D01*
X138443974Y-129131970D01*
X138394525Y-129121166D01*
X138350418Y-129118422D01*
X138298969Y-129121952D01*
X138249954Y-129132543D01*
X138203371Y-129150193D01*
X138194347Y-129154570D01*
X138194347Y-129347278D01*
X138234942Y-129315046D01*
X138281991Y-129293362D01*
X138335492Y-129282228D01*
X138368003Y-129280600D01*
X138419127Y-129284511D01*
X138467926Y-129297850D01*
X138508931Y-129320655D01*
X138543644Y-129355494D01*
X138566817Y-129400294D01*
X138575854Y-129435694D01*
X138580250Y-129478681D01*
X138581878Y-129527631D01*
X138581960Y-129544382D01*
X138581960Y-129900000D01*
X138782239Y-129900000D01*
X138782239Y-129134054D01*
G37*
G36*
X137772051Y-128883949D02*
G01*
X137596929Y-128883949D01*
X137596929Y-129259106D01*
X137772051Y-129259106D01*
X137772051Y-128883949D01*
G37*
G36*
X136846615Y-129915631D02*
G01*
X136895971Y-129914008D01*
X136947319Y-129909140D01*
X137000659Y-129901025D01*
X137055992Y-129889665D01*
X137103624Y-129877719D01*
X137132867Y-129869469D01*
X137132867Y-129698011D01*
X137082375Y-129724157D01*
X137031831Y-129744894D01*
X136981235Y-129760221D01*
X136930588Y-129770139D01*
X136879890Y-129774647D01*
X136862979Y-129774947D01*
X136808066Y-129770962D01*
X136757283Y-129754125D01*
X136725491Y-129715654D01*
X136722051Y-129691660D01*
X136740873Y-129644674D01*
X136755512Y-129632554D01*
X136800819Y-129611427D01*
X136850347Y-129597344D01*
X136869818Y-129592986D01*
X136925017Y-129580530D01*
X136976651Y-129566322D01*
X137031513Y-129542948D01*
X137075617Y-129513337D01*
X137108964Y-129477489D01*
X137134782Y-129426238D01*
X137144463Y-129376668D01*
X137145324Y-129355094D01*
X137140225Y-129301360D01*
X137124929Y-129254221D01*
X137095533Y-129209073D01*
X137063746Y-129179727D01*
X137018241Y-129152906D01*
X136970885Y-129135724D01*
X136916494Y-129124409D01*
X136864273Y-129119380D01*
X136826587Y-129118422D01*
X136777536Y-129120115D01*
X136725524Y-129125725D01*
X136707152Y-129128681D01*
X136658641Y-129138950D01*
X136608759Y-129153090D01*
X136585275Y-129160921D01*
X136585275Y-129335554D01*
X136629731Y-129308191D01*
X136676109Y-129285835D01*
X136700313Y-129276936D01*
X136748813Y-129264748D01*
X136798995Y-129259385D01*
X136813642Y-129259106D01*
X136864007Y-129262371D01*
X136911718Y-129275354D01*
X136918910Y-129278890D01*
X136952874Y-129314395D01*
X136955791Y-129332135D01*
X136932895Y-129376265D01*
X136921109Y-129384891D01*
X136875741Y-129405957D01*
X136828010Y-129420234D01*
X136809490Y-129424703D01*
X136744521Y-129440334D01*
X136693276Y-129455340D01*
X136644493Y-129476856D01*
X136601302Y-129506518D01*
X136584054Y-129523621D01*
X136555269Y-129567301D01*
X136539469Y-129614623D01*
X136533693Y-129663412D01*
X136533495Y-129675052D01*
X136538388Y-129731438D01*
X136553065Y-129780305D01*
X136585172Y-129830817D01*
X136632568Y-129869583D01*
X136681493Y-129892137D01*
X136740203Y-129907173D01*
X136790657Y-129913517D01*
X136846615Y-129915631D01*
G37*
G36*
X135257815Y-129055896D02*
G01*
X135516957Y-129055896D01*
X135516957Y-128883949D01*
X134797173Y-128883949D01*
X134797173Y-129055896D01*
X135056315Y-129055896D01*
X135056315Y-129900000D01*
X135257815Y-129900000D01*
X135257815Y-129055896D01*
G37*
G36*
X134618876Y-128837055D02*
G01*
X134419818Y-128837055D01*
X134419818Y-129250802D01*
X134397278Y-129203885D01*
X134364984Y-129166722D01*
X134346789Y-129152861D01*
X134301366Y-129130563D01*
X134252783Y-129120070D01*
X134221492Y-129118422D01*
X134171438Y-129122987D01*
X134122754Y-129139033D01*
X134082145Y-129166633D01*
X134059559Y-129191451D01*
X134032758Y-129237744D01*
X134016299Y-129287879D01*
X134007582Y-129338684D01*
X134004170Y-129395964D01*
X134004116Y-129404675D01*
X134004116Y-129900000D01*
X134203174Y-129900000D01*
X134203174Y-129434228D01*
X134205916Y-129384399D01*
X134217336Y-129335673D01*
X134226377Y-129317480D01*
X134265017Y-129285786D01*
X134297452Y-129280600D01*
X134346260Y-129291279D01*
X134383691Y-129323318D01*
X134387822Y-129329204D01*
X134408538Y-129374503D01*
X134418287Y-129426979D01*
X134419818Y-129462316D01*
X134419818Y-129900000D01*
X134618876Y-129900000D01*
X134618876Y-128837055D01*
G37*
G36*
X133473211Y-129118619D02*
G01*
X133525580Y-129122402D01*
X133573883Y-129131001D01*
X133624105Y-129146724D01*
X133669015Y-129168736D01*
X133699146Y-129188938D01*
X133738835Y-129224586D01*
X133771918Y-129266647D01*
X133795777Y-129309420D01*
X133800894Y-129320838D01*
X133818060Y-129368931D01*
X133829944Y-129420901D01*
X133836009Y-129469556D01*
X133838031Y-129521179D01*
X133836425Y-129567699D01*
X133829897Y-129621879D01*
X133818350Y-129671646D01*
X133797865Y-129725541D01*
X133770150Y-129773083D01*
X133735205Y-129814270D01*
X133700758Y-129843471D01*
X133653314Y-129871979D01*
X133599207Y-129893359D01*
X133549027Y-129905733D01*
X133494220Y-129913156D01*
X133434786Y-129915631D01*
X133416377Y-129915404D01*
X133361529Y-129911998D01*
X133307247Y-129904505D01*
X133253531Y-129892924D01*
X133200383Y-129877256D01*
X133147801Y-129857501D01*
X133147801Y-129677250D01*
X133165285Y-129686478D01*
X133217624Y-129710589D01*
X133269791Y-129729342D01*
X133321786Y-129742738D01*
X133373609Y-129750775D01*
X133425261Y-129753454D01*
X133462624Y-129751994D01*
X133516730Y-129743073D01*
X133568181Y-129721664D01*
X133604932Y-129688577D01*
X133626982Y-129643812D01*
X133634333Y-129587369D01*
X133115561Y-129587369D01*
X133115561Y-129505547D01*
X133115602Y-129498355D01*
X133118186Y-129449570D01*
X133120969Y-129431053D01*
X133317305Y-129431053D01*
X133632379Y-129431053D01*
X133629184Y-129409272D01*
X133613119Y-129360230D01*
X133583286Y-129319678D01*
X133566499Y-129306398D01*
X133518581Y-129286095D01*
X133467759Y-129280600D01*
X133450151Y-129281195D01*
X133400198Y-129291353D01*
X133356384Y-129318702D01*
X133343104Y-129334261D01*
X133322801Y-129380449D01*
X133317305Y-129431053D01*
X133120969Y-129431053D01*
X133126063Y-129397165D01*
X133139191Y-129348331D01*
X133157571Y-129303070D01*
X133171545Y-129276828D01*
X133200968Y-129234281D01*
X133235877Y-129197762D01*
X133276273Y-129167271D01*
X133305937Y-129150670D01*
X133354168Y-129132209D01*
X133406882Y-129121475D01*
X133457501Y-129118422D01*
X133473211Y-129118619D01*
G37*
G36*
X132635868Y-129915631D02*
G01*
X132685224Y-129914008D01*
X132736572Y-129909140D01*
X132789913Y-129901025D01*
X132845245Y-129889665D01*
X132892877Y-129877719D01*
X132922121Y-129869469D01*
X132922121Y-129698011D01*
X132871628Y-129724157D01*
X132821084Y-129744894D01*
X132770489Y-129760221D01*
X132719842Y-129770139D01*
X132669143Y-129774647D01*
X132652232Y-129774947D01*
X132597320Y-129770962D01*
X132546536Y-129754125D01*
X132514745Y-129715654D01*
X132511304Y-129691660D01*
X132530126Y-129644674D01*
X132544765Y-129632554D01*
X132590072Y-129611427D01*
X132639600Y-129597344D01*
X132659071Y-129592986D01*
X132714270Y-129580530D01*
X132765904Y-129566322D01*
X132820766Y-129542948D01*
X132864870Y-129513337D01*
X132898218Y-129477489D01*
X132924035Y-129426238D01*
X132933716Y-129376668D01*
X132934577Y-129355094D01*
X132929478Y-129301360D01*
X132914183Y-129254221D01*
X132884786Y-129209073D01*
X132853000Y-129179727D01*
X132807494Y-129152906D01*
X132760139Y-129135724D01*
X132705747Y-129124409D01*
X132653526Y-129119380D01*
X132615840Y-129118422D01*
X132566789Y-129120115D01*
X132514777Y-129125725D01*
X132496405Y-129128681D01*
X132447894Y-129138950D01*
X132398013Y-129153090D01*
X132374528Y-129160921D01*
X132374528Y-129335554D01*
X132418984Y-129308191D01*
X132465362Y-129285835D01*
X132489566Y-129276936D01*
X132538066Y-129264748D01*
X132588248Y-129259385D01*
X132602895Y-129259106D01*
X132653260Y-129262371D01*
X132700972Y-129275354D01*
X132708164Y-129278890D01*
X132742127Y-129314395D01*
X132745044Y-129332135D01*
X132722149Y-129376265D01*
X132710362Y-129384891D01*
X132664994Y-129405957D01*
X132617263Y-129420234D01*
X132598743Y-129424703D01*
X132533774Y-129440334D01*
X132482529Y-129455340D01*
X132433746Y-129476856D01*
X132390555Y-129506518D01*
X132373307Y-129523621D01*
X132344522Y-129567301D01*
X132328723Y-129614623D01*
X132322946Y-129663412D01*
X132322749Y-129675052D01*
X132327641Y-129731438D01*
X132342319Y-129780305D01*
X132374426Y-129830817D01*
X132421821Y-129869583D01*
X132470746Y-129892137D01*
X132529456Y-129907173D01*
X132579910Y-129913517D01*
X132635868Y-129915631D01*
G37*
G36*
X131901674Y-129040265D02*
G01*
X131922190Y-129019748D01*
X131922190Y-128826308D01*
X131901674Y-128805792D01*
X131742428Y-128805792D01*
X131721911Y-128826308D01*
X131721911Y-129019748D01*
X131742428Y-129040265D01*
X131901674Y-129040265D01*
G37*
G36*
X131654744Y-129900000D02*
G01*
X131705334Y-129897441D01*
X131757258Y-129887987D01*
X131807240Y-129868654D01*
X131847239Y-129840222D01*
X131859664Y-129827215D01*
X131887019Y-129784946D01*
X131904544Y-129738518D01*
X131916084Y-129683279D01*
X131921213Y-129628917D01*
X131922190Y-129589078D01*
X131922190Y-129296231D01*
X132084123Y-129296231D01*
X132084123Y-129134054D01*
X131721911Y-129134054D01*
X131721911Y-129576622D01*
X131719144Y-129625995D01*
X131707275Y-129675775D01*
X131693579Y-129700697D01*
X131652601Y-129729665D01*
X131602913Y-129737786D01*
X131598813Y-129737822D01*
X131438834Y-129737822D01*
X131438834Y-129900000D01*
X131654744Y-129900000D01*
G37*
G36*
X130951569Y-129915631D02*
G01*
X131000925Y-129914008D01*
X131052274Y-129909140D01*
X131105614Y-129901025D01*
X131160946Y-129889665D01*
X131208579Y-129877719D01*
X131237822Y-129869469D01*
X131237822Y-129698011D01*
X131187329Y-129724157D01*
X131136785Y-129744894D01*
X131086190Y-129760221D01*
X131035543Y-129770139D01*
X130984844Y-129774647D01*
X130967934Y-129774947D01*
X130913021Y-129770962D01*
X130862237Y-129754125D01*
X130830446Y-129715654D01*
X130827005Y-129691660D01*
X130845827Y-129644674D01*
X130860467Y-129632554D01*
X130905774Y-129611427D01*
X130955302Y-129597344D01*
X130974772Y-129592986D01*
X131029971Y-129580530D01*
X131081606Y-129566322D01*
X131136467Y-129542948D01*
X131180572Y-129513337D01*
X131213919Y-129477489D01*
X131239736Y-129426238D01*
X131249418Y-129376668D01*
X131250278Y-129355094D01*
X131245180Y-129301360D01*
X131229884Y-129254221D01*
X131200488Y-129209073D01*
X131168701Y-129179727D01*
X131123196Y-129152906D01*
X131075840Y-129135724D01*
X131021448Y-129124409D01*
X130969227Y-129119380D01*
X130931541Y-129118422D01*
X130882491Y-129120115D01*
X130830478Y-129125725D01*
X130812107Y-129128681D01*
X130763596Y-129138950D01*
X130713714Y-129153090D01*
X130690229Y-129160921D01*
X130690229Y-129335554D01*
X130734685Y-129308191D01*
X130781063Y-129285835D01*
X130805268Y-129276936D01*
X130853767Y-129264748D01*
X130903950Y-129259385D01*
X130918596Y-129259106D01*
X130968962Y-129262371D01*
X131016673Y-129275354D01*
X131023865Y-129278890D01*
X131057828Y-129314395D01*
X131060746Y-129332135D01*
X131037850Y-129376265D01*
X131026063Y-129384891D01*
X130980695Y-129405957D01*
X130932965Y-129420234D01*
X130914444Y-129424703D01*
X130849476Y-129440334D01*
X130798231Y-129455340D01*
X130749448Y-129476856D01*
X130706257Y-129506518D01*
X130689008Y-129523621D01*
X130660224Y-129567301D01*
X130644424Y-129614623D01*
X130638647Y-129663412D01*
X130638450Y-129675052D01*
X130643342Y-129731438D01*
X130658020Y-129780305D01*
X130690127Y-129830817D01*
X130737523Y-129869583D01*
X130786448Y-129892137D01*
X130845158Y-129907173D01*
X130895611Y-129913517D01*
X130951569Y-129915631D01*
G37*
G36*
X148132099Y-131434187D02*
G01*
X148115002Y-131392421D01*
X148022679Y-131295212D01*
X147986485Y-131256820D01*
X147950620Y-131218775D01*
X147916799Y-131182892D01*
X147902267Y-131167473D01*
X147867138Y-131130301D01*
X147832413Y-131093224D01*
X147798198Y-131055947D01*
X147786251Y-131042665D01*
X147754673Y-131005125D01*
X147742532Y-130989665D01*
X147715471Y-130947029D01*
X147712490Y-130940816D01*
X147695454Y-130895020D01*
X147689776Y-130849469D01*
X147697770Y-130798118D01*
X147724077Y-130754823D01*
X147731541Y-130747620D01*
X147774491Y-130722242D01*
X147825842Y-130711401D01*
X147848533Y-130710495D01*
X147899564Y-130714843D01*
X147949545Y-130726666D01*
X147969434Y-130733210D01*
X148016251Y-130751638D01*
X148038066Y-130761542D01*
X148082793Y-130784688D01*
X148110362Y-130800865D01*
X148110362Y-130605226D01*
X148063099Y-130588472D01*
X148032448Y-130579092D01*
X147983497Y-130566167D01*
X147966747Y-130562484D01*
X147914540Y-130553851D01*
X147863432Y-130549203D01*
X147829971Y-130548318D01*
X147779940Y-130550453D01*
X147728059Y-130557655D01*
X147690997Y-130566392D01*
X147644720Y-130582867D01*
X147599704Y-130607304D01*
X147577668Y-130623300D01*
X147540974Y-130660166D01*
X147512867Y-130703900D01*
X147509769Y-130710251D01*
X147493072Y-130758703D01*
X147485941Y-130810476D01*
X147485344Y-130832128D01*
X147489852Y-130884134D01*
X147502194Y-130931899D01*
X147505861Y-130942037D01*
X147527488Y-130986963D01*
X147554267Y-131030514D01*
X147574981Y-131058785D01*
X147608864Y-131097709D01*
X147644835Y-131136210D01*
X147680709Y-131173446D01*
X147716715Y-131210094D01*
X147753748Y-131247341D01*
X147774039Y-131267613D01*
X147811056Y-131304099D01*
X147849001Y-131338553D01*
X147852685Y-131341618D01*
X147892028Y-131372465D01*
X147899092Y-131377522D01*
X147934507Y-131408053D01*
X147484123Y-131408053D01*
X147484123Y-131580000D01*
X148132099Y-131580000D01*
X148132099Y-131434187D01*
G37*
G36*
X146967717Y-130906111D02*
G01*
X146976098Y-130955226D01*
X146978006Y-130971285D01*
X146981715Y-131021660D01*
X146982937Y-131069776D01*
X146982871Y-131076223D01*
X146980250Y-131125464D01*
X146979243Y-131138667D01*
X146974877Y-131187745D01*
X146973804Y-131195409D01*
X146964374Y-131243921D01*
X146946789Y-131269078D01*
X146925723Y-131237021D01*
X146917480Y-131187013D01*
X146915602Y-131169855D01*
X146912351Y-131119113D01*
X146911374Y-131073928D01*
X146911395Y-131070306D01*
X146913816Y-131020683D01*
X146914801Y-131005683D01*
X146918701Y-130956692D01*
X146920082Y-130945788D01*
X146930424Y-130897829D01*
X146948254Y-130874626D01*
X146967717Y-130906111D01*
G37*
G36*
X146968287Y-130548827D02*
G01*
X147026610Y-130556469D01*
X147078975Y-130573282D01*
X147125380Y-130599265D01*
X147165826Y-130634419D01*
X147200313Y-130678743D01*
X147205497Y-130687039D01*
X147228949Y-130732390D01*
X147248287Y-130784193D01*
X147263511Y-130842447D01*
X147272727Y-130893696D01*
X147279310Y-130949074D01*
X147283260Y-131008582D01*
X147284577Y-131072219D01*
X147284494Y-131088410D01*
X147282519Y-131150639D01*
X147277911Y-131208807D01*
X147270670Y-131262914D01*
X147260795Y-131312961D01*
X147244749Y-131369809D01*
X147224588Y-131420313D01*
X147200313Y-131464473D01*
X147183808Y-131487912D01*
X147146290Y-131527874D01*
X147102761Y-131558615D01*
X147053222Y-131580133D01*
X146997672Y-131592429D01*
X146946789Y-131595631D01*
X146886553Y-131591031D01*
X146832243Y-131577230D01*
X146783857Y-131554228D01*
X146741396Y-131522026D01*
X146704860Y-131480623D01*
X146674248Y-131430020D01*
X146649561Y-131370216D01*
X146630800Y-131301212D01*
X146621583Y-131250097D01*
X146615000Y-131194893D01*
X146611050Y-131135601D01*
X146609734Y-131072219D01*
X146812944Y-131072219D01*
X146812975Y-131083844D01*
X146814069Y-131139040D01*
X146816724Y-131189346D01*
X146821974Y-131243259D01*
X146830941Y-131297258D01*
X146844939Y-131347236D01*
X146863441Y-131384956D01*
X146900123Y-131421329D01*
X146947521Y-131433454D01*
X146987378Y-131425034D01*
X147025571Y-131392702D01*
X147049371Y-131347236D01*
X147051339Y-131341673D01*
X147064837Y-131290130D01*
X147073368Y-131234762D01*
X147078242Y-131179676D01*
X147080585Y-131128392D01*
X147081367Y-131072219D01*
X147081335Y-131060563D01*
X147080242Y-131005231D01*
X147077586Y-130954813D01*
X147072337Y-130900797D01*
X147063369Y-130846721D01*
X147049371Y-130796713D01*
X147033478Y-130763118D01*
X146997912Y-130724724D01*
X146947521Y-130710495D01*
X146907279Y-130718915D01*
X146868810Y-130751246D01*
X146844939Y-130796713D01*
X146842971Y-130802276D01*
X146829473Y-130853857D01*
X146820943Y-130909309D01*
X146816068Y-130964504D01*
X146813725Y-131015904D01*
X146812944Y-131072219D01*
X146609734Y-131072219D01*
X146609816Y-131055922D01*
X146611791Y-130993318D01*
X146616399Y-130934843D01*
X146623640Y-130880497D01*
X146633515Y-130830280D01*
X146649561Y-130773316D01*
X146669722Y-130722804D01*
X146693997Y-130678743D01*
X146710502Y-130655435D01*
X146748020Y-130615696D01*
X146791549Y-130585127D01*
X146841088Y-130563729D01*
X146896638Y-130551502D01*
X146947521Y-130548318D01*
X146968287Y-130548827D01*
G37*
G36*
X146447801Y-131434187D02*
G01*
X146430704Y-131392421D01*
X146338380Y-131295212D01*
X146302186Y-131256820D01*
X146266322Y-131218775D01*
X146232500Y-131182892D01*
X146217968Y-131167473D01*
X146182839Y-131130301D01*
X146148115Y-131093224D01*
X146113899Y-131055947D01*
X146101953Y-131042665D01*
X146070374Y-131005125D01*
X146058233Y-130989665D01*
X146031172Y-130947029D01*
X146028191Y-130940816D01*
X146011155Y-130895020D01*
X146005477Y-130849469D01*
X146013471Y-130798118D01*
X146039778Y-130754823D01*
X146047242Y-130747620D01*
X146090192Y-130722242D01*
X146141543Y-130711401D01*
X146164235Y-130710495D01*
X146215265Y-130714843D01*
X146265246Y-130726666D01*
X146285135Y-130733210D01*
X146331952Y-130751638D01*
X146353767Y-130761542D01*
X146398494Y-130784688D01*
X146426063Y-130800865D01*
X146426063Y-130605226D01*
X146378800Y-130588472D01*
X146348150Y-130579092D01*
X146299199Y-130566167D01*
X146282448Y-130562484D01*
X146230241Y-130553851D01*
X146179133Y-130549203D01*
X146145672Y-130548318D01*
X146095641Y-130550453D01*
X146043760Y-130557655D01*
X146006698Y-130566392D01*
X145960422Y-130582867D01*
X145915405Y-130607304D01*
X145893369Y-130623300D01*
X145856676Y-130660166D01*
X145828569Y-130703900D01*
X145825470Y-130710251D01*
X145808774Y-130758703D01*
X145801642Y-130810476D01*
X145801046Y-130832128D01*
X145805554Y-130884134D01*
X145817895Y-130931899D01*
X145821562Y-130942037D01*
X145843189Y-130986963D01*
X145869968Y-131030514D01*
X145890683Y-131058785D01*
X145924566Y-131097709D01*
X145960536Y-131136210D01*
X145996410Y-131173446D01*
X146032416Y-131210094D01*
X146069449Y-131247341D01*
X146089741Y-131267613D01*
X146126757Y-131304099D01*
X146164702Y-131338553D01*
X146168387Y-131341618D01*
X146207729Y-131372465D01*
X146214793Y-131377522D01*
X146250208Y-131408053D01*
X145799824Y-131408053D01*
X145799824Y-131580000D01*
X146447801Y-131580000D01*
X146447801Y-131434187D01*
G37*
G36*
X145319887Y-131595631D02*
G01*
X145370491Y-131593857D01*
X145382902Y-131592944D01*
X145433094Y-131587632D01*
X145449824Y-131585129D01*
X145499231Y-131576241D01*
X145518701Y-131571939D01*
X145567701Y-131559470D01*
X145586600Y-131554110D01*
X145586600Y-131376789D01*
X145540602Y-131397171D01*
X145528471Y-131401702D01*
X145481277Y-131416052D01*
X145469608Y-131419043D01*
X145418591Y-131428894D01*
X145369795Y-131433102D01*
X145350662Y-131433454D01*
X145299737Y-131430523D01*
X145250621Y-131420219D01*
X145202345Y-131397550D01*
X145187996Y-131386559D01*
X145154210Y-131345469D01*
X145136939Y-131298691D01*
X145132553Y-131253935D01*
X145137800Y-131202296D01*
X145155694Y-131154915D01*
X145186286Y-131117404D01*
X145228336Y-131090427D01*
X145275429Y-131075619D01*
X145325032Y-131070206D01*
X145336984Y-131070020D01*
X145386340Y-131073229D01*
X145388031Y-131073440D01*
X145437128Y-131083048D01*
X145442253Y-131084431D01*
X145490347Y-131100511D01*
X145499406Y-131104214D01*
X145544801Y-131125106D01*
X145552406Y-131129127D01*
X145552406Y-130563949D01*
X144997975Y-130563949D01*
X144997975Y-130735896D01*
X145389008Y-130735896D01*
X145389008Y-130925429D01*
X145367270Y-130917857D01*
X145336251Y-130910041D01*
X145306942Y-130907843D01*
X145275435Y-130907843D01*
X145222450Y-130911244D01*
X145171937Y-130921444D01*
X145139636Y-130932023D01*
X145094367Y-130953249D01*
X145051062Y-130983221D01*
X145030215Y-131002365D01*
X144997363Y-131041745D01*
X144971041Y-131087251D01*
X144961094Y-131110321D01*
X144946062Y-131159860D01*
X144938377Y-131208952D01*
X144936426Y-131251737D01*
X144939972Y-131309259D01*
X144950611Y-131362024D01*
X144968343Y-131410032D01*
X144993167Y-131453283D01*
X145025083Y-131491777D01*
X145037298Y-131503551D01*
X145077967Y-131534844D01*
X145124321Y-131559662D01*
X145176359Y-131578006D01*
X145234082Y-131589876D01*
X145286526Y-131594822D01*
X145319887Y-131595631D01*
G37*
G36*
X144690962Y-131064159D02*
G01*
X144150452Y-131064159D01*
X144150452Y-131267369D01*
X144690962Y-131267369D01*
X144690962Y-131064159D01*
G37*
G36*
X143599120Y-130906111D02*
G01*
X143607501Y-130955226D01*
X143609409Y-130971285D01*
X143613118Y-131021660D01*
X143614339Y-131069776D01*
X143614274Y-131076223D01*
X143611653Y-131125464D01*
X143610645Y-131138667D01*
X143606279Y-131187745D01*
X143605207Y-131195409D01*
X143595777Y-131243921D01*
X143578191Y-131269078D01*
X143557125Y-131237021D01*
X143548882Y-131187013D01*
X143547005Y-131169855D01*
X143543753Y-131119113D01*
X143542776Y-131073928D01*
X143542798Y-131070306D01*
X143545219Y-131020683D01*
X143546204Y-131005683D01*
X143550103Y-130956692D01*
X143551485Y-130945788D01*
X143561827Y-130897829D01*
X143579657Y-130874626D01*
X143599120Y-130906111D01*
G37*
G36*
X143599690Y-130548827D02*
G01*
X143658013Y-130556469D01*
X143710377Y-130573282D01*
X143756783Y-130599265D01*
X143797229Y-130634419D01*
X143831715Y-130678743D01*
X143836900Y-130687039D01*
X143860352Y-130732390D01*
X143879690Y-130784193D01*
X143894913Y-130842447D01*
X143904130Y-130893696D01*
X143910713Y-130949074D01*
X143914663Y-131008582D01*
X143915979Y-131072219D01*
X143915897Y-131088410D01*
X143913922Y-131150639D01*
X143909314Y-131208807D01*
X143902072Y-131262914D01*
X143892198Y-131312961D01*
X143876151Y-131369809D01*
X143855991Y-131420313D01*
X143831715Y-131464473D01*
X143815210Y-131487912D01*
X143777693Y-131527874D01*
X143734164Y-131558615D01*
X143684625Y-131580133D01*
X143629075Y-131592429D01*
X143578191Y-131595631D01*
X143517956Y-131591031D01*
X143463645Y-131577230D01*
X143415259Y-131554228D01*
X143372798Y-131522026D01*
X143336262Y-131480623D01*
X143305651Y-131430020D01*
X143280964Y-131370216D01*
X143262202Y-131301212D01*
X143252986Y-131250097D01*
X143246403Y-131194893D01*
X143242453Y-131135601D01*
X143241136Y-131072219D01*
X143444346Y-131072219D01*
X143444378Y-131083844D01*
X143445471Y-131139040D01*
X143448127Y-131189346D01*
X143453376Y-131243259D01*
X143462344Y-131297258D01*
X143476342Y-131347236D01*
X143494844Y-131384956D01*
X143531526Y-131421329D01*
X143578924Y-131433454D01*
X143618781Y-131425034D01*
X143656974Y-131392702D01*
X143680773Y-131347236D01*
X143682742Y-131341673D01*
X143696240Y-131290130D01*
X143704770Y-131234762D01*
X143709645Y-131179676D01*
X143711988Y-131128392D01*
X143712769Y-131072219D01*
X143712738Y-131060563D01*
X143711644Y-131005231D01*
X143708988Y-130954813D01*
X143703739Y-130900797D01*
X143694772Y-130846721D01*
X143680773Y-130796713D01*
X143664880Y-130763118D01*
X143629314Y-130724724D01*
X143578924Y-130710495D01*
X143538681Y-130718915D01*
X143500213Y-130751246D01*
X143476342Y-130796713D01*
X143474374Y-130802276D01*
X143460875Y-130853857D01*
X143452345Y-130909309D01*
X143447471Y-130964504D01*
X143445127Y-131015904D01*
X143444346Y-131072219D01*
X143241136Y-131072219D01*
X143241219Y-131055922D01*
X143243194Y-130993318D01*
X143247802Y-130934843D01*
X143255043Y-130880497D01*
X143264918Y-130830280D01*
X143280964Y-130773316D01*
X143301125Y-130722804D01*
X143325400Y-130678743D01*
X143341905Y-130655435D01*
X143379423Y-130615696D01*
X143422952Y-130585127D01*
X143472491Y-130563729D01*
X143528041Y-130551502D01*
X143578924Y-130548318D01*
X143599690Y-130548827D01*
G37*
G36*
X143029378Y-131408053D02*
G01*
X142803697Y-131408053D01*
X142803697Y-130774975D01*
X142956838Y-130940572D01*
X143052581Y-130841165D01*
X142802476Y-130563949D01*
X142607570Y-130563949D01*
X142607570Y-131408053D01*
X142381890Y-131408053D01*
X142381890Y-131580000D01*
X143029378Y-131580000D01*
X143029378Y-131408053D01*
G37*
G36*
X142164514Y-131064159D02*
G01*
X141624004Y-131064159D01*
X141624004Y-131267369D01*
X142164514Y-131267369D01*
X142164514Y-131064159D01*
G37*
G36*
X141345079Y-131408053D02*
G01*
X141119399Y-131408053D01*
X141119399Y-130774975D01*
X141272539Y-130940572D01*
X141368282Y-130841165D01*
X141118177Y-130563949D01*
X140923272Y-130563949D01*
X140923272Y-131408053D01*
X140697591Y-131408053D01*
X140697591Y-131580000D01*
X141345079Y-131580000D01*
X141345079Y-131408053D01*
G37*
G36*
X140561792Y-131166985D02*
G01*
X140561792Y-131361158D01*
X140157082Y-131361158D01*
X140157082Y-131580000D01*
X139963642Y-131580000D01*
X139963642Y-131361158D01*
X139851534Y-131361158D01*
X139851534Y-131189211D01*
X139963642Y-131189211D01*
X140157082Y-131189211D01*
X140414758Y-131189211D01*
X140157082Y-130793538D01*
X140157082Y-131189211D01*
X139963642Y-131189211D01*
X139963642Y-130563949D01*
X140174667Y-130563949D01*
X140561792Y-131166985D01*
G37*
G36*
X159136217Y-119470000D02*
G01*
X158934473Y-119470000D01*
X158872923Y-119219895D01*
X158603035Y-119219895D01*
X158540020Y-119470000D01*
X158338276Y-119470000D01*
X158450068Y-119057718D01*
X158641870Y-119057718D01*
X158832623Y-119057718D01*
X158737613Y-118641284D01*
X158641870Y-119057718D01*
X158450068Y-119057718D01*
X158613782Y-118453949D01*
X158860711Y-118453949D01*
X159136217Y-119470000D01*
G37*
G36*
X158316538Y-118704054D02*
G01*
X158149720Y-118704054D01*
X158058862Y-119291458D01*
X157976064Y-118904577D01*
X157814131Y-118904577D01*
X157732798Y-119291458D01*
X157640474Y-118704054D01*
X157473656Y-118704054D01*
X157612386Y-119470000D01*
X157802407Y-119470000D01*
X157895463Y-119073349D01*
X157987787Y-119470000D01*
X158177808Y-119470000D01*
X158316538Y-118704054D01*
G37*
G36*
X157090155Y-118690140D02*
G01*
X157140576Y-118697772D01*
X157192847Y-118713658D01*
X157240404Y-118737271D01*
X157264545Y-118753526D01*
X157303489Y-118787774D01*
X157336638Y-118828436D01*
X157363991Y-118875512D01*
X157369256Y-118886817D01*
X157386917Y-118934651D01*
X157399145Y-118986667D01*
X157405386Y-119035612D01*
X157407466Y-119087759D01*
X157407424Y-119095345D01*
X157404780Y-119146653D01*
X157396720Y-119201454D01*
X157383286Y-119252165D01*
X157364480Y-119298785D01*
X157350081Y-119325660D01*
X157319687Y-119369077D01*
X157283535Y-119406117D01*
X157241625Y-119436782D01*
X157205399Y-119455816D01*
X157154736Y-119473419D01*
X157105842Y-119482578D01*
X157053314Y-119485631D01*
X157013346Y-119483914D01*
X156963368Y-119476281D01*
X156911668Y-119460396D01*
X156864759Y-119436782D01*
X156840829Y-119420510D01*
X156802174Y-119386139D01*
X156769199Y-119345239D01*
X156741905Y-119297808D01*
X156736640Y-119286410D01*
X156718978Y-119238164D01*
X156706751Y-119185675D01*
X156700510Y-119136266D01*
X156698564Y-119087027D01*
X156898708Y-119087027D01*
X156899357Y-119113500D01*
X156905561Y-119167959D01*
X156918334Y-119215347D01*
X156940230Y-119259706D01*
X156959714Y-119284545D01*
X157003466Y-119314489D01*
X157052581Y-119323454D01*
X157082274Y-119320392D01*
X157129976Y-119298457D01*
X157165422Y-119259462D01*
X157177454Y-119238315D01*
X157195400Y-119189581D01*
X157204577Y-119138379D01*
X157207187Y-119087027D01*
X157206535Y-119060557D01*
X157200294Y-119006135D01*
X157187446Y-118958822D01*
X157165422Y-118914591D01*
X157142707Y-118886595D01*
X157101766Y-118859598D01*
X157052581Y-118850600D01*
X157022912Y-118853638D01*
X156975378Y-118875406D01*
X156940230Y-118914103D01*
X156928268Y-118935069D01*
X156910427Y-118983726D01*
X156901304Y-119035186D01*
X156898708Y-119087027D01*
X156698564Y-119087027D01*
X156698429Y-119083607D01*
X156698471Y-119075978D01*
X156701085Y-119024439D01*
X156709054Y-118969546D01*
X156722335Y-118918927D01*
X156740928Y-118872581D01*
X156755032Y-118845877D01*
X156784959Y-118802858D01*
X156820720Y-118766330D01*
X156862316Y-118736294D01*
X156898257Y-118717641D01*
X156948656Y-118700390D01*
X156997413Y-118691414D01*
X157049895Y-118688422D01*
X157090155Y-118690140D01*
G37*
G36*
X156514759Y-118407055D02*
G01*
X156315701Y-118407055D01*
X156315701Y-118820802D01*
X156293161Y-118773885D01*
X156260867Y-118736722D01*
X156242672Y-118722861D01*
X156197249Y-118700563D01*
X156148666Y-118690070D01*
X156117376Y-118688422D01*
X156067321Y-118692987D01*
X156018637Y-118709033D01*
X155978028Y-118736633D01*
X155955443Y-118761451D01*
X155928641Y-118807744D01*
X155912182Y-118857879D01*
X155903465Y-118908684D01*
X155900054Y-118965964D01*
X155899999Y-118974675D01*
X155899999Y-119470000D01*
X156099057Y-119470000D01*
X156099057Y-119004228D01*
X156101799Y-118954399D01*
X156113219Y-118905673D01*
X156122260Y-118887480D01*
X156160900Y-118855786D01*
X156193335Y-118850600D01*
X156242143Y-118861279D01*
X156279574Y-118893318D01*
X156283705Y-118899204D01*
X156304421Y-118944503D01*
X156314170Y-118996979D01*
X156315701Y-119032316D01*
X156315701Y-119470000D01*
X156514759Y-119470000D01*
X156514759Y-118407055D01*
G37*
G36*
X155411041Y-118689734D02*
G01*
X155459840Y-118694208D01*
X155508234Y-118701856D01*
X155552012Y-118711897D01*
X155600442Y-118726745D01*
X155649162Y-118745575D01*
X155649162Y-118917522D01*
X155611892Y-118899250D01*
X155566234Y-118880275D01*
X155516294Y-118863789D01*
X155478343Y-118854580D01*
X155426359Y-118846989D01*
X155377320Y-118844738D01*
X155357081Y-118845298D01*
X155307466Y-118851821D01*
X155295339Y-118854924D01*
X155252512Y-118878688D01*
X155243108Y-118889816D01*
X155231018Y-118938039D01*
X155231018Y-118969790D01*
X155369748Y-118969790D01*
X155404186Y-118970447D01*
X155454470Y-118973893D01*
X155503105Y-118980293D01*
X155522628Y-118983928D01*
X155570373Y-118997397D01*
X155616922Y-119018394D01*
X155626125Y-119023767D01*
X155666604Y-119056554D01*
X155696057Y-119096064D01*
X155710107Y-119126566D01*
X155721687Y-119174508D01*
X155725122Y-119225757D01*
X155725050Y-119233561D01*
X155720527Y-119284986D01*
X155706742Y-119336887D01*
X155683768Y-119381461D01*
X155651604Y-119418709D01*
X155646965Y-119422826D01*
X155606658Y-119451059D01*
X155560671Y-119470926D01*
X155509006Y-119482429D01*
X155459141Y-119485631D01*
X155424275Y-119484043D01*
X155374496Y-119475709D01*
X155327738Y-119460230D01*
X155302208Y-119447666D01*
X155259942Y-119417201D01*
X155226866Y-119380851D01*
X155217585Y-119427257D01*
X155198778Y-119470000D01*
X155000453Y-119470000D01*
X155006114Y-119461461D01*
X155023900Y-119415533D01*
X155026861Y-119401273D01*
X155033426Y-119351297D01*
X155033546Y-119349325D01*
X155035380Y-119299762D01*
X155035368Y-119293988D01*
X155034647Y-119244808D01*
X155034293Y-119226069D01*
X155033914Y-119175198D01*
X155033753Y-119141462D01*
X155033462Y-119123907D01*
X155231018Y-119123907D01*
X155231033Y-119127143D01*
X155235154Y-119178716D01*
X155245673Y-119226734D01*
X155263920Y-119270780D01*
X155295498Y-119311486D01*
X155300004Y-119315538D01*
X155343876Y-119338542D01*
X155393684Y-119344947D01*
X155437902Y-119339244D01*
X155480879Y-119315150D01*
X155504143Y-119278941D01*
X155511898Y-119230397D01*
X155507570Y-119191918D01*
X155481123Y-119148087D01*
X155453579Y-119130909D01*
X155404186Y-119116824D01*
X155360695Y-119112266D01*
X155310886Y-119110474D01*
X155231018Y-119110474D01*
X155231018Y-119123907D01*
X155033462Y-119123907D01*
X155032937Y-119092156D01*
X155032557Y-119074703D01*
X155031960Y-119024012D01*
X155032724Y-118988853D01*
X155037120Y-118936841D01*
X155046737Y-118884568D01*
X155063223Y-118834235D01*
X155089542Y-118787749D01*
X155125846Y-118750382D01*
X155167515Y-118724326D01*
X155207327Y-118708618D01*
X155259997Y-118696311D01*
X155313822Y-118690140D01*
X155366329Y-118688422D01*
X155411041Y-118689734D01*
G37*
G36*
X154409385Y-119470000D02*
G01*
X154459892Y-119467415D01*
X154511741Y-119457866D01*
X154561666Y-119438338D01*
X154601637Y-119409621D01*
X154614061Y-119396482D01*
X154641416Y-119353786D01*
X154658940Y-119306884D01*
X154670481Y-119251077D01*
X154675610Y-119196154D01*
X154676587Y-119155903D01*
X154676587Y-118569232D01*
X154879553Y-118569232D01*
X154879553Y-118407055D01*
X154476308Y-118407055D01*
X154476308Y-119144912D01*
X154473541Y-119194825D01*
X154461671Y-119245091D01*
X154447976Y-119270209D01*
X154407119Y-119299558D01*
X154357324Y-119307786D01*
X154353209Y-119307822D01*
X154193230Y-119307822D01*
X154193230Y-119470000D01*
X154409385Y-119470000D01*
G37*
G36*
X153797557Y-118610265D02*
G01*
X153818073Y-118589748D01*
X153818073Y-118396308D01*
X153797557Y-118375792D01*
X153638311Y-118375792D01*
X153617794Y-118396308D01*
X153617794Y-118589748D01*
X153638311Y-118610265D01*
X153797557Y-118610265D01*
G37*
G36*
X153550627Y-119470000D02*
G01*
X153601217Y-119467441D01*
X153653141Y-119457987D01*
X153703123Y-119438654D01*
X153743122Y-119410222D01*
X153755547Y-119397215D01*
X153782902Y-119354946D01*
X153800427Y-119308518D01*
X153811967Y-119253279D01*
X153817096Y-119198917D01*
X153818073Y-119159078D01*
X153818073Y-118866231D01*
X153980006Y-118866231D01*
X153980006Y-118704054D01*
X153617794Y-118704054D01*
X153617794Y-119146622D01*
X153615027Y-119195995D01*
X153603158Y-119245775D01*
X153589462Y-119270697D01*
X153548484Y-119299665D01*
X153498796Y-119307786D01*
X153494696Y-119307822D01*
X153334717Y-119307822D01*
X153334717Y-119470000D01*
X153550627Y-119470000D01*
G37*
G36*
X152023621Y-119485631D02*
G01*
X152074149Y-119484105D01*
X152103733Y-119481723D01*
X152152372Y-119474739D01*
X152181646Y-119468534D01*
X152230056Y-119455769D01*
X152276367Y-119439759D01*
X152324884Y-119418402D01*
X152329169Y-119416266D01*
X152329169Y-119210614D01*
X152283902Y-119240444D01*
X152239602Y-119265637D01*
X152191511Y-119288191D01*
X152172609Y-119295610D01*
X152125354Y-119310293D01*
X152074585Y-119320164D01*
X152025087Y-119323454D01*
X151973372Y-119318680D01*
X151924933Y-119301042D01*
X151908094Y-119289504D01*
X151877320Y-119249143D01*
X151867102Y-119199659D01*
X151867062Y-119195959D01*
X151875717Y-119147530D01*
X151894417Y-119115847D01*
X151929099Y-119085073D01*
X151973796Y-119062358D01*
X152072958Y-119024989D01*
X152119264Y-119006342D01*
X152163975Y-118985774D01*
X152202163Y-118965150D01*
X152244302Y-118936542D01*
X152279343Y-118903600D01*
X152307808Y-118860424D01*
X152324413Y-118813775D01*
X152332478Y-118759745D01*
X152333321Y-118733363D01*
X152330196Y-118683560D01*
X152318648Y-118630840D01*
X152298593Y-118583917D01*
X152270029Y-118542791D01*
X152244417Y-118516964D01*
X152202138Y-118486320D01*
X152153736Y-118463202D01*
X152099209Y-118447611D01*
X152047598Y-118440238D01*
X152001151Y-118438318D01*
X151950112Y-118440020D01*
X151901440Y-118445129D01*
X151859246Y-118452728D01*
X151808756Y-118466215D01*
X151760664Y-118483285D01*
X151720027Y-118500600D01*
X151720027Y-118693796D01*
X151761150Y-118666917D01*
X151810655Y-118640676D01*
X151860332Y-118620996D01*
X151910180Y-118607875D01*
X151960201Y-118601315D01*
X151985275Y-118600495D01*
X152035662Y-118604582D01*
X152084251Y-118621187D01*
X152096894Y-118629560D01*
X152128295Y-118670183D01*
X152135729Y-118712358D01*
X152123422Y-118761395D01*
X152107152Y-118782212D01*
X152066364Y-118810055D01*
X152020683Y-118830752D01*
X151988694Y-118843272D01*
X151901988Y-118875757D01*
X151850991Y-118897024D01*
X151806352Y-118920863D01*
X151763121Y-118951256D01*
X151724412Y-118989463D01*
X151720760Y-118993970D01*
X151692660Y-119038861D01*
X151673757Y-119090553D01*
X151664674Y-119142210D01*
X151662630Y-119184480D01*
X151665850Y-119238089D01*
X151675510Y-119286443D01*
X151694920Y-119336215D01*
X151723095Y-119378834D01*
X151754221Y-119409672D01*
X151798418Y-119439269D01*
X151850866Y-119461597D01*
X151902389Y-119474949D01*
X151959974Y-119482961D01*
X152012592Y-119485557D01*
X152023621Y-119485631D01*
G37*
G36*
X151195109Y-118690140D02*
G01*
X151245530Y-118697772D01*
X151297802Y-118713658D01*
X151345359Y-118737271D01*
X151369499Y-118753526D01*
X151408444Y-118787774D01*
X151441593Y-118828436D01*
X151468946Y-118875512D01*
X151474210Y-118886817D01*
X151491872Y-118934651D01*
X151504099Y-118986667D01*
X151510341Y-119035612D01*
X151512421Y-119087759D01*
X151512379Y-119095345D01*
X151509734Y-119146653D01*
X151501674Y-119201454D01*
X151488241Y-119252165D01*
X151469434Y-119298785D01*
X151455036Y-119325660D01*
X151424641Y-119369077D01*
X151388489Y-119406117D01*
X151346580Y-119436782D01*
X151310354Y-119455816D01*
X151259691Y-119473419D01*
X151210796Y-119482578D01*
X151158269Y-119485631D01*
X151118301Y-119483914D01*
X151068323Y-119476281D01*
X151016622Y-119460396D01*
X150969713Y-119436782D01*
X150945784Y-119420510D01*
X150907129Y-119386139D01*
X150874154Y-119345239D01*
X150846859Y-119297808D01*
X150841595Y-119286410D01*
X150823933Y-119238164D01*
X150811705Y-119185675D01*
X150805464Y-119136266D01*
X150803519Y-119087027D01*
X151003663Y-119087027D01*
X151004312Y-119113500D01*
X151010516Y-119167959D01*
X151023288Y-119215347D01*
X151045184Y-119259706D01*
X151064669Y-119284545D01*
X151108420Y-119314489D01*
X151157536Y-119323454D01*
X151187229Y-119320392D01*
X151234931Y-119298457D01*
X151270376Y-119259462D01*
X151282408Y-119238315D01*
X151300354Y-119189581D01*
X151309531Y-119138379D01*
X151312142Y-119087027D01*
X151311489Y-119060557D01*
X151305249Y-119006135D01*
X151292401Y-118958822D01*
X151270376Y-118914591D01*
X151247662Y-118886595D01*
X151206720Y-118859598D01*
X151157536Y-118850600D01*
X151127867Y-118853638D01*
X151080332Y-118875406D01*
X151045184Y-118914103D01*
X151033223Y-118935069D01*
X151015381Y-118983726D01*
X151006258Y-119035186D01*
X151003663Y-119087027D01*
X150803519Y-119087027D01*
X150803384Y-119083607D01*
X150803425Y-119075978D01*
X150806040Y-119024439D01*
X150814009Y-118969546D01*
X150827289Y-118918927D01*
X150845882Y-118872581D01*
X150859987Y-118845877D01*
X150889914Y-118802858D01*
X150925675Y-118766330D01*
X150967271Y-118736294D01*
X151003211Y-118717641D01*
X151053611Y-118700390D01*
X151102368Y-118691414D01*
X151154849Y-118688422D01*
X151195109Y-118690140D01*
G37*
G36*
X150198639Y-119470000D02*
G01*
X150249145Y-119467415D01*
X150300994Y-119457866D01*
X150350919Y-119438338D01*
X150390891Y-119409621D01*
X150403314Y-119396482D01*
X150430669Y-119353786D01*
X150448194Y-119306884D01*
X150459734Y-119251077D01*
X150464863Y-119196154D01*
X150465840Y-119155903D01*
X150465840Y-118569232D01*
X150668806Y-118569232D01*
X150668806Y-118407055D01*
X150265561Y-118407055D01*
X150265561Y-119144912D01*
X150262794Y-119194825D01*
X150250925Y-119245091D01*
X150237229Y-119270209D01*
X150196373Y-119299558D01*
X150146578Y-119307786D01*
X150142463Y-119307822D01*
X149982484Y-119307822D01*
X149982484Y-119470000D01*
X150198639Y-119470000D01*
G37*
G36*
X149515996Y-118689734D02*
G01*
X149564794Y-118694208D01*
X149613189Y-118701856D01*
X149656966Y-118711897D01*
X149705397Y-118726745D01*
X149754117Y-118745575D01*
X149754117Y-118917522D01*
X149716846Y-118899250D01*
X149671189Y-118880275D01*
X149621249Y-118863789D01*
X149583298Y-118854580D01*
X149531314Y-118846989D01*
X149482274Y-118844738D01*
X149462036Y-118845298D01*
X149412421Y-118851821D01*
X149400294Y-118854924D01*
X149357466Y-118878688D01*
X149348063Y-118889816D01*
X149335973Y-118938039D01*
X149335973Y-118969790D01*
X149474703Y-118969790D01*
X149509141Y-118970447D01*
X149559425Y-118973893D01*
X149608059Y-118980293D01*
X149627582Y-118983928D01*
X149675327Y-118997397D01*
X149721877Y-119018394D01*
X149731080Y-119023767D01*
X149771559Y-119056554D01*
X149801011Y-119096064D01*
X149815061Y-119126566D01*
X149826642Y-119174508D01*
X149830076Y-119225757D01*
X149830004Y-119233561D01*
X149825481Y-119284986D01*
X149811697Y-119336887D01*
X149788723Y-119381461D01*
X149756559Y-119418709D01*
X149751920Y-119422826D01*
X149711612Y-119451059D01*
X149665626Y-119470926D01*
X149613961Y-119482429D01*
X149564096Y-119485631D01*
X149529230Y-119484043D01*
X149479450Y-119475709D01*
X149432693Y-119460230D01*
X149407163Y-119447666D01*
X149364897Y-119417201D01*
X149331821Y-119380851D01*
X149322540Y-119427257D01*
X149303733Y-119470000D01*
X149105408Y-119470000D01*
X149111069Y-119461461D01*
X149128855Y-119415533D01*
X149131815Y-119401273D01*
X149138380Y-119351297D01*
X149138501Y-119349325D01*
X149140334Y-119299762D01*
X149140323Y-119293988D01*
X149139602Y-119244808D01*
X149139247Y-119226069D01*
X149138869Y-119175198D01*
X149138708Y-119141462D01*
X149138417Y-119123907D01*
X149335973Y-119123907D01*
X149335987Y-119127143D01*
X149340109Y-119178716D01*
X149350627Y-119226734D01*
X149368874Y-119270780D01*
X149400453Y-119311486D01*
X149404958Y-119315538D01*
X149448830Y-119338542D01*
X149498639Y-119344947D01*
X149542857Y-119339244D01*
X149585833Y-119315150D01*
X149609097Y-119278941D01*
X149616852Y-119230397D01*
X149612525Y-119191918D01*
X149586078Y-119148087D01*
X149558534Y-119130909D01*
X149509141Y-119116824D01*
X149465650Y-119112266D01*
X149415840Y-119110474D01*
X149335973Y-119110474D01*
X149335973Y-119123907D01*
X149138417Y-119123907D01*
X149137892Y-119092156D01*
X149137511Y-119074703D01*
X149136915Y-119024012D01*
X149137678Y-118988853D01*
X149142075Y-118936841D01*
X149151692Y-118884568D01*
X149168178Y-118834235D01*
X149194496Y-118787749D01*
X149230801Y-118750382D01*
X149272470Y-118724326D01*
X149312281Y-118708618D01*
X149364952Y-118696311D01*
X149418777Y-118690140D01*
X149471283Y-118688422D01*
X149515996Y-118689734D01*
G37*
G36*
X148888032Y-118704054D02*
G01*
X148707780Y-118704054D01*
X148687752Y-118819581D01*
X148661409Y-118776934D01*
X148626341Y-118742049D01*
X148598115Y-118723105D01*
X148549767Y-118701970D01*
X148500318Y-118691166D01*
X148456210Y-118688422D01*
X148404762Y-118691952D01*
X148355746Y-118702543D01*
X148309164Y-118720193D01*
X148300139Y-118724570D01*
X148300139Y-118917278D01*
X148340735Y-118885046D01*
X148387783Y-118863362D01*
X148441284Y-118852228D01*
X148473796Y-118850600D01*
X148524920Y-118854511D01*
X148573718Y-118867850D01*
X148614724Y-118890655D01*
X148649437Y-118925494D01*
X148672609Y-118970294D01*
X148681646Y-119005694D01*
X148686043Y-119048681D01*
X148687671Y-119097631D01*
X148687752Y-119114382D01*
X148687752Y-119470000D01*
X148888032Y-119470000D01*
X148888032Y-118704054D01*
G37*
G36*
X147255024Y-119470000D02*
G01*
X147053524Y-119470000D01*
X147053524Y-119085073D01*
X146978297Y-119085073D01*
X146939847Y-119084420D01*
X146880325Y-119080432D01*
X146826503Y-119072819D01*
X146769442Y-119058897D01*
X146720590Y-119039754D01*
X146673970Y-119010823D01*
X146668305Y-119006077D01*
X146633685Y-118967806D01*
X146607878Y-118920699D01*
X146592771Y-118873289D01*
X146584139Y-118819388D01*
X146581891Y-118769511D01*
X146791695Y-118769511D01*
X146792661Y-118794768D01*
X146802862Y-118845360D01*
X146831263Y-118888702D01*
X146869422Y-118909538D01*
X146919306Y-118920191D01*
X146970725Y-118922896D01*
X147053524Y-118922896D01*
X147053524Y-118616127D01*
X146970725Y-118616127D01*
X146929908Y-118617774D01*
X146877431Y-118627023D01*
X146831263Y-118650565D01*
X146813952Y-118670822D01*
X146796371Y-118717218D01*
X146791695Y-118769511D01*
X146581891Y-118769511D01*
X146581980Y-118759131D01*
X146585128Y-118709977D01*
X146594839Y-118657037D01*
X146611025Y-118610692D01*
X146638091Y-118564958D01*
X146673970Y-118528199D01*
X146713246Y-118502966D01*
X146760730Y-118482953D01*
X146816423Y-118468161D01*
X146869104Y-118459823D01*
X146927487Y-118455109D01*
X146978297Y-118453949D01*
X147255024Y-118453949D01*
X147255024Y-119470000D01*
G37*
G36*
X146142213Y-118690140D02*
G01*
X146192634Y-118697772D01*
X146244906Y-118713658D01*
X146292463Y-118737271D01*
X146316603Y-118753526D01*
X146355548Y-118787774D01*
X146388697Y-118828436D01*
X146416050Y-118875512D01*
X146421314Y-118886817D01*
X146438976Y-118934651D01*
X146451203Y-118986667D01*
X146457445Y-119035612D01*
X146459525Y-119087759D01*
X146459483Y-119095345D01*
X146456838Y-119146653D01*
X146448778Y-119201454D01*
X146435345Y-119252165D01*
X146416538Y-119298785D01*
X146402140Y-119325660D01*
X146371745Y-119369077D01*
X146335593Y-119406117D01*
X146293684Y-119436782D01*
X146257458Y-119455816D01*
X146206795Y-119473419D01*
X146157900Y-119482578D01*
X146105373Y-119485631D01*
X146065405Y-119483914D01*
X146015427Y-119476281D01*
X145963726Y-119460396D01*
X145916817Y-119436782D01*
X145892888Y-119420510D01*
X145854233Y-119386139D01*
X145821258Y-119345239D01*
X145793963Y-119297808D01*
X145788699Y-119286410D01*
X145771037Y-119238164D01*
X145758809Y-119185675D01*
X145752568Y-119136266D01*
X145750623Y-119087027D01*
X145950767Y-119087027D01*
X145951416Y-119113500D01*
X145957620Y-119167959D01*
X145970392Y-119215347D01*
X145992288Y-119259706D01*
X146011773Y-119284545D01*
X146055524Y-119314489D01*
X146104640Y-119323454D01*
X146134333Y-119320392D01*
X146182034Y-119298457D01*
X146217480Y-119259462D01*
X146229512Y-119238315D01*
X146247458Y-119189581D01*
X146256635Y-119138379D01*
X146259246Y-119087027D01*
X146258593Y-119060557D01*
X146252353Y-119006135D01*
X146239505Y-118958822D01*
X146217480Y-118914591D01*
X146194766Y-118886595D01*
X146153824Y-118859598D01*
X146104640Y-118850600D01*
X146074971Y-118853638D01*
X146027436Y-118875406D01*
X145992288Y-118914103D01*
X145980327Y-118935069D01*
X145962485Y-118983726D01*
X145953362Y-119035186D01*
X145950767Y-119087027D01*
X145750623Y-119087027D01*
X145750488Y-119083607D01*
X145750529Y-119075978D01*
X145753144Y-119024439D01*
X145761112Y-118969546D01*
X145774393Y-118918927D01*
X145792986Y-118872581D01*
X145807091Y-118845877D01*
X145837018Y-118802858D01*
X145872779Y-118766330D01*
X145914375Y-118736294D01*
X145950315Y-118717641D01*
X146000715Y-118700390D01*
X146049472Y-118691414D01*
X146101953Y-118688422D01*
X146142213Y-118690140D01*
G37*
G36*
X145684298Y-118704054D02*
G01*
X145517480Y-118704054D01*
X145426622Y-119291458D01*
X145343824Y-118904577D01*
X145181891Y-118904577D01*
X145100558Y-119291458D01*
X145008234Y-118704054D01*
X144841416Y-118704054D01*
X144980146Y-119470000D01*
X145170167Y-119470000D01*
X145263223Y-119073349D01*
X145355547Y-119470000D01*
X145545568Y-119470000D01*
X145684298Y-118704054D01*
G37*
G36*
X144421152Y-118688619D02*
G01*
X144473522Y-118692402D01*
X144521824Y-118701001D01*
X144572047Y-118716724D01*
X144616957Y-118738736D01*
X144647087Y-118758938D01*
X144686777Y-118794586D01*
X144719859Y-118836647D01*
X144743719Y-118879420D01*
X144748836Y-118890838D01*
X144766001Y-118938931D01*
X144777885Y-118990901D01*
X144783951Y-119039556D01*
X144785973Y-119091179D01*
X144784366Y-119137699D01*
X144777839Y-119191879D01*
X144766291Y-119241646D01*
X144745806Y-119295541D01*
X144718092Y-119343083D01*
X144683147Y-119384270D01*
X144648700Y-119413471D01*
X144601256Y-119441979D01*
X144547148Y-119463359D01*
X144496969Y-119475733D01*
X144442162Y-119483156D01*
X144382728Y-119485631D01*
X144364319Y-119485404D01*
X144309470Y-119481998D01*
X144255188Y-119474505D01*
X144201473Y-119462924D01*
X144148324Y-119447256D01*
X144095743Y-119427501D01*
X144095743Y-119247250D01*
X144113227Y-119256478D01*
X144165566Y-119280589D01*
X144217732Y-119299342D01*
X144269727Y-119312738D01*
X144321551Y-119320775D01*
X144373203Y-119323454D01*
X144410566Y-119321994D01*
X144464671Y-119313073D01*
X144516123Y-119291664D01*
X144552874Y-119258577D01*
X144574924Y-119213812D01*
X144582274Y-119157369D01*
X144063503Y-119157369D01*
X144063503Y-119075547D01*
X144063544Y-119068355D01*
X144066128Y-119019570D01*
X144068911Y-119001053D01*
X144265247Y-119001053D01*
X144580320Y-119001053D01*
X144577125Y-118979272D01*
X144561061Y-118930230D01*
X144531228Y-118889678D01*
X144514441Y-118876398D01*
X144466522Y-118856095D01*
X144415701Y-118850600D01*
X144398092Y-118851195D01*
X144348139Y-118861353D01*
X144304326Y-118888702D01*
X144291045Y-118904261D01*
X144270743Y-118950449D01*
X144265247Y-119001053D01*
X144068911Y-119001053D01*
X144074005Y-118967165D01*
X144087133Y-118918331D01*
X144105512Y-118873070D01*
X144119487Y-118846828D01*
X144148909Y-118804281D01*
X144183818Y-118767762D01*
X144224214Y-118737271D01*
X144253878Y-118720670D01*
X144302110Y-118702209D01*
X144354823Y-118691475D01*
X144405443Y-118688422D01*
X144421152Y-118688619D01*
G37*
G36*
X143835136Y-118704054D02*
G01*
X143654884Y-118704054D01*
X143634856Y-118819581D01*
X143608512Y-118776934D01*
X143573445Y-118742049D01*
X143545219Y-118723105D01*
X143496871Y-118701970D01*
X143447422Y-118691166D01*
X143403314Y-118688422D01*
X143351866Y-118691952D01*
X143302850Y-118702543D01*
X143256268Y-118720193D01*
X143247243Y-118724570D01*
X143247243Y-118917278D01*
X143287839Y-118885046D01*
X143334887Y-118863362D01*
X143388388Y-118852228D01*
X143420900Y-118850600D01*
X143472024Y-118854511D01*
X143520822Y-118867850D01*
X143561828Y-118890655D01*
X143596541Y-118925494D01*
X143619713Y-118970294D01*
X143628750Y-119005694D01*
X143633147Y-119048681D01*
X143634775Y-119097631D01*
X143634856Y-119114382D01*
X143634856Y-119470000D01*
X143835136Y-119470000D01*
X143835136Y-118704054D01*
G37*
G36*
X141917829Y-119485631D02*
G01*
X141968357Y-119484105D01*
X141997941Y-119481723D01*
X142046579Y-119474739D01*
X142075854Y-119468534D01*
X142124264Y-119455769D01*
X142170575Y-119439759D01*
X142219092Y-119418402D01*
X142223377Y-119416266D01*
X142223377Y-119210614D01*
X142178110Y-119240444D01*
X142133809Y-119265637D01*
X142085719Y-119288191D01*
X142066817Y-119295610D01*
X142019562Y-119310293D01*
X141968793Y-119320164D01*
X141919295Y-119323454D01*
X141867580Y-119318680D01*
X141819141Y-119301042D01*
X141802302Y-119289504D01*
X141771528Y-119249143D01*
X141761310Y-119199659D01*
X141761269Y-119195959D01*
X141769925Y-119147530D01*
X141788625Y-119115847D01*
X141823307Y-119085073D01*
X141868004Y-119062358D01*
X141967166Y-119024989D01*
X142013472Y-119006342D01*
X142058183Y-118985774D01*
X142096371Y-118965150D01*
X142138510Y-118936542D01*
X142173551Y-118903600D01*
X142202016Y-118860424D01*
X142218621Y-118813775D01*
X142226686Y-118759745D01*
X142227529Y-118733363D01*
X142224404Y-118683560D01*
X142212856Y-118630840D01*
X142192801Y-118583917D01*
X142164237Y-118542791D01*
X142138625Y-118516964D01*
X142096346Y-118486320D01*
X142047944Y-118463202D01*
X141993417Y-118447611D01*
X141941806Y-118440238D01*
X141895359Y-118438318D01*
X141844320Y-118440020D01*
X141795648Y-118445129D01*
X141753454Y-118452728D01*
X141702964Y-118466215D01*
X141654872Y-118483285D01*
X141614235Y-118500600D01*
X141614235Y-118693796D01*
X141655358Y-118666917D01*
X141704863Y-118640676D01*
X141754540Y-118620996D01*
X141804388Y-118607875D01*
X141854409Y-118601315D01*
X141879483Y-118600495D01*
X141929870Y-118604582D01*
X141978459Y-118621187D01*
X141991102Y-118629560D01*
X142022503Y-118670183D01*
X142029937Y-118712358D01*
X142017630Y-118761395D01*
X142001360Y-118782212D01*
X141960572Y-118810055D01*
X141914891Y-118830752D01*
X141882902Y-118843272D01*
X141796196Y-118875757D01*
X141745199Y-118897024D01*
X141700560Y-118920863D01*
X141657329Y-118951256D01*
X141618620Y-118989463D01*
X141614968Y-118993970D01*
X141586868Y-119038861D01*
X141567965Y-119090553D01*
X141558882Y-119142210D01*
X141556838Y-119184480D01*
X141560058Y-119238089D01*
X141569718Y-119286443D01*
X141589128Y-119336215D01*
X141617303Y-119378834D01*
X141648429Y-119409672D01*
X141692626Y-119439269D01*
X141745074Y-119461597D01*
X141796597Y-119474949D01*
X141854182Y-119482961D01*
X141906800Y-119485557D01*
X141917829Y-119485631D01*
G37*
G36*
X141145533Y-119485631D02*
G01*
X141195634Y-119481067D01*
X141244479Y-119465020D01*
X141285364Y-119437421D01*
X141308199Y-119412602D01*
X141335236Y-119366151D01*
X141351841Y-119316070D01*
X141360635Y-119265461D01*
X141364076Y-119208519D01*
X141364131Y-119199867D01*
X141364131Y-118704054D01*
X141163851Y-118704054D01*
X141163851Y-119170069D01*
X141160537Y-119222196D01*
X141145806Y-119274922D01*
X141110820Y-119313867D01*
X141069574Y-119323454D01*
X141021399Y-119312989D01*
X140982435Y-119278757D01*
X140980425Y-119275826D01*
X140959709Y-119230683D01*
X140949960Y-119177921D01*
X140948429Y-119142226D01*
X140948429Y-118704054D01*
X140748150Y-118704054D01*
X140748150Y-119470000D01*
X140928646Y-119470000D01*
X140948429Y-119354961D01*
X140969349Y-119399368D01*
X141003111Y-119439565D01*
X141046947Y-119467256D01*
X141100858Y-119482441D01*
X141145533Y-119485631D01*
G37*
G36*
X140167514Y-118691642D02*
G01*
X140219937Y-118706970D01*
X140265020Y-118734919D01*
X140302764Y-118775491D01*
X140329274Y-118820314D01*
X140349057Y-118704054D01*
X140528820Y-118704054D01*
X140528820Y-119751367D01*
X140329274Y-119751367D01*
X140329274Y-119362288D01*
X140310681Y-119391197D01*
X140273294Y-119432512D01*
X140229737Y-119462022D01*
X140180009Y-119479729D01*
X140124110Y-119485631D01*
X140093030Y-119483986D01*
X140042754Y-119473192D01*
X139997714Y-119452323D01*
X139957910Y-119421380D01*
X139923342Y-119380362D01*
X139902233Y-119345398D01*
X139881625Y-119298183D01*
X139866169Y-119245232D01*
X139857225Y-119196724D01*
X139851858Y-119144233D01*
X139850069Y-119087759D01*
X139850192Y-119082875D01*
X140050348Y-119082875D01*
X140051279Y-119116200D01*
X140056637Y-119164957D01*
X140068357Y-119213094D01*
X140088450Y-119258241D01*
X140100889Y-119277028D01*
X140138923Y-119310972D01*
X140189078Y-119323454D01*
X140212008Y-119321187D01*
X140258630Y-119298266D01*
X140290928Y-119258974D01*
X140301975Y-119237710D01*
X140318451Y-119188957D01*
X140326877Y-119137982D01*
X140329274Y-119087027D01*
X140328935Y-119067298D01*
X140323847Y-119012620D01*
X140311034Y-118959798D01*
X140290683Y-118915324D01*
X140275285Y-118893328D01*
X140235558Y-118861282D01*
X140187124Y-118850600D01*
X140164181Y-118852789D01*
X140118126Y-118874929D01*
X140086985Y-118912882D01*
X140076430Y-118933389D01*
X140060688Y-118981131D01*
X140052638Y-119031767D01*
X140050348Y-119082875D01*
X139850192Y-119082875D01*
X139851214Y-119042254D01*
X139855865Y-118988936D01*
X139864094Y-118939577D01*
X139878691Y-118885572D01*
X139898441Y-118837269D01*
X139923342Y-118794668D01*
X139942477Y-118769767D01*
X139980187Y-118734179D01*
X140023274Y-118708758D01*
X140071736Y-118693506D01*
X140125575Y-118688422D01*
X140167514Y-118691642D01*
G37*
G36*
X139325365Y-118691642D02*
G01*
X139377788Y-118706970D01*
X139422871Y-118734919D01*
X139460614Y-118775491D01*
X139487124Y-118820314D01*
X139506908Y-118704054D01*
X139686671Y-118704054D01*
X139686671Y-119751367D01*
X139487124Y-119751367D01*
X139487124Y-119362288D01*
X139468531Y-119391197D01*
X139431145Y-119432512D01*
X139387588Y-119462022D01*
X139337860Y-119479729D01*
X139281960Y-119485631D01*
X139250880Y-119483986D01*
X139200605Y-119473192D01*
X139155565Y-119452323D01*
X139115761Y-119421380D01*
X139081193Y-119380362D01*
X139060084Y-119345398D01*
X139039476Y-119298183D01*
X139024020Y-119245232D01*
X139015075Y-119196724D01*
X139009709Y-119144233D01*
X139007920Y-119087759D01*
X139008043Y-119082875D01*
X139208199Y-119082875D01*
X139209129Y-119116200D01*
X139214487Y-119164957D01*
X139226208Y-119213094D01*
X139246301Y-119258241D01*
X139258740Y-119277028D01*
X139296773Y-119310972D01*
X139346929Y-119323454D01*
X139369858Y-119321187D01*
X139416481Y-119298266D01*
X139448778Y-119258974D01*
X139459825Y-119237710D01*
X139476302Y-119188957D01*
X139484728Y-119137982D01*
X139487124Y-119087027D01*
X139486785Y-119067298D01*
X139481698Y-119012620D01*
X139468884Y-118959798D01*
X139448534Y-118915324D01*
X139433135Y-118893328D01*
X139393409Y-118861282D01*
X139344975Y-118850600D01*
X139322031Y-118852789D01*
X139275976Y-118874929D01*
X139244835Y-118912882D01*
X139234281Y-118933389D01*
X139218539Y-118981131D01*
X139210489Y-119031767D01*
X139208199Y-119082875D01*
X139008043Y-119082875D01*
X139009065Y-119042254D01*
X139013716Y-118988936D01*
X139021945Y-118939577D01*
X139036542Y-118885572D01*
X139056291Y-118837269D01*
X139081193Y-118794668D01*
X139100328Y-118769767D01*
X139138038Y-118734179D01*
X139181124Y-118708758D01*
X139229587Y-118693506D01*
X139283426Y-118688422D01*
X139325365Y-118691642D01*
G37*
G36*
X138408548Y-119470000D02*
G01*
X138459055Y-119467415D01*
X138510903Y-119457866D01*
X138560828Y-119438338D01*
X138600800Y-119409621D01*
X138613223Y-119396482D01*
X138640579Y-119353786D01*
X138658103Y-119306884D01*
X138669644Y-119251077D01*
X138674773Y-119196154D01*
X138675750Y-119155903D01*
X138675750Y-118569232D01*
X138878715Y-118569232D01*
X138878715Y-118407055D01*
X138475470Y-118407055D01*
X138475470Y-119144912D01*
X138472704Y-119194825D01*
X138460834Y-119245091D01*
X138447138Y-119270209D01*
X138406282Y-119299558D01*
X138356487Y-119307786D01*
X138352372Y-119307822D01*
X138192393Y-119307822D01*
X138192393Y-119470000D01*
X138408548Y-119470000D01*
G37*
G36*
X138011409Y-119595052D02*
G01*
X137989427Y-119595052D01*
X137968911Y-119595052D01*
X137918885Y-119593893D01*
X137888311Y-119591388D01*
X137841759Y-119575721D01*
X137837997Y-119573070D01*
X137806795Y-119534762D01*
X137802826Y-119527152D01*
X137782541Y-119480955D01*
X137766678Y-119439225D01*
X138057815Y-118704054D01*
X137847278Y-118704054D01*
X137672156Y-119196448D01*
X137504849Y-118704054D01*
X137294312Y-118704054D01*
X137612072Y-119545959D01*
X137631800Y-119592335D01*
X137655082Y-119635718D01*
X137662386Y-119647564D01*
X137693541Y-119687449D01*
X137731137Y-119719177D01*
X137736636Y-119722791D01*
X137782642Y-119743302D01*
X137833813Y-119751116D01*
X137845812Y-119751367D01*
X138011409Y-119751367D01*
X138011409Y-119595052D01*
G37*
G36*
X136307082Y-119470000D02*
G01*
X136105582Y-119470000D01*
X136105582Y-119085073D01*
X136030355Y-119085073D01*
X135991906Y-119084420D01*
X135932383Y-119080432D01*
X135878562Y-119072819D01*
X135821501Y-119058897D01*
X135772648Y-119039754D01*
X135726029Y-119010823D01*
X135720364Y-119006077D01*
X135685744Y-118967806D01*
X135659936Y-118920699D01*
X135644830Y-118873289D01*
X135636197Y-118819388D01*
X135633949Y-118769511D01*
X135843754Y-118769511D01*
X135844720Y-118794768D01*
X135854921Y-118845360D01*
X135883321Y-118888702D01*
X135921480Y-118909538D01*
X135971365Y-118920191D01*
X136022784Y-118922896D01*
X136105582Y-118922896D01*
X136105582Y-118616127D01*
X136022784Y-118616127D01*
X135981966Y-118617774D01*
X135929490Y-118627023D01*
X135883321Y-118650565D01*
X135866010Y-118670822D01*
X135848429Y-118717218D01*
X135843754Y-118769511D01*
X135633949Y-118769511D01*
X135634039Y-118759131D01*
X135637186Y-118709977D01*
X135646898Y-118657037D01*
X135663084Y-118610692D01*
X135690150Y-118564958D01*
X135726029Y-118528199D01*
X135765304Y-118502966D01*
X135812788Y-118482953D01*
X135868481Y-118468161D01*
X135921163Y-118459823D01*
X135979545Y-118455109D01*
X136030355Y-118453949D01*
X136307082Y-118453949D01*
X136307082Y-119470000D01*
G37*
G36*
X135413642Y-118704054D02*
G01*
X135233391Y-118704054D01*
X135213363Y-118819581D01*
X135187019Y-118776934D01*
X135151951Y-118742049D01*
X135123726Y-118723105D01*
X135075377Y-118701970D01*
X135025928Y-118691166D01*
X134981821Y-118688422D01*
X134930372Y-118691952D01*
X134881357Y-118702543D01*
X134834774Y-118720193D01*
X134825750Y-118724570D01*
X134825750Y-118917278D01*
X134866345Y-118885046D01*
X134913394Y-118863362D01*
X134966895Y-118852228D01*
X134999406Y-118850600D01*
X135050530Y-118854511D01*
X135099329Y-118867850D01*
X135140334Y-118890655D01*
X135175047Y-118925494D01*
X135198220Y-118970294D01*
X135207257Y-119005694D01*
X135211653Y-119048681D01*
X135213281Y-119097631D01*
X135213363Y-119114382D01*
X135213363Y-119470000D01*
X135413642Y-119470000D01*
X135413642Y-118704054D01*
G37*
G36*
X134352123Y-118690140D02*
G01*
X134402544Y-118697772D01*
X134454815Y-118713658D01*
X134502372Y-118737271D01*
X134526513Y-118753526D01*
X134565457Y-118787774D01*
X134598606Y-118828436D01*
X134625959Y-118875512D01*
X134631224Y-118886817D01*
X134648885Y-118934651D01*
X134661113Y-118986667D01*
X134667354Y-119035612D01*
X134669434Y-119087759D01*
X134669392Y-119095345D01*
X134666748Y-119146653D01*
X134658688Y-119201454D01*
X134645254Y-119252165D01*
X134626447Y-119298785D01*
X134612049Y-119325660D01*
X134581655Y-119369077D01*
X134545503Y-119406117D01*
X134503593Y-119436782D01*
X134467367Y-119455816D01*
X134416704Y-119473419D01*
X134367810Y-119482578D01*
X134315282Y-119485631D01*
X134275314Y-119483914D01*
X134225336Y-119476281D01*
X134173636Y-119460396D01*
X134126727Y-119436782D01*
X134102797Y-119420510D01*
X134064142Y-119386139D01*
X134031167Y-119345239D01*
X134003872Y-119297808D01*
X133998608Y-119286410D01*
X133980946Y-119238164D01*
X133968719Y-119185675D01*
X133962478Y-119136266D01*
X133960532Y-119087027D01*
X134160676Y-119087027D01*
X134161325Y-119113500D01*
X134167529Y-119167959D01*
X134180302Y-119215347D01*
X134202198Y-119259706D01*
X134221682Y-119284545D01*
X134265434Y-119314489D01*
X134314549Y-119323454D01*
X134344242Y-119320392D01*
X134391944Y-119298457D01*
X134427390Y-119259462D01*
X134439422Y-119238315D01*
X134457368Y-119189581D01*
X134466545Y-119138379D01*
X134469155Y-119087027D01*
X134468502Y-119060557D01*
X134462262Y-119006135D01*
X134449414Y-118958822D01*
X134427390Y-118914591D01*
X134404675Y-118886595D01*
X134363734Y-118859598D01*
X134314549Y-118850600D01*
X134284880Y-118853638D01*
X134237346Y-118875406D01*
X134202198Y-118914103D01*
X134190236Y-118935069D01*
X134172395Y-118983726D01*
X134163271Y-119035186D01*
X134160676Y-119087027D01*
X133960532Y-119087027D01*
X133960397Y-119083607D01*
X133960439Y-119075978D01*
X133963053Y-119024439D01*
X133971022Y-118969546D01*
X133984302Y-118918927D01*
X134002895Y-118872581D01*
X134017000Y-118845877D01*
X134046927Y-118802858D01*
X134082688Y-118766330D01*
X134124284Y-118736294D01*
X134160225Y-118717641D01*
X134210624Y-118700390D01*
X134259381Y-118691414D01*
X134311863Y-118688422D01*
X134352123Y-118690140D01*
G37*
G36*
X133328785Y-119470000D02*
G01*
X133382152Y-119468580D01*
X133434892Y-119463589D01*
X133484427Y-119453829D01*
X133505617Y-119447285D01*
X133551443Y-119423229D01*
X133586999Y-119385242D01*
X133596231Y-119368639D01*
X133612454Y-119321000D01*
X133620254Y-119272328D01*
X133622828Y-119221548D01*
X133622854Y-119215498D01*
X133622854Y-118866231D01*
X133818248Y-118866231D01*
X133818248Y-118704054D01*
X133622854Y-118704054D01*
X133622854Y-118495715D01*
X133422574Y-118407055D01*
X133422574Y-118704054D01*
X133160746Y-118704054D01*
X133160746Y-118866231D01*
X133422574Y-118866231D01*
X133422574Y-119215987D01*
X133413533Y-119264233D01*
X133396929Y-119286329D01*
X133349911Y-119305283D01*
X133314619Y-119307822D01*
X133160746Y-119307822D01*
X133160746Y-119470000D01*
X133328785Y-119470000D01*
G37*
G36*
X132667824Y-118690140D02*
G01*
X132718245Y-118697772D01*
X132770516Y-118713658D01*
X132818073Y-118737271D01*
X132842214Y-118753526D01*
X132881159Y-118787774D01*
X132914307Y-118828436D01*
X132941660Y-118875512D01*
X132946925Y-118886817D01*
X132964587Y-118934651D01*
X132976814Y-118986667D01*
X132983055Y-119035612D01*
X132985136Y-119087759D01*
X132985094Y-119095345D01*
X132982449Y-119146653D01*
X132974389Y-119201454D01*
X132960955Y-119252165D01*
X132942149Y-119298785D01*
X132927751Y-119325660D01*
X132897356Y-119369077D01*
X132861204Y-119406117D01*
X132819295Y-119436782D01*
X132783069Y-119455816D01*
X132732405Y-119473419D01*
X132683511Y-119482578D01*
X132630983Y-119485631D01*
X132591015Y-119483914D01*
X132541037Y-119476281D01*
X132489337Y-119460396D01*
X132442428Y-119436782D01*
X132418499Y-119420510D01*
X132379844Y-119386139D01*
X132346869Y-119345239D01*
X132319574Y-119297808D01*
X132314309Y-119286410D01*
X132296647Y-119238164D01*
X132284420Y-119185675D01*
X132278179Y-119136266D01*
X132276234Y-119087027D01*
X132476378Y-119087027D01*
X132477026Y-119113500D01*
X132483230Y-119167959D01*
X132496003Y-119215347D01*
X132517899Y-119259706D01*
X132537384Y-119284545D01*
X132581135Y-119314489D01*
X132630251Y-119323454D01*
X132659943Y-119320392D01*
X132707645Y-119298457D01*
X132743091Y-119259462D01*
X132755123Y-119238315D01*
X132773069Y-119189581D01*
X132782246Y-119138379D01*
X132784856Y-119087027D01*
X132784204Y-119060557D01*
X132777963Y-119006135D01*
X132765116Y-118958822D01*
X132743091Y-118914591D01*
X132720376Y-118886595D01*
X132679435Y-118859598D01*
X132630251Y-118850600D01*
X132600581Y-118853638D01*
X132553047Y-118875406D01*
X132517899Y-118914103D01*
X132505937Y-118935069D01*
X132488096Y-118983726D01*
X132478973Y-119035186D01*
X132476378Y-119087027D01*
X132276234Y-119087027D01*
X132276099Y-119083607D01*
X132276140Y-119075978D01*
X132278755Y-119024439D01*
X132286723Y-118969546D01*
X132300004Y-118918927D01*
X132318597Y-118872581D01*
X132332702Y-118845877D01*
X132362628Y-118802858D01*
X132398390Y-118766330D01*
X132439985Y-118736294D01*
X132475926Y-118717641D01*
X132526325Y-118700390D01*
X132575082Y-118691414D01*
X132627564Y-118688422D01*
X132667824Y-118690140D01*
G37*
G36*
X131644487Y-119470000D02*
G01*
X131697854Y-119468580D01*
X131750593Y-119463589D01*
X131800128Y-119453829D01*
X131821318Y-119447285D01*
X131867144Y-119423229D01*
X131902701Y-119385242D01*
X131911932Y-119368639D01*
X131928156Y-119321000D01*
X131935955Y-119272328D01*
X131938529Y-119221548D01*
X131938555Y-119215498D01*
X131938555Y-118866231D01*
X132133949Y-118866231D01*
X132133949Y-118704054D01*
X131938555Y-118704054D01*
X131938555Y-118495715D01*
X131738276Y-118407055D01*
X131738276Y-118704054D01*
X131476447Y-118704054D01*
X131476447Y-118866231D01*
X131738276Y-118866231D01*
X131738276Y-119215987D01*
X131729235Y-119264233D01*
X131712630Y-119286329D01*
X131665612Y-119305283D01*
X131630320Y-119307822D01*
X131476447Y-119307822D01*
X131476447Y-119470000D01*
X131644487Y-119470000D01*
G37*
G36*
X131274214Y-119595052D02*
G01*
X131252233Y-119595052D01*
X131231716Y-119595052D01*
X131181690Y-119593893D01*
X131151116Y-119591388D01*
X131104564Y-119575721D01*
X131100802Y-119573070D01*
X131069600Y-119534762D01*
X131065631Y-119527152D01*
X131045346Y-119480955D01*
X131029483Y-119439225D01*
X131320621Y-118704054D01*
X131110083Y-118704054D01*
X130934961Y-119196448D01*
X130767655Y-118704054D01*
X130557117Y-118704054D01*
X130874877Y-119545959D01*
X130894606Y-119592335D01*
X130917887Y-119635718D01*
X130925191Y-119647564D01*
X130956347Y-119687449D01*
X130993942Y-119719177D01*
X130999441Y-119722791D01*
X131045448Y-119743302D01*
X131096619Y-119751116D01*
X131108618Y-119751367D01*
X131274214Y-119751367D01*
X131274214Y-119595052D01*
G37*
G36*
X130061722Y-118691642D02*
G01*
X130114145Y-118706970D01*
X130159228Y-118734919D01*
X130196972Y-118775491D01*
X130223482Y-118820314D01*
X130243265Y-118704054D01*
X130423028Y-118704054D01*
X130423028Y-119751367D01*
X130223482Y-119751367D01*
X130223482Y-119362288D01*
X130204889Y-119391197D01*
X130167502Y-119432512D01*
X130123945Y-119462022D01*
X130074217Y-119479729D01*
X130018318Y-119485631D01*
X129987238Y-119483986D01*
X129936962Y-119473192D01*
X129891922Y-119452323D01*
X129852118Y-119421380D01*
X129817550Y-119380362D01*
X129796441Y-119345398D01*
X129775833Y-119298183D01*
X129760377Y-119245232D01*
X129751433Y-119196724D01*
X129746066Y-119144233D01*
X129744277Y-119087759D01*
X129744400Y-119082875D01*
X129944556Y-119082875D01*
X129945487Y-119116200D01*
X129950845Y-119164957D01*
X129962565Y-119213094D01*
X129982658Y-119258241D01*
X129995097Y-119277028D01*
X130033131Y-119310972D01*
X130083286Y-119323454D01*
X130106215Y-119321187D01*
X130152838Y-119298266D01*
X130185136Y-119258974D01*
X130196182Y-119237710D01*
X130212659Y-119188957D01*
X130221085Y-119137982D01*
X130223482Y-119087027D01*
X130223142Y-119067298D01*
X130218055Y-119012620D01*
X130205242Y-118959798D01*
X130184891Y-118915324D01*
X130169493Y-118893328D01*
X130129766Y-118861282D01*
X130081332Y-118850600D01*
X130058389Y-118852789D01*
X130012334Y-118874929D01*
X129981193Y-118912882D01*
X129970638Y-118933389D01*
X129954896Y-118981131D01*
X129946846Y-119031767D01*
X129944556Y-119082875D01*
X129744400Y-119082875D01*
X129745422Y-119042254D01*
X129750073Y-118988936D01*
X129758302Y-118939577D01*
X129772899Y-118885572D01*
X129792649Y-118837269D01*
X129817550Y-118794668D01*
X129836685Y-118769767D01*
X129874395Y-118734179D01*
X129917482Y-118708758D01*
X129965944Y-118693506D01*
X130019783Y-118688422D01*
X130061722Y-118691642D01*
G37*
G36*
X129262464Y-118688619D02*
G01*
X129314834Y-118692402D01*
X129363136Y-118701001D01*
X129413359Y-118716724D01*
X129458269Y-118738736D01*
X129488399Y-118758938D01*
X129528089Y-118794586D01*
X129561171Y-118836647D01*
X129585031Y-118879420D01*
X129590148Y-118890838D01*
X129607313Y-118938931D01*
X129619197Y-118990901D01*
X129625263Y-119039556D01*
X129627285Y-119091179D01*
X129625678Y-119137699D01*
X129619151Y-119191879D01*
X129607603Y-119241646D01*
X129587118Y-119295541D01*
X129559403Y-119343083D01*
X129524459Y-119384270D01*
X129490012Y-119413471D01*
X129442568Y-119441979D01*
X129388460Y-119463359D01*
X129338281Y-119475733D01*
X129283474Y-119483156D01*
X129224040Y-119485631D01*
X129205631Y-119485404D01*
X129150782Y-119481998D01*
X129096500Y-119474505D01*
X129042785Y-119462924D01*
X128989636Y-119447256D01*
X128937055Y-119427501D01*
X128937055Y-119247250D01*
X128954539Y-119256478D01*
X129006877Y-119280589D01*
X129059044Y-119299342D01*
X129111039Y-119312738D01*
X129162863Y-119320775D01*
X129214514Y-119323454D01*
X129251878Y-119321994D01*
X129305983Y-119313073D01*
X129357435Y-119291664D01*
X129394186Y-119258577D01*
X129416236Y-119213812D01*
X129423586Y-119157369D01*
X128904815Y-119157369D01*
X128904815Y-119075547D01*
X128904856Y-119068355D01*
X128907440Y-119019570D01*
X128910223Y-119001053D01*
X129106559Y-119001053D01*
X129421632Y-119001053D01*
X129418437Y-118979272D01*
X129402372Y-118930230D01*
X129372540Y-118889678D01*
X129355753Y-118876398D01*
X129307834Y-118856095D01*
X129257013Y-118850600D01*
X129239404Y-118851195D01*
X129189451Y-118861353D01*
X129145638Y-118888702D01*
X129132357Y-118904261D01*
X129112055Y-118950449D01*
X129106559Y-119001053D01*
X128910223Y-119001053D01*
X128915317Y-118967165D01*
X128928445Y-118918331D01*
X128946824Y-118873070D01*
X128960799Y-118846828D01*
X128990221Y-118804281D01*
X129025130Y-118767762D01*
X129065526Y-118737271D01*
X129095190Y-118720670D01*
X129143422Y-118702209D01*
X129196135Y-118691475D01*
X129246754Y-118688422D01*
X129262464Y-118688619D01*
G37*
G36*
X159043893Y-120133949D02*
G01*
X158408129Y-120133949D01*
X158408129Y-120305896D01*
X158842149Y-120305896D01*
X158842149Y-120524738D01*
X158449162Y-120524738D01*
X158449162Y-120696685D01*
X158842149Y-120696685D01*
X158842149Y-120978053D01*
X158408129Y-120978053D01*
X158408129Y-121150000D01*
X159043893Y-121150000D01*
X159043893Y-120133949D01*
G37*
G36*
X158260362Y-120384054D02*
G01*
X158134821Y-120384054D01*
X158114794Y-120469539D01*
X158090732Y-120424985D01*
X158060572Y-120395289D01*
X158016496Y-120373565D01*
X157978262Y-120368422D01*
X157929515Y-120376418D01*
X157891311Y-120396755D01*
X157857755Y-120432681D01*
X157844905Y-120466608D01*
X157819092Y-120423652D01*
X157781476Y-120389996D01*
X157734779Y-120371874D01*
X157698604Y-120368422D01*
X157648992Y-120373755D01*
X157601002Y-120394755D01*
X157566923Y-120431686D01*
X157564514Y-120435833D01*
X157546332Y-120485872D01*
X157536304Y-120540980D01*
X157530574Y-120599489D01*
X157527819Y-120656197D01*
X157526938Y-120706767D01*
X157526901Y-120720132D01*
X157526901Y-121150000D01*
X157691032Y-121150000D01*
X157691032Y-120665666D01*
X157692562Y-120615312D01*
X157699578Y-120566740D01*
X157703977Y-120553803D01*
X157745493Y-120524993D01*
X157751849Y-120524738D01*
X157795647Y-120548007D01*
X157798255Y-120553070D01*
X157809907Y-120603963D01*
X157812609Y-120655666D01*
X157812665Y-120665666D01*
X157812665Y-121150000D01*
X157974842Y-121150000D01*
X157974842Y-120665666D01*
X157976459Y-120616524D01*
X157983872Y-120567559D01*
X157988520Y-120553803D01*
X158029434Y-120524993D01*
X158035659Y-120524738D01*
X158080267Y-120546803D01*
X158082798Y-120551605D01*
X158093857Y-120601038D01*
X158096355Y-120649889D01*
X158096475Y-120665666D01*
X158096475Y-121150000D01*
X158260362Y-121150000D01*
X158260362Y-120384054D01*
G37*
G36*
X157371807Y-121150000D02*
G01*
X157192044Y-121150000D01*
X157172260Y-121034961D01*
X157150543Y-121072605D01*
X157113848Y-121114588D01*
X157069813Y-121144065D01*
X157018439Y-121161037D01*
X156968562Y-121165631D01*
X156937139Y-121163975D01*
X156886372Y-121153105D01*
X156840981Y-121132092D01*
X156800967Y-121100933D01*
X156766329Y-121059630D01*
X156745220Y-121024454D01*
X156724612Y-120977033D01*
X156709156Y-120923927D01*
X156700212Y-120875330D01*
X156694845Y-120822786D01*
X156693056Y-120766294D01*
X156693142Y-120762875D01*
X156893335Y-120762875D01*
X156894265Y-120796200D01*
X156899623Y-120844957D01*
X156911344Y-120893094D01*
X156931437Y-120938241D01*
X156943876Y-120957028D01*
X156981909Y-120990972D01*
X157032065Y-121003454D01*
X157054994Y-121001187D01*
X157101617Y-120978266D01*
X157133914Y-120938974D01*
X157144961Y-120917710D01*
X157161438Y-120868957D01*
X157169864Y-120817982D01*
X157172260Y-120767027D01*
X157171921Y-120747298D01*
X157166834Y-120692620D01*
X157154020Y-120639798D01*
X157133670Y-120595324D01*
X157118271Y-120573328D01*
X157078545Y-120541282D01*
X157030111Y-120530600D01*
X157007168Y-120532789D01*
X156961112Y-120554929D01*
X156929972Y-120592882D01*
X156919417Y-120613389D01*
X156903675Y-120661131D01*
X156895625Y-120711767D01*
X156893335Y-120762875D01*
X156693142Y-120762875D01*
X156694205Y-120720800D01*
X156698871Y-120667528D01*
X156707128Y-120618251D01*
X156721774Y-120564393D01*
X156741589Y-120516288D01*
X156766573Y-120473935D01*
X156785811Y-120449206D01*
X156823610Y-120413863D01*
X156866668Y-120388618D01*
X156914985Y-120373471D01*
X156968562Y-120368422D01*
X157008118Y-120371446D01*
X157058688Y-120385836D01*
X157103647Y-120412078D01*
X157142997Y-120450170D01*
X157172260Y-120492254D01*
X157172260Y-120087055D01*
X157371807Y-120087055D01*
X157371807Y-121150000D01*
G37*
G36*
X156467376Y-120384054D02*
G01*
X156287124Y-120384054D01*
X156267096Y-120499581D01*
X156240753Y-120456934D01*
X156205685Y-120422049D01*
X156177459Y-120403105D01*
X156129111Y-120381970D01*
X156079662Y-120371166D01*
X156035554Y-120368422D01*
X155984106Y-120371952D01*
X155935090Y-120382543D01*
X155888508Y-120400193D01*
X155879483Y-120404570D01*
X155879483Y-120597278D01*
X155920079Y-120565046D01*
X155967127Y-120543362D01*
X156020628Y-120532228D01*
X156053140Y-120530600D01*
X156104264Y-120534511D01*
X156153062Y-120547850D01*
X156194068Y-120570655D01*
X156228781Y-120605494D01*
X156251953Y-120650294D01*
X156260990Y-120685694D01*
X156265387Y-120728681D01*
X156267015Y-120777631D01*
X156267096Y-120794382D01*
X156267096Y-121150000D01*
X156467376Y-121150000D01*
X156467376Y-120384054D01*
G37*
G36*
X155696545Y-121275052D02*
G01*
X155674563Y-121275052D01*
X155654047Y-121275052D01*
X155604021Y-121273893D01*
X155573447Y-121271388D01*
X155526895Y-121255721D01*
X155523133Y-121253070D01*
X155491931Y-121214762D01*
X155487962Y-121207152D01*
X155467677Y-121160955D01*
X155451814Y-121119225D01*
X155742951Y-120384054D01*
X155532414Y-120384054D01*
X155357292Y-120876448D01*
X155189985Y-120384054D01*
X154979448Y-120384054D01*
X155297208Y-121225959D01*
X155316936Y-121272335D01*
X155340218Y-121315718D01*
X155347522Y-121327564D01*
X155378677Y-121367449D01*
X155416273Y-121399177D01*
X155421772Y-121402791D01*
X155467779Y-121423302D01*
X155518949Y-121431116D01*
X155530948Y-121431367D01*
X155696545Y-121431367D01*
X155696545Y-121275052D01*
G37*
G36*
X154796754Y-120634159D02*
G01*
X154256245Y-120634159D01*
X154256245Y-120837369D01*
X154796754Y-120837369D01*
X154796754Y-120634159D01*
G37*
G36*
X154014933Y-121150000D02*
G01*
X153813189Y-121150000D01*
X153813189Y-120743579D01*
X153748953Y-120743579D01*
X153723571Y-120746956D01*
X153680565Y-120772156D01*
X153674943Y-120777784D01*
X153645320Y-120816940D01*
X153621702Y-120860083D01*
X153607536Y-120890369D01*
X153484438Y-121150000D01*
X153262909Y-121150000D01*
X153447557Y-120783391D01*
X153453840Y-120771106D01*
X153478087Y-120728192D01*
X153501535Y-120696929D01*
X153509632Y-120689467D01*
X153554047Y-120668841D01*
X153514953Y-120661350D01*
X153467096Y-120643440D01*
X153443740Y-120629211D01*
X153406524Y-120594836D01*
X153387548Y-120567902D01*
X153367934Y-120523028D01*
X153358024Y-120475072D01*
X153355983Y-120438520D01*
X153563817Y-120438520D01*
X153564272Y-120456128D01*
X153573342Y-120506420D01*
X153599232Y-120547697D01*
X153620038Y-120562443D01*
X153666546Y-120577419D01*
X153718178Y-120581402D01*
X153813189Y-120581402D01*
X153813189Y-120296127D01*
X153718178Y-120296127D01*
X153693443Y-120296932D01*
X153643371Y-120305432D01*
X153599232Y-120329099D01*
X153589029Y-120340271D01*
X153568797Y-120386954D01*
X153563817Y-120438520D01*
X153355983Y-120438520D01*
X153355233Y-120425087D01*
X153356250Y-120393539D01*
X153362724Y-120343319D01*
X153376482Y-120294417D01*
X153380616Y-120283985D01*
X153405073Y-120240415D01*
X153440718Y-120203070D01*
X153457813Y-120190717D01*
X153505280Y-120166620D01*
X153554413Y-120151229D01*
X153611343Y-120140699D01*
X153664740Y-120135637D01*
X153723551Y-120133949D01*
X154014933Y-120133949D01*
X154014933Y-121150000D01*
G37*
G36*
X152955408Y-120290265D02*
G01*
X152975924Y-120269748D01*
X152975924Y-120076308D01*
X152955408Y-120055792D01*
X152796161Y-120055792D01*
X152775645Y-120076308D01*
X152775645Y-120269748D01*
X152796161Y-120290265D01*
X152955408Y-120290265D01*
G37*
G36*
X152708478Y-121150000D02*
G01*
X152759068Y-121147441D01*
X152810992Y-121137987D01*
X152860974Y-121118654D01*
X152900972Y-121090222D01*
X152913398Y-121077215D01*
X152940753Y-121034946D01*
X152958278Y-120988518D01*
X152969818Y-120933279D01*
X152974947Y-120878917D01*
X152975924Y-120839078D01*
X152975924Y-120546231D01*
X153137857Y-120546231D01*
X153137857Y-120384054D01*
X152775645Y-120384054D01*
X152775645Y-120826622D01*
X152772878Y-120875995D01*
X152761008Y-120925775D01*
X152747313Y-120950697D01*
X152706335Y-120979665D01*
X152656647Y-120987786D01*
X152652547Y-120987822D01*
X152492567Y-120987822D01*
X152492567Y-121150000D01*
X152708478Y-121150000D01*
G37*
G36*
X151880739Y-120492254D02*
G01*
X151900038Y-120463231D01*
X151937944Y-120421752D01*
X151981109Y-120392124D01*
X152029533Y-120374348D01*
X152083216Y-120368422D01*
X152114651Y-120370075D01*
X152165493Y-120380919D01*
X152211029Y-120401885D01*
X152251259Y-120432971D01*
X152286182Y-120474180D01*
X152307432Y-120509232D01*
X152328177Y-120556585D01*
X152343736Y-120609708D01*
X152352740Y-120658384D01*
X152358143Y-120711068D01*
X152359944Y-120767759D01*
X152358803Y-120812925D01*
X152354167Y-120865894D01*
X152345965Y-120914987D01*
X152331417Y-120968783D01*
X152311733Y-121016997D01*
X152286915Y-121059630D01*
X152267723Y-121084474D01*
X152229931Y-121119980D01*
X152186786Y-121145342D01*
X152138288Y-121160559D01*
X152084438Y-121165631D01*
X152042499Y-121162441D01*
X151990076Y-121147256D01*
X151944993Y-121119565D01*
X151907249Y-121079368D01*
X151880739Y-121034961D01*
X151860955Y-121150000D01*
X151681193Y-121150000D01*
X151681193Y-120767027D01*
X151880739Y-120767027D01*
X151881076Y-120786757D01*
X151886132Y-120841467D01*
X151898864Y-120894371D01*
X151919085Y-120938974D01*
X151931683Y-120957549D01*
X151970184Y-120991112D01*
X152020935Y-121003454D01*
X152043606Y-121001161D01*
X152089761Y-120977980D01*
X152121807Y-120938241D01*
X152132713Y-120916765D01*
X152148980Y-120867229D01*
X152157298Y-120815143D01*
X152159664Y-120762875D01*
X152159345Y-120743037D01*
X152155364Y-120694081D01*
X152143992Y-120640958D01*
X152123272Y-120592882D01*
X152111162Y-120574939D01*
X152073478Y-120542521D01*
X152022888Y-120530600D01*
X151995727Y-120533697D01*
X151951982Y-120555883D01*
X151919330Y-120595324D01*
X151908212Y-120616518D01*
X151891630Y-120665166D01*
X151883151Y-120716087D01*
X151880739Y-120767027D01*
X151681193Y-120767027D01*
X151681193Y-120087055D01*
X151880739Y-120087055D01*
X151880739Y-120492254D01*
G37*
G36*
X151038590Y-120492254D02*
G01*
X151057889Y-120463231D01*
X151095794Y-120421752D01*
X151138959Y-120392124D01*
X151187384Y-120374348D01*
X151241067Y-120368422D01*
X151272502Y-120370075D01*
X151323344Y-120380919D01*
X151368880Y-120401885D01*
X151409109Y-120432971D01*
X151444033Y-120474180D01*
X151465283Y-120509232D01*
X151486028Y-120556585D01*
X151501587Y-120609708D01*
X151510591Y-120658384D01*
X151515993Y-120711068D01*
X151517794Y-120767759D01*
X151516653Y-120812925D01*
X151512018Y-120865894D01*
X151503816Y-120914987D01*
X151489267Y-120968783D01*
X151469584Y-121016997D01*
X151444766Y-121059630D01*
X151425574Y-121084474D01*
X151387781Y-121119980D01*
X151344637Y-121145342D01*
X151296139Y-121160559D01*
X151242288Y-121165631D01*
X151200350Y-121162441D01*
X151147927Y-121147256D01*
X151102843Y-121119565D01*
X151065100Y-121079368D01*
X151038590Y-121034961D01*
X151018806Y-121150000D01*
X150839043Y-121150000D01*
X150839043Y-120767027D01*
X151038590Y-120767027D01*
X151038927Y-120786757D01*
X151043982Y-120841467D01*
X151056714Y-120894371D01*
X151076936Y-120938974D01*
X151089533Y-120957549D01*
X151128035Y-120991112D01*
X151178785Y-121003454D01*
X151201457Y-121001161D01*
X151247612Y-120977980D01*
X151279657Y-120938241D01*
X151290564Y-120916765D01*
X151306831Y-120867229D01*
X151315149Y-120815143D01*
X151317515Y-120762875D01*
X151317195Y-120743037D01*
X151313215Y-120694081D01*
X151301842Y-120640958D01*
X151281123Y-120592882D01*
X151269012Y-120574939D01*
X151231329Y-120542521D01*
X151180739Y-120530600D01*
X151153578Y-120533697D01*
X151109832Y-120555883D01*
X151077180Y-120595324D01*
X151066063Y-120616518D01*
X151049481Y-120665166D01*
X151041002Y-120716087D01*
X151038590Y-120767027D01*
X150839043Y-120767027D01*
X150839043Y-120087055D01*
X151038590Y-120087055D01*
X151038590Y-120492254D01*
G37*
G36*
X150198639Y-121150000D02*
G01*
X150249145Y-121147415D01*
X150300994Y-121137866D01*
X150350919Y-121118338D01*
X150390891Y-121089621D01*
X150403314Y-121076482D01*
X150430669Y-121033786D01*
X150448194Y-120986884D01*
X150459734Y-120931077D01*
X150464863Y-120876154D01*
X150465840Y-120835903D01*
X150465840Y-120249232D01*
X150668806Y-120249232D01*
X150668806Y-120087055D01*
X150265561Y-120087055D01*
X150265561Y-120824912D01*
X150262794Y-120874825D01*
X150250925Y-120925091D01*
X150237229Y-120950209D01*
X150196373Y-120979558D01*
X150146578Y-120987786D01*
X150142463Y-120987822D01*
X149982484Y-120987822D01*
X149982484Y-121150000D01*
X150198639Y-121150000D01*
G37*
G36*
X149474048Y-120368619D02*
G01*
X149526418Y-120372402D01*
X149574720Y-120381001D01*
X149624943Y-120396724D01*
X149669853Y-120418736D01*
X149699983Y-120438938D01*
X149739673Y-120474586D01*
X149772755Y-120516647D01*
X149796615Y-120559420D01*
X149801732Y-120570838D01*
X149818897Y-120618931D01*
X149830781Y-120670901D01*
X149836847Y-120719556D01*
X149838869Y-120771179D01*
X149837262Y-120817699D01*
X149830735Y-120871879D01*
X149819187Y-120921646D01*
X149798702Y-120975541D01*
X149770988Y-121023083D01*
X149736043Y-121064270D01*
X149701596Y-121093471D01*
X149654152Y-121121979D01*
X149600044Y-121143359D01*
X149549865Y-121155733D01*
X149495058Y-121163156D01*
X149435624Y-121165631D01*
X149417215Y-121165404D01*
X149362366Y-121161998D01*
X149308084Y-121154505D01*
X149254369Y-121142924D01*
X149201221Y-121127256D01*
X149148639Y-121107501D01*
X149148639Y-120927250D01*
X149166123Y-120936478D01*
X149218462Y-120960589D01*
X149270628Y-120979342D01*
X149322624Y-120992738D01*
X149374447Y-121000775D01*
X149426099Y-121003454D01*
X149463462Y-121001994D01*
X149517567Y-120993073D01*
X149569019Y-120971664D01*
X149605770Y-120938577D01*
X149627820Y-120893812D01*
X149635170Y-120837369D01*
X149116399Y-120837369D01*
X149116399Y-120755547D01*
X149116440Y-120748355D01*
X149119024Y-120699570D01*
X149121807Y-120681053D01*
X149318143Y-120681053D01*
X149633216Y-120681053D01*
X149630022Y-120659272D01*
X149613957Y-120610230D01*
X149584124Y-120569678D01*
X149567337Y-120556398D01*
X149519418Y-120536095D01*
X149468597Y-120530600D01*
X149450988Y-120531195D01*
X149401035Y-120541353D01*
X149357222Y-120568702D01*
X149343941Y-120584261D01*
X149323639Y-120630449D01*
X149318143Y-120681053D01*
X149121807Y-120681053D01*
X149126901Y-120647165D01*
X149140029Y-120598331D01*
X149158408Y-120553070D01*
X149172383Y-120526828D01*
X149201805Y-120484281D01*
X149236714Y-120447762D01*
X149277110Y-120417271D01*
X149306774Y-120400670D01*
X149355006Y-120382209D01*
X149407719Y-120371475D01*
X149458339Y-120368422D01*
X149474048Y-120368619D01*
G37*
G36*
X148188276Y-121150000D02*
G01*
X147986531Y-121150000D01*
X147924982Y-120899895D01*
X147655094Y-120899895D01*
X147592079Y-121150000D01*
X147390334Y-121150000D01*
X147502126Y-120737718D01*
X147693928Y-120737718D01*
X147884682Y-120737718D01*
X147789671Y-120321284D01*
X147693928Y-120737718D01*
X147502126Y-120737718D01*
X147665840Y-120133949D01*
X147912770Y-120133949D01*
X148188276Y-121150000D01*
G37*
G36*
X146947600Y-120368619D02*
G01*
X146999970Y-120372402D01*
X147048272Y-120381001D01*
X147098495Y-120396724D01*
X147143405Y-120418736D01*
X147173535Y-120438938D01*
X147213225Y-120474586D01*
X147246307Y-120516647D01*
X147270167Y-120559420D01*
X147275284Y-120570838D01*
X147292449Y-120618931D01*
X147304333Y-120670901D01*
X147310399Y-120719556D01*
X147312421Y-120771179D01*
X147310814Y-120817699D01*
X147304287Y-120871879D01*
X147292739Y-120921646D01*
X147272254Y-120975541D01*
X147244540Y-121023083D01*
X147209595Y-121064270D01*
X147175148Y-121093471D01*
X147127704Y-121121979D01*
X147073596Y-121143359D01*
X147023417Y-121155733D01*
X146968610Y-121163156D01*
X146909176Y-121165631D01*
X146890767Y-121165404D01*
X146835918Y-121161998D01*
X146781636Y-121154505D01*
X146727921Y-121142924D01*
X146674772Y-121127256D01*
X146622191Y-121107501D01*
X146622191Y-120927250D01*
X146639675Y-120936478D01*
X146692014Y-120960589D01*
X146744180Y-120979342D01*
X146796176Y-120992738D01*
X146847999Y-121000775D01*
X146899651Y-121003454D01*
X146937014Y-121001994D01*
X146991119Y-120993073D01*
X147042571Y-120971664D01*
X147079322Y-120938577D01*
X147101372Y-120893812D01*
X147108722Y-120837369D01*
X146589951Y-120837369D01*
X146589951Y-120755547D01*
X146589992Y-120748355D01*
X146592576Y-120699570D01*
X146595359Y-120681053D01*
X146791695Y-120681053D01*
X147106768Y-120681053D01*
X147103573Y-120659272D01*
X147087509Y-120610230D01*
X147057676Y-120569678D01*
X147040889Y-120556398D01*
X146992970Y-120536095D01*
X146942149Y-120530600D01*
X146924540Y-120531195D01*
X146874587Y-120541353D01*
X146830774Y-120568702D01*
X146817493Y-120584261D01*
X146797191Y-120630449D01*
X146791695Y-120681053D01*
X146595359Y-120681053D01*
X146600453Y-120647165D01*
X146613581Y-120598331D01*
X146631960Y-120553070D01*
X146645935Y-120526828D01*
X146675357Y-120484281D01*
X146710266Y-120447762D01*
X146750662Y-120417271D01*
X146780326Y-120400670D01*
X146828558Y-120382209D01*
X146881271Y-120371475D01*
X146931891Y-120368422D01*
X146947600Y-120368619D01*
G37*
G36*
X146361584Y-120384054D02*
G01*
X146181332Y-120384054D01*
X146161304Y-120499581D01*
X146134961Y-120456934D01*
X146099893Y-120422049D01*
X146071667Y-120403105D01*
X146023319Y-120381970D01*
X145973870Y-120371166D01*
X145929762Y-120368422D01*
X145878314Y-120371952D01*
X145829298Y-120382543D01*
X145782716Y-120400193D01*
X145773691Y-120404570D01*
X145773691Y-120597278D01*
X145814287Y-120565046D01*
X145861335Y-120543362D01*
X145914836Y-120532228D01*
X145947348Y-120530600D01*
X145998472Y-120534511D01*
X146047270Y-120547850D01*
X146088276Y-120570655D01*
X146122989Y-120605494D01*
X146146161Y-120650294D01*
X146155198Y-120685694D01*
X146159595Y-120728681D01*
X146161223Y-120777631D01*
X146161304Y-120794382D01*
X146161304Y-121150000D01*
X146361584Y-121150000D01*
X146361584Y-120384054D01*
G37*
G36*
X145300064Y-120370140D02*
G01*
X145350485Y-120377772D01*
X145402756Y-120393658D01*
X145450313Y-120417271D01*
X145474454Y-120433526D01*
X145513399Y-120467774D01*
X145546548Y-120508436D01*
X145573900Y-120555512D01*
X145579165Y-120566817D01*
X145596827Y-120614651D01*
X145609054Y-120666667D01*
X145615295Y-120715612D01*
X145617376Y-120767759D01*
X145617334Y-120775345D01*
X145614689Y-120826653D01*
X145606629Y-120881454D01*
X145593196Y-120932165D01*
X145574389Y-120978785D01*
X145559991Y-121005660D01*
X145529596Y-121049077D01*
X145493444Y-121086117D01*
X145451535Y-121116782D01*
X145415309Y-121135816D01*
X145364645Y-121153419D01*
X145315751Y-121162578D01*
X145263223Y-121165631D01*
X145223255Y-121163914D01*
X145173277Y-121156281D01*
X145121577Y-121140396D01*
X145074668Y-121116782D01*
X145050739Y-121100510D01*
X145012084Y-121066139D01*
X144979109Y-121025239D01*
X144951814Y-120977808D01*
X144946549Y-120966410D01*
X144928887Y-120918164D01*
X144916660Y-120865675D01*
X144910419Y-120816266D01*
X144908474Y-120767027D01*
X145108618Y-120767027D01*
X145109266Y-120793500D01*
X145115470Y-120847959D01*
X145128243Y-120895347D01*
X145150139Y-120939706D01*
X145169624Y-120964545D01*
X145213375Y-120994489D01*
X145262491Y-121003454D01*
X145292183Y-121000392D01*
X145339885Y-120978457D01*
X145375331Y-120939462D01*
X145387363Y-120918315D01*
X145405309Y-120869581D01*
X145414486Y-120818379D01*
X145417096Y-120767027D01*
X145416444Y-120740557D01*
X145410203Y-120686135D01*
X145397356Y-120638822D01*
X145375331Y-120594591D01*
X145352616Y-120566595D01*
X145311675Y-120539598D01*
X145262491Y-120530600D01*
X145232821Y-120533638D01*
X145185287Y-120555406D01*
X145150139Y-120594103D01*
X145138177Y-120615069D01*
X145120336Y-120663726D01*
X145111213Y-120715186D01*
X145108618Y-120767027D01*
X144908474Y-120767027D01*
X144908339Y-120763607D01*
X144908380Y-120755978D01*
X144910995Y-120704439D01*
X144918963Y-120649546D01*
X144932244Y-120598927D01*
X144950837Y-120552581D01*
X144964942Y-120525877D01*
X144994868Y-120482858D01*
X145030630Y-120446330D01*
X145072226Y-120416294D01*
X145108166Y-120397641D01*
X145158565Y-120380390D01*
X145207322Y-120371414D01*
X145259804Y-120368422D01*
X145300064Y-120370140D01*
G37*
G36*
X144724668Y-120384054D02*
G01*
X144545394Y-120384054D01*
X144525610Y-120501046D01*
X144503071Y-120453971D01*
X144470777Y-120416731D01*
X144452581Y-120402861D01*
X144407159Y-120380563D01*
X144358575Y-120370070D01*
X144327285Y-120368422D01*
X144277230Y-120372987D01*
X144228546Y-120389033D01*
X144187938Y-120416633D01*
X144165352Y-120441451D01*
X144138551Y-120487744D01*
X144122091Y-120537879D01*
X144113374Y-120588684D01*
X144109963Y-120645964D01*
X144109909Y-120654675D01*
X144109909Y-121150000D01*
X144308967Y-121150000D01*
X144308967Y-120685205D01*
X144311680Y-120635069D01*
X144322980Y-120586035D01*
X144331925Y-120567725D01*
X144370146Y-120535820D01*
X144402512Y-120530600D01*
X144451373Y-120541387D01*
X144488965Y-120573748D01*
X144493126Y-120579692D01*
X144514158Y-120625425D01*
X144524056Y-120678016D01*
X144525610Y-120713293D01*
X144525610Y-121150000D01*
X144724668Y-121150000D01*
X144724668Y-120384054D01*
G37*
G36*
X143620951Y-120369734D02*
G01*
X143669749Y-120374208D01*
X143718143Y-120381856D01*
X143761921Y-120391897D01*
X143810352Y-120406745D01*
X143859071Y-120425575D01*
X143859071Y-120597522D01*
X143821801Y-120579250D01*
X143776143Y-120560275D01*
X143726203Y-120543789D01*
X143688252Y-120534580D01*
X143636269Y-120526989D01*
X143587229Y-120524738D01*
X143566990Y-120525298D01*
X143517376Y-120531821D01*
X143505248Y-120534924D01*
X143462421Y-120558688D01*
X143453018Y-120569816D01*
X143440928Y-120618039D01*
X143440928Y-120649790D01*
X143579657Y-120649790D01*
X143614096Y-120650447D01*
X143664379Y-120653893D01*
X143713014Y-120660293D01*
X143732537Y-120663928D01*
X143780282Y-120677397D01*
X143826831Y-120698394D01*
X143836035Y-120703767D01*
X143876514Y-120736554D01*
X143905966Y-120776064D01*
X143920016Y-120806566D01*
X143931596Y-120854508D01*
X143935031Y-120905757D01*
X143934959Y-120913561D01*
X143930436Y-120964986D01*
X143916652Y-121016887D01*
X143893677Y-121061461D01*
X143861514Y-121098709D01*
X143856875Y-121102826D01*
X143816567Y-121131059D01*
X143770581Y-121150926D01*
X143718916Y-121162429D01*
X143669050Y-121165631D01*
X143634185Y-121164043D01*
X143584405Y-121155709D01*
X143537648Y-121140230D01*
X143512117Y-121127666D01*
X143469851Y-121097201D01*
X143436775Y-121060851D01*
X143427494Y-121107257D01*
X143408688Y-121150000D01*
X143210362Y-121150000D01*
X143216024Y-121141461D01*
X143233810Y-121095533D01*
X143236770Y-121081273D01*
X143243335Y-121031297D01*
X143243455Y-121029325D01*
X143245289Y-120979762D01*
X143245278Y-120973988D01*
X143244556Y-120924808D01*
X143244202Y-120906069D01*
X143243824Y-120855198D01*
X143243662Y-120821462D01*
X143243372Y-120803907D01*
X143440928Y-120803907D01*
X143440942Y-120807143D01*
X143445063Y-120858716D01*
X143455582Y-120906734D01*
X143473829Y-120950780D01*
X143505408Y-120991486D01*
X143509913Y-120995538D01*
X143553785Y-121018542D01*
X143603593Y-121024947D01*
X143647812Y-121019244D01*
X143690788Y-120995150D01*
X143714052Y-120958941D01*
X143721807Y-120910397D01*
X143717479Y-120871918D01*
X143691032Y-120828087D01*
X143663488Y-120810909D01*
X143614096Y-120796824D01*
X143570604Y-120792266D01*
X143520795Y-120790474D01*
X143440928Y-120790474D01*
X143440928Y-120803907D01*
X143243372Y-120803907D01*
X143242847Y-120772156D01*
X143242466Y-120754703D01*
X143241870Y-120704012D01*
X143242633Y-120668853D01*
X143247029Y-120616841D01*
X143256646Y-120564568D01*
X143273133Y-120514235D01*
X143299451Y-120467749D01*
X143335755Y-120430382D01*
X143377424Y-120404326D01*
X143417236Y-120388618D01*
X143469907Y-120376311D01*
X143523732Y-120370140D01*
X143576238Y-120368422D01*
X143620951Y-120369734D01*
G37*
G36*
X142829832Y-121165631D02*
G01*
X142879932Y-121161067D01*
X142928777Y-121145020D01*
X142969663Y-121117421D01*
X142992498Y-121092602D01*
X143019535Y-121046151D01*
X143036140Y-120996070D01*
X143044934Y-120945461D01*
X143048375Y-120888519D01*
X143048429Y-120879867D01*
X143048429Y-120384054D01*
X142848150Y-120384054D01*
X142848150Y-120850069D01*
X142844836Y-120902196D01*
X142830105Y-120954922D01*
X142795119Y-120993867D01*
X142753872Y-121003454D01*
X142705698Y-120992989D01*
X142666733Y-120958757D01*
X142664724Y-120955826D01*
X142644008Y-120910683D01*
X142634259Y-120857921D01*
X142632728Y-120822226D01*
X142632728Y-120384054D01*
X142432449Y-120384054D01*
X142432449Y-121150000D01*
X142612944Y-121150000D01*
X142632728Y-121034961D01*
X142653648Y-121079368D01*
X142687410Y-121119565D01*
X142731246Y-121147256D01*
X142785156Y-121162441D01*
X142829832Y-121165631D01*
G37*
G36*
X141750279Y-121150000D02*
G01*
X141803646Y-121148580D01*
X141856385Y-121143589D01*
X141905920Y-121133829D01*
X141927110Y-121127285D01*
X141972936Y-121103229D01*
X142008493Y-121065242D01*
X142017724Y-121048639D01*
X142033948Y-121001000D01*
X142041747Y-120952328D01*
X142044321Y-120901548D01*
X142044347Y-120895498D01*
X142044347Y-120546231D01*
X142239741Y-120546231D01*
X142239741Y-120384054D01*
X142044347Y-120384054D01*
X142044347Y-120175715D01*
X141844068Y-120087055D01*
X141844068Y-120384054D01*
X141582239Y-120384054D01*
X141582239Y-120546231D01*
X141844068Y-120546231D01*
X141844068Y-120895987D01*
X141835027Y-120944233D01*
X141818422Y-120966329D01*
X141771404Y-120985283D01*
X141736112Y-120987822D01*
X141582239Y-120987822D01*
X141582239Y-121150000D01*
X141750279Y-121150000D01*
G37*
G36*
X141165317Y-120290265D02*
G01*
X141185833Y-120269748D01*
X141185833Y-120076308D01*
X141165317Y-120055792D01*
X141006071Y-120055792D01*
X140985554Y-120076308D01*
X140985554Y-120269748D01*
X141006071Y-120290265D01*
X141165317Y-120290265D01*
G37*
G36*
X140918387Y-121150000D02*
G01*
X140968977Y-121147441D01*
X141020901Y-121137987D01*
X141070883Y-121118654D01*
X141110882Y-121090222D01*
X141123307Y-121077215D01*
X141150662Y-121034946D01*
X141168187Y-120988518D01*
X141179727Y-120933279D01*
X141184856Y-120878917D01*
X141185833Y-120839078D01*
X141185833Y-120546231D01*
X141347766Y-120546231D01*
X141347766Y-120384054D01*
X140985554Y-120384054D01*
X140985554Y-120826622D01*
X140982787Y-120875995D01*
X140970918Y-120925775D01*
X140957222Y-120950697D01*
X140916244Y-120979665D01*
X140866556Y-120987786D01*
X140862456Y-120987822D01*
X140702477Y-120987822D01*
X140702477Y-121150000D01*
X140918387Y-121150000D01*
G37*
G36*
X140146824Y-121165631D02*
G01*
X140201637Y-121163073D01*
X140252502Y-121155399D01*
X140308330Y-121139436D01*
X140358473Y-121116106D01*
X140402932Y-121085409D01*
X140429413Y-121060851D01*
X140463694Y-121018573D01*
X140490882Y-120970508D01*
X140510978Y-120916655D01*
X140522306Y-120867357D01*
X140528709Y-120814040D01*
X140530286Y-120768492D01*
X140527841Y-120711660D01*
X140520506Y-120658860D01*
X140508282Y-120610090D01*
X140487159Y-120556887D01*
X140458995Y-120509488D01*
X140430146Y-120474424D01*
X140389889Y-120438400D01*
X140344222Y-120409829D01*
X140293146Y-120388712D01*
X140236660Y-120375047D01*
X140185456Y-120369354D01*
X140152930Y-120368422D01*
X140100195Y-120371251D01*
X140048418Y-120379736D01*
X139997600Y-120393878D01*
X139947740Y-120413676D01*
X139919678Y-120427529D01*
X139919678Y-120611688D01*
X139959649Y-120580092D01*
X140007964Y-120553485D01*
X140059087Y-120537014D01*
X140113019Y-120530679D01*
X140119958Y-120530600D01*
X140172832Y-120535488D01*
X140222835Y-120552384D01*
X140263631Y-120581350D01*
X140274075Y-120592393D01*
X140302153Y-120635966D01*
X140318532Y-120683909D01*
X140326020Y-120733468D01*
X140327320Y-120767759D01*
X140324007Y-120821065D01*
X140312362Y-120873298D01*
X140289588Y-120921727D01*
X140274319Y-120942149D01*
X140236757Y-120974478D01*
X140190322Y-120994833D01*
X140140945Y-121002915D01*
X140122888Y-121003454D01*
X140073177Y-120999772D01*
X140019970Y-120986549D01*
X139970610Y-120963708D01*
X139925097Y-120931251D01*
X139919678Y-120926517D01*
X139919678Y-121107990D01*
X139965359Y-121130450D01*
X140013284Y-121147393D01*
X140063454Y-121158820D01*
X140115866Y-121164730D01*
X140146824Y-121165631D01*
G37*
G36*
X139410204Y-120369734D02*
G01*
X139459002Y-120374208D01*
X139507397Y-120381856D01*
X139551174Y-120391897D01*
X139599605Y-120406745D01*
X139648325Y-120425575D01*
X139648325Y-120597522D01*
X139611054Y-120579250D01*
X139565397Y-120560275D01*
X139515457Y-120543789D01*
X139477506Y-120534580D01*
X139425522Y-120526989D01*
X139376482Y-120524738D01*
X139356244Y-120525298D01*
X139306629Y-120531821D01*
X139294502Y-120534924D01*
X139251674Y-120558688D01*
X139242271Y-120569816D01*
X139230181Y-120618039D01*
X139230181Y-120649790D01*
X139368911Y-120649790D01*
X139403349Y-120650447D01*
X139453633Y-120653893D01*
X139502267Y-120660293D01*
X139521790Y-120663928D01*
X139569535Y-120677397D01*
X139616085Y-120698394D01*
X139625288Y-120703767D01*
X139665767Y-120736554D01*
X139695219Y-120776064D01*
X139709269Y-120806566D01*
X139720850Y-120854508D01*
X139724284Y-120905757D01*
X139724212Y-120913561D01*
X139719689Y-120964986D01*
X139705905Y-121016887D01*
X139682931Y-121061461D01*
X139650767Y-121098709D01*
X139646128Y-121102826D01*
X139605820Y-121131059D01*
X139559834Y-121150926D01*
X139508169Y-121162429D01*
X139458304Y-121165631D01*
X139423438Y-121164043D01*
X139373658Y-121155709D01*
X139326901Y-121140230D01*
X139301371Y-121127666D01*
X139259105Y-121097201D01*
X139226029Y-121060851D01*
X139216748Y-121107257D01*
X139197941Y-121150000D01*
X138999616Y-121150000D01*
X139005277Y-121141461D01*
X139023063Y-121095533D01*
X139026023Y-121081273D01*
X139032588Y-121031297D01*
X139032709Y-121029325D01*
X139034542Y-120979762D01*
X139034531Y-120973988D01*
X139033810Y-120924808D01*
X139033455Y-120906069D01*
X139033077Y-120855198D01*
X139032916Y-120821462D01*
X139032625Y-120803907D01*
X139230181Y-120803907D01*
X139230195Y-120807143D01*
X139234317Y-120858716D01*
X139244835Y-120906734D01*
X139263082Y-120950780D01*
X139294661Y-120991486D01*
X139299166Y-120995538D01*
X139343038Y-121018542D01*
X139392847Y-121024947D01*
X139437065Y-121019244D01*
X139480041Y-120995150D01*
X139503305Y-120958941D01*
X139511060Y-120910397D01*
X139506732Y-120871918D01*
X139480286Y-120828087D01*
X139452742Y-120810909D01*
X139403349Y-120796824D01*
X139359858Y-120792266D01*
X139310048Y-120790474D01*
X139230181Y-120790474D01*
X139230181Y-120803907D01*
X139032625Y-120803907D01*
X139032100Y-120772156D01*
X139031719Y-120754703D01*
X139031123Y-120704012D01*
X139031886Y-120668853D01*
X139036283Y-120616841D01*
X139045900Y-120564568D01*
X139062386Y-120514235D01*
X139088704Y-120467749D01*
X139125009Y-120430382D01*
X139166678Y-120404326D01*
X139206489Y-120388618D01*
X139259160Y-120376311D01*
X139312985Y-120370140D01*
X139365491Y-120368422D01*
X139410204Y-120369734D01*
G37*
G36*
X138408548Y-121150000D02*
G01*
X138459055Y-121147415D01*
X138510903Y-121137866D01*
X138560828Y-121118338D01*
X138600800Y-121089621D01*
X138613223Y-121076482D01*
X138640579Y-121033786D01*
X138658103Y-120986884D01*
X138669644Y-120931077D01*
X138674773Y-120876154D01*
X138675750Y-120835903D01*
X138675750Y-120249232D01*
X138878715Y-120249232D01*
X138878715Y-120087055D01*
X138475470Y-120087055D01*
X138475470Y-120824912D01*
X138472704Y-120874825D01*
X138460834Y-120925091D01*
X138447138Y-120950209D01*
X138406282Y-120979558D01*
X138356487Y-120987786D01*
X138352372Y-120987822D01*
X138192393Y-120987822D01*
X138192393Y-121150000D01*
X138408548Y-121150000D01*
G37*
G36*
X136841730Y-121165631D02*
G01*
X136896119Y-121163347D01*
X136945715Y-121156496D01*
X136998900Y-121142245D01*
X137045182Y-121121416D01*
X137090453Y-121088804D01*
X137106978Y-121072086D01*
X137139430Y-121025271D01*
X137160903Y-120976791D01*
X137176519Y-120920600D01*
X137185059Y-120867884D01*
X137189533Y-120809813D01*
X137190265Y-120772400D01*
X137190265Y-120133949D01*
X136988764Y-120133949D01*
X136988764Y-120817341D01*
X136983269Y-120869605D01*
X136964912Y-120915604D01*
X136949685Y-120935799D01*
X136909908Y-120964683D01*
X136862591Y-120977021D01*
X136841730Y-120978053D01*
X136790568Y-120971079D01*
X136746650Y-120947971D01*
X136733775Y-120935799D01*
X136707061Y-120892208D01*
X136695650Y-120840261D01*
X136694696Y-120817341D01*
X136694696Y-120133949D01*
X136493196Y-120133949D01*
X136493196Y-120772400D01*
X136494485Y-120822497D01*
X136499726Y-120880040D01*
X136508997Y-120931943D01*
X136525443Y-120986780D01*
X136547694Y-121033495D01*
X136575750Y-121072086D01*
X136616777Y-121108536D01*
X136659590Y-121132653D01*
X136709462Y-121150192D01*
X136766391Y-121161155D01*
X136819224Y-121165266D01*
X136841730Y-121165631D01*
G37*
G36*
X136303175Y-120384054D02*
G01*
X136123900Y-120384054D01*
X136104117Y-120501046D01*
X136081577Y-120453971D01*
X136049283Y-120416731D01*
X136031088Y-120402861D01*
X135985665Y-120380563D01*
X135937082Y-120370070D01*
X135905791Y-120368422D01*
X135855737Y-120372987D01*
X135807053Y-120389033D01*
X135766444Y-120416633D01*
X135743858Y-120441451D01*
X135717057Y-120487744D01*
X135700598Y-120537879D01*
X135691881Y-120588684D01*
X135688469Y-120645964D01*
X135688415Y-120654675D01*
X135688415Y-121150000D01*
X135887473Y-121150000D01*
X135887473Y-120685205D01*
X135890186Y-120635069D01*
X135901486Y-120586035D01*
X135910432Y-120567725D01*
X135948652Y-120535820D01*
X135981018Y-120530600D01*
X136029880Y-120541387D01*
X136067472Y-120573748D01*
X136071632Y-120579692D01*
X136092665Y-120625425D01*
X136102562Y-120678016D01*
X136104117Y-120713293D01*
X136104117Y-121150000D01*
X136303175Y-121150000D01*
X136303175Y-120384054D01*
G37*
G36*
X135270272Y-120290265D02*
G01*
X135290788Y-120269748D01*
X135290788Y-120076308D01*
X135270272Y-120055792D01*
X135111025Y-120055792D01*
X135090509Y-120076308D01*
X135090509Y-120269748D01*
X135111025Y-120290265D01*
X135270272Y-120290265D01*
G37*
G36*
X135023342Y-121150000D02*
G01*
X135073932Y-121147441D01*
X135125856Y-121137987D01*
X135175838Y-121118654D01*
X135215836Y-121090222D01*
X135228262Y-121077215D01*
X135255617Y-121034946D01*
X135273141Y-120988518D01*
X135284682Y-120933279D01*
X135289811Y-120878917D01*
X135290788Y-120839078D01*
X135290788Y-120546231D01*
X135452721Y-120546231D01*
X135452721Y-120384054D01*
X135090509Y-120384054D01*
X135090509Y-120826622D01*
X135087742Y-120875995D01*
X135075872Y-120925775D01*
X135062177Y-120950697D01*
X135021199Y-120979665D01*
X134971511Y-120987786D01*
X134967410Y-120987822D01*
X134807431Y-120987822D01*
X134807431Y-121150000D01*
X135023342Y-121150000D01*
G37*
G36*
X134681646Y-120384054D02*
G01*
X134478681Y-120384054D01*
X134315282Y-120982205D01*
X134151151Y-120384054D01*
X133948185Y-120384054D01*
X134191451Y-121150000D01*
X134438380Y-121150000D01*
X134681646Y-120384054D01*
G37*
G36*
X133473211Y-120368619D02*
G01*
X133525581Y-120372402D01*
X133573883Y-120381001D01*
X133624105Y-120396724D01*
X133669015Y-120418736D01*
X133699146Y-120438938D01*
X133738836Y-120474586D01*
X133771918Y-120516647D01*
X133795778Y-120559420D01*
X133800894Y-120570838D01*
X133818060Y-120618931D01*
X133829944Y-120670901D01*
X133836010Y-120719556D01*
X133838032Y-120771179D01*
X133836425Y-120817699D01*
X133829898Y-120871879D01*
X133818350Y-120921646D01*
X133797865Y-120975541D01*
X133770150Y-121023083D01*
X133735205Y-121064270D01*
X133700758Y-121093471D01*
X133653314Y-121121979D01*
X133599207Y-121143359D01*
X133549027Y-121155733D01*
X133494221Y-121163156D01*
X133434787Y-121165631D01*
X133416378Y-121165404D01*
X133361529Y-121161998D01*
X133307247Y-121154505D01*
X133253532Y-121142924D01*
X133200383Y-121127256D01*
X133147801Y-121107501D01*
X133147801Y-120927250D01*
X133165286Y-120936478D01*
X133217624Y-120960589D01*
X133269791Y-120979342D01*
X133321786Y-120992738D01*
X133373609Y-121000775D01*
X133425261Y-121003454D01*
X133462625Y-121001994D01*
X133516730Y-120993073D01*
X133568181Y-120971664D01*
X133604932Y-120938577D01*
X133626983Y-120893812D01*
X133634333Y-120837369D01*
X133115561Y-120837369D01*
X133115561Y-120755547D01*
X133115602Y-120748355D01*
X133118187Y-120699570D01*
X133120970Y-120681053D01*
X133317306Y-120681053D01*
X133632379Y-120681053D01*
X133629184Y-120659272D01*
X133613119Y-120610230D01*
X133583286Y-120569678D01*
X133566499Y-120556398D01*
X133518581Y-120536095D01*
X133467759Y-120530600D01*
X133450151Y-120531195D01*
X133400198Y-120541353D01*
X133356385Y-120568702D01*
X133343104Y-120584261D01*
X133322801Y-120630449D01*
X133317306Y-120681053D01*
X133120970Y-120681053D01*
X133126064Y-120647165D01*
X133139192Y-120598331D01*
X133157571Y-120553070D01*
X133171546Y-120526828D01*
X133200968Y-120484281D01*
X133235877Y-120447762D01*
X133276273Y-120417271D01*
X133305937Y-120400670D01*
X133354168Y-120382209D01*
X133406882Y-120371475D01*
X133457501Y-120368422D01*
X133473211Y-120368619D01*
G37*
G36*
X132887194Y-120384054D02*
G01*
X132706943Y-120384054D01*
X132686915Y-120499581D01*
X132660571Y-120456934D01*
X132625503Y-120422049D01*
X132597278Y-120403105D01*
X132548929Y-120381970D01*
X132499480Y-120371166D01*
X132455373Y-120368422D01*
X132403924Y-120371952D01*
X132354909Y-120382543D01*
X132308326Y-120400193D01*
X132299302Y-120404570D01*
X132299302Y-120597278D01*
X132339897Y-120565046D01*
X132386946Y-120543362D01*
X132440447Y-120532228D01*
X132472958Y-120530600D01*
X132524082Y-120534511D01*
X132572881Y-120547850D01*
X132613886Y-120570655D01*
X132648599Y-120605494D01*
X132671772Y-120650294D01*
X132680809Y-120685694D01*
X132685205Y-120728681D01*
X132686833Y-120777631D01*
X132686915Y-120794382D01*
X132686915Y-121150000D01*
X132887194Y-121150000D01*
X132887194Y-120384054D01*
G37*
G36*
X131793719Y-121165631D02*
G01*
X131843075Y-121164008D01*
X131894423Y-121159140D01*
X131947764Y-121151025D01*
X132003096Y-121139665D01*
X132050728Y-121127719D01*
X132079972Y-121119469D01*
X132079972Y-120948011D01*
X132029479Y-120974157D01*
X131978935Y-120994894D01*
X131928340Y-121010221D01*
X131877693Y-121020139D01*
X131826994Y-121024647D01*
X131810083Y-121024947D01*
X131755171Y-121020962D01*
X131704387Y-121004125D01*
X131672596Y-120965654D01*
X131669155Y-120941660D01*
X131687977Y-120894674D01*
X131702616Y-120882554D01*
X131747923Y-120861427D01*
X131797451Y-120847344D01*
X131816922Y-120842986D01*
X131872121Y-120830530D01*
X131923755Y-120816322D01*
X131978617Y-120792948D01*
X132022721Y-120763337D01*
X132056069Y-120727489D01*
X132081886Y-120676238D01*
X132091567Y-120626668D01*
X132092428Y-120605094D01*
X132087329Y-120551360D01*
X132072034Y-120504221D01*
X132042637Y-120459073D01*
X132010851Y-120429727D01*
X131965345Y-120402906D01*
X131917990Y-120385724D01*
X131863598Y-120374409D01*
X131811377Y-120369380D01*
X131773691Y-120368422D01*
X131724640Y-120370115D01*
X131672628Y-120375725D01*
X131654256Y-120378681D01*
X131605745Y-120388950D01*
X131555864Y-120403090D01*
X131532379Y-120410921D01*
X131532379Y-120585554D01*
X131576835Y-120558191D01*
X131623213Y-120535835D01*
X131647417Y-120526936D01*
X131695917Y-120514748D01*
X131746099Y-120509385D01*
X131760746Y-120509106D01*
X131811111Y-120512371D01*
X131858823Y-120525354D01*
X131866015Y-120528890D01*
X131899978Y-120564395D01*
X131902895Y-120582135D01*
X131880000Y-120626265D01*
X131868213Y-120634891D01*
X131822845Y-120655957D01*
X131775114Y-120670234D01*
X131756594Y-120674703D01*
X131691625Y-120690334D01*
X131640380Y-120705340D01*
X131591597Y-120726856D01*
X131548406Y-120756518D01*
X131531158Y-120773621D01*
X131502373Y-120817301D01*
X131486574Y-120864623D01*
X131480797Y-120913412D01*
X131480600Y-120925052D01*
X131485492Y-120981438D01*
X131500170Y-121030305D01*
X131532276Y-121080817D01*
X131579672Y-121119583D01*
X131628597Y-121142137D01*
X131687307Y-121157173D01*
X131737761Y-121163517D01*
X131793719Y-121165631D01*
G37*
G36*
X131059525Y-120290265D02*
G01*
X131080041Y-120269748D01*
X131080041Y-120076308D01*
X131059525Y-120055792D01*
X130900279Y-120055792D01*
X130879762Y-120076308D01*
X130879762Y-120269748D01*
X130900279Y-120290265D01*
X131059525Y-120290265D01*
G37*
G36*
X130812595Y-121150000D02*
G01*
X130863185Y-121147441D01*
X130915109Y-121137987D01*
X130965091Y-121118654D01*
X131005090Y-121090222D01*
X131017515Y-121077215D01*
X131044870Y-121034946D01*
X131062395Y-120988518D01*
X131073935Y-120933279D01*
X131079064Y-120878917D01*
X131080041Y-120839078D01*
X131080041Y-120546231D01*
X131241974Y-120546231D01*
X131241974Y-120384054D01*
X130879762Y-120384054D01*
X130879762Y-120826622D01*
X130876995Y-120875995D01*
X130865126Y-120925775D01*
X130851430Y-120950697D01*
X130810452Y-120979665D01*
X130760764Y-120987786D01*
X130756664Y-120987822D01*
X130596685Y-120987822D01*
X130596685Y-121150000D01*
X130812595Y-121150000D01*
G37*
G36*
X129960188Y-121150000D02*
G01*
X130013555Y-121148580D01*
X130066294Y-121143589D01*
X130115830Y-121133829D01*
X130137020Y-121127285D01*
X130182845Y-121103229D01*
X130218402Y-121065242D01*
X130227634Y-121048639D01*
X130243857Y-121001000D01*
X130251656Y-120952328D01*
X130254230Y-120901548D01*
X130254256Y-120895498D01*
X130254256Y-120546231D01*
X130449651Y-120546231D01*
X130449651Y-120384054D01*
X130254256Y-120384054D01*
X130254256Y-120175715D01*
X130053977Y-120087055D01*
X130053977Y-120384054D01*
X129792149Y-120384054D01*
X129792149Y-120546231D01*
X130053977Y-120546231D01*
X130053977Y-120895987D01*
X130044936Y-120944233D01*
X130028332Y-120966329D01*
X129981313Y-120985283D01*
X129946022Y-120987822D01*
X129792149Y-120987822D01*
X129792149Y-121150000D01*
X129960188Y-121150000D01*
G37*
G36*
X129589916Y-121275052D02*
G01*
X129567934Y-121275052D01*
X129547417Y-121275052D01*
X129497392Y-121273893D01*
X129466817Y-121271388D01*
X129420266Y-121255721D01*
X129416503Y-121253070D01*
X129385301Y-121214762D01*
X129381332Y-121207152D01*
X129361048Y-121160955D01*
X129345184Y-121119225D01*
X129636322Y-120384054D01*
X129425784Y-120384054D01*
X129250662Y-120876448D01*
X129083356Y-120384054D01*
X128872819Y-120384054D01*
X129190579Y-121225959D01*
X129210307Y-121272335D01*
X129233588Y-121315718D01*
X129240893Y-121327564D01*
X129272048Y-121367449D01*
X129309643Y-121399177D01*
X129315142Y-121402791D01*
X129361149Y-121423302D01*
X129412320Y-121431116D01*
X129424319Y-121431367D01*
X129589916Y-121431367D01*
X129589916Y-121275052D01*
G37*
G36*
X155676517Y-122830000D02*
G01*
X155475016Y-122830000D01*
X155475016Y-122445073D01*
X155399789Y-122445073D01*
X155361340Y-122444420D01*
X155301818Y-122440432D01*
X155247996Y-122432819D01*
X155190935Y-122418897D01*
X155142082Y-122399754D01*
X155095463Y-122370823D01*
X155089798Y-122366077D01*
X155055178Y-122327806D01*
X155029371Y-122280699D01*
X155014264Y-122233289D01*
X155005631Y-122179388D01*
X155003383Y-122129511D01*
X155213188Y-122129511D01*
X155214154Y-122154768D01*
X155224355Y-122205360D01*
X155252755Y-122248702D01*
X155290914Y-122269538D01*
X155340799Y-122280191D01*
X155392218Y-122282896D01*
X155475016Y-122282896D01*
X155475016Y-121976127D01*
X155392218Y-121976127D01*
X155351400Y-121977774D01*
X155298924Y-121987023D01*
X155252755Y-122010565D01*
X155235445Y-122030822D01*
X155217863Y-122077218D01*
X155213188Y-122129511D01*
X155003383Y-122129511D01*
X155003473Y-122119131D01*
X155006620Y-122069977D01*
X155016332Y-122017037D01*
X155032518Y-121970692D01*
X155059584Y-121924958D01*
X155095463Y-121888199D01*
X155134738Y-121862966D01*
X155182222Y-121842953D01*
X155237916Y-121828161D01*
X155290597Y-121819823D01*
X155348979Y-121815109D01*
X155399789Y-121813949D01*
X155676517Y-121813949D01*
X155676517Y-122830000D01*
G37*
G36*
X154830459Y-121767055D02*
G01*
X154631401Y-121767055D01*
X154631401Y-122180802D01*
X154608862Y-122133885D01*
X154576568Y-122096722D01*
X154558373Y-122082861D01*
X154512950Y-122060563D01*
X154464367Y-122050070D01*
X154433076Y-122048422D01*
X154383022Y-122052987D01*
X154334337Y-122069033D01*
X154293729Y-122096633D01*
X154271143Y-122121451D01*
X154244342Y-122167744D01*
X154227882Y-122217879D01*
X154219165Y-122268684D01*
X154215754Y-122325964D01*
X154215700Y-122334675D01*
X154215700Y-122830000D01*
X154414758Y-122830000D01*
X154414758Y-122364228D01*
X154417500Y-122314399D01*
X154428920Y-122265673D01*
X154437961Y-122247480D01*
X154476601Y-122215786D01*
X154509036Y-122210600D01*
X154557844Y-122221279D01*
X154595274Y-122253318D01*
X154599406Y-122259204D01*
X154620122Y-122304503D01*
X154629870Y-122356979D01*
X154631401Y-122392316D01*
X154631401Y-122830000D01*
X154830459Y-122830000D01*
X154830459Y-121767055D01*
G37*
G36*
X154012246Y-122955052D02*
G01*
X153990264Y-122955052D01*
X153969748Y-122955052D01*
X153919722Y-122953893D01*
X153889147Y-122951388D01*
X153842596Y-122935721D01*
X153838833Y-122933070D01*
X153807631Y-122894762D01*
X153803662Y-122887152D01*
X153783378Y-122840955D01*
X153767514Y-122799225D01*
X154058652Y-122064054D01*
X153848115Y-122064054D01*
X153672993Y-122556448D01*
X153505686Y-122064054D01*
X153295149Y-122064054D01*
X153612909Y-122905959D01*
X153632637Y-122952335D01*
X153655918Y-122995718D01*
X153663223Y-123007564D01*
X153694378Y-123047449D01*
X153731973Y-123079177D01*
X153737473Y-123082791D01*
X153783479Y-123103302D01*
X153834650Y-123111116D01*
X153846649Y-123111367D01*
X154012246Y-123111367D01*
X154012246Y-122955052D01*
G37*
G36*
X152847452Y-122845631D02*
G01*
X152896808Y-122844008D01*
X152948156Y-122839140D01*
X153001496Y-122831025D01*
X153056829Y-122819665D01*
X153104461Y-122807719D01*
X153133704Y-122799469D01*
X153133704Y-122628011D01*
X153083212Y-122654157D01*
X153032668Y-122674894D01*
X152982072Y-122690221D01*
X152931425Y-122700139D01*
X152880727Y-122704647D01*
X152863816Y-122704947D01*
X152808904Y-122700962D01*
X152758120Y-122684125D01*
X152726328Y-122645654D01*
X152722888Y-122621660D01*
X152741710Y-122574674D01*
X152756349Y-122562554D01*
X152801656Y-122541427D01*
X152851184Y-122527344D01*
X152870655Y-122522986D01*
X152925854Y-122510530D01*
X152977488Y-122496322D01*
X153032350Y-122472948D01*
X153076454Y-122443337D01*
X153109801Y-122407489D01*
X153135619Y-122356238D01*
X153145300Y-122306668D01*
X153146161Y-122285094D01*
X153141062Y-122231360D01*
X153125766Y-122184221D01*
X153096370Y-122139073D01*
X153064584Y-122109727D01*
X153019078Y-122082906D01*
X152971722Y-122065724D01*
X152917331Y-122054409D01*
X152865110Y-122049380D01*
X152827424Y-122048422D01*
X152778373Y-122050115D01*
X152726361Y-122055725D01*
X152707989Y-122058681D01*
X152659478Y-122068950D01*
X152609596Y-122083090D01*
X152586112Y-122090921D01*
X152586112Y-122265554D01*
X152630568Y-122238191D01*
X152676946Y-122215835D01*
X152701150Y-122206936D01*
X152749650Y-122194748D01*
X152799832Y-122189385D01*
X152814479Y-122189106D01*
X152864844Y-122192371D01*
X152912556Y-122205354D01*
X152919748Y-122208890D01*
X152953711Y-122244395D01*
X152956628Y-122262135D01*
X152933732Y-122306265D01*
X152921946Y-122314891D01*
X152876578Y-122335957D01*
X152828847Y-122350234D01*
X152810327Y-122354703D01*
X152745358Y-122370334D01*
X152694113Y-122385340D01*
X152645330Y-122406856D01*
X152602139Y-122436518D01*
X152584891Y-122453621D01*
X152556106Y-122497301D01*
X152540307Y-122544623D01*
X152534530Y-122593412D01*
X152534332Y-122605052D01*
X152539225Y-122661438D01*
X152553902Y-122710305D01*
X152586009Y-122760817D01*
X152633405Y-122799583D01*
X152682330Y-122822137D01*
X152741040Y-122837173D01*
X152791494Y-122843517D01*
X152847452Y-122845631D01*
G37*
G36*
X152113258Y-121970265D02*
G01*
X152133774Y-121949748D01*
X152133774Y-121756308D01*
X152113258Y-121735792D01*
X151954011Y-121735792D01*
X151933495Y-121756308D01*
X151933495Y-121949748D01*
X151954011Y-121970265D01*
X152113258Y-121970265D01*
G37*
G36*
X151866328Y-122830000D02*
G01*
X151916918Y-122827441D01*
X151968842Y-122817987D01*
X152018824Y-122798654D01*
X152058822Y-122770222D01*
X152071248Y-122757215D01*
X152098603Y-122714946D01*
X152116128Y-122668518D01*
X152127668Y-122613279D01*
X152132797Y-122558917D01*
X152133774Y-122519078D01*
X152133774Y-122226231D01*
X152295707Y-122226231D01*
X152295707Y-122064054D01*
X151933495Y-122064054D01*
X151933495Y-122506622D01*
X151930728Y-122555995D01*
X151918858Y-122605775D01*
X151905163Y-122630697D01*
X151864185Y-122659665D01*
X151814497Y-122667786D01*
X151810397Y-122667822D01*
X151650417Y-122667822D01*
X151650417Y-122830000D01*
X151866328Y-122830000D01*
G37*
G36*
X151094765Y-122845631D02*
G01*
X151149578Y-122843073D01*
X151200443Y-122835399D01*
X151256271Y-122819436D01*
X151306414Y-122796106D01*
X151350873Y-122765409D01*
X151377354Y-122740851D01*
X151411635Y-122698573D01*
X151438823Y-122650508D01*
X151458919Y-122596655D01*
X151470247Y-122547357D01*
X151476650Y-122494040D01*
X151478226Y-122448492D01*
X151475781Y-122391660D01*
X151468447Y-122338860D01*
X151456223Y-122290090D01*
X151435100Y-122236887D01*
X151406936Y-122189488D01*
X151378087Y-122154424D01*
X151337830Y-122118400D01*
X151292163Y-122089829D01*
X151241087Y-122068712D01*
X151184601Y-122055047D01*
X151133397Y-122049354D01*
X151100871Y-122048422D01*
X151048136Y-122051251D01*
X150996359Y-122059736D01*
X150945540Y-122073878D01*
X150895680Y-122093676D01*
X150867619Y-122107529D01*
X150867619Y-122291688D01*
X150907590Y-122260092D01*
X150955904Y-122233485D01*
X151007027Y-122217014D01*
X151060959Y-122210679D01*
X151067898Y-122210600D01*
X151120773Y-122215488D01*
X151170776Y-122232384D01*
X151211572Y-122261350D01*
X151222016Y-122272393D01*
X151250094Y-122315966D01*
X151266473Y-122363909D01*
X151273961Y-122413468D01*
X151275260Y-122447759D01*
X151271948Y-122501065D01*
X151260302Y-122553298D01*
X151237529Y-122601727D01*
X151222260Y-122622149D01*
X151184698Y-122654478D01*
X151138263Y-122674833D01*
X151088886Y-122682915D01*
X151070829Y-122683454D01*
X151021118Y-122679772D01*
X150967911Y-122666549D01*
X150918551Y-122643708D01*
X150873038Y-122611251D01*
X150867619Y-122606517D01*
X150867619Y-122787990D01*
X150913300Y-122810450D01*
X150961225Y-122827393D01*
X151011394Y-122838820D01*
X151063807Y-122844730D01*
X151094765Y-122845631D01*
G37*
G36*
X150358145Y-122049734D02*
G01*
X150406943Y-122054208D01*
X150455337Y-122061856D01*
X150499115Y-122071897D01*
X150547546Y-122086745D01*
X150596265Y-122105575D01*
X150596265Y-122277522D01*
X150558995Y-122259250D01*
X150513337Y-122240275D01*
X150463397Y-122223789D01*
X150425446Y-122214580D01*
X150373463Y-122206989D01*
X150324423Y-122204738D01*
X150304184Y-122205298D01*
X150254570Y-122211821D01*
X150242442Y-122214924D01*
X150199615Y-122238688D01*
X150190212Y-122249816D01*
X150178122Y-122298039D01*
X150178122Y-122329790D01*
X150316852Y-122329790D01*
X150351290Y-122330447D01*
X150401573Y-122333893D01*
X150450208Y-122340293D01*
X150469731Y-122343928D01*
X150517476Y-122357397D01*
X150564025Y-122378394D01*
X150573229Y-122383767D01*
X150613708Y-122416554D01*
X150643160Y-122456064D01*
X150657210Y-122486566D01*
X150668790Y-122534508D01*
X150672225Y-122585757D01*
X150672153Y-122593561D01*
X150667630Y-122644986D01*
X150653846Y-122696887D01*
X150630872Y-122741461D01*
X150598708Y-122778709D01*
X150594069Y-122782826D01*
X150553761Y-122811059D01*
X150507775Y-122830926D01*
X150456110Y-122842429D01*
X150406244Y-122845631D01*
X150371379Y-122844043D01*
X150321599Y-122835709D01*
X150274842Y-122820230D01*
X150249311Y-122807666D01*
X150207045Y-122777201D01*
X150173969Y-122740851D01*
X150164688Y-122787257D01*
X150145882Y-122830000D01*
X149947556Y-122830000D01*
X149953218Y-122821461D01*
X149971004Y-122775533D01*
X149973964Y-122761273D01*
X149980529Y-122711297D01*
X149980649Y-122709325D01*
X149982483Y-122659762D01*
X149982472Y-122653988D01*
X149981750Y-122604808D01*
X149981396Y-122586069D01*
X149981018Y-122535198D01*
X149980856Y-122501462D01*
X149980566Y-122483907D01*
X150178122Y-122483907D01*
X150178136Y-122487143D01*
X150182258Y-122538716D01*
X150192776Y-122586734D01*
X150211023Y-122630780D01*
X150242602Y-122671486D01*
X150247107Y-122675538D01*
X150290979Y-122698542D01*
X150340787Y-122704947D01*
X150385006Y-122699244D01*
X150427982Y-122675150D01*
X150451246Y-122638941D01*
X150459001Y-122590397D01*
X150454673Y-122551918D01*
X150428226Y-122508087D01*
X150400682Y-122490909D01*
X150351290Y-122476824D01*
X150307798Y-122472266D01*
X150257989Y-122470474D01*
X150178122Y-122470474D01*
X150178122Y-122483907D01*
X149980566Y-122483907D01*
X149980041Y-122452156D01*
X149979660Y-122434703D01*
X149979064Y-122384012D01*
X149979827Y-122348853D01*
X149984223Y-122296841D01*
X149993840Y-122244568D01*
X150010327Y-122194235D01*
X150036645Y-122147749D01*
X150072949Y-122110382D01*
X150114618Y-122084326D01*
X150154430Y-122068618D01*
X150207101Y-122056311D01*
X150260926Y-122050140D01*
X150313432Y-122048422D01*
X150358145Y-122049734D01*
G37*
G36*
X149356489Y-122830000D02*
G01*
X149406995Y-122827415D01*
X149458844Y-122817866D01*
X149508769Y-122798338D01*
X149548741Y-122769621D01*
X149561164Y-122756482D01*
X149588519Y-122713786D01*
X149606044Y-122666884D01*
X149617584Y-122611077D01*
X149622713Y-122556154D01*
X149623690Y-122515903D01*
X149623690Y-121929232D01*
X149826656Y-121929232D01*
X149826656Y-121767055D01*
X149423411Y-121767055D01*
X149423411Y-122504912D01*
X149420644Y-122554825D01*
X149408775Y-122605091D01*
X149395079Y-122630209D01*
X149354223Y-122659558D01*
X149304428Y-122667786D01*
X149300313Y-122667822D01*
X149140334Y-122667822D01*
X149140334Y-122830000D01*
X149356489Y-122830000D01*
G37*
G36*
X147812874Y-122845631D02*
G01*
X147863402Y-122844105D01*
X147892986Y-122841723D01*
X147941624Y-122834739D01*
X147970899Y-122828534D01*
X148019309Y-122815769D01*
X148065619Y-122799759D01*
X148114137Y-122778402D01*
X148118422Y-122776266D01*
X148118422Y-122570614D01*
X148073155Y-122600444D01*
X148028854Y-122625637D01*
X147980764Y-122648191D01*
X147961862Y-122655610D01*
X147914607Y-122670293D01*
X147863838Y-122680164D01*
X147814339Y-122683454D01*
X147762625Y-122678680D01*
X147714185Y-122661042D01*
X147697347Y-122649504D01*
X147666572Y-122609143D01*
X147656354Y-122559659D01*
X147656314Y-122555959D01*
X147664970Y-122507530D01*
X147683669Y-122475847D01*
X147718352Y-122445073D01*
X147763048Y-122422358D01*
X147862211Y-122384989D01*
X147908517Y-122366342D01*
X147953227Y-122345774D01*
X147991415Y-122325150D01*
X148033554Y-122296542D01*
X148068596Y-122263600D01*
X148097061Y-122220424D01*
X148113665Y-122173775D01*
X148121730Y-122119745D01*
X148122574Y-122093363D01*
X148119448Y-122043560D01*
X148107901Y-121990840D01*
X148087846Y-121943917D01*
X148059282Y-121902791D01*
X148033669Y-121876964D01*
X147991391Y-121846320D01*
X147942989Y-121823202D01*
X147888462Y-121807611D01*
X147836850Y-121800238D01*
X147790404Y-121798318D01*
X147739365Y-121800020D01*
X147690692Y-121805129D01*
X147648498Y-121812728D01*
X147598009Y-121826215D01*
X147549916Y-121843285D01*
X147509280Y-121860600D01*
X147509280Y-122053796D01*
X147550403Y-122026917D01*
X147599908Y-122000676D01*
X147649585Y-121980996D01*
X147699433Y-121967875D01*
X147749453Y-121961315D01*
X147774528Y-121960495D01*
X147824914Y-121964582D01*
X147873504Y-121981187D01*
X147886147Y-121989560D01*
X147917548Y-122030183D01*
X147924981Y-122072358D01*
X147912675Y-122121395D01*
X147896405Y-122142212D01*
X147855616Y-122170055D01*
X147809935Y-122190752D01*
X147777947Y-122203272D01*
X147691241Y-122235757D01*
X147640244Y-122257024D01*
X147595605Y-122280863D01*
X147552374Y-122311256D01*
X147513665Y-122349463D01*
X147510013Y-122353970D01*
X147481913Y-122398861D01*
X147463009Y-122450553D01*
X147453927Y-122502210D01*
X147451883Y-122544480D01*
X147455103Y-122598089D01*
X147464763Y-122646443D01*
X147484172Y-122696215D01*
X147512347Y-122738834D01*
X147543474Y-122769672D01*
X147587671Y-122799269D01*
X147640119Y-122821597D01*
X147691642Y-122834949D01*
X147749227Y-122842961D01*
X147801845Y-122845557D01*
X147812874Y-122845631D01*
G37*
G36*
X146884018Y-122845631D02*
G01*
X146938831Y-122843073D01*
X146989696Y-122835399D01*
X147045524Y-122819436D01*
X147095667Y-122796106D01*
X147140126Y-122765409D01*
X147166607Y-122740851D01*
X147200888Y-122698573D01*
X147228076Y-122650508D01*
X147248172Y-122596655D01*
X147259500Y-122547357D01*
X147265903Y-122494040D01*
X147267480Y-122448492D01*
X147265035Y-122391660D01*
X147257700Y-122338860D01*
X147245476Y-122290090D01*
X147224353Y-122236887D01*
X147196189Y-122189488D01*
X147167340Y-122154424D01*
X147127083Y-122118400D01*
X147081416Y-122089829D01*
X147030340Y-122068712D01*
X146973854Y-122055047D01*
X146922650Y-122049354D01*
X146890124Y-122048422D01*
X146837389Y-122051251D01*
X146785612Y-122059736D01*
X146734794Y-122073878D01*
X146684934Y-122093676D01*
X146656872Y-122107529D01*
X146656872Y-122291688D01*
X146696843Y-122260092D01*
X146745158Y-122233485D01*
X146796281Y-122217014D01*
X146850213Y-122210679D01*
X146857152Y-122210600D01*
X146910026Y-122215488D01*
X146960029Y-122232384D01*
X147000825Y-122261350D01*
X147011269Y-122272393D01*
X147039347Y-122315966D01*
X147055726Y-122363909D01*
X147063214Y-122413468D01*
X147064514Y-122447759D01*
X147061201Y-122501065D01*
X147049556Y-122553298D01*
X147026782Y-122601727D01*
X147011513Y-122622149D01*
X146973951Y-122654478D01*
X146927516Y-122674833D01*
X146878139Y-122682915D01*
X146860083Y-122683454D01*
X146810371Y-122679772D01*
X146757164Y-122666549D01*
X146707804Y-122643708D01*
X146662291Y-122611251D01*
X146656872Y-122606517D01*
X146656872Y-122787990D01*
X146702554Y-122810450D01*
X146750479Y-122827393D01*
X146800648Y-122838820D01*
X146853061Y-122844730D01*
X146884018Y-122845631D01*
G37*
G36*
X146218212Y-121970265D02*
G01*
X146238729Y-121949748D01*
X146238729Y-121756308D01*
X146218212Y-121735792D01*
X146058966Y-121735792D01*
X146038450Y-121756308D01*
X146038450Y-121949748D01*
X146058966Y-121970265D01*
X146218212Y-121970265D01*
G37*
G36*
X145971283Y-122830000D02*
G01*
X146021873Y-122827441D01*
X146073796Y-122817987D01*
X146123778Y-122798654D01*
X146163777Y-122770222D01*
X146176203Y-122757215D01*
X146203558Y-122714946D01*
X146221082Y-122668518D01*
X146232623Y-122613279D01*
X146237752Y-122558917D01*
X146238729Y-122519078D01*
X146238729Y-122226231D01*
X146400662Y-122226231D01*
X146400662Y-122064054D01*
X146038450Y-122064054D01*
X146038450Y-122506622D01*
X146035683Y-122555995D01*
X146023813Y-122605775D01*
X146010117Y-122630697D01*
X145969139Y-122659665D01*
X145919451Y-122667786D01*
X145915351Y-122667822D01*
X145755372Y-122667822D01*
X145755372Y-122830000D01*
X145971283Y-122830000D01*
G37*
G36*
X145263301Y-122048619D02*
G01*
X145315671Y-122052402D01*
X145363973Y-122061001D01*
X145414195Y-122076724D01*
X145459106Y-122098736D01*
X145489236Y-122118938D01*
X145528926Y-122154586D01*
X145562008Y-122196647D01*
X145585868Y-122239420D01*
X145590984Y-122250838D01*
X145608150Y-122298931D01*
X145620034Y-122350901D01*
X145626100Y-122399556D01*
X145628122Y-122451179D01*
X145626515Y-122497699D01*
X145619988Y-122551879D01*
X145608440Y-122601646D01*
X145587955Y-122655541D01*
X145560240Y-122703083D01*
X145525295Y-122744270D01*
X145490849Y-122773471D01*
X145443404Y-122801979D01*
X145389297Y-122823359D01*
X145339117Y-122835733D01*
X145284311Y-122843156D01*
X145224877Y-122845631D01*
X145206468Y-122845404D01*
X145151619Y-122841998D01*
X145097337Y-122834505D01*
X145043622Y-122822924D01*
X144990473Y-122807256D01*
X144937891Y-122787501D01*
X144937891Y-122607250D01*
X144955376Y-122616478D01*
X145007714Y-122640589D01*
X145059881Y-122659342D01*
X145111876Y-122672738D01*
X145163700Y-122680775D01*
X145215351Y-122683454D01*
X145252715Y-122681994D01*
X145306820Y-122673073D01*
X145358271Y-122651664D01*
X145395022Y-122618577D01*
X145417073Y-122573812D01*
X145424423Y-122517369D01*
X144905651Y-122517369D01*
X144905651Y-122435547D01*
X144905692Y-122428355D01*
X144908277Y-122379570D01*
X144911060Y-122361053D01*
X145107396Y-122361053D01*
X145422469Y-122361053D01*
X145419274Y-122339272D01*
X145403209Y-122290230D01*
X145373376Y-122249678D01*
X145356589Y-122236398D01*
X145308671Y-122216095D01*
X145257849Y-122210600D01*
X145240241Y-122211195D01*
X145190288Y-122221353D01*
X145146475Y-122248702D01*
X145133194Y-122264261D01*
X145112891Y-122310449D01*
X145107396Y-122361053D01*
X144911060Y-122361053D01*
X144916154Y-122327165D01*
X144929282Y-122278331D01*
X144947661Y-122233070D01*
X144961636Y-122206828D01*
X144991058Y-122164281D01*
X145025967Y-122127762D01*
X145066363Y-122097271D01*
X145096027Y-122080670D01*
X145144258Y-122062209D01*
X145196972Y-122051475D01*
X145247591Y-122048422D01*
X145263301Y-122048619D01*
G37*
G36*
X144724667Y-122064054D02*
G01*
X144545393Y-122064054D01*
X144525609Y-122181046D01*
X144503070Y-122133971D01*
X144470776Y-122096731D01*
X144452581Y-122082861D01*
X144407158Y-122060563D01*
X144358575Y-122050070D01*
X144327284Y-122048422D01*
X144277230Y-122052987D01*
X144228545Y-122069033D01*
X144187937Y-122096633D01*
X144165351Y-122121451D01*
X144138550Y-122167744D01*
X144122090Y-122217879D01*
X144113373Y-122268684D01*
X144109962Y-122325964D01*
X144109908Y-122334675D01*
X144109908Y-122830000D01*
X144308966Y-122830000D01*
X144308966Y-122365205D01*
X144311679Y-122315069D01*
X144322979Y-122266035D01*
X144331925Y-122247725D01*
X144370145Y-122215820D01*
X144402511Y-122210600D01*
X144451373Y-122221387D01*
X144488964Y-122253748D01*
X144493125Y-122259692D01*
X144514157Y-122305425D01*
X144524055Y-122358016D01*
X144525609Y-122393293D01*
X144525609Y-122830000D01*
X144724667Y-122830000D01*
X144724667Y-122064054D01*
G37*
G36*
X143515421Y-122845631D02*
G01*
X143570234Y-122843073D01*
X143621099Y-122835399D01*
X143676927Y-122819436D01*
X143727070Y-122796106D01*
X143771529Y-122765409D01*
X143798010Y-122740851D01*
X143832291Y-122698573D01*
X143859479Y-122650508D01*
X143879575Y-122596655D01*
X143890903Y-122547357D01*
X143897306Y-122494040D01*
X143898882Y-122448492D01*
X143896437Y-122391660D01*
X143889103Y-122338860D01*
X143876879Y-122290090D01*
X143855756Y-122236887D01*
X143827591Y-122189488D01*
X143798743Y-122154424D01*
X143758486Y-122118400D01*
X143712819Y-122089829D01*
X143661742Y-122068712D01*
X143605257Y-122055047D01*
X143554053Y-122049354D01*
X143521527Y-122048422D01*
X143468792Y-122051251D01*
X143417015Y-122059736D01*
X143366196Y-122073878D01*
X143316336Y-122093676D01*
X143288275Y-122107529D01*
X143288275Y-122291688D01*
X143328246Y-122260092D01*
X143376560Y-122233485D01*
X143427683Y-122217014D01*
X143481615Y-122210679D01*
X143488554Y-122210600D01*
X143541429Y-122215488D01*
X143591432Y-122232384D01*
X143632228Y-122261350D01*
X143642671Y-122272393D01*
X143670750Y-122315966D01*
X143687129Y-122363909D01*
X143694617Y-122413468D01*
X143695916Y-122447759D01*
X143692604Y-122501065D01*
X143680958Y-122553298D01*
X143658184Y-122601727D01*
X143642916Y-122622149D01*
X143605354Y-122654478D01*
X143558919Y-122674833D01*
X143509541Y-122682915D01*
X143491485Y-122683454D01*
X143441774Y-122679772D01*
X143388567Y-122666549D01*
X143339207Y-122643708D01*
X143293694Y-122611251D01*
X143288275Y-122606517D01*
X143288275Y-122787990D01*
X143333956Y-122810450D01*
X143381881Y-122827393D01*
X143432050Y-122838820D01*
X143484463Y-122844730D01*
X143515421Y-122845631D01*
G37*
G36*
X142736853Y-122048619D02*
G01*
X142789223Y-122052402D01*
X142837525Y-122061001D01*
X142887747Y-122076724D01*
X142932658Y-122098736D01*
X142962788Y-122118938D01*
X143002478Y-122154586D01*
X143035560Y-122196647D01*
X143059420Y-122239420D01*
X143064536Y-122250838D01*
X143081702Y-122298931D01*
X143093586Y-122350901D01*
X143099652Y-122399556D01*
X143101674Y-122451179D01*
X143100067Y-122497699D01*
X143093540Y-122551879D01*
X143081992Y-122601646D01*
X143061507Y-122655541D01*
X143033792Y-122703083D01*
X142998847Y-122744270D01*
X142964401Y-122773471D01*
X142916956Y-122801979D01*
X142862849Y-122823359D01*
X142812669Y-122835733D01*
X142757863Y-122843156D01*
X142698429Y-122845631D01*
X142680020Y-122845404D01*
X142625171Y-122841998D01*
X142570889Y-122834505D01*
X142517174Y-122822924D01*
X142464025Y-122807256D01*
X142411443Y-122787501D01*
X142411443Y-122607250D01*
X142428928Y-122616478D01*
X142481266Y-122640589D01*
X142533433Y-122659342D01*
X142585428Y-122672738D01*
X142637252Y-122680775D01*
X142688903Y-122683454D01*
X142726267Y-122681994D01*
X142780372Y-122673073D01*
X142831823Y-122651664D01*
X142868574Y-122618577D01*
X142890625Y-122573812D01*
X142897975Y-122517369D01*
X142379203Y-122517369D01*
X142379203Y-122435547D01*
X142379244Y-122428355D01*
X142381829Y-122379570D01*
X142384612Y-122361053D01*
X142580948Y-122361053D01*
X142896021Y-122361053D01*
X142892826Y-122339272D01*
X142876761Y-122290230D01*
X142846928Y-122249678D01*
X142830141Y-122236398D01*
X142782223Y-122216095D01*
X142731401Y-122210600D01*
X142713793Y-122211195D01*
X142663840Y-122221353D01*
X142620027Y-122248702D01*
X142606746Y-122264261D01*
X142586443Y-122310449D01*
X142580948Y-122361053D01*
X142384612Y-122361053D01*
X142389706Y-122327165D01*
X142402834Y-122278331D01*
X142421213Y-122233070D01*
X142435188Y-122206828D01*
X142464610Y-122164281D01*
X142499519Y-122127762D01*
X142539915Y-122097271D01*
X142569579Y-122080670D01*
X142617810Y-122062209D01*
X142670524Y-122051475D01*
X142721143Y-122048422D01*
X142736853Y-122048619D01*
G37*
G36*
X141899510Y-122845631D02*
G01*
X141948866Y-122844008D01*
X142000215Y-122839140D01*
X142053555Y-122831025D01*
X142108887Y-122819665D01*
X142156520Y-122807719D01*
X142185763Y-122799469D01*
X142185763Y-122628011D01*
X142135270Y-122654157D01*
X142084727Y-122674894D01*
X142034131Y-122690221D01*
X141983484Y-122700139D01*
X141932786Y-122704647D01*
X141915875Y-122704947D01*
X141860962Y-122700962D01*
X141810178Y-122684125D01*
X141778387Y-122645654D01*
X141774946Y-122621660D01*
X141793768Y-122574674D01*
X141808408Y-122562554D01*
X141853715Y-122541427D01*
X141903243Y-122527344D01*
X141922713Y-122522986D01*
X141977912Y-122510530D01*
X142029547Y-122496322D01*
X142084408Y-122472948D01*
X142128513Y-122443337D01*
X142161860Y-122407489D01*
X142187677Y-122356238D01*
X142197359Y-122306668D01*
X142198219Y-122285094D01*
X142193121Y-122231360D01*
X142177825Y-122184221D01*
X142148429Y-122139073D01*
X142116642Y-122109727D01*
X142071137Y-122082906D01*
X142023781Y-122065724D01*
X141969390Y-122054409D01*
X141917168Y-122049380D01*
X141879482Y-122048422D01*
X141830432Y-122050115D01*
X141778420Y-122055725D01*
X141760048Y-122058681D01*
X141711537Y-122068950D01*
X141661655Y-122083090D01*
X141638170Y-122090921D01*
X141638170Y-122265554D01*
X141682626Y-122238191D01*
X141729004Y-122215835D01*
X141753209Y-122206936D01*
X141801708Y-122194748D01*
X141851891Y-122189385D01*
X141866538Y-122189106D01*
X141916903Y-122192371D01*
X141964614Y-122205354D01*
X141971806Y-122208890D01*
X142005770Y-122244395D01*
X142008687Y-122262135D01*
X141985791Y-122306265D01*
X141974004Y-122314891D01*
X141928636Y-122335957D01*
X141880906Y-122350234D01*
X141862385Y-122354703D01*
X141797417Y-122370334D01*
X141746172Y-122385340D01*
X141697389Y-122406856D01*
X141654198Y-122436518D01*
X141636949Y-122453621D01*
X141608165Y-122497301D01*
X141592365Y-122544623D01*
X141586588Y-122593412D01*
X141586391Y-122605052D01*
X141591283Y-122661438D01*
X141605961Y-122710305D01*
X141638068Y-122760817D01*
X141685464Y-122799583D01*
X141734389Y-122822137D01*
X141793099Y-122837173D01*
X141843552Y-122843517D01*
X141899510Y-122845631D01*
G37*
G36*
X140537856Y-122830000D02*
G01*
X140321702Y-122830000D01*
X140261362Y-122828130D01*
X140205396Y-122822520D01*
X140153804Y-122813170D01*
X140095463Y-122796223D01*
X140043956Y-122773432D01*
X139999283Y-122744798D01*
X139961443Y-122710321D01*
X139941801Y-122686528D01*
X139913358Y-122641062D01*
X139890281Y-122588334D01*
X139875684Y-122540923D01*
X139864521Y-122488863D01*
X139856793Y-122432154D01*
X139852500Y-122370798D01*
X139851534Y-122321730D01*
X139851541Y-122320997D01*
X140061339Y-122320997D01*
X140062129Y-122363076D01*
X140066276Y-122420269D01*
X140073978Y-122470352D01*
X140087457Y-122519796D01*
X140111897Y-122569148D01*
X140141450Y-122601205D01*
X140184916Y-122626321D01*
X140232635Y-122638915D01*
X140281401Y-122642421D01*
X140336112Y-122642421D01*
X140336112Y-122001528D01*
X140281401Y-122001528D01*
X140245707Y-122003305D01*
X140195691Y-122013540D01*
X140149859Y-122035930D01*
X140111897Y-122074312D01*
X140089778Y-122117207D01*
X140075608Y-122165009D01*
X140067313Y-122213609D01*
X140062573Y-122269251D01*
X140061339Y-122320997D01*
X139851541Y-122320997D01*
X139851781Y-122296179D01*
X139854277Y-122239432D01*
X139859461Y-122186705D01*
X139867333Y-122137998D01*
X139879622Y-122087257D01*
X139885072Y-122069503D01*
X139904180Y-122020258D01*
X139930259Y-121972612D01*
X139961443Y-121932407D01*
X139968420Y-121925119D01*
X140007448Y-121892150D01*
X140053380Y-121864965D01*
X140106218Y-121843564D01*
X140153460Y-121830607D01*
X140205121Y-121821353D01*
X140261202Y-121815800D01*
X140321702Y-121813949D01*
X140537856Y-121813949D01*
X140537856Y-122830000D01*
G37*
G36*
X139368256Y-122048619D02*
G01*
X139420625Y-122052402D01*
X139468928Y-122061001D01*
X139519150Y-122076724D01*
X139564060Y-122098736D01*
X139594191Y-122118938D01*
X139633880Y-122154586D01*
X139666963Y-122196647D01*
X139690822Y-122239420D01*
X139695939Y-122250838D01*
X139713105Y-122298931D01*
X139724989Y-122350901D01*
X139731054Y-122399556D01*
X139733076Y-122451179D01*
X139731470Y-122497699D01*
X139724943Y-122551879D01*
X139713395Y-122601646D01*
X139692910Y-122655541D01*
X139665195Y-122703083D01*
X139630250Y-122744270D01*
X139595803Y-122773471D01*
X139548359Y-122801979D01*
X139494252Y-122823359D01*
X139444072Y-122835733D01*
X139389265Y-122843156D01*
X139329831Y-122845631D01*
X139311422Y-122845404D01*
X139256574Y-122841998D01*
X139202292Y-122834505D01*
X139148576Y-122822924D01*
X139095428Y-122807256D01*
X139042846Y-122787501D01*
X139042846Y-122607250D01*
X139060330Y-122616478D01*
X139112669Y-122640589D01*
X139164836Y-122659342D01*
X139216831Y-122672738D01*
X139268654Y-122680775D01*
X139320306Y-122683454D01*
X139357669Y-122681994D01*
X139411775Y-122673073D01*
X139463226Y-122651664D01*
X139499977Y-122618577D01*
X139522028Y-122573812D01*
X139529378Y-122517369D01*
X139010606Y-122517369D01*
X139010606Y-122435547D01*
X139010647Y-122428355D01*
X139013232Y-122379570D01*
X139016015Y-122361053D01*
X139212350Y-122361053D01*
X139527424Y-122361053D01*
X139524229Y-122339272D01*
X139508164Y-122290230D01*
X139478331Y-122249678D01*
X139461544Y-122236398D01*
X139413626Y-122216095D01*
X139362804Y-122210600D01*
X139345196Y-122211195D01*
X139295243Y-122221353D01*
X139251429Y-122248702D01*
X139238149Y-122264261D01*
X139217846Y-122310449D01*
X139212350Y-122361053D01*
X139016015Y-122361053D01*
X139021108Y-122327165D01*
X139034236Y-122278331D01*
X139052616Y-122233070D01*
X139066590Y-122206828D01*
X139096013Y-122164281D01*
X139130922Y-122127762D01*
X139171318Y-122097271D01*
X139200982Y-122080670D01*
X139249213Y-122062209D01*
X139301927Y-122051475D01*
X139352546Y-122048422D01*
X139368256Y-122048619D01*
G37*
G36*
X138483215Y-122051642D02*
G01*
X138535638Y-122066970D01*
X138580721Y-122094919D01*
X138618464Y-122135491D01*
X138644974Y-122180314D01*
X138664758Y-122064054D01*
X138844521Y-122064054D01*
X138844521Y-123111367D01*
X138644974Y-123111367D01*
X138644974Y-122722288D01*
X138626381Y-122751197D01*
X138588995Y-122792512D01*
X138545438Y-122822022D01*
X138495710Y-122839729D01*
X138439810Y-122845631D01*
X138408730Y-122843986D01*
X138358455Y-122833192D01*
X138313415Y-122812323D01*
X138273611Y-122781380D01*
X138239043Y-122740362D01*
X138217934Y-122705398D01*
X138197326Y-122658183D01*
X138181870Y-122605232D01*
X138172925Y-122556724D01*
X138167559Y-122504233D01*
X138165770Y-122447759D01*
X138165893Y-122442875D01*
X138366049Y-122442875D01*
X138366979Y-122476200D01*
X138372337Y-122524957D01*
X138384058Y-122573094D01*
X138404151Y-122618241D01*
X138416590Y-122637028D01*
X138454623Y-122670972D01*
X138504779Y-122683454D01*
X138527708Y-122681187D01*
X138574331Y-122658266D01*
X138606628Y-122618974D01*
X138617675Y-122597710D01*
X138634152Y-122548957D01*
X138642578Y-122497982D01*
X138644974Y-122447027D01*
X138644635Y-122427298D01*
X138639548Y-122372620D01*
X138626734Y-122319798D01*
X138606384Y-122275324D01*
X138590985Y-122253328D01*
X138551259Y-122221282D01*
X138502825Y-122210600D01*
X138479881Y-122212789D01*
X138433826Y-122234929D01*
X138402685Y-122272882D01*
X138392131Y-122293389D01*
X138376389Y-122341131D01*
X138368339Y-122391767D01*
X138366049Y-122442875D01*
X138165893Y-122442875D01*
X138166915Y-122402254D01*
X138171566Y-122348936D01*
X138179795Y-122299577D01*
X138194392Y-122245572D01*
X138214141Y-122197269D01*
X138239043Y-122154668D01*
X138258178Y-122129767D01*
X138295888Y-122094179D01*
X138338974Y-122068758D01*
X138387437Y-122053506D01*
X138441276Y-122048422D01*
X138483215Y-122051642D01*
G37*
G36*
X137725905Y-122049734D02*
G01*
X137774703Y-122054208D01*
X137823097Y-122061856D01*
X137866875Y-122071897D01*
X137915306Y-122086745D01*
X137964025Y-122105575D01*
X137964025Y-122277522D01*
X137926755Y-122259250D01*
X137881097Y-122240275D01*
X137831157Y-122223789D01*
X137793206Y-122214580D01*
X137741223Y-122206989D01*
X137692183Y-122204738D01*
X137671944Y-122205298D01*
X137622330Y-122211821D01*
X137610202Y-122214924D01*
X137567375Y-122238688D01*
X137557972Y-122249816D01*
X137545882Y-122298039D01*
X137545882Y-122329790D01*
X137684611Y-122329790D01*
X137719050Y-122330447D01*
X137769333Y-122333893D01*
X137817968Y-122340293D01*
X137837491Y-122343928D01*
X137885236Y-122357397D01*
X137931785Y-122378394D01*
X137940989Y-122383767D01*
X137981468Y-122416554D01*
X138010920Y-122456064D01*
X138024970Y-122486566D01*
X138036550Y-122534508D01*
X138039985Y-122585757D01*
X138039913Y-122593561D01*
X138035390Y-122644986D01*
X138021606Y-122696887D01*
X137998631Y-122741461D01*
X137966468Y-122778709D01*
X137961829Y-122782826D01*
X137921521Y-122811059D01*
X137875534Y-122830926D01*
X137823869Y-122842429D01*
X137774004Y-122845631D01*
X137739139Y-122844043D01*
X137689359Y-122835709D01*
X137642602Y-122820230D01*
X137617071Y-122807666D01*
X137574805Y-122777201D01*
X137541729Y-122740851D01*
X137532448Y-122787257D01*
X137513641Y-122830000D01*
X137315316Y-122830000D01*
X137320978Y-122821461D01*
X137338764Y-122775533D01*
X137341724Y-122761273D01*
X137348289Y-122711297D01*
X137348409Y-122709325D01*
X137350243Y-122659762D01*
X137350232Y-122653988D01*
X137349510Y-122604808D01*
X137349156Y-122586069D01*
X137348778Y-122535198D01*
X137348616Y-122501462D01*
X137348326Y-122483907D01*
X137545882Y-122483907D01*
X137545896Y-122487143D01*
X137550017Y-122538716D01*
X137560536Y-122586734D01*
X137578783Y-122630780D01*
X137610362Y-122671486D01*
X137614867Y-122675538D01*
X137658739Y-122698542D01*
X137708547Y-122704947D01*
X137752766Y-122699244D01*
X137795742Y-122675150D01*
X137819006Y-122638941D01*
X137826761Y-122590397D01*
X137822433Y-122551918D01*
X137795986Y-122508087D01*
X137768442Y-122490909D01*
X137719050Y-122476824D01*
X137675558Y-122472266D01*
X137625749Y-122470474D01*
X137545882Y-122470474D01*
X137545882Y-122483907D01*
X137348326Y-122483907D01*
X137347801Y-122452156D01*
X137347420Y-122434703D01*
X137346824Y-122384012D01*
X137347587Y-122348853D01*
X137351983Y-122296841D01*
X137361600Y-122244568D01*
X137378087Y-122194235D01*
X137404405Y-122147749D01*
X137440709Y-122110382D01*
X137482378Y-122084326D01*
X137522190Y-122068618D01*
X137574861Y-122056311D01*
X137628686Y-122050140D01*
X137681192Y-122048422D01*
X137725905Y-122049734D01*
G37*
G36*
X137097940Y-122064054D02*
G01*
X136917689Y-122064054D01*
X136897661Y-122179581D01*
X136871317Y-122136934D01*
X136836249Y-122102049D01*
X136808024Y-122083105D01*
X136759675Y-122061970D01*
X136710226Y-122051166D01*
X136666119Y-122048422D01*
X136614670Y-122051952D01*
X136565655Y-122062543D01*
X136519072Y-122080193D01*
X136510048Y-122084570D01*
X136510048Y-122277278D01*
X136550643Y-122245046D01*
X136597692Y-122223362D01*
X136651193Y-122212228D01*
X136683704Y-122210600D01*
X136734828Y-122214511D01*
X136783627Y-122227850D01*
X136824632Y-122250655D01*
X136859345Y-122285494D01*
X136882518Y-122330294D01*
X136891555Y-122365694D01*
X136895951Y-122408681D01*
X136897579Y-122457631D01*
X136897661Y-122474382D01*
X136897661Y-122830000D01*
X137097940Y-122830000D01*
X137097940Y-122064054D01*
G37*
G36*
X135855233Y-122830000D02*
G01*
X135908600Y-122828580D01*
X135961339Y-122823589D01*
X136010874Y-122813829D01*
X136032064Y-122807285D01*
X136077890Y-122783229D01*
X136113447Y-122745242D01*
X136122678Y-122728639D01*
X136138902Y-122681000D01*
X136146701Y-122632328D01*
X136149275Y-122581548D01*
X136149301Y-122575498D01*
X136149301Y-122226231D01*
X136344695Y-122226231D01*
X136344695Y-122064054D01*
X136149301Y-122064054D01*
X136149301Y-121855715D01*
X135949022Y-121767055D01*
X135949022Y-122064054D01*
X135687193Y-122064054D01*
X135687193Y-122226231D01*
X135949022Y-122226231D01*
X135949022Y-122575987D01*
X135939981Y-122624233D01*
X135923376Y-122646329D01*
X135876358Y-122665283D01*
X135841066Y-122667822D01*
X135687193Y-122667822D01*
X135687193Y-122830000D01*
X135855233Y-122830000D01*
G37*
G36*
X135522330Y-122064054D02*
G01*
X135396789Y-122064054D01*
X135376761Y-122149539D01*
X135352700Y-122104985D01*
X135322539Y-122075289D01*
X135278464Y-122053565D01*
X135240229Y-122048422D01*
X135191482Y-122056418D01*
X135153279Y-122076755D01*
X135119722Y-122112681D01*
X135106872Y-122146608D01*
X135081059Y-122103652D01*
X135043443Y-122069996D01*
X134996747Y-122051874D01*
X134960571Y-122048422D01*
X134910959Y-122053755D01*
X134862969Y-122074755D01*
X134828890Y-122111686D01*
X134826482Y-122115833D01*
X134808299Y-122165872D01*
X134798272Y-122220980D01*
X134792541Y-122279489D01*
X134789787Y-122336197D01*
X134788905Y-122386767D01*
X134788868Y-122400132D01*
X134788868Y-122830000D01*
X134952999Y-122830000D01*
X134952999Y-122345666D01*
X134954529Y-122295312D01*
X134961545Y-122246740D01*
X134965944Y-122233803D01*
X135007460Y-122204993D01*
X135013816Y-122204738D01*
X135057615Y-122228007D01*
X135060222Y-122233070D01*
X135071874Y-122283963D01*
X135074576Y-122335666D01*
X135074632Y-122345666D01*
X135074632Y-122830000D01*
X135236810Y-122830000D01*
X135236810Y-122345666D01*
X135238426Y-122296524D01*
X135245839Y-122247559D01*
X135250487Y-122233803D01*
X135291402Y-122204993D01*
X135297626Y-122204738D01*
X135342234Y-122226803D01*
X135344765Y-122231605D01*
X135355825Y-122281038D01*
X135358322Y-122329889D01*
X135358443Y-122345666D01*
X135358443Y-122830000D01*
X135522330Y-122830000D01*
X135522330Y-122064054D01*
G37*
G36*
X134315360Y-122048619D02*
G01*
X134367729Y-122052402D01*
X134416032Y-122061001D01*
X134466254Y-122076724D01*
X134511164Y-122098736D01*
X134541295Y-122118938D01*
X134580984Y-122154586D01*
X134614067Y-122196647D01*
X134637926Y-122239420D01*
X134643043Y-122250838D01*
X134660209Y-122298931D01*
X134672093Y-122350901D01*
X134678158Y-122399556D01*
X134680180Y-122451179D01*
X134678574Y-122497699D01*
X134672047Y-122551879D01*
X134660499Y-122601646D01*
X134640014Y-122655541D01*
X134612299Y-122703083D01*
X134577354Y-122744270D01*
X134542907Y-122773471D01*
X134495463Y-122801979D01*
X134441356Y-122823359D01*
X134391176Y-122835733D01*
X134336369Y-122843156D01*
X134276935Y-122845631D01*
X134258526Y-122845404D01*
X134203678Y-122841998D01*
X134149396Y-122834505D01*
X134095680Y-122822924D01*
X134042532Y-122807256D01*
X133989950Y-122787501D01*
X133989950Y-122607250D01*
X134007434Y-122616478D01*
X134059773Y-122640589D01*
X134111940Y-122659342D01*
X134163935Y-122672738D01*
X134215758Y-122680775D01*
X134267410Y-122683454D01*
X134304773Y-122681994D01*
X134358879Y-122673073D01*
X134410330Y-122651664D01*
X134447081Y-122618577D01*
X134469132Y-122573812D01*
X134476482Y-122517369D01*
X133957710Y-122517369D01*
X133957710Y-122435547D01*
X133957751Y-122428355D01*
X133960335Y-122379570D01*
X133963118Y-122361053D01*
X134159454Y-122361053D01*
X134474528Y-122361053D01*
X134471333Y-122339272D01*
X134455268Y-122290230D01*
X134425435Y-122249678D01*
X134408648Y-122236398D01*
X134360730Y-122216095D01*
X134309908Y-122210600D01*
X134292300Y-122211195D01*
X134242347Y-122221353D01*
X134198533Y-122248702D01*
X134185253Y-122264261D01*
X134164950Y-122310449D01*
X134159454Y-122361053D01*
X133963118Y-122361053D01*
X133968212Y-122327165D01*
X133981340Y-122278331D01*
X133999720Y-122233070D01*
X134013694Y-122206828D01*
X134043117Y-122164281D01*
X134078026Y-122127762D01*
X134118422Y-122097271D01*
X134148086Y-122080670D01*
X134196317Y-122062209D01*
X134249031Y-122051475D01*
X134299650Y-122048422D01*
X134315360Y-122048619D01*
G37*
G36*
X133776726Y-122064054D02*
G01*
X133597452Y-122064054D01*
X133577668Y-122181046D01*
X133555129Y-122133971D01*
X133522835Y-122096731D01*
X133504639Y-122082861D01*
X133459217Y-122060563D01*
X133410633Y-122050070D01*
X133379343Y-122048422D01*
X133329288Y-122052987D01*
X133280604Y-122069033D01*
X133239996Y-122096633D01*
X133217410Y-122121451D01*
X133190609Y-122167744D01*
X133174149Y-122217879D01*
X133165432Y-122268684D01*
X133162021Y-122325964D01*
X133161967Y-122334675D01*
X133161967Y-122830000D01*
X133361025Y-122830000D01*
X133361025Y-122365205D01*
X133363738Y-122315069D01*
X133375038Y-122266035D01*
X133383983Y-122247725D01*
X133422204Y-122215820D01*
X133454570Y-122210600D01*
X133503431Y-122221387D01*
X133541023Y-122253748D01*
X133545184Y-122259692D01*
X133566216Y-122305425D01*
X133576114Y-122358016D01*
X133577668Y-122393293D01*
X133577668Y-122830000D01*
X133776726Y-122830000D01*
X133776726Y-122064054D01*
G37*
G36*
X132486635Y-122830000D02*
G01*
X132540002Y-122828580D01*
X132592742Y-122823589D01*
X132642277Y-122813829D01*
X132663467Y-122807285D01*
X132709293Y-122783229D01*
X132744849Y-122745242D01*
X132754081Y-122728639D01*
X132770304Y-122681000D01*
X132778104Y-122632328D01*
X132780678Y-122581548D01*
X132780704Y-122575498D01*
X132780704Y-122226231D01*
X132976098Y-122226231D01*
X132976098Y-122064054D01*
X132780704Y-122064054D01*
X132780704Y-121855715D01*
X132580424Y-121767055D01*
X132580424Y-122064054D01*
X132318596Y-122064054D01*
X132318596Y-122226231D01*
X132580424Y-122226231D01*
X132580424Y-122575987D01*
X132571383Y-122624233D01*
X132554779Y-122646329D01*
X132507761Y-122665283D01*
X132472469Y-122667822D01*
X132318596Y-122667822D01*
X132318596Y-122830000D01*
X132486635Y-122830000D01*
G37*
D11*
X143569295Y-114299623D02*
X143605010Y-114263909D01*
X143605010Y-114263909D02*
X143640724Y-114156766D01*
X143640724Y-114156766D02*
X143640724Y-114085338D01*
X143640724Y-114085338D02*
X143605010Y-113978195D01*
X143605010Y-113978195D02*
X143533581Y-113906766D01*
X143533581Y-113906766D02*
X143462152Y-113871052D01*
X143462152Y-113871052D02*
X143319295Y-113835338D01*
X143319295Y-113835338D02*
X143212152Y-113835338D01*
X143212152Y-113835338D02*
X143069295Y-113871052D01*
X143069295Y-113871052D02*
X142997867Y-113906766D01*
X142997867Y-113906766D02*
X142926438Y-113978195D01*
X142926438Y-113978195D02*
X142890724Y-114085338D01*
X142890724Y-114085338D02*
X142890724Y-114156766D01*
X142890724Y-114156766D02*
X142926438Y-114263909D01*
X142926438Y-114263909D02*
X142962152Y-114299623D01*
X143640724Y-115013909D02*
X143640724Y-114585338D01*
X143640724Y-114799623D02*
X142890724Y-114799623D01*
X142890724Y-114799623D02*
X142997867Y-114728195D01*
X142997867Y-114728195D02*
X143069295Y-114656766D01*
X143069295Y-114656766D02*
X143105010Y-114585338D01*
X142890724Y-115656767D02*
X142890724Y-115513909D01*
X142890724Y-115513909D02*
X142926438Y-115442481D01*
X142926438Y-115442481D02*
X142962152Y-115406767D01*
X142962152Y-115406767D02*
X143069295Y-115335338D01*
X143069295Y-115335338D02*
X143212152Y-115299624D01*
X143212152Y-115299624D02*
X143497867Y-115299624D01*
X143497867Y-115299624D02*
X143569295Y-115335338D01*
X143569295Y-115335338D02*
X143605010Y-115371052D01*
X143605010Y-115371052D02*
X143640724Y-115442481D01*
X143640724Y-115442481D02*
X143640724Y-115585338D01*
X143640724Y-115585338D02*
X143605010Y-115656767D01*
X143605010Y-115656767D02*
X143569295Y-115692481D01*
X143569295Y-115692481D02*
X143497867Y-115728195D01*
X143497867Y-115728195D02*
X143319295Y-115728195D01*
X143319295Y-115728195D02*
X143247867Y-115692481D01*
X143247867Y-115692481D02*
X143212152Y-115656767D01*
X143212152Y-115656767D02*
X143176438Y-115585338D01*
X143176438Y-115585338D02*
X143176438Y-115442481D01*
X143176438Y-115442481D02*
X143212152Y-115371052D01*
X143212152Y-115371052D02*
X143247867Y-115335338D01*
X143247867Y-115335338D02*
X143319295Y-115299624D01*
X146969295Y-114299623D02*
X147005010Y-114263909D01*
X147005010Y-114263909D02*
X147040724Y-114156766D01*
X147040724Y-114156766D02*
X147040724Y-114085338D01*
X147040724Y-114085338D02*
X147005010Y-113978195D01*
X147005010Y-113978195D02*
X146933581Y-113906766D01*
X146933581Y-113906766D02*
X146862152Y-113871052D01*
X146862152Y-113871052D02*
X146719295Y-113835338D01*
X146719295Y-113835338D02*
X146612152Y-113835338D01*
X146612152Y-113835338D02*
X146469295Y-113871052D01*
X146469295Y-113871052D02*
X146397867Y-113906766D01*
X146397867Y-113906766D02*
X146326438Y-113978195D01*
X146326438Y-113978195D02*
X146290724Y-114085338D01*
X146290724Y-114085338D02*
X146290724Y-114156766D01*
X146290724Y-114156766D02*
X146326438Y-114263909D01*
X146326438Y-114263909D02*
X146362152Y-114299623D01*
X147040724Y-115013909D02*
X147040724Y-114585338D01*
X147040724Y-114799623D02*
X146290724Y-114799623D01*
X146290724Y-114799623D02*
X146397867Y-114728195D01*
X146397867Y-114728195D02*
X146469295Y-114656766D01*
X146469295Y-114656766D02*
X146505010Y-114585338D01*
X146290724Y-115692481D02*
X146290724Y-115335338D01*
X146290724Y-115335338D02*
X146647867Y-115299624D01*
X146647867Y-115299624D02*
X146612152Y-115335338D01*
X146612152Y-115335338D02*
X146576438Y-115406767D01*
X146576438Y-115406767D02*
X146576438Y-115585338D01*
X146576438Y-115585338D02*
X146612152Y-115656767D01*
X146612152Y-115656767D02*
X146647867Y-115692481D01*
X146647867Y-115692481D02*
X146719295Y-115728195D01*
X146719295Y-115728195D02*
X146897867Y-115728195D01*
X146897867Y-115728195D02*
X146969295Y-115692481D01*
X146969295Y-115692481D02*
X147005010Y-115656767D01*
X147005010Y-115656767D02*
X147040724Y-115585338D01*
X147040724Y-115585338D02*
X147040724Y-115406767D01*
X147040724Y-115406767D02*
X147005010Y-115335338D01*
X147005010Y-115335338D02*
X146969295Y-115299624D01*
%TO.C,C16*%
X142830000Y-115970000D02*
X142830000Y-116590000D01*
X142830000Y-117830000D02*
X142830000Y-117210000D01*
X143770000Y-115970000D02*
X142830000Y-115970000D01*
X143770000Y-116590000D02*
X143770000Y-115970000D01*
X143770000Y-117210000D02*
X143770000Y-117830000D01*
X143770000Y-117830000D02*
X142830000Y-117830000D01*
%TO.C,C15*%
X146230000Y-115970000D02*
X147170000Y-115970000D01*
X146230000Y-116590000D02*
X146230000Y-115970000D01*
X146230000Y-117210000D02*
X146230000Y-117830000D01*
X146230000Y-117830000D02*
X147170000Y-117830000D01*
X147170000Y-115970000D02*
X147170000Y-116590000D01*
X147170000Y-117830000D02*
X147170000Y-117210000D01*
%TD*%
M02*
