%TF.GenerationSoftware,KiCad,Pcbnew,8.0.8+1*%
%TF.CreationDate,2025-01-21T14:06:51-05:00*%
%TF.ProjectId,powerSupplyBoard,706f7765-7253-4757-9070-6c79426f6172,02*%
%TF.SameCoordinates,Original*%
%TF.FileFunction,Soldermask,Top*%
%TF.FilePolarity,Negative*%
%FSLAX46Y46*%
G04 Gerber Fmt 4.6, Leading zero omitted, Abs format (unit mm)*
G04 Created by KiCad (PCBNEW 8.0.8+1) date 2025-01-21 14:06:51*
%MOMM*%
%LPD*%
G01*
G04 APERTURE LIST*
G04 Aperture macros list*
%AMRoundRect*
0 Rectangle with rounded corners*
0 $1 Rounding radius*
0 $2 $3 $4 $5 $6 $7 $8 $9 X,Y pos of 4 corners*
0 Add a 4 corners polygon primitive as box body*
4,1,4,$2,$3,$4,$5,$6,$7,$8,$9,$2,$3,0*
0 Add four circle primitives for the rounded corners*
1,1,$1+$1,$2,$3*
1,1,$1+$1,$4,$5*
1,1,$1+$1,$6,$7*
1,1,$1+$1,$8,$9*
0 Add four rect primitives between the rounded corners*
20,1,$1+$1,$2,$3,$4,$5,0*
20,1,$1+$1,$4,$5,$6,$7,0*
20,1,$1+$1,$6,$7,$8,$9,0*
20,1,$1+$1,$8,$9,$2,$3,0*%
%AMFreePoly0*
4,1,27,0.419134,0.596194,0.435355,0.585355,0.446194,0.569134,0.450000,0.550000,0.450000,-0.050000,0.446194,-0.069134,0.435355,-0.085355,0.419134,-0.096194,0.400000,-0.100000,-0.400000,-0.100000,-0.419134,-0.096194,-0.435355,-0.085355,-0.446194,-0.069134,-0.450000,-0.050000,-0.450000,0.050000,-0.446194,0.069134,-0.435355,0.085355,-0.419134,0.096194,-0.400000,0.100000,0.250000,0.100000,
0.250000,0.550000,0.253806,0.569134,0.264645,0.585355,0.280866,0.596194,0.300000,0.600000,0.400000,0.600000,0.419134,0.596194,0.419134,0.596194,$1*%
%AMFreePoly1*
4,1,27,0.419134,0.096194,0.435355,0.085355,0.446194,0.069134,0.450000,0.050000,0.450000,-0.550000,0.446194,-0.569134,0.435355,-0.585355,0.419134,-0.596194,0.400000,-0.600000,0.300000,-0.600000,0.280866,-0.596194,0.264645,-0.585355,0.253806,-0.569134,0.250000,-0.550000,0.250000,-0.100000,-0.400000,-0.100000,-0.419134,-0.096194,-0.435355,-0.085355,-0.446194,-0.069134,-0.450000,-0.050000,
-0.450000,0.050000,-0.446194,0.069134,-0.435355,0.085355,-0.419134,0.096194,-0.400000,0.100000,0.400000,0.100000,0.419134,0.096194,0.419134,0.096194,$1*%
%AMFreePoly2*
4,1,27,0.419134,0.096194,0.435355,0.085355,0.446194,0.069134,0.450000,0.050000,0.450000,-0.050000,0.446194,-0.069134,0.435355,-0.085355,0.419134,-0.096194,0.400000,-0.100000,-0.250000,-0.100000,-0.250000,-0.550000,-0.253806,-0.569134,-0.264645,-0.585355,-0.280866,-0.596194,-0.300000,-0.600000,-0.400000,-0.600000,-0.419134,-0.596194,-0.435355,-0.585355,-0.446194,-0.569134,-0.450000,-0.550000,
-0.450000,0.050000,-0.446194,0.069134,-0.435355,0.085355,-0.419134,0.096194,-0.400000,0.100000,0.400000,0.100000,0.419134,0.096194,0.419134,0.096194,$1*%
%AMFreePoly3*
4,1,27,-0.280866,0.596194,-0.264645,0.585355,-0.253806,0.569134,-0.250000,0.550000,-0.250000,0.100000,0.400000,0.100000,0.419134,0.096194,0.435355,0.085355,0.446194,0.069134,0.450000,0.050000,0.450000,-0.050000,0.446194,-0.069134,0.435355,-0.085355,0.419134,-0.096194,0.400000,-0.100000,-0.400000,-0.100000,-0.419134,-0.096194,-0.435355,-0.085355,-0.446194,-0.069134,-0.450000,-0.050000,
-0.450000,0.550000,-0.446194,0.569134,-0.435355,0.585355,-0.419134,0.596194,-0.400000,0.600000,-0.300000,0.600000,-0.280866,0.596194,-0.280866,0.596194,$1*%
%AMFreePoly4*
4,1,45,0.398918,0.120242,0.419194,0.106694,0.432742,0.086418,0.437500,0.062500,0.437500,-0.062500,0.432742,-0.086418,0.419194,-0.106694,0.398918,-0.120242,0.387500,-0.122513,0.387500,-0.457574,0.386539,-0.467331,0.384682,-0.476664,0.377216,-0.494688,0.374720,-0.498424,0.360925,-0.512219,0.357188,-0.514716,0.339164,-0.522182,0.329830,-0.524039,0.320075,-0.525000,0.204926,-0.525000,
0.195169,-0.524039,0.185836,-0.522182,0.167812,-0.514716,0.164076,-0.512220,0.150281,-0.498425,0.147784,-0.494688,0.140318,-0.476664,0.138461,-0.467330,0.137500,-0.457575,0.137500,-0.175000,0.135597,-0.155078,0.107500,-0.126903,0.087500,-0.125000,-0.375000,-0.125000,-0.398918,-0.120242,-0.419194,-0.106694,-0.432742,-0.086418,-0.437500,-0.062500,-0.437500,0.062500,-0.432742,0.086418,
-0.419194,0.106694,-0.398918,0.120242,-0.375000,0.125000,0.375000,0.125000,0.398918,0.120242,0.398918,0.120242,$1*%
%AMFreePoly5*
4,1,45,0.398918,0.120242,0.419194,0.106694,0.432742,0.086418,0.437500,0.062500,0.437500,-0.062500,0.432742,-0.086418,0.419194,-0.106694,0.398918,-0.120242,0.375000,-0.125000,-0.087500,-0.125000,-0.107500,-0.126903,-0.135597,-0.155078,-0.137500,-0.175000,-0.137500,-0.457575,-0.138461,-0.467330,-0.140318,-0.476664,-0.147784,-0.494688,-0.150281,-0.498425,-0.164076,-0.512220,-0.167812,-0.514716,
-0.185836,-0.522182,-0.195169,-0.524039,-0.204926,-0.525000,-0.320075,-0.525000,-0.329830,-0.524039,-0.339164,-0.522182,-0.357188,-0.514716,-0.360925,-0.512219,-0.374720,-0.498424,-0.377216,-0.494688,-0.384682,-0.476664,-0.386539,-0.467331,-0.387500,-0.457574,-0.387500,-0.122513,-0.398918,-0.120242,-0.419194,-0.106694,-0.432742,-0.086418,-0.437500,-0.062500,-0.437500,0.062500,-0.432742,0.086418,
-0.419194,0.106694,-0.398918,0.120242,-0.375000,0.125000,0.375000,0.125000,0.398918,0.120242,0.398918,0.120242,$1*%
%AMFreePoly6*
4,1,28,-0.201082,0.520242,-0.180806,0.506694,-0.167258,0.486418,-0.162500,0.462500,-0.162500,0.125000,0.350000,0.125000,0.373918,0.120242,0.394194,0.106694,0.407742,0.086418,0.412500,0.062500,0.412500,-0.062500,0.407742,-0.086418,0.394194,-0.106694,0.373918,-0.120242,0.350000,-0.125000,0.000000,-0.125000,-0.350000,-0.125000,-0.373918,-0.120242,-0.394194,-0.106694,-0.407742,-0.086418,
-0.412500,-0.062500,-0.412500,0.462500,-0.407742,0.486418,-0.394194,0.506694,-0.373918,0.520242,-0.350000,0.525000,-0.225000,0.525000,-0.201082,0.520242,-0.201082,0.520242,$1*%
%AMFreePoly7*
4,1,28,0.373918,0.520242,0.394194,0.506694,0.407742,0.486418,0.412500,0.462500,0.412500,-0.062500,0.407742,-0.086418,0.394194,-0.106694,0.373918,-0.120242,0.350000,-0.125000,0.000000,-0.125000,-0.350000,-0.125000,-0.373918,-0.120242,-0.394194,-0.106694,-0.407742,-0.086418,-0.412500,-0.062500,-0.412500,0.062500,-0.407742,0.086418,-0.394194,0.106694,-0.373918,0.120242,-0.350000,0.125000,
0.162500,0.125000,0.162500,0.462500,0.167258,0.486418,0.180806,0.506694,0.201082,0.520242,0.225000,0.525000,0.350000,0.525000,0.373918,0.520242,0.373918,0.520242,$1*%
%AMFreePoly8*
4,1,17,-0.725000,0.950000,-0.575000,0.950000,-0.575000,1.360000,-0.075000,1.360000,-0.075000,0.950000,0.075000,0.950000,0.075000,1.360000,0.575000,1.360000,0.575000,0.950000,0.725000,0.950000,0.725000,1.360000,1.225000,1.360000,1.225000,-0.950000,-1.225000,-0.950000,-1.225000,1.360000,-0.725000,1.360000,-0.725000,0.950000,-0.725000,0.950000,$1*%
G04 Aperture macros list end*
%ADD10RoundRect,0.275880X0.274120X-0.674120X0.274120X0.674120X-0.274120X0.674120X-0.274120X-0.674120X0*%
%ADD11RoundRect,0.137500X-0.137500X-0.152500X0.137500X-0.152500X0.137500X0.152500X-0.137500X0.152500X0*%
%ADD12RoundRect,0.145000X-0.155000X-0.145000X0.155000X-0.145000X0.155000X0.145000X-0.155000X0.145000X0*%
%ADD13RoundRect,0.217750X-0.267250X0.217750X-0.267250X-0.217750X0.267250X-0.217750X0.267250X0.217750X0*%
%ADD14RoundRect,0.275000X0.350000X-0.275000X0.350000X0.275000X-0.350000X0.275000X-0.350000X-0.275000X0*%
%ADD15RoundRect,0.137500X0.137500X0.152500X-0.137500X0.152500X-0.137500X-0.152500X0.137500X-0.152500X0*%
%ADD16RoundRect,0.145000X0.155000X0.145000X-0.155000X0.145000X-0.155000X-0.145000X0.155000X-0.145000X0*%
%ADD17RoundRect,0.217750X-0.217750X-0.267250X0.217750X-0.267250X0.217750X0.267250X-0.217750X0.267250X0*%
%ADD18RoundRect,0.137500X0.152500X-0.137500X0.152500X0.137500X-0.152500X0.137500X-0.152500X-0.137500X0*%
%ADD19RoundRect,0.145000X0.145000X-0.155000X0.145000X0.155000X-0.145000X0.155000X-0.145000X-0.155000X0*%
%ADD20RoundRect,0.217750X0.217750X0.267250X-0.217750X0.267250X-0.217750X-0.267250X0.217750X-0.267250X0*%
%ADD21RoundRect,0.217750X0.267250X-0.217750X0.267250X0.217750X-0.267250X0.217750X-0.267250X-0.217750X0*%
%ADD22RoundRect,0.291250X-0.616250X0.291250X-0.616250X-0.291250X0.616250X-0.291250X0.616250X0.291250X0*%
%ADD23O,2.100000X1.300000*%
%ADD24C,1.500000*%
%ADD25RoundRect,0.250000X-2.575000X0.375000X-2.575000X-0.375000X2.575000X-0.375000X2.575000X0.375000X0*%
%ADD26RoundRect,0.150000X-0.150000X0.425000X-0.150000X-0.425000X0.150000X-0.425000X0.150000X0.425000X0*%
%ADD27RoundRect,0.075000X-0.075000X0.500000X-0.075000X-0.500000X0.075000X-0.500000X0.075000X0.500000X0*%
%ADD28O,1.000000X2.200000*%
%ADD29C,1.000000*%
%ADD30C,3.400000*%
%ADD31RoundRect,0.275000X-0.350000X0.275000X-0.350000X-0.275000X0.350000X-0.275000X0.350000X0.275000X0*%
%ADD32RoundRect,0.291250X0.616250X-0.291250X0.616250X0.291250X-0.616250X0.291250X-0.616250X-0.291250X0*%
%ADD33RoundRect,0.137500X-0.152500X0.137500X-0.152500X-0.137500X0.152500X-0.137500X0.152500X0.137500X0*%
%ADD34RoundRect,0.145000X-0.145000X0.155000X-0.145000X-0.155000X0.145000X-0.155000X0.145000X0.155000X0*%
%ADD35RoundRect,0.145000X0.145000X-0.167500X0.145000X0.167500X-0.145000X0.167500X-0.145000X-0.167500X0*%
%ADD36RoundRect,0.062500X-0.187500X0.062500X-0.187500X-0.062500X0.187500X-0.062500X0.187500X0.062500X0*%
%ADD37RoundRect,0.087500X0.127500X0.087500X-0.127500X0.087500X-0.127500X-0.087500X0.127500X-0.087500X0*%
%ADD38RoundRect,0.275000X0.275000X0.350000X-0.275000X0.350000X-0.275000X-0.350000X0.275000X-0.350000X0*%
%ADD39RoundRect,0.087500X0.242500X0.087500X-0.242500X0.087500X-0.242500X-0.087500X0.242500X-0.087500X0*%
%ADD40FreePoly0,180.000000*%
%ADD41RoundRect,0.050000X0.250000X0.050000X-0.250000X0.050000X-0.250000X-0.050000X0.250000X-0.050000X0*%
%ADD42FreePoly1,180.000000*%
%ADD43RoundRect,0.050000X-0.050000X0.250000X-0.050000X-0.250000X0.050000X-0.250000X0.050000X0.250000X0*%
%ADD44FreePoly2,180.000000*%
%ADD45RoundRect,0.050000X-0.300000X-0.050000X0.300000X-0.050000X0.300000X0.050000X-0.300000X0.050000X0*%
%ADD46RoundRect,0.050000X-0.275000X-0.050000X0.275000X-0.050000X0.275000X0.050000X-0.275000X0.050000X0*%
%ADD47RoundRect,0.050000X-0.290000X-0.050000X0.290000X-0.050000X0.290000X0.050000X-0.290000X0.050000X0*%
%ADD48RoundRect,0.050000X-0.250000X-0.050000X0.250000X-0.050000X0.250000X0.050000X-0.250000X0.050000X0*%
%ADD49FreePoly3,180.000000*%
%ADD50RoundRect,0.050000X0.050000X-0.450000X0.050000X0.450000X-0.050000X0.450000X-0.050000X-0.450000X0*%
%ADD51RoundRect,0.050000X0.050000X-0.425000X0.050000X0.425000X-0.050000X0.425000X-0.050000X-0.425000X0*%
%ADD52RoundRect,0.278750X-0.453750X0.278750X-0.453750X-0.278750X0.453750X-0.278750X0.453750X0.278750X0*%
%ADD53RoundRect,0.150000X-0.200000X-0.150000X0.200000X-0.150000X0.200000X0.150000X-0.200000X0.150000X0*%
%ADD54RoundRect,0.250000X0.350000X-1.650000X0.350000X1.650000X-0.350000X1.650000X-0.350000X-1.650000X0*%
%ADD55C,3.000000*%
%ADD56C,2.750000*%
%ADD57RoundRect,0.250000X1.500000X-0.250000X1.500000X0.250000X-1.500000X0.250000X-1.500000X-0.250000X0*%
%ADD58RoundRect,0.250000X1.450000X-0.500000X1.450000X0.500000X-1.450000X0.500000X-1.450000X-0.500000X0*%
%ADD59RoundRect,0.137500X-0.137500X0.262500X-0.137500X-0.262500X0.137500X-0.262500X0.137500X0.262500X0*%
%ADD60RoundRect,0.062500X-0.062500X0.375000X-0.062500X-0.375000X0.062500X-0.375000X0.062500X0.375000X0*%
%ADD61FreePoly4,270.000000*%
%ADD62FreePoly5,270.000000*%
%ADD63FreePoly6,270.000000*%
%ADD64RoundRect,0.062500X-0.262500X-0.062500X0.262500X-0.062500X0.262500X0.062500X-0.262500X0.062500X0*%
%ADD65FreePoly7,270.000000*%
%ADD66RoundRect,0.087500X-0.127500X-0.087500X0.127500X-0.087500X0.127500X0.087500X-0.127500X0.087500X0*%
%ADD67RoundRect,0.275000X-0.275000X-0.350000X0.275000X-0.350000X0.275000X0.350000X-0.275000X0.350000X0*%
%ADD68RoundRect,0.087500X-0.242500X-0.087500X0.242500X-0.087500X0.242500X0.087500X-0.242500X0.087500X0*%
%ADD69RoundRect,0.150000X-0.150000X0.200000X-0.150000X-0.200000X0.150000X-0.200000X0.150000X0.200000X0*%
%ADD70RoundRect,0.250000X0.700000X-0.250000X0.700000X0.250000X-0.700000X0.250000X-0.700000X-0.250000X0*%
%ADD71C,2.374900*%
%ADD72C,0.990600*%
%ADD73C,0.787400*%
%ADD74RoundRect,0.250000X2.000000X-0.400000X2.000000X0.400000X-2.000000X0.400000X-2.000000X-0.400000X0*%
%ADD75RoundRect,0.250000X1.700000X-0.650000X1.700000X0.650000X-1.700000X0.650000X-1.700000X-0.650000X0*%
%ADD76RoundRect,0.190000X0.205000X-0.190000X0.205000X0.190000X-0.205000X0.190000X-0.205000X-0.190000X0*%
%ADD77R,0.630000X0.500000*%
%ADD78FreePoly8,90.000000*%
%ADD79O,2.000000X4.500000*%
%ADD80O,4.250000X2.000000*%
%ADD81RoundRect,0.250000X-0.250000X0.525000X-0.250000X-0.525000X0.250000X-0.525000X0.250000X0.525000X0*%
%ADD82RoundRect,0.291250X-0.291250X-0.616250X0.291250X-0.616250X0.291250X0.616250X-0.291250X0.616250X0*%
%ADD83RoundRect,0.050000X0.050000X-0.250000X0.050000X0.250000X-0.050000X0.250000X-0.050000X-0.250000X0*%
%ADD84RoundRect,0.050000X0.650000X0.650000X-0.650000X0.650000X-0.650000X-0.650000X0.650000X-0.650000X0*%
%ADD85R,2.000000X2.000000*%
%ADD86C,2.000000*%
%ADD87RoundRect,0.291250X0.291250X0.616250X-0.291250X0.616250X-0.291250X-0.616250X0.291250X-0.616250X0*%
%ADD88RoundRect,0.145000X-0.167500X-0.145000X0.167500X-0.145000X0.167500X0.145000X-0.167500X0.145000X0*%
%ADD89RoundRect,0.075000X0.075000X-0.225000X0.075000X0.225000X-0.075000X0.225000X-0.075000X-0.225000X0*%
%ADD90RoundRect,0.075000X-0.225000X-0.075000X0.225000X-0.075000X0.225000X0.075000X-0.225000X0.075000X0*%
%ADD91RoundRect,0.075000X0.225000X0.075000X-0.225000X0.075000X-0.225000X-0.075000X0.225000X-0.075000X0*%
%ADD92RoundRect,0.250000X-1.475000X1.475000X-1.475000X-1.475000X1.475000X-1.475000X1.475000X1.475000X0*%
G04 APERTURE END LIST*
D10*
%TO.C,Y1*%
X117350000Y-106500000D03*
X119850000Y-106500000D03*
%TD*%
D11*
%TO.C,R26*%
X155250000Y-100900000D03*
D12*
X156205000Y-100900000D03*
%TD*%
D13*
%TO.C,C9*%
X119850000Y-108650000D03*
X119850000Y-110150000D03*
%TD*%
%TO.C,C36*%
X157700000Y-100000000D03*
X157700000Y-101500000D03*
%TD*%
D14*
%TO.C,D3*%
X152100000Y-125850000D03*
X152100000Y-127750000D03*
%TD*%
D15*
%TO.C,R10*%
X146590000Y-111700000D03*
D16*
X145635000Y-111700000D03*
%TD*%
D17*
%TO.C,C35*%
X156200000Y-98500000D03*
X157700000Y-98500000D03*
%TD*%
D18*
%TO.C,R11*%
X140000000Y-111690000D03*
D19*
X140000000Y-110735000D03*
%TD*%
D20*
%TO.C,C6*%
X114350000Y-102400000D03*
X112850000Y-102400000D03*
%TD*%
D21*
%TO.C,C32*%
X148900000Y-101600000D03*
X148900000Y-100100000D03*
%TD*%
D22*
%TO.C,C23*%
X149700000Y-119425000D03*
X149700000Y-122375000D03*
%TD*%
D18*
%TO.C,R17*%
X151775000Y-100855000D03*
D19*
X151775000Y-99900000D03*
%TD*%
D23*
%TO.C,SW1*%
X114000000Y-106900000D03*
X114000000Y-115100000D03*
D24*
X114000000Y-109000000D03*
X114000000Y-111000000D03*
X114000000Y-113000000D03*
%TD*%
D11*
%TO.C,R13*%
X147110000Y-109400000D03*
D12*
X148065000Y-109400000D03*
%TD*%
D25*
%TO.C,R19*%
X157500000Y-94225000D03*
X157500000Y-96475000D03*
%TD*%
D15*
%TO.C,R25*%
X154105000Y-100900000D03*
D16*
X153150000Y-100900000D03*
%TD*%
D26*
%TO.C,J1*%
X120200000Y-89150000D03*
X119400000Y-89150000D03*
D27*
X118250000Y-89150000D03*
X117250000Y-89150000D03*
X116750000Y-89150000D03*
X115750000Y-89150000D03*
D26*
X114600000Y-89150000D03*
X113800000Y-89150000D03*
X113800000Y-89150000D03*
X114600000Y-89150000D03*
D27*
X115250000Y-89150000D03*
X116250000Y-89150000D03*
X117750000Y-89150000D03*
X118750000Y-89150000D03*
D26*
X119400000Y-89150000D03*
X120200000Y-89150000D03*
D28*
X121320000Y-88575000D03*
X121320000Y-84575000D03*
X112680000Y-88575000D03*
X112680000Y-84575000D03*
%TD*%
D29*
%TO.C,TP12*%
X142100000Y-121700000D03*
%TD*%
D18*
%TO.C,R27*%
X147500000Y-100925000D03*
D19*
X147500000Y-99970000D03*
%TD*%
D15*
%TO.C,R23*%
X141290000Y-94950000D03*
D16*
X140335000Y-94950000D03*
%TD*%
D15*
%TO.C,R24*%
X141290000Y-96150000D03*
D16*
X140335000Y-96150000D03*
%TD*%
D29*
%TO.C,TP3*%
X122400000Y-108900000D03*
%TD*%
D22*
%TO.C,C29*%
X140300000Y-119425000D03*
X140300000Y-122375000D03*
%TD*%
D30*
%TO.C,MH2*%
X163000000Y-86000000D03*
%TD*%
D21*
%TO.C,C13*%
X149100000Y-117000000D03*
X149100000Y-115500000D03*
%TD*%
D31*
%TO.C,D1*%
X123400000Y-88200000D03*
X123400000Y-86300000D03*
%TD*%
D29*
%TO.C,TP6*%
X141850000Y-117050000D03*
%TD*%
D22*
%TO.C,C21*%
X152100000Y-119425000D03*
X152100000Y-122375000D03*
%TD*%
D32*
%TO.C,C26*%
X137750000Y-116925000D03*
X137750000Y-113975000D03*
%TD*%
D18*
%TO.C,R12*%
X145050000Y-109190000D03*
D19*
X145050000Y-108235000D03*
%TD*%
D33*
%TO.C,R33*%
X157500000Y-108600000D03*
D34*
X157500000Y-109555000D03*
%TD*%
D35*
%TO.C,C17*%
X141250000Y-111637000D03*
X141250000Y-110763000D03*
%TD*%
D33*
%TO.C,R2*%
X115250000Y-91260000D03*
D34*
X115250000Y-92215000D03*
%TD*%
D36*
%TO.C,TH1*%
X151950000Y-103575000D03*
X151950000Y-104225000D03*
%TD*%
D17*
%TO.C,C5*%
X121650000Y-96400000D03*
X123150000Y-96400000D03*
%TD*%
D32*
%TO.C,C12*%
X155200000Y-116975000D03*
X155200000Y-114025000D03*
%TD*%
D17*
%TO.C,C40*%
X134850000Y-102750000D03*
X136350000Y-102750000D03*
%TD*%
D21*
%TO.C,C34*%
X142700000Y-98300000D03*
X142700000Y-96800000D03*
%TD*%
D37*
%TO.C,Q4*%
X155050000Y-104435000D03*
X155050000Y-105085000D03*
X155050000Y-105735000D03*
X153150000Y-105735000D03*
X153150000Y-105085000D03*
X153150000Y-104435000D03*
D38*
X154100000Y-104800000D03*
D39*
X154100000Y-105860000D03*
%TD*%
D40*
%TO.C,U3*%
X146750000Y-117600000D03*
D41*
X146900000Y-117200000D03*
X146900000Y-116800000D03*
X146900000Y-116400000D03*
X146900000Y-116000000D03*
X146900000Y-115600000D03*
X146900000Y-115200000D03*
X146900000Y-114800000D03*
D42*
X146750000Y-114400000D03*
D43*
X146000000Y-114100000D03*
X145600000Y-114100000D03*
X145200000Y-114100000D03*
X144800000Y-114100000D03*
X144400000Y-114100000D03*
X144000000Y-114100000D03*
D44*
X143250000Y-114400000D03*
D45*
X143150000Y-114800000D03*
D46*
X143125000Y-115200000D03*
D47*
X143137500Y-115600000D03*
D48*
X143100000Y-116000000D03*
X143100000Y-116400000D03*
X143100000Y-116800000D03*
X143100000Y-117200000D03*
D49*
X143250000Y-117600000D03*
D50*
X144100000Y-117700000D03*
X144550000Y-117700000D03*
X145000000Y-117700000D03*
X145450000Y-117700000D03*
D51*
X145900000Y-117725000D03*
%TD*%
D22*
%TO.C,C22*%
X137900000Y-119425000D03*
X137900000Y-122375000D03*
%TD*%
D29*
%TO.C,TP5*%
X150700000Y-117100000D03*
%TD*%
%TO.C,TP11*%
X122500000Y-118500000D03*
%TD*%
D11*
%TO.C,R8*%
X121510000Y-107600000D03*
D12*
X122465000Y-107600000D03*
%TD*%
D18*
%TO.C,R31*%
X145100000Y-100925000D03*
D19*
X145100000Y-99970000D03*
%TD*%
D22*
%TO.C,C25*%
X154500000Y-119425000D03*
X154500000Y-122375000D03*
%TD*%
D17*
%TO.C,C1*%
X112550000Y-94150000D03*
X114050000Y-94150000D03*
%TD*%
D52*
%TO.C,C41*%
X129525000Y-101550000D03*
X129525000Y-103250000D03*
%TD*%
D53*
%TO.C,Q3*%
X156000000Y-103450000D03*
X156000000Y-105350000D03*
X158000000Y-104400000D03*
%TD*%
D11*
%TO.C,R3*%
X122445000Y-90600000D03*
D12*
X123400000Y-90600000D03*
%TD*%
D30*
%TO.C,MH1*%
X109000000Y-86000000D03*
%TD*%
D20*
%TO.C,C4*%
X117550000Y-104400000D03*
X116050000Y-104400000D03*
%TD*%
D11*
%TO.C,R35*%
X135260000Y-104125000D03*
D12*
X136215000Y-104125000D03*
%TD*%
D15*
%TO.C,R34*%
X152940000Y-106900000D03*
D16*
X151985000Y-106900000D03*
%TD*%
D29*
%TO.C,TP10*%
X135950000Y-108150000D03*
%TD*%
D54*
%TO.C,L1*%
X146225000Y-126000000D03*
X143775000Y-126000000D03*
%TD*%
D17*
%TO.C,C18*%
X142750000Y-119400000D03*
X144250000Y-119400000D03*
%TD*%
D55*
%TO.C,J5*%
X174900000Y-102700000D03*
D56*
X167600000Y-104800000D03*
X167600000Y-100600000D03*
%TD*%
D30*
%TO.C,MH3*%
X163000000Y-129000000D03*
%TD*%
D15*
%TO.C,R5*%
X113890000Y-104300000D03*
D16*
X112935000Y-104300000D03*
%TD*%
D15*
%TO.C,R29*%
X157290000Y-106900000D03*
D16*
X156335000Y-106900000D03*
%TD*%
D38*
%TO.C,D2*%
X120650000Y-92600000D03*
X122550000Y-92600000D03*
%TD*%
D29*
%TO.C,TP4*%
X122500000Y-116800000D03*
%TD*%
D57*
%TO.C,J4*%
X174250000Y-115500000D03*
X174250000Y-113500000D03*
D58*
X180000000Y-117850000D03*
X180000000Y-111150000D03*
%TD*%
D54*
%TO.C,L2*%
X131825000Y-97500000D03*
X129375000Y-97500000D03*
%TD*%
D59*
%TO.C,U1*%
X114350000Y-95900000D03*
X112450000Y-95900000D03*
X112450000Y-98300000D03*
X113400000Y-98300000D03*
X114350000Y-98300000D03*
%TD*%
D60*
%TO.C,U5*%
X132750000Y-101637500D03*
X132250000Y-101637500D03*
D61*
X131750000Y-101637500D03*
D62*
X131750000Y-103162500D03*
D60*
X132250000Y-103162500D03*
X132750000Y-103162500D03*
D63*
X133250000Y-103182500D03*
D64*
X133450000Y-102400000D03*
D65*
X133250000Y-101617500D03*
%TD*%
D29*
%TO.C,TP1*%
X111300000Y-92800000D03*
%TD*%
D15*
%TO.C,R22*%
X152990000Y-96100000D03*
D16*
X152035000Y-96100000D03*
%TD*%
D11*
%TO.C,R6*%
X121500000Y-115350000D03*
D12*
X122455000Y-115350000D03*
%TD*%
D17*
%TO.C,C31*%
X153250000Y-98500000D03*
X154750000Y-98500000D03*
%TD*%
D22*
%TO.C,C20*%
X133100000Y-119425000D03*
X133100000Y-122375000D03*
%TD*%
D66*
%TO.C,Q2*%
X153150000Y-103365000D03*
X153150000Y-102715000D03*
X153150000Y-102065000D03*
X155050000Y-102065000D03*
X155050000Y-102715000D03*
X155050000Y-103365000D03*
D67*
X154100000Y-103000000D03*
D68*
X154100000Y-101940000D03*
%TD*%
D13*
%TO.C,C10*%
X118100000Y-118750000D03*
X118100000Y-120250000D03*
%TD*%
D17*
%TO.C,C2*%
X121650000Y-94700000D03*
X123150000Y-94700000D03*
%TD*%
D18*
%TO.C,R9*%
X153800000Y-127290000D03*
D19*
X153800000Y-126335000D03*
%TD*%
D69*
%TO.C,Q5*%
X156000000Y-108600000D03*
X154100000Y-108600000D03*
X155050000Y-110600000D03*
%TD*%
D15*
%TO.C,R14*%
X144490000Y-110500000D03*
D16*
X143535000Y-110500000D03*
%TD*%
D20*
%TO.C,C3*%
X114350000Y-100250000D03*
X112850000Y-100250000D03*
%TD*%
D32*
%TO.C,C28*%
X140150000Y-116925000D03*
X140150000Y-113975000D03*
%TD*%
D33*
%TO.C,R4*%
X120300000Y-95450000D03*
D34*
X120300000Y-96405000D03*
%TD*%
D22*
%TO.C,C27*%
X130700000Y-119425000D03*
X130700000Y-122375000D03*
%TD*%
D70*
%TO.C,F1*%
X157550000Y-121900000D03*
X157550000Y-118900000D03*
%TD*%
D11*
%TO.C,R32*%
X154100000Y-106900000D03*
D12*
X155055000Y-106900000D03*
%TD*%
D71*
%TO.C,J2*%
X123310000Y-129640000D03*
D72*
X123310000Y-127100000D03*
D71*
X123310000Y-124560000D03*
X117595000Y-129640000D03*
X117595000Y-124560000D03*
D72*
X115690000Y-128116000D03*
X115690000Y-126084000D03*
D73*
X122040000Y-126465000D03*
X120770000Y-126465000D03*
X119500000Y-126465000D03*
X118230000Y-126465000D03*
X116960000Y-126465000D03*
X116960000Y-127735000D03*
X118230000Y-127735000D03*
X119500000Y-127735000D03*
X120770000Y-127735000D03*
X122040000Y-127735000D03*
%TD*%
D74*
%TO.C,J6*%
X172950000Y-92800000D03*
X172950000Y-90300000D03*
X172950000Y-87800000D03*
D75*
X179750000Y-96000000D03*
X179750000Y-84600000D03*
%TD*%
D13*
%TO.C,C7*%
X117350000Y-108650000D03*
X117350000Y-110150000D03*
%TD*%
D76*
%TO.C,D4*%
X140200000Y-101910000D03*
X140200000Y-98300000D03*
%TD*%
D29*
%TO.C,TP7*%
X159750000Y-110250000D03*
%TD*%
D18*
%TO.C,R18*%
X124950000Y-99690000D03*
D19*
X124950000Y-98735000D03*
%TD*%
D77*
%TO.C,Q1*%
X136000000Y-116950000D03*
X136000000Y-116300000D03*
X136000000Y-115650000D03*
X136000000Y-115000000D03*
D78*
X134175000Y-115975000D03*
X134175000Y-115975000D03*
X134175000Y-115975000D03*
X134175000Y-115975000D03*
%TD*%
D79*
%TO.C,J3*%
X167800000Y-125500000D03*
X173800000Y-125500000D03*
D80*
X170800000Y-120800000D03*
%TD*%
D20*
%TO.C,C37*%
X152550000Y-108250000D03*
X151050000Y-108250000D03*
%TD*%
D13*
%TO.C,C33*%
X150325000Y-94600000D03*
X150325000Y-96100000D03*
%TD*%
D81*
%TO.C,SW2*%
X115600000Y-116875000D03*
X115600000Y-122125000D03*
X112400000Y-116875000D03*
X112400000Y-122125000D03*
%TD*%
D82*
%TO.C,C14*%
X148025000Y-112000000D03*
X150975000Y-112000000D03*
%TD*%
D41*
%TO.C,U4*%
X148400000Y-97750000D03*
X148400000Y-97350000D03*
X148400000Y-96950000D03*
X148400000Y-96550000D03*
X148400000Y-96150000D03*
X148400000Y-95750000D03*
X148400000Y-95350000D03*
X148400000Y-94950000D03*
D83*
X147900000Y-94450000D03*
X147500000Y-94450000D03*
X147100000Y-94450000D03*
X146700000Y-94450000D03*
X146300000Y-94450000D03*
X145900000Y-94450000D03*
X145500000Y-94450000D03*
X145100000Y-94450000D03*
D41*
X144600000Y-94950000D03*
X144600000Y-95350000D03*
X144600000Y-95750000D03*
X144600000Y-96150000D03*
X144600000Y-96550000D03*
X144600000Y-96950000D03*
X144600000Y-97350000D03*
X144600000Y-97750000D03*
D43*
X145100000Y-98250000D03*
X145500000Y-98250000D03*
X145900000Y-98250000D03*
X146300000Y-98250000D03*
X146700000Y-98250000D03*
X147100000Y-98250000D03*
X147500000Y-98250000D03*
X147900000Y-98250000D03*
D84*
X146500000Y-96350000D03*
%TD*%
D85*
%TO.C,J7*%
X128300000Y-89900000D03*
D86*
X133300000Y-89900000D03*
%TD*%
D29*
%TO.C,TP9*%
X161450000Y-100500000D03*
%TD*%
D87*
%TO.C,C39*%
X132275000Y-105500000D03*
X129325000Y-105500000D03*
%TD*%
D30*
%TO.C,MH4*%
X109000000Y-129000000D03*
%TD*%
D18*
%TO.C,R30*%
X143900000Y-100925000D03*
D19*
X143900000Y-99970000D03*
%TD*%
D18*
%TO.C,R16*%
X150275000Y-100855000D03*
D19*
X150275000Y-99900000D03*
%TD*%
D17*
%TO.C,C30*%
X150275000Y-98500000D03*
X151775000Y-98500000D03*
%TD*%
D11*
%TO.C,R7*%
X121510000Y-114100000D03*
D12*
X122465000Y-114100000D03*
%TD*%
D22*
%TO.C,C24*%
X135500000Y-119425000D03*
X135500000Y-122375000D03*
%TD*%
D11*
%TO.C,R15*%
X143510000Y-111700000D03*
D12*
X144465000Y-111700000D03*
%TD*%
D21*
%TO.C,C38*%
X149500000Y-108250000D03*
X149500000Y-106750000D03*
%TD*%
D88*
%TO.C,C8*%
X120563000Y-104000000D03*
X121437000Y-104000000D03*
%TD*%
D33*
%TO.C,R1*%
X118250000Y-91260000D03*
D34*
X118250000Y-92215000D03*
%TD*%
D11*
%TO.C,R36*%
X135260000Y-101375000D03*
D12*
X136215000Y-101375000D03*
%TD*%
D29*
%TO.C,TP2*%
X119100000Y-94000000D03*
%TD*%
D18*
%TO.C,R28*%
X146300000Y-100925000D03*
D19*
X146300000Y-99970000D03*
%TD*%
D15*
%TO.C,R21*%
X152990000Y-94600000D03*
D16*
X152035000Y-94600000D03*
%TD*%
D20*
%TO.C,C19*%
X147250000Y-119400000D03*
X145750000Y-119400000D03*
%TD*%
D18*
%TO.C,R20*%
X124950000Y-97590000D03*
D19*
X124950000Y-96635000D03*
%TD*%
D89*
%TO.C,U2*%
X117900000Y-102550000D03*
X118400000Y-102550000D03*
X118900000Y-102550000D03*
X119400000Y-102550000D03*
X119900000Y-102550000D03*
X120400000Y-102550000D03*
X120900000Y-102550000D03*
X121400000Y-102550000D03*
D90*
X122000000Y-101950000D03*
X122000000Y-101450000D03*
X122000000Y-100950000D03*
X122000000Y-100450000D03*
X122000000Y-99950000D03*
X122000000Y-99450000D03*
X122000000Y-98950000D03*
X122000000Y-98450000D03*
D89*
X121400000Y-97850000D03*
X120900000Y-97850000D03*
X120400000Y-97850000D03*
X119900000Y-97850000D03*
X119400000Y-97850000D03*
X118900000Y-97850000D03*
X118400000Y-97850000D03*
X117900000Y-97850000D03*
D91*
X117300000Y-98450000D03*
X117300000Y-98950000D03*
X117300000Y-99450000D03*
X117300000Y-99950000D03*
X117300000Y-100450000D03*
X117300000Y-100950000D03*
X117300000Y-101450000D03*
X117300000Y-101950000D03*
D92*
X119700000Y-100200000D03*
%TD*%
D32*
%TO.C,C11*%
X152800000Y-116975000D03*
X152800000Y-114025000D03*
%TD*%
D29*
%TO.C,TP8*%
X159700000Y-89400000D03*
%TD*%
M02*
