M48
; DRILL file {KiCad 8.0.6+1} date 2024-11-21T12:35:40-0500
; FORMAT={-:-/ absolute / metric / decimal}
; #@! TF.CreationDate,2024-11-21T12:35:40-05:00
; #@! TF.GenerationSoftware,Kicad,Pcbnew,8.0.6+1
; #@! TF.FileFunction,Plated,1,4,PTH
FMAT,2
METRIC
; #@! TA.AperFunction,Plated,PTH,ViaDrill
T1C0.275
; #@! TA.AperFunction,Plated,PTH,ViaDrill
T2C0.300
; #@! TA.AperFunction,Plated,PTH,ViaDrill
T3C0.350
; #@! TA.AperFunction,Plated,PTH,ViaDrill
T4C0.450
; #@! TA.AperFunction,Plated,PTH,ComponentDrill
T5C0.600
; #@! TA.AperFunction,Plated,PTH,ComponentDrill
T6C0.700
; #@! TA.AperFunction,Plated,PTH,ComponentDrill
T7C0.900
; #@! TA.AperFunction,Plated,PTH,ComponentDrill
T8C1.000
; #@! TA.AperFunction,Plated,PTH,ComponentDrill
T9C1.300
%
G90
G05
T1
X111.45Y-97.05
X111.45Y-97.85
X111.5Y-116.3
X112.5Y-128.0
X113.25Y-92.5
X113.9Y-103.5
X114.2Y-117.45
X115.35Y-101.45
X115.5Y-97.85
X115.5Y-99.2
X115.5Y-100.3
X116.2Y-97.05
X116.32Y-127.1
X116.35Y-92.5
X116.7Y-102.35
X116.7Y-116.3
X116.7Y-117.45
X118.35Y-98.9
X118.35Y-100.2
X118.35Y-101.5
X118.35Y-110.15
X118.9Y-110.15
X119.65Y-98.9
X119.65Y-100.2
X119.65Y-101.5
X119.7Y-92.6
X120.06Y-125.9
X120.1Y-128.5
X120.3Y-94.7
X120.95Y-98.9
X120.95Y-100.2
X120.95Y-101.5
X122.2Y-110.5
X122.2Y-113.0
X122.5Y-106.4
X122.7Y-98.45
X122.9Y-109.9
X123.3Y-113.6
X123.5Y-93.2
X123.6Y-111.5
X124.1Y-86.3
X124.3Y-111.5
X124.5Y-99.0
X125.0Y-111.5
X136.05Y-114.2
X137.6Y-111.85
X138.7Y-92.95
X139.9Y-99.4
X139.9Y-100.2
X141.6Y-92.9
X141.6Y-96.55
X141.6Y-100.1
X141.7Y-116.0
X141.711Y-115.289
X142.15Y-118.1
X142.35Y-114.0
X143.25Y-98.1
X143.341Y-101.4
X143.341Y-109.5
X144.0Y-87.1
X144.157Y-112.507
X144.45Y-116.15
X144.45Y-116.7
X144.5Y-85.6
X144.5Y-115.0
X144.9Y-112.6
X145.125Y-113.331
X145.2Y-115.2
X145.55Y-116.15
X145.55Y-116.7
X146.9Y-112.6
X147.3Y-108.525
X147.75Y-118.15
X148.025Y-110.525
X148.038Y-116.038
X148.5Y-104.9
X152.9Y-124.5
X154.45Y-99.75
X156.8Y-109.9
X156.8Y-111.9
X159.95Y-109.15
X161.0Y-106.4
X161.5Y-107.0
X162.65Y-110.55
X164.5Y-115.7
T2
X112.4Y-118.575
X112.4Y-121.2
T3
X111.4Y-95.9
X113.35Y-101.4
X116.05Y-105.5
X122.3Y-104.0
X123.15Y-97.6
X136.8Y-111.3
X140.1Y-111.7
X147.19Y-113.53
X147.2Y-92.7
X148.4Y-90.45
X149.2Y-100.5
X149.2Y-102.3
X149.7Y-112.15
X150.2Y-108.6
X150.3Y-126.0
X150.4Y-117.5
X151.9Y-83.4
X151.9Y-84.4
X153.15Y-83.4
X153.15Y-84.4
X154.1Y-108.6
X154.1Y-110.2
X154.45Y-83.4
X154.45Y-84.4
T4
X115.445Y-94.795
X115.65Y-102.4
X116.1Y-95.8
X117.9Y-94.0
X121.55Y-105.25
X128.1Y-115.4
X128.1Y-116.7
X129.4Y-115.4
X129.4Y-116.7
X130.7Y-115.4
X130.7Y-116.7
X132.0Y-115.4
X132.0Y-116.7
X136.8Y-108.9
X142.975Y-122.0
X142.975Y-123.05
X146.15Y-110.65
X147.025Y-122.0
X147.025Y-123.05
X148.8Y-108.5
X159.9Y-112.3
X161.0Y-102.2
X161.0Y-103.5
X161.7Y-115.7
X162.3Y-102.2
X162.3Y-103.5
X163.6Y-106.7
X163.6Y-107.9
X164.3Y-113.7
X164.8Y-106.7
X164.8Y-107.9
X166.0Y-106.7
X166.0Y-107.9
X167.2Y-106.7
X167.2Y-107.9
T7
X114.0Y-109.0
X114.0Y-111.0
X114.0Y-113.0
T9
X169.9Y-87.5
X169.9Y-92.5
T5
G00X111.68Y-86.1
M15
G01X111.68Y-84.9
M16
G05
G00X111.68Y-90.1
M15
G01X111.68Y-88.9
M16
G05
G00X120.32Y-86.1
M15
G01X120.32Y-84.9
M16
G05
G00X120.32Y-90.1
M15
G01X120.32Y-88.9
M16
G05
T6
G00X114.4Y-106.9
M15
G01X113.6Y-106.9
M16
G05
G00X114.4Y-115.1
M15
G01X113.6Y-115.1
M16
G05
T8
G00X160.3Y-126.75
M15
G01X160.3Y-124.25
M16
G05
G00X164.3Y-120.8
M15
G01X162.3Y-120.8
M16
G05
G00X166.3Y-126.75
M15
G01X166.3Y-124.25
M16
G05
M30
