%TF.GenerationSoftware,KiCad,Pcbnew,8.0.8+1*%
%TF.CreationDate,2025-01-21T14:06:51-05:00*%
%TF.ProjectId,powerSupplyBoard,706f7765-7253-4757-9070-6c79426f6172,02*%
%TF.SameCoordinates,Original*%
%TF.FileFunction,Copper,L4,Bot*%
%TF.FilePolarity,Positive*%
%FSLAX46Y46*%
G04 Gerber Fmt 4.6, Leading zero omitted, Abs format (unit mm)*
G04 Created by KiCad (PCBNEW 8.0.8+1) date 2025-01-21 14:06:51*
%MOMM*%
%LPD*%
G01*
G04 APERTURE LIST*
G04 Aperture macros list*
%AMRoundRect*
0 Rectangle with rounded corners*
0 $1 Rounding radius*
0 $2 $3 $4 $5 $6 $7 $8 $9 X,Y pos of 4 corners*
0 Add a 4 corners polygon primitive as box body*
4,1,4,$2,$3,$4,$5,$6,$7,$8,$9,$2,$3,0*
0 Add four circle primitives for the rounded corners*
1,1,$1+$1,$2,$3*
1,1,$1+$1,$4,$5*
1,1,$1+$1,$6,$7*
1,1,$1+$1,$8,$9*
0 Add four rect primitives between the rounded corners*
20,1,$1+$1,$2,$3,$4,$5,0*
20,1,$1+$1,$4,$5,$6,$7,0*
20,1,$1+$1,$6,$7,$8,$9,0*
20,1,$1+$1,$8,$9,$2,$3,0*%
G04 Aperture macros list end*
%TA.AperFunction,ComponentPad*%
%ADD10O,2.100000X1.300000*%
%TD*%
%TA.AperFunction,ComponentPad*%
%ADD11C,1.500000*%
%TD*%
%TA.AperFunction,ComponentPad*%
%ADD12O,1.000000X2.200000*%
%TD*%
%TA.AperFunction,ComponentPad*%
%ADD13C,2.750000*%
%TD*%
%TA.AperFunction,ComponentPad*%
%ADD14O,2.000000X4.500000*%
%TD*%
%TA.AperFunction,ComponentPad*%
%ADD15O,4.250000X2.000000*%
%TD*%
%TA.AperFunction,ComponentPad*%
%ADD16R,2.000000X2.000000*%
%TD*%
%TA.AperFunction,ComponentPad*%
%ADD17C,2.000000*%
%TD*%
%TA.AperFunction,SMDPad,CuDef*%
%ADD18RoundRect,0.145000X0.145000X-0.167500X0.145000X0.167500X-0.145000X0.167500X-0.145000X-0.167500X0*%
%TD*%
%TA.AperFunction,SMDPad,CuDef*%
%ADD19RoundRect,0.145000X-0.145000X0.167500X-0.145000X-0.167500X0.145000X-0.167500X0.145000X0.167500X0*%
%TD*%
%TA.AperFunction,ViaPad*%
%ADD20C,0.600000*%
%TD*%
%TA.AperFunction,ViaPad*%
%ADD21C,0.750000*%
%TD*%
%TA.AperFunction,ViaPad*%
%ADD22C,0.500000*%
%TD*%
%TA.AperFunction,ViaPad*%
%ADD23C,1.000000*%
%TD*%
%TA.AperFunction,Conductor*%
%ADD24C,0.500000*%
%TD*%
%TA.AperFunction,Conductor*%
%ADD25C,0.350000*%
%TD*%
%TA.AperFunction,Conductor*%
%ADD26C,0.600000*%
%TD*%
%TA.AperFunction,Conductor*%
%ADD27C,0.300000*%
%TD*%
%TA.AperFunction,Conductor*%
%ADD28C,0.250000*%
%TD*%
%TA.AperFunction,Conductor*%
%ADD29C,0.200000*%
%TD*%
G04 APERTURE END LIST*
D10*
%TO.P,SW1,*%
%TO.N,*%
X114000000Y-106900000D03*
X114000000Y-115100000D03*
D11*
%TO.P,SW1,1*%
%TO.N,+3V3*%
X114000000Y-109000000D03*
%TO.P,SW1,2*%
%TO.N,Net-(R5-Pad2)*%
X114000000Y-111000000D03*
%TO.P,SW1,3*%
%TO.N,VSS*%
X114000000Y-113000000D03*
%TD*%
D12*
%TO.P,J1,S1,SHIELD*%
%TO.N,VSS*%
X121320000Y-88575000D03*
X121320000Y-84575000D03*
X112680000Y-88575000D03*
X112680000Y-84575000D03*
%TD*%
D13*
%TO.P,J5,1*%
%TO.N,PACK+*%
X167600000Y-104800000D03*
%TO.P,J5,2*%
%TO.N,PACK-*%
X167600000Y-100600000D03*
%TD*%
D14*
%TO.P,J3,1*%
%TO.N,Net-(F1-Pad1)*%
X167800000Y-125500000D03*
%TO.P,J3,2*%
%TO.N,GND*%
X173800000Y-125500000D03*
D15*
%TO.P,J3,3*%
X170800000Y-120800000D03*
%TD*%
D16*
%TO.P,J7,1*%
%TO.N,+3V3_OUT*%
X128300000Y-89900000D03*
D17*
%TO.P,J7,2*%
%TO.N,GND*%
X133300000Y-89900000D03*
%TD*%
D18*
%TO.P,C16,1*%
%TO.N,Net-(U3-SW2)*%
X143300000Y-117337000D03*
%TO.P,C16,2*%
%TO.N,Net-(U3-BTST2)*%
X143300000Y-116463000D03*
%TD*%
D19*
%TO.P,C15,1*%
%TO.N,Net-(U3-BTST1)*%
X146700000Y-116463000D03*
%TO.P,C15,2*%
%TO.N,Net-(U3-SW1)*%
X146700000Y-117337000D03*
%TD*%
D20*
%TO.N,VSS*%
X112400000Y-118200000D03*
D21*
X123150000Y-97600000D03*
D22*
X118350000Y-110150000D03*
D21*
X109000000Y-108000000D03*
D22*
X146700000Y-93700000D03*
D21*
X109000000Y-120000000D03*
D22*
X120060000Y-125900000D03*
D21*
X109000000Y-116000000D03*
X109000000Y-96000000D03*
D22*
X148075000Y-93725000D03*
D21*
X111400000Y-95900000D03*
D20*
X112400000Y-120800000D03*
D21*
X118500000Y-115500000D03*
D22*
X124500000Y-86300000D03*
D21*
X112500000Y-131000000D03*
X116050000Y-105500000D03*
X117000000Y-86000000D03*
X124500000Y-89500000D03*
D22*
X120950000Y-101500000D03*
D21*
X109000000Y-92000000D03*
X122300000Y-104000000D03*
X109000000Y-100000000D03*
D22*
X123850000Y-92600000D03*
X122850000Y-98350000D03*
X119650000Y-101500000D03*
X144150000Y-98450000D03*
X120950000Y-100200000D03*
X116700000Y-102350000D03*
X118350000Y-98900000D03*
X116320000Y-127100000D03*
X118100000Y-121600000D03*
D23*
X112000000Y-101300000D03*
D21*
X121000000Y-131000000D03*
X124500000Y-93500000D03*
D22*
X118350000Y-101500000D03*
D21*
X109000000Y-124000000D03*
D22*
X120100000Y-128500000D03*
X119650000Y-100200000D03*
X119650000Y-98900000D03*
X120950000Y-98900000D03*
D21*
X115500000Y-110000000D03*
X109000000Y-112000000D03*
D22*
X118350000Y-100200000D03*
D21*
X123500000Y-119500000D03*
D22*
X145000000Y-118550000D03*
X143825000Y-94725000D03*
X146500000Y-96350000D03*
D21*
X109000000Y-104000000D03*
D22*
X118900000Y-110150000D03*
D23*
X115444972Y-94794543D03*
D22*
X114265000Y-92215000D03*
X117365000Y-92215000D03*
D21*
X120500000Y-119500000D03*
%TO.N,GND*%
X179500000Y-122000000D03*
X179500000Y-102000000D03*
X173500000Y-108000000D03*
X154500000Y-125700000D03*
X142300000Y-111400000D03*
X161650000Y-95700000D03*
X181500000Y-108000000D03*
X157500000Y-84000000D03*
X175500000Y-122000000D03*
X162650000Y-97700000D03*
X133500000Y-96000000D03*
X126400000Y-104400000D03*
X177500000Y-108000000D03*
X139500000Y-86000000D03*
X163150000Y-99150000D03*
X151500000Y-90000000D03*
X147500000Y-86000000D03*
X177500000Y-124000000D03*
X133500000Y-92000000D03*
X133500000Y-88000000D03*
X135500000Y-94000000D03*
X137500000Y-84000000D03*
X167500000Y-109000000D03*
X133100000Y-124500000D03*
X149700000Y-125700000D03*
X153500000Y-92000000D03*
X151100000Y-114200000D03*
X141500000Y-88000000D03*
X165500000Y-84000000D03*
X179500000Y-106000000D03*
X175500000Y-118000000D03*
X177500000Y-128000000D03*
X175500000Y-110000000D03*
X149700000Y-124500000D03*
X154700000Y-112900000D03*
X140300000Y-125700000D03*
X137900000Y-125700000D03*
X147500000Y-90000000D03*
X164650000Y-96700000D03*
X181500000Y-88000000D03*
X143500000Y-90000000D03*
D22*
X128300000Y-103750000D03*
D21*
X177500000Y-100000000D03*
X177500000Y-88000000D03*
X162650000Y-96700000D03*
X161500000Y-124000000D03*
X181500000Y-120000000D03*
X171500000Y-118000000D03*
X139100000Y-125700000D03*
X131500000Y-94000000D03*
X169500000Y-124000000D03*
X134000000Y-100500000D03*
X161500000Y-116000000D03*
X163650000Y-96700000D03*
X131900000Y-125700000D03*
D22*
X128300000Y-105900000D03*
D21*
X177500000Y-104000000D03*
X140300000Y-124500000D03*
X175500000Y-130000000D03*
X136700000Y-125700000D03*
X167500000Y-130000000D03*
X137500000Y-88000000D03*
X150000000Y-109400000D03*
X165500000Y-120000000D03*
X165500000Y-108000000D03*
X175500000Y-106000000D03*
X181500000Y-100000000D03*
X126400000Y-100600000D03*
X177500000Y-120000000D03*
D22*
X137100000Y-104150000D03*
D21*
X169500000Y-84000000D03*
X135500000Y-90000000D03*
X141500000Y-84000000D03*
X179500000Y-126000000D03*
X177500000Y-112000000D03*
X129500000Y-84000000D03*
X161650000Y-97700000D03*
X165500000Y-116000000D03*
X171500000Y-130000000D03*
X131900000Y-124500000D03*
X179500000Y-94000000D03*
X134300000Y-125700000D03*
X149500000Y-112000000D03*
X161650000Y-96700000D03*
X133100000Y-125700000D03*
X137900000Y-124500000D03*
X164650000Y-99150000D03*
D22*
X137100000Y-101400000D03*
D21*
X169500000Y-116000000D03*
X163500000Y-122000000D03*
X164650000Y-97700000D03*
X163650000Y-95700000D03*
X152300000Y-112900000D03*
X177500000Y-92000000D03*
X181500000Y-116000000D03*
X137500000Y-97000000D03*
X154500000Y-124500000D03*
X152100000Y-124500000D03*
X130700000Y-124500000D03*
X163650000Y-97700000D03*
X139950000Y-108750000D03*
X167500000Y-122000000D03*
X181500000Y-92000000D03*
X127500000Y-86000000D03*
X145500000Y-84000000D03*
X126400000Y-91800000D03*
X150300000Y-113400000D03*
X135500000Y-124500000D03*
X130700000Y-125700000D03*
X169500000Y-128000000D03*
X149500000Y-88000000D03*
X126400000Y-94000000D03*
X145500000Y-88000000D03*
X173500000Y-120000000D03*
X153300000Y-97300000D03*
X181500000Y-104000000D03*
X153300000Y-112900000D03*
X131500000Y-90000000D03*
X181500000Y-128000000D03*
X179500000Y-114000000D03*
X153500000Y-88000000D03*
X164650000Y-95700000D03*
X169500000Y-108000000D03*
X139100000Y-124500000D03*
D22*
X128300000Y-105100000D03*
D21*
X137500000Y-99000000D03*
X149500000Y-84000000D03*
X135500000Y-99000000D03*
X181500000Y-124000000D03*
X171500000Y-109000000D03*
X179500000Y-90000000D03*
X161500000Y-120000000D03*
X165500000Y-124000000D03*
X135500000Y-125700000D03*
X143500000Y-86000000D03*
X134300000Y-124500000D03*
X163500000Y-118000000D03*
X162650000Y-95700000D03*
D22*
X128300000Y-102950000D03*
D21*
X143500000Y-108250000D03*
X131500000Y-86000000D03*
X179500000Y-98000000D03*
X171500000Y-126000000D03*
D22*
X137500000Y-102700000D03*
D21*
X179500000Y-130000000D03*
X149500000Y-92000000D03*
X177500000Y-116000000D03*
X153500000Y-84000000D03*
X155700000Y-112900000D03*
X137500000Y-92000000D03*
X136700000Y-124500000D03*
X139500000Y-90000000D03*
X175500000Y-98000000D03*
X164650000Y-100650000D03*
X149600000Y-102400000D03*
X167500000Y-118000000D03*
X173500000Y-84000000D03*
X133500000Y-84000000D03*
X135500000Y-86000000D03*
X129500000Y-88000000D03*
D23*
%TO.N,+3V3*%
X116100000Y-95800000D03*
X121550000Y-105250000D03*
X117900000Y-94000000D03*
X115650000Y-102400000D03*
D21*
%TO.N,VBUS*%
X148000000Y-117100000D03*
X147190000Y-113530000D03*
D23*
%TO.N,AGND*%
X157300000Y-113050000D03*
X148950000Y-110300000D03*
X145650000Y-110650000D03*
D21*
%TO.N,CHG-*%
X156500000Y-109700000D03*
X150400000Y-105800000D03*
D22*
%TO.N,Net-(D2-Pad1)*%
X120300000Y-94700000D03*
X119700000Y-92600000D03*
%TO.N,/BAT_CHG_INT*%
X141700000Y-116000000D03*
X123600000Y-111500000D03*
%TO.N,/~{QON}*%
X124300000Y-111500000D03*
X145197289Y-115545353D03*
%TO.N,/SCL*%
X122200000Y-113500000D03*
X139500000Y-96150000D03*
X115500000Y-99000000D03*
X122200000Y-110500000D03*
X144300000Y-112500000D03*
%TO.N,/SDA*%
X122900000Y-109900000D03*
X143650000Y-112825000D03*
X123500000Y-114000000D03*
X115500000Y-100300000D03*
X139500000Y-94950000D03*
%TO.N,/~{CE}*%
X125000000Y-111500000D03*
X145125000Y-113331219D03*
%TO.N,/SWDCLK*%
X115500000Y-97850000D03*
X111450000Y-97850000D03*
X119200000Y-120800000D03*
X112400000Y-119100000D03*
%TO.N,/SWDIO*%
X120770000Y-123450000D03*
X111450000Y-97050000D03*
X116200000Y-97050000D03*
X112400000Y-120000000D03*
%TO.N,/TS*%
X158000000Y-114550000D03*
X143535000Y-109565000D03*
X147500000Y-93000000D03*
%TO.N,Net-(Q4-Pad3)*%
X155050000Y-109600000D03*
X145675000Y-102250000D03*
%TO.N,/Battery Charger/REGN*%
X153800000Y-128200000D03*
X148025000Y-110700000D03*
%TO.N,/Battery Charger/ILIM_HZ*%
X147450000Y-110150000D03*
X142350000Y-114000000D03*
%TO.N,Net-(U3-BTST1)*%
X148037999Y-116037999D03*
D23*
%TO.N,Net-(U3-SW1)*%
X146225000Y-123200000D03*
D22*
X145550000Y-116150000D03*
D23*
X146225000Y-122000000D03*
D22*
X145550000Y-116700000D03*
%TO.N,Net-(U3-BTST2)*%
X141711091Y-115288909D03*
D23*
%TO.N,Net-(U3-SW2)*%
X143775000Y-122000000D03*
D22*
X144450000Y-116150000D03*
D23*
X143775000Y-123050000D03*
D22*
X144450000Y-116700000D03*
D21*
%TO.N,PACK+*%
X154250000Y-99800000D03*
X159100000Y-99750000D03*
X150275000Y-101700000D03*
X140200000Y-100750000D03*
X155200000Y-99800000D03*
X160050000Y-99750000D03*
X156150000Y-99800000D03*
D22*
%TO.N,Net-(U3-STAT)*%
X147750000Y-118150000D03*
D21*
X150800000Y-127800000D03*
%TO.N,/Battery Manager/1P*%
X170100000Y-90300000D03*
X151775000Y-101700000D03*
D22*
%TO.N,Net-(Q3-Pad1)*%
X156975000Y-104425000D03*
X146900000Y-101575000D03*
%TO.N,Net-(U2-BOOT0)*%
X115350000Y-101450000D03*
X113900000Y-103500000D03*
%TO.N,Net-(U3-PROG)*%
X146825000Y-112675000D03*
X144000000Y-115000000D03*
%TO.N,Net-(Q2-Pad1)*%
X143900000Y-105075000D03*
X143250000Y-101575000D03*
%TO.N,/BTP_INT*%
X145500000Y-92400000D03*
X122900000Y-102200000D03*
%TO.N,Net-(U4-~{PRES}{slash}~{SHUTDN})*%
X124225000Y-97125000D03*
X143050000Y-91750000D03*
%TO.N,/Battery Charger/SDRV*%
X135450000Y-114400000D03*
X142150000Y-118100000D03*
%TO.N,/Battery Manager/BAT*%
X143675000Y-99025000D03*
X140200000Y-99025000D03*
X148100000Y-98975000D03*
%TO.N,/Battery Manager/PACK*%
X144500000Y-102100000D03*
X151100000Y-107200000D03*
D21*
%TO.N,CHG+*%
X160150000Y-103500000D03*
D23*
X130700000Y-116700000D03*
D21*
X158900000Y-105000000D03*
X160150000Y-105000000D03*
D23*
X132200000Y-116700000D03*
X132200000Y-115400000D03*
D21*
X139200000Y-111200000D03*
X158900000Y-106500000D03*
X160150000Y-106500000D03*
X134175000Y-112150000D03*
D23*
X130700000Y-115400000D03*
D21*
X158900000Y-103500000D03*
%TD*%
D24*
%TO.N,+3V3*%
X117900000Y-94000000D02*
X116100000Y-95800000D01*
X118500000Y-105250000D02*
X121550000Y-105250000D01*
X115650000Y-102400000D02*
X118500000Y-105250000D01*
D25*
%TO.N,VBUS*%
X148000000Y-117100000D02*
X148662999Y-116437001D01*
X148662999Y-116437001D02*
X148662999Y-115002999D01*
X148662999Y-115002999D02*
X147190000Y-113530000D01*
D26*
%TO.N,AGND*%
X157300000Y-113050000D02*
X156050000Y-111800000D01*
X145650000Y-110650000D02*
X147050000Y-109250000D01*
X152100000Y-111800000D02*
X150600000Y-110300000D01*
X147050000Y-109250000D02*
X147900000Y-109250000D01*
X150600000Y-110300000D02*
X148950000Y-110300000D01*
X147900000Y-109250000D02*
X148950000Y-110300000D01*
X156050000Y-111800000D02*
X152100000Y-111800000D01*
D27*
%TO.N,CHG-*%
X156500000Y-109700000D02*
X152600000Y-105800000D01*
X152600000Y-105800000D02*
X150400000Y-105800000D01*
D28*
%TO.N,Net-(D2-Pad1)*%
X120300000Y-94700000D02*
X119700000Y-94100000D01*
X119700000Y-94100000D02*
X119700000Y-92600000D01*
D29*
%TO.N,/BAT_CHG_INT*%
X141450000Y-116000000D02*
X141700000Y-116000000D01*
X139300000Y-113850000D02*
X141450000Y-116000000D01*
X125350000Y-113850000D02*
X139300000Y-113850000D01*
X123600000Y-112100000D02*
X125350000Y-113850000D01*
X123600000Y-111500000D02*
X123600000Y-112100000D01*
%TO.N,/~{QON}*%
X141238909Y-114738909D02*
X139850000Y-113350000D01*
X125850000Y-113350000D02*
X124300000Y-111800000D01*
X142138909Y-114738909D02*
X141238909Y-114738909D01*
X139850000Y-113350000D02*
X125850000Y-113350000D01*
X145197289Y-115545353D02*
X145192642Y-115550000D01*
X142200000Y-114800000D02*
X142138909Y-114738909D01*
X142202686Y-114800000D02*
X142200000Y-114800000D01*
X124300000Y-111800000D02*
X124300000Y-111500000D01*
X142952686Y-115550000D02*
X142202686Y-114800000D01*
X145192642Y-115550000D02*
X142952686Y-115550000D01*
%TO.N,/SCL*%
X144300000Y-112500000D02*
X144300000Y-111800000D01*
X143175000Y-113375000D02*
X140300000Y-110500000D01*
X138800000Y-96850000D02*
X139500000Y-96150000D01*
X115500000Y-99000000D02*
X112850000Y-101650000D01*
X138800000Y-106300000D02*
X138800000Y-96850000D01*
X112850000Y-103928248D02*
X116200000Y-107278248D01*
X116200000Y-109600000D02*
X120100000Y-113500000D01*
X116200000Y-107278248D02*
X116200000Y-109600000D01*
X120100000Y-113500000D02*
X122200000Y-113500000D01*
X140300000Y-110500000D02*
X122200000Y-110500000D01*
X144300000Y-111800000D02*
X138800000Y-106300000D01*
X143877818Y-113375000D02*
X143175000Y-113375000D01*
X112850000Y-101650000D02*
X112850000Y-103928248D01*
X144300000Y-112952818D02*
X143877818Y-113375000D01*
X144300000Y-112500000D02*
X144300000Y-112952818D01*
%TO.N,/SDA*%
X123500000Y-114000000D02*
X123500000Y-113904595D01*
X138300000Y-109850000D02*
X138350000Y-109900000D01*
X123500000Y-113904595D02*
X113300000Y-103704595D01*
X139500000Y-94950000D02*
X138300000Y-96150000D01*
X141800000Y-109900000D02*
X138350000Y-109900000D01*
X138300000Y-96150000D02*
X138300000Y-109850000D01*
X143650000Y-112825000D02*
X143350000Y-112525000D01*
X138350000Y-109900000D02*
X122900000Y-109900000D01*
X113300000Y-103704595D02*
X113300000Y-102500000D01*
X113300000Y-102500000D02*
X115500000Y-100300000D01*
X143350000Y-112525000D02*
X143350000Y-111450000D01*
X143350000Y-111450000D02*
X141800000Y-109900000D01*
%TO.N,/~{CE}*%
X140150000Y-112850000D02*
X126350000Y-112850000D01*
X126350000Y-112850000D02*
X125000000Y-111500000D01*
X142513909Y-113300000D02*
X140600000Y-113300000D01*
X144681219Y-113775000D02*
X142988909Y-113775000D01*
X140600000Y-113300000D02*
X140150000Y-112850000D01*
X142988909Y-113775000D02*
X142513909Y-113300000D01*
X145125000Y-113331219D02*
X144681219Y-113775000D01*
D28*
%TO.N,/SWDCLK*%
X115500000Y-97850000D02*
X111450000Y-97850000D01*
X119200000Y-120800000D02*
X117500000Y-119100000D01*
X117500000Y-119100000D02*
X112400000Y-119100000D01*
%TO.N,/SWDIO*%
X116200000Y-97050000D02*
X111450000Y-97050000D01*
X117320000Y-120000000D02*
X120770000Y-123450000D01*
X112400000Y-120000000D02*
X117320000Y-120000000D01*
D29*
%TO.N,/TS*%
X153200000Y-111100000D02*
X152900000Y-111100000D01*
X147500000Y-93000000D02*
X144350000Y-93000000D01*
X139300000Y-98050000D02*
X139300000Y-105330000D01*
X139300000Y-105330000D02*
X143535000Y-109565000D01*
X146400000Y-106700000D02*
X143535000Y-109565000D01*
X152900000Y-111100000D02*
X148500000Y-106700000D01*
X144350000Y-93000000D02*
X139300000Y-98050000D01*
X158100000Y-112718629D02*
X158100000Y-114450000D01*
X148500000Y-106700000D02*
X146400000Y-106700000D01*
X153200000Y-111100000D02*
X156481371Y-111100000D01*
X156481371Y-111100000D02*
X158100000Y-112718629D01*
X158100000Y-114450000D02*
X158000000Y-114550000D01*
%TO.N,Net-(Q4-Pad3)*%
X151950000Y-106500000D02*
X149925000Y-106500000D01*
X155050000Y-109600000D02*
X151950000Y-106500000D01*
X149925000Y-106500000D02*
X145675000Y-102250000D01*
%TO.N,/Battery Charger/REGN*%
X153400000Y-118200000D02*
X153400000Y-127800000D01*
X148025000Y-110700000D02*
X148025000Y-112825000D01*
X148025000Y-112825000D02*
X153400000Y-118200000D01*
X153400000Y-127800000D02*
X153800000Y-128200000D01*
D28*
%TO.N,/Battery Charger/ILIM_HZ*%
X145350000Y-114300000D02*
X142650000Y-114300000D01*
X142650000Y-114300000D02*
X142350000Y-114000000D01*
X147450000Y-111050000D02*
X146000000Y-112500000D01*
X146000000Y-112500000D02*
X146000000Y-113650000D01*
X146000000Y-113650000D02*
X145350000Y-114300000D01*
X147450000Y-110150000D02*
X147450000Y-111050000D01*
D29*
%TO.N,Net-(U3-BTST1)*%
X148037999Y-116037999D02*
X147125001Y-116037999D01*
X147125001Y-116037999D02*
X146700000Y-116463000D01*
D28*
%TO.N,Net-(U3-SW1)*%
X145550000Y-116700000D02*
X146187000Y-117337000D01*
X146187000Y-117337000D02*
X146700000Y-117337000D01*
D29*
%TO.N,Net-(U3-BTST2)*%
X142125909Y-115288909D02*
X143300000Y-116463000D01*
X141711091Y-115288909D02*
X142125909Y-115288909D01*
D28*
%TO.N,Net-(U3-SW2)*%
X144450000Y-116700000D02*
X143813000Y-117337000D01*
X143813000Y-117337000D02*
X143300000Y-117337000D01*
D25*
%TO.N,PACK+*%
X153925000Y-101425000D02*
X153925000Y-100125000D01*
X152800000Y-102550000D02*
X153925000Y-101425000D01*
X151125000Y-102550000D02*
X152800000Y-102550000D01*
X149325000Y-100750000D02*
X150275000Y-101700000D01*
X150275000Y-101700000D02*
X151125000Y-102550000D01*
X153925000Y-100125000D02*
X154250000Y-99800000D01*
X140200000Y-100750000D02*
X149325000Y-100750000D01*
D28*
%TO.N,Net-(U3-STAT)*%
X150800000Y-127800000D02*
X150800000Y-121200000D01*
X150800000Y-121200000D02*
X147750000Y-118150000D01*
D25*
%TO.N,/Battery Manager/1P*%
X161950000Y-90300000D02*
X151775000Y-100475000D01*
X151775000Y-100475000D02*
X151775000Y-101700000D01*
X170100000Y-90300000D02*
X161950000Y-90300000D01*
D29*
%TO.N,Net-(Q3-Pad1)*%
X149750000Y-104425000D02*
X146900000Y-101575000D01*
X156975000Y-104425000D02*
X149750000Y-104425000D01*
D28*
%TO.N,Net-(U2-BOOT0)*%
X113900000Y-102900000D02*
X115350000Y-101450000D01*
X113900000Y-103500000D02*
X113900000Y-102900000D01*
D29*
%TO.N,Net-(U3-PROG)*%
X144969471Y-114995353D02*
X145854647Y-114995353D01*
X146515000Y-114335000D02*
X146515000Y-112985000D01*
X144000000Y-115000000D02*
X144964824Y-115000000D01*
X146515000Y-112985000D02*
X146825000Y-112675000D01*
X144964824Y-115000000D02*
X144969471Y-114995353D01*
X145854647Y-114995353D02*
X146515000Y-114335000D01*
%TO.N,Net-(Q2-Pad1)*%
X143250000Y-104425000D02*
X143900000Y-105075000D01*
X143250000Y-101575000D02*
X143250000Y-104425000D01*
%TO.N,/BTP_INT*%
X122900000Y-102200000D02*
X131200000Y-102200000D01*
X131200000Y-102200000D02*
X141000000Y-92400000D01*
X141000000Y-92400000D02*
X145500000Y-92400000D01*
%TO.N,Net-(U4-~{PRES}{slash}~{SHUTDN})*%
X140750000Y-91750000D02*
X135375000Y-97125000D01*
X135375000Y-97125000D02*
X124225000Y-97125000D01*
X143050000Y-91750000D02*
X140750000Y-91750000D01*
%TO.N,/Battery Charger/SDRV*%
X139150000Y-118100000D02*
X142150000Y-118100000D01*
X135450000Y-114400000D02*
X139150000Y-118100000D01*
%TO.N,/Battery Manager/BAT*%
X148100000Y-98975000D02*
X148050000Y-99025000D01*
X143675000Y-99025000D02*
X140200000Y-99025000D01*
X148050000Y-99025000D02*
X143675000Y-99025000D01*
%TO.N,/Battery Manager/PACK*%
X149600000Y-107200000D02*
X144500000Y-102100000D01*
X151100000Y-107200000D02*
X149600000Y-107200000D01*
D27*
%TO.N,CHG+*%
X134175000Y-112150000D02*
X135125000Y-111200000D01*
X135125000Y-111200000D02*
X139200000Y-111200000D01*
%TD*%
%TA.AperFunction,Conductor*%
%TO.N,Net-(U3-SW1)*%
G36*
X145931694Y-115918306D02*
G01*
X145950000Y-115962500D01*
X145950000Y-116887500D01*
X145931694Y-116931694D01*
X145887500Y-116950000D01*
X145212500Y-116950000D01*
X145168306Y-116931694D01*
X145150000Y-116887500D01*
X145150000Y-116112353D01*
X145168306Y-116068159D01*
X145212500Y-116049853D01*
X145269826Y-116049853D01*
X145269826Y-116049852D01*
X145409021Y-116008982D01*
X145531064Y-115930549D01*
X145536032Y-115924815D01*
X145538845Y-115921570D01*
X145581621Y-115900159D01*
X145586078Y-115900000D01*
X145887500Y-115900000D01*
X145931694Y-115918306D01*
G37*
%TD.AperFunction*%
%TD*%
%TA.AperFunction,Conductor*%
%TO.N,Net-(U3-SW2)*%
G36*
X144831694Y-115922806D02*
G01*
X144850000Y-115967000D01*
X144850000Y-116887500D01*
X144831694Y-116931694D01*
X144787500Y-116950000D01*
X144112500Y-116950000D01*
X144068306Y-116931694D01*
X144050000Y-116887500D01*
X144050000Y-115967000D01*
X144068306Y-115922806D01*
X144112500Y-115904500D01*
X144787500Y-115904500D01*
X144831694Y-115922806D01*
G37*
%TD.AperFunction*%
%TD*%
%TA.AperFunction,Conductor*%
%TO.N,PACK+*%
G36*
X160531694Y-99268306D02*
G01*
X160550000Y-99312500D01*
X160550000Y-100287500D01*
X160531694Y-100331694D01*
X160487500Y-100350000D01*
X153812500Y-100350000D01*
X153768306Y-100331694D01*
X153750000Y-100287500D01*
X153750000Y-99312500D01*
X153768306Y-99268306D01*
X153812500Y-99250000D01*
X160487500Y-99250000D01*
X160531694Y-99268306D01*
G37*
%TD.AperFunction*%
%TD*%
%TA.AperFunction,Conductor*%
%TO.N,CHG+*%
G36*
X160531694Y-103118306D02*
G01*
X160550000Y-103162500D01*
X160550000Y-132056000D01*
X160531694Y-132100194D01*
X160487500Y-132118500D01*
X125562500Y-132118500D01*
X125518306Y-132100194D01*
X125500000Y-132056000D01*
X125500000Y-114662500D01*
X125518306Y-114618306D01*
X125562500Y-114600000D01*
X132737500Y-114600000D01*
X132781694Y-114618306D01*
X132800000Y-114662500D01*
X132800000Y-117437500D01*
X132781694Y-117481694D01*
X132737500Y-117500000D01*
X129350000Y-117500000D01*
X129350000Y-128400000D01*
X153348763Y-128482328D01*
X153392892Y-128500785D01*
X153395776Y-128503894D01*
X153466225Y-128585196D01*
X153588268Y-128663629D01*
X153727461Y-128704499D01*
X153727463Y-128704500D01*
X153727464Y-128704500D01*
X153872537Y-128704500D01*
X153872537Y-128704499D01*
X154011732Y-128663629D01*
X154133775Y-128585196D01*
X154201544Y-128506985D01*
X154244318Y-128485575D01*
X154248970Y-128485416D01*
X158500000Y-128500000D01*
X158500000Y-128499999D01*
X158500000Y-114621852D01*
X158500636Y-114612957D01*
X158509688Y-114550000D01*
X158500636Y-114487040D01*
X158500000Y-114478146D01*
X158500000Y-103162500D01*
X158518306Y-103118306D01*
X158562500Y-103100000D01*
X160487500Y-103100000D01*
X160531694Y-103118306D01*
G37*
%TD.AperFunction*%
%TD*%
M02*
