%TF.GenerationSoftware,KiCad,Pcbnew,8.0.6+1*%
%TF.CreationDate,2024-11-21T12:35:32-05:00*%
%TF.ProjectId,powerSupplyBoard,706f7765-7253-4757-9070-6c79426f6172,01*%
%TF.SameCoordinates,Original*%
%TF.FileFunction,Copper,L4,Bot*%
%TF.FilePolarity,Positive*%
%FSLAX46Y46*%
G04 Gerber Fmt 4.6, Leading zero omitted, Abs format (unit mm)*
G04 Created by KiCad (PCBNEW 8.0.6+1) date 2024-11-21 12:35:32*
%MOMM*%
%LPD*%
G01*
G04 APERTURE LIST*
G04 Aperture macros list*
%AMRoundRect*
0 Rectangle with rounded corners*
0 $1 Rounding radius*
0 $2 $3 $4 $5 $6 $7 $8 $9 X,Y pos of 4 corners*
0 Add a 4 corners polygon primitive as box body*
4,1,4,$2,$3,$4,$5,$6,$7,$8,$9,$2,$3,0*
0 Add four circle primitives for the rounded corners*
1,1,$1+$1,$2,$3*
1,1,$1+$1,$4,$5*
1,1,$1+$1,$6,$7*
1,1,$1+$1,$8,$9*
0 Add four rect primitives between the rounded corners*
20,1,$1+$1,$2,$3,$4,$5,0*
20,1,$1+$1,$4,$5,$6,$7,0*
20,1,$1+$1,$6,$7,$8,$9,0*
20,1,$1+$1,$8,$9,$2,$3,0*%
G04 Aperture macros list end*
%TA.AperFunction,ComponentPad*%
%ADD10O,1.000000X2.200000*%
%TD*%
%TA.AperFunction,ComponentPad*%
%ADD11O,2.000000X4.500000*%
%TD*%
%TA.AperFunction,ComponentPad*%
%ADD12O,4.250000X2.000000*%
%TD*%
%TA.AperFunction,ComponentPad*%
%ADD13R,2.000000X2.000000*%
%TD*%
%TA.AperFunction,ComponentPad*%
%ADD14C,2.000000*%
%TD*%
%TA.AperFunction,ComponentPad*%
%ADD15O,2.100000X1.300000*%
%TD*%
%TA.AperFunction,ComponentPad*%
%ADD16C,1.500000*%
%TD*%
%TA.AperFunction,SMDPad,CuDef*%
%ADD17RoundRect,0.217750X-0.267250X0.217750X-0.267250X-0.217750X0.267250X-0.217750X0.267250X0.217750X0*%
%TD*%
%TA.AperFunction,SMDPad,CuDef*%
%ADD18RoundRect,0.137500X-0.152500X0.137500X-0.152500X-0.137500X0.152500X-0.137500X0.152500X0.137500X0*%
%TD*%
%TA.AperFunction,SMDPad,CuDef*%
%ADD19RoundRect,0.145000X-0.145000X0.155000X-0.145000X-0.155000X0.145000X-0.155000X0.145000X0.155000X0*%
%TD*%
%TA.AperFunction,SMDPad,CuDef*%
%ADD20RoundRect,0.137500X0.137500X0.152500X-0.137500X0.152500X-0.137500X-0.152500X0.137500X-0.152500X0*%
%TD*%
%TA.AperFunction,SMDPad,CuDef*%
%ADD21RoundRect,0.145000X0.155000X0.145000X-0.155000X0.145000X-0.155000X-0.145000X0.155000X-0.145000X0*%
%TD*%
%TA.AperFunction,SMDPad,CuDef*%
%ADD22RoundRect,0.137500X0.152500X-0.137500X0.152500X0.137500X-0.152500X0.137500X-0.152500X-0.137500X0*%
%TD*%
%TA.AperFunction,SMDPad,CuDef*%
%ADD23RoundRect,0.145000X0.145000X-0.155000X0.145000X0.155000X-0.145000X0.155000X-0.145000X-0.155000X0*%
%TD*%
%TA.AperFunction,SMDPad,CuDef*%
%ADD24RoundRect,0.250000X-0.432500X-1.153000X0.432500X-1.153000X0.432500X1.153000X-0.432500X1.153000X0*%
%TD*%
%TA.AperFunction,SMDPad,CuDef*%
%ADD25RoundRect,0.150000X0.150000X-0.200000X0.150000X0.200000X-0.150000X0.200000X-0.150000X-0.200000X0*%
%TD*%
%TA.AperFunction,SMDPad,CuDef*%
%ADD26RoundRect,0.145000X0.145000X-0.167500X0.145000X0.167500X-0.145000X0.167500X-0.145000X-0.167500X0*%
%TD*%
%TA.AperFunction,SMDPad,CuDef*%
%ADD27RoundRect,0.145000X-0.145000X0.167500X-0.145000X-0.167500X0.145000X-0.167500X0.145000X0.167500X0*%
%TD*%
%TA.AperFunction,SMDPad,CuDef*%
%ADD28RoundRect,0.150000X-0.150000X0.200000X-0.150000X-0.200000X0.150000X-0.200000X0.150000X0.200000X0*%
%TD*%
%TA.AperFunction,SMDPad,CuDef*%
%ADD29RoundRect,0.150000X0.200000X-0.150000X0.200000X0.150000X-0.200000X0.150000X-0.200000X-0.150000X0*%
%TD*%
%TA.AperFunction,SMDPad,CuDef*%
%ADD30RoundRect,0.250000X0.432500X1.153000X-0.432500X1.153000X-0.432500X-1.153000X0.432500X-1.153000X0*%
%TD*%
%TA.AperFunction,ViaPad*%
%ADD31C,0.600000*%
%TD*%
%TA.AperFunction,ViaPad*%
%ADD32C,0.750000*%
%TD*%
%TA.AperFunction,ViaPad*%
%ADD33C,0.500000*%
%TD*%
%TA.AperFunction,ViaPad*%
%ADD34C,1.000000*%
%TD*%
%TA.AperFunction,Conductor*%
%ADD35C,0.600000*%
%TD*%
%TA.AperFunction,Conductor*%
%ADD36C,0.350000*%
%TD*%
%TA.AperFunction,Conductor*%
%ADD37C,0.500000*%
%TD*%
%TA.AperFunction,Conductor*%
%ADD38C,0.200000*%
%TD*%
%TA.AperFunction,Conductor*%
%ADD39C,0.750000*%
%TD*%
%TA.AperFunction,Conductor*%
%ADD40C,0.250000*%
%TD*%
G04 APERTURE END LIST*
D10*
%TO.P,J1,S1,SHIELD*%
%TO.N,VSS*%
X120320000Y-89500000D03*
X120320000Y-85500000D03*
X111680000Y-89500000D03*
X111680000Y-85500000D03*
%TD*%
D11*
%TO.P,J3,1*%
%TO.N,Net-(F1-Pad1)*%
X160300000Y-125500000D03*
%TO.P,J3,2*%
%TO.N,GND*%
X166300000Y-125500000D03*
D12*
%TO.P,J3,3*%
X163300000Y-120800000D03*
%TD*%
D13*
%TO.P,J6,1*%
%TO.N,BAT+*%
X169900000Y-87500000D03*
D14*
%TO.P,J6,2*%
%TO.N,VSS*%
X169900000Y-92500000D03*
%TD*%
D15*
%TO.P,SW2,*%
%TO.N,*%
X114000000Y-106900000D03*
X114000000Y-115100000D03*
D16*
%TO.P,SW2,1*%
%TO.N,+3V3*%
X114000000Y-109000000D03*
%TO.P,SW2,2*%
%TO.N,Net-(R6-Pad2)*%
X114000000Y-111000000D03*
%TO.P,SW2,3*%
%TO.N,VSS*%
X114000000Y-113000000D03*
%TD*%
D17*
%TO.P,C45,1*%
%TO.N,/Fuel Gauge/REGIN*%
X154600000Y-113350000D03*
%TO.P,C45,2*%
%TO.N,AGND*%
X154600000Y-114850000D03*
%TD*%
D18*
%TO.P,R34,1*%
%TO.N,Net-(U6-BAT)*%
X158300000Y-106510000D03*
D19*
%TO.P,R34,2*%
%TO.N,AGND*%
X158300000Y-107465000D03*
%TD*%
D20*
%TO.P,R35,1*%
%TO.N,BAT+*%
X152190000Y-113000000D03*
D21*
%TO.P,R35,2*%
%TO.N,Net-(D7-Pad2)*%
X151235000Y-113000000D03*
%TD*%
D22*
%TO.P,R31,1*%
%TO.N,BAT+*%
X153400000Y-105290000D03*
D23*
%TO.P,R31,2*%
%TO.N,Net-(Q4-Pad1)*%
X153400000Y-104335000D03*
%TD*%
D18*
%TO.P,R33,1*%
%TO.N,Net-(Q4-Pad3)*%
X158300000Y-104310000D03*
D19*
%TO.P,R33,2*%
%TO.N,Net-(U6-BAT)*%
X158300000Y-105265000D03*
%TD*%
D24*
%TO.P,NT3,1*%
%TO.N,/Battery Monitor/1P*%
X139509000Y-106700000D03*
%TO.P,NT3,2*%
%TO.N,AGND*%
X144491000Y-106700000D03*
%TD*%
D17*
%TO.P,C46,1*%
%TO.N,/Fuel Gauge/REG25*%
X156400000Y-113350000D03*
%TO.P,C46,2*%
%TO.N,AGND*%
X156400000Y-114850000D03*
%TD*%
D25*
%TO.P,Q4,1*%
%TO.N,Net-(Q4-Pad1)*%
X156750000Y-105800000D03*
%TO.P,Q4,2*%
%TO.N,BAT+*%
X154850000Y-105800000D03*
%TO.P,Q4,3*%
%TO.N,Net-(Q4-Pad3)*%
X155800000Y-103800000D03*
%TD*%
%TO.P,Q5,1*%
%TO.N,/Fuel Gauge/VEN*%
X153150000Y-108600000D03*
%TO.P,Q5,2*%
%TO.N,GND*%
X151250000Y-108600000D03*
%TO.P,Q5,3*%
%TO.N,Net-(Q5-Pad3)*%
X152200000Y-106600000D03*
%TD*%
D26*
%TO.P,C28,1*%
%TO.N,Net-(U4-SW2)*%
X143300000Y-117337000D03*
%TO.P,C28,2*%
%TO.N,Net-(U4-BTST2)*%
X143300000Y-116463000D03*
%TD*%
D27*
%TO.P,C44,1*%
%TO.N,Net-(U6-BAT)*%
X159600000Y-106563000D03*
%TO.P,C44,2*%
%TO.N,AGND*%
X159600000Y-107437000D03*
%TD*%
%TO.P,C27,1*%
%TO.N,Net-(U4-BTST1)*%
X146700000Y-116463000D03*
%TO.P,C27,2*%
%TO.N,Net-(U4-SW1)*%
X146700000Y-117337000D03*
%TD*%
D28*
%TO.P,Q6,1*%
%TO.N,Net-(D7-Pad2)*%
X151250000Y-109800000D03*
%TO.P,Q6,2*%
%TO.N,/Fuel Gauge/REGIN*%
X153150000Y-109800000D03*
%TO.P,Q6,3*%
%TO.N,BAT+*%
X152200000Y-111800000D03*
%TD*%
D29*
%TO.P,D7,1*%
%TO.N,GND*%
X149700000Y-111200000D03*
%TO.P,D7,2*%
%TO.N,Net-(D7-Pad2)*%
X149700000Y-109800000D03*
%TD*%
D30*
%TO.P,NT1,1*%
%TO.N,GND*%
X163291000Y-116300000D03*
%TO.P,NT1,2*%
%TO.N,AGND*%
X158309000Y-116300000D03*
%TD*%
D18*
%TO.P,R37,1*%
%TO.N,/Fuel Gauge/VEN*%
X155750000Y-110360000D03*
D19*
%TO.P,R37,2*%
%TO.N,Net-(R36-Pad1)*%
X155750000Y-111315000D03*
%TD*%
D18*
%TO.P,R32,1*%
%TO.N,Net-(Q4-Pad1)*%
X152200000Y-104310000D03*
D19*
%TO.P,R32,2*%
%TO.N,Net-(Q5-Pad3)*%
X152200000Y-105265000D03*
%TD*%
D22*
%TO.P,R36,1*%
%TO.N,Net-(R36-Pad1)*%
X158000000Y-114090000D03*
D23*
%TO.P,R36,2*%
%TO.N,/Fuel Gauge/REG25*%
X158000000Y-113135000D03*
%TD*%
D31*
%TO.N,VSS*%
X112400000Y-118575000D03*
D32*
X123150000Y-97600000D03*
D33*
X144500000Y-85600000D03*
X118350000Y-110150000D03*
D32*
X147200000Y-92700000D03*
D33*
X120060000Y-125900000D03*
D32*
X153150000Y-83400000D03*
D33*
X137600000Y-111850000D03*
D32*
X151900000Y-83400000D03*
X111400000Y-95900000D03*
D31*
X112400000Y-121200000D03*
D33*
X124100000Y-86300000D03*
D32*
X151900000Y-84400000D03*
X116050000Y-105500000D03*
X154450000Y-83400000D03*
D33*
X120950000Y-101500000D03*
X112500000Y-128000000D03*
X148500000Y-104900000D03*
D32*
X122300000Y-104000000D03*
D33*
X123500000Y-93200000D03*
D32*
X113350000Y-101400000D03*
D33*
X122700000Y-98450000D03*
X119650000Y-101500000D03*
X120950000Y-100200000D03*
X116700000Y-102350000D03*
D32*
X153150000Y-84400000D03*
D33*
X118350000Y-98900000D03*
X116320000Y-127100000D03*
X118350000Y-101500000D03*
X120100000Y-128500000D03*
X119650000Y-100200000D03*
X119650000Y-98900000D03*
X120950000Y-98900000D03*
X118350000Y-100200000D03*
X118900000Y-110150000D03*
D34*
X115444972Y-94794543D03*
D32*
X154450000Y-84400000D03*
D33*
X113250000Y-92500000D03*
D32*
X148400000Y-90450000D03*
D33*
X116350000Y-92500000D03*
D32*
%TO.N,GND*%
X149700000Y-112150000D03*
X150200000Y-108600000D03*
D34*
X161700000Y-115700000D03*
%TO.N,+3V3*%
X116100000Y-95800000D03*
X121550000Y-105250000D03*
X117900000Y-94000000D03*
X115650000Y-102400000D03*
D32*
%TO.N,VBUS*%
X150400000Y-117500000D03*
X147190000Y-113530000D03*
%TO.N,Net-(U4-BATP)*%
X136800000Y-111300000D03*
X140100000Y-111700000D03*
D33*
%TO.N,Net-(U4-BTST1)*%
X148037999Y-116037999D03*
D34*
%TO.N,Net-(U4-SW1)*%
X147025000Y-123050000D03*
D33*
X145550000Y-116150000D03*
D34*
X147025000Y-122000000D03*
D33*
X145550000Y-116700000D03*
%TO.N,Net-(U4-BTST2)*%
X141711091Y-115288909D03*
D34*
%TO.N,Net-(U4-SW2)*%
X142975000Y-122000000D03*
D33*
X144450000Y-116150000D03*
D34*
X142975000Y-123050000D03*
D33*
X144450000Y-116700000D03*
D34*
%TO.N,AGND*%
X159900000Y-112300000D03*
X148800000Y-108500000D03*
X164300000Y-113700000D03*
X146150000Y-110650000D03*
D33*
%TO.N,Net-(U6-BAT)*%
X156800000Y-109900000D03*
D32*
%TO.N,/Fuel Gauge/REGIN*%
X154100000Y-110200000D03*
D33*
%TO.N,/Fuel Gauge/REG25*%
X156800000Y-111900000D03*
%TO.N,Net-(U4-STAT)*%
X147750000Y-118150000D03*
D32*
X150300000Y-126000000D03*
%TO.N,BAT+*%
X149200000Y-100500000D03*
D34*
X132000000Y-115400000D03*
D32*
X149200000Y-102300000D03*
D34*
X166000000Y-106700000D03*
X128100000Y-116700000D03*
X164800000Y-106700000D03*
X164800000Y-107900000D03*
X129400000Y-116700000D03*
X129400000Y-115400000D03*
X167200000Y-107900000D03*
X130700000Y-116700000D03*
X132000000Y-116700000D03*
X163600000Y-106700000D03*
X128100000Y-115400000D03*
X163600000Y-107900000D03*
X130700000Y-115400000D03*
X166000000Y-107900000D03*
X167200000Y-106700000D03*
D33*
%TO.N,Net-(D2-Pad1)*%
X120300000Y-94700000D03*
X119700000Y-92600000D03*
%TO.N,/BAT_CHG_INT*%
X141700000Y-116000000D03*
X123600000Y-111500000D03*
%TO.N,/~{QON}*%
X124300000Y-111500000D03*
X145200000Y-115200000D03*
%TO.N,/SOC_ALERT*%
X122500000Y-106400000D03*
X162650000Y-110550000D03*
%TO.N,/BAL_ALERT*%
X138700000Y-92950000D03*
X124500000Y-99000000D03*
%TO.N,/SCL*%
X122200000Y-113000000D03*
X139900000Y-99400000D03*
X115500000Y-99200000D03*
X122200000Y-110500000D03*
X161000000Y-106400000D03*
X144900000Y-112600000D03*
%TO.N,/SDA*%
X122900000Y-109900000D03*
X144156587Y-112506587D03*
X123300000Y-113600000D03*
X161500000Y-107000000D03*
X115500000Y-100300000D03*
X139900000Y-100200000D03*
%TO.N,/~{CE}*%
X125000000Y-111500000D03*
X145125000Y-113331219D03*
%TO.N,/SWDCLK*%
X115500000Y-97850000D03*
X111450000Y-97850000D03*
X116700000Y-117450000D03*
X114200000Y-117450000D03*
%TO.N,/SWDIO*%
X111450000Y-97050000D03*
X116200000Y-97050000D03*
X111500000Y-116300000D03*
X116700000Y-116300000D03*
D32*
%TO.N,/Fuel Gauge/VEN*%
X154100000Y-108600000D03*
D33*
%TO.N,/TS*%
X159950000Y-109150000D03*
X143341402Y-101400000D03*
X143341402Y-109500000D03*
X164500000Y-115700000D03*
%TO.N,Net-(U4-SDRV)*%
X136050000Y-114200000D03*
X142150000Y-118100000D03*
%TO.N,Net-(Q2-Pad4)*%
X143250000Y-98100000D03*
X154450000Y-99750000D03*
%TO.N,Net-(U1-BOOT0)*%
X115350000Y-101450000D03*
X113900000Y-103500000D03*
%TO.N,/Battery Charger/REGN*%
X152900000Y-124500000D03*
X148025000Y-110525000D03*
%TO.N,Net-(U4-PROG)*%
X146900000Y-112600000D03*
X144500000Y-115000000D03*
%TO.N,/Battery Charger/ILIM_HZ*%
X147300000Y-108525000D03*
X142350000Y-114000000D03*
%TO.N,/Battery Monitor/CHG*%
X141600000Y-100100000D03*
X144000000Y-87100000D03*
X141600000Y-92900000D03*
X141600000Y-96550000D03*
D34*
%TO.N,/Battery Monitor/1P*%
X136800000Y-108900000D03*
X162300000Y-102200000D03*
X161000000Y-102200000D03*
X162300000Y-103500000D03*
X161000000Y-103500000D03*
%TD*%
D35*
%TO.N,GND*%
X163291000Y-116300000D02*
X163291000Y-115709000D01*
D36*
X151250000Y-108600000D02*
X150200000Y-108600000D01*
D35*
X163291000Y-115709000D02*
X163300000Y-115700000D01*
X163000000Y-115700000D02*
X161700000Y-115700000D01*
X163291000Y-115991000D02*
X163000000Y-115700000D01*
D36*
X149700000Y-111200000D02*
X149700000Y-112150000D01*
D35*
X163291000Y-116300000D02*
X163291000Y-115991000D01*
D37*
%TO.N,+3V3*%
X117900000Y-94000000D02*
X116100000Y-95800000D01*
X118500000Y-105250000D02*
X121550000Y-105250000D01*
X115650000Y-102400000D02*
X118500000Y-105250000D01*
D36*
%TO.N,VBUS*%
X150400000Y-117500000D02*
X150400000Y-116500000D01*
X150400000Y-116500000D02*
X147430000Y-113530000D01*
X147430000Y-113530000D02*
X147190000Y-113530000D01*
%TO.N,Net-(U4-BATP)*%
X136900000Y-111200000D02*
X136800000Y-111300000D01*
X140100000Y-111700000D02*
X139600000Y-111200000D01*
X139600000Y-111200000D02*
X136900000Y-111200000D01*
D38*
%TO.N,Net-(U4-BTST1)*%
X147125001Y-116037999D02*
X146700000Y-116463000D01*
X148037999Y-116037999D02*
X147125001Y-116037999D01*
D39*
%TO.N,Net-(U4-SW1)*%
X145550000Y-117650000D02*
X145550000Y-118500000D01*
D40*
X146387000Y-117650000D02*
X145550000Y-117650000D01*
D39*
X147025000Y-119975000D02*
X147025000Y-123050000D01*
X145550000Y-118500000D02*
X147025000Y-119975000D01*
D40*
X146700000Y-117337000D02*
X146387000Y-117650000D01*
D39*
X145550000Y-116700000D02*
X145550000Y-117650000D01*
D38*
%TO.N,Net-(U4-BTST2)*%
X142125909Y-115288909D02*
X143300000Y-116463000D01*
X141711091Y-115288909D02*
X142125909Y-115288909D01*
D40*
%TO.N,Net-(U4-SW2)*%
X143613000Y-117650000D02*
X144450000Y-117650000D01*
D39*
X144450000Y-117650000D02*
X144450000Y-118500000D01*
X144450000Y-116700000D02*
X144450000Y-117650000D01*
D40*
X143300000Y-117337000D02*
X143613000Y-117650000D01*
D39*
X142975000Y-119975000D02*
X142975000Y-123050000D01*
X144450000Y-118500000D02*
X142975000Y-119975000D01*
D35*
%TO.N,AGND*%
X145500000Y-106700000D02*
X146550000Y-107750000D01*
X158309000Y-115591000D02*
X158309000Y-116300000D01*
X157450000Y-114850000D02*
X156400000Y-114850000D01*
D38*
X159572000Y-107465000D02*
X159600000Y-107437000D01*
D35*
X146150000Y-108400000D02*
X146800000Y-107750000D01*
X159900000Y-112300000D02*
X159900000Y-114000000D01*
X154600000Y-114850000D02*
X151162563Y-114850000D01*
X159900000Y-114000000D02*
X158309000Y-115591000D01*
X164300000Y-113700000D02*
X160200000Y-113700000D01*
X158309000Y-116300000D02*
X158309000Y-115709000D01*
X146800000Y-107750000D02*
X148050000Y-107750000D01*
X154600000Y-114850000D02*
X156400000Y-114850000D01*
X159900000Y-112300000D02*
X158300000Y-110700000D01*
X158300000Y-110700000D02*
X158300000Y-107465000D01*
X159600000Y-107437000D02*
X158328000Y-107437000D01*
X148050000Y-107750000D02*
X148800000Y-108500000D01*
X158328000Y-107437000D02*
X158300000Y-107465000D01*
X144491000Y-106700000D02*
X145500000Y-106700000D01*
X151162563Y-114850000D02*
X148800000Y-112487437D01*
X160200000Y-113700000D02*
X159900000Y-114000000D01*
X146150000Y-110650000D02*
X146150000Y-108400000D01*
X146550000Y-107750000D02*
X146800000Y-107750000D01*
X148800000Y-112487437D02*
X148800000Y-108500000D01*
X158309000Y-115709000D02*
X157450000Y-114850000D01*
D38*
%TO.N,Net-(U6-BAT)*%
X156800000Y-108010000D02*
X156800000Y-109900000D01*
X159600000Y-106563000D02*
X158353000Y-106563000D01*
X158353000Y-106563000D02*
X158300000Y-106510000D01*
X158300000Y-106510000D02*
X158300000Y-105265000D01*
X158300000Y-106510000D02*
X156800000Y-108010000D01*
D36*
%TO.N,/Fuel Gauge/REGIN*%
X154100000Y-110200000D02*
X154100000Y-112850000D01*
X153150000Y-109800000D02*
X153700000Y-109800000D01*
X154100000Y-112850000D02*
X154600000Y-113350000D01*
X153700000Y-109800000D02*
X154100000Y-110200000D01*
D38*
%TO.N,/Fuel Gauge/REG25*%
X156515000Y-113235000D02*
X156400000Y-113350000D01*
X156400000Y-112300000D02*
X156800000Y-111900000D01*
X156400000Y-113350000D02*
X156400000Y-112300000D01*
X158000000Y-113235000D02*
X156515000Y-113235000D01*
D40*
%TO.N,Net-(U4-STAT)*%
X147750000Y-118150000D02*
X150300000Y-120700000D01*
X150300000Y-120700000D02*
X150300000Y-126000000D01*
D37*
%TO.N,BAT+*%
X163600000Y-105100000D02*
X163600000Y-106700000D01*
X152190000Y-113000000D02*
X152200000Y-112990000D01*
X153810000Y-106590000D02*
X153810000Y-105800000D01*
X149200000Y-105200000D02*
X152200000Y-108200000D01*
D36*
X149200000Y-100700000D02*
X149200000Y-100500000D01*
D37*
X153810000Y-105800000D02*
X153400000Y-105390000D01*
X152200000Y-112990000D02*
X152200000Y-108200000D01*
X160550000Y-104650000D02*
X163150000Y-104650000D01*
X149200000Y-102300000D02*
X149200000Y-105200000D01*
X156400000Y-100500000D02*
X160550000Y-104650000D01*
X149200000Y-100500000D02*
X156400000Y-100500000D01*
X154850000Y-105800000D02*
X153810000Y-105800000D01*
X163150000Y-104650000D02*
X163600000Y-105100000D01*
X153400000Y-105390000D02*
X153400000Y-105290000D01*
D38*
X152190000Y-113000000D02*
X152090000Y-113000000D01*
D37*
X152200000Y-108200000D02*
X153810000Y-106590000D01*
D40*
%TO.N,Net-(D2-Pad1)*%
X120300000Y-94700000D02*
X119700000Y-94100000D01*
X119700000Y-94100000D02*
X119700000Y-92600000D01*
D38*
%TO.N,/BAT_CHG_INT*%
X133500000Y-112700000D02*
X134200000Y-113400000D01*
X123600000Y-112100000D02*
X124200000Y-112700000D01*
X134200000Y-113400000D02*
X138850000Y-113400000D01*
X123600000Y-111500000D02*
X123600000Y-112100000D01*
X138850000Y-113400000D02*
X141450000Y-116000000D01*
X141450000Y-116000000D02*
X141700000Y-116000000D01*
X124200000Y-112700000D02*
X133500000Y-112700000D01*
%TO.N,/~{QON}*%
X134400000Y-112900000D02*
X139400000Y-112900000D01*
X142138909Y-114738909D02*
X142200000Y-114800000D01*
X142200000Y-114800000D02*
X142202686Y-114800000D01*
X124300000Y-111500000D02*
X124300000Y-111800000D01*
X139400000Y-112900000D02*
X141238909Y-114738909D01*
X142952686Y-115550000D02*
X144850000Y-115550000D01*
X142202686Y-114800000D02*
X142952686Y-115550000D01*
X124300000Y-111800000D02*
X124700000Y-112200000D01*
X141238909Y-114738909D02*
X142138909Y-114738909D01*
X133700000Y-112200000D02*
X134400000Y-112900000D01*
X124700000Y-112200000D02*
X133700000Y-112200000D01*
X144850000Y-115550000D02*
X145200000Y-115200000D01*
%TO.N,/SOC_ALERT*%
X121500000Y-107400000D02*
X122500000Y-106400000D01*
X123950000Y-113250000D02*
X121500000Y-110800000D01*
X134500000Y-117300000D02*
X134500000Y-114450000D01*
X163900000Y-118100000D02*
X160850000Y-118100000D01*
X162650000Y-110550000D02*
X163350000Y-110550000D01*
X134500000Y-114450000D02*
X133300000Y-113250000D01*
X121500000Y-110800000D02*
X121500000Y-107400000D01*
X152100000Y-126850000D02*
X144050000Y-126850000D01*
X133300000Y-113250000D02*
X123950000Y-113250000D01*
X160850000Y-118100000D02*
X152100000Y-126850000D01*
X165650000Y-116350000D02*
X163900000Y-118100000D01*
X144050000Y-126850000D02*
X134500000Y-117300000D01*
X165650000Y-112850000D02*
X165650000Y-116350000D01*
X163350000Y-110550000D02*
X165650000Y-112850000D01*
%TO.N,/BAL_ALERT*%
X124500000Y-99000000D02*
X130550000Y-92950000D01*
X130550000Y-92950000D02*
X138700000Y-92950000D01*
%TO.N,/SCL*%
X144443413Y-113056587D02*
X144900000Y-112600000D01*
X112100000Y-100600000D02*
X112100000Y-103178248D01*
X161250000Y-119000000D02*
X152500000Y-127750000D01*
X122200000Y-113600000D02*
X122200000Y-113000000D01*
X139900000Y-99400000D02*
X141600000Y-101100000D01*
X122850000Y-114250000D02*
X122200000Y-113600000D01*
X161000000Y-106400000D02*
X161677818Y-106400000D01*
X142856587Y-113056587D02*
X144443413Y-113056587D01*
X144900000Y-112400000D02*
X144900000Y-112600000D01*
X116200000Y-109600000D02*
X119600000Y-113000000D01*
X122200000Y-110500000D02*
X140300000Y-110500000D01*
X152500000Y-127750000D02*
X143650000Y-127750000D01*
X115500000Y-99200000D02*
X113500000Y-99200000D01*
X162150000Y-106872182D02*
X162150000Y-108050000D01*
X166550000Y-116750000D02*
X164300000Y-119000000D01*
X164300000Y-119000000D02*
X161250000Y-119000000D01*
X133600000Y-114900000D02*
X132950000Y-114250000D01*
X162150000Y-108050000D02*
X166550000Y-112450000D01*
X133600000Y-117700000D02*
X133600000Y-114900000D01*
X132950000Y-114250000D02*
X122850000Y-114250000D01*
X143650000Y-127750000D02*
X133600000Y-117700000D01*
X116200000Y-107278248D02*
X116200000Y-109600000D01*
X141600000Y-109100000D02*
X144900000Y-112400000D01*
X112100000Y-103178248D02*
X116200000Y-107278248D01*
X166550000Y-112450000D02*
X166550000Y-116750000D01*
X113500000Y-99200000D02*
X112100000Y-100600000D01*
X161677818Y-106400000D02*
X162150000Y-106872182D01*
X140300000Y-110500000D02*
X142856587Y-113056587D01*
X141600000Y-101100000D02*
X141600000Y-109100000D01*
X119600000Y-113000000D02*
X122200000Y-113000000D01*
%TO.N,/SDA*%
X123300000Y-113600000D02*
X123400000Y-113700000D01*
X133050000Y-113700000D02*
X134050000Y-114700000D01*
X140700000Y-101000000D02*
X140700000Y-109100000D01*
X112675000Y-103079595D02*
X117595405Y-108000000D01*
X123400000Y-113700000D02*
X133050000Y-113700000D01*
X134050000Y-114700000D02*
X134050000Y-117500000D01*
X143850000Y-127300000D02*
X152300000Y-127300000D01*
X122900000Y-109900000D02*
X139900000Y-109900000D01*
X144106587Y-112506587D02*
X140700000Y-109100000D01*
X144156587Y-112506587D02*
X144106587Y-112506587D01*
X161050000Y-118550000D02*
X164100000Y-118550000D01*
X112675000Y-101120405D02*
X112675000Y-103079595D01*
X113495405Y-100300000D02*
X112675000Y-101120405D01*
X117595405Y-108000000D02*
X118000000Y-108000000D01*
X134050000Y-117500000D02*
X143850000Y-127300000D01*
X152300000Y-127300000D02*
X161050000Y-118550000D01*
X139900000Y-109900000D02*
X140700000Y-109100000D01*
X166100000Y-116550000D02*
X166100000Y-112650000D01*
X115500000Y-100300000D02*
X113495405Y-100300000D01*
X139900000Y-100200000D02*
X140700000Y-101000000D01*
X118000000Y-108000000D02*
X123300000Y-113300000D01*
X164100000Y-118550000D02*
X166100000Y-116550000D01*
X161500000Y-108050000D02*
X161500000Y-107000000D01*
X166100000Y-112650000D02*
X161500000Y-108050000D01*
X123300000Y-113300000D02*
X123300000Y-113600000D01*
%TO.N,/~{CE}*%
X142813909Y-113600000D02*
X142513909Y-113300000D01*
X145125000Y-113331219D02*
X144856219Y-113600000D01*
X133700000Y-111500000D02*
X125000000Y-111500000D01*
X142513909Y-113300000D02*
X140600000Y-113300000D01*
X134600000Y-112400000D02*
X133700000Y-111500000D01*
X139700000Y-112400000D02*
X134600000Y-112400000D01*
X144856219Y-113600000D02*
X142813909Y-113600000D01*
X140600000Y-113300000D02*
X139700000Y-112400000D01*
D40*
%TO.N,/SWDCLK*%
X115500000Y-97850000D02*
X111450000Y-97850000D01*
X114200000Y-117450000D02*
X116700000Y-117450000D01*
%TO.N,/SWDIO*%
X116200000Y-97050000D02*
X111450000Y-97050000D01*
X116700000Y-116300000D02*
X111500000Y-116300000D01*
D38*
%TO.N,/Fuel Gauge/VEN*%
X155750000Y-110250000D02*
X155750000Y-110510000D01*
D36*
X153150000Y-108600000D02*
X154100000Y-108600000D01*
D38*
X154100000Y-108600000D02*
X155750000Y-110250000D01*
D40*
%TO.N,/TS*%
X160350000Y-105412116D02*
X156337884Y-101400000D01*
X143341402Y-109500000D02*
X143341402Y-101400000D01*
X165125000Y-115075000D02*
X164500000Y-115700000D01*
X165125000Y-113358273D02*
X165125000Y-115075000D01*
X164516727Y-112750000D02*
X165125000Y-113358273D01*
X156337884Y-101400000D02*
X143341402Y-101400000D01*
X159950000Y-109150000D02*
X160350000Y-108750000D01*
X160350000Y-108750000D02*
X160350000Y-105412116D01*
X163550000Y-112750000D02*
X164516727Y-112750000D01*
X159950000Y-109150000D02*
X163550000Y-112750000D01*
D38*
%TO.N,Net-(U4-SDRV)*%
X140000000Y-118100000D02*
X142150000Y-118100000D01*
X136100000Y-114200000D02*
X140000000Y-118100000D01*
X136050000Y-114200000D02*
X136100000Y-114200000D01*
%TO.N,Net-(Q2-Pad4)*%
X152800000Y-98100000D02*
X143250000Y-98100000D01*
X154450000Y-99750000D02*
X152800000Y-98100000D01*
%TO.N,Net-(Q4-Pad1)*%
X152225000Y-104335000D02*
X152200000Y-104310000D01*
X155285000Y-104335000D02*
X152225000Y-104335000D01*
X156750000Y-105800000D02*
X155285000Y-104335000D01*
%TO.N,Net-(Q4-Pad3)*%
X157790000Y-103800000D02*
X158300000Y-104310000D01*
X155800000Y-103800000D02*
X157790000Y-103800000D01*
%TO.N,Net-(Q5-Pad3)*%
X152200000Y-105265000D02*
X152200000Y-106600000D01*
D40*
%TO.N,Net-(U1-BOOT0)*%
X113900000Y-102900000D02*
X113900000Y-103500000D01*
X115350000Y-101450000D02*
X113900000Y-102900000D01*
D38*
%TO.N,/Battery Charger/REGN*%
X152100000Y-116900000D02*
X148025000Y-112825000D01*
X152100000Y-123700000D02*
X152100000Y-116900000D01*
X152900000Y-124500000D02*
X152100000Y-123700000D01*
X148025000Y-112825000D02*
X148025000Y-110525000D01*
%TO.N,Net-(U4-PROG)*%
X146515000Y-112985000D02*
X146900000Y-112600000D01*
X145550000Y-114650000D02*
X146515000Y-113685000D01*
X144850000Y-114650000D02*
X145550000Y-114650000D01*
X144500000Y-115000000D02*
X144850000Y-114650000D01*
X146515000Y-113685000D02*
X146515000Y-112985000D01*
D40*
%TO.N,/Battery Charger/ILIM_HZ*%
X145069392Y-114200000D02*
X142550000Y-114200000D01*
X142550000Y-114200000D02*
X142350000Y-114000000D01*
X147300000Y-110913173D02*
X146000000Y-112213173D01*
X146000000Y-113269392D02*
X145069392Y-114200000D01*
X147300000Y-108525000D02*
X147300000Y-110913173D01*
X146000000Y-112213173D02*
X146000000Y-113269392D01*
D38*
%TO.N,/Battery Monitor/CHG*%
X141600000Y-92900000D02*
X141600000Y-89500000D01*
X141600000Y-100100000D02*
X141600000Y-96550000D01*
X141600000Y-89500000D02*
X144000000Y-87100000D01*
%TO.N,Net-(D7-Pad2)*%
X151250000Y-109800000D02*
X149700000Y-109800000D01*
X151135000Y-113000000D02*
X151250000Y-112885000D01*
X151250000Y-112885000D02*
X151250000Y-109800000D01*
%TO.N,Net-(R36-Pad1)*%
X155750000Y-111315000D02*
X157615000Y-111315000D01*
X157615000Y-111315000D02*
X158800000Y-112500000D01*
X158800000Y-112500000D02*
X158800000Y-113850000D01*
X158560000Y-114090000D02*
X158000000Y-114090000D01*
X158800000Y-113850000D02*
X158560000Y-114090000D01*
%TD*%
%TA.AperFunction,Conductor*%
%TO.N,Net-(U4-SW1)*%
G36*
X145931694Y-115918306D02*
G01*
X145950000Y-115962500D01*
X145950000Y-116887500D01*
X145931694Y-116931694D01*
X145887500Y-116950000D01*
X145212500Y-116950000D01*
X145168306Y-116931694D01*
X145150000Y-116887500D01*
X145150000Y-115962500D01*
X145168306Y-115918306D01*
X145212500Y-115900000D01*
X145887500Y-115900000D01*
X145931694Y-115918306D01*
G37*
%TD.AperFunction*%
%TD*%
%TA.AperFunction,Conductor*%
%TO.N,Net-(U4-SW2)*%
G36*
X144831694Y-115922806D02*
G01*
X144850000Y-115967000D01*
X144850000Y-116887500D01*
X144831694Y-116931694D01*
X144787500Y-116950000D01*
X144112500Y-116950000D01*
X144068306Y-116931694D01*
X144050000Y-116887500D01*
X144050000Y-115967000D01*
X144068306Y-115922806D01*
X144112500Y-115904500D01*
X144787500Y-115904500D01*
X144831694Y-115922806D01*
G37*
%TD.AperFunction*%
%TD*%
%TA.AperFunction,Conductor*%
%TO.N,/Battery Monitor/1P*%
G36*
X162937613Y-93499887D02*
G01*
X162981774Y-93518273D01*
X163000000Y-93562387D01*
X163000000Y-103937500D01*
X162981694Y-103981694D01*
X162937500Y-104000000D01*
X160639358Y-104000000D01*
X160595164Y-103981694D01*
X160518306Y-103904835D01*
X160500000Y-103860641D01*
X160500000Y-96000000D01*
X137850000Y-96000000D01*
X137900000Y-105100000D01*
X140283000Y-105100000D01*
X140327194Y-105118306D01*
X140345500Y-105162500D01*
X140345500Y-108341514D01*
X140330712Y-108381885D01*
X139364840Y-109523371D01*
X139322318Y-109545284D01*
X139317128Y-109545500D01*
X135412500Y-109545500D01*
X135368306Y-109527194D01*
X135350000Y-109483000D01*
X135350000Y-93512613D01*
X135368306Y-93468419D01*
X135412499Y-93450113D01*
X162937613Y-93499887D01*
G37*
%TD.AperFunction*%
%TD*%
%TA.AperFunction,Conductor*%
%TO.N,BAT+*%
G36*
X175502044Y-82881634D02*
G01*
X175772432Y-82899356D01*
X175780536Y-82900422D01*
X176044301Y-82952888D01*
X176052176Y-82954999D01*
X176276985Y-83031311D01*
X176306832Y-83041443D01*
X176314385Y-83044571D01*
X176555578Y-83163514D01*
X176562658Y-83167602D01*
X176786255Y-83317005D01*
X176792740Y-83321981D01*
X176994933Y-83499299D01*
X177000700Y-83505066D01*
X177166997Y-83694692D01*
X177178017Y-83707258D01*
X177182994Y-83713744D01*
X177332397Y-83937341D01*
X177336485Y-83944421D01*
X177455428Y-84185614D01*
X177458556Y-84193167D01*
X177544997Y-84447812D01*
X177547113Y-84455709D01*
X177599576Y-84719462D01*
X177600643Y-84727567D01*
X177618366Y-84997955D01*
X177618500Y-85002043D01*
X177618500Y-129997956D01*
X177618366Y-130002044D01*
X177600643Y-130272432D01*
X177599576Y-130280537D01*
X177547113Y-130544290D01*
X177544997Y-130552187D01*
X177458556Y-130806832D01*
X177455428Y-130814385D01*
X177336485Y-131055578D01*
X177332397Y-131062658D01*
X177182994Y-131286255D01*
X177178017Y-131292741D01*
X177000707Y-131494926D01*
X176994926Y-131500707D01*
X176792741Y-131678017D01*
X176786255Y-131682994D01*
X176562658Y-131832397D01*
X176555578Y-131836485D01*
X176314385Y-131955428D01*
X176306832Y-131958556D01*
X176052187Y-132044997D01*
X176044290Y-132047113D01*
X175780537Y-132099576D01*
X175772432Y-132100643D01*
X175502044Y-132118366D01*
X175497956Y-132118500D01*
X127362500Y-132118500D01*
X127318306Y-132100194D01*
X127300000Y-132056000D01*
X127300000Y-114667000D01*
X127318306Y-114622806D01*
X127362500Y-114604500D01*
X132737500Y-114604500D01*
X132781694Y-114622806D01*
X132800000Y-114667000D01*
X132800000Y-128500000D01*
X170000000Y-128500000D01*
X170000000Y-108700000D01*
X163327227Y-108700000D01*
X163283033Y-108681694D01*
X163018306Y-108416967D01*
X163000000Y-108372773D01*
X163000000Y-104462500D01*
X163018306Y-104418306D01*
X163062500Y-104400000D01*
X168000000Y-104400000D01*
X168000000Y-92499997D01*
X168640708Y-92499997D01*
X168640708Y-92500002D01*
X168659839Y-92718675D01*
X168659840Y-92718681D01*
X168716650Y-92930695D01*
X168716655Y-92930708D01*
X168809418Y-93129642D01*
X168809420Y-93129644D01*
X168935326Y-93309458D01*
X169090541Y-93464673D01*
X169155958Y-93510478D01*
X169270354Y-93590579D01*
X169270355Y-93590579D01*
X169270357Y-93590581D01*
X169419221Y-93659996D01*
X169469297Y-93683347D01*
X169469302Y-93683348D01*
X169469304Y-93683349D01*
X169681318Y-93740159D01*
X169681319Y-93740159D01*
X169681326Y-93740161D01*
X169861736Y-93755944D01*
X169899998Y-93759292D01*
X169900000Y-93759292D01*
X169900002Y-93759292D01*
X169935185Y-93756213D01*
X170118674Y-93740161D01*
X170330703Y-93683347D01*
X170529646Y-93590579D01*
X170709457Y-93464674D01*
X170864674Y-93309457D01*
X170990579Y-93129646D01*
X171083347Y-92930703D01*
X171140161Y-92718674D01*
X171159292Y-92500000D01*
X171140161Y-92281326D01*
X171139671Y-92279499D01*
X171083349Y-92069304D01*
X171083348Y-92069302D01*
X171083347Y-92069297D01*
X171059996Y-92019221D01*
X170990581Y-91870357D01*
X170990579Y-91870355D01*
X170990579Y-91870354D01*
X170864674Y-91690543D01*
X170864673Y-91690541D01*
X170709458Y-91535326D01*
X170595061Y-91455225D01*
X170529646Y-91409421D01*
X170529644Y-91409420D01*
X170529642Y-91409418D01*
X170330708Y-91316655D01*
X170330695Y-91316650D01*
X170118681Y-91259840D01*
X170118675Y-91259839D01*
X169900002Y-91240708D01*
X169899998Y-91240708D01*
X169681324Y-91259839D01*
X169681318Y-91259840D01*
X169469304Y-91316650D01*
X169469291Y-91316655D01*
X169270357Y-91409418D01*
X169270355Y-91409420D01*
X169090541Y-91535326D01*
X168935326Y-91690541D01*
X168809420Y-91870355D01*
X168809418Y-91870357D01*
X168716655Y-92069291D01*
X168716650Y-92069304D01*
X168659840Y-92281318D01*
X168659839Y-92281324D01*
X168640708Y-92499997D01*
X168000000Y-92499997D01*
X168000000Y-82944000D01*
X168018306Y-82899806D01*
X168062500Y-82881500D01*
X175445149Y-82881500D01*
X175497956Y-82881500D01*
X175502044Y-82881634D01*
G37*
%TD.AperFunction*%
%TD*%
M02*
